<?xml version="1.0" encoding="UTF-8"?>
<svg xmlns="http://www.w3.org/2000/svg" xmlns:xlink="http://www.w3.org/1999/xlink" viewBox="0 0 184 30">
  <defs>
    <symbol viewBox="0 0 16.75 16.5" id="how-to">
      <path id="SX_ListView_18_N" d="M16,4H7A1,1,0,0,1,7,2h9a1,1,0,0,1,0,2Zm1,5a1,1,0,0,0-1-1H7a1,1,0,0,0,0,2h9A1,1,0,0,0,17,9Zm0,6a1,1,0,0,0-1-1H7a1,1,0,0,0,0,2h9A1,1,0,0,0,17,15ZM2.75.5h-.5a2,2,0,0,0-2,2V3a2,2,0,0,0,2,2h.5a2,2,0,0,0,2-2V2.5A2,2,0,0,0,2.75.5Zm0,6h-.5a2,2,0,0,0-2,2V9a2,2,0,0,0,2,2h.5a2,2,0,0,0,2-2V8.5A2,2,0,0,0,2.75,6.5Zm0,6h-.5a2,2,0,0,0-2,2V15a2,2,0,0,0,2,2h.5a2,2,0,0,0,2-2v-.5A2,2,0,0,0,2.75,12.5Z" transform="translate(-0.25 -0.5)"/>
    </symbol>
    <symbol viewBox="0 0 14 18" id="learn">
      <g id="ICONS" transform="translate(-2)">
        <path id="Path_127039" d="M4.806,12.441C5.42,13.041,6,13.607,6,14v1a3,3,0,0,0,6,0V14c0-.383.569-.931,1.172-1.51C14.365,11.342,16,9.77,16,7A7,7,0,1,0,2,7C2,9.7,3.622,11.285,4.806,12.441ZM10,15a1,1,0,0,1-2,0v0h2ZM9,2a5.006,5.006,0,0,1,5,5c0,1.918-1.126,3-2.215,4.049A6.481,6.481,0,0,0,10.219,13H9.966A.949.949,0,0,0,10,12.826V9.414l1.707-1.707a1,1,0,1,0-1.414-1.414L9,7.586,7.707,6.293A1,1,0,1,0,6.293,7.707L8,9.414v3.412A.949.949,0,0,0,8.034,13H7.782A6.664,6.664,0,0,0,6.2,11.011C5.12,9.952,4,8.858,4,7A5.006,5.006,0,0,1,9,2Z"/>
      </g>
    </symbol>
    <symbol viewBox="0 0 22.627 22.627" id="close">
      <path id="Union_354" d="M-1595.334-133.333v-5.333h-5.333A1.333,1.333,0,0,1-1602-140a1.333,1.333,0,0,1,1.334-1.333h5.333v-5.333A1.334,1.334,0,0,1-1594-148a1.333,1.333,0,0,1,1.333,1.333v5.333h5.333A1.333,1.333,0,0,1-1586-140a1.333,1.333,0,0,1-1.334,1.334h-5.333v5.333A1.333,1.333,0,0,1-1594-132,1.334,1.334,0,0,1-1595.334-133.333Z" transform="translate(-1016.82 -1214.809) rotate(-135)"/>
    </symbol>
    <symbol viewBox="0 0 16 17" id="faq">
      <path id="Path_607275" d="M10.171,0H6A5.006,5.006,0,0,0,1,5v7a5.006,5.006,0,0,0,5,5h6a5.006,5.006,0,0,0,5-5V6.828a2.979,2.979,0,0,0-.879-2.121L12.293.879A2.982,2.982,0,0,0,10.171,0ZM11,2.414,14.586,6H12a1,1,0,0,1-1-1ZM12,15H6a3,3,0,0,1-3-3V5A3,3,0,0,1,6,2H9V5a3,3,0,0,0,3,3h3v4A3,3,0,0,1,12,15Z" transform="translate(-1 0)"/>
    </symbol>
    <symbol viewBox="0 0 17 18" id="templates">
      <g id="ICONS" transform="translate(-1 0)">
        <path id="Path_127151" d="M16.5,9.164A5.1,5.1,0,0,0,17,6.973V5a5.006,5.006,0,0,0-5-5H7.829A2.982,2.982,0,0,0,5.707.879L1.879,4.707A2.979,2.979,0,0,0,1,6.828V12a5.006,5.006,0,0,0,5,5h4.435a2.338,2.338,0,0,0,3.692.184l.034-.04C17.563,13,18,12.773,18,11.5a2.6,2.6,0,0,0-1.5-2.336ZM7,2.414V5A1,1,0,0,1,6,6H3.414Zm2.065,9.637a2.624,2.624,0,0,0,1.427,1.783l-.343.972c-.024.063-.03.13-.048.194H6a3,3,0,0,1-3-3V8H6A3,3,0,0,0,9,5V2h3a3,3,0,0,1,3,3v.045A2.34,2.34,0,0,0,14.634,5h0a2.345,2.345,0,0,0-1.773.817l-.035.041L9.614,9.784a2.628,2.628,0,0,0-.549,2.267Zm6.784-.116-3.235,3.94a.34.34,0,0,1-.26.125.357.357,0,0,1-.33-.5L13,12.741l-1.628-.706a.619.619,0,0,1-.218-.971l3.223-3.94A.34.34,0,0,1,14.634,7a.357.357,0,0,1,.33.5L14,10.259l1.628.706a.619.619,0,0,1,.219.971Z"/>
      </g>
    </symbol>
    <symbol viewBox="0 0 18 18" id="browse">
      <g id="ICONS" transform="translate(0 18) rotate(-90)">
        <path id="Path_127744" d="M17.995,8.973A8.979,8.979,0,0,0,9.032.006C9.021.006,9.011,0,9,0s-.021.006-.032.006A8.979,8.979,0,0,0,.005,8.973C.005,8.983,0,8.99,0,9s.005.017.005.027a8.979,8.979,0,0,0,8.963,8.967c.011,0,.021.006.032.006s.021-.006.032-.006a8.979,8.979,0,0,0,8.963-8.967c0-.01.005-.017.005-.027S17.995,8.983,17.995,8.973ZM13.95,13.95A6.958,6.958,0,0,1,9.984,15.92a.986.986,0,0,0-1.968,0A6.944,6.944,0,0,1,2.08,9.984a.986.986,0,0,0,0-1.968A6.944,6.944,0,0,1,8.016,2.08a.986.986,0,0,0,1.968,0A6.944,6.944,0,0,1,15.92,8.016a.986.986,0,0,0,0,1.968A6.957,6.957,0,0,1,13.95,13.95Z"/>
        <path id="Path_127745" d="M11.517,6.967a1,1,0,0,0-.644-.633L6.054,4.8A1,1,0,0,0,4.8,6.054l1.537,4.819a1,1,0,0,0,.633.644L11.93,13.2A1,1,0,0,0,13.2,11.93ZM8.086,9.784,7.291,7.291l2.493.795.869,2.567Z"/>
      </g>
    </symbol>
    <symbol viewBox="0 0 12 17" id="dl">
      <g id="ICONS" transform="translate(-3)">
        <path id="Path_127667" d="M12,0H6A3,3,0,0,0,3,3V14a3,3,0,0,0,3,3h6a3,3,0,0,0,3-3V3A3,3,0,0,0,12,0Zm1,14a1,1,0,0,1-1,1H6a1,1,0,0,1-1-1V3A1,1,0,0,1,6,2H8A1,1,0,0,0,8,4h2a1,1,0,0,0,0-2h2a1,1,0,0,1,1,1Z"/>
        <circle id="Ellipse_24753" cx="1" cy="1" r="1" transform="translate(8 12)"></circle>
      </g>
    </symbol>
    <symbol viewBox="250 250 550 550" id="arrow-down">
      <g stroke-linecap="round" stroke-linejoin="round" stroke-width="74" stroke="#000">
        <path d="M-210,54 C-210,54 197,54 197,54" transform="matrix(0,1,-1,0,554.1630249023438,507.17840576171875)"/>
        <path d="M8,54 C8,54 197,54 197,54" transform="matrix(-0.7071067690849304,0.7071067690849304,-0.7071067690849304,-0.7071067690849304,677.4837646484375,601.951171875)"/>
        <path d="M8,54 C8,54 197,54 197,54" transform="matrix(0.7071067690849304,0.7071067690849304,-0.7071067690849304,0.7071067690849304,398.88372802734375,525.7435913085938)"/>
      </g>
    </symbol>
  </defs>
  <g id="Sprite">
    <use width="18" height="18" transform="translate(4 4)" xlink:href="#browse"/>
    <use width="18" height="18" transform="translate(26 4)" xlink:href="#close"/>
    <use width="18" height="18" transform="translate(48 4)" xlink:href="#dl"/>
    <use width="18" height="18" transform="translate(70 4)" xlink:href="#faq"/>
    <use width="18" height="18" transform="translate(92 4)" xlink:href="#how-to"/>
    <use width="18" height="18" transform="translate(114 4)" xlink:href="#learn"/>
    <use width="18" height="18" transform="translate(136 4)" xlink:href="#templates"/>
    <use width="18" height="18" transform="translate(158 4)" xlink:href="#arrow-down"/>
  </g>
</svg>