<?xml version="1.0" encoding="utf-8"?>
<svg version="1.1" xmlns="http://www.w3.org/2000/svg" xmlns:xlink="http://www.w3.org/1999/xlink">

<symbol id="adobe" viewBox="0 0 22.2 22.2">
    <title>Adobe</title> 
    <desc>Adobe Logo</desc>
	<polygon points="13.8,1.2 22.1,20.7 22.1,1.2"/>
	<polygon points="0,1.2 0,20.7 8.1,1.2"/>
	<polygon points="7.4,16.7 11.3,16.7 12.8,20.7 16.2,20.7 11,8.3"/>
</symbol>

<symbol id="adobe-red" viewBox="0 0 22.2 22.2">
    <title>Adobe</title> 
    <desc>Adobe Logo</desc>
	<polygon points="13.8,1.2 22.1,20.7 22.1,1.2" fill="#fa0f00"/>
	<polygon points="0,1.2 0,20.7 8.1,1.2" fill="#fa0f00"/>
	<polygon points="7.4,16.7 11.3,16.7 12.8,20.7 16.2,20.7 11,8.3" fill="#fa0f00"/>
</symbol>

<symbol id="facebook" viewBox="0 0 18 18">
    <title>Facebook</title> 
    <desc>Facebook Logo</desc>
    <path d="M10.5,18V9.8h3l0.4-3.2h-3.4v-2c0-0.9,0.3-1.6,1.7-1.6H14V0.1C13.1,0,12.2,0,11.3,0C8.7,0,6.9,1.5,6.9,4.2v2.4
	H4v3.2h3V18H10.5L10.5,18z"/>
</symbol>

<symbol id="instagram" viewBox="0 0 24 24">
    <title>Instagram</title> 
    <desc>Instagram Logo</desc>
    <path d="M12 2.163c3.204 0 3.584.012 4.85.07 3.252.148 4.771 1.691 4.919 4.919.058 1.265.069 1.645.069 4.849 0 3.205-.012 3.584-.069 4.849-.149 3.225-1.664 4.771-4.919 4.919-1.266.058-1.644.07-4.85.07-3.204 0-3.584-.012-4.849-.07-3.26-.149-4.771-1.699-4.919-4.92-.058-1.265-.07-1.644-.07-4.849 0-3.204.013-3.583.07-4.849.149-3.227 1.664-4.771 4.919-4.919 1.266-.057 1.645-.069 4.849-.069zm0-2.163c-3.259 0-3.667.014-4.947.072-4.358.2-6.78 2.618-6.98 6.98-.059 1.281-.073 1.689-.073 4.948 0 3.259.014 3.668.072 4.948.2 4.358 2.618 6.78 6.98 6.98 1.281.058 1.689.072 4.948.072 3.259 0 3.668-.014 4.948-.072 4.354-.2 6.782-2.618 6.979-6.98.059-1.28.073-1.689.073-4.948 0-3.259-.014-3.667-.072-4.947-.196-4.354-2.617-6.78-6.979-6.98-1.281-.059-1.69-.073-4.949-.073zm0 5.838c-3.403 0-6.162 2.759-6.162 6.162s2.759 6.163 6.162 6.163 6.162-2.759 6.162-6.163c0-3.403-2.759-6.162-6.162-6.162zm0 10.162c-2.209 0-4-1.79-4-4 0-2.209 1.791-4 4-4s4 1.791 4 4c0 2.21-1.791 4-4 4zm6.406-11.845c-.796 0-1.441.645-1.441 1.44s.645 1.44 1.441 1.44c.795 0 1.439-.645 1.439-1.44s-.644-1.44-1.439-1.44z"></path>
</symbol>

<symbol id="pinterest" viewBox="0 0 40 40">
    <title>Pinterest</title> 
    <desc>Pinterest Logo</desc>
    <path d="M19.934 0C8.918 0 .016 8.918.016 19.918c0 8.443 5.246 15.656 12.656 18.557-.18-1.573-.328-4 .066-5.72.36-1.558 2.328-9.903 2.328-9.903s-.59-1.196-.59-2.95c0-2.77 1.606-4.836 3.606-4.836 1.705 0 2.525 1.278 2.525 2.803 0 1.705-1.082 4.262-1.656 6.64-.476 1.983 1 3.606 2.95 3.606 3.542 0 6.263-3.738 6.263-9.115 0-4.77-3.426-8.098-8.328-8.098-5.672 0-9 4.246-9 8.639 0 1.705.656 3.541 1.475 4.541.164.197.18.377.132.574-.148.623-.492 1.983-.558 2.262-.082.36-.295.443-.672.262-2.459-1.18-4-4.82-4-7.737 0-6.28 4.557-12.05 13.164-12.05 6.902 0 12.279 4.918 12.279 11.509 0 6.868-4.328 12.393-10.328 12.393-2.017 0-3.918-1.05-4.558-2.295l-1.245 4.738c-.443 1.737-1.656 3.901-2.476 5.23 1.869.573 3.836.884 5.902.884 11 0 19.918-8.918 19.918-19.918C39.852 8.918 30.934 0 19.934 0z"></path>
</symbol>

<symbol id="linkedin" viewBox="0 0 17 17.1">
    <title>LinkedIn</title> 
    <desc>LinkedIn Logo</desc>
    <path d="M3.7,16.3H0.4V5.7h3.3V16.3z M2,4.4L2,4.4C1,4.5,0.1,3.7,0,2.7c0-0.1,0-0.1,0-0.2c0-1,0.8-1.9,1.9-1.8c0,0,0.1,0,0.1,0
	c1-0.1,1.9,0.6,2,1.6c0.1,1-0.6,1.9-1.6,2C2.3,4.4,2.1,4.4,2,4.4z M17,16.3h-3.8v-5.5c0-1.4-0.6-2.4-1.9-2.4c-0.8,0-1.5,0.5-1.8,1.3
	c-0.1,0.3-0.1,0.6-0.1,0.9v5.7H5.8c0,0,0-9.7,0-10.6h3.7v1.7c0.7-1.2,2-1.9,3.3-1.8c2.4,0,4.2,1.5,4.2,4.8V16.3z"/>
</symbol>

<symbol id="twitter" viewBox="0 0 17.2 17.2">
    <title>Twitter</title> 
    <desc>Twitter Logo</desc>
    <path d="M17.2,3.3L17.2,3.3 M11.9,1.6c-2,0-3.5,1.6-3.5,3.5c0,0.3,0,0.5,0.1,0.8C5.6,5.8,3,4.5,1.2,2.3C0.3,3.9,0.7,6,2.3,7
	C1.7,7,1.2,6.8,0.7,6.6c0,0,0,0,0,0c0,1.7,1.2,3.1,2.8,3.5c-0.3,0.1-0.6,0.1-0.9,0.1c-0.2,0-0.4,0-0.7-0.1c0.5,1.4,1.8,2.4,3.3,2.5
	c-1.3,1-2.8,1.5-4.4,1.5c-0.3,0-0.6,0-0.8,0c4.7,3,10.9,1.6,13.9-3c1-1.6,1.6-3.5,1.6-5.4c0-0.2,0-0.3,0-0.5
	c0.7-0.5,1.3-1.1,1.8-1.8c-0.6,0.3-1.3,0.5-2,0.6c0.7-0.4,1.3-1.1,1.6-2c-0.7,0.4-1.5,0.7-2.2,0.9C13.8,2,12.9,1.6,11.9,1.6"/>
</symbol>

<symbol id="youtube" viewBox="0 0 24 23.9">
    <title>YouTube</title> 
    <desc>YouTube Logo</desc>
    <path d="M23.7,7.1c-0.1-0.9-0.4-1.7-1-2.4c-0.6-0.6-1.5-1-2.4-1C17,3.4,12,3.4,12,3.4h0c0,0-5,0-8.4,0.2c-0.9,0-1.8,0.4-2.4,1
	c-0.5,0.7-0.8,1.5-1,2.4C0.1,8.4,0,9.7,0,11v1.8c0,1.3,0.1,2.6,0.2,3.9c0.1,0.9,0.4,1.7,1,2.4c0.7,0.7,1.7,1,2.6,1
	c1.9,0.2,8.2,0.2,8.2,0.2s5,0,8.4-0.2c0.9,0,1.8-0.4,2.4-1c0.5-0.7,0.8-1.5,1-2.4c0.1-1.3,0.2-2.6,0.2-3.9V11
	C24,9.7,23.9,8.4,23.7,7.1z M9.5,15.1V8.3l6.5,3.4L9.5,15.1z"/>
</symbol>

<symbol id="discord" viewBox="0 0 245 240">
    <title>Discord</title> 
    <desc>Discord Logo</desc>
	<path d="M104.4 103.9c-5.7 0-10.2 5-10.2 11.1s4.6 11.1 10.2 11.1c5.7 0 10.2-5 10.2-11.1.1-6.1-4.5-11.1-10.2-11.1zM140.9 103.9c-5.7 0-10.2 5-10.2 11.1s4.6 11.1 10.2 11.1c5.7 0 10.2-5 10.2-11.1s-4.5-11.1-10.2-11.1z"/>
	<path d="M189.5 20h-134C44.2 20 35 29.2 35 40.6v135.2c0 11.4 9.2 20.6 20.5 20.6h113.4l-5.3-18.5 12.8 11.9 12.1 11.2 21.5 19V40.6c0-11.4-9.2-20.6-20.5-20.6zm-38.6 130.6s-3.6-4.3-6.6-8.1c13.1-3.7 18.1-11.9 18.1-11.9-4.1 2.7-8 4.6-11.5 5.9-5 2.1-9.8 3.5-14.5 4.3-9.6 1.8-18.4 1.3-25.9-.1-5.7-1.1-10.6-2.7-14.7-4.3-2.3-.9-4.8-2-7.3-3.4-.3-.2-.6-.3-.9-.5-.2-.1-.3-.2-.4-.3-1.8-1-2.8-1.7-2.8-1.7s4.8 8 17.5 11.8c-3 3.8-6.7 8.3-6.7 8.3-22.1-.7-30.5-15.2-30.5-15.2 0-32.2 14.4-58.3 14.4-58.3 14.4-10.8 28.1-10.5 28.1-10.5l1 1.2c-18 5.2-26.3 13.1-26.3 13.1s2.2-1.2 5.9-2.9c10.7-4.7 19.2-6 22.7-6.3.6-.1 1.1-.2 1.7-.2 6.1-.8 13-1 20.2-.2 9.5 1.1 19.7 3.9 30.1 9.6 0 0-7.9-7.5-24.9-12.7l1.4-1.6s13.7-.3 28.1 10.5c0 0 14.4 26.1 14.4 58.3 0 0-8.5 14.5-30.6 15.2z"/>
</symbol>

<symbol id="behance" viewBox="0 0 152.5 28.2">
    <title>Behance</title> 
    <desc>Behance Logo</desc>
	<path d="M13.1 0c1.3 0 2.5.1 3.6.4 1.1.2 2 .6 2.8 1.1.8.5 1.4 1.2 1.8 2.1.4.9.6 2 .6 3.2 0 1.4-.3 2.6-1 3.5-.6.9-1.6 1.7-2.8 2.3 1.7.5 3 1.4 3.8 2.6.8 1.2 1.3 2.7 1.3 4.4 0 1.4-.3 2.6-.8 3.6s-1.3 1.9-2.2 2.5c-.9.6-2 1.1-3.2 1.4-1.2.3-2.4.5-3.6.5H0V0h13.1zm-.8 11.2c1.1 0 2-.3 2.7-.8.7-.5 1-1.4 1-2.5 0-.6-.1-1.2-.3-1.6-.2-.4-.5-.7-.9-1-.4-.2-.8-.4-1.3-.5-.5-.1-1-.1-1.6-.1H6.1v6.5h6.2zm.3 11.8c.6 0 1.2-.1 1.7-.2s1-.3 1.4-.6c.4-.3.7-.6 1-1.1.2-.5.4-1.1.4-1.8 0-1.4-.4-2.4-1.2-3.1-.8-.6-1.9-.9-3.2-.9H6.1V23h6.5zM31.9 22.9c.8.8 2 1.2 3.6 1.2 1.1 0 2.1-.3 2.9-.8.8-.6 1.3-1.2 1.5-1.8h4.9c-.8 2.4-2 4.1-3.6 5.2-1.6 1-3.5 1.6-5.8 1.6-1.6 0-3-.3-4.3-.8-1.3-.5-2.3-1.2-3.2-2.2-.9-.9-1.6-2-2-3.3-.5-1.3-.7-2.7-.7-4.3 0-1.5.2-2.9.7-4.2.5-1.3 1.2-2.4 2.1-3.4.9-.9 2-1.7 3.2-2.2 1.3-.5 2.6-.8 4.2-.8 1.7 0 3.2.3 4.5 1 1.3.7 2.3 1.5 3.1 2.7.8 1.1 1.4 2.4 1.8 3.8.2 1.4.3 2.8.2 4.4H30.5c0 1.6.6 3.1 1.4 3.9zm6.3-10.5c-.7-.7-1.8-1.1-3.1-1.1-.9 0-1.6.2-2.2.5-.6.3-1 .7-1.4 1.1-.4.4-.6.9-.7 1.4-.1.5-.2.9-.2 1.3h9c-.2-1.5-.7-2.5-1.4-3.2zM52.8 0v10.4h.1c.7-1.2 1.6-2 2.7-2.5s2.1-.8 3.2-.8c1.5 0 2.7.2 3.6.6.9.4 1.7 1 2.2 1.7.5.7.9 1.6 1.1 2.6.2 1 .3 2.1.3 3.4v12.3h-5.5V16.4c0-1.7-.3-2.9-.8-3.7-.5-.8-1.4-1.2-2.7-1.2-1.5 0-2.6.5-3.2 1.3-.7.9-1 2.4-1 4.4v10.5h-5.5V0h5.5zM70 10.6c.6-.9 1.3-1.5 2.2-2.1.9-.5 1.9-.9 3-1.1 1.1-.2 2.2-.3 3.3-.3 1 0 2 .1 3.1.2 1 .1 2 .4 2.8.8.9.4 1.5 1 2.1 1.7.5.7.8 1.7.8 2.9v10.5c0 .9.1 1.8.2 2.6s.4 1.5.7 1.9h-5.6c-.2-.2-.3-.6-.4-.9-.1-.3-.1-.7-.1-1-.9.9-1.9 1.5-3.1 1.9-1.2.4-2.4.5-3.6.5-1 0-1.8-.1-2.7-.4-.8-.2-1.5-.6-2.2-1.1-.6-.5-1.1-1.1-1.5-1.9-.3-.8-.5-1.6-.5-2.7s.2-2.1.6-2.8c.4-.7.9-1.3 1.5-1.8.6-.4 1.4-.8 2.2-1 .8-.2 1.6-.4 2.5-.5l2.4-.3c.8-.1 1.5-.2 2.1-.3.6-.2 1.1-.4 1.5-.7.4-.3.5-.7.5-1.3 0-.6-.1-1.1-.3-1.4-.2-.3-.5-.6-.8-.8-.3-.2-.7-.3-1.1-.4-.4-.1-.9-.1-1.4-.1-1.1 0-1.9.2-2.5.7-.6.5-1 1.3-1.1 2.3h-5.5c0-1.2.4-2.3.9-3.1zm10.9 7.8c-.3.1-.7.2-1.1.3-.4.1-.8.1-1.3.2-.4.1-.9.1-1.3.2l-1.2.3c-.4.1-.8.3-1 .5-.3.2-.5.5-.7.8-.3.4-.3.8-.3 1.3s.1.9.3 1.2c.2.3.4.6.7.8.3.2.7.3 1.1.4.4.1.8.1 1.3.1 1.1 0 1.9-.2 2.5-.5.6-.4 1-.8 1.3-1.3.3-.5.5-1 .5-1.5.1-.5.1-.9.1-1.2v-2.1c-.3.2-.6.4-.9.5zM95.6 7.6v2.8h.1c.7-1.2 1.6-2 2.7-2.5s2.3-.8 3.4-.8c1.5 0 2.7.2 3.6.6 1 .4 1.7 1 2.2 1.7.5.7.9 1.6 1.2 2.6.2 1 .3 2.1.3 3.4v12.3h-5.5V16.4c0-1.7-.3-2.9-.8-3.7-.5-.8-1.4-1.3-2.8-1.3-1.5 0-2.6.6-3.3 1.5-.7.9-1 2.4-1 4.4v10.5h-5.5V7.6h5.4zM121.4 11.2c-.9 0-1.6.2-2.2.6-.6.4-1.1.9-1.5 1.6-.4.6-.6 1.3-.8 2.1-.2.8-.2 1.5-.2 2.3 0 .7.1 1.5.2 2.2.2.8.4 1.4.8 2 .4.6.8 1.1 1.4 1.5.6.4 1.3.6 2.2.6 1.3 0 2.3-.4 3.1-1.1.7-.7 1.2-1.7 1.3-3h5.3c-.4 2.7-1.4 4.7-3.1 6.1-1.7 1.4-3.9 2.1-6.6 2.1-1.5 0-2.9-.3-4.1-.8-1.3-.5-2.3-1.2-3.2-2.1-.9-.9-1.6-2-2.1-3.2-.5-1.3-.7-2.6-.7-4.1 0-1.6.2-3 .7-4.3.5-1.3 1.1-2.5 2-3.5.9-1 2-1.7 3.2-2.3 1.3-.5 2.7-.8 4.3-.8 1.2 0 2.3.2 3.4.5s2.1.8 2.9 1.4c.9.6 1.6 1.4 2.1 2.4.5.9.8 2.1.9 3.4h-5.4c-.2-2.4-1.5-3.6-3.9-3.6zM29.4 1.9h11.2v2.7H29.4zM139.3 22.9c.8.8 2.1 1.2 3.6 1.2 1.1 0 2.1-.3 2.9-.8.8-.6 1.3-1.2 1.5-1.8h4.8c-.8 2.4-2 4.1-3.6 5.2-1.6 1-3.5 1.6-5.8 1.6-1.6 0-3-.3-4.3-.8-1.3-.5-2.3-1.2-3.2-2.2-.9-.9-1.6-2-2-3.3-.5-1.3-.7-2.7-.7-4.3 0-1.5.2-2.9.7-4.2.5-1.3 1.2-2.4 2.1-3.4.9-.9 2-1.7 3.2-2.2 1.3-.5 2.7-.8 4.2-.8 1.7 0 3.2.3 4.4 1 1.3.7 2.3 1.5 3.1 2.7.8 1.1 1.4 2.4 1.8 3.8.4 1.4.5 2.9.4 4.5h-14.5c0 1.5.6 3 1.4 3.8zm6.4-10.5c-.7-.7-1.8-1.1-3.1-1.1-.9 0-1.6.2-2.2.5-.6.3-1.1.7-1.4 1.1-.3.4-.6.9-.7 1.4-.1.5-.2.9-.2 1.3h9c-.3-1.5-.8-2.5-1.4-3.2z"></path>
</symbol>

<symbol id="creative-cloud" viewBox="0 0.388 121.5 89.612">
	<defs><path id="a" d="M0 .39h121.5V90H0z"/></defs>
	<clipPath id="b"><use xlink:href="#a" overflow="visible"/></clipPath>
	<path d="M121.5 43.195v4c-.038.217-.086.43-.111.646-.207 1.74-.341 3.491-.627 5.218-.934 5.613-2.953 10.83-5.953 15.654-4.556 7.324-10.715 12.909-18.455 16.723a43.169 43.169 0 0 1-14.236 4.201c-1.1.127-2.199.241-3.299.362H36.135c-.215-.04-.429-.104-.646-.117-4.304-.271-8.445-1.252-12.392-2.979-8.593-3.76-15-9.854-19.194-18.242A35.884 35.884 0 0 1 .358 56.86C.237 55.861.119 54.863 0 53.865v-3.881c.041-.215.104-.43.117-.646.223-3.729.988-7.35 2.335-10.83 3.625-9.364 9.944-16.309 18.924-20.804 4.659-2.333 9.625-3.559 14.819-3.831 2.543-.132 5.084.01 7.612.349.229.031.559-.071.718-.234 3.635-3.713 7.774-6.729 12.441-9.015 4.527-2.217 9.291-3.646 14.306-4.218 1.18-.135 2.363-.246 3.545-.368h3.639c.238.037.477.079.715.107 1.803.21 3.616.342 5.402.641 5.572.935 10.759 2.935 15.559 5.906 7.36 4.556 12.969 10.723 16.801 18.487a43.067 43.067 0 0 1 4.205 14.246c.13 1.141.241 2.282.362 3.421M53.565 17.312c.073.096.091.141.122.156a48.613 48.613 0 0 1 7.139 4.317c.142.103.494.06.666-.048 6.188-3.921 12.896-5.274 20.102-3.996 7.061 1.252 12.807 4.78 17.197 10.415 4.971 6.377 6.866 13.588 5.494 21.611-.92 5.377-3.074 10.201-6.735 14.242-6.68 7.367-15.045 10.414-24.892 9.124-6.062-.794-11.295-3.409-15.626-7.786-5.559-5.615-11.154-11.193-16.729-16.793-.743-.746-1.57-1.346-2.64-1.477-1.869-.229-3.565.704-4.372 2.383-.72 1.499-.627 3.189.935 4.725 6.215 6.101 12.375 12.258 18.583 18.365a30.005 30.005 0 0 0 3.409 2.901c4.535 3.293 9.648 5.114 15.185 5.847 4.346.574 8.658.451 12.937-.511 8.162-1.833 14.923-5.999 20.248-12.427 4.397-5.312 7.056-11.416 7.983-18.269a35.81 35.81 0 0 0-.332-11.749c-1.235-6.33-3.913-11.994-8.204-16.815C95.848 12.334 85.548 8.23 73.291 9.146c-4.715.352-9.175 1.737-13.372 3.934a35.285 35.285 0 0 0-6.354 4.232m-2.999 64.176a79.384 79.384 0 0 1-.504-.471c-2.541-2.399-5.096-4.783-7.607-7.213-.486-.47-.933-.699-1.621-.683-2.543.062-5.088.073-7.594-.493-12.46-2.818-19.695-16.365-15.103-28.285 3.622-9.399 13.649-15.123 23.537-13.358 4.432.791 8.322 2.667 11.515 5.96 3.894 4.02 7.904 7.925 11.84 11.904.896.906 1.925 1.319 3.166 1.142 1.604-.229 2.881-.993 3.461-2.566.568-1.548.293-3.014-.879-4.201-4.131-4.185-8.164-8.475-12.462-12.482-8.336-7.775-18.166-10.087-29.038-6.781-14.623 4.443-23.181 19.543-19.84 34.443C12.482 71.98 24.355 81.508 38.248 81.52c3.879.004 7.759.002 11.638 0 .192 0 .384-.017.68-.032" clip-path="url(#b)"/>
</symbol>

<symbol id="hamburger" viewBox="0 0 32 32">
    <title>Menu</title> 
    <desc>Hamburger Menu</desc>
    <path d="M4,10h24c1.104,0,2-0.896,2-2s-0.896-2-2-2H4C2.896,6,2,6.896,2,8S2.896,10,4,10z M28,14H4c-1.104,0-2,0.896-2,2  s0.896,2,2,2h24c1.104,0,2-0.896,2-2S29.104,14,28,14z M28,22H4c-1.104,0-2,0.896-2,2s0.896,2,2,2h24c1.104,0,2-0.896,2-2  S29.104,22,28,22z"/>
</symbol>

<symbol id="adchoices" viewBox="0 0 71.38 75.48">
	<path d="M71.43,46.62c6.63-3.61,7.81-8.22.11-12.78L17.44,4.31c-6.57-3.71-12-.64-12,6.84V69.36c0,9.58,5,10.51,11.63,6.91l6.18-3.44c1-.67,3.38-2.69,2.72-5.42-.61-2.54-2.8-3.33-5.31-2.64-3.68,2-6,0-6-4.16V19.16c0-4.16,3-5.87,6.63-3.8L58.63,36.68c3.65,2.07,3.62,5.39-.06,7.39l-23.06,12V42a3.95,3.95,0,1,0-7.89,0V62c0,2.18,1.9,3.74,3.95,4.47a5.36,5.36,0,0,0,3.72-.23Z" transform="translate(-5.49 -2.73)"/>
	<path d="M35.9,31.33a4.14,4.14,0,1,1-4.14-4.14,4.14,4.14,0,0,1,4.14,4.14" transform="translate(-5.49 -2.73)"/>
</symbol>

<symbol id="play" viewBox="0 0 24 24">
    <path d="M8 5v14l11-7z"></path> <path d="M0 0h24v24H0z" fill="none">
    </path>    
</symbol>

<symbol id="not-found" viewBox="0 0 180 120">
    <path d="M149.5,17H31.5A3.50425,3.50425,0,0,0,28,20.5v27a1.5,1.5,0,0,0,3,0V32H150v68.5a.50065.50065,0,0,1-.5.5H31.5a.50065.50065,0,0,1-.5-.5v-23a1.5,1.5,0,0,0-3,0v23a3.50425,3.50425,0,0,0,3.5,3.5h118a3.50425,3.50425,0,0,0,3.5-3.5v-80A3.50425,3.50425,0,0,0,149.5,17ZM31,30V20.5a.50034.50034,0,0,1,.5-.5h118a.50034.50034,0,0,1,.5.5V30Z"/>
    <path d="M47.4502,24h-10a1,1,0,0,0,0,2h10a1,1,0,0,0,0-2Z"/>
    <path d="M38.02832,73.19238a1.49984,1.49984,0,0,0,2.12109-2.12109l-8.55-8.5498,8.55-8.5498a1.49984,1.49984,0,0,0-2.12109-2.12109l-8.55,8.5498-8.55-8.5498a1.49984,1.49984,0,0,0-2.12109,2.12109l8.55,8.5498-8.55,8.5498a1.49984,1.49984,0,1,0,2.12109,2.12109l8.55-8.5498Z"/>
</symbol>

<symbol id="snapchat" viewBox="0 0 24 24">
    <title>Snapchat</title> 
    <desc>Snapchat Icon</desc>
    <path d="M22.7,17.7c-0.2,0.5-1.1,0.9-2.8,1.1c-0.1,0.1-0.2,0.6-0.3,1c-0.1,0.2-0.2,0.4-0.5,0.4l0,0c-0.4,0-0.8-0.2-1.6-0.2
	c-1.1,0-1.5,0.3-2.4,0.9c-0.9,0.6-1.8,1.2-3.1,1.1c-1.3,0.1-2.4-0.7-3.1-1.1c-0.9-0.6-1.3-0.9-2.4-0.9c-0.8,0-1.3,0.2-1.6,0.2
	c-0.3,0-0.5-0.2-0.5-0.4c-0.1-0.4-0.2-0.9-0.3-1c-0.9-0.1-2.8-0.5-2.9-1.3c0-0.2,0.1-0.4,0.4-0.5c2.9-0.5,4.2-3.5,4.3-3.6
	c0,0,0,0,0,0c0.2-0.3,0.2-0.6,0.1-0.8c-0.2-0.5-1.1-0.7-1.5-0.8c-1-0.4-1.1-0.8-1.1-1.2c0.1-0.5,0.9-0.9,1.4-0.6
	c0.4,0.2,0.7,0.3,1,0.3c0.2,0,0.3-0.1,0.4-0.1C6.2,8.7,5.9,6.5,6.5,5.3c1.4-3.2,4.4-3.4,5.3-3.4c0,0,0.4,0,0.4,0
	c2.2,0,4.3,1.1,5.3,3.4c0.5,1.2,0.3,3.3,0.2,4.9c0.1,0,0.2,0.1,0.4,0.1c0.3,0,0.6-0.1,0.9-0.3c0.3-0.1,0.6-0.1,0.9,0l0,0
	c0.4,0.1,0.6,0.4,0.7,0.7c0,0.4-0.4,0.8-1.1,1c-0.1,0-0.2,0.1-0.3,0.1c-0.4,0.1-1,0.3-1.2,0.7c-0.1,0.2-0.1,0.5,0.1,0.8c0,0,0,0,0,0
	c0.1,0.1,1.4,3.1,4.3,3.6C22.6,17.1,22.8,17.4,22.7,17.7L22.7,17.7z"/>
</symbol>

<symbol id="learn" viewBox="0 0 22 22">
    <title>Learn</title> 
    <desc>Learn</desc>
    <g>
      <path d="M11,0A8.77106,8.77106,0,0,0,2,8.5c0,3.30859,2.01709,5.29785,3.49023,6.75C6.2666,16.01562,7,16.73828,7,17.25v1.252A3.77879,3.77879,0,0,0,11,22a3.77879,3.77879,0,0,0,4-3.498V17.25c0-.47754.71289-1.1709,1.46777-1.90625C17.9585,13.89258,20,11.90625,20,8.5A8.77106,8.77106,0,0,0,11,0Zm2,18.502c0,.8125-.916,1.498-2,1.498s-2-.68555-2-1.498c0,0,.00806-1.4187,0-1.502h4C12.99176,17.08319,13,18.502,13,18.502Zm2.07275-4.59082c-.37506.36493-.74023.72333-1.05938,1.09155L14,15H12.25V11.51758l2.38379-2.38379a1.24987,1.24987,0,0,0-1.76758-1.76758L11,9.23242,9.13379,7.36621A1.24987,1.24987,0,0,0,7.36621,9.13379L9.75,11.51758V15H8.01605c-.3341-.39642-.72333-.78119-1.12152-1.17383C5.5376,12.48828,4,10.97168,4,8.5A6.77164,6.77164,0,0,1,11,2a6.77164,6.77164,0,0,1,7,6.5C18,11.06152,16.44482,12.57519,15.07275,13.91113Z"/>
    </g>
</symbol>

<symbol id="magicwand" viewBox="0 0 22 22">
  <title>Magic Wand</title> 
  <desc>Magic Wand</desc>
  <g>
      <path d="M21.86169,2.76981l-1.512-.75732A.82646.82646,0,0,1,19.98,1.64214L19.22382.12751a.25984.25984,0,0,0-.356-.0913.26283.26283,0,0,0-.09137.0913l-.75562,1.51463a.8284.8284,0,0,1-.37.3706l-1.51172.75707a.24946.24946,0,0,0,0,.4475l1.512.7578a.827.827,0,0,1,.36969.37011L18.777,5.85936a.24831.24831,0,0,0,.44739,0L19.98,4.34522a.82822.82822,0,0,1,.37-.37035l1.51171-.75658A.27461.27461,0,0,0,22,2.99392V2.99368A.27448.27448,0,0,0,21.86169,2.76981Z"/>
      <path d="M3.616,6.18115l1.26.63135a.69079.69079,0,0,1,.3081.30835l.63013,1.262a.20687.20687,0,0,0,.3728,0l.62964-1.26172A.68833.68833,0,0,1,7.125,6.8125l1.25977-.63086A.22847.22847,0,0,0,8.5,5.99487V5.99463a.229.229,0,0,0-.11523-.18653l-1.26-.6311a.68963.68963,0,0,1-.30811-.30835L6.18652,3.6062a.21685.21685,0,0,0-.3728,0L5.18408,4.86841a.69.69,0,0,1-.30835.30883L3.616,5.8081a.208.208,0,0,0,0,.37305Z"/>
      <path d="M19.38477,15.8081l-1.26-.6311a.68963.68963,0,0,1-.30811-.30835l-.63013-1.26245a.21685.21685,0,0,0-.3728,0l-.62964,1.26221a.69.69,0,0,1-.30835.30883L14.616,15.8081a.208.208,0,0,0,0,.373l1.26.63135a.69079.69079,0,0,1,.3081.30835l.63013,1.262a.20687.20687,0,0,0,.3728,0l.62964-1.26172a.68833.68833,0,0,1,.30835-.30859l1.25977-.63086A.22847.22847,0,0,0,19.5,15.99487v-.00024A.229.229,0,0,0,19.38477,15.8081Z"/>
      <path d="M16.70746,7.98681,14.01556,5.293a1.00022,1.00022,0,0,0-1.41455,0L.84375,17.04785A2.85882,2.85882,0,0,0,0,19.08935a2.89656,2.89656,0,0,0,.8916,2.08033,2.87759,2.87759,0,0,0,4.05322-.00879L16.707,9.40112A1.00037,1.00037,0,0,0,16.70746,7.98681ZM3.53076,19.74658a.886.886,0,0,1-1.271-.03711.88.88,0,0,1-.00245-1.24609l.00049-.001,6.5528-6.55176,1.27807,1.27954Zm7.97272-7.971-1.278-1.27954,3.0821-3.08154,1.27832,1.2793Z"/>
  </g>
</symbol>

<symbol id="upload" viewBox="0 0 35 35">
  <title>Upload</title> 
  <desc>Upload</desc>
  <g transform="translate(1.605 1.605)">
    <path d="M12.674,1.513a1.6,1.6,0,0,1,2.352,0l5.959,6.418a1.605,1.605,0,1,1-2.352,2.185L15.454,6.692V23.464a1.6,1.6,0,1,1-3.209,0V6.692L9.067,10.116A1.605,1.605,0,1,1,6.715,7.931Z" transform="translate(2.195 7.021)"/>
    <path d="M31.486,28.254a1.6,1.6,0,0,1-1.6-1.6V17.023a4.814,4.814,0,0,0-4.814-4.814H9.023a4.814,4.814,0,0,0-4.814,4.814V26.65A1.6,1.6,0,1,1,1,26.65V17.023A8.032,8.032,0,0,1,9.023,9H25.068a8.032,8.032,0,0,1,8.023,8.023V26.65A1.6,1.6,0,0,1,31.486,28.254Z" transform="translate(-1 -9)"/>
  </g>
</symbol>

<symbol id="resize" viewBox="0 0 18 18">
  <title>Resize</title> 
  <desc>Resize Icon</desc>
  <g>
    <path d="M13,0H5A5.00588,5.00588,0,0,0,0,5v7a5.00589,5.00589,0,0,0,5,5h8a5.00589,5.00589,0,0,0,5-5V5A5.00588,5.00588,0,0,0,13,0Zm3,12a3.00328,3.00328,0,0,1-3,3H5a3.00328,3.00328,0,0,1-3-3V5A3.00328,3.00328,0,0,1,5,2h8a3.00328,3.00328,0,0,1,3,3Z"/>
    <path d="M13.00049,4h-4.001a1.00159,1.00159,0,0,0,0,2.00317h1.58808L9.29529,7.29834A1.00041,1.00041,0,1,0,10.70862,8.7146L12.001,7.41967V8.99829a.99951.99951,0,1,0,1.999,0V5.00158A1.00028,1.00028,0,0,0,13.00049,4Z"/>
    <path d="M3.00977,10a1,1,0,0,0,0-2,1,1,0,1,0,0,2Z"/>
    <path d="M6.32458,8.0498a1.01134,1.01134,0,0,0-1.27.62988.99924.99924,0,0,0,.62988,1.27051A1.15292,1.15292,0,0,0,6.00476,10a1.00292,1.00292,0,0,0,.31982-1.9502Z"/>
    <circle cx="8" cy="14" r="1"/>
    <circle cx="8" cy="11" r="1"/>
  </g>
</symbol>

<symbol id="download" viewBox="0 0 22 22">
    <title>Download</title> 
    <desc>Download</desc>
  <g>
    <path d="M10.267,15.681a1,1,0,0,0,1.466,0l3.714-4a1,1,0,0,0-1.466-1.362L12,12.453V2a1,1,0,0,0-2,0V12.453L8.019,10.319a1,1,0,0,0-1.466,1.362Z"/>
    <path d="M20,9a1,1,0,0,0-1,1v6a3,3,0,0,1-3,3H6a3,3,0,0,1-3-3V10a1,1,0,0,0-2,0v6a5.006,5.006,0,0,0,5,5H16a5.006,5.006,0,0,0,5-5V10A1,1,0,0,0,20,9Z"/>
  </g>
</symbol>

<symbol id="creativecloud" viewBox="0 0 32 24">
  <title>Creative Cloud</title>
  <description>Creative Cloud Icon</description>
  <path d="M32,11.272v1.053c0,.053-.026.105-.026.158-.053.448-.079.922-.158,1.37a11.323,11.323,0,0,1-1.58,4.135,11.733,11.733,0,0,1-4.872,4.4,11.568,11.568,0,0,1-3.74,1.106c-.29.026-.579.053-.869.105H9.508c-.053,0-.105-.026-.158-.026a10.062,10.062,0,0,1-8.323-5.584,9.207,9.207,0,0,1-.922-3.108c-.026-.263-.053-.527-.105-.79V13.063c0-.053.026-.105.026-.158a9.634,9.634,0,0,1,.606-2.844A9.87,9.87,0,0,1,5.61,4.583,9.756,9.756,0,0,1,9.534,3.556a12.726,12.726,0,0,1,2,.079.381.381,0,0,0,.184-.053,12.065,12.065,0,0,1,3.266-2.37A11.718,11.718,0,0,1,18.752.105c.316-.026.632-.053.922-.105h.948c.053,0,.132.026.184.026.474.053.948.079,1.422.158a10.978,10.978,0,0,1,4.109,1.554,11.621,11.621,0,0,1,4.425,4.872,11.764,11.764,0,0,1,1.106,3.74,5.974,5.974,0,0,1,.132.922M14.117,4.451c.026.026.026.026.026.053a12.181,12.181,0,0,1,1.87,1.133.223.223,0,0,0,.184,0,7.389,7.389,0,0,1,9.824,1.686,6.937,6.937,0,0,1,1.449,5.689,7.271,7.271,0,0,1-1.765,3.74,7.114,7.114,0,0,1-6.558,2.4,6.94,6.94,0,0,1-4.135-2.028c-1.475-1.475-2.95-2.95-4.4-4.425a1.386,1.386,0,0,0-.685-.4,1.113,1.113,0,0,0-1.159.632,1.034,1.034,0,0,0,.237,1.238c1.633,1.607,3.266,3.24,4.9,4.846.29.263.579.527.9.764a8.375,8.375,0,0,0,4,1.528,9.208,9.208,0,0,0,3.4-.132A9.608,9.608,0,0,0,29.63,13.09a10.062,10.062,0,0,0-.079-3.081,9.079,9.079,0,0,0-2.16-4.425,9.256,9.256,0,0,0-8.086-3.266,9.246,9.246,0,0,0-3.529,1.027,10.106,10.106,0,0,0-1.659,1.106m-.79,16.909c-.053-.053-.105-.079-.132-.132-.658-.632-1.343-1.264-2-1.9a.524.524,0,0,0-.421-.184,7.326,7.326,0,0,1-2-.132A5.588,5.588,0,0,1,10.956,8.059a5.466,5.466,0,0,1,3.029,1.58c1.027,1.053,2.081,2.081,3.108,3.134a.917.917,0,0,0,.843.29,1.055,1.055,0,0,0,.922-.685.978.978,0,0,0-.237-1.106c-1.08-1.106-2.16-2.239-3.292-3.292A7.408,7.408,0,0,0,7.691,6.189a7.77,7.77,0,0,0,2.37,15.17h3.266"/>
</symbol>

<symbol id="shapes" viewBox="0 0 22 22">
    <title>Shapes</title> 
    <desc>Shapes</desc>
    <path d="M22,8A8,8,0,0,0,6.573,5.044.946.946,0,0,0,6.354,5H3A2,2,0,0,0,1,7V19a2,2,0,0,0,2,2H15a2,2,0,0,0,2-2V15.646a.946.946,0,0,0-.044-.219A8.008,8.008,0,0,0,22,8ZM15,19H3V7H6.069A7.954,7.954,0,0,0,14,16a8.047,8.047,0,0,0,1-.069Zm-1-5a6,6,0,1,1,6-6A6.006,6.006,0,0,1,14,14Z"/>
</symbol>

<symbol id="users" viewBox="0 0 22 22">
    <title>Users</title> 
    <desc>Users</desc>
  <g>
    <path d="M14.5,15a8.261,8.261,0,0,0-7.4,4.561A1,1,0,0,0,7.561,20.9.982.982,0,0,0,8,21a1,1,0,0,0,.9-.561,6.283,6.283,0,0,1,11.2,0,1,1,0,0,0,1.8-.878A8.262,8.262,0,0,0,14.5,15Z"/>
    <path d="M9.5,9a5,5,0,1,0,5-5A5.006,5.006,0,0,0,9.5,9Zm5-3a3,3,0,1,1-3,3A3,3,0,0,1,14.5,6Z"/>
    <path d="M8.5,12a1,1,0,0,0-1-1A8.261,8.261,0,0,0,.1,15.561,1,1,0,0,0,.561,16.9.982.982,0,0,0,1,17a1,1,0,0,0,.9-.561A6.252,6.252,0,0,1,7.5,13,1,1,0,0,0,8.5,12Z"/>
    <path d="M7.5,10a1,1,0,0,0,0-2,3,3,0,1,1,2.611-4.478,1,1,0,0,0,1.741-.986A5,5,0,1,0,7.5,10Z"/>
  </g>
</symbol>

<symbol id="color" viewBox="0 0 22 22">
    <title>Color</title> 
    <desc>Color</desc>
  <g>
    <ellipse cx="14.5" cy="6.528" rx="1.5" ry="1.528"/>
    <path d="M18.673,11.841a6.3,6.3,0,0,0,0-9.225A9.977,9.977,0,0,0,11.77,0,12.37,12.37,0,0,0,3.358,3.4a10.55,10.55,0,0,0,0,15.437A11.907,11.907,0,0,0,11.565,22a11.544,11.544,0,0,0,7.924-3,2.625,2.625,0,0,0,.8-1.9,2.845,2.845,0,0,0-.771-2.023l0,0a3.093,3.093,0,0,0-1.726-.742c-.383-.067-.413-.1-.584-.261a.516.516,0,0,1,0-.832ZM15.82,15.519a2.735,2.735,0,0,0,1.646.789,1.714,1.714,0,0,1,.637.187.878.878,0,0,1,.183.578.691.691,0,0,1-.173.473A9.582,9.582,0,0,1,11.491,20a10,10,0,0,1-6.758-2.612,8.55,8.55,0,0,1,0-12.533A10.348,10.348,0,0,1,11.77,2,7.985,7.985,0,0,1,17.3,4.07a4.3,4.3,0,0,1,0,6.32l-1.474,1.4a2.505,2.505,0,0,0,0,3.728Z"/>
    <ellipse cx="5.5" cy="8.528" rx="1.5" ry="1.528"/>
    <ellipse cx="9.5" cy="5.528" rx="1.5" ry="1.528"/>
    <ellipse cx="5.5" cy="13.528" rx="1.5" ry="1.528"/>
    <ellipse cx="9.5" cy="16.528" rx="1.5" ry="1.528"/>
  </g>
</symbol>

<symbol id="stickers" viewBox="0 0 22 22">
    <title>Stickers</title> 
    <desc>Stickers</desc>
  <g>
    <path d="M11,0a11,11,0,0,0,0,22,1,1,0,0,0,.707-.293l10-10A1,1,0,0,0,22,11,11.013,11.013,0,0,0,11,0ZM2,11A9,9,0,0,1,19.73,8.816a11,11,0,0,0-9.56,5.71.985.985,0,0,0-.187-.038,3.426,3.426,0,0,1-3.066-1.924,1,1,0,0,0-1.8.872,5.44,5.44,0,0,0,4.228,3.006,10.935,10.935,0,0,0-.528,3.288A9.014,9.014,0,0,1,2,11Zm8.813,8.772a9.009,9.009,0,0,1,8.959-8.959Z"/>
    <circle cx="7.5" cy="7.5" r="1.5"/>
    <circle cx="14.5" cy="7.5" r="1.5"/>
  </g>
</symbol>

<symbol id="landscape" viewBox="0 0 22 22">
    <title>Landscape</title> 
    <desc>Landscape</desc>
  <g>
    <path d="M11,4.5A4.5,4.5,0,1,0,15.5,9,4.50491,4.50491,0,0,0,11,4.5Zm0,7A2.5,2.5,0,1,1,13.5,9,2.50232,2.50232,0,0,1,11,11.5Z"/>
    <path d="M17,2H5A5.00588,5.00588,0,0,0,0,7v8a5.00589,5.00589,0,0,0,5,5H17a5.00589,5.00589,0,0,0,5-5V7A5.00588,5.00588,0,0,0,17,2ZM7.002,18a4.99317,4.99317,0,0,1,7.99317,0ZM20,15a2.99351,2.99351,0,0,1-2.70947,2.9707A6.96944,6.96944,0,0,0,4.708,17.97046,2.99348,2.99348,0,0,1,2,15V7A3.00328,3.00328,0,0,1,5,4H17a3.00328,3.00328,0,0,1,3,3Z"/>
  </g>
</symbol>

<symbol id="globe" viewBox="0 0 22 22">
    <title>Globe</title> 
    <desc>Globe</desc>
  <g>
    <path d="M11,0a11,11,0,0,0,0,22h.00146A11,11,0,0,0,11,0Zm8.941,10H15.96582a15.00077,15.00077,0,0,0-2.34546-7.6084A9.01884,9.01884,0,0,1,19.941,10ZM10.9624,19.66064A11.99312,11.99312,0,0,1,8.03149,12h5.93433A12.13231,12.13231,0,0,1,10.9624,19.66064ZM8.03418,10A12.13235,12.13235,0,0,1,11.0376,2.33935,11.99318,11.99318,0,0,1,13.96851,10Zm.44556-7.63428A14.84525,14.84525,0,0,0,6.03564,10H2.059A9.01641,9.01641,0,0,1,8.47974,2.36572ZM2.059,12H6.03418a15.00077,15.00077,0,0,0,2.34546,7.6084A9.01884,9.01884,0,0,1,2.059,12Zm11.4613,7.63428A14.84529,14.84529,0,0,0,15.96436,12H19.941A9.01641,9.01641,0,0,1,13.52026,19.63428Z"/>
  </g>
</symbol>

<symbol id="chevron" viewBox="0 0 24 24">
    <title>Chevron</title> 
    <desc>Chevron</desc>
<path
    d="M10.5858 6.34317L12 4.92896L19.0711 12L12 19.0711L10.5858 17.6569L16.2427 12L10.5858 6.34317Z"
  />
</symbol>

<symbol id="templates44" data-name="templates44" viewBox="0 0 40 42">
  <g id="ICONS">
    <path id="Path_130846" data-name="Path 130846" d="M18.5,35h-9A6.5,6.5,0,0,1,3,28.5V17H9.5A7.5,7.5,0,0,0,17,9.5V3h9.5A6.51,6.51,0,0,1,33,8.66a1.5,1.5,0,1,0,3-.38A9.52,9.52,0,0,0,26.5,0H16.13a7.51,7.51,0,0,0-5.51,2.41L2,11.76a7.48,7.48,0,0,0-2,5.09V28.5A9.52,9.52,0,0,0,9.5,38h9a1.5,1.5,0,0,0,0-3ZM4.19,13.79l8.63-9.34A4.47,4.47,0,0,1,14,3.56V9.5A4.49,4.49,0,0,1,9.5,14H4C4.09,13.93,4.13,13.86,4.19,13.79Z"/>
    <path id="Path_130847" data-name="Path 130847" d="M37.28,23.32l-1.53-.69,1.8-4.07a.36.36,0,0,1,0-.09,4,4,0,0,0-.39-3.73A3.94,3.94,0,0,0,33.94,13h0A3.88,3.88,0,0,0,31,14.37l-8.85,10-.06.07a4.74,4.74,0,0,0-1,4.08,4.62,4.62,0,0,0,2.6,3.2l1.53.69-1.79,4.07a.36.36,0,0,0,0,.09,4,4,0,0,0,.38,3.73A3.94,3.94,0,0,0,27.06,42,3.88,3.88,0,0,0,30,40.63l8.85-10,.07-.07a4.79,4.79,0,0,0,1-4.09A4.61,4.61,0,0,0,37.28,23.32Zm-.67,5.36-8.87,10a.87.87,0,0,1-.68.34,1,1,0,0,1-.94-1,.9.9,0,0,1,.08-.36l3-6.78L25,29a1.72,1.72,0,0,1-.79-2.29,2.46,2.46,0,0,1,.22-.34l8.87-10a.89.89,0,0,1,.68-.34,1,1,0,0,1,.94,1,.9.9,0,0,1-.08.36l-3,6.78L36,26.05a1.72,1.72,0,0,1,.79,2.29,1.52,1.52,0,0,1-.22.34Z"/>
  </g>
</symbol>

<symbol id="blank44" data-name="blank44" viewBox="0 0 39 40">
  <title>Blank Template</title> 
  <desc>Blank Template Icon</desc>
  <g id="Illu">
    <path id="Path_127567" data-name="Path 127567" d="M37.5,30H32V24.5a1.5,1.5,0,0,0-3,0V30H23.5a1.5,1.5,0,0,0,0,3H29v5.5a1.5,1.5,0,0,0,3,0V33h5.5a1.5,1.5,0,0,0,0-3Z"/>
    <path id="Path_127568" data-name="Path 127568" d="M26.5,17H33v2.5a1.5,1.5,0,0,0,3,0V16.85a7.48,7.48,0,0,0-2-5.09L25.38,2.41A7.51,7.51,0,0,0,19.87,0H9.5A9.52,9.52,0,0,0,0,9.5v19A9.52,9.52,0,0,0,9.5,38h9a1.5,1.5,0,0,0,0-3h-9A6.5,6.5,0,0,1,3,28.5V9.5A6.5,6.5,0,0,1,9.5,3H19V9.5A7.5,7.5,0,0,0,26.5,17ZM22,3.56a4.47,4.47,0,0,1,1.18.89l8.63,9.34c.06.07.1.14.15.21H26.5A4.49,4.49,0,0,1,22,9.5Z"/>
  </g>
</symbol>
</svg>
