<?xml version="1.0" encoding="utf-8"?>
<svg version="1.1" xmlns="http://www.w3.org/2000/svg" xmlns:xlink="http://www.w3.org/1999/xlink">

<symbol id="adobe" viewBox="0 0 22.2 22.2">
    <title>Adobe</title> 
    <desc>Adobe Logo</desc>
	<polygon points="13.8,1.2 22.1,20.7 22.1,1.2"/>
	<polygon points="0,1.2 0,20.7 8.1,1.2"/>
	<polygon points="7.4,16.7 11.3,16.7 12.8,20.7 16.2,20.7 11,8.3"/>
</symbol>

<symbol id="adobe-red" viewBox="0 0 22.2 22.2">
    <title>Adobe</title> 
    <desc>Adobe Logo</desc>
	<polygon points="13.8,1.2 22.1,20.7 22.1,1.2" fill="#fa0f00"/>
	<polygon points="0,1.2 0,20.7 8.1,1.2" fill="#fa0f00"/>
	<polygon points="7.4,16.7 11.3,16.7 12.8,20.7 16.2,20.7 11,8.3" fill="#fa0f00"/>
</symbol>

<symbol id="facebook" viewBox="0 0 18 18">
    <title>Facebook</title> 
    <desc>Facebook Logo</desc>
    <path d="M10.5,18V9.8h3l0.4-3.2h-3.4v-2c0-0.9,0.3-1.6,1.7-1.6H14V0.1C13.1,0,12.2,0,11.3,0C8.7,0,6.9,1.5,6.9,4.2v2.4
	H4v3.2h3V18H10.5L10.5,18z"/>
</symbol>

<symbol id="instagram" viewBox="0 0 24 24">
    <title>Instagram</title> 
    <desc>Instagram Logo</desc>
    <path d="M12 2.163c3.204 0 3.584.012 4.85.07 3.252.148 4.771 1.691 4.919 4.919.058 1.265.069 1.645.069 4.849 0 3.205-.012 3.584-.069 4.849-.149 3.225-1.664 4.771-4.919 4.919-1.266.058-1.644.07-4.85.07-3.204 0-3.584-.012-4.849-.07-3.26-.149-4.771-1.699-4.919-4.92-.058-1.265-.07-1.644-.07-4.849 0-3.204.013-3.583.07-4.849.149-3.227 1.664-4.771 4.919-4.919 1.266-.057 1.645-.069 4.849-.069zm0-2.163c-3.259 0-3.667.014-4.947.072-4.358.2-6.78 2.618-6.98 6.98-.059 1.281-.073 1.689-.073 4.948 0 3.259.014 3.668.072 4.948.2 4.358 2.618 6.78 6.98 6.98 1.281.058 1.689.072 4.948.072 3.259 0 3.668-.014 4.948-.072 4.354-.2 6.782-2.618 6.979-6.98.059-1.28.073-1.689.073-4.948 0-3.259-.014-3.667-.072-4.947-.196-4.354-2.617-6.78-6.979-6.98-1.281-.059-1.69-.073-4.949-.073zm0 5.838c-3.403 0-6.162 2.759-6.162 6.162s2.759 6.163 6.162 6.163 6.162-2.759 6.162-6.163c0-3.403-2.759-6.162-6.162-6.162zm0 10.162c-2.209 0-4-1.79-4-4 0-2.209 1.791-4 4-4s4 1.791 4 4c0 2.21-1.791 4-4 4zm6.406-11.845c-.796 0-1.441.645-1.441 1.44s.645 1.44 1.441 1.44c.795 0 1.439-.645 1.439-1.44s-.644-1.44-1.439-1.44z"></path>
</symbol>

<symbol id="pinterest" viewBox="0 0 40 40">
    <title>Pinterest</title> 
    <desc>Pinterest Logo</desc>
    <path d="M19.934 0C8.918 0 .016 8.918.016 19.918c0 8.443 5.246 15.656 12.656 18.557-.18-1.573-.328-4 .066-5.72.36-1.558 2.328-9.903 2.328-9.903s-.59-1.196-.59-2.95c0-2.77 1.606-4.836 3.606-4.836 1.705 0 2.525 1.278 2.525 2.803 0 1.705-1.082 4.262-1.656 6.64-.476 1.983 1 3.606 2.95 3.606 3.542 0 6.263-3.738 6.263-9.115 0-4.77-3.426-8.098-8.328-8.098-5.672 0-9 4.246-9 8.639 0 1.705.656 3.541 1.475 4.541.164.197.18.377.132.574-.148.623-.492 1.983-.558 2.262-.082.36-.295.443-.672.262-2.459-1.18-4-4.82-4-7.737 0-6.28 4.557-12.05 13.164-12.05 6.902 0 12.279 4.918 12.279 11.509 0 6.868-4.328 12.393-10.328 12.393-2.017 0-3.918-1.05-4.558-2.295l-1.245 4.738c-.443 1.737-1.656 3.901-2.476 5.23 1.869.573 3.836.884 5.902.884 11 0 19.918-8.918 19.918-19.918C39.852 8.918 30.934 0 19.934 0z"></path>
</symbol>

<symbol id="linkedin" viewBox="0 0 17 17.1">
    <title>LinkedIn</title> 
    <desc>LinkedIn Logo</desc>
    <path d="M3.7,16.3H0.4V5.7h3.3V16.3z M2,4.4L2,4.4C1,4.5,0.1,3.7,0,2.7c0-0.1,0-0.1,0-0.2c0-1,0.8-1.9,1.9-1.8c0,0,0.1,0,0.1,0
	c1-0.1,1.9,0.6,2,1.6c0.1,1-0.6,1.9-1.6,2C2.3,4.4,2.1,4.4,2,4.4z M17,16.3h-3.8v-5.5c0-1.4-0.6-2.4-1.9-2.4c-0.8,0-1.5,0.5-1.8,1.3
	c-0.1,0.3-0.1,0.6-0.1,0.9v5.7H5.8c0,0,0-9.7,0-10.6h3.7v1.7c0.7-1.2,2-1.9,3.3-1.8c2.4,0,4.2,1.5,4.2,4.8V16.3z"/>
</symbol>

<symbol id="twitter" viewBox="0 0 17.2 17.2">
    <title>Twitter</title> 
    <desc>Twitter Logo</desc>
    <path d="M17.2,3.3L17.2,3.3 M11.9,1.6c-2,0-3.5,1.6-3.5,3.5c0,0.3,0,0.5,0.1,0.8C5.6,5.8,3,4.5,1.2,2.3C0.3,3.9,0.7,6,2.3,7
	C1.7,7,1.2,6.8,0.7,6.6c0,0,0,0,0,0c0,1.7,1.2,3.1,2.8,3.5c-0.3,0.1-0.6,0.1-0.9,0.1c-0.2,0-0.4,0-0.7-0.1c0.5,1.4,1.8,2.4,3.3,2.5
	c-1.3,1-2.8,1.5-4.4,1.5c-0.3,0-0.6,0-0.8,0c4.7,3,10.9,1.6,13.9-3c1-1.6,1.6-3.5,1.6-5.4c0-0.2,0-0.3,0-0.5
	c0.7-0.5,1.3-1.1,1.8-1.8c-0.6,0.3-1.3,0.5-2,0.6c0.7-0.4,1.3-1.1,1.6-2c-0.7,0.4-1.5,0.7-2.2,0.9C13.8,2,12.9,1.6,11.9,1.6"/>
</symbol>

<symbol id="youtube" viewBox="0 0 24 23.9">
    <title>YouTube</title> 
    <desc>YouTube Logo</desc>
    <path d="M23.7,7.1c-0.1-0.9-0.4-1.7-1-2.4c-0.6-0.6-1.5-1-2.4-1C17,3.4,12,3.4,12,3.4h0c0,0-5,0-8.4,0.2c-0.9,0-1.8,0.4-2.4,1
	c-0.5,0.7-0.8,1.5-1,2.4C0.1,8.4,0,9.7,0,11v1.8c0,1.3,0.1,2.6,0.2,3.9c0.1,0.9,0.4,1.7,1,2.4c0.7,0.7,1.7,1,2.6,1
	c1.9,0.2,8.2,0.2,8.2,0.2s5,0,8.4-0.2c0.9,0,1.8-0.4,2.4-1c0.5-0.7,0.8-1.5,1-2.4c0.1-1.3,0.2-2.6,0.2-3.9V11
	C24,9.7,23.9,8.4,23.7,7.1z M9.5,15.1V8.3l6.5,3.4L9.5,15.1z"/>
</symbol>

<symbol id="discord" viewBox="0 0 245 240">
    <title>Discord</title> 
    <desc>Discord Logo</desc>
	<path d="M104.4 103.9c-5.7 0-10.2 5-10.2 11.1s4.6 11.1 10.2 11.1c5.7 0 10.2-5 10.2-11.1.1-6.1-4.5-11.1-10.2-11.1zM140.9 103.9c-5.7 0-10.2 5-10.2 11.1s4.6 11.1 10.2 11.1c5.7 0 10.2-5 10.2-11.1s-4.5-11.1-10.2-11.1z"/>
	<path d="M189.5 20h-134C44.2 20 35 29.2 35 40.6v135.2c0 11.4 9.2 20.6 20.5 20.6h113.4l-5.3-18.5 12.8 11.9 12.1 11.2 21.5 19V40.6c0-11.4-9.2-20.6-20.5-20.6zm-38.6 130.6s-3.6-4.3-6.6-8.1c13.1-3.7 18.1-11.9 18.1-11.9-4.1 2.7-8 4.6-11.5 5.9-5 2.1-9.8 3.5-14.5 4.3-9.6 1.8-18.4 1.3-25.9-.1-5.7-1.1-10.6-2.7-14.7-4.3-2.3-.9-4.8-2-7.3-3.4-.3-.2-.6-.3-.9-.5-.2-.1-.3-.2-.4-.3-1.8-1-2.8-1.7-2.8-1.7s4.8 8 17.5 11.8c-3 3.8-6.7 8.3-6.7 8.3-22.1-.7-30.5-15.2-30.5-15.2 0-32.2 14.4-58.3 14.4-58.3 14.4-10.8 28.1-10.5 28.1-10.5l1 1.2c-18 5.2-26.3 13.1-26.3 13.1s2.2-1.2 5.9-2.9c10.7-4.7 19.2-6 22.7-6.3.6-.1 1.1-.2 1.7-.2 6.1-.8 13-1 20.2-.2 9.5 1.1 19.7 3.9 30.1 9.6 0 0-7.9-7.5-24.9-12.7l1.4-1.6s13.7-.3 28.1 10.5c0 0 14.4 26.1 14.4 58.3 0 0-8.5 14.5-30.6 15.2z"/>
</symbol>

<symbol id="behance" viewBox="0 0 152.5 28.2">
    <title>Behance</title> 
    <desc>Behance Logo</desc>
	<path d="M13.1 0c1.3 0 2.5.1 3.6.4 1.1.2 2 .6 2.8 1.1.8.5 1.4 1.2 1.8 2.1.4.9.6 2 .6 3.2 0 1.4-.3 2.6-1 3.5-.6.9-1.6 1.7-2.8 2.3 1.7.5 3 1.4 3.8 2.6.8 1.2 1.3 2.7 1.3 4.4 0 1.4-.3 2.6-.8 3.6s-1.3 1.9-2.2 2.5c-.9.6-2 1.1-3.2 1.4-1.2.3-2.4.5-3.6.5H0V0h13.1zm-.8 11.2c1.1 0 2-.3 2.7-.8.7-.5 1-1.4 1-2.5 0-.6-.1-1.2-.3-1.6-.2-.4-.5-.7-.9-1-.4-.2-.8-.4-1.3-.5-.5-.1-1-.1-1.6-.1H6.1v6.5h6.2zm.3 11.8c.6 0 1.2-.1 1.7-.2s1-.3 1.4-.6c.4-.3.7-.6 1-1.1.2-.5.4-1.1.4-1.8 0-1.4-.4-2.4-1.2-3.1-.8-.6-1.9-.9-3.2-.9H6.1V23h6.5zM31.9 22.9c.8.8 2 1.2 3.6 1.2 1.1 0 2.1-.3 2.9-.8.8-.6 1.3-1.2 1.5-1.8h4.9c-.8 2.4-2 4.1-3.6 5.2-1.6 1-3.5 1.6-5.8 1.6-1.6 0-3-.3-4.3-.8-1.3-.5-2.3-1.2-3.2-2.2-.9-.9-1.6-2-2-3.3-.5-1.3-.7-2.7-.7-4.3 0-1.5.2-2.9.7-4.2.5-1.3 1.2-2.4 2.1-3.4.9-.9 2-1.7 3.2-2.2 1.3-.5 2.6-.8 4.2-.8 1.7 0 3.2.3 4.5 1 1.3.7 2.3 1.5 3.1 2.7.8 1.1 1.4 2.4 1.8 3.8.2 1.4.3 2.8.2 4.4H30.5c0 1.6.6 3.1 1.4 3.9zm6.3-10.5c-.7-.7-1.8-1.1-3.1-1.1-.9 0-1.6.2-2.2.5-.6.3-1 .7-1.4 1.1-.4.4-.6.9-.7 1.4-.1.5-.2.9-.2 1.3h9c-.2-1.5-.7-2.5-1.4-3.2zM52.8 0v10.4h.1c.7-1.2 1.6-2 2.7-2.5s2.1-.8 3.2-.8c1.5 0 2.7.2 3.6.6.9.4 1.7 1 2.2 1.7.5.7.9 1.6 1.1 2.6.2 1 .3 2.1.3 3.4v12.3h-5.5V16.4c0-1.7-.3-2.9-.8-3.7-.5-.8-1.4-1.2-2.7-1.2-1.5 0-2.6.5-3.2 1.3-.7.9-1 2.4-1 4.4v10.5h-5.5V0h5.5zM70 10.6c.6-.9 1.3-1.5 2.2-2.1.9-.5 1.9-.9 3-1.1 1.1-.2 2.2-.3 3.3-.3 1 0 2 .1 3.1.2 1 .1 2 .4 2.8.8.9.4 1.5 1 2.1 1.7.5.7.8 1.7.8 2.9v10.5c0 .9.1 1.8.2 2.6s.4 1.5.7 1.9h-5.6c-.2-.2-.3-.6-.4-.9-.1-.3-.1-.7-.1-1-.9.9-1.9 1.5-3.1 1.9-1.2.4-2.4.5-3.6.5-1 0-1.8-.1-2.7-.4-.8-.2-1.5-.6-2.2-1.1-.6-.5-1.1-1.1-1.5-1.9-.3-.8-.5-1.6-.5-2.7s.2-2.1.6-2.8c.4-.7.9-1.3 1.5-1.8.6-.4 1.4-.8 2.2-1 .8-.2 1.6-.4 2.5-.5l2.4-.3c.8-.1 1.5-.2 2.1-.3.6-.2 1.1-.4 1.5-.7.4-.3.5-.7.5-1.3 0-.6-.1-1.1-.3-1.4-.2-.3-.5-.6-.8-.8-.3-.2-.7-.3-1.1-.4-.4-.1-.9-.1-1.4-.1-1.1 0-1.9.2-2.5.7-.6.5-1 1.3-1.1 2.3h-5.5c0-1.2.4-2.3.9-3.1zm10.9 7.8c-.3.1-.7.2-1.1.3-.4.1-.8.1-1.3.2-.4.1-.9.1-1.3.2l-1.2.3c-.4.1-.8.3-1 .5-.3.2-.5.5-.7.8-.3.4-.3.8-.3 1.3s.1.9.3 1.2c.2.3.4.6.7.8.3.2.7.3 1.1.4.4.1.8.1 1.3.1 1.1 0 1.9-.2 2.5-.5.6-.4 1-.8 1.3-1.3.3-.5.5-1 .5-1.5.1-.5.1-.9.1-1.2v-2.1c-.3.2-.6.4-.9.5zM95.6 7.6v2.8h.1c.7-1.2 1.6-2 2.7-2.5s2.3-.8 3.4-.8c1.5 0 2.7.2 3.6.6 1 .4 1.7 1 2.2 1.7.5.7.9 1.6 1.2 2.6.2 1 .3 2.1.3 3.4v12.3h-5.5V16.4c0-1.7-.3-2.9-.8-3.7-.5-.8-1.4-1.3-2.8-1.3-1.5 0-2.6.6-3.3 1.5-.7.9-1 2.4-1 4.4v10.5h-5.5V7.6h5.4zM121.4 11.2c-.9 0-1.6.2-2.2.6-.6.4-1.1.9-1.5 1.6-.4.6-.6 1.3-.8 2.1-.2.8-.2 1.5-.2 2.3 0 .7.1 1.5.2 2.2.2.8.4 1.4.8 2 .4.6.8 1.1 1.4 1.5.6.4 1.3.6 2.2.6 1.3 0 2.3-.4 3.1-1.1.7-.7 1.2-1.7 1.3-3h5.3c-.4 2.7-1.4 4.7-3.1 6.1-1.7 1.4-3.9 2.1-6.6 2.1-1.5 0-2.9-.3-4.1-.8-1.3-.5-2.3-1.2-3.2-2.1-.9-.9-1.6-2-2.1-3.2-.5-1.3-.7-2.6-.7-4.1 0-1.6.2-3 .7-4.3.5-1.3 1.1-2.5 2-3.5.9-1 2-1.7 3.2-2.3 1.3-.5 2.7-.8 4.3-.8 1.2 0 2.3.2 3.4.5s2.1.8 2.9 1.4c.9.6 1.6 1.4 2.1 2.4.5.9.8 2.1.9 3.4h-5.4c-.2-2.4-1.5-3.6-3.9-3.6zM29.4 1.9h11.2v2.7H29.4zM139.3 22.9c.8.8 2.1 1.2 3.6 1.2 1.1 0 2.1-.3 2.9-.8.8-.6 1.3-1.2 1.5-1.8h4.8c-.8 2.4-2 4.1-3.6 5.2-1.6 1-3.5 1.6-5.8 1.6-1.6 0-3-.3-4.3-.8-1.3-.5-2.3-1.2-3.2-2.2-.9-.9-1.6-2-2-3.3-.5-1.3-.7-2.7-.7-4.3 0-1.5.2-2.9.7-4.2.5-1.3 1.2-2.4 2.1-3.4.9-.9 2-1.7 3.2-2.2 1.3-.5 2.7-.8 4.2-.8 1.7 0 3.2.3 4.4 1 1.3.7 2.3 1.5 3.1 2.7.8 1.1 1.4 2.4 1.8 3.8.4 1.4.5 2.9.4 4.5h-14.5c0 1.5.6 3 1.4 3.8zm6.4-10.5c-.7-.7-1.8-1.1-3.1-1.1-.9 0-1.6.2-2.2.5-.6.3-1.1.7-1.4 1.1-.3.4-.6.9-.7 1.4-.1.5-.2.9-.2 1.3h9c-.3-1.5-.8-2.5-1.4-3.2z"></path>
</symbol>

<symbol id="creative-cloud" viewBox="0 0.388 121.5 89.612">
	<defs><path id="a" d="M0 .39h121.5V90H0z"/></defs>
	<clipPath id="b"><use xlink:href="#a" overflow="visible"/></clipPath>
	<path d="M121.5 43.195v4c-.038.217-.086.43-.111.646-.207 1.74-.341 3.491-.627 5.218-.934 5.613-2.953 10.83-5.953 15.654-4.556 7.324-10.715 12.909-18.455 16.723a43.169 43.169 0 0 1-14.236 4.201c-1.1.127-2.199.241-3.299.362H36.135c-.215-.04-.429-.104-.646-.117-4.304-.271-8.445-1.252-12.392-2.979-8.593-3.76-15-9.854-19.194-18.242A35.884 35.884 0 0 1 .358 56.86C.237 55.861.119 54.863 0 53.865v-3.881c.041-.215.104-.43.117-.646.223-3.729.988-7.35 2.335-10.83 3.625-9.364 9.944-16.309 18.924-20.804 4.659-2.333 9.625-3.559 14.819-3.831 2.543-.132 5.084.01 7.612.349.229.031.559-.071.718-.234 3.635-3.713 7.774-6.729 12.441-9.015 4.527-2.217 9.291-3.646 14.306-4.218 1.18-.135 2.363-.246 3.545-.368h3.639c.238.037.477.079.715.107 1.803.21 3.616.342 5.402.641 5.572.935 10.759 2.935 15.559 5.906 7.36 4.556 12.969 10.723 16.801 18.487a43.067 43.067 0 0 1 4.205 14.246c.13 1.141.241 2.282.362 3.421M53.565 17.312c.073.096.091.141.122.156a48.613 48.613 0 0 1 7.139 4.317c.142.103.494.06.666-.048 6.188-3.921 12.896-5.274 20.102-3.996 7.061 1.252 12.807 4.78 17.197 10.415 4.971 6.377 6.866 13.588 5.494 21.611-.92 5.377-3.074 10.201-6.735 14.242-6.68 7.367-15.045 10.414-24.892 9.124-6.062-.794-11.295-3.409-15.626-7.786-5.559-5.615-11.154-11.193-16.729-16.793-.743-.746-1.57-1.346-2.64-1.477-1.869-.229-3.565.704-4.372 2.383-.72 1.499-.627 3.189.935 4.725 6.215 6.101 12.375 12.258 18.583 18.365a30.005 30.005 0 0 0 3.409 2.901c4.535 3.293 9.648 5.114 15.185 5.847 4.346.574 8.658.451 12.937-.511 8.162-1.833 14.923-5.999 20.248-12.427 4.397-5.312 7.056-11.416 7.983-18.269a35.81 35.81 0 0 0-.332-11.749c-1.235-6.33-3.913-11.994-8.204-16.815C95.848 12.334 85.548 8.23 73.291 9.146c-4.715.352-9.175 1.737-13.372 3.934a35.285 35.285 0 0 0-6.354 4.232m-2.999 64.176a79.384 79.384 0 0 1-.504-.471c-2.541-2.399-5.096-4.783-7.607-7.213-.486-.47-.933-.699-1.621-.683-2.543.062-5.088.073-7.594-.493-12.46-2.818-19.695-16.365-15.103-28.285 3.622-9.399 13.649-15.123 23.537-13.358 4.432.791 8.322 2.667 11.515 5.96 3.894 4.02 7.904 7.925 11.84 11.904.896.906 1.925 1.319 3.166 1.142 1.604-.229 2.881-.993 3.461-2.566.568-1.548.293-3.014-.879-4.201-4.131-4.185-8.164-8.475-12.462-12.482-8.336-7.775-18.166-10.087-29.038-6.781-14.623 4.443-23.181 19.543-19.84 34.443C12.482 71.98 24.355 81.508 38.248 81.52c3.879.004 7.759.002 11.638 0 .192 0 .384-.017.68-.032" clip-path="url(#b)"/>
</symbol>

<symbol id="hamburger" viewBox="0 0 32 32">
    <title>Menu</title> 
    <desc>Hamburger Menu</desc>
    <path d="M4,10h24c1.104,0,2-0.896,2-2s-0.896-2-2-2H4C2.896,6,2,6.896,2,8S2.896,10,4,10z M28,14H4c-1.104,0-2,0.896-2,2  s0.896,2,2,2h24c1.104,0,2-0.896,2-2S29.104,14,28,14z M28,22H4c-1.104,0-2,0.896-2,2s0.896,2,2,2h24c1.104,0,2-0.896,2-2  S29.104,22,28,22z"/>
</symbol>

<symbol id="role-designer" viewBox="0 0 40 40">
    <g transform="translate(-377 -335)">
      <path d="M2361.221,3027.535l-2.182.5-2.192,8.786,1.635-.34Z" transform="translate(-1960.629 -2688.535)"/>
      <path d="M2352.177,3060.311l12.592-24.216-2.2.43-9.287,20.827,7.663-20.56-6.884,1.265,1.709-9.292-8.127,1.727-.009,15.464,5.6-1.017-1.148,15.345-.077.364.058-.111-.008.112Z" transform="translate(-1959.632 -2688.668)"/>
    </g>
</symbol>

<symbol id="role-engineer" viewBox="0 0 40 40">
    <path d="M778.709,151.789q.18-1.332.265-2.64c.005-.079.011-.159.015-.238s.01-.181.014-.272v-.021h0c.267-5.442-.788-10.423-3.662-13.967l0,0c-.077-.094-.155-.188-.234-.28l-.012-.014c-.075-.087-.152-.174-.229-.26l-.025-.027c-.073-.08-.147-.159-.222-.238l-.04-.041c-.07-.074-.142-.146-.215-.217-.018-.018-.036-.037-.054-.054-.07-.069-.142-.137-.215-.205l-.061-.058c-.093-.085-.187-.17-.283-.253-.1.083-.19.168-.283.253l-.061.058c-.072.068-.144.136-.215.205-.018.017-.035.035-.053.053-.073.072-.145.144-.216.218l-.039.041c-.075.078-.15.158-.223.238l-.025.028c-.077.085-.154.171-.228.258l-.015.018c-.078.091-.155.182-.23.275l-.01.012c-.076.1-.151.19-.224.286l-.011.015c-.073.094-.144.189-.213.286l-.006.008h0c-2.574,3.562-3.489,8.406-3.187,13.662.007.111.013.223.021.336h0c.056.837.143,1.685.259,2.539-3.495,2.481-4.394,5.825-3.224,9.856a1.179,1.179,0,0,0,.823.591c-.019-3.755,1.169-5.509,3.326-5.658q.154.622.327,1.245h2.312v.042a18.568,18.568,0,0,0,.472,4.335,33.881,33.881,0,0,1,.923,5.8,33.881,33.881,0,0,1,.923-5.8,18.568,18.568,0,0,0,.472-4.335v-.042h2.312q.173-.622.327-1.245c2.156.149,3.345,1.9,3.327,5.658a1.179,1.179,0,0,0,.822-.591C783.1,157.614,782.2,154.27,778.709,151.789Zm-4.693,10.447h-.579V150.791h.579Zm-.266-16.748a2.829,2.829,0,1,1,2.828-2.829A2.835,2.835,0,0,1,773.75,145.488Z" transform="matrix(0.719, 0.695, -0.695, 0.719, -431.651, -626.143)"/>
</symbol>

<symbol id="role-illustrator" viewBox="0 0 40 40">
    <g transform="translate(5 5)">
      <path d="M.573,0C.1,1.489-.2,2.835.158,3.092c.339.243,1.5-.111,2.8-.634A6.586,6.586,0,0,0,.573,0Z" transform="translate(0 27.339)"/>
      <path d="M8.086,5.776S7.77,4.629,5.564,2.55A11.858,11.858,0,0,0,2.01,0S.794,2.842,0,5.34a7.808,7.808,0,0,1,2.816,2.9C5.251,7.261,8.086,5.776,8.086,5.776Z" transform="translate(1.841 20.29)"/>
      <path d="M8.171,4.028,4.69.538a1.848,1.848,0,0,0-2.606,0L0,2.628l6.085,6.1L8.173,6.637A1.855,1.855,0,0,0,8.171,4.028Z" transform="translate(21.331 0)"/>
      <path d="M.241,14.061a1.723,1.723,0,0,0-.241.3,14.463,14.463,0,0,1,3.6,2.644,11.243,11.243,0,0,1,2.619,3.245c.036-.03.076-.056.113-.089L20.358,6.1,14.27,0Z" transform="translate(5.491 4.2)"	/>
    </g>
</symbol>

<symbol id="role-marketer" viewBox="0 0 40 40">
    <g transform="translate(-285.707 -376.421)">
      <path d="M316.3,389.5a2.4,2.4,0,0,0-2.813-1.9l1.564,8.049h0a2.4,2.4,0,0,0,1.9-2.814Z"/>
      <path d="M316.807,383.412h0v.006a.349.349,0,0,0-.456.184l-.994,2.6a.349.349,0,0,0,.61.333.39.39,0,0,0,.036-.067l.994-2.6A.35.35,0,0,0,316.807,383.412Z"/>
      <path d="M318.228,388.44a.345.345,0,0,0,.063-.042l2.086-1.849a.351.351,0,0,0,.045-.493l0,.005a.346.346,0,0,0-.487-.048h-.006l-2.085,1.849a.349.349,0,0,0,.386.577Z"/>
      <path d="M322.357,390.02h0a.346.346,0,0,0-.4-.286h-.007l-2.728.553a.349.349,0,0,0,.044.693.316.316,0,0,0,.075,0l2.729-.553a.349.349,0,0,0,.286-.4Z"/>
      <path d="M319.687,397.791l-1.9-2.04a.387.387,0,0,0-.059-.048.349.349,0,0,0-.44.537l1.895,2.039a.347.347,0,0,0,.491,0h0l0,.007a.35.35,0,0,0,.006-.495Z"/>
      <path d="M321.819,394.046l-2.627-.933a.377.377,0,0,0-.074-.016.349.349,0,0,0-.142.679l2.626.933a.346.346,0,0,0,.435-.225h.007A.349.349,0,0,0,321.819,394.046Z"/>
      <path d="M315.6,402.014l-3.941-20.275a.38.38,0,0,0-.049-.126.393.393,0,0,0-.539-.136L293.8,391.847c-.009.005-.011.016-.019.022l-1.277.248a3.464,3.464,0,0,0-2.737,4.057l.126.649a3.464,3.464,0,0,0,4.058,2.736l1.267-.246c.013,0,.022.016.037.018l4.514.715,1.7,8.755a1.39,1.39,0,0,0-.689,1.474l.014.069a1.393,1.393,0,0,0,1.632,1.1l3.541-.688a1.394,1.394,0,0,0,1.1-1.632l-.013-.07a1.389,1.389,0,0,0-1.19-1.108l-1.391-7.157,10.672,1.688a.367.367,0,0,0,.136,0v0A.393.393,0,0,0,315.6,402.014ZM309.915,385a.647.647,0,0,1-.076-.007.388.388,0,0,1-.142-.06.466.466,0,0,1-.058-.05.38.38,0,0,1-.048-.058.376.376,0,0,1-.06-.143.4.4,0,0,1,.06-.295.481.481,0,0,1,.049-.061.3.3,0,0,1,.061-.046.336.336,0,0,1,.067-.037.377.377,0,0,1,.152-.029.384.384,0,0,1,.076.008.305.305,0,0,1,.073.021.459.459,0,0,1,.069.037.536.536,0,0,1,.057.05.407.407,0,0,1,.086.128c.005.026.018.047.023.073a.644.644,0,0,1,.006.076.341.341,0,0,1-.009.079.357.357,0,0,1-.023.072.381.381,0,0,1-.284.235A.421.421,0,0,1,309.915,385Zm.208,2.714a.391.391,0,0,1,.307-.46.393.393,0,1,1,.151.772A.393.393,0,0,1,310.123,387.712Zm.588,3.03h0a.393.393,0,0,1,.308-.461.393.393,0,1,1,.15.772A.393.393,0,0,1,310.711,390.742Zm.59,3.031h0v0h0a.391.391,0,0,1,.308-.459.393.393,0,1,1,.15.771A.391.391,0,0,1,311.3,393.773Zm.589,3.031a.392.392,0,0,1,.308-.46.393.393,0,1,1,.15.772A.393.393,0,0,1,311.89,396.8Zm1.359,3.034a.313.313,0,0,1-.024.073.393.393,0,0,1-.034.068.494.494,0,0,1-.05.061.3.3,0,0,1-.06.046.442.442,0,0,1-.067.038.32.32,0,0,1-.074.024.353.353,0,0,1-.155,0,.357.357,0,0,1-.073-.02.581.581,0,0,1-.069-.038.4.4,0,0,1-.166-.251.527.527,0,0,1-.007-.079.479.479,0,0,1,.01-.076.283.283,0,0,1,.024-.071.393.393,0,0,1,.034-.068.737.737,0,0,1,.05-.061.554.554,0,0,1,.06-.049.7.7,0,0,1,.067-.035.4.4,0,0,1,.37.037.467.467,0,0,1,.058.05.331.331,0,0,1,.048.057.446.446,0,0,1,.038.067c.005.026.018.05.023.076a.668.668,0,0,1,.006.076A.331.331,0,0,1,313.249,399.838Z"/>
    </g>
</symbol>

<symbol id="role-architect" viewBox="0 0 40 40">
    <g transform="translate(-444 -210.727)">
      <g transform="translate(450 217)">
        <g>
          <path d="M2780.994,3231.707l7.5-7.5-8.725-8.719,4.711-4.708,1.512,1.511-.814.814.291.29.756-.755,1.134,1.133-1.4,1.4.843.843,1.28-1.279,1.454,1.453-1.018,1.017.378.378,1.018-1.017,1.163,1.162-1.309,1.308.436.436,1.483-1.482,1.367,1.366,3.111-3.11,1.338,1.337.64-.639-6.747-6.743a2.857,2.857,0,0,1,3.9-.348c2.268,1.569,3.9,2.674,6.165,2.674a26.949,26.949,0,0,1,2.792,2.79,9.186,9.186,0,0,0,2.617,6.161c.815,1.744.291,2.557,0,3.778l-6.107-6.045-16.227,16.159Z" transform="translate(-2779.773 -3209.236)"/>
        </g>
        <path d="M2846.592,3288.459l4.578-4.577.975.974-1.536,1.536.384.384,1.565-1.565,1.329,1.329-.915.916.782.783.916-.916,1.107,1.108-1.742,1.742.5.5,1.654-1.654,1.182,1.181-.768.768.62.62.827-.827,1.536,1.536-4.519,4.519Z" transform="translate(-2833.849 -3269.591)"/>
      </g>
    </g>
</symbol>

<symbol id="role-scientist" viewBox="0 0 40 40">
    <path d="M383.446,85.656h.369V83h-3.69v2.656h.367V88.1h2.954Zm1.586,19.083v1.522h-6.382v-1.522Zm-17.972,6.437a15.277,15.277,0,0,1-.265-2.822,15.691,15.691,0,0,1,4.231-11.072c2.476-2.478,4.472-3.642,7.908-4.009V89.2h6.183v8.55h-1.21v1.915h-3.763V97.752h-1.21v-.958c-4.419.62-6.658,3.723-8.043,7.847h5.23v2.231h11.9v3.079h-11.9v1.225h13.927v4.434H365.424v-4.434Z" transform="translate(-357.424 -81)"/>
</symbol>

<symbol id="adchoices" viewBox="0 0 71.38 75.48">
	<path d="M71.43,46.62c6.63-3.61,7.81-8.22.11-12.78L17.44,4.31c-6.57-3.71-12-.64-12,6.84V69.36c0,9.58,5,10.51,11.63,6.91l6.18-3.44c1-.67,3.38-2.69,2.72-5.42-.61-2.54-2.8-3.33-5.31-2.64-3.68,2-6,0-6-4.16V19.16c0-4.16,3-5.87,6.63-3.8L58.63,36.68c3.65,2.07,3.62,5.39-.06,7.39l-23.06,12V42a3.95,3.95,0,1,0-7.89,0V62c0,2.18,1.9,3.74,3.95,4.47a5.36,5.36,0,0,0,3.72-.23Z" transform="translate(-5.49 -2.73)"/>
	<path d="M35.9,31.33a4.14,4.14,0,1,1-4.14-4.14,4.14,4.14,0,0,1,4.14,4.14" transform="translate(-5.49 -2.73)"/>
</symbol>

<symbol id="play" viewBox="0 0 24 24">
    <path d="M8 5v14l11-7z"></path> <path d="M0 0h24v24H0z" fill="none">
    </path>    
</symbol>

<symbol id="not-found" viewBox="0 0 180 120">
    <path d="M149.5,17H31.5A3.50425,3.50425,0,0,0,28,20.5v27a1.5,1.5,0,0,0,3,0V32H150v68.5a.50065.50065,0,0,1-.5.5H31.5a.50065.50065,0,0,1-.5-.5v-23a1.5,1.5,0,0,0-3,0v23a3.50425,3.50425,0,0,0,3.5,3.5h118a3.50425,3.50425,0,0,0,3.5-3.5v-80A3.50425,3.50425,0,0,0,149.5,17ZM31,30V20.5a.50034.50034,0,0,1,.5-.5h118a.50034.50034,0,0,1,.5.5V30Z"/>
    <path d="M47.4502,24h-10a1,1,0,0,0,0,2h10a1,1,0,0,0,0-2Z"/>
    <path d="M38.02832,73.19238a1.49984,1.49984,0,0,0,2.12109-2.12109l-8.55-8.5498,8.55-8.5498a1.49984,1.49984,0,0,0-2.12109-2.12109l-8.55,8.5498-8.55-8.5498a1.49984,1.49984,0,0,0-2.12109,2.12109l8.55,8.5498-8.55,8.5498a1.49984,1.49984,0,1,0,2.12109,2.12109l8.55-8.5498Z"/>
</symbol>

</svg>
