<svg xmlns="http://www.w3.org/2000/svg" xmlns:xlink="http://www.w3.org/1999/xlink" width="44" height="44" viewBox="0 0 44 44">
  <defs>
    <clipPath id="clip-path">
      <rect id="Rectangle_352990" data-name="Rectangle 352990" width="40.996" height="41" fill="#444"/>
    </clipPath>
  </defs>
  <g id="SXmock_Adobe-Firefly_44" transform="translate(21297 8910)">
    <rect id="Rectangle_352989" data-name="Rectangle 352989" width="44" height="44" transform="translate(-21297 -8910)" fill="none"/>
    <g id="Group_378992" data-name="Group 378992" transform="translate(-21295 -8908)">
      <g id="Group_378991" data-name="Group 378991" clip-path="url(#clip-path)">
        <path id="Path_1050462" data-name="Path 1050462" d="M21.607,26.8l-2.752-2.7.268-3.884a1.318,1.318,0,0,0-.389-1.034,1.3,1.3,0,0,0-.919-.379.071.071,0,0,0-.021,0,1.293,1.293,0,0,0-.931.408L14.214,22,10.4,21.729a1.349,1.349,0,0,0-1.033.4,1.328,1.328,0,0,0,.03,1.854L12.146,26.7l-.27,3.887a1.322,1.322,0,0,0,.386,1.021,1.3,1.3,0,0,0,.926.383H13.2a1.3,1.3,0,0,0,.933-.4L16.792,28.8l3.81.259a1.319,1.319,0,0,0,1.005-2.26Z" fill="#444"/>
        <path id="Path_1050463" data-name="Path 1050463" d="M22.5,41h-11A11.513,11.513,0,0,1,0,29.5v-11A11.513,11.513,0,0,1,11.5,7h3.438a1.5,1.5,0,0,1,0,3H11.5A8.51,8.51,0,0,0,3,18.5v11A8.51,8.51,0,0,0,11.5,38h11A8.51,8.51,0,0,0,31,29.5V25a1.5,1.5,0,0,1,3,0v4.5A11.513,11.513,0,0,1,22.5,41" fill="#444"/>
        <path id="Path_1050464" data-name="Path 1050464" d="M26.768,21.438a2.1,2.1,0,0,1-1.486-.613,2.143,2.143,0,0,1-.629-1.673l.433-6.328-4.452-4.4a2.16,2.16,0,0,1-.05-3,2.052,2.052,0,0,1,1.682-.658l6.146.442L32.692.666A2.1,2.1,0,0,1,34.194,0a2.13,2.13,0,0,1,2.152,2.284l-.434,6.329,4.453,4.4a2.156,2.156,0,0,1,.051,3,2.086,2.086,0,0,1-1.675.66l-6.154-.444-4.28,4.544a2.1,2.1,0,0,1-1.5.665h-.036M24.4,7.928l3.074,3.04a2.149,2.149,0,0,1,.629,1.67l-.292,4.285,2.878-3.057a2.12,2.12,0,0,1,1.677-.661l4.23.306L33.524,10.47A2.127,2.127,0,0,1,32.892,8.8l.294-4.28L30.308,7.572a2.119,2.119,0,0,1-1.695.66Z" fill="#444"/>
      </g>
    </g>
  </g>
</svg>
