<svg xmlns="http://www.w3.org/2000/svg" width="15.08" height="15" viewBox="0 0 15.08 15">
  <g id="Group_310727" data-name="Group 310727" transform="translate(-36 -732.5)">
    <g id="ICONS" transform="translate(38.081 733)">
      <path id="Path_126764" data-name="Path 126764" d="M14.68,15.591a3,3,0,0,1-2.964.029L4.542,11.6a2.963,2.963,0,0,1,0-5.2l7.174-4.021a2.988,2.988,0,0,1,2.964.029A2.582,2.582,0,0,1,16,4.639V13.36a2.582,2.582,0,0,1-1.319,2.231Z" transform="translate(-3 -2)" fill="#242424"/>
    </g>
    <path id="Line_1" data-name="Line 1" d="M0,13a2,2,0,0,1-2-2V0A2,2,0,0,1,0-2,2,2,0,0,1,2,0V11A2,2,0,0,1,0,13Z" transform="translate(38 734.5)" fill="#242424"/>
  </g>
</svg>
