<?xml version="1.0" encoding="utf-8"?>
<!-- Generator: Adobe Illustrator 26.4.0, SVG Export Plug-In . SVG Version: 6.00 Build 0)  -->
<svg version="1.1" id="Layer_1" xmlns="http://www.w3.org/2000/svg" xmlns:xlink="http://www.w3.org/1999/xlink" x="0px" y="0px"
	 viewBox="0 0 165.2 36.5" style="enable-background:new 0 0 165.2 36.5;" xml:space="preserve">
<style type="text/css">
	.st0{fill:#282828;}
	.st1{fill:#E31D16;}
	.st2{clip-path:url(#SVGID_00000170237563383328207740000006722798550236274065_);fill:#0070B9;}
	.st3{clip-path:url(#SVGID_00000044858042505641818870000013812769889652563895_);fill:#FFFFFF;}
	.st4{clip-path:url(#SVGID_00000059282850169836268130000003905834004220411042_);fill:#E4192F;}
	.st5{clip-path:url(#SVGID_00000066486819915927466370000015087969664167476142_);fill:#0070B9;}
	.st6{clip-path:url(#SVGID_00000165208671778313273800000003103206702790534051_);fill:#FFFFFF;}
	.st7{clip-path:url(#SVGID_00000102528874703842282310000000294441317215674303_);fill:#FFFFFF;}
	.st8{clip-path:url(#SVGID_00000010996739837074527060000015424337833129395597_);fill:#FFFFFF;}
	.st9{clip-path:url(#SVGID_00000121990800009546038670000001941210896483203493_);fill:#FFFFFF;}
	.st10{clip-path:url(#SVGID_00000127739662485727419300000015304868344766889115_);fill:#FFFFFF;}
	.st11{clip-path:url(#SVGID_00000050661363544657942870000003270153357876120717_);fill:#FFFFFF;}
	.st12{clip-path:url(#SVGID_00000092446027348410449460000009141079888478446748_);fill:#FFFFFF;}
	.st13{clip-path:url(#SVGID_00000027579245039735509180000016530070040412778883_);fill:#FFFFFF;}
	.st14{clip-path:url(#SVGID_00000114052050363667789350000011757114268923071374_);fill:#FFFFFF;}
	.st15{clip-path:url(#SVGID_00000108277114991898814330000012110788154989932719_);fill:#FFFFFF;}
	.st16{clip-path:url(#SVGID_00000096021566206284352350000007625824065200589221_);fill:#FFFFFF;}
	.st17{clip-path:url(#SVGID_00000010302764163814555040000003174452981521917880_);fill:#FFFFFF;}
	.st18{clip-path:url(#SVGID_00000046338295189835816200000005893702304114988171_);fill:#FFFFFF;}
	.st19{clip-path:url(#SVGID_00000096025281674077124800000016696108067806228645_);fill:#FFFFFF;}
	.st20{clip-path:url(#SVGID_00000081644378807794168460000002487250614782828684_);fill:#FFFFFF;}
</style>
<g>
	
		<rect id="Rectangle_241802_00000140013017656915268720000007428729767746308239_" x="116.7" class="st0" width="0.6" height="36.5"/>
	<g>
		<path id="Path_604699_00000037663810614416142640000008779196984952012939_" class="st1" d="M45.4,22.7l-1.1,3.4
			c0,0.1-0.1,0.2-0.3,0.2h-2.7c-0.2,0-0.2-0.1-0.2-0.2l4.6-13.4c0.2-0.5,0.2-0.9,0.2-1.4c0-0.1,0.1-0.2,0.1-0.2h3.7
			c0.1,0,0.2,0,0.2,0.1l5.3,14.9c0,0.1,0,0.2-0.1,0.2h-3c-0.1,0-0.2-0.1-0.3-0.2l-1.2-3.5L45.4,22.7z M49.9,19.8
			c-0.5-1.5-1.4-4.3-1.8-6l0,0c-0.4,1.6-1.2,4.1-1.8,6H49.9z"/>
		<path id="Path_604700_00000018228076905162825630000009475116848192829832_" class="st1" d="M55.7,20.7c0-3.3,2.5-6.1,6.7-6.1h0.8
			V10c0-0.1,0.1-0.2,0.1-0.2l0,0h2.9c0.1,0,0.1,0,0.1,0.1v13.8c0,0.6,0,1.1,0.1,1.7c0,0.1,0,0.2-0.2,0.2c-1.5,0.6-3,0.9-4.6,0.9
			C58.3,26.6,55.7,24.6,55.7,20.7 M63.2,17.4c-0.3-0.1-0.6-0.1-0.9-0.1c-1.7-0.1-3.2,1.2-3.3,2.9c0,0.1,0,0.3,0,0.4
			c0,2.3,1.3,3.3,3.1,3.3c0.4,0,0.7,0,1.1-0.1L63.2,17.4z"/>
		<path id="Path_604701_00000166647965668146546030000007171381883097197247_" class="st1" d="M79.7,20.5c0,3.6-2.4,6.1-5.7,6.1
			c-4,0-5.7-3-5.7-6c0-3.3,2.2-6,5.8-6C77.8,14.6,79.7,17.4,79.7,20.5 M71.6,20.5c0,2.1,1,3.3,2.5,3.3c1.3,0,2.4-1.2,2.4-3.3
			c0-1.8-0.7-3.3-2.5-3.3C72.6,17.3,71.6,18.5,71.6,20.5"/>
		<path id="Path_604702_00000047758853157145339620000014249930519323666864_" class="st1" d="M84.6,9.9c0.2,0,0.2,0,0.2,0.2v4.8
			c0.6-0.2,1.3-0.3,1.9-0.3c2.9-0.2,5.4,2.1,5.6,5c0,0.2,0,0.3,0,0.5c0,4.3-3.4,6.5-7,6.5c-1.2,0-2.5-0.2-3.6-0.5
			c-0.1,0-0.1-0.1-0.1-0.2V10c0-0.1,0-0.2,0.2-0.2L84.6,9.9z M86.2,17.3c-0.5,0-0.9,0.1-1.4,0.2v6.3c0.3,0.1,0.6,0.1,0.9,0.1
			c1.8,0.1,3.3-1.2,3.4-3c0-0.2,0-0.3,0-0.5C89.1,18.3,87.9,17.3,86.2,17.3"/>
		<path id="Path_604703_00000136371997812829757500000017420276318980740277_" class="st1" d="M96.9,21.4c0.1,1.3,1,2.4,3.3,2.4
			c1,0,2-0.2,2.9-0.5c0.1,0,0.1,0,0.1,0.1v2.2c0,0.1,0,0.2-0.2,0.3c-1.1,0.5-2.4,0.7-3.6,0.7c-4.4,0-5.9-3-5.9-5.9
			c0-3.2,2-6.1,5.6-6.1c3.5,0,4.9,2.7,4.9,5c0,0.5,0,1-0.1,1.6c0,0.1-0.1,0.2-0.2,0.2c-0.8,0.1-1.6,0.1-2.4,0.1L96.9,21.4z
			 M99.9,19.2c0.4,0,0.8,0,1.2,0V19c-0.1-1-0.9-1.8-2-1.8s-2.1,0.9-2.2,2H99.9z"/>
		<path id="Path_604704_00000022518558821476681850000007299731585193174462_" class="st1" d="M19.9,4.8h11.2v26.9L19.9,4.8z"/>
		<path id="Path_604705_00000024696974610535966190000017403436332171342505_" class="st1" d="M12,4.8H0.7v26.9L12,4.8z"/>
		<path id="Path_604706_00000030471510169440547250000018184462628959870900_" class="st1" d="M15.9,14.7l7.2,17h-4.7l-2.1-5.4H11
			L15.9,14.7z"/>
	</g>
	<g>
		<g>
			<g>
				<g>
					<defs>
						<rect id="SVGID_1_" x="130.1" y="1.6" width="33.3" height="33.3"/>
					</defs>
					<clipPath id="SVGID_00000159437024710956898740000009559392319161108904_">
						<use xlink:href="#SVGID_1_"  style="overflow:visible;"/>
					</clipPath>
					<path style="clip-path:url(#SVGID_00000159437024710956898740000009559392319161108904_);fill:#0070B9;" d="M146.8,1.6
						c-9.2,0-16.6,7.4-16.6,16.6s7.4,16.6,16.6,16.6c9.2,0,16.6-7.4,16.6-16.6C163.4,9.1,155.9,1.6,146.8,1.6"/>
				</g>
			</g>
			<g>
				<g>
					<defs>
						<rect id="SVGID_00000126319124838633704840000003988403797853850762_" x="130.1" y="1.6" width="33.3" height="33.3"/>
					</defs>
					<clipPath id="SVGID_00000019678649125513504010000004043644647526721461_">
						<use xlink:href="#SVGID_00000126319124838633704840000003988403797853850762_"  style="overflow:visible;"/>
					</clipPath>
					<path style="clip-path:url(#SVGID_00000019678649125513504010000004043644647526721461_);fill:#FFFFFF;" d="M146.8,2.5
						c-8.8,0-15.8,7-15.8,15.8s7.1,15.8,15.8,15.8s15.8-7.1,15.8-15.8C162.6,9.5,155.5,2.5,146.8,2.5"/>
				</g>
			</g>
			<g>
				<g>
					<defs>
						<rect id="SVGID_00000037663753364122946400000014193233269388437180_" x="130.1" y="1.6" width="33.3" height="33.3"/>
					</defs>
					<clipPath id="SVGID_00000052819772791951713890000008625383648602045092_">
						<use xlink:href="#SVGID_00000037663753364122946400000014193233269388437180_"  style="overflow:visible;"/>
					</clipPath>
					<path style="clip-path:url(#SVGID_00000052819772791951713890000008625383648602045092_);fill:#E4192F;" d="M146.8,3.2
						c-8.3,0-15.1,6.7-15.1,15.1s6.7,15.1,15.1,15.1c8.3,0,15.1-6.7,15.1-15.1S155.1,3.2,146.8,3.2 M146.8,27.7
						c-5.2,0-9.4-4.2-9.4-9.4s4.2-9.4,9.4-9.4s9.4,4.2,9.4,9.4S151.9,27.7,146.8,27.7"/>
				</g>
			</g>
		</g>
		<g>
			<g>
				<g>
					<defs>
						<rect id="SVGID_00000157268720048124316590000003780174600284277658_" x="138.1" y="9.6" width="17.3" height="17.3"/>
					</defs>
					<clipPath id="SVGID_00000061473414924595181150000005489781149877014924_">
						<use xlink:href="#SVGID_00000157268720048124316590000003780174600284277658_"  style="overflow:visible;"/>
					</clipPath>
					<path style="clip-path:url(#SVGID_00000061473414924595181150000005489781149877014924_);fill:#0070B9;" d="M138.5,20.8
						c0.4,1.3,1.1,2.4,1.9,3.3v-3.9l-2.2-3.2C138,18.3,138.1,19.5,138.5,20.8 M142.9,23.9v-4.5l-2.5-3.7v-3.4
						c-0.5,0.5-0.9,1.1-1.2,1.7l1.2,1.7v4.5L142.9,23.9V26c0.6,0.3,1.3,0.5,1.9,0.7L142.9,23.9z M145.5,18.7l2.5,3.7v4.5l-2.5-3.7
						V18.7L143,15v-4.5l2.5,3.7V18.7z M148,17.9l-2.5-3.7V9.7l2.5,3.7V17.9l2.5,3.7V26l-2.5-3.7V17.9z M144.2,10
						c-1.3,0.4-2.4,1.1-3.3,1.9l2.1,3v4.5l2.5,3.7v3.7c1.2,0.2,2.6,0.1,3.8-0.3c1.3-0.4,2.4-1.1,3.3-1.9l-2.1-3v-4.5l-2.5-3.7V9.7
						C146.8,9.5,145.5,9.6,144.2,10 M153.1,20.8v-4.5l-2.5-3.7v-2.1c-0.6-0.3-1.3-0.5-1.9-0.7l1.9,2.8v4.5L153.1,20.8v3.4
						c0.5-0.5,0.9-1.1,1.2-1.7L153.1,20.8z M155,15.7c-0.4-1.3-1.1-2.4-1.9-3.3v3.9l2.2,3.2C155.5,18.3,155.4,17,155,15.7"/>
				</g>
			</g>
		</g>
		<g>
			<g>
				<g>
					<defs>
						<rect id="SVGID_00000085954513110556572490000007130866661867672511_" x="130.1" y="1.6" width="33.3" height="33.3"/>
					</defs>
					<clipPath id="SVGID_00000067221120349951296100000016652328843687164317_">
						<use xlink:href="#SVGID_00000085954513110556572490000007130866661867672511_"  style="overflow:visible;"/>
					</clipPath>
					<path style="clip-path:url(#SVGID_00000067221120349951296100000016652328843687164317_);fill:#FFFFFF;" d="M136.7,21.4
						l0.4,0.9l-0.7,1.3c-0.1,0.2-0.2,0.4-0.2,0.4l0,0c0,0,0.2,0,0.4,0l1.5,0.1l0.5,0.9l-3.2,1.9L135,26l1.3-0.8
						c0.3-0.2,0.5-0.3,0.5-0.3l0,0c0,0-0.2,0-0.5-0.1l-1.4-0.2l0,0l0.6-1.3c0.1-0.3,0.2-0.5,0.2-0.5l0,0c0,0-0.2,0.1-0.6,0.3
						l-1.4,0.7l-0.4-0.9L136.7,21.4z"/>
				</g>
			</g>
			<g>
				<g>
					<defs>
						<rect id="SVGID_00000080185170483818175320000002674948944118303659_" x="130.1" y="1.6" width="33.3" height="33.3"/>
					</defs>
					<clipPath id="SVGID_00000049924089692321171080000017047920126085447830_">
						<use xlink:href="#SVGID_00000080185170483818175320000002674948944118303659_"  style="overflow:visible;"/>
					</clipPath>
					<path style="clip-path:url(#SVGID_00000049924089692321171080000017047920126085447830_);fill:#FFFFFF;" d="M139.1,25.4
						l0.7,0.7l-1.5,1.8c-0.2,0.3-0.2,0.6,0.1,0.9c0.4,0.3,0.7,0.2,0.9-0.1l1.4-1.9l0.8,0.6l-1.4,1.9c-0.6,0.9-1.5,0.7-2.2,0.1
						s-1.1-1.3-0.4-2.2L139.1,25.4z M140.6,26.6l-0.9,0.6l0,0l0.4-1L140.6,26.6z"/>
				</g>
			</g>
			<g>
				<g>
					<defs>
						<rect id="SVGID_00000134955021198585510420000010038986632608172425_" x="130.1" y="1.6" width="33.3" height="33.3"/>
					</defs>
					<clipPath id="SVGID_00000023973208580281394370000017182472282408875941_">
						<use xlink:href="#SVGID_00000134955021198585510420000010038986632608172425_"  style="overflow:visible;"/>
					</clipPath>
					<path style="clip-path:url(#SVGID_00000023973208580281394370000017182472282408875941_);fill:#FFFFFF;" d="M142.2,27.7l1,0.4
						l0.5,1.9c0.1,0.4,0.2,0.6,0.2,0.6l0,0c0,0,0.1-0.3,0.2-0.6l0.4-1.5l0.9,0.2l-1,3.6l-1-0.2l-0.6-1.9c-0.1-0.4-0.2-0.6-0.2-0.6
						l0,0c0,0-0.1,0.3-0.2,0.6l-0.5,1.5l-0.9-0.3L142.2,27.7z"/>
				</g>
			</g>
			<g>
				<g>
					<defs>
						<rect id="SVGID_00000039836412555565004900000015248560125979262888_" x="130.1" y="1.6" width="33.3" height="33.3"/>
					</defs>
					<clipPath id="SVGID_00000068639072527090054680000011220542158688962444_">
						<use xlink:href="#SVGID_00000039836412555565004900000015248560125979262888_"  style="overflow:visible;"/>
					</clipPath>
					<path style="clip-path:url(#SVGID_00000068639072527090054680000011220542158688962444_);fill:#FFFFFF;" d="M149.4,30.9
						c0,0.9-0.5,1.5-1.6,1.5c-1,0.1-1.9-0.4-2-1.8c-0.1-1.4,0.8-2,1.7-2.1c1-0.1,1.6,0.5,1.7,1.3l-1,0.1c-0.1-0.3-0.3-0.5-0.7-0.5
						s-0.7,0.4-0.7,1.2c0,0.8,0.4,1.1,0.8,1.1c0.5,0,0.7-0.3,0.7-0.7L149.4,30.9z"/>
				</g>
			</g>
			<g>
				<g>
					<defs>
						<rect id="SVGID_00000174568552750708728580000005973567100908025526_" x="130.1" y="1.6" width="33.3" height="33.3"/>
					</defs>
					<clipPath id="SVGID_00000039846693372288736520000007494182164370467205_">
						<use xlink:href="#SVGID_00000174568552750708728580000005973567100908025526_"  style="overflow:visible;"/>
					</clipPath>
					<polygon style="clip-path:url(#SVGID_00000039846693372288736520000007494182164370467205_);fill:#FFFFFF;" points="
						149.6,28.3 150.5,28 151,29.2 152.2,28.7 151.6,27.5 152.5,27 154.1,30.3 153.2,30.8 152.6,29.5 151.4,30 152,31.4 151,31.7 
											"/>
				</g>
			</g>
			<g>
				<g>
					<defs>
						<rect id="SVGID_00000125593493425868922620000002155090761829548454_" x="130.1" y="1.6" width="33.3" height="33.3"/>
					</defs>
					<clipPath id="SVGID_00000028305699399950692470000007583493830315046546_">
						<use xlink:href="#SVGID_00000125593493425868922620000002155090761829548454_"  style="overflow:visible;"/>
					</clipPath>
					<polygon style="clip-path:url(#SVGID_00000028305699399950692470000007583493830315046546_);fill:#FFFFFF;" points="153,26.6 
						154.8,24.9 155.4,25.4 154.3,26.5 154.7,27 155.8,25.9 156.3,26.5 155.2,27.6 155.7,28.1 156.9,26.9 157.5,27.4 155.5,29.3 
											"/>
				</g>
			</g>
			<g>
				<g>
					<defs>
						<rect id="SVGID_00000168105324596450791090000012145742247038064277_" x="130.1" y="1.6" width="33.3" height="33.3"/>
					</defs>
					<clipPath id="SVGID_00000070102040194128305750000006393844967582077583_">
						<use xlink:href="#SVGID_00000168105324596450791090000012145742247038064277_"  style="overflow:visible;"/>
					</clipPath>
					<path style="clip-path:url(#SVGID_00000070102040194128305750000006393844967582077583_);fill:#FFFFFF;" d="M155.3,24.4
						l0.5-0.9l1.9-0.2c0.4,0,0.6-0.1,0.6-0.1l0,0c0,0-0.3-0.1-0.6-0.3l-1.4-0.6l0.4-0.9l3.4,1.5l-0.4,0.9l-2,0.3
						c-0.4,0.1-0.6,0.1-0.6,0.1l0,0c0,0,0.3,0.1,0.6,0.3l1.4,0.8l-0.5,0.8L155.3,24.4z"/>
				</g>
			</g>
			<g>
				<g>
					<defs>
						<rect id="SVGID_00000182524855330789397290000011534280250204456105_" x="130.1" y="1.6" width="33.3" height="33.3"/>
					</defs>
					<clipPath id="SVGID_00000043442891706238055330000013471504276868021436_">
						<use xlink:href="#SVGID_00000182524855330789397290000011534280250204456105_"  style="overflow:visible;"/>
					</clipPath>
					<polygon style="clip-path:url(#SVGID_00000043442891706238055330000013471504276868021436_);fill:#FFFFFF;" points="
						134.1,12.1 134.8,12.4 134.2,14 134.9,14.3 135.5,12.7 136.2,13 135.7,14.5 137,14.9 136.7,15.9 133.1,14.7 					"/>
				</g>
			</g>
			<g>
				<g>
					<defs>
						<rect id="SVGID_00000072990789565009548480000007226581543974091433_" x="130.1" y="1.6" width="33.3" height="33.3"/>
					</defs>
					<clipPath id="SVGID_00000119808934825247310800000010644847204135702700_">
						<use xlink:href="#SVGID_00000072990789565009548480000007226581543974091433_"  style="overflow:visible;"/>
					</clipPath>
					<path style="clip-path:url(#SVGID_00000119808934825247310800000010644847204135702700_);fill:#FFFFFF;" d="M138.6,9.7
						c0.6,0.6,0.8,1.4,0.1,2.2c-0.6,0.7-1.5,1.1-2.7,0.2c-1.2-0.9-1-1.9-0.4-2.6c0.6-0.8,1.5-0.9,2.1-0.4l-0.6,0.8
						c-0.3-0.2-0.6-0.2-0.9,0.2c-0.3,0.4-0.2,0.8,0.4,1.3c0.6,0.4,1.1,0.4,1.3,0.1c0.3-0.4,0.2-0.6,0-0.9L138.6,9.7z"/>
				</g>
			</g>
			<g>
				<g>
					<defs>
						<rect id="SVGID_00000022546309464357591140000004407896393675508886_" x="130.1" y="1.6" width="33.3" height="33.3"/>
					</defs>
					<clipPath id="SVGID_00000155857592792426502470000007476151696608896384_">
						<use xlink:href="#SVGID_00000022546309464357591140000004407896393675508886_"  style="overflow:visible;"/>
					</clipPath>
					<path style="clip-path:url(#SVGID_00000155857592792426502470000007476151696608896384_);fill:#FFFFFF;" d="M141,5.5
						c0.7-0.3,1.3-0.4,1.6,0.3c0.2,0.5,0.1,0.8-0.2,1l0,0c0.3-0.1,0.7-0.1,1,0.6s-0.2,1.2-0.8,1.5l-1.4,0.6l-1.7-3.3L141,5.5z
						 M141.6,6.8c0.3-0.1,0.3-0.2,0.2-0.5c-0.1-0.2-0.3-0.3-0.5-0.1l-0.6,0.3l0.3,0.6L141.6,6.8z M142.2,8.2
						c0.3-0.1,0.4-0.2,0.2-0.5c-0.1-0.3-0.3-0.3-0.6-0.1l-0.5,0.2l0.3,0.7L142.2,8.2z"/>
				</g>
			</g>
			<g>
				<g>
					<defs>
						<rect id="SVGID_00000179605342776411659780000016598037232212911538_" x="130.1" y="1.6" width="33.3" height="33.3"/>
					</defs>
					<clipPath id="SVGID_00000061440882065722221330000016536932609341471150_">
						<use xlink:href="#SVGID_00000179605342776411659780000016598037232212911538_"  style="overflow:visible;"/>
					</clipPath>
					<path style="clip-path:url(#SVGID_00000061440882065722221330000016536932609341471150_);fill:#FFFFFF;" d="M147.8,7.9h-1.1
						l-0.3-0.7l-1.3,0.1L145,8l-1,0.2l1-3.9l1.1-0.1L147.8,7.9z M146.1,6.5l-0.3-0.7c-0.1-0.2-0.2-0.5-0.2-0.5l0,0
						c0,0,0,0.2-0.1,0.5l-0.2,0.8L146.1,6.5z"/>
				</g>
			</g>
			<g>
				<g>
					<defs>
						<rect id="SVGID_00000065040794487997575020000013021980853098901381_" x="130.1" y="1.6" width="33.3" height="33.3"/>
					</defs>
					<clipPath id="SVGID_00000122714054482393994550000002823398128676442032_">
						<use xlink:href="#SVGID_00000065040794487997575020000013021980853098901381_"  style="overflow:visible;"/>
					</clipPath>
					<path style="clip-path:url(#SVGID_00000122714054482393994550000002823398128676442032_);fill:#FFFFFF;" d="M148.7,6.8
						l-0.9-2.6l1.1,0.2l0.3,1.1c0.1,0.2,0.1,0.4,0.1,0.4l0,0c0,0,0.1-0.2,0.3-0.4l0.8-0.9l1.1,0.3l-1.9,2l-0.3,1.2l-1-0.2L148.7,6.8
						z"/>
				</g>
			</g>
			<g>
				<g>
					<defs>
						<rect id="SVGID_00000163038333776467077080000013157177910919478462_" x="130.1" y="1.6" width="33.3" height="33.3"/>
					</defs>
					<clipPath id="SVGID_00000062153339336101157220000015616224320159795621_">
						<use xlink:href="#SVGID_00000163038333776467077080000013157177910919478462_"  style="overflow:visible;"/>
					</clipPath>
					<polygon style="clip-path:url(#SVGID_00000062153339336101157220000015616224320159795621_);fill:#FFFFFF;" points="152.3,5.3 
						154.7,6.6 154.3,7.3 152.8,6.5 152.5,7 153.9,7.8 153.5,8.5 152.2,7.7 151.9,8.4 153.3,9.1 152.9,9.8 150.7,8.6 					"/>
				</g>
			</g>
			<g>
				<g>
					<defs>
						<rect id="SVGID_00000166671707789169674150000011268898304563065255_" x="130.1" y="1.6" width="33.3" height="33.3"/>
					</defs>
					<clipPath id="SVGID_00000152976235564205146130000000216121530037209483_">
						<use xlink:href="#SVGID_00000166671707789169674150000011268898304563065255_"  style="overflow:visible;"/>
					</clipPath>
					<path style="clip-path:url(#SVGID_00000152976235564205146130000000216121530037209483_);fill:#FFFFFF;" d="M156,7.6l1.1,1.2
						c0.6,0.6,0.7,1.2,0,1.8c-0.4,0.4-0.8,0.5-1.2,0.3l-0.6,1.5l-0.7-0.9l0.5-1.2l-0.3-0.3l-0.9,0.9l-0.7-0.7L156,7.6z M155.5,9.5
						l0.4,0.4c0.2,0.2,0.4,0.2,0.6,0c0.2-0.2,0.2-0.4,0-0.6l-0.4-0.4L155.5,9.5z"/>
				</g>
			</g>
			<g>
				<g>
					<defs>
						<rect id="SVGID_00000129912297653215932860000004877357040532323731_" x="130.1" y="1.6" width="33.3" height="33.3"/>
					</defs>
					<clipPath id="SVGID_00000079487651536700992080000000285167637505536929_">
						<use xlink:href="#SVGID_00000129912297653215932860000004877357040532323731_"  style="overflow:visible;"/>
					</clipPath>
					<path style="clip-path:url(#SVGID_00000079487651536700992080000000285167637505536929_);fill:#FFFFFF;" d="M156.9,15.9l-0.3-1
						l1.1-1.6c0.2-0.3,0.4-0.5,0.4-0.5l0,0c0,0-0.3,0.1-0.6,0.3l-1.4,0.6l-0.4-0.9l3.4-1.5l0.4,0.9l-1.1,1.7
						c-0.2,0.3-0.4,0.5-0.4,0.5l0,0c0,0,0.3-0.1,0.6-0.2l1.5-0.6l0.3,0.9L156.9,15.9z"/>
				</g>
			</g>
		</g>
	</g>
</g>
</svg>
