<?xml version="1.0" encoding="UTF-8"?>
<svg id="Ebene_3" data-name="Ebene 3" xmlns="http://www.w3.org/2000/svg" xmlns:xlink="http://www.w3.org/1999/xlink" viewBox="0 0 273.77 61.43">
  <defs>
    <style>
      .cls-1 {
        fill: none;
      }

      .cls-2 {
        clip-path: url(#clippath);
      }

      .cls-3 {
        fill: #0079c1;
      }

      .cls-4 {
        fill: #ee2c3d;
      }

      .cls-5 {
        fill: #ee3028;
      }

      .cls-6 {
        fill: #fff;
      }

      .cls-7 {
        fill: #212527;
      }

      .cls-8 {
        clip-path: url(#clippath-1);
      }

      .cls-9 {
        clip-path: url(#clippath-4);
      }

      .cls-10 {
        clip-path: url(#clippath-3);
      }

      .cls-11 {
        clip-path: url(#clippath-2);
      }

      .cls-12 {
        clip-path: url(#clippath-7);
      }

      .cls-13 {
        clip-path: url(#clippath-8);
      }

      .cls-14 {
        clip-path: url(#clippath-6);
      }

      .cls-15 {
        clip-path: url(#clippath-5);
      }

      .cls-16 {
        clip-path: url(#clippath-9);
      }

      .cls-17 {
        clip-path: url(#clippath-14);
      }

      .cls-18 {
        clip-path: url(#clippath-13);
      }

      .cls-19 {
        clip-path: url(#clippath-12);
      }

      .cls-20 {
        clip-path: url(#clippath-10);
      }

      .cls-21 {
        clip-path: url(#clippath-15);
      }

      .cls-22 {
        clip-path: url(#clippath-17);
      }

      .cls-23 {
        clip-path: url(#clippath-16);
      }

      .cls-24 {
        clip-path: url(#clippath-11);
      }

      .cls-25 {
        clip-path: url(#clippath-18);
      }
    </style>
    <clipPath id="clippath">
      <rect class="cls-1" x="217.77" y="2.72" width="55.99" height="55.99"/>
    </clipPath>
    <clipPath id="clippath-1">
      <rect class="cls-1" x="217.77" y="2.72" width="55.99" height="55.99"/>
    </clipPath>
    <clipPath id="clippath-2">
      <rect class="cls-1" x="217.77" y="2.72" width="55.99" height="55.99"/>
    </clipPath>
    <clipPath id="clippath-3">
      <rect class="cls-1" x="231.2" y="16.15" width="29.13" height="29.13"/>
    </clipPath>
    <clipPath id="clippath-4">
      <rect class="cls-1" x="217.77" y="2.72" width="55.99" height="55.99"/>
    </clipPath>
    <clipPath id="clippath-5">
      <rect class="cls-1" x="217.77" y="2.72" width="55.99" height="55.99"/>
    </clipPath>
    <clipPath id="clippath-6">
      <rect class="cls-1" x="217.77" y="2.72" width="55.99" height="55.99"/>
    </clipPath>
    <clipPath id="clippath-7">
      <rect class="cls-1" x="217.77" y="2.72" width="55.99" height="55.99"/>
    </clipPath>
    <clipPath id="clippath-8">
      <rect class="cls-1" x="217.77" y="2.72" width="55.99" height="55.99"/>
    </clipPath>
    <clipPath id="clippath-9">
      <rect class="cls-1" x="217.77" y="2.72" width="55.99" height="55.99"/>
    </clipPath>
    <clipPath id="clippath-10">
      <rect class="cls-1" x="217.77" y="2.72" width="55.99" height="55.99"/>
    </clipPath>
    <clipPath id="clippath-11">
      <rect class="cls-1" x="217.77" y="2.72" width="55.99" height="55.99"/>
    </clipPath>
    <clipPath id="clippath-12">
      <rect class="cls-1" x="217.77" y="2.72" width="55.99" height="55.99"/>
    </clipPath>
    <clipPath id="clippath-13">
      <rect class="cls-1" x="217.77" y="2.72" width="55.99" height="55.99"/>
    </clipPath>
    <clipPath id="clippath-14">
      <rect class="cls-1" x="217.77" y="2.72" width="55.99" height="55.99"/>
    </clipPath>
    <clipPath id="clippath-15">
      <rect class="cls-1" x="217.77" y="2.72" width="55.99" height="55.99"/>
    </clipPath>
    <clipPath id="clippath-16">
      <rect class="cls-1" x="217.77" y="2.72" width="55.99" height="55.99"/>
    </clipPath>
    <clipPath id="clippath-17">
      <rect class="cls-1" x="217.77" y="2.72" width="55.99" height="55.99"/>
    </clipPath>
    <clipPath id="clippath-18">
      <rect class="cls-1" x="217.77" y="2.72" width="55.99" height="55.99"/>
    </clipPath>
  </defs>
  <rect id="Rectangle_241802" data-name="Rectangle 241802" class="cls-7" x="195.24" width="1.09" height="61.43"/>
  <g>
    <path id="Path_604699" data-name="Path 604699" class="cls-5" d="M75.14,38.26l-1.87,5.73c-.05,.2-.23,.33-.44,.32h-4.52c-.27,0-.35-.15-.3-.39l7.81-22.61c.27-.76,.41-1.57,.39-2.38,0-.14,.1-.26,.24-.27h6.26c.2,0,.27,0,.32,.23l8.86,25.12c0,.2,0,.35-.2,.35h-5.1c-.19,.02-.37-.09-.42-.27l-1.99-5.83-9.05,.03Zm7.54-4.88c-.78-2.58-2.35-7.31-3.09-10.09h0c-.62,2.62-2.04,6.92-3.02,10.09h6.11Z"/>
    <path id="Path_604700" data-name="Path 604700" class="cls-5" d="M92.5,34.82c0-5.59,4.19-10.28,11.35-10.28h1.28v-7.69c0-.14,.1-.26,.24-.27,.02,0,.03,0,.05,0h4.91c.2,0,.24,0,.24,.23v23.17c-.01,.96,.04,1.91,.15,2.86,0,.2,0,.27-.27,.35-2.44,1.01-5.06,1.53-7.7,1.51-5.79,0-10.25-3.29-10.25-9.93m12.63-5.55c-.48-.17-1-.23-1.51-.2-2.87-.21-5.37,1.95-5.59,4.82-.02,.22-.02,.44,0,.65,0,3.87,2.23,5.55,5.2,5.55,.62,.03,1.24-.05,1.84-.23l.06-10.6Z"/>
    <path id="Path_604701" data-name="Path 604701" class="cls-5" d="M132.95,34.55c0,6.14-3.98,10.21-9.62,10.21-6.68,0-9.65-5.05-9.65-10.09,0-5.56,3.71-10.13,9.74-10.13s9.53,4.73,9.53,10.01m-13.76,0c0,3.45,1.61,5.64,4.24,5.64,2.26,0,3.98-1.96,3.98-5.55,0-3.02-1.25-5.59-4.22-5.59-2.26,0-3.99,2.04-3.99,5.5"/>
    <path id="Path_604702" data-name="Path 604702" class="cls-5" d="M141.18,16.64c.3,0,.39,0,.39,.32v8c1.07-.28,2.17-.43,3.27-.42,4.94-.29,9.17,3.48,9.46,8.42,.02,.29,.02,.59,0,.88,0,7.31-5.79,10.91-11.73,10.91-2.08,.02-4.15-.29-6.14-.9-.15-.07-.24-.23-.24-.39V16.86c0-.2,.08-.27,.27-.27l4.7,.06Zm2.7,12.51c-.78-.01-1.56,.1-2.31,.32v10.55c.5,.11,1,.16,1.51,.15,2.97,.17,5.51-2.1,5.68-5.06,.02-.27,.01-.53-.01-.8,0-3.56-2.08-5.2-4.81-5.2"/>
    <path id="Path_604703" data-name="Path 604703" class="cls-5" d="M161.85,36.08c.2,2.23,1.76,4.07,5.59,4.07,1.65,.03,3.29-.27,4.81-.9,.12-.08,.24,0,.24,.2v3.72c.03,.2-.08,.4-.27,.47-1.89,.85-3.96,1.23-6.03,1.13-7.36,0-9.93-5.05-9.93-9.89,0-5.4,3.32-10.33,9.47-10.33s8.25,4.52,8.25,8.44c.03,.88-.04,1.76-.2,2.62-.01,.17-.15,.3-.32,.32-1.34,.12-2.68,.17-4.03,.15h-7.58Zm5.08-3.8c.65,.05,1.31,.05,1.96,0v-.35c-.09-1.75-1.57-3.09-3.32-3.02-1.93-.02-3.55,1.44-3.72,3.36h5.08Z"/>
    <path id="Path_604704" data-name="Path 604704" class="cls-5" d="M32.28,8.07h18.92V53.37L32.28,8.07Z"/>
    <path id="Path_604705" data-name="Path 604705" class="cls-5" d="M18.93,8.07H0V53.37L18.93,8.07Z"/>
    <path id="Path_604706" data-name="Path 604706" class="cls-5" d="M25.6,24.75l12.06,28.61h-7.9l-3.6-9.12h-8.82l8.26-19.49Z"/>
  </g>
  <g>
    <g>
      <g class="cls-2">
        <path class="cls-3" d="M245.77,2.72c-15.46,0-28,12.53-28,28s12.53,28,28,28,28-12.53,28-28c0-15.47-12.54-28-28-28"/>
      </g>
      <g class="cls-8">
        <path class="cls-6" d="M245.77,4.11c-14.69,0-26.6,11.91-26.6,26.6s11.91,26.6,26.6,26.6,26.6-11.91,26.6-26.6c0-14.69-11.91-26.6-26.6-26.6"/>
      </g>
      <g class="cls-11">
        <path class="cls-4" d="M245.77,5.38c-14,0-25.33,11.35-25.33,25.33s11.35,25.33,25.33,25.33,25.33-11.35,25.33-25.33-11.35-25.33-25.33-25.33m0,41.16c-8.74,0-15.82-7.08-15.82-15.82s7.08-15.82,15.82-15.82,15.82,7.08,15.82,15.82c0,8.74-7.09,15.82-15.82,15.82"/>
      </g>
    </g>
    <g class="cls-10">
      <path class="cls-3" d="M231.85,35.02c.66,2.14,1.78,4.03,3.21,5.57v-6.57l-3.71-5.42c-.3,2.09-.16,4.28,.5,6.42m7.5,5.21v-7.53l-4.25-6.2v-5.69c-.79,.85-1.47,1.79-2.02,2.79l2,2.91v7.52l4.25,6.2v3.54c1.03,.51,2.12,.9,3.25,1.16l-3.22-4.69Zm4.28-8.85l4.25,6.2v7.52l-4.25-6.2v-7.52l-4.25-6.2v-7.52l4.25,6.2v7.52Zm4.28-1.32l-4.25-6.2v-7.52l4.25,6.2v7.52l4.25,6.2v7.52l-4.25-6.2v-7.52Zm-6.44-13.25c-2.17,.67-4.07,1.81-5.62,3.25l3.51,5.13v7.52l4.25,6.2v6.21c2.1,.32,4.31,.18,6.48-.49,2.16-.67,4.07-1.8,5.62-3.25l-3.51-5.13v-7.52l-4.25-6.2v-6.21c-2.1-.32-4.32-.18-6.48,.49m15,18.11v-7.52l-4.25-6.2v-3.54c-1.03-.51-2.12-.9-3.25-1.16l3.22,4.69v7.52l4.25,6.2v5.69c.79-.85,1.46-1.79,2.02-2.79l-2-2.9Zm3.21-8.5c-.66-2.14-1.78-4.03-3.21-5.57v6.57l3.7,5.42c.31-2.09,.17-4.28-.49-6.42"/>
    </g>
    <g>
      <g class="cls-9">
        <path class="cls-6" d="M228.83,35.95l.72,1.53-1.17,2.21c-.18,.33-.33,.6-.33,.6l.02,.03s.31,.02,.68,.05l2.49,.23,.89,1.44-5.38,3.14-.86-1.38,2.25-1.31c.52-.31,.92-.52,.92-.52l-.02-.03s-.28-.02-.84-.1l-2.29-.35-.02-.03,.97-2.11c.24-.52,.38-.76,.38-.76l-.02-.03s-.4,.22-.94,.49l-2.33,1.18-.69-1.47,5.57-2.81Z"/>
      </g>
      <g class="cls-15">
        <path class="cls-6" d="M232.95,42.74l1.24,1.11-2.49,2.96c-.4,.49-.39,1.01,.23,1.49,.62,.48,1.13,.39,1.51-.13l2.3-3.12,1.36,.95-2.36,3.19c-1.08,1.46-2.48,1.18-3.69,.23-1.21-.96-1.82-2.25-.65-3.64l2.55-3.03Zm2.48,2.01l-1.53,1.08-.03-.02,.68-1.74,.88,.68Z"/>
      </g>
      <g class="cls-14">
        <path class="cls-6" d="M238.06,46.54l1.62,.59,.92,3.13c.2,.67,.28,1.04,.28,1.04h.05s.11-.45,.26-1.03l.66-2.49,1.58,.38-1.61,6.03-1.68-.4-1.05-3.27c-.21-.63-.29-1.04-.29-1.04l-.05-.02s-.14,.49-.32,1.02l-.85,2.54-1.52-.56,2-5.91Z"/>
      </g>
      <g class="cls-12">
        <path class="cls-6" d="M250.19,51.95c.04,1.48-.89,2.49-2.66,2.61-1.65,.11-3.2-.64-3.29-3.05-.09-2.44,1.26-3.36,2.84-3.47,1.72-.12,2.71,.84,2.88,2.14l-1.67,.11c-.15-.56-.45-.9-1.2-.85-.69,.05-1.17,.68-1.12,1.94,.06,1.31,.6,1.82,1.37,1.77,.77-.05,1.11-.42,1.15-1.1l1.68-.1Z"/>
      </g>
      <g class="cls-13">
        <polygon class="cls-6" points="250.56 47.63 252.1 47.04 252.98 49.14 254.92 48.26 253.9 46.22 255.37 45.44 258.14 51.03 256.67 51.81 255.57 49.59 253.55 50.51 254.51 52.79 252.96 53.39 250.56 47.64 250.56 47.63"/>
      </g>
      <g class="cls-16">
        <polygon class="cls-6" points="256.35 44.71 259.33 41.85 260.29 42.79 258.42 44.59 259.13 45.38 260.95 43.64 261.88 44.56 260.01 46.36 260.79 47.23 262.9 45.2 263.86 46.15 260.52 49.35 256.35 44.71"/>
      </g>
      <g class="cls-20">
        <path class="cls-6" d="M260.08,40.96l.86-1.49,3.24-.38c.7-.08,1.07-.1,1.07-.1l.02-.04s-.44-.19-.98-.43l-2.34-1.08,.63-1.5,5.66,2.61-.68,1.58-3.4,.47c-.66,.09-1.07,.11-1.07,.11l-.02,.05s.45,.22,.95,.48l2.35,1.26-.81,1.41-5.48-2.96Z"/>
      </g>
      <g class="cls-24">
        <polygon class="cls-6" points="224.43 20.33 225.68 20.82 224.68 23.59 225.85 23.99 226.79 21.39 228 21.87 227.09 24.39 229.28 25.1 228.81 26.69 222.84 24.75 224.43 20.33"/>
      </g>
      <g class="cls-19">
        <path class="cls-6" d="M232.06,16.22c1.08,.98,1.26,2.31,.19,3.67-.99,1.24-2.5,1.85-4.46,.4-1.94-1.44-1.68-3.14-.65-4.43,1.09-1.37,2.47-1.49,3.56-.73l-1.04,1.31c-.5-.29-.98-.26-1.45,.35-.47,.6-.37,1.34,.68,2.12,1.01,.75,1.79,.72,2.22,.17,.46-.59,.38-1.07-.08-1.54l1.04-1.31Z"/>
      </g>
      <g class="cls-18">
        <path class="cls-6" d="M236.16,9.16c1.11-.5,2.18-.62,2.66,.5,.4,.92,.14,1.32-.34,1.73l.02,.04c.51-.12,1.21-.1,1.64,.93,.52,1.23-.28,1.96-1.38,2.46l-2.33,1.08-2.8-5.57,2.53-1.17Zm.94,2.26c.43-.2,.55-.4,.39-.82-.17-.4-.45-.43-.87-.24l-.93,.43,.52,1.04,.89-.41Zm1.06,2.27c.47-.22,.6-.4,.4-.88-.19-.44-.51-.45-1-.24l-.8,.38,.56,1.13,.83-.39Z"/>
      </g>
      <g class="cls-17">
        <path class="cls-6" d="M247.5,13.26h-1.77l-.5-1.12-2.14,.19-.31,1.19-1.74,.31,1.73-6.52,1.93-.17,2.81,6.12Zm-2.76-2.32l-.53-1.21c-.19-.41-.33-.78-.33-.78h-.03s-.08,.39-.19,.82l-.32,1.28,1.39-.11Z"/>
      </g>
      <g class="cls-21">
        <path class="cls-6" d="M249.08,11.43l-1.44-4.42,1.87,.36,.56,1.88c.11,.36,.2,.74,.2,.74h.03s.25-.31,.48-.59l1.29-1.47,1.85,.45-3.15,3.43-.47,2.06-1.63-.36,.41-2.07Z"/>
      </g>
      <g class="cls-23">
        <polygon class="cls-6" points="255.17 8.9 259.1 11.07 258.41 12.22 255.98 10.89 255.5 11.84 257.74 13.07 257.07 14.2 254.91 13.01 254.37 14.05 256.73 15.34 256.05 16.5 252.34 14.46 255.17 8.9"/>
      </g>
      <g class="cls-22">
        <path class="cls-6" d="M261.27,12.75l1.91,2.03c.98,1.05,1.21,2.04,.05,3.06-.74,.65-1.28,.83-1.94,.57l-1,2.51-1.18-1.44,.91-2.05-.54-.58-1.46,1.46-1.21-1.15,4.45-4.42Zm-.86,3.19l.64,.69c.36,.39,.66,.4,1.06,.04,.4-.35,.39-.68,.03-1.06l-.68-.72-1.05,1.05Z"/>
      </g>
      <g class="cls-25">
        <path class="cls-6" d="M262.84,26.67l-.57-1.63,1.84-2.69c.4-.57,.62-.87,.62-.87l-.02-.05s-.42,.21-.97,.45l-2.35,1.06-.71-1.46,5.68-2.57,.75,1.55-1.87,2.87c-.36,.55-.62,.88-.62,.88l.02,.05s.46-.2,.99-.4l2.5-.95,.53,1.54-5.82,2.21Z"/>
      </g>
    </g>
  </g>
</svg>
