<svg xmlns="http://www.w3.org/2000/svg" width="206.13" height="36.53" viewBox="0 0 206.13 36.53">
  <g id="Artboard_2_copy" data-name="Artboard 2 copy" transform="translate(-74.64 -29.83)">
    <rect id="Rectangle_241802" data-name="Rectangle 241802" width="0.65" height="36.53" transform="translate(202.69 29.83)" fill="#2c2c2c"/>
    <path id="Path_604695" data-name="Path 604695" d="M276.63,33.47a3.52,3.52,0,0,0-2.5-1H219.86A3.55,3.55,0,0,0,216.32,36V60.23a3.53,3.53,0,0,0,3.54,3.53h54.27a3.53,3.53,0,0,0,3.53-3.53V36a3.51,3.51,0,0,0-1-2.49" fill="#fff"/>
    <path id="Path_604696" data-name="Path 604696" d="M276.63,33.47a3.52,3.52,0,0,0-2.5-1H259L267.69,47l.79.1.47.66v.64l.57.09.49.7v.6l.56.1s.57.6.57.63v1.36a9.58,9.58,0,0,0,2.33,1.57c.76.29.86,1.53,1.29,2.19.6.93,1.4,1.33,1.23,1.86-.39,1.43-1.86,3.82-3.22,4h-5.39v2.3h6.73a3.53,3.53,0,0,0,3.53-3.53V36a3.51,3.51,0,0,0-1-2.49" fill="#bc0022"/>
    <path id="Path_604697" data-name="Path 604697" d="M253.78,32.43H219.86A3.53,3.53,0,0,0,216.33,36V60.23a3.52,3.52,0,0,0,3.53,3.53h22c-.56-.92-1.18-2-1.37-2.28H237.9c0-6.52,2.23-10.14,4.85-10.84.37-.07.2-1.87-.26-2.4a11.84,11.84,0,0,1-1.53,0c-.34-.1-.1-.43-.1-.43l1.23-2.66-.17-.73h-4.56c-.06,0,3.76-2.63,3.76-2.63.19-6.92,7.28-7.45,11.57-4.6,2.52,1.7,2.73,5,2.53,7.35,0,.13-.67,0-.67,0s-.43,2.53.7,2.53h5a7.65,7.65,0,0,1,4,1.29l.5-1.73ZM223.62,58.77a2.42,2.42,0,1,1,1.721-.709,2.43,2.43,0,0,1-1.721.709" fill="#041e42"/>
    <path id="Path_604698" data-name="Path 604698" d="M279.34,61.21a1.12,1.12,0,1,1-1.12,1.12,1.1,1.1,0,0,1,1.12-1.12m0,2.55a1.43,1.43,0,1,0-1.43-1.43,1.41,1.41,0,0,0,1.43,1.43m.29-1.28A.4.4,0,0,0,280,62c0-.39-.24-.45-.58-.45h-.72v1.49h.31v-.59h.26l.35.59H280Zm-.58-.27v-.36h.34c.15,0,.35,0,.35.16s-.11.2-.27.2Z" fill="#bc0022"/>
    <path id="Path_604699" data-name="Path 604699" d="M124.48,53.2,123.24,57a.28.28,0,0,1-.29.21h-3c-.18,0-.23-.1-.2-.26l5.18-15a4.43,4.43,0,0,0,.26-1.58.18.18,0,0,1,.16-.18h4.15c.13,0,.18,0,.21.15L135.59,57c0,.13,0,.23-.13.23h-3.38a.26.26,0,0,1-.28-.18l-1.32-3.87Zm5-3.24c-.52-1.71-1.56-4.85-2.05-6.69h0c-.41,1.74-1.35,4.59-2,6.69Z" fill="#e81d25"/>
    <path id="Path_604700" data-name="Path 604700" d="M136,50.92c0-3.71,2.78-6.82,7.53-6.82h.85V39a.17.17,0,0,1,.19-.18h3.26c.13,0,.16,0,.16.15V54.34a14.353,14.353,0,0,0,.1,1.9c0,.13,0,.18-.18.23a13.07,13.07,0,0,1-5.11,1c-3.84,0-6.8-2.18-6.8-6.59m8.38-3.68a2.54,2.54,0,0,0-1-.13,3.46,3.46,0,0,0-3.71,3.63c0,2.57,1.48,3.68,3.45,3.68a3.62,3.62,0,0,0,1.22-.15Z" fill="#e81d25"/>
    <path id="Path_604701" data-name="Path 604701" d="M162.83,50.74c0,4.07-2.64,6.77-6.38,6.77-4.43,0-6.4-3.35-6.4-6.69,0-3.69,2.46-6.72,6.46-6.72,4.17,0,6.32,3.14,6.32,6.64m-9.13,0c0,2.29,1.07,3.74,2.81,3.74,1.5,0,2.64-1.3,2.64-3.68,0-2-.83-3.71-2.8-3.71-1.5,0-2.65,1.35-2.65,3.65" fill="#e81d25"/>
    <path id="Path_604702" data-name="Path 604702" d="M168.29,38.86c.2,0,.26,0,.26.21v5.31a8.37,8.37,0,0,1,2.17-.28A5.94,5.94,0,0,1,177,50.27c0,4.85-3.84,7.24-7.78,7.24a13.38,13.38,0,0,1-4.07-.6.29.29,0,0,1-.16-.26V39c0-.13.05-.18.18-.18Zm1.79,8.3a5.13,5.13,0,0,0-1.53.21v7a4.41,4.41,0,0,0,1,.1,3.57,3.57,0,0,0,3.76-3.89c0-2.36-1.38-3.45-3.19-3.45" fill="#e81d25"/>
    <path id="Path_604703" data-name="Path 604703" d="M182,51.75c.13,1.48,1.17,2.7,3.71,2.7a7.92,7.92,0,0,0,3.19-.6c.08-.05.16,0,.16.13v2.47a.28.28,0,0,1-.18.31,8.76,8.76,0,0,1-4,.75c-4.88,0-6.59-3.35-6.59-6.56,0-3.58,2.2-6.85,6.28-6.85,3.91,0,5.47,3,5.47,5.6a8.241,8.241,0,0,1-.13,1.74.23.23,0,0,1-.21.21,24.82,24.82,0,0,1-2.67.1Zm3.37-2.52a8,8,0,0,0,1.3,0V49a2.11,2.11,0,0,0-2.2-2A2.45,2.45,0,0,0,182,49.23Z" fill="#e81d25"/>
    <path id="Path_604704" data-name="Path 604704" d="M96.05,33.17H108.6V63.22Z" fill="#e81d25"/>
    <path id="Path_604705" data-name="Path 604705" d="M87.2,33.17H74.64V63.22Z" fill="#e81d25"/>
    <path id="Path_604706" data-name="Path 604706" d="M91.62,44.24l8,18.98H94.38l-2.39-6.05H86.14Z" fill="#e81d25"/>
  </g>
</svg>
