<?xml version="1.0" encoding="utf-8"?>
<!-- Generator: Adobe Illustrator 26.4.0, SVG Export Plug-In . SVG Version: 6.00 Build 0)  -->
<svg version="1.1" id="Layer_1" xmlns="http://www.w3.org/2000/svg" xmlns:xlink="http://www.w3.org/1999/xlink" x="0px" y="0px"
	 viewBox="0 0 233.68 113.39" style="enable-background:new 0 0 233.68 113.39;" xml:space="preserve">
<style type="text/css">
	.st0{fill:none;stroke:#16191B;stroke-width:1.203;}
	.st1{clip-path:url(#SVGID_00000161616444129577872690000000204211008578637726_);fill:#0071BB;}
	.st2{clip-path:url(#SVGID_00000161616444129577872690000000204211008578637726_);fill:#FFFFFF;}
	.st3{clip-path:url(#SVGID_00000161616444129577872690000000204211008578637726_);fill:#E01E3B;}
	.st4{clip-path:url(#SVGID_00000090262227319294593810000002633733203520390558_);fill:#0071BB;}
	.st5{clip-path:url(#SVGID_00000019673136341167221610000008559666297180743042_);fill:#FFFFFF;}
	.st6{clip-path:url(#SVGID_00000137823572671381010910000014754165932570971063_);fill:#EE2724;}
	.st7{clip-path:url(#SVGID_00000137823572671381010910000014754165932570971063_);}
	.st8{clip-path:url(#SVGID_00000100344153776052671260000004997107895118145457_);fill:#EE2724;}
</style>
<g>
	<line class="st0" x1="116.81" y1="81.5" x2="116.81" y2="31.89"/>
	<g>
		<defs>
			<rect id="SVGID_1_" x="138.07" y="28.35" width="56.69" height="56.69"/>
		</defs>
		<clipPath id="SVGID_00000010280290013774961830000009810276388622256025_">
			<use xlink:href="#SVGID_1_"  style="overflow:visible;"/>
		</clipPath>
		<path style="clip-path:url(#SVGID_00000010280290013774961830000009810276388622256025_);fill:#0071BB;" d="M166.42,28.35
			c-15.65,0-28.35,12.69-28.35,28.35c0,15.65,12.69,28.35,28.35,28.35c15.66,0,28.35-12.69,28.35-28.35
			C194.76,41.04,182.07,28.35,166.42,28.35"/>
		<path style="clip-path:url(#SVGID_00000010280290013774961830000009810276388622256025_);fill:#FFFFFF;" d="M166.42,29.76
			c-14.87,0-26.93,12.06-26.93,26.93c0,14.87,12.06,26.93,26.93,26.93c14.87,0,26.93-12.06,26.93-26.93
			C193.34,41.82,181.29,29.76,166.42,29.76"/>
		<path style="clip-path:url(#SVGID_00000010280290013774961830000009810276388622256025_);fill:#E01E3B;" d="M166.42,31.04
			c-14.17,0-25.65,11.49-25.65,25.65s11.49,25.65,25.65,25.65s25.65-11.49,25.65-25.65S180.58,31.04,166.42,31.04 M166.42,72.71
			c-8.85,0-16.02-7.17-16.02-16.02c0-8.85,7.17-16.02,16.02-16.02c8.85,0,16.02,7.17,16.02,16.02
			C182.43,65.54,175.26,72.71,166.42,72.71"/>
	</g>
	<g>
		<defs>
			<rect id="SVGID_00000023256821360548453020000002863566851244582553_" x="151.67" y="41.95" width="29.49" height="29.49"/>
		</defs>
		<clipPath id="SVGID_00000165193560286823491730000006031617574232994466_">
			<use xlink:href="#SVGID_00000023256821360548453020000002863566851244582553_"  style="overflow:visible;"/>
		</clipPath>
		<path style="clip-path:url(#SVGID_00000165193560286823491730000006031617574232994466_);fill:#0071BB;" d="M152.33,61.05
			c0.67,2.17,1.8,4.08,3.25,5.64v-6.65l-3.76-5.49C151.52,56.67,151.66,58.88,152.33,61.05 M159.92,66.32V58.7l-4.3-6.28v-5.76
			c-0.8,0.86-1.49,1.81-2.05,2.82l2.02,2.95v7.61l4.3,6.28v3.58c1.04,0.52,2.15,0.91,3.29,1.17L159.92,66.32z M164.25,57.36
			l4.3,6.28v7.61l-4.3-6.28V57.36l-4.3-6.28v-7.61l4.3,6.28V57.36z M168.58,56.02l-4.3-6.28v-7.61l4.3,6.28V56.02l4.3,6.28v7.61
			l-4.3-6.28V56.02z M162.06,42.61c-2.2,0.68-4.12,1.83-5.69,3.29l3.55,5.19v7.61l4.3,6.28v6.29c2.13,0.32,4.36,0.18,6.56-0.5
			c2.19-0.68,4.12-1.82,5.69-3.29l-3.55-5.19v-7.61l-4.3-6.28v-6.29C166.49,41.79,164.25,41.93,162.06,42.61 M177.25,60.95v-7.61
			l-4.3-6.28v-3.58c-1.04-0.52-2.15-0.91-3.29-1.17l3.26,4.75v7.61l4.3,6.28v5.76c0.8-0.86,1.48-1.81,2.05-2.82L177.25,60.95z
			 M180.5,52.34c-0.67-2.17-1.8-4.08-3.25-5.64v6.65l3.75,5.49C181.31,56.72,181.17,54.51,180.5,52.34"/>
	</g>
	<g>
		<defs>
			<rect id="SVGID_00000105404782826356251430000000788247216899489691_" x="138.07" y="28.35" width="56.69" height="56.69"/>
		</defs>
		<clipPath id="SVGID_00000138572096732950615700000013465411905413085882_">
			<use xlink:href="#SVGID_00000105404782826356251430000000788247216899489691_"  style="overflow:visible;"/>
		</clipPath>
		<path style="clip-path:url(#SVGID_00000138572096732950615700000013465411905413085882_);fill:#FFFFFF;" d="M149.27,61.99
			l0.73,1.55l-1.18,2.24c-0.18,0.33-0.33,0.61-0.33,0.61l0.02,0.03c0,0,0.31,0.02,0.69,0.05l2.52,0.23l0.9,1.46l-5.45,3.18
			l-0.87-1.4l2.28-1.33c0.53-0.31,0.93-0.53,0.93-0.53l-0.02-0.03c0,0-0.28-0.02-0.85-0.1l-2.32-0.35l-0.02-0.03l0.98-2.14
			c0.24-0.53,0.38-0.77,0.38-0.77l-0.02-0.03c0,0-0.4,0.22-0.95,0.5l-2.36,1.19l-0.7-1.49L149.27,61.99z"/>
		<path style="clip-path:url(#SVGID_00000138572096732950615700000013465411905413085882_);fill:#FFFFFF;" d="M153.44,68.87
			l1.26,1.12l-2.52,3c-0.41,0.5-0.39,1.02,0.23,1.51c0.63,0.49,1.14,0.39,1.53-0.13l2.33-3.16l1.38,0.96l-2.39,3.23
			c-1.09,1.48-2.51,1.19-3.74,0.23c-1.23-0.97-1.84-2.28-0.66-3.69L153.44,68.87z M155.95,70.91L154.4,72l-0.03-0.02l0.69-1.76
			L155.95,70.91z"/>
		<path style="clip-path:url(#SVGID_00000138572096732950615700000013465411905413085882_);fill:#FFFFFF;" d="M158.61,72.72
			l1.64,0.6l0.93,3.17c0.2,0.68,0.28,1.05,0.28,1.05l0.05,0.01c0,0,0.11-0.47,0.26-1.05l0.67-2.52l1.6,0.38l-1.63,6.1l-1.7-0.41
			l-1.06-3.31c-0.21-0.64-0.29-1.05-0.29-1.05l-0.05-0.02c0,0-0.14,0.5-0.32,1.03l-0.86,2.57l-1.54-0.57L158.61,72.72z"/>
		<path style="clip-path:url(#SVGID_00000138572096732950615700000013465411905413085882_);fill:#FFFFFF;" d="M170.89,78.19
			c0.04,1.5-0.9,2.52-2.69,2.64c-1.67,0.11-3.24-0.65-3.33-3.09c-0.09-2.47,1.28-3.4,2.88-3.51c1.74-0.12,2.74,0.85,2.92,2.17
			l-1.69,0.11c-0.15-0.57-0.46-0.91-1.21-0.86c-0.7,0.05-1.18,0.69-1.13,1.96c0.06,1.33,0.61,1.84,1.39,1.79
			c0.78-0.05,1.12-0.43,1.16-1.11L170.89,78.19z"/>
		<polygon style="clip-path:url(#SVGID_00000138572096732950615700000013465411905413085882_);fill:#FFFFFF;" points="171.27,73.82 
			172.83,73.22 173.72,75.35 175.68,74.46 174.65,72.39 176.14,71.6 178.94,77.26 177.45,78.05 176.34,75.8 174.3,76.73 
			175.27,79.04 173.7,79.65 171.27,73.83 		"/>
		<polygon style="clip-path:url(#SVGID_00000138572096732950615700000013465411905413085882_);fill:#FFFFFF;" points="177.13,70.86 
			180.15,67.97 181.12,68.92 179.23,70.74 179.95,71.54 181.79,69.78 182.73,70.71 180.84,72.53 181.63,73.41 183.76,71.36 
			184.73,72.32 181.35,75.56 		"/>
		<path style="clip-path:url(#SVGID_00000138572096732950615700000013465411905413085882_);fill:#FFFFFF;" d="M180.91,67.07
			l0.87-1.51l3.28-0.38c0.71-0.08,1.08-0.1,1.08-0.1l0.02-0.04c0,0-0.45-0.19-0.99-0.44l-2.37-1.09l0.64-1.52l5.73,2.64l-0.69,1.6
			l-3.44,0.48c-0.67,0.09-1.08,0.11-1.08,0.11l-0.02,0.05c0,0,0.46,0.22,0.96,0.49l2.38,1.28l-0.82,1.43L180.91,67.07z"/>
		<polygon style="clip-path:url(#SVGID_00000138572096732950615700000013465411905413085882_);fill:#FFFFFF;" points="144.81,46.18 
			146.08,46.68 145.07,49.48 146.25,49.88 147.2,47.25 148.43,47.74 147.51,50.29 149.72,51.01 149.25,52.62 143.2,50.65 		"/>
		<path style="clip-path:url(#SVGID_00000138572096732950615700000013465411905413085882_);fill:#FFFFFF;" d="M152.54,42.02
			c1.09,0.99,1.28,2.34,0.19,3.72c-1,1.26-2.53,1.87-4.52,0.4c-1.96-1.46-1.7-3.18-0.66-4.49c1.1-1.39,2.5-1.51,3.6-0.74l-1.05,1.33
			c-0.51-0.29-0.99-0.26-1.47,0.35c-0.48,0.61-0.37,1.36,0.69,2.15c1.02,0.76,1.81,0.73,2.25,0.17c0.47-0.6,0.38-1.08-0.08-1.56
			L152.54,42.02z"/>
		<path style="clip-path:url(#SVGID_00000138572096732950615700000013465411905413085882_);fill:#FFFFFF;" d="M156.69,34.87
			c1.12-0.51,2.21-0.63,2.69,0.51c0.4,0.93,0.14,1.34-0.34,1.75l0.02,0.04c0.52-0.12,1.22-0.1,1.66,0.94
			c0.53,1.25-0.28,1.98-1.4,2.49l-2.36,1.09l-2.83-5.64L156.69,34.87z M157.64,37.16c0.44-0.2,0.56-0.41,0.39-0.83
			c-0.17-0.41-0.46-0.44-0.88-0.24l-0.94,0.44l0.53,1.05L157.64,37.16z M158.71,39.46c0.48-0.22,0.61-0.41,0.41-0.89
			c-0.19-0.45-0.52-0.46-1.01-0.24l-0.81,0.38l0.57,1.14L158.71,39.46z"/>
		<path style="clip-path:url(#SVGID_00000138572096732950615700000013465411905413085882_);fill:#FFFFFF;" d="M168.17,39.02l-1.79,0
			l-0.51-1.13l-2.17,0.19l-0.31,1.2l-1.76,0.31l1.75-6.6l1.95-0.17L168.17,39.02z M165.38,36.67l-0.54-1.23
			c-0.19-0.42-0.33-0.79-0.33-0.79l-0.03,0c0,0-0.08,0.39-0.19,0.83l-0.32,1.3L165.38,36.67z"/>
		<path style="clip-path:url(#SVGID_00000138572096732950615700000013465411905413085882_);fill:#FFFFFF;" d="M169.77,37.17
			l-1.46-4.48l1.89,0.36l0.57,1.9c0.11,0.36,0.2,0.75,0.2,0.75L171,35.7c0,0,0.25-0.31,0.49-0.6l1.31-1.49l1.87,0.46l-3.19,3.47
			L171,39.63l-1.65-0.36L169.77,37.17z"/>
		<polygon style="clip-path:url(#SVGID_00000138572096732950615700000013465411905413085882_);fill:#FFFFFF;" points="175.94,34.61 
			179.91,36.8 179.22,37.97 176.76,36.62 176.27,37.58 178.54,38.83 177.86,39.97 175.67,38.77 175.13,39.82 177.52,41.13 
			176.83,42.3 173.07,40.24 		"/>
		<path style="clip-path:url(#SVGID_00000138572096732950615700000013465411905413085882_);fill:#FFFFFF;" d="M182.11,38.5
			l1.93,2.06c0.99,1.06,1.22,2.07,0.05,3.1c-0.75,0.66-1.3,0.84-1.96,0.58l-1.01,2.54l-1.19-1.46l0.92-2.08l-0.55-0.59l-1.48,1.48
			l-1.22-1.16L182.11,38.5z M181.24,41.73l0.65,0.7c0.36,0.39,0.67,0.4,1.07,0.04c0.4-0.35,0.39-0.69,0.03-1.07l-0.69-0.73
			L181.24,41.73z"/>
		<path style="clip-path:url(#SVGID_00000138572096732950615700000013465411905413085882_);fill:#FFFFFF;" d="M183.7,52.6
			l-0.58-1.65l1.86-2.72c0.4-0.58,0.63-0.88,0.63-0.88l-0.02-0.05c0,0-0.43,0.21-0.98,0.46l-2.38,1.07l-0.72-1.48l5.75-2.6
			l0.76,1.57l-1.89,2.91c-0.36,0.56-0.63,0.89-0.63,0.89l0.02,0.05c0,0,0.47-0.2,1-0.41l2.53-0.96l0.54,1.56L183.7,52.6z"/>
	</g>
	<g id="Adobe_x5F_Corporate_x5F_Vertical_x5F_Lockup_x5F_Red_x5F_RGB_00000166675417129529476160000017249337601131841196_">
		<g>
			<defs>
				<rect id="SVGID_00000004516377577943342460000014870589674399459981_" x="54.43" y="28.26" width="41.2" height="56.69"/>
			</defs>
			<clipPath id="SVGID_00000032626804278964942430000006049655067233620925_">
				<use xlink:href="#SVGID_00000004516377577943342460000014870589674399459981_"  style="overflow:visible;"/>
			</clipPath>
			<polygon style="clip-path:url(#SVGID_00000032626804278964942430000006049655067233620925_);fill:#EE2724;" points="80.41,28.26 
				95.63,64.7 95.63,28.26 			"/>
			<polygon style="clip-path:url(#SVGID_00000032626804278964942430000006049655067233620925_);fill:#EE2724;" points="54.46,28.26 
				54.46,64.7 69.69,28.26 			"/>
			<polygon style="clip-path:url(#SVGID_00000032626804278964942430000006049655067233620925_);fill:#EE2724;" points="75.05,41.69 
				84.75,64.69 78.4,64.69 75.49,57.37 68.4,57.37 			"/>
			<g style="clip-path:url(#SVGID_00000032626804278964942430000006049655067233620925_);">
				<defs>
					<rect id="SVGID_00000070103937709187708760000009697524614026306234_" x="54.43" y="28.26" width="41.2" height="56.69"/>
				</defs>
				<clipPath id="SVGID_00000125574437100137128230000001691360783171796391_">
					<use xlink:href="#SVGID_00000070103937709187708760000009697524614026306234_"  style="overflow:visible;"/>
				</clipPath>
				<path style="clip-path:url(#SVGID_00000125574437100137128230000001691360783171796391_);fill:#EE2724;" d="M57.34,81.48
					l-0.67,3.17c-0.02,0.12-0.06,0.14-0.16,0.14h-1.93c-0.12,0-0.16-0.04-0.14-0.2l2.66-11.47c0.08-0.35,0.08-0.53,0.08-1.12
					c0-0.08,0.04-0.12,0.12-0.12h2.76c0.1,0,0.14,0.04,0.16,0.14l3.11,12.61c0.02,0.12-0.02,0.16-0.12,0.16h-2.15
					c-0.1,0-0.16-0.06-0.16-0.14l-0.71-3.17H57.34z M59.76,79.31c-0.28-1.48-0.81-3.72-1.02-5.16h-0.02
					c-0.2,1.4-0.59,3.37-0.93,5.16H59.76z"/>
				<path style="clip-path:url(#SVGID_00000125574437100137128230000001691360783171796391_);fill:#EE2724;" d="M63.67,79.86
					c0-2.93,1.72-5.2,4.47-5.2h0.32v-3.45c0-0.06,0.04-0.1,0.12-0.1h2.15c0.08,0,0.1,0.04,0.1,0.1v11.55c0,0.3-0.02,0.7,0.06,1.34
					c0,0.06,0,0.1-0.08,0.14c-0.82,0.42-1.89,0.7-2.91,0.7C65.37,84.95,63.67,83.31,63.67,79.86 M68.46,76.81
					c-0.1-0.04-0.2-0.06-0.44-0.06c-1.12,0-1.97,1.02-1.97,3.03c0,2.13,0.84,3.01,1.95,3.01c0.14,0,0.34-0.02,0.46-0.06V76.81z"/>
				<path style="clip-path:url(#SVGID_00000125574437100137128230000001691360783171796391_);fill:#EE2724;" d="M79.41,79.78
					c0,3.17-1.32,5.18-3.65,5.18c-2.61,0-3.65-2.29-3.65-5.2c0-2.97,1.32-5.1,3.69-5.1C78.07,74.66,79.41,76.55,79.41,79.78
					 M74.46,79.78c0,1.87,0.4,3.09,1.3,3.09c0.86,0,1.28-1.04,1.28-3.07c0-1.89-0.32-3.05-1.26-3.05
					C74.96,76.75,74.46,77.69,74.46,79.78"/>
				<path style="clip-path:url(#SVGID_00000125574437100137128230000001691360783171796391_);fill:#EE2724;" d="M82.94,71.11
					c0.08,0,0.1,0.04,0.1,0.12v3.55c0.28-0.06,0.62-0.12,1.08-0.12c2.09,0,3.67,1.6,3.67,4.71c0,3.63-2.07,5.58-4.65,5.58
					c-0.74,0-1.5-0.1-2.33-0.36c-0.06-0.02-0.12-0.08-0.12-0.16v-13.2c0-0.08,0.04-0.12,0.12-0.12H82.94z M83.77,76.79
					c-0.16,0-0.5,0.02-0.72,0.1v5.92c0.16,0.04,0.3,0.04,0.42,0.04c0.9,0,1.97-0.92,1.99-3.41C85.47,77.49,84.69,76.79,83.77,76.79"
					/>
				<path style="clip-path:url(#SVGID_00000125574437100137128230000001691360783171796391_);fill:#EE2724;" d="M91.05,80.36
					c0,1.54,0.58,2.49,2.21,2.49c0.54,0,0.98-0.08,1.52-0.28c0.1-0.04,0.16-0.04,0.16,0.1v1.66c0,0.14-0.04,0.22-0.14,0.26
					c-0.56,0.3-1.32,0.36-1.99,0.36c-2.95,0-4.09-2.17-4.09-4.99c0-3.01,1.32-5.3,3.67-5.3c2.47,0,3.19,2.19,3.19,3.97
					c0,0.64-0.06,1.26-0.1,1.5c-0.02,0.1-0.08,0.14-0.18,0.16c-0.2,0.02-0.82,0.06-1.91,0.06H91.05z M92.75,78.47
					c0.38,0,0.54,0,0.6-0.02c0.02-0.1,0.02-0.14,0.02-0.22c0-0.76-0.24-1.56-1.06-1.56c-0.8,0-1.12,0.82-1.22,1.81H92.75z"/>
			</g>
		</g>
	</g>
</g>
</svg>
