<svg id="SXmock_IlluImageCrop_44_N" xmlns="http://www.w3.org/2000/svg" width="44" height="44" viewBox="0 0 44 44">
  <g id="SLMOCK">
    <rect id="Canvas" width="44" height="44" fill="rgba(255,19,220,0)"/>
  </g>
  <g id="Illu">
    <circle id="Ellipse_24747" data-name="Ellipse 24747" cx="2.5" cy="2.5" r="2.5" transform="translate(22 10)" fill="#484848"/>
    <path id="Path_127593" data-name="Path 127593" d="M10.559,32H18.5a1.5,1.5,0,0,0,0-3H10.559A5.5,5.5,0,0,1,5,23.566v-.783l6.549-6.549a.721.721,0,0,1,1.035.041l9.045,8.355a1.5,1.5,0,0,0,2.036,0L28.559,20.1a.5.5,0,0,1,.535-.063l3.5,2.642a1.5,1.5,0,0,0,2.4-1.2V11.434A8.506,8.506,0,0,0,26.441,3H10.559A8.506,8.506,0,0,0,2,11.434V23.566A8.506,8.506,0,0,0,10.559,32ZM5,11.434A5.5,5.5,0,0,1,10.559,6H26.441A5.5,5.5,0,0,1,32,11.434v7.042l-1.178-.889A1.273,1.273,0,0,0,30.7,17.5a3.528,3.528,0,0,0-4.111.34l-3.942,3.644-7.984-7.374a3.706,3.706,0,0,0-5.235,0L5,18.542Z" fill="#484848"/>
    <g id="SX_StSolid_18_N" transform="translate(24 26)">
      <g id="ICONS">
        <path id="Path_129031" data-name="Path 129031" d="M14.874,0H3.126A3.137,3.137,0,0,0,0,3.149v10.7A3.137,3.137,0,0,0,3.126,17H14.874A3.137,3.137,0,0,0,18,13.851V3.149A3.137,3.137,0,0,0,14.874,0ZM9.343,11.47a2.428,2.428,0,0,1-1.056.827,4.026,4.026,0,0,1-1.594.29,6.013,6.013,0,0,1-1.226-.115,4.015,4.015,0,0,1-.924-.3.206.206,0,0,1-.1-.2V10.534a.071.071,0,0,1,.03-.066.08.08,0,0,1,.079.006,4.107,4.107,0,0,0,1.075.471,4.151,4.151,0,0,0,1.111.157,1.741,1.741,0,0,0,.984-.211.627.627,0,0,0,.3-.525.71.71,0,0,0-.1-.368,1.044,1.044,0,0,0-.338-.32,3.957,3.957,0,0,0-.664-.326L6.32,9.1a4.492,4.492,0,0,1-1.153-.67,1.93,1.93,0,0,1-.573-.767,2.446,2.446,0,0,1-.157-.881,2.166,2.166,0,0,1,1.29-2.024A3.663,3.663,0,0,1,7.32,4.449a7.564,7.564,0,0,1,1.08.072,2.555,2.555,0,0,1,.8.229.167.167,0,0,1,.085.157V6.272a.083.083,0,0,1-.03.054c-.02.02-.046.018-.079-.006a3.364,3.364,0,0,0-.845-.3,4.553,4.553,0,0,0-1-.109,2.485,2.485,0,0,0-.592.06,1.453,1.453,0,0,0-.392.151.581.581,0,0,0-.224.229.606.606,0,0,0-.073.284.574.574,0,0,0,.109.344,1.192,1.192,0,0,0,.362.3,7.662,7.662,0,0,0,.7.356l.447.169a4.873,4.873,0,0,1,1.246.7,2.12,2.12,0,0,1,.628.8,2.348,2.348,0,0,1,.181.924,2.106,2.106,0,0,1-.381,1.25Zm3.441-.435a.625.625,0,0,0,.513.175q.109,0,.2-.006a1.574,1.574,0,0,0,.193-.018.076.076,0,0,1,.066.006.085.085,0,0,1,.03.078v.99c0,.089-.032.141-.1.157a4.3,4.3,0,0,1-.483.121,3.137,3.137,0,0,1-.58.048,1.751,1.751,0,0,1-1.232-.41,1.711,1.711,0,0,1-.447-1.316V7.85H10.22q-.1,0-.1-.108l.009-1.189c0-.064.036-.1.109-.1h.729c.008-.137.009-.287.021-.468s.028-.362.048-.543.038-.328.054-.441a.212.212,0,0,1,.036-.066A.131.131,0,0,1,11.2,4.9l1.437-.181a.079.079,0,0,1,.06,0c.016.008.024.032.024.073q-.024.278-.036.755c-.008.318-.007.617-.015.914h1.057c.048,0,.073.032.073.1l-.009,1.213a.074.074,0,0,1-.06.084H12.663v2.6a.969.969,0,0,0,.122.586Z" fill="#484848"/>
      </g>
    </g>
  </g>
</svg>
