<svg id="SXmock_FontsCollection_44_N" xmlns="http://www.w3.org/2000/svg" width="45.476" height="44.572" viewBox="0 0 45.476 44.572">
  <g id="ICONS">
    <path id="Path_129477" data-name="Path 129477" d="M35.626,7.041V5.907h-4.1V3.88c.278-.04.418-.135.443-.3l-1.985-.107V5.9h-4.1V6.93H35.57Z" transform="translate(1.444 -3.468)" fill="#444"/>
    <path id="Path_129478" data-name="Path 129478" d="M30.056,14.114h-4.1V15.14h3.827a14.494,14.494,0,0,1-4.235,4.967,5.593,5.593,0,0,1,.963,1.044,16.5,16.5,0,0,0,3.549-4.2V22.83h1.026V17.181a17.267,17.267,0,0,1,3.153,2.632L35.1,18.7c-.559-.491-3.5-2.893-3.5-2.893v-.675h4.1V13.6H31.6V11.635c-.053,0,.091-.09.091-.09h4.526V10.006H32.925a12.727,12.727,0,0,0,1.262-2.7c.251-.023.393-.095.435-.217L32.97,6.566a24.167,24.167,0,0,1-1.186,3.44H29.5a12.958,12.958,0,0,0-1.009-3.374l-1.176.327a15.507,15.507,0,0,1,.934,3.048H25.439v1.539h4.617Z" transform="translate(1.37 -2.949)" fill="#444"/>
    <path id="Path_129479" data-name="Path 129479" d="M33.6,23.57A10.249,10.249,0,0,0,35.472,21.1a12.386,12.386,0,0,0,1.072-2.736,18.2,18.2,0,0,0,.522-5.386v-.934h3.591V23.327H42.2V10.5H37.069V6.86c1.861-.439,5.13-1.651,5.13-1.651V3.643a33.722,33.722,0,0,1-5.6,2.091L35.53,5.385v7.573s-.155,6.9-2.958,9.59A3.247,3.247,0,0,1,33.6,23.57Z" transform="translate(2.566 -3.439)" fill="#444"/>
    <path id="Path_129480" data-name="Path 129480" d="M26.01,21.822a.533.533,0,0,0-.143-.362.97.97,0,0,0-.627-.246c-.117,0-.169,0-.584.242A28.291,28.291,0,0,0,20.628,24.3c-.071,0-.095-.023-.095-.094,0-.266.507-1.64,3.014-6.127a1.783,1.783,0,0,0,.19-.934,1.284,1.284,0,0,0-.265-.844,3.06,3.06,0,0,0-2.484-1.037c-.1,0-2.074.216-4.606,3.063a20,20,0,0,0-2.363,3.135,4.818,4.818,0,0,0-.7,2.243c0,.508.048.584.169.7a5.1,5.1,0,0,0,1.447,1.109,1.834,1.834,0,0,0,.724.144c1.205,0,2.242-1.155,3.328-2.192a.086.086,0,0,1,.072-.025.052.052,0,0,1,.048.048v.048c-2.631,6.072-2.942,5.426-4.776,8.247-1.205,1.858-1.635,2.653-1.635,3.255a2.045,2.045,0,0,0,.072.531c.117.459.8.7,1.254.7a1.511,1.511,0,0,0,1.736-1.012c.29-.534,1.182-2.605,2-4.583,1.231-2.919,3.593-5.089,8.057-8.441a.5.5,0,0,0,.193-.415ZM15.865,23.6a.825.825,0,0,1-.482.117c-.1,0-.29-.095-.29-.19a3.783,3.783,0,0,1,.29-.917,19.382,19.382,0,0,1,3.69-4.655c.337-.313.53-.338,1.012-.723a1.819,1.819,0,0,1,1.11-.507,1.137,1.137,0,0,1,.41.072c.24.1.24.169.24.242,0,.048.048.095.048.142a.327.327,0,0,1-.072.169A22.987,22.987,0,0,1,15.865,23.6Z" transform="translate(-0.767 -1.491)" fill="#444"/>
    <path id="Path_129481" data-name="Path 129481" d="M12.849,25.164l.117-2.411c.023-.314.048-.34.265-.482a2.083,2.083,0,0,1,1.061-.242c.916,0,1.447-.145,1.736-.627a.647.647,0,0,0,.095-.314c0-.074-.022-.117-.142-.265a2.021,2.021,0,0,0-1.471-.458,11.541,11.541,0,0,0-1.254.1c-.144,0-.144-.071-.144-.144,0-.095.242-4.075.53-5.908a5.039,5.039,0,0,0,.074-.8c0-.146.362-2.074.362-2.291,0-.193-.117-.145-.194-.385-.048-.117-.506-.217-.817-.217a15.085,15.085,0,0,0-1.544.29c-.1,0-.145.023-.53.6C8.34,15.59,6.314,18.99,4.433,22.487c-.169.314-.217.337-.29.337-.314,0-.652-.41-1.037-.41a.449.449,0,0,0-.266.1,3.047,3.047,0,0,0-.361,1.327c0,.313.193.433.771.747.1.048.144.1.144.168a10.674,10.674,0,0,0-.314,2.1c0,1.012.145,1.3.676,1.635a1.486,1.486,0,0,0,.458.217c.338,0,.6-.313.917-.531.072-.047.117-.095.117-.142a10.218,10.218,0,0,1-.072-1.35,4.18,4.18,0,0,1,.387-1.689c.117-.265.193-.313.361-.336a39.292,39.292,0,0,0,4.9-1.472c.095,0,.143.023.143.1,0,1.109-.1,2.146-.1,3.232a7.09,7.09,0,0,0,.459,3.063,1.837,1.837,0,0,0,1.231.433.333.333,0,0,0,.265-.095c.193-.145.482-.314.482-.6a5.462,5.462,0,0,1-.476-2.631C12.826,26.318,12.826,25.474,12.849,25.164Zm-1.834-4.058c-.026.194-.048.218-.168.266-.1.048-.724.241-1.616.578a14.244,14.244,0,0,1-2.412.676c-.095,0-.143-.023-.143-.1a2.456,2.456,0,0,1,.29-.627c1.205-2.291,2.508-4.51,4.341-7.452.117-.193.169-.193.217-.193s.071.025.071.385a57.311,57.311,0,0,1-.58,6.462Z" transform="translate(-2.479 -2.252)" fill="#444"/>
    <path id="Path_129482" data-name="Path 129482" d="M27.083,39.485h7.182v-.514h-.847L27.574,25.633h-.959l-5.87,13.338H19.9v.514h4.1v-.514H21.873l1.154-3.078h4.348l1.493,3.078H27.083Zm-3.962-4.1L24.9,29.9l2.325,5.476Z" transform="translate(0.441 0.248)" fill="#444"/>
    <path id="Path_129483" data-name="Path 129483" d="M39.779,30.048a4.69,4.69,0,0,0-2.514-.642c-2.739,0-4.33,1.662-4.33,3.736A3.449,3.449,0,0,0,34.3,35.993a4.27,4.27,0,0,0-1.551,3.078,2.256,2.256,0,0,0,.6,1.662c-.794.3-1.248.817-1.248,1.378,0,1.192,1.361,1.751,4.141,1.751,3.48,0,5.824-1.4,5.824-3.55,0-1.643-1.193-2.322-3.386-2.322H36.5c-1.645,0-2.23-.792-2.042-1.868A4.934,4.934,0,0,0,37.2,36.9c2.61,0,4.179-1.6,4.179-3.737a3.533,3.533,0,0,0-1.361-2.945,11.769,11.769,0,0,1,2.95,1.3l.019-.02V28.406l-.014-.02C41.84,28.97,40.8,29.5,39.779,30.048ZM35.822,41.589h2.041c1.493,0,2.042.225,2.042.66,0,.7-1.153,1.227-2.609,1.227-1.929,0-3.441-.808-3.9-2.569A3.67,3.67,0,0,0,35.822,41.589Zm2.7-5.126c-.567,0-1.284-.6-2.382-2.625a7.319,7.319,0,0,1-1.134-2.983v-.067a.753.753,0,0,1,.741-.764c.584,0,1.247.642,2.363,2.624a7.134,7.134,0,0,1,1.134,2.985C39.243,36.179,38.956,36.462,38.525,36.463Z" transform="translate(2.487 0.71)" fill="#444"/>
  </g>
</svg>
