<?xml version="1.0" encoding="utf-8"?>
<!-- Generator: Adobe Illustrator 26.4.0, SVG Export Plug-In . SVG Version: 6.00 Build 0)  -->
<svg version="1.1" id="Ebene_3" xmlns="http://www.w3.org/2000/svg" xmlns:xlink="http://www.w3.org/1999/xlink" x="0px" y="0px"
	 viewBox="0 0 206 37" style="enable-background:new 0 0 206 37;" xml:space="preserve">
<style type="text/css">
	.st0{fill:#212527;}
	.st1{fill:#EE3028;}
	.st2{clip-path:url(#SVGID_00000056427671083048689380000006193709336520590505_);}
	.st3{fill:#0079C1;}
	.st4{clip-path:url(#SVGID_00000129900992652965382150000006332827288256704152_);}
	.st5{fill:#FFFFFF;}
	.st6{clip-path:url(#SVGID_00000141414006204202721950000016396309804564467126_);}
	.st7{fill:#EE2C3D;}
	.st8{clip-path:url(#SVGID_00000152944438629156500510000007597582698810247838_);}
	.st9{clip-path:url(#SVGID_00000140012669293762794480000015780394218931379856_);}
	.st10{clip-path:url(#SVGID_00000168082886904804019710000005487466714599809965_);}
	.st11{clip-path:url(#SVGID_00000125582818415272958110000010333885454544813226_);}
	.st12{clip-path:url(#SVGID_00000139989094257452503030000014982074502188296856_);}
	.st13{clip-path:url(#SVGID_00000024697054665654248690000002065917732677193124_);}
	.st14{clip-path:url(#SVGID_00000039110371521032040320000006577094671450494342_);}
	.st15{clip-path:url(#SVGID_00000134232223407114276690000013687479848816902330_);}
	.st16{clip-path:url(#SVGID_00000035502148253811229750000017804566402236427170_);}
	.st17{clip-path:url(#SVGID_00000075872360084535099550000008583354102117514416_);}
	.st18{clip-path:url(#SVGID_00000176742822519755354270000005953597936059042468_);}
	.st19{clip-path:url(#SVGID_00000011743757238584564610000008923016305058816435_);}
	.st20{clip-path:url(#SVGID_00000091717628529549121070000007816510329269519807_);}
	.st21{clip-path:url(#SVGID_00000106851879039884309660000013798498673340143018_);}
	.st22{clip-path:url(#SVGID_00000145032276285360751600000014039673756909014432_);}
	.st23{clip-path:url(#SVGID_00000096044874437547641020000012578558830411179915_);}
</style>
<g>
	<rect id="Rectangle_241802" x="138.1" class="st0" width="0.7" height="37"/>
	<g>
		<path id="Path_604699" class="st1" d="M65.8,23l-1.1,3.5c0,0.1-0.1,0.2-0.3,0.2h-2.7c-0.2,0-0.2-0.1-0.2-0.2l4.7-13.6
			c0.2-0.5,0.2-0.9,0.2-1.4c0-0.1,0.1-0.2,0.1-0.2h3.8c0.1,0,0.2,0,0.2,0.1l5.3,15.1c0,0.1,0,0.2-0.1,0.2h-3.1
			c-0.1,0-0.2-0.1-0.3-0.2L71.3,23L65.8,23L65.8,23z M70.3,20.1c-0.5-1.6-1.4-4.4-1.9-6.1l0,0c-0.4,1.6-1.2,4.2-1.8,6.1
			C66.7,20.1,70.3,20.1,70.3,20.1z"/>
		<path id="Path_604700" class="st1" d="M76.3,21c0-3.4,2.5-6.2,6.8-6.2h0.8v-4.6c0-0.1,0.1-0.2,0.1-0.2c0,0,0,0,0,0h3
			c0.1,0,0.1,0,0.1,0.1v14c0,0.6,0,1.2,0.1,1.7c0,0.1,0,0.2-0.2,0.2c-1.5,0.6-3,0.9-4.6,0.9C79,26.9,76.3,24.9,76.3,21 M83.9,17.6
			c-0.3-0.1-0.6-0.1-0.9-0.1c-1.7-0.1-3.2,1.2-3.4,2.9c0,0.1,0,0.3,0,0.4c0,2.3,1.3,3.3,3.1,3.3c0.4,0,0.7,0,1.1-0.1L83.9,17.6
			L83.9,17.6z"/>
		<path id="Path_604701" class="st1" d="M100.6,20.8c0,3.7-2.4,6.1-5.8,6.1c-4,0-5.8-3-5.8-6.1c0-3.3,2.2-6.1,5.9-6.1
			S100.6,17.6,100.6,20.8 M92.3,20.8c0,2.1,1,3.4,2.6,3.4c1.4,0,2.4-1.2,2.4-3.3c0-1.8-0.8-3.4-2.5-3.4
			C93.4,17.5,92.3,18.7,92.3,20.8"/>
		<path id="Path_604702" class="st1" d="M105.6,10c0.2,0,0.2,0,0.2,0.2V15c0.6-0.2,1.3-0.3,2-0.3c3-0.2,5.5,2.1,5.7,5.1
			c0,0.2,0,0.4,0,0.5c0,4.4-3.5,6.6-7.1,6.6c-1.3,0-2.5-0.2-3.7-0.5c-0.1,0-0.1-0.1-0.1-0.2v-16c0-0.1,0-0.2,0.2-0.2L105.6,10
			L105.6,10z M107.2,17.6c-0.5,0-0.9,0.1-1.4,0.2v6.4c0.3,0.1,0.6,0.1,0.9,0.1c1.8,0.1,3.3-1.3,3.4-3c0-0.2,0-0.3,0-0.5
			C110.1,18.5,108.9,17.5,107.2,17.6"/>
		<path id="Path_604703" class="st1" d="M118,21.7c0.1,1.3,1.1,2.5,3.4,2.5c1,0,2-0.2,2.9-0.5c0.1,0,0.1,0,0.1,0.1V26
			c0,0.1,0,0.2-0.2,0.3c-1.1,0.5-2.4,0.7-3.6,0.7c-4.4,0-6-3-6-6c0-3.3,2-6.2,5.7-6.2c3.7,0,5,2.7,5,5.1c0,0.5,0,1.1-0.1,1.6
			c0,0.1-0.1,0.2-0.2,0.2c-0.8,0.1-1.6,0.1-2.4,0.1C122.6,21.7,118,21.7,118,21.7z M121.1,19.4c0.4,0,0.8,0,1.2,0v-0.2
			c-0.1-1.1-0.9-1.9-2-1.8c-1.2,0-2.1,0.9-2.2,2L121.1,19.4L121.1,19.4z"/>
		<path id="Path_604704" class="st1" d="M40,4.9h11.4v27.3L40,4.9z"/>
		<path id="Path_604705" class="st1" d="M32,4.9H20.6v27.3L32,4.9z"/>
		<path id="Path_604706" class="st1" d="M36,14.9l7.3,17.2h-4.8l-2.2-5.5H31C31,26.6,36,14.9,36,14.9z"/>
	</g>
	<g>
		<g>
			<g>
				<defs>
					<rect id="SVGID_1_" x="151.7" y="1.6" width="33.7" height="33.7"/>
				</defs>
				<clipPath id="SVGID_00000110460493626594620850000004680217560213298327_">
					<use xlink:href="#SVGID_1_"  style="overflow:visible;"/>
				</clipPath>
				<g style="clip-path:url(#SVGID_00000110460493626594620850000004680217560213298327_);">
					<path class="st3" d="M168.6,1.6c-9.3,0-16.9,7.5-16.9,16.9s7.5,16.9,16.9,16.9c9.3,0,16.9-7.5,16.9-16.9S177.9,1.6,168.6,1.6"
						/>
				</g>
			</g>
			<g>
				<defs>
					<rect id="SVGID_00000126308077713861824350000011539626266552415635_" x="151.7" y="1.6" width="33.7" height="33.7"/>
				</defs>
				<clipPath id="SVGID_00000110452618738046382590000000539454000883528868_">
					<use xlink:href="#SVGID_00000126308077713861824350000011539626266552415635_"  style="overflow:visible;"/>
				</clipPath>
				<g style="clip-path:url(#SVGID_00000110452618738046382590000000539454000883528868_);">
					<path class="st5" d="M168.6,2.5c-8.8,0-16,7.2-16,16s7.2,16,16,16s16-7.2,16-16S177.4,2.5,168.6,2.5"/>
				</g>
			</g>
			<g>
				<defs>
					<rect id="SVGID_00000118369479893378826860000015391356805565417611_" x="151.7" y="1.6" width="33.7" height="33.7"/>
				</defs>
				<clipPath id="SVGID_00000142155991517086883810000004000005918469468575_">
					<use xlink:href="#SVGID_00000118369479893378826860000015391356805565417611_"  style="overflow:visible;"/>
				</clipPath>
				<g style="clip-path:url(#SVGID_00000142155991517086883810000004000005918469468575_);">
					<path class="st7" d="M168.6,3.2c-8.4,0-15.3,6.8-15.3,15.3s6.8,15.3,15.3,15.3s15.3-6.8,15.3-15.3S177,3.2,168.6,3.2 M168.6,28
						c-5.3,0-9.5-4.3-9.5-9.5s4.3-9.5,9.5-9.5c5.3,0,9.5,4.3,9.5,9.5S173.8,28,168.6,28"/>
				</g>
			</g>
		</g>
		<g>
			<defs>
				<rect id="SVGID_00000162343165786738338360000006090663664949866424_" x="159.8" y="9.7" width="17.5" height="17.5"/>
			</defs>
			<clipPath id="SVGID_00000003094837420785738210000007357310156347803293_">
				<use xlink:href="#SVGID_00000162343165786738338360000006090663664949866424_"  style="overflow:visible;"/>
			</clipPath>
			<g style="clip-path:url(#SVGID_00000003094837420785738210000007357310156347803293_);">
				<path class="st3" d="M160.2,21.1c0.4,1.3,1.1,2.4,1.9,3.4v-4l-2.2-3.3C159.7,18.5,159.8,19.8,160.2,21.1 M164.7,24.2v-4.5
					l-2.6-3.7v-3.4c-0.5,0.5-0.9,1.1-1.2,1.7l1.2,1.8v4.5L164.7,24.2l0,2.1c0.6,0.3,1.3,0.5,2,0.7L164.7,24.2L164.7,24.2z
					 M167.3,18.9l2.6,3.7v4.5l-2.6-3.7V18.9l-2.6-3.7v-4.5l2.6,3.7C167.3,14.4,167.3,18.9,167.3,18.9z M169.9,18.1l-2.6-3.7V9.8
					l2.6,3.7V18.1l2.6,3.7v4.5l-2.6-3.7C169.9,22.6,169.9,18.1,169.9,18.1z M166,10.1c-1.3,0.4-2.5,1.1-3.4,2l2.1,3.1v4.5l2.6,3.7
					v3.7c1.3,0.2,2.6,0.1,3.9-0.3c1.3-0.4,2.5-1.1,3.4-2l-2.1-3.1v-4.5l-2.6-3.7V9.8C168.6,9.6,167.3,9.7,166,10.1 M175,21v-4.5
					l-2.6-3.7v-2.1c-0.6-0.3-1.3-0.5-2-0.7l1.9,2.8v4.5L175,21l0,3.4c0.5-0.5,0.9-1.1,1.2-1.7L175,21L175,21z M177,15.9
					c-0.4-1.3-1.1-2.4-1.9-3.4v4l2.2,3.3C177.4,18.5,177.4,17.2,177,15.9"/>
			</g>
		</g>
		<g>
			<g>
				<defs>
					<rect id="SVGID_00000031202299288181098770000011837261050961166735_" x="151.7" y="1.6" width="33.7" height="33.7"/>
				</defs>
				<clipPath id="SVGID_00000047062281045566903830000002405122634078667653_">
					<use xlink:href="#SVGID_00000031202299288181098770000011837261050961166735_"  style="overflow:visible;"/>
				</clipPath>
				<g style="clip-path:url(#SVGID_00000047062281045566903830000002405122634078667653_);">
					<path class="st5" d="M158.4,21.7l0.4,0.9l-0.7,1.3c-0.1,0.2-0.2,0.4-0.2,0.4l0,0c0,0,0.2,0,0.4,0l1.5,0.1l0.5,0.9l-3.2,1.9
						l-0.5-0.8l1.4-0.8c0.3-0.2,0.6-0.3,0.6-0.3l0,0c0,0-0.2,0-0.5-0.1l-1.4-0.2l0,0l0.6-1.3c0.1-0.3,0.2-0.5,0.2-0.5l0,0
						c0,0-0.2,0.1-0.6,0.3l-1.4,0.7l-0.4-0.9C155,23.3,158.4,21.7,158.4,21.7z"/>
				</g>
			</g>
			<g>
				<defs>
					<rect id="SVGID_00000067203825643220589580000014915672309767785897_" x="151.7" y="1.6" width="33.7" height="33.7"/>
				</defs>
				<clipPath id="SVGID_00000183216970591510757890000011856137905439487915_">
					<use xlink:href="#SVGID_00000067203825643220589580000014915672309767785897_"  style="overflow:visible;"/>
				</clipPath>
				<g style="clip-path:url(#SVGID_00000183216970591510757890000011856137905439487915_);">
					<path class="st5" d="M160.9,25.7l0.7,0.7l-1.5,1.8c-0.2,0.3-0.2,0.6,0.1,0.9s0.7,0.2,0.9-0.1l1.4-1.9l0.8,0.6l-1.4,1.9
						c-0.7,0.9-1.5,0.7-2.2,0.1c-0.7-0.6-1.1-1.4-0.4-2.2L160.9,25.7L160.9,25.7z M162.4,27l-0.9,0.7l0,0l0.4-1L162.4,27z"/>
				</g>
			</g>
			<g>
				<defs>
					<rect id="SVGID_00000054230152193516833230000012612012557536028548_" x="151.7" y="1.6" width="33.7" height="33.7"/>
				</defs>
				<clipPath id="SVGID_00000110443076437744574700000002084956002544220607_">
					<use xlink:href="#SVGID_00000054230152193516833230000012612012557536028548_"  style="overflow:visible;"/>
				</clipPath>
				<g style="clip-path:url(#SVGID_00000110443076437744574700000002084956002544220607_);">
					<path class="st5" d="M163.9,28l1,0.4l0.6,1.9c0.1,0.4,0.2,0.6,0.2,0.6h0c0,0,0.1-0.3,0.2-0.6l0.4-1.5l1,0.2l-1,3.6l-1-0.2
						l-0.6-2c-0.1-0.4-0.2-0.6-0.2-0.6l0,0c0,0-0.1,0.3-0.2,0.6l-0.5,1.5l-0.9-0.3L163.9,28L163.9,28z"/>
				</g>
			</g>
			<g>
				<defs>
					<rect id="SVGID_00000012431381910776597590000016774030335584371872_" x="151.7" y="1.6" width="33.7" height="33.7"/>
				</defs>
				<clipPath id="SVGID_00000025430350968440847380000000085065406073893023_">
					<use xlink:href="#SVGID_00000012431381910776597590000016774030335584371872_"  style="overflow:visible;"/>
				</clipPath>
				<g style="clip-path:url(#SVGID_00000025430350968440847380000000085065406073893023_);">
					<path class="st5" d="M171.2,31.3c0,0.9-0.5,1.5-1.6,1.6c-1,0.1-1.9-0.4-2-1.8c-0.1-1.5,0.8-2,1.7-2.1c1-0.1,1.6,0.5,1.7,1.3
						l-1,0.1c-0.1-0.3-0.3-0.5-0.7-0.5c-0.4,0-0.7,0.4-0.7,1.2c0,0.8,0.4,1.1,0.8,1.1c0.5,0,0.7-0.3,0.7-0.7L171.2,31.3L171.2,31.3z
						"/>
				</g>
			</g>
			<g>
				<defs>
					<rect id="SVGID_00000154408076308318968320000005877760870542868388_" x="151.7" y="1.6" width="33.7" height="33.7"/>
				</defs>
				<clipPath id="SVGID_00000128485989011915280550000016331731096847541162_">
					<use xlink:href="#SVGID_00000154408076308318968320000005877760870542868388_"  style="overflow:visible;"/>
				</clipPath>
				<g style="clip-path:url(#SVGID_00000128485989011915280550000016331731096847541162_);">
					<polygon class="st5" points="171.5,28.7 172.4,28.3 172.9,29.6 174.1,29.1 173.5,27.8 174.4,27.4 176,30.7 175.1,31.2 
						174.5,29.9 173.3,30.4 173.8,31.8 172.9,32.2 171.5,28.7 					"/>
				</g>
			</g>
			<g>
				<defs>
					<rect id="SVGID_00000099646278034394019900000016724988664424738484_" x="151.7" y="1.6" width="33.7" height="33.7"/>
				</defs>
				<clipPath id="SVGID_00000152239024390604355390000014883003100868952765_">
					<use xlink:href="#SVGID_00000099646278034394019900000016724988664424738484_"  style="overflow:visible;"/>
				</clipPath>
				<g style="clip-path:url(#SVGID_00000152239024390604355390000014883003100868952765_);">
					<polygon class="st5" points="175,26.9 176.7,25.2 177.3,25.8 176.2,26.9 176.6,27.3 177.7,26.3 178.3,26.8 177.2,27.9 
						177.6,28.4 178.9,27.2 179.5,27.8 177.5,29.7 					"/>
				</g>
			</g>
			<g>
				<defs>
					<rect id="SVGID_00000042726003773285346460000012096411845573531008_" x="151.7" y="1.6" width="33.7" height="33.7"/>
				</defs>
				<clipPath id="SVGID_00000031927930673987163280000009495669854020153788_">
					<use xlink:href="#SVGID_00000042726003773285346460000012096411845573531008_"  style="overflow:visible;"/>
				</clipPath>
				<g style="clip-path:url(#SVGID_00000031927930673987163280000009495669854020153788_);">
					<path class="st5" d="M177.2,24.7l0.5-0.9l2-0.2c0.4,0,0.6-0.1,0.6-0.1l0,0c0,0-0.3-0.1-0.6-0.3l-1.4-0.7l0.4-0.9l3.4,1.6
						l-0.4,1l-2,0.3c-0.4,0.1-0.6,0.1-0.6,0.1l0,0c0,0,0.3,0.1,0.6,0.3l1.4,0.8l-0.5,0.8L177.2,24.7L177.2,24.7z"/>
				</g>
			</g>
			<g>
				<defs>
					<rect id="SVGID_00000086659003304263922190000004122242540816848033_" x="151.7" y="1.6" width="33.7" height="33.7"/>
				</defs>
				<clipPath id="SVGID_00000152241963440731413630000014047171125497704322_">
					<use xlink:href="#SVGID_00000086659003304263922190000004122242540816848033_"  style="overflow:visible;"/>
				</clipPath>
				<g style="clip-path:url(#SVGID_00000152241963440731413630000014047171125497704322_);">
					<polygon class="st5" points="155.7,12.2 156.5,12.5 155.9,14.2 156.6,14.4 157.1,12.9 157.9,13.2 157.3,14.7 158.6,15.1 
						158.4,16.1 154.8,14.9 					"/>
				</g>
			</g>
			<g>
				<defs>
					<rect id="SVGID_00000134249808430088247210000012359654690022208442_" x="151.7" y="1.6" width="33.7" height="33.7"/>
				</defs>
				<clipPath id="SVGID_00000114783640824306956030000008146435696292569244_">
					<use xlink:href="#SVGID_00000134249808430088247210000012359654690022208442_"  style="overflow:visible;"/>
				</clipPath>
				<g style="clip-path:url(#SVGID_00000114783640824306956030000008146435696292569244_);">
					<path class="st5" d="M160.3,9.8c0.7,0.6,0.8,1.4,0.1,2.2c-0.6,0.7-1.5,1.1-2.7,0.2c-1.2-0.9-1-1.9-0.4-2.7
						c0.7-0.8,1.5-0.9,2.1-0.4l-0.6,0.8c-0.3-0.2-0.6-0.2-0.9,0.2c-0.3,0.4-0.2,0.8,0.4,1.3c0.6,0.5,1.1,0.4,1.3,0.1
						c0.3-0.4,0.2-0.6,0-0.9L160.3,9.8L160.3,9.8z"/>
				</g>
			</g>
			<g>
				<defs>
					<rect id="SVGID_00000072271973109324280650000018421439841684291456_" x="151.7" y="1.6" width="33.7" height="33.7"/>
				</defs>
				<clipPath id="SVGID_00000003075604661878012370000008502912812554737309_">
					<use xlink:href="#SVGID_00000072271973109324280650000018421439841684291456_"  style="overflow:visible;"/>
				</clipPath>
				<g style="clip-path:url(#SVGID_00000003075604661878012370000008502912812554737309_);">
					<path class="st5" d="M162.8,5.5c0.7-0.3,1.3-0.4,1.6,0.3c0.2,0.6,0.1,0.8-0.2,1l0,0c0.3-0.1,0.7-0.1,1,0.6
						c0.3,0.7-0.2,1.2-0.8,1.5L163,9.6l-1.7-3.4L162.8,5.5z M163.4,6.9c0.3-0.1,0.3-0.2,0.2-0.5c-0.1-0.2-0.3-0.3-0.5-0.1l-0.6,0.3
						l0.3,0.6L163.4,6.9L163.4,6.9z M164,8.2c0.3-0.1,0.4-0.2,0.2-0.5c-0.1-0.3-0.3-0.3-0.6-0.1l-0.5,0.2l0.3,0.7L164,8.2L164,8.2z"
						/>
				</g>
			</g>
			<g>
				<defs>
					<rect id="SVGID_00000034083385108615138450000006021452928009231016_" x="151.7" y="1.6" width="33.7" height="33.7"/>
				</defs>
				<clipPath id="SVGID_00000177477280076898656740000014763730507747690936_">
					<use xlink:href="#SVGID_00000034083385108615138450000006021452928009231016_"  style="overflow:visible;"/>
				</clipPath>
				<g style="clip-path:url(#SVGID_00000177477280076898656740000014763730507747690936_);">
					<path class="st5" d="M169.6,8h-1.1l-0.3-0.7L167,7.4l-0.2,0.7l-1,0.2l1-3.9l1.2-0.1L169.6,8L169.6,8z M168,6.6l-0.3-0.7
						c-0.1-0.2-0.2-0.5-0.2-0.5h0c0,0,0,0.2-0.1,0.5l-0.2,0.8L168,6.6L168,6.6z"/>
				</g>
			</g>
			<g>
				<defs>
					<rect id="SVGID_00000094600026777145513310000003596374221094729132_" x="151.7" y="1.6" width="33.7" height="33.7"/>
				</defs>
				<clipPath id="SVGID_00000125594658064915830400000008833306814180639672_">
					<use xlink:href="#SVGID_00000094600026777145513310000003596374221094729132_"  style="overflow:visible;"/>
				</clipPath>
				<g style="clip-path:url(#SVGID_00000125594658064915830400000008833306814180639672_);">
					<path class="st5" d="M170.6,6.9l-0.9-2.7l1.1,0.2l0.3,1.1c0.1,0.2,0.1,0.4,0.1,0.4h0c0,0,0.2-0.2,0.3-0.4l0.8-0.9l1.1,0.3
						l-1.9,2.1l-0.3,1.2l-1-0.2L170.6,6.9L170.6,6.9z"/>
				</g>
			</g>
			<g>
				<defs>
					<rect id="SVGID_00000094583808461289464580000005066392543682905022_" x="151.7" y="1.6" width="33.7" height="33.7"/>
				</defs>
				<clipPath id="SVGID_00000124119510727814514310000016128984508532655285_">
					<use xlink:href="#SVGID_00000094583808461289464580000005066392543682905022_"  style="overflow:visible;"/>
				</clipPath>
				<g style="clip-path:url(#SVGID_00000124119510727814514310000016128984508532655285_);">
					<polygon class="st5" points="174.2,5.4 176.6,6.7 176.2,7.4 174.7,6.6 174.4,7.1 175.8,7.9 175.4,8.6 174.1,7.8 173.8,8.5 
						175.2,9.2 174.8,9.9 172.5,8.7 					"/>
				</g>
			</g>
			<g>
				<defs>
					<rect id="SVGID_00000016784739609774945810000018358441146480086190_" x="151.7" y="1.6" width="33.7" height="33.7"/>
				</defs>
				<clipPath id="SVGID_00000096772026006069071150000001640335958839882424_">
					<use xlink:href="#SVGID_00000016784739609774945810000018358441146480086190_"  style="overflow:visible;"/>
				</clipPath>
				<g style="clip-path:url(#SVGID_00000096772026006069071150000001640335958839882424_);">
					<path class="st5" d="M177.9,7.7l1.2,1.2c0.6,0.6,0.7,1.2,0,1.8c-0.4,0.4-0.8,0.5-1.2,0.3l-0.6,1.5l-0.7-0.9l0.5-1.2l-0.3-0.3
						L176,11l-0.7-0.7L177.9,7.7L177.9,7.7z M177.4,9.6l0.4,0.4c0.2,0.2,0.4,0.2,0.6,0c0.2-0.2,0.2-0.4,0-0.6L178,9L177.4,9.6
						L177.4,9.6z"/>
				</g>
			</g>
			<g>
				<defs>
					<rect id="SVGID_00000139999524285323270340000016295782096263589307_" x="151.7" y="1.6" width="33.7" height="33.7"/>
				</defs>
				<clipPath id="SVGID_00000102520091119407790980000005634439929199197109_">
					<use xlink:href="#SVGID_00000139999524285323270340000016295782096263589307_"  style="overflow:visible;"/>
				</clipPath>
				<g style="clip-path:url(#SVGID_00000102520091119407790980000005634439929199197109_);">
					<path class="st5" d="M178.9,16.1l-0.3-1l1.1-1.6c0.2-0.3,0.4-0.5,0.4-0.5l0,0c0,0-0.3,0.1-0.6,0.3l-1.4,0.6l-0.4-0.9l3.4-1.5
						l0.5,0.9l-1.1,1.7c-0.2,0.3-0.4,0.5-0.4,0.5l0,0c0,0,0.3-0.1,0.6-0.2l1.5-0.6l0.3,0.9L178.9,16.1L178.9,16.1z"/>
				</g>
			</g>
		</g>
	</g>
</g>
</svg>
