<svg xmlns="http://www.w3.org/2000/svg" width="18" height="17.998" viewBox="0 0 18 17.998">
  <g id="SX_ArtificalIntelligence_18_N" transform="translate(0 -0.002)">
    <path id="Path_1067864" data-name="Path 1067864" d="M9.548,11.289l-1.066-1.03.1-1.479a.655.655,0,0,0-1.125-.5L6.433,9.346l-1.482-.1a.638.638,0,0,0-.513.2.655.655,0,0,0,.015.926L5.518,11.4l-.1,1.481a.659.659,0,0,0,.195.51.651.651,0,0,0,.459.188.658.658,0,0,0,.472-.2l1.03-1.063,1.479.1a.633.633,0,0,0,.509-.193.656.656,0,0,0-.009-.932Z" fill="#222"/>
    <path id="Path_1067865" data-name="Path 1067865" d="M10.692,18H5.308A5.314,5.314,0,0,1,0,12.692V7.308A5.314,5.314,0,0,1,5.308,2h1.68a1,1,0,0,1,0,2H5.308A3.311,3.311,0,0,0,2,7.308v5.385A3.311,3.311,0,0,0,5.308,16h5.384A3.311,3.311,0,0,0,14,12.692V10.5a1,1,0,0,1,2,0v2.192A5.314,5.314,0,0,1,10.692,18Z" fill="#222"/>
    <path id="Path_1067866" data-name="Path 1067866" d="M12.534,8.267A1.139,1.139,0,0,1,11.4,7.044l.141-2.019L10.082,3.618a1.138,1.138,0,0,1-.025-1.611,1.149,1.149,0,0,1,.886-.344l2.032.144L14.381.348a1.138,1.138,0,0,1,1.955.871l-.142,2.021,1.459,1.409a1.138,1.138,0,0,1,.025,1.611,1.156,1.156,0,0,1-.886.344L14.76,6.46,13.354,7.919a1.133,1.133,0,0,1-.8.348h-.018Zm.694-1.1v.007A.037.037,0,0,0,13.228,7.17Zm1.209-.732h0Zm1.942-.471h0ZM12.73,3.627l.317.306a1.144,1.144,0,0,1,.345.9l-.031.441.306-.317a1.138,1.138,0,0,1,.9-.344l.437.031-.318-.308a1.131,1.131,0,0,1-.346-.9L14.374,3l-.3.316a1.135,1.135,0,0,1-.9.345l-.435-.03Zm3.226-.618.009.009Zm-3.205-.97,0,0Zm.542-.211h0Z" fill="#222"/>
  </g>
</svg>
