<svg id="SX_Elements_22_N" xmlns="http://www.w3.org/2000/svg" width="43" height="43" viewBox="0 0 43 43">
  <g id="SMOCK" transform="translate(0.004)">
    <rect id="Canvas" width="43" height="43" transform="translate(-0.004)" fill="rgba(255,19,220,0)"/>
  </g>
  <g id="ICONS" transform="translate(0 0.006)">
    <path id="Path_125884" data-name="Path 125884" d="M24.952,9.77a1.827,1.827,0,0,0-.391.09L20.979,3.2a6.059,6.059,0,0,0-10.685,0L5.7,11.746.743,20.252a6.13,6.13,0,0,0,.137,6.094,6.016,6.016,0,0,0,5.207,2.969H10.36a1.917,1.917,0,0,0,.037.446A15.636,15.636,0,0,0,25.41,41.042h.459A15.643,15.643,0,0,0,24.952,9.77ZM4.235,24.337a2.22,2.22,0,0,1-.082-2.181l4.957-8.5,4.628-8.6a2.15,2.15,0,0,1,3.8,0L22.2,13.71,27.083,22.1a2.248,2.248,0,0,1-.049,2.238A2.13,2.13,0,0,1,25.183,25.4H6.086a2.123,2.123,0,0,1-1.849-1.061Zm21.515,12.8a11.643,11.643,0,0,1-11.361-7.818h10.8a6.016,6.016,0,0,0,5.207-2.969,6.151,6.151,0,0,0,.1-6.151l-3.743-6.425a11.722,11.722,0,0,1-1,23.363Z" transform="translate(0.002 -0.003)" fill="#484848"/>
  </g>
</svg>
