<svg id="ICONS" xmlns="http://www.w3.org/2000/svg" width="22" height="22" viewBox="0 0 22 22">
  <defs>
    <style>
      .fill {
        fill: #444;
      }
    </style>
  </defs>
  <path class="fill" d="M2.71924,6.14062A1.001,1.001,0,0,0,3.14014,4.79,1.222,1.222,0,0,1,5.3042,3.6543a1.00031,1.00031,0,0,0,1.77148-.92969,3.22261,3.22261,0,0,0-5.707,2.99512,1.0012,1.0012,0,0,0,1.35059.42089Z"/>
  <path class="fill" d="M9.93408,9.28808a1,1,0,0,0,.23535-1.39453A4.50039,4.50039,0,1,0,6.5,15a1,1,0,0,0,0-2A2.5,2.5,0,1,1,8.53955,9.05371,1.00129,1.00129,0,0,0,9.93408,9.28808Z"/>
  <path class="fill" d="M15,9a6,6,0,1,0,6,6A6.00656,6.00656,0,0,0,15,9Zm0,10a4,4,0,1,1,4-4A4.00427,4.00427,0,0,1,15,19Z"/>
</svg>
