<svg xmlns="http://www.w3.org/2000/svg" width="44" height="44" viewBox="0 0 44 44">
  <rect id="Canvas" fill="#000" opacity="0" width="44" height="44" /><g id="Path">
    <circle class="fill" cx="34.2" cy="28.2" r="2.2" />
    <circle class="fill" cx="27.8" cy="28.2" r="2.2" />
    <path class="fill" d="M31,22c4.97058,0,9,4.02942,9,9s-4.02942,9-9,9-9-4.02942-9-9,4.02942-9,9-9Zm0-3c-6.61682,0-12,5.38318-12,12s5.38318,12,12,12,12-5.38318,12-12-5.38318-12-12-12Z" />
    <path class="fill" d="M31,37.5c-2.4707,0-4.98242-1.2793-6.24902-3.18262-.45898-.68945-.27148-1.62109,.41797-2.08008,.6875-.45801,1.62012-.27441,2.08008,.41797,.72266,1.08594,2.26465,1.84473,3.75098,1.84473,1.46289,0,3.04102-.77344,3.75293-1.83887,.45996-.68945,1.39258-.87305,2.08008-.41406,.68848,.45996,.87402,1.39062,.41406,2.08008-1.2666,1.89746-3.77734,3.17285-6.24707,3.17285Z" />
  </g>
  <g id="ICONS">
    <path class="fill" d="M15.44385,12.23055c-1.06384-.62482-2.44385,.09387-2.44385,1.27277v7.99341c0,1.17883,1.38,1.89752,2.44385,1.27277l6.80542-3.9967c1.00098-.58789,1.00098-1.9577,0-2.54553l-6.80542-3.9967Z" />
    <path class="fill" d="M11.5,32h3c.82861,0,1.5-.67188,1.5-1.5s-.67139-1.5-1.5-1.5h-3c-3.58398,0-6.5-2.91602-6.5-6.5V12.5c0-3.58398,2.91602-6.5,6.5-6.5h12c3.58398,0,6.5,2.91602,6.5,6.5v2.06538c0,.82812,.67139,1.5,1.5,1.5s1.5-.67188,1.5-1.5v-2.06538c0-5.23828-4.26172-9.5-9.5-9.5H11.5C6.26172,3,2,7.26172,2,12.5v10c0,5.23828,4.26172,9.5,9.5,9.5Z" />
  </g>
</svg>