<svg id="SX_IlluBlogBanner_44_N" xmlns="http://www.w3.org/2000/svg" width="29" height="30" viewBox="0 0 29 30">
  <g id="SLMOCK">
    <rect id="Canvas" width="29" height="30" fill="rgba(255,19,220,0)"/>
  </g>
  <g id="Illu" transform="translate(1.318 6.136)">
    <circle id="Ellipse_24724" data-name="Ellipse 24724" cx="1.5" cy="1.5" r="1.5" transform="translate(17.682 4.864)" fill="#fff"/>
    <path id="Path_127193" data-name="Path 127193" d="M9.989,17.045h3.955a1.023,1.023,0,0,0,0-2.045H9.989a1.023,1.023,0,0,0,0,2.045Z" transform="translate(-4.386 -10.909)" fill="#fff"/>
    <path id="Path_127194" data-name="Path 127194" d="M9.989,22.045h7.25a1.023,1.023,0,0,0,0-2.045H9.989a1.023,1.023,0,0,0,0,2.045Z" transform="translate(-4.386 -12.5)" fill="#fff"/>
    <path id="Path_127195" data-name="Path 127195" d="M22.1,9H8.261A6.379,6.379,0,0,0,2,15.477V20.25a6.379,6.379,0,0,0,6.261,6.477H22.1a6.379,6.379,0,0,0,6.261-6.477V15.477A6.379,6.379,0,0,0,22.1,9ZM3.977,15.477a4.365,4.365,0,0,1,4.284-4.432H22.1a4.365,4.365,0,0,1,4.284,4.432V20.25a4.539,4.539,0,0,1-.242,1.454L23.38,19.091a.976.976,0,0,0-.074-.064,2.245,2.245,0,0,0-3.044.254l-4.937,5.168-4-3.31A2.246,2.246,0,0,0,8.493,21.1c-.018.015-.036.029-.053.045L5.6,23.716A4.481,4.481,0,0,1,3.977,20.25ZM7.6,24.623l2.107-1.907a.322.322,0,0,1,.387.019l2.35,1.946H8.261a4.131,4.131,0,0,1-.662-.059Zm10.283.059,3.8-3.979a.325.325,0,0,1,.411-.057l2.965,2.8A4.192,4.192,0,0,1,22.1,24.682Z" transform="translate(-2 -9)" fill="#fff"/>
  </g>
</svg>
