<svg id="Illu" xmlns="http://www.w3.org/2000/svg" width="27.273" height="17.727" viewBox="0 0 27.273 17.727">
  <circle id="Ellipse_24724" data-name="Ellipse 24724" cx="1.5" cy="1.5" r="1.5" transform="translate(18.637 4.863)"/>
  <path id="Path_127193" data-name="Path 127193" d="M10.023,17.045h4.091a1.023,1.023,0,1,0,0-2.045H10.023a1.023,1.023,0,1,0,0,2.045Z" transform="translate(-4.227 -10.909)"/>
  <path id="Path_127194" data-name="Path 127194" d="M10.023,22.045h7.5a1.023,1.023,0,0,0,0-2.045h-7.5a1.023,1.023,0,1,0,0,2.045Z" transform="translate(-4.227 -12.5)"/>
  <path id="Path_127195" data-name="Path 127195" d="M22.8,9H8.477A6.485,6.485,0,0,0,2,15.477V20.25a6.485,6.485,0,0,0,6.477,6.477H22.8a6.485,6.485,0,0,0,6.477-6.477V15.477A6.485,6.485,0,0,0,22.8,9ZM4.045,15.477a4.437,4.437,0,0,1,4.432-4.432H22.8a4.437,4.437,0,0,1,4.432,4.432V20.25a4.4,4.4,0,0,1-.25,1.454l-2.86-2.613c-.025-.023-.05-.044-.077-.064a2.381,2.381,0,0,0-3.149.254l-5.108,5.168-4.134-3.31A2.385,2.385,0,0,0,8.717,21.1c-.019.015-.037.029-.055.045l-2.939,2.57A4.423,4.423,0,0,1,4.045,20.25Zm3.747,9.146,2.18-1.907a.342.342,0,0,1,.4.019L12.8,24.682H8.477a4.417,4.417,0,0,1-.685-.059Zm10.638.059L22.362,20.7a.345.345,0,0,1,.425-.057l3.068,2.8A4.413,4.413,0,0,1,22.8,24.682Z" transform="translate(-2 -9)"/>
</svg>
