<svg xmlns="http://www.w3.org/2000/svg" width="22" height="22" viewBox="0 0 22 22">
  <g id="Group_377127" data-name="Group 377127" transform="translate(11957 18803.67)">
    <g id="SXmock_BlogBanner_22_N" transform="translate(-11946 -18792.67)">
      <g id="Group_377026" data-name="Group 377026" transform="translate(-11 -11)">
        <rect id="SX_BlogBanner_22_N" width="22" height="22" transform="translate(0)" fill="none"/>
        <path id="Path_968362" data-name="Path 968362" d="M15,9a1,1,0,1,1,1,1A1,1,0,0,1,15,9ZM5,9H8A1,1,0,0,0,8,7H5A1,1,0,0,0,5,9Zm0,3h6a1,1,0,0,0,0-2H5a1,1,0,0,0,0,2ZM22,9v4a5.006,5.006,0,0,1-5,5H5a5.006,5.006,0,0,1-5-5V9A5.006,5.006,0,0,1,5,4H17A5.006,5.006,0,0,1,22,9ZM2,13a2.982,2.982,0,0,0,1.108,2.309l2.238-1.958a2.1,2.1,0,0,1,2.612-.01.931.931,0,0,1,.082.073l2.051,2.051,3.858-3.61a2.063,2.063,0,0,1,2.715-.192l2.983,2.719A2.963,2.963,0,0,0,20,13V9a3,3,0,0,0-3-3H5A3,3,0,0,0,2,9Zm4.688,1.89a.091.091,0,0,0-.082.011L5.353,16H7.8ZM17,16a2.979,2.979,0,0,0,1.184-.246l-2.79-2.55c.038.036-.007.039-.035.068L12.445,16Z" fill="#444"/>
      </g>
    </g>
  </g>
</svg>
