<svg xmlns="http://www.w3.org/2000/svg" width="19.685" height="20.178" viewBox="0 0 19.685 20.178">
  <g id="Group_377119" data-name="Group 377119" transform="translate(12028.482 19249.633)">
    <path id="Path_968342" data-name="Path 968342" d="M34.432,29.808H31.44V26.816a.816.816,0,1,0-1.632,0v2.992H26.816a.816.816,0,1,0,0,1.632h2.992v2.992a.816.816,0,1,0,1.632,0V31.44h2.992a.816.816,0,1,0,0-1.632Z" transform="translate(-12044.245 -19264.902)" fill="#484848" stroke="#484848" stroke-width="0.4"/>
    <path id="Path_968343" data-name="Path 968343" d="M16.994,11.362h3.187v1.23a.736.736,0,1,0,1.471,0V11.286a3.685,3.685,0,0,0-.975-2.5l-4.23-4.6A3.683,3.683,0,0,0,13.745,3H8.658A4.671,4.671,0,0,0,4,7.673v9.346a4.671,4.671,0,0,0,4.658,4.673h4.413a.738.738,0,0,0,0-1.476H8.658a3.2,3.2,0,0,1-3.187-3.2V7.673a3.2,3.2,0,0,1,3.187-3.2h4.658v3.2a3.687,3.687,0,0,0,3.678,3.689Zm-2.207-6.61a2.191,2.191,0,0,1,.578.436l4.23,4.6c.029.032.05.068.077.1H16.994a2.212,2.212,0,0,1-2.207-2.213Z" transform="translate(-12032.282 -19252.434)" fill="#484848" stroke="#484848" stroke-width="0.4"/>
  </g>
</svg>
