<svg xmlns="http://www.w3.org/2000/svg" width="18" height="18" viewBox="0 0 18 18">
  <g id="ICONS" transform="translate(0 18) rotate(-90)">
    <path id="Path_127744" data-name="Path 127744" d="M17.995,8.973A8.979,8.979,0,0,0,9.032.006C9.021.006,9.011,0,9,0s-.021.006-.032.006A8.979,8.979,0,0,0,.005,8.973C.005,8.983,0,8.99,0,9s.005.017.005.027a8.979,8.979,0,0,0,8.963,8.967c.011,0,.021.006.032.006s.021-.006.032-.006a8.979,8.979,0,0,0,8.963-8.967c0-.01.005-.017.005-.027S17.995,8.983,17.995,8.973ZM13.95,13.95A6.958,6.958,0,0,1,9.984,15.92a.986.986,0,0,0-1.968,0A6.944,6.944,0,0,1,2.08,9.984a.986.986,0,0,0,0-1.968A6.944,6.944,0,0,1,8.016,2.08a.986.986,0,0,0,1.968,0A6.944,6.944,0,0,1,15.92,8.016a.986.986,0,0,0,0,1.968A6.957,6.957,0,0,1,13.95,13.95Z" fill="#2b92f8"/>
    <path id="Path_127745" data-name="Path 127745" d="M11.517,6.967a1,1,0,0,0-.644-.633L6.054,4.8A1,1,0,0,0,4.8,6.054l1.537,4.819a1,1,0,0,0,.633.644L11.93,13.2A1,1,0,0,0,13.2,11.93ZM8.086,9.784,7.291,7.291l2.493.795.869,2.567Z" fill="#2b92f8"/>
  </g>
</svg>
