<svg xmlns="http://www.w3.org/2000/svg" width="40" height="42" viewBox="0 0 40 42">
  <g id="ICONS" transform="translate(-2)">
    <path id="Path_602685" data-name="Path 602685" d="M13,25H11a2,2,0,0,1-2-2V21a2,2,0,0,1,2-2h2a2,2,0,0,1,2,2v2A2,2,0,0,1,13,25Zm2,8V31a2,2,0,0,0-2-2H11a2,2,0,0,0-2,2v2a2,2,0,0,0,2,2h2A2,2,0,0,0,15,33ZM25,23V21a2,2,0,0,0-2-2H21a2,2,0,0,0-2,2v2a2,2,0,0,0,2,2h2A2,2,0,0,0,25,23Zm0,10V31a2,2,0,0,0-2-2H21a2,2,0,0,0-2,2v2a2,2,0,0,0,2,2h2A2,2,0,0,0,25,33ZM35,23V21a2,2,0,0,0-2-2H31a2,2,0,0,0-2,2v2a2,2,0,0,0,2,2h2A2,2,0,0,0,35,23Zm0,10V31a2,2,0,0,0-2-2H31a2,2,0,0,0-2,2v2a2,2,0,0,0,2,2h2A2,2,0,0,0,35,33Zm7-21.5v21A9.511,9.511,0,0,1,32.5,42h-21A9.511,9.511,0,0,1,2,32.5v-21A9.511,9.511,0,0,1,11.5,2H12V1.5a1.5,1.5,0,1,1,3,0V2H29V1.5a1.5,1.5,0,1,1,3,0V2h.5A9.511,9.511,0,0,1,42,11.5Zm-37,0V12H39v-.5A6.508,6.508,0,0,0,32.5,5H32v.5a1.5,1.5,0,0,1-3,0V5H15v.5a1.5,1.5,0,0,1-3,0V5h-.5A6.508,6.508,0,0,0,5,11.5Zm34,21V15H5V32.5A6.508,6.508,0,0,0,11.5,39h21A6.508,6.508,0,0,0,39,32.5Z" fill="#fff"/>
  </g>
</svg>
