<?xml version="1.0" encoding="utf-8"?>
<!-- Generator: Adobe Illustrator 25.2.1, SVG Export Plug-In . SVG Version: 6.00 Build 0)  -->
<svg version="1.1" id="Layer_1" xmlns="http://www.w3.org/2000/svg" xmlns:xlink="http://www.w3.org/1999/xlink" x="0px" y="0px"
	 viewBox="0 0 39.3 39.3" style="enable-background:new 0 0 39.3 39.3;" xml:space="preserve">
<style type="text/css">
	.st0{fill:#FCCE00;}
	.st1{fill:#284660;}
	.st2{fill:#FF614C;}
</style>
<g>
	<path class="st0" d="M8.1,11.2c-0.4-0.4-0.4-1.1,0-1.5s1.1-0.4,1.5,0s0.4,1.1,0,1.5C9.2,11.7,8.5,11.7,8.1,11.2
		C8.1,11.2,8.1,11.2,8.1,11.2z"/>
	<path class="st0" d="M15.1,5.8c-0.4-0.4-0.4-1.1,0-1.5c0.4-0.4,1.1-0.4,1.5,0s0.4,1.1,0,1.5S15.5,6.3,15.1,5.8
		C15.1,5.8,15.1,5.8,15.1,5.8z"/>
	<path class="st0" d="M22.8,4.3c0.4-0.4,1.1-0.4,1.5,0c0.4,0.4,0.4,1.1,0,1.5s-1.1,0.4-1.5,0S22.4,4.7,22.8,4.3
		C22.8,4.3,22.8,4.3,22.8,4.3z"/>
	<path class="st0" d="M8.1,20.5c-0.4-0.4-0.4-1.1,0-1.5s1.1-0.4,1.5,0s0.4,1.1,0,1.5S8.5,20.9,8.1,20.5C8.1,20.5,8.1,20.5,8.1,20.5z
		"/>
	<path class="st0" d="M30.5,10.5c0.4,0.4,0.4,1.1,0,1.5c-0.4,0.4-1.1,0.4-1.5,0c-0.4-0.4-0.4-1.1,0-1.5C29.4,10,30.1,10,30.5,10.5
		L30.5,10.5z"/>
	<path class="st0" d="M31.3,19c0.4,0.4,0.4,1.1,0,1.5s-1.1,0.4-1.5,0s-0.4-1.1,0-1.5S30.8,18.5,31.3,19L31.3,19z"/>
	<path class="st0" d="M24.3,24.4c0.4,0.4,0.4,1.1,0,1.5s-1.1,0.4-1.5,0s-0.4-1.1,0-1.5S23.9,23.9,24.3,24.4L24.3,24.4z"/>
	<path class="st0" d="M15.1,24.4c0.4-0.4,1.1-0.4,1.5,0s0.4,1.1,0,1.5s-1.1,0.4-1.5,0S14.6,24.8,15.1,24.4
		C15.1,24.4,15.1,24.4,15.1,24.4z"/>
	<path class="st1" d="M19.7,10.7c-2.4,0-4.4,1.9-4.4,4.3c0,2,1.3,3.7,3.3,4.2v19c0,0.6,0.5,1.1,1.1,1.1c0.6,0,1.1-0.5,1.1-1.1
		c0,0,0,0,0,0l0-19c2.3-0.6,3.7-3,3.1-5.3C23.4,12.1,21.7,10.7,19.7,10.7z M21.9,15.1c0,1.2-1,2.2-2.2,2.2c-1.2,0-2.2-1-2.2-2.2
		s1-2.2,2.2-2.2c0,0,0,0,0,0C20.9,12.9,21.9,13.9,21.9,15.1z"/>
	<path class="st0" d="M18.6,5.8V1.2c0-0.6,0.4-1.1,1-1.1c0.6,0,1.1,0.4,1.1,1c0,0,0,0.1,0,0.1v4.6c0,0.6-0.4,1.1-1,1.2
		c-0.6,0-1.1-0.4-1.2-1C18.6,5.9,18.6,5.9,18.6,5.8z"/>
	<path class="st0" d="M12.7,9.7l-2.3-2.3c-0.4-0.4-0.4-1.1,0-1.5s1.1-0.4,1.5,0l2.3,2.3c0.4,0.4,0.4,1.1,0,1.5
		C13.9,10.1,13.2,10.1,12.7,9.7L12.7,9.7z"/>
	<path class="st0" d="M26.6,20.5l3.1,3.1c0.4,0.4,0.4,1.1,0,1.5s-1.1,0.4-1.5,0l0,0L25.1,22c-0.4-0.4-0.4-1.1,0-1.5
		S26.2,20.1,26.6,20.5z"/>
	<path class="st0" d="M29,5.8c0.4,0.4,0.4,1.1,0,1.5l-2.3,2.3c-0.4,0.4-1.1,0.4-1.5,0s-0.4-1.1,0-1.5l2.3-2.3
		C27.8,5.4,28.5,5.4,29,5.8z"/>
	<path class="st0" d="M33.6,14c0.6,0,1.1,0.6,1,1.2c0,0.5-0.5,1-1,1l-4.6,0c-0.6,0-1.1-0.5-1.1-1.1c0-0.6,0.5-1.1,1.1-1.1L33.6,14z"
		/>
	<path class="st0" d="M5.8,16.2c-0.6,0-1.1-0.5-1.1-1.1c0-0.6,0.5-1.1,1.1-1.1l4.6,0c0.6,0,1.1,0.6,1,1.2c0,0.5-0.5,1-1,1L5.8,16.2z
		"/>
	<path class="st0" d="M9.7,25.1c-0.4-0.4-0.4-1.1,0-1.5c0,0,0,0,0,0l3.1-3.1c0.4-0.4,1.1-0.4,1.5,0s0.4,1.1,0,1.5l0,0l-3.1,3.1
		C10.8,25.6,10.1,25.6,9.7,25.1C9.7,25.1,9.7,25.1,9.7,25.1z"/>
	<path class="st2" d="M21.9,15.1c0,1.2-1,2.2-2.2,2.2c-1.2,0-2.2-1-2.2-2.2s1-2.2,2.2-2.2c0,0,0,0,0,0
		C20.9,12.9,21.9,13.9,21.9,15.1z"/>
</g>
</svg>
