<svg xmlns="http://www.w3.org/2000/svg" width="34" height="40" viewBox="0 0 34 40">
  <g id="ICONS" transform="translate(-5 -2.006)">
    <path id="Path_969261" data-name="Path 969261" d="M29.5,42.006h-15a9.511,9.511,0,0,1-9.5-9.5v-21a9.511,9.511,0,0,1,9.5-9.5h15a9.511,9.511,0,0,1,9.5,9.5v21a9.511,9.511,0,0,1-9.5,9.5Zm-15-37a6.508,6.508,0,0,0-6.5,6.5v21a6.508,6.508,0,0,0,6.5,6.5h15a6.508,6.508,0,0,0,6.5-6.5v-21a6.508,6.508,0,0,0-6.5-6.5Z" fill="#fff"/>
    <circle id="Ellipse_26143" data-name="Ellipse 26143" cx="2.5" cy="2.5" r="2.5" transform="translate(21 15)" fill="#fff"/>
    <path id="Path_969262" data-name="Path 969262" d="M23.5,28a3.482,3.482,0,0,1-1.336-.264,4.5,4.5,0,0,1-2-1.634.5.5,0,0,0-.428-.173,4.341,4.341,0,0,1-2.516-.244,3.474,3.474,0,0,1-1.9-1.9,4.429,4.429,0,0,1-.247-2.514.5.5,0,0,0-.153-.418,4.5,4.5,0,0,1-1.652-2.017,3.51,3.51,0,0,1,0-2.672,4.5,4.5,0,0,1,1.675-2.032l.033-.022a.521.521,0,0,0,.1-.378,4.343,4.343,0,0,1,.245-2.515,3.465,3.465,0,0,1,1.9-1.9,4.438,4.438,0,0,1,2.51-.246.507.507,0,0,0,.416-.15,4.5,4.5,0,0,1,2.017-1.654,3.513,3.513,0,0,1,2.674,0A4.5,4.5,0,0,1,26.854,8.92a.5.5,0,0,0,.415.152,4.3,4.3,0,0,1,2.517.244,3.48,3.48,0,0,1,1.895,1.9,4.427,4.427,0,0,1,.248,2.516.5.5,0,0,0,.153.418,4.494,4.494,0,0,1,1.651,2.015,3.51,3.51,0,0,1,0,2.674,4.5,4.5,0,0,1-1.675,2.032l-.033.022a.521.521,0,0,0-.1.378,4.35,4.35,0,0,1-.246,2.516,3.475,3.475,0,0,1-1.9,1.9,4.427,4.427,0,0,1-2.5.248.511.511,0,0,0-.444.169,4.405,4.405,0,0,1-2,1.634A3.494,3.494,0,0,1,23.5,28Zm-3.731-5.069a3.475,3.475,0,0,1,2.784,1.359c.018.024.042.058.059.083a1.53,1.53,0,0,0,.7.592.492.492,0,0,0,.373,0,1.512,1.512,0,0,0,.692-.577,1.552,1.552,0,0,1,.112-.151,3.457,3.457,0,0,1,3.123-1.286c.049.006.152.02.2.03a1.419,1.419,0,0,0,.841-.074.462.462,0,0,0,.249-.249,1.441,1.441,0,0,0,.075-.846c-.009-.042-.016-.085-.021-.127a3.5,3.5,0,0,1,1.331-3.234c.024-.019.059-.044.084-.061a1.531,1.531,0,0,0,.593-.7.5.5,0,0,0,0-.373,1.515,1.515,0,0,0-.576-.689,1.427,1.427,0,0,1-.233-.187,3.492,3.492,0,0,1-1.2-3.066c.005-.045.019-.136.028-.18a1.441,1.441,0,0,0-.075-.846.466.466,0,0,0-.251-.251,1.407,1.407,0,0,0-.839-.073,1.479,1.479,0,0,1-.146.024,3.482,3.482,0,0,1-3.219-1.332c-.019-.024-.042-.059-.06-.084a1.535,1.535,0,0,0-.7-.594.506.506,0,0,0-.371,0,1.514,1.514,0,0,0-.691.576c-.019.029-.042.062-.062.089a3.5,3.5,0,0,1-3.192,1.349c-.043-.006-.134-.019-.177-.028a1.421,1.421,0,0,0-.845.075.464.464,0,0,0-.25.248,1.437,1.437,0,0,0-.075.846c.009.042.016.085.021.127a3.5,3.5,0,0,1-1.323,3.228c-.035.027-.071.053-.108.077a1.518,1.518,0,0,0-.577.691.5.5,0,0,0,0,.371,1.514,1.514,0,0,0,.576.691,1.473,1.473,0,0,1,.149.11l0,0a3.5,3.5,0,0,1,1.292,3.14c-.005.045-.019.136-.028.18a1.441,1.441,0,0,0,.075.846.462.462,0,0,0,.25.249,1.439,1.439,0,0,0,.841.074q.067-.015.136-.023A3.808,3.808,0,0,1,19.769,22.929Z" fill="#fff"/>
    <path id="Path_969263" data-name="Path 969263" d="M16.391,38.9a1.5,1.5,0,0,1-1.451-1.88l2.342-8.953a1.5,1.5,0,1,1,2.9.76l-.605,2.312a8.429,8.429,0,0,1,8.032-.359,6.769,6.769,0,0,1,2.19,1.584,1.5,1.5,0,0,1-2.2,2.039,3.765,3.765,0,0,0-1.222-.889c-3.479-1.568-6.621.071-8.62,4.5A1.5,1.5,0,0,1,16.391,38.9Z" fill="#fff"/>
  </g>
</svg>
