<svg xmlns="http://www.w3.org/2000/svg" width="18" height="18" viewBox="0 0 18 18">
  <g id="Group_318049" data-name="Group 318049" transform="translate(-8.5 -7.726)">
    <g id="SXmock_Card_18_N" transform="translate(17.5 16.726)">
      <g id="SXmock_Card_18_N-2" data-name="SXmock_Card_18_N" transform="translate(-9 -9)">
        <rect id="Canvas" width="18" height="18" fill="#ff13dc" opacity="0"/>
        <g id="ICONS">
          <circle id="Ellipse_25823" data-name="Ellipse 25823" cx="0.833" cy="0.833" r="0.833" transform="translate(9.167 6.167)"/>
          <path id="Path_601478" data-name="Path 601478" d="M12,0H6A5.006,5.006,0,0,0,1,5v8a5.006,5.006,0,0,0,5,5h6a5.006,5.006,0,0,0,5-5V5a5.006,5.006,0,0,0-5-5Zm3,13a3,3,0,0,1-3,3H7.685c1.328-1.448,2.479-2.114,3.145-1.781a.75.75,0,1,0,.67-1.342,3.05,3.05,0,0,0-3.223.566l.542-1.648a.75.75,0,1,0-1.426-.469l-1.482,4.51a.728.728,0,0,0-.022.153A3,3,0,0,1,3,13V5A3,3,0,0,1,6,2h6a3,3,0,0,1,3,3Z"/>
          <path id="Path_601479" data-name="Path 601479" d="M10,11.247a1,1,0,0,1-.731-.316l-.621-.664-.91.031A.943.943,0,0,1,7,10.007a1,1,0,0,1-.293-.74l.029-.91-.666-.621a1,1,0,0,1,0-1.462l.664-.621L6.7,4.742A1,1,0,0,1,6.993,4a.951.951,0,0,1,.74-.293l.91.029.621-.666A1,1,0,0,1,10,2.753h0a1,1,0,0,1,.731.316l.621.664.91-.031A.914.914,0,0,1,13,3.993a1,1,0,0,1,.293.74l-.029.91.666.621a1,1,0,0,1,0,1.462l-.664.621.031.91a1,1,0,0,1-.291.741.949.949,0,0,1-.74.293l-.91-.029-.621.666a1,1,0,0,1-.73.318Zm-.933-3a1,1,0,0,1,.731.316l.2.215.2-.215a.99.99,0,0,1,.764-.317l.295.009-.01-.295a1,1,0,0,1,.315-.766l.215-.2-.215-.2a1,1,0,0,1-.317-.764l.009-.295-.295.01a1,1,0,0,1-.766-.315L10,5.218l-.2.215a.948.948,0,0,1-.764.317l-.295-.009.01.295a1,1,0,0,1-.315.766L8.218,7l.215.2a1,1,0,0,1,.317.764l-.009.295.295-.01Z"/>
        </g>
      </g>
    </g>
  </g>
</svg>
