<svg xmlns="http://www.w3.org/2000/svg" width="19" height="19" viewBox="0 0 19 19">
  <g id="Group_318049" data-name="Group 318049" transform="translate(-8.5 -6.726)">
    <g id="SXmock_Resume_18_N" transform="translate(18 16.226)">
      <g id="SXmock_Resume_18_N-2" data-name="SXmock_Resume_18_N" transform="translate(-9.5 -9.5)">
        <rect id="Canvas" width="18" height="18" transform="translate(1 1)" fill="#ff13dc" opacity="0"/>
        <g id="SMOCK" transform="translate(1 1)">
          <rect id="Canvas-2" data-name="Canvas" width="18" height="18" transform="translate(-1 -1)" fill="rgba(255,19,220,0)"/>
        </g>
        <g id="ICONS" transform="translate(1 1)">
          <path id="Path_601518" data-name="Path 601518" d="M6,7H4A1,1,0,0,1,4,5H6A1,1,0,0,1,6,7Z"/>
          <path id="Path_601519" data-name="Path 601519" d="M6,10H4A1,1,0,0,1,4,8H6a1,1,0,0,1,0,2Z"/>
          <path id="Path_601520" data-name="Path 601520" d="M6,13H4a1,1,0,0,1,0-2H6a1,1,0,0,1,0,2Z"/>
          <path id="Path_601521" data-name="Path 601521" d="M10.9,7.99A4.672,4.672,0,0,1,16,7.271V6.828a2.982,2.982,0,0,0-.879-2.121L11.293.879A2.982,2.982,0,0,0,9.172,0H5A5.006,5.006,0,0,0,0,5v7a5.006,5.006,0,0,0,5,5H7a1,1,0,0,0,0-2H5a3,3,0,0,1-3-3V5A3,3,0,0,1,5,2H8V5a3,3,0,0,0,2.9,2.99ZM10,2.414,13.586,6H11a1,1,0,0,1-1-1Z"/>
          <path id="Path_601522" data-name="Path 601522" d="M17.877,16.559A4.318,4.318,0,0,0,14.7,14.281a2.781,2.781,0,1,0-1.406,0,4.317,4.317,0,0,0-3.175,2.279.982.982,0,1,0,1.756.881,2.418,2.418,0,0,1,4.245,0,.982.982,0,0,0,1.754-.882ZM14,10.781a.819.819,0,1,1-.818.819A.819.819,0,0,1,14,10.781Z"/>
        </g>
      </g>
    </g>
  </g>
</svg>
