<svg xmlns="http://www.w3.org/2000/svg" width="18" height="18" viewBox="0 0 18 18">
  <g id="Group_318049" data-name="Group 318049" transform="translate(-8.5 -7.726)">
    <g id="SXmock_Facebook_18_N" transform="translate(17.5 16.726)">
      <g id="Group_204" data-name="Group 204" transform="translate(-9 -9)">
        <rect id="SX_FacebookLogo_18_N" width="18" height="18" fill="none"/>
        <path id="Path_600787" data-name="Path 600787" d="M17,9.048a8,8,0,1,0-9.25,7.9V11.359H5.72V9.048H7.75V7.288a2.823,2.823,0,0,1,2.51-3.1,2.747,2.747,0,0,1,.513-.007,12.208,12.208,0,0,1,1.791.155V6.3h-1.01a1.155,1.155,0,0,0-1.3.991h0a1.277,1.277,0,0,0-.005.255v1.5h2.222l-.352,2.311H10.25v5.59A8,8,0,0,0,17,9.048Z"/>
      </g>
    </g>
  </g>
</svg>
