<svg xmlns="http://www.w3.org/2000/svg" width="18" height="18" viewBox="0 0 18 18">
  <g id="Group_318049" data-name="Group 318049" transform="translate(-8.5 -7.726)">
    <g id="SXmock_Presentation_18_N" transform="translate(17.5 16.726)">
      <g id="Group_132" data-name="Group 132" transform="translate(-9 -9)">
        <rect id="SX_Presentation_18_N" width="18" height="18" fill="none" opacity="0.08"/>
        <path id="Path_601493" data-name="Path 601493" d="M13,0H5A5.006,5.006,0,0,0,0,5V9a5.006,5.006,0,0,0,5,5H7.382L6.105,16.553a1,1,0,0,0,1.79.894L9,15.236l1.1,2.211a1,1,0,0,0,1.79-.894L10.618,14H13a5.006,5.006,0,0,0,5-5V5A5.006,5.006,0,0,0,13,0ZM5,2h8a2.985,2.985,0,0,1,2.22,1H2.78A2.985,2.985,0,0,1,5,2ZM16,9a3,3,0,0,1-3,3H5A3,3,0,0,1,2,9V5H16ZM3,7A1,1,0,0,1,4,6H7A1,1,0,0,1,7,8H4A1,1,0,0,1,3,7Zm0,3A1,1,0,0,1,4,9h7a1,1,0,0,1,0,2H4A1,1,0,0,1,3,10Z"/>
      </g>
    </g>
  </g>
</svg>
