<svg xmlns="http://www.w3.org/2000/svg" width="18" height="18" viewBox="0 0 18 18">
  <g id="Group_318049" data-name="Group 318049" transform="translate(-8.5 -8.726)">
    <g id="SXmock_Brochure_18_N" transform="translate(17.5 17.726)">
      <g id="Group_109" data-name="Group 109" transform="translate(-9 -9)">
        <rect id="SX_Brochure_18_N" width="18" height="18" fill="none" opacity="0.08"/>
        <path id="Path_601446" data-name="Path 601446" d="M11.25,9H9.75a.75.75,0,0,1,0-1.5h1.5a.75.75,0,0,1,0,1.5Zm3.25,1.75a.75.75,0,0,0-.75-.75h-4a.75.75,0,0,0,0,1.5h4A.75.75,0,0,0,14.5,10.75ZM18,5v5a5.006,5.006,0,0,1-5,5H12v2a1,1,0,0,1-1,1H5a5.006,5.006,0,0,1-5-5V8A5.006,5.006,0,0,1,5,3H6V1A1,1,0,0,1,7,0h6A5.006,5.006,0,0,1,18,5ZM8,2V3.48a.72.72,0,0,1,.167-.07.757.757,0,0,1,.651.17l.157.138-.047-.2a.751.751,0,0,1,.8-.915l.406.038-.36-.35A.742.742,0,0,1,9.607,2Zm.15,14L6.425,14.813c-.02-.013-.03-.034-.048-.049a.941.941,0,0,1-.152-.157l-.011-.016A.979.979,0,0,1,6,14V13H3.75a.75.75,0,0,1,0-1.5H6v-1H4.75a.75.75,0,0,1,0-1.5H6V5H5A3,3,0,0,0,2,8v5a3,3,0,0,0,3,3ZM10,15H9.343l.657.452ZM16,5a3,3,0,0,0-3-3h-.422l-.769.176.893.87a.747.747,0,0,1,.157.851.76.76,0,0,1-.751.433l-1.486-.14.334,1.456a.751.751,0,0,1-1.227.731l-1.144-1L8,6.647V13h5a3,3,0,0,0,3-3Z"/>
      </g>
    </g>
  </g>
</svg>
