<svg xmlns="http://www.w3.org/2000/svg" width="18" height="18" viewBox="0 0 18 18">
  <g id="Group_318049" data-name="Group 318049" transform="translate(-8.5 -7.726)">
    <g id="SXmock_Flyer_18_N" transform="translate(17.5 16.726)">
      <rect id="Canvas" width="18" height="18" transform="translate(-9 -9)" fill="#ff13dc" opacity="0"/>
      <g id="Group_687" data-name="Group 687">
        <path id="Path_601556" data-name="Path 601556" d="M12,0H6A5.006,5.006,0,0,0,1,5v8a5.006,5.006,0,0,0,5,5h6a5.006,5.006,0,0,0,5-5V5a5.006,5.006,0,0,0-5-5Zm3,13a3,3,0,0,1-3,3H6a3,3,0,0,1-3-3V5A3,3,0,0,1,6,2h6a3,3,0,0,1,3,3Z" transform="translate(-9 -9)"/>
        <path id="Path_601557" data-name="Path 601557" d="M6,12H9a1,1,0,0,0,0-2H6a1,1,0,0,0,0,2Z" transform="translate(-9 -9)"/>
        <path id="Path_601558" data-name="Path 601558" d="M12,13H6a1,1,0,0,0,0,2h6a1,1,0,0,0,0-2Z" transform="translate(-9 -9)"/>
        <path id="Path_601559" data-name="Path 601559" d="M6.66,6.793,6.5,7.42a.511.511,0,0,0,.075.418.469.469,0,0,0,.359.2l.622.033.223.607a.483.483,0,0,0,.3.293.455.455,0,0,0,.4-.056L9,8.565l.522.355A.461.461,0,0,0,9.781,9a.456.456,0,0,0,.146-.024.483.483,0,0,0,.3-.293l.223-.607.622-.033a.469.469,0,0,0,.359-.2A.511.511,0,0,0,11.5,7.42l-.162-.627.484-.409a.507.507,0,0,0,0-.768l-.484-.409.162-.627a.511.511,0,0,0-.075-.418.469.469,0,0,0-.359-.2l-.622-.033-.223-.607a.484.484,0,0,0-.3-.293A.455.455,0,0,0,9.781,3a.461.461,0,0,0-.259.08L9,3.435,8.478,3.08a.46.46,0,0,0-.4-.056.484.484,0,0,0-.3.293l-.223.607-.622.033a.469.469,0,0,0-.359.2.511.511,0,0,0-.075.418l.162.627-.484.409a.507.507,0,0,0,0,.768ZM9,5A1,1,0,1,1,8,6,1,1,0,0,1,9,5Z" transform="translate(-9 -9)"/>
      </g>
    </g>
  </g>
</svg>
