<svg xmlns="http://www.w3.org/2000/svg" width="18" height="18" viewBox="0 0 18 18">
  <g id="Group_318049" data-name="Group 318049" transform="translate(-8.5 -8.726)">
    <g id="SXmock_Instagram_18_N" transform="translate(17.5 17.726)">
      <g id="Group_232" data-name="Group 232" transform="translate(-9 -9)">
        <rect id="SX_InstagramLogo_18_N" width="18" height="18" fill="none"/>
        <path id="Path_601683" data-name="Path 601683" d="M9.005,2.441c2.138,0,2.391.009,3.232.047a4.355,4.355,0,0,1,1.484.275,2.637,2.637,0,0,1,1.516,1.516,4.373,4.373,0,0,1,.275,1.484c.038.844.047,1.1.047,3.232s-.009,2.391-.047,3.232a4.357,4.357,0,0,1-.275,1.485,2.637,2.637,0,0,1-1.516,1.516,4.424,4.424,0,0,1-1.484.275c-.844.037-1.1.047-3.232.047s-2.391-.01-3.232-.047a4.408,4.408,0,0,1-1.485-.275,2.478,2.478,0,0,1-.919-.6,2.473,2.473,0,0,1-.6-.919A4.432,4.432,0,0,1,2.5,12.227c-.037-.844-.047-1.1-.047-3.232S2.46,6.6,2.5,5.763a4.406,4.406,0,0,1,.275-1.484,2.478,2.478,0,0,1,.6-.919,2.473,2.473,0,0,1,.919-.6,4.38,4.38,0,0,1,1.485-.275C6.614,2.45,6.867,2.441,9.005,2.441ZM9.005,1c-2.173,0-2.445.009-3.3.047a5.836,5.836,0,0,0-1.941.372,3.9,3.9,0,0,0-1.419.925A3.918,3.918,0,0,0,1.422,3.76,5.872,5.872,0,0,0,1.05,5.7C1.013,6.557,1,6.829,1,9s.01,2.444.047,3.3a5.856,5.856,0,0,0,.372,1.941,3.9,3.9,0,0,0,.925,1.419,3.909,3.909,0,0,0,1.416.922,5.852,5.852,0,0,0,1.941.372C6.557,16.991,6.829,17,9,17s2.444-.009,3.3-.047a5.83,5.83,0,0,0,1.941-.372,4.087,4.087,0,0,0,2.338-2.338A5.846,5.846,0,0,0,16.95,12.3c.038-.853.047-1.125.047-3.3s-.009-2.445-.047-3.3a5.836,5.836,0,0,0-.372-1.941,3.752,3.752,0,0,0-.916-1.422,3.909,3.909,0,0,0-1.416-.922,5.867,5.867,0,0,0-1.941-.372C11.449,1.009,11.177,1,9.005,1Zm0,3.891A4.111,4.111,0,1,0,13.115,9,4.111,4.111,0,0,0,9.005,4.891Zm0,6.777A2.667,2.667,0,1,1,11.671,9,2.667,2.667,0,0,1,9.005,11.668Zm5.232-6.939a.96.96,0,1,1-.96-.96A.959.959,0,0,1,14.237,4.729Z" stroke="#000" stroke-width="0.5"/>
      </g>
    </g>
  </g>
</svg>
