<svg xmlns="http://www.w3.org/2000/svg" width="18" height="18" viewBox="0 0 18 18">
  <g id="Group_318049" data-name="Group 318049" transform="translate(-8.5 -7.726)">
    <g id="SXmock_Invitation_18_N" transform="translate(17.5 16.726)">
      <g id="Group_141" data-name="Group 141" transform="translate(-9 -9)">
        <rect id="SX_Invitation_18_N" width="18" height="18" fill="none" opacity="0.08"/>
        <path id="Path_601512" data-name="Path 601512" d="M11,12H7a1,1,0,0,1,0-2h4a1,1,0,0,1,0,2Zm3,2a1,1,0,0,0-1-1H5a1,1,0,0,0,0,2h8A1,1,0,0,0,14,14Zm4-1V5a5.006,5.006,0,0,0-5-5H5A5.006,5.006,0,0,0,0,5v8a5.006,5.006,0,0,0,5,5h8A5.006,5.006,0,0,0,18,13ZM13,2a3,3,0,0,1,3,3v8a3,3,0,0,1-3,3H5a3,3,0,0,1-3-3V5A3,3,0,0,1,5,2ZM7.952,8.989l1.073-.551,1.081.543a1,1,0,0,0,.533.081.878.878,0,0,0,.57-.358,1,1,0,0,0,.144-.652l-.206-1.121.846-.8a.992.992,0,0,0,.263-.509.86.86,0,0,0-.168-.64,1,1,0,0,0-.576-.336l-1.2-.163L9.777,3.438a1.008,1.008,0,0,0-.4-.383.869.869,0,0,0-1.151.392L7.7,4.488l-1.169.169a1,1,0,0,0-.516.249.868.868,0,0,0-.253.624.985.985,0,0,0,.273.617l.854.8L6.7,8.058a.983.983,0,0,0,.092.579.865.865,0,0,0,1.161.352ZM7.268,7.654l0,0ZM8.3,5.917a.748.748,0,0,0,.561-.4l.147-.289.148.289a.75.75,0,0,0,.566.4L10,5.95l-.182.172A.754.754,0,0,0,9.6,6.8l.049.271-.29-.145a.746.746,0,0,0-.679,0l-.289.148L8.438,6.8a.755.755,0,0,0-.227-.675l-.182-.17Zm-.108-.742h0Z"/>
      </g>
    </g>
  </g>
</svg>
