<svg xmlns="http://www.w3.org/2000/svg" xmlns:xlink="http://www.w3.org/1999/xlink" viewBox="0 0 1047.97 129.68">
  <defs>
    <symbol id="templates44" data-name="templates44" viewBox="0 0 40 42">
      <g id="ICONS">
        <path id="Path_130846" data-name="Path 130846" d="M18.5,35h-9A6.5,6.5,0,0,1,3,28.5V17H9.5A7.5,7.5,0,0,0,17,9.5V3h9.5A6.51,6.51,0,0,1,33,8.66a1.5,1.5,0,1,0,3-.38A9.52,9.52,0,0,0,26.5,0H16.13a7.51,7.51,0,0,0-5.51,2.41L2,11.76a7.48,7.48,0,0,0-2,5.09V28.5A9.52,9.52,0,0,0,9.5,38h9a1.5,1.5,0,0,0,0-3ZM4.19,13.79l8.63-9.34A4.47,4.47,0,0,1,14,3.56V9.5A4.49,4.49,0,0,1,9.5,14H4C4.09,13.93,4.13,13.86,4.19,13.79Z"/>
        <path id="Path_130847" data-name="Path 130847" d="M37.28,23.32l-1.53-.69,1.8-4.07a.36.36,0,0,1,0-.09,4,4,0,0,0-.39-3.73A3.94,3.94,0,0,0,33.94,13h0A3.88,3.88,0,0,0,31,14.37l-8.85,10-.06.07a4.74,4.74,0,0,0-1,4.08,4.62,4.62,0,0,0,2.6,3.2l1.53.69-1.79,4.07a.36.36,0,0,0,0,.09,4,4,0,0,0,.38,3.73A3.94,3.94,0,0,0,27.06,42,3.88,3.88,0,0,0,30,40.63l8.85-10,.07-.07a4.79,4.79,0,0,0,1-4.09A4.61,4.61,0,0,0,37.28,23.32Zm-.67,5.36-8.87,10a.87.87,0,0,1-.68.34,1,1,0,0,1-.94-1,.9.9,0,0,1,.08-.36l3-6.78L25,29a1.72,1.72,0,0,1-.79-2.29,2.46,2.46,0,0,1,.22-.34l8.87-10a.89.89,0,0,1,.68-.34,1,1,0,0,1,.94,1,.9.9,0,0,1-.08.36l-3,6.78L36,26.05a1.72,1.72,0,0,1,.79,2.29,1.52,1.52,0,0,1-.22.34Z"/>
      </g>
    </symbol>
    <symbol id="mobile-round44" data-name="mobile-round44" viewBox="0 0 100 100">
      <circle id="Ellipse_25120" data-name="Ellipse 25120" cx="50" cy="50" r="50" style="fill: #f0f0f0"/>
      <g id="ICONS-2" data-name="ICONS">
        <path id="Path_127677" data-name="Path 127677" d="M57.27,30.91H42.73a5.46,5.46,0,0,0-5.46,5.45V63.64a5.46,5.46,0,0,0,5.46,5.45H57.27a5.46,5.46,0,0,0,5.46-5.45V36.36A5.46,5.46,0,0,0,57.27,30.91Zm1.82,32.73a1.81,1.81,0,0,1-1.82,1.81H42.73a1.81,1.81,0,0,1-1.82-1.81V36.36a1.81,1.81,0,0,1,1.82-1.81H57.27a1.81,1.81,0,0,1,1.82,1.81Z"/>
        <circle id="Ellipse_24755" data-name="Ellipse 24755" cx="50" cy="61.82" r="1.82"/>
        <path id="Path_127678" data-name="Path 127678" d="M51.82,36.36H48.18a1.82,1.82,0,0,0,0,3.64h3.64a1.82,1.82,0,0,0,0-3.64Z"/>
      </g>
    </symbol>
    <symbol id="desktop-round44" data-name="desktop-round44" viewBox="0 0 100 100">
      <circle id="Ellipse_25119" data-name="Ellipse 25119" cx="50" cy="50" r="50" style="fill: #f0f0f0"/>
      <g id="ICONS-3" data-name="ICONS">
        <path id="Path_127671" data-name="Path 127671" d="M60.91,30.34H39.09A9.24,9.24,0,0,0,30,39.7V50.94a9.24,9.24,0,0,0,9.09,9.36h9.09v5.62H44.54a1.87,1.87,0,0,0,0,3.74H55.45a1.87,1.87,0,0,0,0-3.74H51.82V60.3h9.09A9.24,9.24,0,0,0,70,50.94V39.7A9.24,9.24,0,0,0,60.91,30.34Zm5.45,20.6a5.53,5.53,0,0,1-5.45,5.61H39.09a5.53,5.53,0,0,1-5.45-5.61V39.7a5.53,5.53,0,0,1,5.45-5.62H60.91a5.53,5.53,0,0,1,5.45,5.62Z"/>
      </g>
    </symbol>
    <symbol id="blank44" data-name="blank44" viewBox="0 0 39 40">
      <g id="Illu">
        <path id="Path_127567" data-name="Path 127567" d="M37.5,30H32V24.5a1.5,1.5,0,0,0-3,0V30H23.5a1.5,1.5,0,0,0,0,3H29v5.5a1.5,1.5,0,0,0,3,0V33h5.5a1.5,1.5,0,0,0,0-3Z"/>
        <path id="Path_127568" data-name="Path 127568" d="M26.5,17H33v2.5a1.5,1.5,0,0,0,3,0V16.85a7.48,7.48,0,0,0-2-5.09L25.38,2.41A7.51,7.51,0,0,0,19.87,0H9.5A9.52,9.52,0,0,0,0,9.5v19A9.52,9.52,0,0,0,9.5,38h9a1.5,1.5,0,0,0,0-3h-9A6.5,6.5,0,0,1,3,28.5V9.5A6.5,6.5,0,0,1,9.5,3H19V9.5A7.5,7.5,0,0,0,26.5,17ZM22,3.56a4.47,4.47,0,0,1,1.18.89l8.63,9.34c.06.07.1.14.15.21H26.5A4.49,4.49,0,0,1,22,9.5Z"/>
      </g>
    </symbol>
    <symbol id="premium44" data-name="premium44" viewBox="0 0 41.81 41.81">
      <circle id="Ellipse_24535" data-name="Ellipse 24535" cx="20.91" cy="20.91" r="20.91"/>
      <g id="SL_PremiumV3_18_N" data-name="SL PremiumV3 18 N">
        <g id="premium_testing" data-name="premium testing">
          <g id="Group_173774" data-name="Group 173774">
            <path id="Path_124080" data-name="Path 124080" d="M15.13,24.9H26.69a1,1,0,0,0,1-.83c.2-1.46,1.7-6.36,1.93-8A1,1,0,0,0,28.75,15a.92.92,0,0,0-.65.14A24.79,24.79,0,0,0,25.71,17c-.44.38-.86.73-1.29,1.05-.35-.62-.69-1.28-1-1.93-.54-1-1.09-2.06-1.65-3a1,1,0,0,0-1.64,0c-.57.93-1.13,2-1.68,3-.34.64-.68,1.28-1,1.87-.42-.32-.85-.68-1.29-1a22.33,22.33,0,0,0-2.39-1.84,1,1,0,0,0-1.33.29.94.94,0,0,0-.14.65c.23,1.68,1.72,6.55,1.92,8a1,1,0,0,0,1,.83Z" style="fill: #ebcf2d"/>
            <path id="Path_124081" data-name="Path 124081" d="M26.48,27.1H15.33a1.24,1.24,0,0,0,0,2.48H26.48a1.24,1.24,0,0,0,0-2.48Z" style="fill: #ebcf2d"/>
          </g>
        </g>
      </g>
    </symbol>
    <symbol id="brand44" data-name="brand44" viewBox="0 0 36 38">
      <g id="Illu-2" data-name="Illu">
        <path id="Path_127453" data-name="Path 127453" d="M12.5,28h7.8a6.7,6.7,0,0,0,6.6-7.91,6,6,0,0,0-4.8-4.85l.15-.26a6.4,6.4,0,0,0-.07-6.52A5.58,5.58,0,0,0,17.46,6h-5A1.5,1.5,0,0,0,11,7.5v19A1.5,1.5,0,0,0,12.5,28ZM14,9h3.46a2.6,2.6,0,0,1,2.21,1.1,3.48,3.48,0,0,1-.06,3.45A2.41,2.41,0,0,1,17.7,15H14Zm0,9h6.06c.8,0,3.47.19,3.88,2.58A3.7,3.7,0,0,1,20.3,25H14Z"/>
        <path id="Path_127454" data-name="Path 127454" d="M18,38A18,18,0,0,0,36,20V9.5A9.52,9.52,0,0,0,26.5,0H9.5A9.52,9.52,0,0,0,0,9.5V20A18,18,0,0,0,18,38ZM3,9.5A6.5,6.5,0,0,1,9.5,3h17A6.5,6.5,0,0,1,33,9.5V20A15,15,0,0,1,3,20Z"/>
      </g>
    </symbol>
    <symbol id="premium-templates44" data-name="premium-templates44" viewBox="0 0 42 42">
      <g id="ICONS-4" data-name="ICONS">
        <path id="Path_129506" data-name="Path 129506" d="M9.5,17A7.5,7.5,0,0,0,17,9.5V3h9.5A6.5,6.5,0,0,1,33,9.5v4a1.5,1.5,0,0,0,3,0v-4A9.52,9.52,0,0,0,26.5,0H16.13a7.51,7.51,0,0,0-5.51,2.41L2,11.76a7.48,7.48,0,0,0-2,5.09V28.5A9.52,9.52,0,0,0,9.5,38h5a1.5,1.5,0,0,0,0-3h-5A6.5,6.5,0,0,1,3,28.5V17ZM12.82,4.45A4.47,4.47,0,0,1,14,3.56V9.5A4.49,4.49,0,0,1,9.5,14H4l.15-.21Z"/>
        <path id="Path_129507" data-name="Path 129507" d="M30,18A12,12,0,1,0,42,30,12,12,0,0,0,30,18Zm0,21a9,9,0,1,1,9-9A9,9,0,0,1,30,39Z"/>
        <g id="premium_testing-2" data-name="premium testing">
          <g id="Group_173774-2" data-name="Group 173774">
            <path id="Path_124080-2" data-name="Path 124080" d="M26.67,32.17h6.66a.56.56,0,0,0,.55-.48c.11-.84,1-3.65,1.1-4.6a.54.54,0,0,0-.47-.62.57.57,0,0,0-.38.08,13.82,13.82,0,0,0-1.37,1.05c-.25.21-.5.42-.74.6-.2-.36-.4-.74-.6-1.12-.31-.59-.62-1.18-1-1.7a.58.58,0,0,0-.8-.14.62.62,0,0,0-.14.14c-.33.54-.65,1.14-1,1.74-.19.37-.39.74-.58,1.08-.24-.18-.49-.39-.74-.6a15.63,15.63,0,0,0-1.37-1.06.56.56,0,0,0-.77.17.55.55,0,0,0-.08.38c.13,1,1,3.77,1.11,4.6a.55.55,0,0,0,.54.48Z"/>
            <path id="Path_124081-2" data-name="Path 124081" d="M33.21,33.43H26.79a.72.72,0,1,0-.05,1.43h6.47a.71.71,0,0,0,.68-.74A.72.72,0,0,0,33.21,33.43Z"/>
          </g>
        </g>
      </g>
    </symbol>
    <symbol id="cloud-storage44" data-name="cloud-storage44" viewBox="0 0 41 39">
      <path d="M39.5,29H34V23.5a1.5,1.5,0,0,0-3,0V29H25.5a1.5,1.5,0,0,0,0,3H31v5.5a1.5,1.5,0,0,0,3,0V32h5.5a1.5,1.5,0,0,0,0-3Z"/>
      <path d="M14.75,9.57A1.49,1.49,0,0,0,16.5,8.49c.11-.43,1.22-4.23,4.85-5.24a5.07,5.07,0,0,1,.56-.13h0A7.32,7.32,0,0,1,23.67,3a7.11,7.11,0,0,1,3.82,1.31,6.38,6.38,0,0,1,2.66,5.25,5.63,5.63,0,0,1-.1.92,1.5,1.5,0,0,0,1.18,1.76h.07c2.33.35,5.7,2.62,5.7,5.8a6.8,6.8,0,0,1-.16,1.49,1.5,1.5,0,0,0,2.94.63h0A10.13,10.13,0,0,0,40,18.06c0-4.09-3.34-7.31-6.85-8.43v0a9.33,9.33,0,0,0-3.93-7.73A10.54,10.54,0,0,0,21.37.17h0c-.27,0-.54.12-.8.19A10.21,10.21,0,0,0,14,6.44,8.37,8.37,0,0,0,5.9,10a9.34,9.34,0,0,0-1.37,4.54A6.09,6.09,0,0,0,0,21.05,5.59,5.59,0,0,0,5.48,26h15a1.5,1.5,0,0,0,0-3h-15A2.61,2.61,0,0,1,3,20.73a2.11,2.11,0,0,1,0-.35,2.93,2.93,0,0,1,2.82-3H6a1.44,1.44,0,0,0,1.2-.47,1.47,1.47,0,0,0,.39-1.22,6.32,6.32,0,0,1,.85-4.1C9.64,9.74,11.94,9,14.75,9.57Z"/>
    </symbol>
    <symbol id="remove-watermark44" data-name="remove-watermark44" viewBox="0 0 42 42">
      <path d="M16,15.17l2.87,3a1.25,1.25,0,0,0,1.83-1.71l0,0-2.9-3,0,0a7,7,0,1,0-4.6,12.21h.62V23.05h-.57a4.58,4.58,0,0,1-4.54-4.51A4.45,4.45,0,0,1,16,15.17Z"/>
      <path d="M13.5,32H7.34A4.35,4.35,0,0,1,3,27.67V7.33A4.35,4.35,0,0,1,7.34,3H28.66A4.35,4.35,0,0,1,33,7.33V13.5a1.5,1.5,0,0,0,3,0V7.33A7.34,7.34,0,0,0,28.66,0H7.34A7.34,7.34,0,0,0,0,7.33V27.67A7.34,7.34,0,0,0,7.34,35H13.5a1.5,1.5,0,0,0,0-3Z"/>
      <path d="M27.11,15.28a16.31,16.31,0,0,1,2.5-.26A8.45,8.45,0,0,0,21.4,8.56a8.08,8.08,0,0,0-5.68,2.18h0l.22.09c.31.13.83.38,1,.48s.38.2.56.32l.6.38a5.42,5.42,0,0,1,3.31-1,6,6,0,0,1,5.71,4.23Z"/>
      <path d="M13.39,17.44a1.24,1.24,0,0,0-1.78,1.74L15.43,23a9.94,9.94,0,0,0,.92.8,15.38,15.38,0,0,1,1.23-2.21l-.39-.35Z"/>
      <path d="M24.5,28.5a1.5,1.5,0,0,0,0,3h11a1.5,1.5,0,0,0,0-3Z"/>
      <path d="M30,18A12,12,0,1,0,42,30,12,12,0,0,0,30,18Zm0,21a9,9,0,1,1,9-9A9,9,0,0,1,30,39Z"/>
    </symbol>
    <symbol id="premium-remove-background44" data-name="premium-remove-background44" viewBox="0 0 42 43">
      <path d="M30,19A12,12,0,1,0,42,31,12,12,0,0,0,30,19Zm0,21a9,9,0,1,1,9-9A9,9,0,0,1,30,40Z"/>
      <path d="M34.51,27.47a.57.57,0,0,0-.38.08,13.82,13.82,0,0,0-1.37,1.05c-.25.21-.5.42-.74.6-.2-.36-.4-.74-.6-1.11-.31-.59-.63-1.19-1-1.7a.57.57,0,0,0-.8-.15.5.5,0,0,0-.14.15c-.33.53-.65,1.14-1,1.73-.19.37-.39.74-.58,1.08-.24-.18-.49-.39-.74-.6a15.63,15.63,0,0,0-1.37-1.06.56.56,0,0,0-.77.17.55.55,0,0,0-.08.38c.13,1,1,3.77,1.11,4.6a.55.55,0,0,0,.54.48h6.66a.55.55,0,0,0,.54-.48c.12-.84,1-3.66,1.11-4.6a.54.54,0,0,0-.47-.63Z"/>
      <path d="M33.21,34.44H26.79a.71.71,0,1,0-.06,1.42h6.48a.71.71,0,0,0,0-1.42Z"/>
      <circle cx="22.5" cy="8.5" r="2.5"/>
      <path d="M30,8.43A5.5,5.5,0,0,0,24.44,3H24V6.51A2.46,2.46,0,0,1,24.52,10l0,0H30Z" style="isolation: isolate;opacity: 0.300000011920929"/>
      <rect x="10" y="3" width="7" height="7" style="isolation: isolate;opacity: 0.300000011920929"/>
      <path d="M22.5,11a2.49,2.49,0,0,1-2-1H17v5.13l3.46,2.44,3.2-3.3A2.5,2.5,0,0,1,24,14V10.49A2.47,2.47,0,0,1,22.5,11Z" style="isolation: isolate;opacity: 0.300000011920929"/>
      <path d="M3,16.54l4.43-4.43A3.69,3.69,0,0,1,10,11V10H3Z" style="isolation: isolate;opacity: 0.300000011920929"/>
      <path d="M24.44,0H8.56A8.5,8.5,0,0,0,0,8.43V19.57A8.5,8.5,0,0,0,8.56,28H12.5a1.5,1.5,0,0,0,0-3H8.56a5.53,5.53,0,0,1-5.44-4.33l6.43-6.44a.71.71,0,0,1,1,0h0c.06.07,9.25,6.53,9.25,6.53a1.51,1.51,0,0,0,1.94-.19l4.08-4.22A1.31,1.31,0,0,1,27.2,16L31,17.41a1.5,1.5,0,0,0,1.92-.9A1.48,1.48,0,0,0,33,16V8.43A8.5,8.5,0,0,0,24.44,0ZM30,13.86l-1.77-.65a4.32,4.32,0,0,0-4.57,1.06l-3.2,3.3L12.56,12a3.72,3.72,0,0,0-5.13.1L3,16.54V8.43A5.5,5.5,0,0,1,8.56,3H24.44A5.5,5.5,0,0,1,30,8.43Z"/>
    </symbol>
    <symbol id="convert44" data-name="convert44" viewBox="0 0 40.01 38">
      <g>
        <path d="M3.24,25.76A14,14,0,0,0,6.89,28a19.28,19.28,0,0,0,3,1v.69A3.32,3.32,0,0,0,10.8,32a3.36,3.36,0,0,0,2.38,1,3.2,3.2,0,0,0,2.05-.74A7.52,7.52,0,0,0,22.51,38h10A7.5,7.5,0,0,0,40,30.5v-10a7.5,7.5,0,0,0-7.5-7.5H25V11.56a1.5,1.5,0,1,0-3,0V14.5a1.5,1.5,0,0,0,1.5,1.5h9A4.49,4.49,0,0,1,37,20.5h0v10a4.49,4.49,0,0,1-4.5,4.5h-10A4.5,4.5,0,0,1,18,30.5v-1l3.13-3.22.07-.07a3.2,3.2,0,0,0,.45-3.66A1.45,1.45,0,0,0,23.4,22a7.57,7.57,0,0,0,1.13-2.14,1.5,1.5,0,0,0-2.85-1A4.27,4.27,0,0,1,21,20.22a1.51,1.51,0,0,0-.28,1.13L15.54,16l0-.05A3.26,3.26,0,0,0,13.18,15a3.35,3.35,0,0,0-2.38,1,3.28,3.28,0,0,0-.93,2.32V19a8.68,8.68,0,0,1-1.25.13h-.2a5,5,0,0,1-1.5-.2,6.4,6.4,0,0,1-1.77-.84,3.32,3.32,0,0,0-4.6,4.6,15.75,15.75,0,0,0,1.76,2.22C2.61,25.19,2.92,25.49,3.24,25.76Zm-.13-5.14a.3.3,0,0,1,.39,0h0a9.61,9.61,0,0,0,2.57,1.21,8,8,0,0,0,2.34.32H8.7a21.73,21.73,0,0,0,4.17-.68V18.32a.32.32,0,0,1,.09-.23.36.36,0,0,1,.22-.09.25.25,0,0,1,.2.09L19,23.88a.2.2,0,0,1,0,.27l-5.6,5.76a.25.25,0,0,1-.2.09.34.34,0,0,1-.23-.1.35.35,0,0,1-.08-.22v-3.1a24.17,24.17,0,0,1-4.81-1.34,11.4,11.4,0,0,1-2.88-1.77c-.25-.21-.49-.44-.72-.67A12.52,12.52,0,0,1,3.06,21,.33.33,0,0,1,3.11,20.62Z"/>
        <path d="M1.33,7.34a1.51,1.51,0,0,0,1.85-1h0A4.45,4.45,0,0,1,3.78,5a1.48,1.48,0,0,0-.34-2.09,1.49,1.49,0,0,0-2.09.33l-.05.07a7.57,7.57,0,0,0-1,2.2,1.49,1.49,0,0,0,1,1.85Z"/>
        <path d="M21.76,6.29a1.5,1.5,0,1,0,2.9-.75v0a7.47,7.47,0,0,0-1-2.2A1.5,1.5,0,0,0,21.1,4.91l0,.07a4.48,4.48,0,0,1,.61,1.31Z"/>
        <path d="M15.51,3h1.91a1.52,1.52,0,0,0,1.52-1.5A1.49,1.49,0,0,0,17.47,0h-2a1.5,1.5,0,1,0,0,3Z"/>
        <path d="M7.51,3H9.42a1.5,1.5,0,0,0,0-3H7.48A1.48,1.48,0,0,0,6,1.49H6A1.51,1.51,0,0,0,7.51,3Z"/>
        <path d="M1.51,15A1.5,1.5,0,0,0,3,13.5V11.56a1.5,1.5,0,0,0-3,0V13.5A1.5,1.5,0,0,0,1.51,15Z"/>
      </g>
    </symbol>
    <symbol id="brand-libraries44" data-name="brand-libraries44" viewBox="0 0 41 42">
      <path d="M26.5,15H33v.5a1.5,1.5,0,0,0,3,0v-.65a7.48,7.48,0,0,0-2-5.09.49.49,0,0,0-.13-.12l-8.56-7.3A7.54,7.54,0,0,0,19.87,0H9.5A9.52,9.52,0,0,0,0,9.5v19A9.52,9.52,0,0,0,9.5,38h7a1.5,1.5,0,0,0,0-3h-7A6.5,6.5,0,0,1,3,28.5V9.5A6.5,6.5,0,0,1,9.5,3H19V7.5A7.5,7.5,0,0,0,26.5,15ZM23.31,4.57l8.55,7.28L32,12H26.5A4.49,4.49,0,0,1,22,7.5V3.56a4.47,4.47,0,0,1,1.18.89Z"/>
      <path d="M37.72,20H24.28A3.28,3.28,0,0,0,21,23.28V32.5A9.52,9.52,0,0,0,30.5,42h1A9.52,9.52,0,0,0,41,32.5V23.28A3.28,3.28,0,0,0,37.72,20ZM38,32.5A6.5,6.5,0,0,1,31.5,39h-1A6.5,6.5,0,0,1,24,32.5V23.28a.27.27,0,0,1,.28-.28H37.72a.27.27,0,0,1,.28.28Z"/>
      <path d="M33.84,28.62A3.84,3.84,0,0,0,34,27.5c0-2.16-1.45-3.5-3.78-3.5H27.5A1.5,1.5,0,0,0,26,25.5v9A1.5,1.5,0,0,0,27.5,36h3c4.79,0,5.5-2.51,5.5-4A3.61,3.61,0,0,0,33.84,28.62ZM29,27h1.22c.78,0,.78.14.78.5s-.08.5-.5.5H29Zm1.5,6H29V31h1.5c2.5,0,2.5.73,2.5,1S33,33,30.5,33Z"/>
    </symbol>
    <symbol id="adobe-stock44" data-name="adobe-stock44" viewBox="0 0 40 40">
      <circle cx="22.5" cy="9.5" r="2.5"/>
      <path d="M8.56,29H16.5a1.5,1.5,0,0,0,0-3H8.56A5.5,5.5,0,0,1,3,20.57v-.79l6.55-6.55a.72.72,0,0,1,1,0v0l9,8.35a1.49,1.49,0,0,0,2,0l4.9-4.53a.49.49,0,0,1,.53-.06l3.5,2.64a1.5,1.5,0,0,0,2.1-.3,1.48,1.48,0,0,0,.3-.9v-10A8.5,8.5,0,0,0,24.44,0H8.56A8.5,8.5,0,0,0,0,8.43V20.57A8.5,8.5,0,0,0,8.56,29ZM3,8.43A5.5,5.5,0,0,1,8.56,3H24.44A5.5,5.5,0,0,1,30,8.43v7.05l-1.18-.89-.12-.09a3.52,3.52,0,0,0-4.11.34l-3.94,3.64-8-7.37a3.71,3.71,0,0,0-5.23,0L3,15.54Z"/>
      <path d="M36.87,23H25.13A3.14,3.14,0,0,0,22,26.15h0v10.7A3.14,3.14,0,0,0,25.12,40H36.87A3.14,3.14,0,0,0,40,36.85h0V26.15A3.14,3.14,0,0,0,36.88,23ZM31.34,34.47a2.38,2.38,0,0,1-1.05.83,4.16,4.16,0,0,1-1.6.29,6.23,6.23,0,0,1-1.22-.12,3.88,3.88,0,0,1-.93-.3.2.2,0,0,1-.1-.2V33.53a.07.07,0,0,1,0-.06h.08a4.35,4.35,0,0,0,1.08.48,4.13,4.13,0,0,0,1.11.15,1.68,1.68,0,0,0,1-.21.6.6,0,0,0,.3-.52.69.69,0,0,0-.1-.37,1,1,0,0,0-.34-.32,4.07,4.07,0,0,0-.66-.33l-.6-.25a4.28,4.28,0,0,1-1.15-.67,1.92,1.92,0,0,1-.58-.77,2.4,2.4,0,0,1-.15-.88,2.15,2.15,0,0,1,1.29-2,3.61,3.61,0,0,1,1.59-.31,7.83,7.83,0,0,1,1.08.07,2.45,2.45,0,0,1,.8.23.17.17,0,0,1,.09.16v1.36l0,.06s-.05,0-.08,0a3.31,3.31,0,0,0-.85-.3,4.79,4.79,0,0,0-1-.11,2.88,2.88,0,0,0-.59.06,1.32,1.32,0,0,0-.39.15.63.63,0,0,0-.23.23.73.73,0,0,0-.07.29.6.6,0,0,0,.11.34,1.31,1.31,0,0,0,.36.3c.23.13.46.25.7.36l.45.16a4.73,4.73,0,0,1,1.24.7,2.12,2.12,0,0,1,.63.8,2.3,2.3,0,0,1,.18.93,2.09,2.09,0,0,1-.38,1.25ZM34.78,34a.66.66,0,0,0,.52.17h.46a.11.11,0,0,1,0,.08v1a.15.15,0,0,1-.1.16,3.89,3.89,0,0,1-.49.12,3.68,3.68,0,0,1-.58.05,1.77,1.77,0,0,1-1.23-.41,1.74,1.74,0,0,1-.45-1.32v-3h-.72c-.07,0-.1,0-.1-.11V29.55c0-.06,0-.1.11-.1H33c0-.13,0-.28,0-.46s0-.37,0-.55,0-.33.05-.44,0-.05,0-.06a.1.1,0,0,1,.07,0l1.44-.18h.06a.1.1,0,0,1,0,.07c0,.19,0,.44,0,.76s0,.61,0,.91h1.06c.05,0,.07,0,.07.1v1.21a.08.08,0,0,1-.06.09H34.66v2.6a1,1,0,0,0,.12.58Z"/>
    </symbol>
    <symbol id="trim-video44" data-name="trim-video44" viewBox="0 0 41.09 40.09">
      <g id="Illu-3" data-name="Illu">
        <path id="Path_127606" data-name="Path 127606" d="M36.5,29A4.5,4.5,0,1,0,32,24.5h0a4,4,0,0,0,.15,1.09l-4.83,3.12-10-6.47a1.5,1.5,0,1,0-1.63,2.52h0l8.87,5.74-8.87,5.74a1.5,1.5,0,1,0,1.63,2.52l10-6.47,4.7,3c0,.06,0,.11,0,.17a4.54,4.54,0,1,0,1.17-3l-3.09-2,3.73-2.41A4.43,4.43,0,0,0,36.5,29Zm0-6A1.5,1.5,0,1,1,35,24.5h0A1.5,1.5,0,0,1,36.5,23Zm0,11A1.5,1.5,0,1,1,35,35.5,1.5,1.5,0,0,1,36.5,34Z"/>
        <path id="Path_127607" data-name="Path 127607" d="M13.44,9.23A1.6,1.6,0,0,0,11,10.5v8A1.6,1.6,0,0,0,12.68,20a1.48,1.48,0,0,0,.76-.24l6.81-4a1.45,1.45,0,0,0,.57-2,1.42,1.42,0,0,0-.57-.57Z"/>
        <path id="Path_127608" data-name="Path 127608" d="M9.5,29h2a1.5,1.5,0,0,0,0-3h-2A6.5,6.5,0,0,1,3,19.5V9.5A6.5,6.5,0,0,1,9.5,3h12A6.5,6.5,0,0,1,28,9.5v8a1.5,1.5,0,0,0,3,0v-8A9.52,9.52,0,0,0,21.5,0H9.5A9.52,9.52,0,0,0,0,9.5v10A9.52,9.52,0,0,0,9.5,29Z"/>
      </g>
    </symbol>
    <symbol id="crop-video44" data-name="crop-video44" viewBox="0 0 37 39">
      <g id="Illu-4" data-name="Illu">
        <path id="Path_127612" data-name="Path 127612" d="M9.5,29h4a1.5,1.5,0,0,0,0-3h-4A6.5,6.5,0,0,1,3,19.5V9.5A6.5,6.5,0,0,1,9.5,3h12A6.5,6.5,0,0,1,28,9.5v8a1.5,1.5,0,0,0,3,0v-8A9.52,9.52,0,0,0,21.5,0H9.5A9.52,9.52,0,0,0,0,9.5v10A9.52,9.52,0,0,0,9.5,29Z"/>
        <path id="Path_127613" data-name="Path 127613" d="M13.44,9.23A1.6,1.6,0,0,0,11,10.5v8A1.6,1.6,0,0,0,12.68,20a1.48,1.48,0,0,0,.76-.24l6.81-4a1.45,1.45,0,0,0,.57-2,1.42,1.42,0,0,0-.57-.57Z"/>
        <path id="Path_131255" data-name="Path 131255" d="M35.5,33H23.65a.65.65,0,0,1-.65-.65V20.5a1.5,1.5,0,0,0-3,0V22H18.5a1.5,1.5,0,0,0,0,3H20v7.35A3.66,3.66,0,0,0,23.65,36H31v1.5a1.5,1.5,0,0,0,3,0V36h1.5a1.5,1.5,0,0,0,0-3Z"/>
        <path id="Path_131256" data-name="Path 131256" d="M25,23.5A1.5,1.5,0,0,0,26.5,25h3.85a.65.65,0,0,1,.65.65V29.5a1.5,1.5,0,0,0,3,0V25.65A3.66,3.66,0,0,0,30.35,22H26.5A1.5,1.5,0,0,0,25,23.5Z"/>
      </g>
    </symbol>
    <symbol id="resize-video44" data-name="resize-video44" viewBox="0 0 41 41">
      <g id="Illu-5" data-name="Illu">
        <path id="Path_127689" data-name="Path 127689" d="M20.25,13.23l-6.81-4A1.6,1.6,0,0,0,11,10.5v8A1.6,1.6,0,0,0,12.68,20a1.48,1.48,0,0,0,.76-.24l6.81-4a1.45,1.45,0,0,0,.57-2,1.42,1.42,0,0,0-.57-.57Z"/>
        <path id="Path_127690" data-name="Path 127690" d="M16.5,26h-7A6.5,6.5,0,0,1,3,19.5V9.5A6.5,6.5,0,0,1,9.5,3h12A6.5,6.5,0,0,1,28,9.5v7a1.5,1.5,0,0,0,3,0v-7A9.52,9.52,0,0,0,21.5,0H9.5A9.52,9.52,0,0,0,0,9.5v10A9.52,9.52,0,0,0,9.5,29h7a1.5,1.5,0,0,0,0-3Z"/>
        <path id="Path_127691" data-name="Path 127691" d="M39.5,33A1.5,1.5,0,0,0,38,34.5,3.5,3.5,0,0,1,34.5,38H32.91a1.49,1.49,0,0,0-2.82,0H27.5A3.5,3.5,0,0,1,24,34.5V31.91a1.49,1.49,0,0,0,0-2.82V27.5A3.5,3.5,0,0,1,27.5,24a1.5,1.5,0,0,0,0-3A6.5,6.5,0,0,0,21,27.5v7A6.5,6.5,0,0,0,27.5,41h7A6.5,6.5,0,0,0,41,34.5,1.5,1.5,0,0,0,39.5,33Z"/>
        <path id="Path_127692" data-name="Path 127692" d="M39.5,21h-6a1.5,1.5,0,0,0,0,3h2.38l-4.44,4.44a1.5,1.5,0,1,0,2.08,2.16l0,0L38,26.12V28.5a1.5,1.5,0,0,0,3,0h0v-6A1.5,1.5,0,0,0,39.5,21Z"/>
        <circle id="Ellipse_24762" data-name="Ellipse 24762" cx="27.5" cy="30.5" r="1.5"/>
        <circle id="Ellipse_24763" data-name="Ellipse 24763" cx="31.5" cy="34.5" r="1.5"/>
      </g>
    </symbol>
    <symbol id="remove-background44" data-name="remove-background44" viewBox="0 0 40 34">
      <g id="Illu-6" data-name="Illu">
        <circle id="Ellipse_24863" data-name="Ellipse 24863" cx="27.01" cy="11" r="3"/>
        <path id="Path_129340" data-name="Path 129340" d="M24.19,12H20v8.09l.92.91h4.5l2.19-2.08A3.69,3.69,0,0,1,29,18.17V13.23A3,3,0,0,1,24.19,12Z" style="isolation: isolate;opacity: 0.300000011920929"/>
        <path id="Path_129341" data-name="Path 129341" d="M30.51,3H29V8.77A2.92,2.92,0,0,1,29.82,12H37V9.5A6.51,6.51,0,0,0,30.51,3Z" style="isolation: isolate;opacity: 0.300000011920929"/>
        <path id="Path_129342" data-name="Path 129342" d="M9.11,13.87A3.68,3.68,0,0,1,11,13V12H3v7.57Z" style="isolation: isolate;opacity: 0.300000011920929"/>
        <rect id="Rectangle_163137" data-name="Rectangle 163137" x="11" y="3" width="9" height="9" style="isolation: isolate;opacity: 0.300000011920929"/>
        <path id="Path_129343" data-name="Path 129343" d="M40,9.5A9.52,9.52,0,0,0,30.5,0H9.5A9.52,9.52,0,0,0,0,9.5v15A9.52,9.52,0,0,0,9.5,34h21a9.51,9.51,0,0,0,9.08-6.72,1.49,1.49,0,0,0,.2-.8,9.39,9.39,0,0,0,.22-2ZM9.5,3h21A6.5,6.5,0,0,1,37,9.5V23.3L32.35,19a3.51,3.51,0,0,0-4.74,0l-4.15,3.93a.52.52,0,0,1-.36.14.61.61,0,0,1-.42-.23L13.83,14a3.5,3.5,0,0,0-4.73-.1L3,19.57V9.5A6.5,6.5,0,0,1,9.5,3Zm21,28H9.5A6.5,6.5,0,0,1,3,24.5v-.83l8.09-7.55a.5.5,0,0,1,.65,0l8.77,8.7a3.51,3.51,0,0,0,4.94.28l.08-.08,4.1-3.89a.5.5,0,0,1,.67,0l6.21,5.8A6.51,6.51,0,0,1,30.5,31Z"/>
      </g>
    </symbol>
    <symbol id="resize44" data-name="resize44" viewBox="0 0 30.52 30.52">
      <path id="Path_125937" data-name="Path 125937" d="M22.89,0H7.63A7.64,7.64,0,0,0,0,7.63V22.89a7.63,7.63,0,0,0,7.63,7.63H22.89a7.62,7.62,0,0,0,7.63-7.63V7.63A7.63,7.63,0,0,0,22.89,0Zm4.58,22.89a4.58,4.58,0,0,1-4.58,4.58H7.63a4.58,4.58,0,0,1-4.58-4.58h0V7.63A4.58,4.58,0,0,1,7.63,3.05H22.89a4.58,4.58,0,0,1,4.58,4.58h0Z"/>
      <path id="Path_125938" data-name="Path 125938" d="M22.89,6.11h-6.1a1.53,1.53,0,0,0,0,3.05h2.43l-3.63,3.62A1.53,1.53,0,0,0,17.7,15l.05-.05,3.62-3.63v2.41a1.53,1.53,0,1,0,3.05,0V7.63A1.53,1.53,0,0,0,22.9,6.1Z"/>
      <path id="Path_125939" data-name="Path 125939" d="M18.18,19.9v0h0Z"/>
      <circle id="Ellipse_24609" data-name="Ellipse 24609" cx="10.32" cy="15.26" r="1.53"/>
      <path id="Path_125940" data-name="Path 125940" d="M15.35,15.34a1.52,1.52,0,0,0-2.15.14,1.54,1.54,0,0,0,.14,2.16l.15.11a1.52,1.52,0,0,0,.93.32,1.57,1.57,0,0,0,1.21-.6,1.51,1.51,0,0,0-.26-2.12l0,0Z"/>
      <circle id="Ellipse_24610" data-name="Ellipse 24610" cx="5.92" cy="15.26" r="1.53"/>
      <path id="Path_125941" data-name="Path 125941" d="M16.68,21.72l.29,0a1.58,1.58,0,1,0-1.79-1.34A1.6,1.6,0,0,0,16.68,21.72Z"/>
      <circle id="Ellipse_24611" data-name="Ellipse 24611" cx="16.79" cy="24.59" r="1.53"/>
    </symbol>
    <symbol id="sparkvideo44" data-name="sparkvideo44" viewBox="0 0 44 42.43">
      <rect width="44" height="42.43" rx="8" style="fill: #370000"/>
      <path d="M30.74,25.78c0,.22,0,.86,0,1,0,1.78-.69,2.76-2.32,3v2.11a5.23,5.23,0,0,0,2.88-.81,2.8,2.8,0,0,0,1.28-1.83,12.22,12.22,0,0,0,.33-3.3l0-4.62-4.45,0v4.46Zm-5.5-.05c0,.22,0,.87,0,1,0,1.82-.76,2.82-2.4,3.07V31.9a4.82,4.82,0,0,0,3-.84,3.58,3.58,0,0,0,1.48-2,14,14,0,0,0,.15-3.29V21.33l-4.59,0v4.39Zm-11.93-9c0-.22,0-.93,0-1,0-1.78.78-2.83,2.42-3.08V10.47a4.47,4.47,0,0,0-2.83.83,3.73,3.73,0,0,0-1.51,2A13.75,13.75,0,0,0,11,16.74V21h4.63V16.69Zm7.8-.12v4.54H16.62v-4.3a15.24,15.24,0,0,1,.24-3.5,3.43,3.43,0,0,1,1.38-2,4.91,4.91,0,0,1,2.94-.85v2.11c-1.63.24-2.42,1.33-2.42,3.1v.88Z" style="fill: #fa0f00;fill-rule: evenodd"/>
      <path d="M20.48,26.23a5.21,5.21,0,0,1-3.15-2.68.89.89,0,0,1-.08-.17l-.76.13s0,.11.07.17A6,6,0,0,0,20.34,27l.18,0,.13-.74ZM20,28.66A7.74,7.74,0,0,1,14.75,24l-.06-.17-.75.12a1.21,1.21,0,0,1,.05.18,8.49,8.49,0,0,0,5.9,5.3l.18,0,.14-.74-.18,0Zm-.45,2.4a10.22,10.22,0,0,1-7.35-6.68l-.05-.17-.75.12.05.17a11,11,0,0,0,8,7.31l.18,0,.14-.75-.18,0Zm8.07-12a6,6,0,0,0-3.8-3.25l-.17,0-.14.74.18.05a5.28,5.28,0,0,1,3.17,2.63c0,.06.05.12.08.17l.76-.13c0-.05-.05-.11-.07-.17Zm2.57-.43a8.47,8.47,0,0,0-5.92-5.25l-.17,0-.14.74.18,0a7.79,7.79,0,0,1,5.3,4.63.85.85,0,0,0,.06.17l.75-.12-.06-.17Zm2.52-.43a11,11,0,0,0-8-7.22l-.18,0-.13.74.17,0A10.23,10.23,0,0,1,32,18.37l.06.17.75-.12c0-.06,0-.12,0-.17Z" style="fill: #fabfbc"/>
    </symbol>
    <symbol id="sparkpage44" data-name="sparkpage44" viewBox="0 0 44 42.43">
      <rect width="44" height="42.43" rx="8" style="fill: #370000"/>
      <rect x="17.38" y="18.67" width="9.4" height="0.73" style="fill: #fabfbc"/>
      <rect x="17.39" y="16.38" width="12.63" height="0.73" style="fill: #fabfbc"/>
      <rect x="17.37" y="20.95" width="9.4" height="0.73" style="fill: #fabfbc"/>
      <rect x="17.35" y="23.24" width="9.4" height="0.73" style="fill: #fabfbc"/>
      <rect x="14.32" y="25.52" width="12.42" height="0.73" style="fill: #fabfbc"/>
      <path d="M21.09,7.37l3.74,3.75,2.24,2.25-.54.53-2.61-2.61c-.82-.83-1.8-1-2.5-.39L11.6,20.21c-.67.65-.67,1.41.27,2.34l3,3-.51.73L8,19.79Zm2.27,27.52-3.75-3.7L17.34,29l.55-.53L20.52,31c.83.82,1.8,1,2.5.35s8.72-8.56,9.47-9.29.65-1.38-.26-2.3c-.56-.56-2.62-2.68-2.62-2.68l.42-.72,6,6.12Z" style="fill: #fa0f00;fill-rule: evenodd"/>
    </symbol>
    <symbol id="rush44" data-name="rush44" viewBox="0 0 44 42.9">
      <rect width="44" height="42.9" rx="8" style="fill: #00005b"/>
      <g>
        <path d="M11.12,30.25H7.61c-.16,0-.23-.09-.23-.26V11.29c0-.18.06-.27.17-.27l1.77,0,1.42,0,1.4,0h1.61a10.94,10.94,0,0,1,4.16.7,5.6,5.6,0,0,1,2.58,2,5.53,5.53,0,0,1,.9,3.23,5.11,5.11,0,0,1-.47,2.21,5.48,5.48,0,0,1-1.3,1.76A6.28,6.28,0,0,1,17.7,22c.2.25.47.64.83,1.17l1.16,1.74c.43.64.85,1.28,1.27,1.93s.81,1.25,1.16,1.8.6.92.78,1.23a.34.34,0,0,1,.07.24.12.12,0,0,1-.12.12H18.56a.75.75,0,0,1-.26-.05.47.47,0,0,1-.15-.13c-.22-.32-.49-.66-.81-1.17s-.67-1.08-1-1.71-.72-1.25-1.09-1.86-.68-1.17-1-1.66a1.8,1.8,0,0,0-.33-.4.61.61,0,0,0-.37-.1H11.36V30C11.36,30.16,11.28,30.25,11.12,30.25Zm.24-10.55h2.3a6,6,0,0,0,1.93-.28,2.61,2.61,0,0,0,1.26-.88,2.42,2.42,0,0,0,.44-1.47,2.12,2.12,0,0,0-1-2,5.13,5.13,0,0,0-2.66-.61l-1.31,0c-.4,0-.72,0-1,0Z" style="fill: #99f"/>
        <path d="M37,16V27.05c0,.49,0,.93,0,1.31s0,.72,0,1,.06.46.08.66-.05.23-.21.23H33.73a.34.34,0,0,1-.35-.21c0-.12-.07-.25-.1-.38a2.38,2.38,0,0,1,0-.46,5.33,5.33,0,0,1-2.07,1.14,8.22,8.22,0,0,1-2,.27,6.13,6.13,0,0,1-2-.31,3.81,3.81,0,0,1-1.56-1,4.74,4.74,0,0,1-1-1.77,7.83,7.83,0,0,1-.3-2.54V16.08c0-.16.08-.3.24-.3H28a.21.21,0,0,1,.24.18v8.49a3.08,3.08,0,0,0,.6,1.91,2.11,2.11,0,0,0,1.77.69,3.49,3.49,0,0,0,1.24-.22,4.05,4.05,0,0,0,1-.61V16c0-.14.08-.21.26-.21h3.7a.2.2,0,0,1,.21.16V16Z" style="fill: #99f"/>
      </g>
    </symbol>
    <symbol id="upload44" data-name="upload44" viewBox="0 0 32.09 32.09">
      <path id="Path_125841" data-name="Path 125841" d="M14.87,8.53a1.6,1.6,0,0,1,2.26-.09l.09.09,6,6.42a1.61,1.61,0,0,1-2.35,2.19l-3.18-3.43V30.49a1.61,1.61,0,0,1-3.21,0V13.71l-3.18,3.43A1.61,1.61,0,1,1,8.91,15Z"/>
      <path id="Path_125842" data-name="Path 125842" d="M30.49,19.25a1.59,1.59,0,0,1-1.6-1.6h0V8a4.81,4.81,0,0,0-4.82-4.81H8A4.81,4.81,0,0,0,3.21,8h0v9.63a1.61,1.61,0,0,1-3.21,0V8A8,8,0,0,1,8,0H24.07a8,8,0,0,1,8,8v9.63a1.6,1.6,0,0,1-1.59,1.6Z"/>
    </symbol>
    <symbol id="download44" data-name="download44" viewBox="0 0 32.04 32.03">
      <path id="Path_125841-2" data-name="Path 125841" d="M14.84,23.52a1.62,1.62,0,0,0,2.27.08l.08-.08,5.95-6.41a1.6,1.6,0,1,0-2.35-2.18l-3.17,3.42V1.6a1.6,1.6,0,0,0-3.2,0V18.35l-3.18-3.42A1.6,1.6,0,1,0,8.9,17.11Z" style="fill: #000b1d"/>
      <path id="Path_125842-2" data-name="Path 125842" d="M30.43,12.81a1.6,1.6,0,0,0-1.6,1.6h0V24a4.8,4.8,0,0,1-4.8,4.8H8A4.8,4.8,0,0,1,3.2,24h0V14.41a1.6,1.6,0,0,0-3.2,0V24a8,8,0,0,0,8,8H24a8,8,0,0,0,8-8V14.41a1.6,1.6,0,0,0-1.6-1.6Z" style="fill: #000b1d"/>
    </symbol>
  </defs>
  <g id="Layer_2" data-name="Layer 2">
    <use width="40" height="42" transform="translate(90 1)" xlink:href="#templates44"/>
  </g>
  <g id="Sprite">
    <use width="100" height="100" transform="translate(287.28 -28.91)" xlink:href="#mobile-round44"/>
    <use width="100" height="100" transform="translate(184.24 -27.74)" xlink:href="#desktop-round44"/>
    <use width="39" height="40" transform="translate(47.75 3)" xlink:href="#blank44"/>
    <use width="41.81" height="41.81" transform="translate(1.13 1.09)" xlink:href="#premium44"/>
    <use width="36" height="38" transform="translate(136 3.26)" xlink:href="#brand44"/>
    <g>
      <path d="M14.46,47.53a1.06,1.06,0,0,1-1.14,1.08h-.21v.8s0,0,0,0l-.29,0s0,0,0,0V46.94a1.21,1.21,0,0,0,0-.18h0a2.11,2.11,0,0,1,.75-.16A.88.88,0,0,1,14.46,47.53Zm-1.35-.59V48.3a.9.9,0,0,0,.23,0,.74.74,0,0,0,.78-.77.6.6,0,0,0-.63-.67A1.16,1.16,0,0,0,13.11,46.94Z"/>
      <path d="M15.14,46.63a0,0,0,0,1,0,0,1.42,1.42,0,0,1,0,.27.82.82,0,0,1,.64-.34s0,0,0,0v.28a0,0,0,0,1,0,0,.73.73,0,0,0-.63.29v1.33s0,0,0,0h-.28a0,0,0,0,1,0,0V47.16c0-.16,0-.4,0-.51l0,0Z"/>
      <path d="M16.38,47.64a.63.63,0,0,0,.67.68,1.08,1.08,0,0,0,.5-.11s0,0,0,0v.23a.05.05,0,0,1,0,0,1.35,1.35,0,0,1-.56.11.9.9,0,0,1-.94-1,.92.92,0,0,1,.88-1,.76.76,0,0,1,.78.8.91.91,0,0,1,0,.21l0,0a2.2,2.2,0,0,1-.42,0Zm.75-.25h.26v0a.47.47,0,0,0-.47-.48.54.54,0,0,0-.53.53Z"/>
      <path d="M18.14,48.57a0,0,0,0,1,0,0V47.05c0-.18,0-.32,0-.4s0,0,0,0h.25l0,0a1,1,0,0,1,0,.19.85.85,0,0,1,.6-.25.56.56,0,0,1,.53.29,1,1,0,0,1,.67-.29c.29,0,.65.15.65.76v1.2s0,0,0,0h-.28a0,0,0,0,1,0,0V47.38c0-.28-.12-.5-.4-.5a.62.62,0,0,0-.49.24,1.47,1.47,0,0,1,0,.25v1.17a0,0,0,0,1,0,0h-.28a0,0,0,0,1,0,0V47.36c0-.3-.14-.48-.4-.48a.65.65,0,0,0-.48.23v1.44s0,0,0,0Z"/>
      <path d="M21.41,46a.19.19,0,0,1,.2-.2.18.18,0,0,1,.2.2.2.2,0,1,1-.4,0Zm0,.62a0,0,0,0,1,0,0h.28s0,0,0,0v1.89a0,0,0,0,1,0,0h-.28a0,0,0,0,1,0,0Z"/>
      <path d="M23.86,48.15a3.18,3.18,0,0,0,0,.4s0,0,0,0H23.6s0,0,0,0a.79.79,0,0,1,0-.17.8.8,0,0,1-.58.23c-.34,0-.66-.17-.66-.75V46.65s0,0,0,0h.29l0,0v1.17c0,.31.14.5.42.5a.63.63,0,0,0,.47-.21V46.65s0,0,0,0h.28s0,0,0,0Z"/>
      <path d="M24.45,48.57a0,0,0,0,1,0,0V47.05c0-.18,0-.32,0-.4s0,0,0,0h.25s0,0,0,0a1,1,0,0,1,0,.19.85.85,0,0,1,.6-.25.56.56,0,0,1,.53.29,1,1,0,0,1,.67-.29c.29,0,.64.15.64.76v1.2s0,0,0,0h-.28a0,0,0,0,1,0,0V47.38c0-.28-.12-.5-.41-.5a.65.65,0,0,0-.49.24,1.47,1.47,0,0,1,0,.25v1.17s0,0,0,0h-.28a0,0,0,0,1,0,0V47.36c0-.3-.14-.48-.4-.48a.68.68,0,0,0-.49.23v1.44s0,0,0,0Z"/>
      <path d="M27.59,47.91s0,0,0,0v-.22a.06.06,0,0,1,0,0l1.09-1.58s0,0,0,0h.34s0,0,0,0v1.58h.32s0,0,0,0l0,.23s0,0,0,0h-.27v.64s0,0,0,0h-.27a0,0,0,0,1,0,0v-.64Zm1.17-.77c0-.4,0-.68,0-.81h0c-.08.18-.72,1.11-.85,1.3h.84Z"/>
      <path d="M29.68,47.91s0,0,0,0v-.22a.06.06,0,0,1,0,0l1.09-1.58s0,0,0,0h.34s0,0,0,0v1.58h.32s0,0,0,0l0,.23s0,0,0,0h-.27v.64s0,0,0,0h-.27s0,0,0,0v-.64Zm1.17-.77c0-.4,0-.68,0-.81h0c-.09.18-.73,1.11-.85,1.3h.84Z"/>
    </g>
    <g>
      <path d="M12.5,111.77c-.26,0-.35.13-.35.25s.07.21.37.33.57.32.57.6-.3.57-.72.57a1.2,1.2,0,0,1-.53-.11s0,0,0,0v-.27s0,0,0,0a1,1,0,0,0,.54.16c.26,0,.38-.11.38-.26s-.09-.23-.36-.34-.57-.32-.57-.6.24-.54.68-.54a1,1,0,0,1,.47.09s0,0,0,0v.24s0,0,0,0A.92.92,0,0,0,12.5,111.77Z"/>
      <path d="M15.18,112.44A1.07,1.07,0,0,1,14,113.52h-.21v.8s0,0,0,0l-.29,0s0,0,0,0v-2.49a1.21,1.21,0,0,0,0-.18,0,0,0,0,1,0,0,2,2,0,0,1,.74-.16A.89.89,0,0,1,15.18,112.44Zm-1.35-.59v1.36a.86.86,0,0,0,.23,0,.74.74,0,0,0,.78-.77.6.6,0,0,0-.64-.67A1.06,1.06,0,0,0,13.83,111.85Z"/>
      <path d="M17,113.14a1.15,1.15,0,0,0,0,.19s0,0,0,0a1.59,1.59,0,0,1-.75.17c-.42,0-.74-.21-.74-.63s.4-.61.89-.61h.28v-.1a.4.4,0,0,0-.45-.4,1,1,0,0,0-.51.13s0,0,0,0v-.24s0,0,0,0a1.29,1.29,0,0,1,.57-.12.67.67,0,0,1,.72.75Zm-.32-.59h-.27c-.38,0-.57.13-.57.35s.12.36.47.36a.94.94,0,0,0,.37-.07Z"/>
      <path d="M17.79,111.54a0,0,0,0,1,0,0,1.42,1.42,0,0,1,0,.27.82.82,0,0,1,.64-.34s0,0,0,0v.28a0,0,0,0,1,0,0,.73.73,0,0,0-.63.29v1.33s0,0,0,0h-.28a0,0,0,0,1,0,0v-1.38c0-.16,0-.4,0-.51a0,0,0,0,1,0,0Z"/>
      <path d="M20.39,111.54s0,0,0,0-.72.71-.86.85,0,0,0,0l1,1s0,0,0,0h-.38a.05.05,0,0,1,0,0l-.91-.95v.94s0,0,0,0h-.28a0,0,0,0,1,0,0v-2.81s0,0,0,0h.28s0,0,0,0v1.79l.85-.87s0,0,0,0Z"/>
      <path d="M22.4,112.44a1.06,1.06,0,0,1-1.14,1.08h-.2v.8s0,0,0,0l-.3,0s0,0,0,0v-2.67h0a2.11,2.11,0,0,1,.75-.16A.88.88,0,0,1,22.4,112.44Zm-1.34-.59v1.36a.78.78,0,0,0,.22,0,.74.74,0,0,0,.78-.77.6.6,0,0,0-.63-.67A1.06,1.06,0,0,0,21.06,111.85Z"/>
      <path d="M24.2,113.14v.21a1.61,1.61,0,0,1-.75.17c-.43,0-.75-.21-.75-.63s.4-.61.9-.61h.27v-.1a.4.4,0,0,0-.45-.4,1,1,0,0,0-.51.13s0,0,0,0v-.24s0,0,0,0a1.29,1.29,0,0,1,.57-.12.68.68,0,0,1,.73.75Zm-.33-.59h-.26c-.39,0-.58.13-.58.35s.13.36.48.36a.86.86,0,0,0,.36-.07Z"/>
      <path d="M25.57,113.15c.5,0,.78.21.78.56s-.38.71-1,.71-.88-.31-.88-.6c0-.14.11-.32.39-.55a.47.47,0,0,1-.1-.3.52.52,0,0,1,.07-.25.63.63,0,0,1-.27-.54.68.68,0,0,1,.75-.68,1.26,1.26,0,0,1,.3,0h.64s0,0,0,0v.23s0,0,0,0h-.36a.56.56,0,0,1,.14.39.65.65,0,0,1-.73.66.83.83,0,0,1-.22,0,.26.26,0,0,0,0,.15.29.29,0,0,0,.07.16Zm-.49.27a.65.65,0,0,0-.27.37c0,.19.22.38.59.38s.64-.21.64-.41-.25-.3-.54-.32Zm-.16-1.25a.41.41,0,1,0,.82,0,.41.41,0,1,0-.82,0Z"/>
      <path d="M26.82,112.55a.63.63,0,0,0,.67.68,1,1,0,0,0,.5-.11s0,0,0,0v.23a.05.05,0,0,1,0,0,1.31,1.31,0,0,1-.56.11.9.9,0,0,1-.94-1,.93.93,0,0,1,.88-1,.76.76,0,0,1,.78.8c0,.1,0,.17,0,.21l0,0a2.13,2.13,0,0,1-.41,0Zm.75-.25h.26v0a.47.47,0,0,0-.47-.48.54.54,0,0,0-.53.53Z"/>
      <path d="M28.4,112.82s0,0,0,0v-.22a.06.06,0,0,1,0,0L29.48,111s0,0,0,0h.34s0,0,0,0v1.58h.33s0,0,0,0l0,.23a.05.05,0,0,1,0,0h-.27v.64s0,0,0,0h-.27s0,0,0,0v-.64Zm1.16-.77c0-.4,0-.67,0-.81h0c-.09.18-.73,1.11-.85,1.3h.83Z"/>
      <path d="M30.49,112.82s0,0,0,0v-.22s0,0,0,0L31.56,111s0,0,.05,0H32s0,0,0,0v1.58h.32s0,0,0,0l0,.23s0,0,0,0H32v.64a0,0,0,0,1,0,0h-.28a0,0,0,0,1,0,0v-.64Zm1.16-.77c0-.4,0-.67,0-.81h0c-.09.18-.73,1.11-.85,1.3h.83Z"/>
    </g>
    <g>
      <path d="M60.36,111.77c-.26,0-.35.13-.35.25s.07.21.37.33.57.32.57.6-.3.57-.71.57a1.28,1.28,0,0,1-.54-.11.05.05,0,0,1,0,0v-.27s0,0,0,0a1,1,0,0,0,.54.16c.26,0,.38-.11.38-.26s-.08-.23-.36-.34-.57-.32-.57-.6.25-.54.68-.54a1,1,0,0,1,.47.09s0,0,0,0v.24s0,0,0,0A1,1,0,0,0,60.36,111.77Z"/>
      <path d="M63,112.44a1.06,1.06,0,0,1-1.14,1.08h-.2v.8s0,0,0,0l-.3,0s0,0,0,0v-2.67h0a2.11,2.11,0,0,1,.75-.16A.88.88,0,0,1,63,112.44Zm-1.34-.59v1.36a.78.78,0,0,0,.22,0,.74.74,0,0,0,.78-.77.6.6,0,0,0-.63-.67A1.06,1.06,0,0,0,61.7,111.85Z"/>
      <path d="M64.84,113.14v.21a1.61,1.61,0,0,1-.75.17c-.43,0-.75-.21-.75-.63s.4-.61.9-.61h.27v-.1a.4.4,0,0,0-.45-.4,1,1,0,0,0-.51.13s0,0,0,0v-.24s0,0,0,0a1.29,1.29,0,0,1,.57-.12.68.68,0,0,1,.73.75Zm-.33-.59h-.26c-.39,0-.58.13-.58.35s.13.36.48.36a.86.86,0,0,0,.36-.07Z"/>
      <path d="M65.65,111.54s0,0,0,0a1.57,1.57,0,0,1,0,.27.84.84,0,0,1,.64-.34s0,0,0,0v.28s0,0,0,0a.73.73,0,0,0-.62.29v1.33s0,0,0,0h-.29s0,0,0,0v-1.38c0-.16,0-.4,0-.51s0,0,0,0Z"/>
      <path d="M68.25,111.54s0,0,0,0-.71.71-.86.85v0l1,1s0,0,0,0H68a.05.05,0,0,1,0,0c-.21-.21-.71-.74-.9-.95v.94a0,0,0,0,1,0,0h-.28s0,0,0,0v-2.81s0,0,0,0H67s0,0,0,0v1.79l.84-.87s0,0,0,0Z"/>
      <path d="M69,113.48a.05.05,0,0,1,0,0c-.08-.24-.57-1.63-.67-1.89,0,0,0,0,0,0h.31s0,0,0,0c.33,1,.48,1.45.52,1.61h0c0-.16.2-.59.55-1.61,0,0,0,0,0,0h.28s0,0,0,0l-.69,1.89a.05.05,0,0,1,0,0Z"/>
      <path d="M70.37,111a.19.19,0,0,1,.2-.2.18.18,0,0,1,.2.2.2.2,0,0,1-.2.21A.19.19,0,0,1,70.37,111Zm0,.62a0,0,0,0,1,0,0h.28s0,0,0,0v1.89a0,0,0,0,1,0,0h-.28a0,0,0,0,1,0,0Z"/>
      <path d="M71.16,112.53a1,1,0,0,1,1.09-1l.25,0v-.88s0,0,0,0h.29s0,0,0,0v2.71s0,0,0,0a1.48,1.48,0,0,1-.67.15A.92.92,0,0,1,71.16,112.53Zm1.34-.7a.65.65,0,0,0-.26,0,.69.69,0,0,0-.74.72.65.65,0,0,0,.68.72.86.86,0,0,0,.32,0Z"/>
      <path d="M73.59,112.55a.63.63,0,0,0,.67.68,1.08,1.08,0,0,0,.5-.11s0,0,0,0v.23a.05.05,0,0,1,0,0,1.35,1.35,0,0,1-.56.11.9.9,0,0,1-.94-1,.92.92,0,0,1,.88-1,.76.76,0,0,1,.78.8.91.91,0,0,1,0,.21l0,0a2.2,2.2,0,0,1-.42,0Zm.75-.25h.26v0a.47.47,0,0,0-.47-.48.54.54,0,0,0-.53.53Z"/>
      <path d="M77.05,112.51a.92.92,0,1,1-1.83,0,.93.93,0,0,1,.92-1A.92.92,0,0,1,77.05,112.51Zm-1.49,0c0,.41.21.73.59.73s.56-.22.56-.72-.17-.72-.59-.72S75.56,112.07,75.56,112.5Z"/>
      <path d="M77.31,112.82s0,0,0,0v-.22a.06.06,0,0,1,0,0L78.39,111s0,0,0,0h.34s0,0,0,0v1.58h.33s0,0,0,0l0,.23s0,0,0,0h-.28v.64s0,0,0,0H78.5s0,0,0,0v-.64Zm1.17-.77c0-.4,0-.67,0-.81h0c-.09.18-.73,1.11-.85,1.3h.84Z"/>
      <path d="M79.4,112.82s0,0,0,0v-.22a.06.06,0,0,1,0,0L80.48,111s0,0,0,0h.34s0,0,0,0v1.58h.33s0,0,0,0l0,.23,0,0h-.27v.64s0,0,0,0h-.27s0,0,0,0v-.64Zm1.16-.77c0-.4,0-.67,0-.81h0c-.09.18-.73,1.11-.85,1.3h.83Z"/>
    </g>
    <g>
      <path d="M113.23,111.54s0,0,0,0,0,.18,0,.27a.82.82,0,0,1,.64-.34s0,0,0,0v.28a0,0,0,0,1,0,0,.75.75,0,0,0-.63.29v1.33s0,0,0,0H113a0,0,0,0,1,0,0v-1.38a3.94,3.94,0,0,0,0-.51,0,0,0,0,1,0,0Z"/>
      <path d="M115.79,113.06a1.77,1.77,0,0,0,0,.4s0,0,0,0h-.25s0,0,0,0a.79.79,0,0,1,0-.17.8.8,0,0,1-.58.23c-.34,0-.66-.17-.66-.75v-1.21s0,0,0,0h.28s0,0,0,0v1.17c0,.31.15.5.43.5a.61.61,0,0,0,.46-.21v-1.46s0,0,0,0h.28s0,0,0,0Z"/>
      <path d="M116.93,111.77c-.26,0-.35.13-.35.25s.07.21.37.33.57.32.57.6-.3.57-.72.57a1.2,1.2,0,0,1-.53-.11s0,0,0,0v-.27s0,0,0,0a1,1,0,0,0,.54.16c.25,0,.38-.11.38-.26s-.09-.23-.36-.34-.57-.32-.57-.6.24-.54.68-.54a.94.94,0,0,1,.46.09s0,0,0,0v.24s0,0,0,0A.92.92,0,0,0,116.93,111.77Z"/>
      <path d="M118.23,113.46s0,0,0,0h-.28a0,0,0,0,1,0,0v-2.81s0,0,0,0h.29s0,0,0,0v1.09a.82.82,0,0,1,.59-.23c.28,0,.65.14.65.77v1.18a0,0,0,0,1,0,0h-.28a0,0,0,0,1,0,0v-1.14c0-.31-.13-.52-.41-.52a.72.72,0,0,0-.5.22Z"/>
      <path d="M119.89,112.82s0,0,0,0v-.22a.06.06,0,0,1,0,0L121,111s0,0,.05,0h.34s0,0,0,0v1.58h.33s0,0,0,0l0,.23,0,0h-.27v.64a0,0,0,0,1,0,0h-.27s0,0,0,0v-.64Zm1.16-.77c0-.4,0-.67,0-.81h0c-.09.18-.73,1.11-.85,1.3h.83Z"/>
      <path d="M122,112.82s0,0,0,0v-.22s0,0,0,0l1.09-1.58s0,0,0,0h.34s0,0,0,0v1.58h.32s0,0,0,0l0,.23s0,0,0,0h-.27v.64a0,0,0,0,1,0,0h-.28a0,0,0,0,1,0,0v-.64Zm1.16-.77c0-.4,0-.67,0-.81h0c-.09.18-.73,1.11-.86,1.3h.84Z"/>
    </g>
    <g>
      <path d="M60.05,45.71s0,0,0,0v.94a1.18,1.18,0,0,1,.43-.08.88.88,0,0,1,.91.93,1.05,1.05,0,0,1-1.1,1.09,1.63,1.63,0,0,1-.55-.08,0,0,0,0,1,0,0V45.73s0,0,0,0Zm.41,1.17a1,1,0,0,0-.38.07v1.34a.78.78,0,0,0,1-.74A.6.6,0,0,0,60.46,46.88Z"/>
      <path d="M61.84,45.73s0,0,0,0h.28s0,0,0,0v2.41c0,.16.06.19.16.19h.08s0,0,0,0v.21s0,0,0,0a.39.39,0,0,1-.18,0c-.2,0-.39-.07-.39-.44Z"/>
      <path d="M64.16,48.23a1.15,1.15,0,0,0,0,.19s0,0,0,0a1.61,1.61,0,0,1-.75.17c-.42,0-.74-.21-.74-.63s.39-.61.89-.61h.28v-.1c0-.12-.06-.4-.46-.4a1.12,1.12,0,0,0-.5.12s0,0,0,0v-.24s0,0,0,0a1.23,1.23,0,0,1,.57-.12.67.67,0,0,1,.72.75Zm-.32-.59h-.27c-.39,0-.57.13-.57.35s.12.36.47.36a.94.94,0,0,0,.37-.07Z"/>
      <path d="M64.72,47.08c0-.14,0-.36,0-.43s0,0,0,0H65s0,0,0,0a1.78,1.78,0,0,1,0,.2.85.85,0,0,1,.61-.26c.28,0,.65.14.65.77v1.18a0,0,0,0,1,0,0H66a0,0,0,0,1,0,0V47.39c0-.3-.13-.51-.41-.51a.66.66,0,0,0-.5.25v1.41s0,0,0,0h-.29s0,0,0,0Z"/>
      <path d="M68.39,46.63s0,0,0,0l-.87.85v0l1,1s0,0,0,0h-.38l0,0-.9-.95v.94s0,0,0,0h-.28s0,0,0,0V45.73s0,0,0,0h.28s0,0,0,0v1.79l.84-.87,0,0Z"/>
      <path d="M68.56,47.91s0,0,0,0v-.22a.06.06,0,0,1,0,0l1.09-1.58s0,0,0,0H70s0,0,0,0v1.58h.32s0,0,0,0l0,.23s0,0,0,0h-.27v.64s0,0,0,0h-.27a0,0,0,0,1,0,0v-.64Zm1.17-.77c0-.4,0-.68,0-.81h0c-.08.18-.72,1.11-.85,1.3h.84Z"/>
      <path d="M70.65,47.91s0,0,0,0v-.22a.06.06,0,0,1,0,0l1.09-1.58s0,0,0,0h.34s0,0,0,0v1.58h.33s0,0,0,0l0,.23s0,0,0,0h-.28v.64s0,0,0,0h-.27s0,0,0,0v-.64Zm1.16-.77c0-.4,0-.68,0-.81h0c-.09.18-.73,1.11-.85,1.3h.83Z"/>
    </g>
    <g>
      <path d="M101,48.52a.05.05,0,0,1,0,0,.73.73,0,0,1-.3,0c-.29,0-.46-.14-.46-.52V46.92H100s0,0,0,0v-.22s0,0,0,0h.28c0-.15,0-.42,0-.51s0,0,0,0l.27-.05s0,0,0,0a4.67,4.67,0,0,0,0,.57H101s0,0,0,0v.23s0,0,0,0h-.43V48c0,.18.07.29.25.29a.57.57,0,0,0,.18,0s0,0,0,0Z"/>
      <path d="M101.57,47.64a.63.63,0,0,0,.67.68,1.1,1.1,0,0,0,.5-.11s0,0,0,0v.23a.05.05,0,0,1,0,0,1.4,1.4,0,0,1-.57.11.9.9,0,0,1-.94-1,.93.93,0,0,1,.89-1,.76.76,0,0,1,.78.8.91.91,0,0,1,0,.21s0,0,0,0a2.08,2.08,0,0,1-.41,0Zm.75-.25h.25a.06.06,0,0,0,0,0,.47.47,0,0,0-.47-.48.55.55,0,0,0-.54.53Z"/>
      <path d="M103.33,48.57a0,0,0,0,1,0,0V47.05c0-.18,0-.32,0-.4s0,0,0,0h.25s0,0,0,0a1,1,0,0,1,0,.19.85.85,0,0,1,.6-.25.56.56,0,0,1,.53.29,1,1,0,0,1,.67-.29c.29,0,.64.15.64.76v1.2s0,0,0,0h-.28a0,0,0,0,1,0,0V47.38c0-.28-.12-.5-.41-.5a.65.65,0,0,0-.49.24,1.47,1.47,0,0,1,0,.25v1.17s0,0,0,0h-.29s0,0,0,0V47.36c0-.3-.14-.48-.4-.48a.68.68,0,0,0-.49.23v1.44s0,0,0,0Z"/>
      <path d="M108.31,47.53a1.07,1.07,0,0,1-1.14,1.08H107v.8s0,0,0,0l-.29,0s0,0,0,0V46.94a1.21,1.21,0,0,0,0-.18h0a2,2,0,0,1,.74-.16A.89.89,0,0,1,108.31,47.53ZM107,46.94V48.3a.86.86,0,0,0,.23,0,.74.74,0,0,0,.78-.77.6.6,0,0,0-.64-.67A1.06,1.06,0,0,0,107,46.94Z"/>
      <path d="M108.73,45.73s0,0,0,0H109s0,0,0,0v2.41c0,.16.07.19.16.19h.08a0,0,0,0,1,0,0v.21s0,0,0,0a.44.44,0,0,1-.19,0c-.19,0-.38-.07-.38-.44Z"/>
      <path d="M111,48.23a1.15,1.15,0,0,0,0,.19s0,0,0,0a1.55,1.55,0,0,1-.74.17c-.43,0-.75-.21-.75-.63s.4-.61.9-.61h.27v-.1a.4.4,0,0,0-.45-.4,1.16,1.16,0,0,0-.51.12s0,0,0,0v-.24s0,0,0,0a1.29,1.29,0,0,1,.57-.12.67.67,0,0,1,.72.75Zm-.32-.59h-.26c-.39,0-.58.13-.58.35s.13.36.48.36a.86.86,0,0,0,.36-.07Z"/>
      <path d="M112.41,48.52a0,0,0,0,1,0,0,.73.73,0,0,1-.3,0c-.29,0-.47-.14-.47-.52V46.92h-.27s0,0,0,0v-.22a0,0,0,0,1,0,0h.27c0-.15,0-.42,0-.51a0,0,0,0,1,0,0L112,46s0,0,0,0,0,.37,0,.57h.42a0,0,0,0,1,0,0v.23a0,0,0,0,1,0,0H112V48c0,.18.07.29.24.29l.19,0s0,0,0,0Z"/>
      <path d="M113,47.64a.61.61,0,0,0,.66.68,1,1,0,0,0,.5-.11s0,0,0,0v.23s0,0,0,0a1.31,1.31,0,0,1-.56.11.9.9,0,0,1-.94-1,.93.93,0,0,1,.88-1,.76.76,0,0,1,.78.8c0,.1,0,.17,0,.21l0,0a2.13,2.13,0,0,1-.41,0Zm.74-.25H114v0a.47.47,0,0,0-.47-.48.55.55,0,0,0-.53.53Z"/>
      <path d="M115.27,46.86c-.26,0-.35.13-.35.25s.07.21.37.33.57.32.57.6-.3.57-.71.57a1.28,1.28,0,0,1-.54-.11.05.05,0,0,1,0,0v-.27s0,0,0,0a1,1,0,0,0,.54.16c.26,0,.38-.11.38-.26s-.08-.23-.36-.34-.57-.32-.57-.6.25-.54.68-.54a1,1,0,0,1,.47.09s0,0,0,0V47s0,0,0,0A1,1,0,0,0,115.27,46.86Z"/>
      <path d="M116.11,47.91s0,0,0,0v-.22s0,0,0,0l1.09-1.58s0,0,0,0h.34s0,0,0,0v1.58h.32s0,0,0,0l0,.23s0,0,0,0h-.27v.64s0,0,0,0h-.27a0,0,0,0,1,0,0v-.64Zm1.16-.77c0-.4,0-.68,0-.81h0c-.08.18-.72,1.11-.85,1.3h.84Z"/>
      <path d="M118.19,47.91s0,0,0,0v-.22a.06.06,0,0,1,0,0l1.09-1.58s0,0,0,0h.34s0,0,0,0v1.58H120s0,0,0,0l0,.23s0,0,0,0h-.27v.64s0,0,0,0h-.27a0,0,0,0,1,0,0v-.64Zm1.17-.77c0-.4,0-.68,0-.81h0c-.08.18-.72,1.11-.85,1.3h.84Z"/>
    </g>
    <g>
      <path d="M147.79,45.71s0,0,0,0v.94a1.23,1.23,0,0,1,.44-.08.88.88,0,0,1,.91.93,1.06,1.06,0,0,1-1.11,1.09,1.63,1.63,0,0,1-.55-.08s0,0,0,0V45.73s0,0,0,0Zm.4,1.17a1,1,0,0,0-.38.07v1.34a.74.74,0,0,0,.27,0,.72.72,0,0,0,.74-.77A.6.6,0,0,0,148.19,46.88Z"/>
      <path d="M149.83,46.63s0,0,0,0a1,1,0,0,1,0,.27.84.84,0,0,1,.64-.34s0,0,0,0v.28s0,0,0,0a.73.73,0,0,0-.62.29v1.33s0,0,0,0h-.28a0,0,0,0,1,0,0V47.16c0-.16,0-.4,0-.51s0,0,0,0Z"/>
      <path d="M152.18,48.23a1.15,1.15,0,0,0,0,.19s0,0,0,0a1.55,1.55,0,0,1-.74.17c-.43,0-.75-.21-.75-.63s.4-.61.9-.61h.27v-.1a.4.4,0,0,0-.45-.4,1.16,1.16,0,0,0-.51.12s0,0,0,0v-.24s0,0,0,0a1.29,1.29,0,0,1,.57-.12.67.67,0,0,1,.72.75Zm-.32-.59h-.26c-.39,0-.58.13-.58.35s.13.36.48.36a.86.86,0,0,0,.36-.07Z"/>
      <path d="M152.75,47.08c0-.14,0-.36,0-.43s0,0,0,0H153a.05.05,0,0,1,0,0s0,.11,0,.2a.87.87,0,0,1,.61-.26c.29,0,.65.14.65.77v1.18s0,0,0,0H154a0,0,0,0,1,0,0V47.39c0-.3-.13-.51-.41-.51a.64.64,0,0,0-.5.25v1.41a0,0,0,0,1,0,0h-.28s0,0,0,0Z"/>
      <path d="M154.75,47.62a1,1,0,0,1,1.08-1l.25,0v-.88s0,0,0,0h.29s0,0,0,0v2.51a1.41,1.41,0,0,0,0,.2,0,0,0,0,1,0,0,1.52,1.52,0,0,1-.68.15A.92.92,0,0,1,154.75,47.62Zm1.33-.7a.65.65,0,0,0-.26,0,.68.68,0,0,0-.73.72.64.64,0,0,0,.67.72.83.83,0,0,0,.32,0Z"/>
      <path d="M156.83,47.91s0,0,0,0v-.22s0,0,0,0l1.09-1.58s0,0,0,0h.34s0,0,0,0v1.58h.32s0,0,0,0l0,.23s0,0,0,0h-.27v.64s0,0,0,0H158a0,0,0,0,1,0,0v-.64Zm1.16-.77c0-.4,0-.68,0-.81h0c-.08.18-.72,1.11-.85,1.3H158Z"/>
      <path d="M158.91,47.91s0,0,0,0v-.22a.06.06,0,0,1,0,0L160,46.05s0,0,0,0h.34s0,0,0,0v1.58h.32s0,0,0,0l0,.23s0,0,0,0h-.27v.64s0,0,0,0h-.27a0,0,0,0,1,0,0v-.64Zm1.17-.77c0-.4,0-.68,0-.81h0c-.09.18-.72,1.11-.85,1.3h.84Z"/>
    </g>
    <g>
      <path d="M220.34,47.62a1,1,0,0,1,1.09-1l.25,0v-.88s0,0,0,0H222s0,0,0,0v2.51a1.41,1.41,0,0,0,0,.2s0,0,0,0a1.51,1.51,0,0,1-.67.15A.92.92,0,0,1,220.34,47.62Zm1.34-.7a.68.68,0,0,0-.26,0,.69.69,0,0,0-.74.72.65.65,0,0,0,.68.72.86.86,0,0,0,.32,0Z"/>
      <path d="M222.77,47.64a.63.63,0,0,0,.67.68,1.1,1.1,0,0,0,.5-.11s0,0,0,0v.23a.05.05,0,0,1,0,0,1.37,1.37,0,0,1-.57.11.9.9,0,0,1-.94-1,.93.93,0,0,1,.89-1,.76.76,0,0,1,.78.8.91.91,0,0,1,0,.21s0,0,0,0a2.08,2.08,0,0,1-.41,0Zm.75-.25h.25a.06.06,0,0,0,0,0,.48.48,0,0,0-.48-.48.55.55,0,0,0-.53.53Z"/>
      <path d="M225.1,46.86c-.27,0-.35.13-.35.25s.07.21.37.33.56.32.56.6-.3.57-.71.57a1.28,1.28,0,0,1-.54-.11.05.05,0,0,1,0,0v-.27s0,0,0,0a1,1,0,0,0,.54.16c.25,0,.38-.11.38-.26s-.09-.23-.37-.34-.56-.32-.56-.6.24-.54.68-.54a.94.94,0,0,1,.46.09s0,0,0,0V47s0,0,0,0A.92.92,0,0,0,225.1,46.86Z"/>
      <path d="M227.6,46.63s0,0,0,0l-.87.85v0l1,1s0,0,0,0h-.38l0,0-.9-.95v.94s0,0,0,0h-.28s0,0,0,0V45.73s0,0,0,0h.28s0,0,0,0v1.79l.85-.87s0,0,0,0Z"/>
      <path d="M228.86,48.52a.05.05,0,0,1,0,0,.73.73,0,0,1-.3,0c-.29,0-.46-.14-.46-.52V46.92h-.28s0,0,0,0v-.22s0,0,0,0h.28c0-.15,0-.42,0-.51s0,0,0,0l.27-.05s0,0,0,0a4.67,4.67,0,0,0,0,.57h.43s0,0,0,0v.23s0,0,0,0h-.43V48c0,.18.07.29.25.29a.57.57,0,0,0,.18,0s0,0,0,0Z"/>
      <path d="M230.88,47.6a.92.92,0,1,1-1.83,0,.93.93,0,0,1,.92-1A.91.91,0,0,1,230.88,47.6Zm-1.49,0c0,.41.21.73.59.73s.56-.22.56-.72-.17-.72-.58-.72S229.39,47.16,229.39,47.59Z"/>
      <path d="M233,47.53a1.06,1.06,0,0,1-1.14,1.08h-.21v.8s0,0,0,0l-.29,0s0,0,0,0V46.94a1.21,1.21,0,0,0,0-.18h0a2.1,2.1,0,0,1,.74-.16A.89.89,0,0,1,233,47.53Zm-1.35-.59V48.3a.9.9,0,0,0,.23,0,.74.74,0,0,0,.78-.77.6.6,0,0,0-.64-.67A1.15,1.15,0,0,0,231.63,46.94Z"/>
      <path d="M233.36,47.71a0,0,0,0,1,0,0v-.25s0,0,0,0h.9s0,0,0,0v.25a0,0,0,0,1,0,0Z"/>
      <path d="M235,46.63s0,0,0,0a1,1,0,0,1,0,.27.84.84,0,0,1,.65-.34s0,0,0,0v.28a0,0,0,0,1,0,0,.73.73,0,0,0-.63.29v1.33s0,0,0,0h-.28a0,0,0,0,1,0,0V47.16c0-.16,0-.4,0-.51s0,0,0,0Z"/>
      <path d="M237.7,47.6a.92.92,0,1,1-1.83,0,.93.93,0,0,1,.92-1A.91.91,0,0,1,237.7,47.6Zm-1.49,0c0,.41.21.73.59.73s.57-.22.57-.72-.18-.72-.59-.72S236.21,47.16,236.21,47.59Z"/>
      <path d="M239.67,48.15a3.18,3.18,0,0,0,0,.4s0,0,0,0h-.26s0,0,0,0a.79.79,0,0,1,0-.17.8.8,0,0,1-.58.23c-.34,0-.66-.17-.66-.75V46.65s0,0,0,0h.28s0,0,0,0v1.17c0,.31.14.5.42.5a.63.63,0,0,0,.47-.21V46.65s0,0,0,0h.28s0,0,0,0Z"/>
      <path d="M240.23,47.08c0-.14,0-.36,0-.43s0,0,0,0h.25l0,0s0,.11,0,.2a.87.87,0,0,1,.61-.26c.29,0,.65.14.65.77v1.18s0,0,0,0h-.29s0,0,0,0V47.39c0-.3-.14-.51-.41-.51a.63.63,0,0,0-.5.25v1.41a0,0,0,0,1,0,0h-.28a0,0,0,0,1,0,0Z"/>
      <path d="M242.23,47.62a1,1,0,0,1,1.09-1l.25,0v-.88s0,0,0,0h.28s0,0,0,0v2.51a1.41,1.41,0,0,0,0,.2,0,0,0,0,1,0,0,1.55,1.55,0,0,1-.68.15A.92.92,0,0,1,242.23,47.62Zm1.34-.7a.65.65,0,0,0-.26,0,.69.69,0,0,0-.74.72.65.65,0,0,0,.68.72.83.83,0,0,0,.32,0Z"/>
      <path d="M244.31,47.91s0,0,0,0v-.22a.06.06,0,0,1,0,0l1.09-1.58s0,0,0,0h.34s0,0,0,0v1.58h.32s0,0,0,0l0,.23s0,0,0,0h-.27v.64s0,0,0,0h-.27a0,0,0,0,1,0,0v-.64Zm1.17-.77c0-.4,0-.68,0-.81h0c-.08.18-.72,1.11-.85,1.3h.84Z"/>
      <path d="M246.4,47.91s0,0,0,0v-.22a.06.06,0,0,1,0,0l1.09-1.58s0,0,0,0h.34s0,0,0,0v1.58h.33s0,0,0,0l0,.23s0,0,0,0h-.28v.64s0,0,0,0h-.27s0,0,0,0v-.64Zm1.16-.77c0-.4,0-.68,0-.81h0c-.09.18-.73,1.11-.85,1.3h.83Z"/>
    </g>
    <g>
      <path d="M324.33,48.57s0,0,0,0V47.05a3.45,3.45,0,0,0,0-.4s0,0,0,0h.25l0,0a1,1,0,0,1,0,.19.87.87,0,0,1,.6-.25.56.56,0,0,1,.53.29,1,1,0,0,1,.67-.29c.3,0,.65.15.65.76v1.2s0,0,0,0h-.27a0,0,0,0,1,0,0V47.38c0-.28-.13-.5-.41-.5a.63.63,0,0,0-.49.24,1.47,1.47,0,0,1,0,.25v1.17a0,0,0,0,1,0,0h-.28a0,0,0,0,1,0,0V47.36c0-.3-.14-.48-.4-.48a.65.65,0,0,0-.48.23v1.44a0,0,0,0,1,0,0Z"/>
      <path d="M329.33,47.6a.92.92,0,1,1-.91-1A.92.92,0,0,1,329.33,47.6Zm-1.5,0c0,.41.21.73.59.73s.57-.22.57-.72-.18-.72-.59-.72S327.83,47.16,327.83,47.59Z"/>
      <path d="M330.05,45.71s0,0,0,0v.94a1.18,1.18,0,0,1,.43-.08.88.88,0,0,1,.91.93,1.05,1.05,0,0,1-1.11,1.09,1.61,1.61,0,0,1-.54-.08,0,0,0,0,1,0,0V45.73s0,0,0,0Zm.41,1.17a1,1,0,0,0-.38.07v1.34a.66.66,0,0,0,.26,0,.71.71,0,0,0,.74-.77A.6.6,0,0,0,330.46,46.88Z"/>
      <path d="M331.81,46a.19.19,0,0,1,.2-.2.18.18,0,0,1,.2.2.2.2,0,1,1-.4,0Zm0,.62a0,0,0,0,1,0,0h.29s0,0,0,0v1.89a0,0,0,0,1,0,0h-.27s0,0,0,0Z"/>
      <path d="M332.74,45.73s0,0,0,0h.28s0,0,0,0v2.41c0,.16.06.19.15.19h.08s0,0,0,0v.21s0,0,0,0a.42.42,0,0,1-.18,0c-.2,0-.39-.07-.39-.44Z"/>
      <path d="M333.9,47.64a.63.63,0,0,0,.67.68,1.08,1.08,0,0,0,.5-.11s0,0,0,0v.23a.05.05,0,0,1,0,0,1.35,1.35,0,0,1-.56.11.9.9,0,0,1-.94-1,.92.92,0,0,1,.88-1,.76.76,0,0,1,.78.8.91.91,0,0,1,0,.21l0,0a2.2,2.2,0,0,1-.42,0Zm.75-.25h.26v0a.47.47,0,0,0-.47-.48.54.54,0,0,0-.53.53Z"/>
      <path d="M335.61,47.71s0,0,0,0v-.25s0,0,0,0h.89s0,0,0,0v.25s0,0,0,0Z"/>
      <path d="M337.21,46.63s0,0,0,0,0,.18,0,.27a.84.84,0,0,1,.64-.34s0,0,0,0v.28s0,0,0,0a.75.75,0,0,0-.63.29v1.33s0,0,0,0H337s0,0,0,0V47.16a3.78,3.78,0,0,0,0-.51s0,0,0,0Z"/>
      <path d="M340,47.6a.92.92,0,1,1-1.83,0,.93.93,0,0,1,.92-1A.92.92,0,0,1,340,47.6Zm-1.5,0c0,.41.22.73.6.73s.56-.22.56-.72-.17-.72-.59-.72S338.45,47.16,338.45,47.59Z"/>
      <path d="M341.91,48.15a2.69,2.69,0,0,0,0,.4s0,0,0,0h-.25s0,0,0,0a.74.74,0,0,1,0-.17.8.8,0,0,1-.58.23c-.34,0-.66-.17-.66-.75V46.65s0,0,0,0h.28s0,0,0,0v1.17c0,.31.15.5.43.5a.61.61,0,0,0,.46-.21V46.65s0,0,0,0h.28s0,0,0,0Z"/>
      <path d="M342.48,47.08c0-.14,0-.36,0-.43s0,0,0,0h.24l0,0a.88.88,0,0,1,0,.2.87.87,0,0,1,.62-.26c.28,0,.65.14.65.77v1.18a0,0,0,0,1,0,0h-.28a0,0,0,0,1,0,0V47.39c0-.3-.13-.51-.41-.51a.66.66,0,0,0-.5.25v1.41s0,0,0,0h-.29s0,0,0,0Z"/>
      <path d="M344.48,47.62a1,1,0,0,1,1.09-1l.25,0v-.88s0,0,0,0h.29s0,0,0,0v2.51a1.41,1.41,0,0,0,0,.2s0,0,0,0a1.51,1.51,0,0,1-.67.15A.92.92,0,0,1,344.48,47.62Zm1.34-.7a.68.68,0,0,0-.26,0,.69.69,0,0,0-.74.72.65.65,0,0,0,.68.72.86.86,0,0,0,.32,0Z"/>
      <path d="M346.56,47.91s0,0,0,0v-.22a.06.06,0,0,1,0,0l1.08-1.58s0,0,.05,0H348s0,0,0,0v1.58h.33s0,0,0,0l0,.23,0,0H348v.64a0,0,0,0,1,0,0h-.27s0,0,0,0v-.64Zm1.16-.77c0-.4,0-.68,0-.81h0c-.09.18-.73,1.11-.85,1.3h.83Z"/>
      <path d="M348.65,47.91s0,0,0,0v-.22s0,0,0,0l1.09-1.58s0,0,0,0h.34s0,0,0,0v1.58h.32s0,0,0,0l0,.23s0,0,0,0h-.27v.64a0,0,0,0,1,0,0h-.28a0,0,0,0,1,0,0v-.64Zm1.16-.77c0-.4,0-.68,0-.81h0c-.09.18-.73,1.11-.86,1.3h.84Z"/>
    </g>
    <g>
      <path d="M402,47.53a1.06,1.06,0,0,1-1.14,1.08h-.21v.8s0,0,0,0l-.3,0s0,0,0,0V46.94a1.21,1.21,0,0,0,0-.18h0a2.11,2.11,0,0,1,.75-.16A.88.88,0,0,1,402,47.53Zm-1.35-.59V48.3a.9.9,0,0,0,.23,0,.74.74,0,0,0,.78-.77.6.6,0,0,0-.63-.67A1.16,1.16,0,0,0,400.64,46.94Z"/>
      <path d="M402.67,46.63s0,0,0,0,0,.18,0,.27a.82.82,0,0,1,.64-.34s0,0,0,0v.28a0,0,0,0,1,0,0,.73.73,0,0,0-.63.29v1.33s0,0,0,0h-.28a0,0,0,0,1,0,0V47.16a3.94,3.94,0,0,0,0-.51,0,0,0,0,1,0,0Z"/>
      <path d="M403.91,47.64a.63.63,0,0,0,.67.68,1.08,1.08,0,0,0,.5-.11s0,0,0,0v.23a.05.05,0,0,1,0,0,1.35,1.35,0,0,1-.56.11.9.9,0,0,1-.94-1,.92.92,0,0,1,.88-1,.76.76,0,0,1,.78.8.91.91,0,0,1,0,.21l0,0a2.2,2.2,0,0,1-.42,0Zm.75-.25h.26v0a.47.47,0,0,0-.47-.48.54.54,0,0,0-.53.53Z"/>
      <path d="M405.67,48.57a0,0,0,0,1,0,0V47.05c0-.18,0-.32,0-.4s0,0,0,0h.25a.05.05,0,0,1,0,0,1,1,0,0,1,0,.19.85.85,0,0,1,.6-.25.56.56,0,0,1,.53.29,1,1,0,0,1,.67-.29c.3,0,.65.15.65.76v1.2s0,0,0,0h-.28s0,0,0,0V47.38c0-.28-.13-.5-.41-.5a.62.62,0,0,0-.49.24,1.47,1.47,0,0,1,0,.25v1.17a0,0,0,0,1,0,0h-.28a0,0,0,0,1,0,0V47.36c0-.3-.14-.48-.4-.48a.65.65,0,0,0-.48.23v1.44s0,0,0,0Z"/>
      <path d="M408.94,46a.19.19,0,0,1,.2-.2.18.18,0,0,1,.2.2.2.2,0,1,1-.4,0Zm0,.62a0,0,0,0,1,0,0h.28s0,0,0,0v1.89a0,0,0,0,1,0,0H409a0,0,0,0,1,0,0Z"/>
      <path d="M411.39,48.15a3.18,3.18,0,0,0,0,.4s0,0,0,0h-.26s0,0,0,0a.79.79,0,0,1,0-.17.8.8,0,0,1-.58.23c-.34,0-.66-.17-.66-.75V46.65s0,0,0,0h.29a0,0,0,0,1,0,0v1.17c0,.31.14.5.42.5a.63.63,0,0,0,.47-.21V46.65s0,0,0,0h.28s0,0,0,0Z"/>
      <path d="M412,48.57a0,0,0,0,1,0,0V47.05c0-.18,0-.32,0-.4s0,0,0,0h.25s0,0,0,0a1,1,0,0,1,0,.19.85.85,0,0,1,.6-.25.56.56,0,0,1,.53.29,1,1,0,0,1,.67-.29c.29,0,.64.15.64.76v1.2s0,0,0,0h-.28a0,0,0,0,1,0,0V47.38c0-.28-.12-.5-.4-.5a.65.65,0,0,0-.5.24.86.86,0,0,1,0,.25v1.17s0,0,0,0h-.28a0,0,0,0,1,0,0V47.36c0-.3-.14-.48-.4-.48a.68.68,0,0,0-.49.23v1.44s0,0,0,0Z"/>
      <path d="M415.2,47.71s0,0,0,0v-.25s0,0,0,0h.9s0,0,0,0v.25a0,0,0,0,1,0,0Z"/>
      <path d="M417.38,48.52a0,0,0,0,1,0,0,.73.73,0,0,1-.3,0c-.29,0-.47-.14-.47-.52V46.92h-.27s0,0,0,0v-.22a0,0,0,0,1,0,0h.27c0-.15,0-.42,0-.51a0,0,0,0,1,0,0l.27-.05s0,0,0,0,0,.37,0,.57h.42a0,0,0,0,1,0,0v.23a0,0,0,0,1,0,0h-.42V48c0,.18.07.29.24.29l.19,0s0,0,0,0Z"/>
      <path d="M417.92,47.64a.61.61,0,0,0,.66.68,1,1,0,0,0,.5-.11s0,0,0,0v.23s0,0,0,0a1.31,1.31,0,0,1-.56.11.9.9,0,0,1-.94-1,.93.93,0,0,1,.88-1,.75.75,0,0,1,.78.8,1.1,1.1,0,0,1,0,.21s0,0,0,0a2.13,2.13,0,0,1-.41,0Zm.74-.25h.26v0a.47.47,0,0,0-.47-.48.55.55,0,0,0-.53.53Z"/>
      <path d="M419.67,48.57s0,0,0,0V47.05a3.45,3.45,0,0,0,0-.4s0,0,0,0h.25l0,0a1,1,0,0,1,0,.19.87.87,0,0,1,.6-.25.58.58,0,0,1,.54.29.91.91,0,0,1,.66-.29c.3,0,.65.15.65.76v1.2s0,0,0,0h-.27a0,0,0,0,1,0,0V47.38c0-.28-.12-.5-.41-.5a.63.63,0,0,0-.49.24,1.47,1.47,0,0,1,0,.25v1.17a0,0,0,0,1,0,0h-.28a0,0,0,0,1,0,0V47.36c0-.3-.14-.48-.4-.48a.66.66,0,0,0-.48.23v1.44s0,0,0,0Z"/>
      <path d="M424.66,47.53a1.07,1.07,0,0,1-1.15,1.08h-.2v.8s0,0,0,0l-.29,0s0,0,0,0V46.94s0-.12,0-.18h0a2,2,0,0,1,.74-.16A.89.89,0,0,1,424.66,47.53Zm-1.35-.59V48.3a.86.86,0,0,0,.23,0,.74.74,0,0,0,.78-.77.61.61,0,0,0-.64-.67A1.06,1.06,0,0,0,423.31,46.94Z"/>
      <path d="M425.08,45.73s0,0,0,0h.28s0,0,0,0v2.41c0,.16.06.19.16.19h.08s0,0,0,0v.21s0,0,0,0a.39.39,0,0,1-.18,0c-.2,0-.38-.07-.38-.44Z"/>
      <path d="M427.39,48.23a1.15,1.15,0,0,0,0,.19s0,0,0,0a1.59,1.59,0,0,1-.75.17c-.42,0-.74-.21-.74-.63s.4-.61.89-.61h.28v-.1a.4.4,0,0,0-.45-.4,1.13,1.13,0,0,0-.51.12s0,0,0,0v-.24s0,0,0,0a1.29,1.29,0,0,1,.57-.12.67.67,0,0,1,.72.75Zm-.32-.59h-.27c-.38,0-.57.13-.57.35s.12.36.47.36a.94.94,0,0,0,.37-.07Z"/>
      <path d="M428.76,48.52a0,0,0,0,1,0,0,.79.79,0,0,1-.3,0c-.3,0-.47-.14-.47-.52V46.92h-.27s0,0,0,0v-.22a0,0,0,0,1,0,0H428c0-.15,0-.42,0-.51l0,0,.27-.05s0,0,0,0,0,.37,0,.57h.43s0,0,0,0v.23s0,0,0,0h-.43V48c0,.18.07.29.25.29l.19,0s0,0,0,0Z"/>
      <path d="M429.29,47.64a.63.63,0,0,0,.67.68,1.08,1.08,0,0,0,.5-.11s0,0,0,0v.23a.05.05,0,0,1,0,0,1.35,1.35,0,0,1-.56.11.9.9,0,0,1-.94-1,.92.92,0,0,1,.88-1,.76.76,0,0,1,.78.8.91.91,0,0,1,0,.21l0,0a2.2,2.2,0,0,1-.42,0Zm.75-.25h.26v0a.47.47,0,0,0-.47-.48.54.54,0,0,0-.53.53Z"/>
      <path d="M431.62,46.86c-.26,0-.35.13-.35.25s.07.21.37.33.57.32.57.6-.3.57-.72.57a1.2,1.2,0,0,1-.53-.11s0,0,0,0v-.27s0,0,0,0a1,1,0,0,0,.54.16c.26,0,.38-.11.38-.26s-.09-.23-.36-.34-.57-.32-.57-.6.24-.54.68-.54a1,1,0,0,1,.47.09s0,0,0,0V47s0,0,0,0A.92.92,0,0,0,431.62,46.86Z"/>
      <path d="M432.45,47.91s0,0,0,0v-.22a.06.06,0,0,1,0,0l1.09-1.58s0,0,0,0h.34s0,0,0,0v1.58h.32s0,0,0,0l0,.23s0,0,0,0h-.27v.64s0,0,0,0h-.27s0,0,0,0v-.64Zm1.17-.77c0-.4,0-.68,0-.81h0c-.09.18-.73,1.11-.85,1.3h.84Z"/>
      <path d="M434.54,47.91s0,0,0,0v-.22a.06.06,0,0,1,0,0l1.09-1.58s0,0,0,0H436s0,0,0,0v1.58h.33s0,0,0,0l0,.23s0,0,0,0H436v.64s0,0,0,0h-.27s0,0,0,0v-.64Zm1.16-.77c0-.4,0-.68,0-.81h0c-.09.18-.73,1.11-.85,1.3h.83Z"/>
    </g>
    <g>
      <path d="M451.84,48.23a1.15,1.15,0,0,0,0,.19s0,0,0,0a1.59,1.59,0,0,1-.75.17c-.42,0-.74-.21-.74-.63s.4-.61.89-.61h.28v-.1a.4.4,0,0,0-.45-.4,1.13,1.13,0,0,0-.51.12s0,0,0,0v-.24s0,0,0,0a1.29,1.29,0,0,1,.57-.12.67.67,0,0,1,.72.75Zm-.32-.59h-.27c-.38,0-.57.13-.57.35s.12.36.47.36a.94.94,0,0,0,.37-.07Z"/>
      <path d="M452.25,47.62a1,1,0,0,1,1.08-1l.26,0v-.88s0,0,0,0h.29s0,0,0,0v2.51a1.41,1.41,0,0,0,0,.2,0,0,0,0,1,0,0,1.52,1.52,0,0,1-.68.15A.92.92,0,0,1,452.25,47.62Zm1.34-.7a.68.68,0,0,0-.26,0,.69.69,0,0,0-.74.72.64.64,0,0,0,.68.72.89.89,0,0,0,.32,0Z"/>
      <path d="M456.17,47.6a.92.92,0,1,1-1.83,0,.93.93,0,0,1,.92-1A.91.91,0,0,1,456.17,47.6Zm-1.49,0c0,.41.21.73.59.73s.56-.22.56-.72-.17-.72-.58-.72S454.68,47.16,454.68,47.59Z"/>
      <path d="M456.9,45.71s0,0,0,0v.94a1.14,1.14,0,0,1,.43-.08.88.88,0,0,1,.91.93,1.05,1.05,0,0,1-1.11,1.09,1.67,1.67,0,0,1-.55-.08s0,0,0,0V45.73s0,0,0,0Zm.41,1.17a.92.92,0,0,0-.38.07v1.34a.66.66,0,0,0,.26,0,.72.72,0,0,0,.74-.77A.6.6,0,0,0,457.31,46.88Z"/>
      <path d="M458.92,47.64a.62.62,0,0,0,.67.68,1.1,1.1,0,0,0,.5-.11s0,0,0,0v.23a.05.05,0,0,1,0,0,1.4,1.4,0,0,1-.57.11.9.9,0,0,1-.94-1,.93.93,0,0,1,.89-1,.76.76,0,0,1,.78.8.91.91,0,0,1,0,.21s0,0,0,0a2.13,2.13,0,0,1-.41,0Zm.75-.25h.25a.06.06,0,0,0,0,0,.48.48,0,0,0-.48-.48.55.55,0,0,0-.53.53Z"/>
      <path d="M460.62,47.71a0,0,0,0,1,0,0v-.25s0,0,0,0h.9s0,0,0,0v.25a0,0,0,0,1,0,0Z"/>
      <path d="M462.51,46.86c-.26,0-.35.13-.35.25s.07.21.37.33.57.32.57.6-.3.57-.71.57a1.28,1.28,0,0,1-.54-.11.05.05,0,0,1,0,0v-.27s0,0,0,0a1,1,0,0,0,.54.16c.26,0,.38-.11.38-.26s-.08-.23-.36-.34-.57-.32-.57-.6.25-.54.68-.54a1,1,0,0,1,.47.09s0,0,0,0V47s0,0,0,0A1,1,0,0,0,462.51,46.86Z"/>
      <path d="M464.37,48.52a0,0,0,0,1,0,0,.79.79,0,0,1-.3,0c-.3,0-.47-.14-.47-.52V46.92h-.27s0,0,0,0v-.22a0,0,0,0,1,0,0h.27c0-.15,0-.42,0-.51l0,0,.27-.05s0,0,0,0,0,.37,0,.57h.43s0,0,0,0v.23s0,0,0,0h-.43V48c0,.18.07.29.25.29l.19,0s0,0,0,0Z"/>
      <path d="M466.4,47.6a.92.92,0,1,1-1.83,0,.93.93,0,0,1,.92-1A.92.92,0,0,1,466.4,47.6Zm-1.5,0c0,.41.21.73.59.73s.57-.22.57-.72-.18-.72-.59-.72S464.9,47.16,464.9,47.59Z"/>
      <path d="M468.15,48.52s0,0,0,0a1.27,1.27,0,0,1-.44.06.93.93,0,0,1-1-1,1,1,0,0,1,1-1,1,1,0,0,1,.38,0s0,0,0,0v.25s0,0,0,0a1,1,0,0,0-.37-.06.67.67,0,0,0-.7.72.66.66,0,0,0,.7.71,1,1,0,0,0,.37-.05s0,0,0,0Z"/>
      <path d="M470.09,46.63s0,0,0,0l-.87.85v0l1,1s0,0,0,0h-.38s0,0,0,0c-.21-.21-.72-.74-.91-.95v.94s0,0,0,0h-.28s0,0,0,0V45.73s0,0,0,0h.28s0,0,0,0v1.79l.84-.87,0,0Z"/>
      <path d="M470.25,47.91s0,0,0,0v-.22a.06.06,0,0,1,0,0l1.09-1.58s0,0,0,0h.34s0,0,0,0v1.58h.32s0,0,0,0l0,.23s0,0,0,0h-.27v.64s0,0,0,0h-.27a0,0,0,0,1,0,0v-.64Zm1.17-.77c0-.4,0-.68,0-.81h0c-.08.18-.72,1.11-.85,1.3h.84Z"/>
      <path d="M472.34,47.91s0,0,0,0v-.22a.06.06,0,0,1,0,0l1.09-1.58s0,0,0,0h.34s0,0,0,0v1.58h.32s0,0,0,0l0,.23s0,0,0,0h-.27v.64s0,0,0,0h-.27s0,0,0,0v-.64Zm1.16-.77c0-.4,0-.68,0-.81h0c-.09.18-.73,1.11-.85,1.3h.83Z"/>
    </g>
    <g>
      <path d="M481.46,47.53a1.07,1.07,0,0,1-1.15,1.08h-.2v.8s0,0,0,0l-.29,0s0,0,0,0V46.94s0-.12,0-.18h0a2,2,0,0,1,.74-.16A.89.89,0,0,1,481.46,47.53Zm-1.35-.59V48.3a.86.86,0,0,0,.23,0,.74.74,0,0,0,.78-.77.61.61,0,0,0-.64-.67A1.06,1.06,0,0,0,480.11,46.94Z"/>
      <path d="M482.13,46.63s0,0,0,0a1.57,1.57,0,0,1,0,.27.84.84,0,0,1,.64-.34s0,0,0,0v.28s0,0,0,0a.73.73,0,0,0-.62.29v1.33s0,0,0,0h-.29s0,0,0,0V47.16c0-.16,0-.4,0-.51s0,0,0,0Z"/>
      <path d="M483.38,47.64a.61.61,0,0,0,.66.68,1,1,0,0,0,.5-.11s0,0,0,0v.23s0,0,0,0a1.31,1.31,0,0,1-.56.11.9.9,0,0,1-.94-1,.93.93,0,0,1,.88-1,.75.75,0,0,1,.78.8,1.1,1.1,0,0,1,0,.21l0,0a2.13,2.13,0,0,1-.41,0Zm.74-.25h.26v0a.47.47,0,0,0-.47-.48.55.55,0,0,0-.53.53Z"/>
      <path d="M485.13,48.57s0,0,0,0V47.05a3.45,3.45,0,0,0,0-.4s0,0,0,0h.25l0,0a1,1,0,0,1,0,.19.87.87,0,0,1,.6-.25.58.58,0,0,1,.54.29.91.91,0,0,1,.66-.29c.3,0,.65.15.65.76v1.2s0,0,0,0h-.27a0,0,0,0,1,0,0V47.38c0-.28-.12-.5-.41-.5a.63.63,0,0,0-.49.24,1.47,1.47,0,0,1,0,.25v1.17a0,0,0,0,1,0,0h-.28a0,0,0,0,1,0,0V47.36c0-.3-.14-.48-.4-.48a.66.66,0,0,0-.48.23v1.44s0,0,0,0Z"/>
      <path d="M488.4,46a.2.2,0,0,1,.21-.2.18.18,0,0,1,.2.2.2.2,0,0,1-.21.21A.2.2,0,0,1,488.4,46Zm0,.62s0,0,0,0h.29s0,0,0,0v1.89s0,0,0,0h-.27a0,0,0,0,1,0,0Z"/>
      <path d="M490.85,48.15a1.77,1.77,0,0,0,0,.4s0,0,0,0h-.25s0,0,0,0a.79.79,0,0,1,0-.17.8.8,0,0,1-.58.23c-.34,0-.66-.17-.66-.75V46.65s0,0,0,0h.28s0,0,0,0v1.17c0,.31.15.5.43.5a.61.61,0,0,0,.46-.21V46.65s0,0,0,0h.28s0,0,0,0Z"/>
      <path d="M491.44,48.57s0,0,0,0V47.05a3.45,3.45,0,0,0,0-.4s0,0,0,0h.26l0,0a1,1,0,0,1,0,.19.87.87,0,0,1,.6-.25.56.56,0,0,1,.53.29,1,1,0,0,1,.67-.29c.3,0,.65.15.65.76v1.2s0,0,0,0h-.28s0,0,0,0V47.38c0-.28-.13-.5-.41-.5a.63.63,0,0,0-.49.24,1.47,1.47,0,0,1,0,.25v1.17a0,0,0,0,1,0,0h-.28a0,0,0,0,1,0,0V47.36c0-.3-.14-.48-.4-.48a.65.65,0,0,0-.48.23v1.44s0,0,0,0Z"/>
      <path d="M494.66,47.71a0,0,0,0,1,0,0v-.25s0,0,0,0h.9s0,0,0,0v.25s0,0,0,0Z"/>
      <path d="M496.27,46.63a0,0,0,0,1,0,0,1.42,1.42,0,0,1,0,.27.82.82,0,0,1,.64-.34s0,0,0,0v.28a0,0,0,0,1,0,0,.73.73,0,0,0-.63.29v1.33s0,0,0,0H496a0,0,0,0,1,0,0V47.16c0-.16,0-.4,0-.51l0,0Z"/>
      <path d="M497.51,47.64a.63.63,0,0,0,.67.68,1.08,1.08,0,0,0,.5-.11s0,0,0,0v.23a.05.05,0,0,1,0,0,1.35,1.35,0,0,1-.56.11.9.9,0,0,1-.94-1,.92.92,0,0,1,.88-1,.76.76,0,0,1,.78.8.91.91,0,0,1,0,.21s0,0,0,0a2,2,0,0,1-.41,0Zm.75-.25h.25a.06.06,0,0,0,0,0,.47.47,0,0,0-.47-.48.54.54,0,0,0-.53.53Z"/>
      <path d="M499.27,48.57a0,0,0,0,1,0,0V47.05c0-.18,0-.32,0-.4s0,0,0,0h.25l0,0a1,1,0,0,1,0,.19.85.85,0,0,1,.6-.25.56.56,0,0,1,.53.29,1,1,0,0,1,.67-.29c.29,0,.65.15.65.76v1.2s0,0,0,0h-.28a0,0,0,0,1,0,0V47.38c0-.28-.12-.5-.4-.5a.62.62,0,0,0-.49.24,1.7,1.7,0,0,1,0,.25v1.17s0,0,0,0h-.28a0,0,0,0,1,0,0V47.36c0-.3-.14-.48-.4-.48a.65.65,0,0,0-.48.23v1.44s0,0,0,0Z"/>
      <path d="M504.26,47.6a.92.92,0,1,1-1.83,0,.93.93,0,0,1,.92-1A.91.91,0,0,1,504.26,47.6Zm-1.49,0c0,.41.21.73.59.73s.56-.22.56-.72-.17-.72-.58-.72S502.77,47.16,502.77,47.59Z"/>
      <path d="M505.17,48.57s0,0,0,0c-.08-.24-.57-1.63-.67-1.89,0,0,0,0,0,0h.3a.05.05,0,0,1,0,0c.33,1,.48,1.45.52,1.61h0c0-.16.19-.59.55-1.61,0,0,0,0,0,0h.27s0,0,0,0c-.12.31-.6,1.65-.69,1.89l0,0Z"/>
      <path d="M506.75,47.64a.63.63,0,0,0,.67.68,1,1,0,0,0,.5-.11s0,0,0,0v.23a.05.05,0,0,1,0,0,1.31,1.31,0,0,1-.56.11.9.9,0,0,1-.94-1,.93.93,0,0,1,.88-1,.75.75,0,0,1,.78.8c0,.1,0,.17,0,.21l0,0a2.13,2.13,0,0,1-.41,0Zm.75-.25h.26v0a.47.47,0,0,0-.47-.48.54.54,0,0,0-.53.53Z"/>
      <path d="M508.46,47.71s0,0,0,0v-.25s0,0,0,0h.9s0,0,0,0v.25a0,0,0,0,1,0,0Z"/>
      <path d="M510.12,45.71s0,0,0,0v.94a1.23,1.23,0,0,1,.44-.08.88.88,0,0,1,.91.93,1.06,1.06,0,0,1-1.11,1.09,1.63,1.63,0,0,1-.55-.08s0,0,0,0V45.73s0,0,0,0Zm.4,1.17a1,1,0,0,0-.38.07v1.34a.74.74,0,0,0,.27,0,.72.72,0,0,0,.74-.77A.6.6,0,0,0,510.52,46.88Z"/>
      <path d="M513.28,48.23a1.15,1.15,0,0,0,0,.19s0,0,0,0a1.61,1.61,0,0,1-.75.17c-.42,0-.74-.21-.74-.63s.39-.61.89-.61H513v-.1c0-.12-.06-.4-.46-.4a1.12,1.12,0,0,0-.5.12s0,0,0,0v-.24s0,0,0,0a1.23,1.23,0,0,1,.57-.12.67.67,0,0,1,.72.75Zm-.32-.59h-.27c-.39,0-.57.13-.57.35s.12.36.47.36a.94.94,0,0,0,.37-.07Z"/>
      <path d="M515.12,48.52s0,0,0,0a1.3,1.3,0,0,1-.44.06.94.94,0,0,1-1-1,1.1,1.1,0,0,1,1.43-1s0,0,0,0v.25s0,0,0,0a.87.87,0,0,0-.36-.06.68.68,0,0,0-.71.72.67.67,0,0,0,.71.71,1,1,0,0,0,.37-.05s0,0,0,0Z"/>
      <path d="M517.06,46.63s0,0,0,0l-.87.85v0l1,1s0,0,0,0h-.38l0,0c-.21-.21-.71-.74-.9-.95v.94s0,0,0,0h-.28s0,0,0,0V45.73s0,0,0,0h.28s0,0,0,0v1.79l.84-.87,0,0Z"/>
      <path d="M518.31,48.24c.5,0,.78.21.78.56s-.38.71-1,.71-.88-.31-.88-.6c0-.14.12-.32.39-.55a.53.53,0,0,1-.09-.3.51.51,0,0,1,.06-.25.63.63,0,0,1-.27-.54.69.69,0,0,1,.75-.68,1.21,1.21,0,0,1,.3,0H519s0,0,0,0v.23s0,0,0,0h-.37a.54.54,0,0,1,.14.39.65.65,0,0,1-.72.66.78.78,0,0,1-.22,0,.26.26,0,0,0,0,.15.24.24,0,0,0,.07.16Zm-.49.27a.63.63,0,0,0-.26.37c0,.19.22.37.58.37s.64-.2.64-.4-.25-.3-.53-.32Zm-.16-1.25a.41.41,0,1,0,.82,0,.41.41,0,1,0-.82,0Z"/>
      <path d="M519.64,46.63s0,0,0,0a1,1,0,0,1,0,.27.84.84,0,0,1,.64-.34s0,0,0,0v.28s0,0,0,0a.73.73,0,0,0-.62.29v1.33s0,0,0,0h-.28a0,0,0,0,1,0,0V47.16c0-.16,0-.4,0-.51s0,0,0,0Z"/>
      <path d="M522.38,47.6a.92.92,0,1,1-1.83,0,.93.93,0,0,1,.92-1A.92.92,0,0,1,522.38,47.6Zm-1.49,0c0,.41.21.73.59.73s.56-.22.56-.72-.17-.72-.58-.72S520.89,47.16,520.89,47.59Z"/>
      <path d="M524.35,48.15a3.18,3.18,0,0,0,0,.4s0,0,0,0h-.26s0,0,0,0,0-.11,0-.17a.78.78,0,0,1-.57.23c-.34,0-.67-.17-.67-.75V46.65s0,0,0,0h.29l0,0v1.17c0,.31.14.5.42.5a.61.61,0,0,0,.46-.21V46.65s0,0,0,0h.28s0,0,0,0Z"/>
      <path d="M524.91,47.08c0-.14,0-.36,0-.43s0,0,0,0h.25s0,0,0,0a1.78,1.78,0,0,1,0,.2.85.85,0,0,1,.61-.26c.28,0,.65.14.65.77v1.18a0,0,0,0,1,0,0h-.28a0,0,0,0,1,0,0V47.39c0-.3-.13-.51-.41-.51a.66.66,0,0,0-.5.25v1.41s0,0,0,0h-.28a0,0,0,0,1,0,0Z"/>
      <path d="M526.91,47.62a1,1,0,0,1,1.09-1l.25,0v-.88s0,0,0,0h.29s0,0,0,0v2.71s0,0,0,0a1.48,1.48,0,0,1-.67.15A.92.92,0,0,1,526.91,47.62Zm1.34-.7a.65.65,0,0,0-.26,0,.69.69,0,0,0-.74.72.65.65,0,0,0,.68.72.86.86,0,0,0,.32,0Z"/>
      <path d="M529,47.91s0,0,0,0v-.22a.06.06,0,0,1,0,0l1.09-1.58s0,0,0,0h.34s0,0,0,0v1.58h.33s0,0,0,0l0,.23s0,0,0,0h-.28v.64s0,0,0,0h-.27s0,0,0,0v-.64Zm1.16-.77c0-.4,0-.68,0-.81h0c-.09.18-.73,1.11-.85,1.3h.83Z"/>
      <path d="M531.08,47.91s0,0,0,0v-.22a.06.06,0,0,1,0,0l1.08-1.58s0,0,.05,0h.34s0,0,0,0v1.58h.33s0,0,0,0l0,.23,0,0h-.27v.64a0,0,0,0,1,0,0h-.27s0,0,0,0v-.64Zm1.16-.77c0-.4,0-.68,0-.81h0c-.09.18-.73,1.11-.85,1.3h.83Z"/>
    </g>
    <g>
      <path d="M533.05,46.63s0,0,0,0,0,.18,0,.27a.84.84,0,0,1,.64-.34s0,0,0,0v.28s0,0,0,0a.75.75,0,0,0-.63.29v1.33s0,0,0,0h-.29a0,0,0,0,1,0,0V47.16a3.94,3.94,0,0,0,0-.51l0,0Z"/>
      <path d="M534.29,47.64a.63.63,0,0,0,.67.68,1,1,0,0,0,.5-.11s0,0,0,0v.23a.05.05,0,0,1,0,0,1.31,1.31,0,0,1-.56.11.9.9,0,0,1-.94-1,.93.93,0,0,1,.88-1,.76.76,0,0,1,.78.8c0,.1,0,.17,0,.21l0,0a2.13,2.13,0,0,1-.41,0Zm.75-.25h.26v0a.47.47,0,0,0-.47-.48.54.54,0,0,0-.53.53Z"/>
      <path d="M536.05,48.57s0,0,0,0V47.05a3.45,3.45,0,0,0,0-.4s0,0,0,0h.26l0,0a1,1,0,0,1,0,.19.87.87,0,0,1,.6-.25.56.56,0,0,1,.53.29,1,1,0,0,1,.67-.29c.3,0,.65.15.65.76v1.2s0,0,0,0h-.27s0,0,0,0V47.38c0-.28-.13-.5-.41-.5a.63.63,0,0,0-.49.24,1.47,1.47,0,0,1,0,.25v1.17a0,0,0,0,1,0,0h-.28a0,0,0,0,1,0,0V47.36c0-.3-.14-.48-.4-.48a.65.65,0,0,0-.48.23v1.44a0,0,0,0,1,0,0Z"/>
      <path d="M541.05,47.6a.92.92,0,1,1-1.84,0,.93.93,0,0,1,.92-1A.92.92,0,0,1,541.05,47.6Zm-1.5,0c0,.41.21.73.59.73s.57-.22.57-.72-.18-.72-.59-.72S539.55,47.16,539.55,47.59Z"/>
      <path d="M542,48.57a.05.05,0,0,1,0,0c-.08-.24-.57-1.63-.67-1.89,0,0,0,0,0,0h.31s0,0,0,0c.33,1,.48,1.45.52,1.61h0c0-.16.2-.59.55-1.61,0,0,0,0,0,0H543s0,0,0,0l-.69,1.89,0,0Z"/>
      <path d="M543.54,47.64a.62.62,0,0,0,.67.68,1.1,1.1,0,0,0,.5-.11s0,0,0,0v.23a.05.05,0,0,1,0,0,1.4,1.4,0,0,1-.57.11.9.9,0,0,1-.94-1,.93.93,0,0,1,.89-1,.76.76,0,0,1,.78.8.91.91,0,0,1,0,.21s0,0,0,0a2.08,2.08,0,0,1-.41,0Zm.75-.25h.25a.06.06,0,0,0,0,0,.48.48,0,0,0-.48-.48.55.55,0,0,0-.53.53Z"/>
      <path d="M545.24,47.71a0,0,0,0,1,0,0v-.25s0,0,0,0h.9s0,0,0,0v.25a0,0,0,0,1,0,0Z"/>
      <path d="M548.23,48.57s0,0,0,0c-.29-1.06-.37-1.39-.41-1.58h0c-.07.32-.21.81-.44,1.58,0,0,0,0,0,0H547s0,0,0,0l-.52-1.88s0,0,0,0h.3s0,0,0,0c.29,1.1.36,1.47.39,1.61h0c0-.14.1-.47.44-1.6a0,0,0,0,1,0,0H548s0,0,0,0c.32,1.16.38,1.45.41,1.61h0a16.44,16.44,0,0,1,.42-1.61l0,0h.28s0,0,0,0l-.57,1.9s0,0,0,0Z"/>
      <path d="M550.79,48.23a1.15,1.15,0,0,0,0,.19s0,0,0,0a1.61,1.61,0,0,1-.75.17c-.42,0-.74-.21-.74-.63s.39-.61.89-.61h.28v-.1c0-.12-.06-.4-.46-.4a1.12,1.12,0,0,0-.5.12s0,0,0,0v-.24s0,0,0,0a1.23,1.23,0,0,1,.57-.12.67.67,0,0,1,.72.75Zm-.32-.59h-.27c-.39,0-.57.13-.57.35s.12.36.47.36a.94.94,0,0,0,.37-.07Z"/>
      <path d="M552.16,48.52a.05.05,0,0,1,0,0,.73.73,0,0,1-.3,0c-.29,0-.46-.14-.46-.52V46.92h-.28s0,0,0,0v-.22s0,0,0,0h.28c0-.15,0-.42,0-.51s0,0,0,0l.27-.05s0,0,0,0a4.67,4.67,0,0,0,0,.57h.43s0,0,0,0v.23s0,0,0,0h-.43V48c0,.18.07.29.25.29a.57.57,0,0,0,.18,0s0,0,0,0Z"/>
      <path d="M552.69,47.64a.63.63,0,0,0,.67.68,1.1,1.1,0,0,0,.5-.11s0,0,0,0v.23a.05.05,0,0,1,0,0,1.37,1.37,0,0,1-.57.11.9.9,0,0,1-.94-1,.93.93,0,0,1,.89-1,.76.76,0,0,1,.78.8.91.91,0,0,1,0,.21s0,0,0,0a2.08,2.08,0,0,1-.41,0Zm.75-.25h.25a.06.06,0,0,0,0,0,.47.47,0,0,0-.47-.48.55.55,0,0,0-.54.53Z"/>
      <path d="M554.68,46.63a0,0,0,0,1,0,0,1.42,1.42,0,0,1,0,.27.82.82,0,0,1,.64-.34s0,0,0,0v.28a0,0,0,0,1,0,0,.73.73,0,0,0-.63.29v1.33s0,0,0,0h-.28a0,0,0,0,1,0,0V47.16c0-.16,0-.4,0-.51l0,0Z"/>
      <path d="M555.75,48.57a0,0,0,0,1,0,0V47.05c0-.18,0-.32,0-.4s0,0,0,0H556s0,0,0,0a1,1,0,0,1,0,.19.85.85,0,0,1,.6-.25.56.56,0,0,1,.53.29,1,1,0,0,1,.67-.29c.29,0,.65.15.65.76v1.2s0,0,0,0h-.28a0,0,0,0,1,0,0V47.38c0-.28-.12-.5-.4-.5a.65.65,0,0,0-.5.24.86.86,0,0,1,0,.25v1.17s0,0,0,0H557a0,0,0,0,1,0,0V47.36c0-.3-.14-.48-.4-.48a.68.68,0,0,0-.49.23v1.44s0,0,0,0Z"/>
      <path d="M560.39,48.23v.21a1.61,1.61,0,0,1-.75.17c-.43,0-.75-.21-.75-.63s.4-.61.9-.61h.27v-.1a.4.4,0,0,0-.45-.4,1.16,1.16,0,0,0-.51.12s0,0,0,0v-.24s0,0,0,0a1.29,1.29,0,0,1,.57-.12.68.68,0,0,1,.73.75Zm-.33-.59h-.26c-.39,0-.58.13-.58.35s.13.36.48.36a.86.86,0,0,0,.36-.07Z"/>
      <path d="M561.2,46.63s0,0,0,0a1.57,1.57,0,0,1,0,.27.84.84,0,0,1,.64-.34s0,0,0,0v.28s0,0,0,0a.73.73,0,0,0-.62.29v1.33s0,0,0,0H561s0,0,0,0V47.16c0-.16,0-.4,0-.51s0,0,0,0Z"/>
      <path d="M563.8,46.63s0,0,0,0-.71.71-.86.85v0l1,1s0,0,0,0h-.38l0,0c-.21-.21-.71-.74-.9-.95v.94a0,0,0,0,1,0,0h-.28s0,0,0,0V45.73s0,0,0,0h.28s0,0,0,0v1.79l.84-.87,0,0Z"/>
      <path d="M564,47.91s0,0,0,0v-.22a.06.06,0,0,1,0,0l1.09-1.58s0,0,0,0h.34s0,0,0,0v1.58h.33s0,0,0,0l0,.23s0,0,0,0h-.28v.64s0,0,0,0h-.27s0,0,0,0v-.64Zm1.16-.77c0-.4,0-.68,0-.81h0c-.09.18-.73,1.11-.85,1.3h.83Z"/>
      <path d="M566.06,47.91s0,0,0,0v-.22s0,0,0,0l1.08-1.58s0,0,0,0h.34s0,0,0,0v1.58h.33s0,0,0,0l0,.23a.05.05,0,0,1,0,0h-.27v.64a0,0,0,0,1,0,0h-.27s0,0,0,0v-.64Zm1.16-.77c0-.4,0-.68,0-.81h0c-.09.18-.73,1.11-.85,1.3h.83Z"/>
    </g>
    <g>
      <path d="M581,45.71s0,0,0,0v.94a1.22,1.22,0,0,1,.43-.08.88.88,0,0,1,.92.93,1.06,1.06,0,0,1-1.11,1.09,1.63,1.63,0,0,1-.55-.08s0,0,0,0V45.73s0,0,0,0Zm.41,1.17A1,1,0,0,0,581,47v1.34a.74.74,0,0,0,.27,0,.72.72,0,0,0,.74-.77A.6.6,0,0,0,581.38,46.88Z"/>
      <path d="M583,46.63s0,0,0,0a1,1,0,0,1,0,.27.84.84,0,0,1,.64-.34s0,0,0,0v.28s0,0,0,0a.73.73,0,0,0-.62.29v1.33s0,0,0,0h-.29s0,0,0,0V47.16c0-.16,0-.4,0-.51s0,0,0,0Z"/>
      <path d="M585.38,48.23v.21a1.61,1.61,0,0,1-.75.17c-.43,0-.75-.21-.75-.63s.4-.61.9-.61h.27v-.1a.4.4,0,0,0-.45-.4,1.16,1.16,0,0,0-.51.12s0,0,0,0v-.24s0,0,0,0a1.29,1.29,0,0,1,.57-.12.68.68,0,0,1,.73.75Zm-.33-.59h-.26c-.39,0-.58.13-.58.35s.13.36.48.36a.92.92,0,0,0,.36-.07Z"/>
      <path d="M585.94,47.08c0-.14,0-.36,0-.43s0,0,0,0h.25l0,0s0,.11,0,.2a.87.87,0,0,1,.61-.26c.29,0,.65.14.65.77v1.18s0,0,0,0h-.28a0,0,0,0,1,0,0V47.39c0-.3-.13-.51-.41-.51a.63.63,0,0,0-.5.25v1.41a0,0,0,0,1,0,0H586s0,0,0,0Z"/>
      <path d="M587.94,47.62a1,1,0,0,1,1.08-1l.25,0v-.88s0,0,0,0h.29s0,0,0,0v2.51a1.41,1.41,0,0,0,0,.2,0,0,0,0,1,0,0,1.52,1.52,0,0,1-.68.15A.92.92,0,0,1,587.94,47.62Zm1.33-.7a.65.65,0,0,0-.26,0,.68.68,0,0,0-.73.72.64.64,0,0,0,.67.72.83.83,0,0,0,.32,0Z"/>
      <path d="M590.06,47.71a0,0,0,0,1,0,0v-.25s0,0,0,0h.9s0,0,0,0v.25a0,0,0,0,1,0,0Z"/>
      <path d="M591.41,45.73s0,0,0,0h.28s0,0,0,0v2.41c0,.16.07.19.16.19H592a0,0,0,0,1,0,0v.21s0,0,0,0a.44.44,0,0,1-.19,0c-.19,0-.38-.07-.38-.44Z"/>
      <path d="M592.34,46a.2.2,0,0,1,.21-.2.19.19,0,0,1,.2.2.2.2,0,0,1-.21.21A.2.2,0,0,1,592.34,46Zm0,.62s0,0,0,0h.29s0,0,0,0v1.89s0,0,0,0h-.27a0,0,0,0,1,0,0Z"/>
      <path d="M593.58,45.71s0,0,0,0v.94a1.18,1.18,0,0,1,.43-.08.88.88,0,0,1,.91.93,1.05,1.05,0,0,1-1.1,1.09,1.63,1.63,0,0,1-.55-.08s0,0,0,0V45.73s0,0,0,0Zm.41,1.17a1,1,0,0,0-.38.07v1.34a.74.74,0,0,0,.27,0,.71.71,0,0,0,.73-.77A.6.6,0,0,0,594,46.88Z"/>
      <path d="M595.63,46.63s0,0,0,0a1.57,1.57,0,0,1,0,.27.84.84,0,0,1,.64-.34s0,0,0,0v.28s0,0,0,0a.75.75,0,0,0-.63.29v1.33s0,0,0,0h-.29s0,0,0,0V47.16c0-.16,0-.4,0-.51s0,0,0,0Z"/>
      <path d="M598,48.23a1.15,1.15,0,0,0,0,.19s0,0,0,0a1.59,1.59,0,0,1-.75.17c-.42,0-.74-.21-.74-.63s.4-.61.89-.61h.28v-.1a.4.4,0,0,0-.45-.4,1.13,1.13,0,0,0-.51.12s0,0,0,0v-.24s0,0,0,0a1.29,1.29,0,0,1,.57-.12.67.67,0,0,1,.72.75Zm-.32-.59h-.27c-.38,0-.57.13-.57.35s.12.36.47.36a.94.94,0,0,0,.37-.07Z"/>
      <path d="M598.8,46.63s0,0,0,0,0,.18,0,.27a.82.82,0,0,1,.64-.34s0,0,0,0v.28s0,0,0,0a.73.73,0,0,0-.63.29v1.33s0,0,0,0h-.29a0,0,0,0,1,0,0V47.16a3.94,3.94,0,0,0,0-.51l0,0Z"/>
      <path d="M599.81,46a.19.19,0,0,1,.2-.2.18.18,0,0,1,.2.2.2.2,0,1,1-.4,0Zm0,.62a0,0,0,0,1,0,0h.28s0,0,0,0v1.89a0,0,0,0,1,0,0h-.27s0,0,0,0Z"/>
      <path d="M600.94,47.64a.62.62,0,0,0,.67.68,1.1,1.1,0,0,0,.5-.11s0,0,0,0v.23a.05.05,0,0,1,0,0,1.4,1.4,0,0,1-.57.11.9.9,0,0,1-.94-1,.93.93,0,0,1,.89-1,.76.76,0,0,1,.78.8.91.91,0,0,1,0,.21s0,0,0,0a2.08,2.08,0,0,1-.41,0Zm.75-.25h.25a.06.06,0,0,0,0,0,.48.48,0,0,0-.48-.48.55.55,0,0,0-.53.53Z"/>
      <path d="M603.27,46.86c-.27,0-.36.13-.36.25s.08.21.38.33.56.32.56.6-.3.57-.71.57a1.28,1.28,0,0,1-.54-.11.05.05,0,0,1,0,0v-.27s0,0,0,0a1,1,0,0,0,.54.16c.25,0,.38-.11.38-.26s-.09-.23-.37-.34-.57-.32-.57-.6.25-.54.68-.54a1,1,0,0,1,.47.09s0,0,0,0V47s0,0,0,0A1,1,0,0,0,603.27,46.86Z"/>
      <path d="M604.1,47.91s0,0,0,0v-.22s0,0,0,0l1.08-1.58s0,0,.05,0h.34s0,0,0,0v1.58h.33s0,0,0,0l0,.23,0,0h-.27v.64a0,0,0,0,1,0,0h-.27s0,0,0,0v-.64Zm1.16-.77c0-.4,0-.68,0-.81h0c-.09.18-.73,1.11-.85,1.3h.83Z"/>
      <path d="M606.19,47.91s0,0,0,0v-.22s0,0,0,0l1.09-1.58s0,0,0,0h.34s0,0,0,0v1.58H608s0,0,0,0l0,.23s0,0,0,0h-.27v.64a0,0,0,0,1,0,0h-.28a0,0,0,0,1,0,0v-.64Zm1.16-.77c0-.4,0-.68,0-.81h0c-.09.18-.73,1.11-.86,1.3h.84Z"/>
    </g>
    <g>
      <path d="M631.6,48.52s0,0,0,0a1.24,1.24,0,0,1-.43.06.94.94,0,0,1-1-1,1,1,0,0,1,1-1,.92.92,0,0,1,.38,0s0,0,0,0v.25s0,0,0,0a.92.92,0,0,0-.37-.06.67.67,0,0,0-.7.72.66.66,0,0,0,.7.71,1,1,0,0,0,.37-.05s0,0,0,0Z"/>
      <path d="M633.67,47.6a.92.92,0,1,1-1.83,0,.93.93,0,0,1,.92-1A.92.92,0,0,1,633.67,47.6Zm-1.5,0c0,.41.22.73.6.73s.56-.22.56-.72-.17-.72-.59-.72S632.17,47.16,632.17,47.59Z"/>
      <path d="M634.09,47.08c0-.14,0-.36,0-.43s0,0,0,0h.24l0,0a.88.88,0,0,1,0,.2.87.87,0,0,1,.61-.26c.29,0,.66.14.66.77v1.18a0,0,0,0,1,0,0h-.28a0,0,0,0,1,0,0V47.39c0-.3-.13-.51-.41-.51a.64.64,0,0,0-.5.25v1.41s0,0,0,0h-.29s0,0,0,0Z"/>
      <path d="M636.67,48.57l0,0c-.08-.24-.57-1.63-.67-1.89,0,0,0,0,0,0h.31s0,0,0,0c.34,1,.48,1.45.52,1.61h0c0-.16.2-.59.55-1.61,0,0,0,0,0,0h.28s0,0,0,0L637,48.55l0,0Z"/>
      <path d="M638.26,47.64a.62.62,0,0,0,.67.68,1.1,1.1,0,0,0,.5-.11s0,0,0,0v.23a.05.05,0,0,1,0,0,1.4,1.4,0,0,1-.57.11.9.9,0,0,1-.94-1,.93.93,0,0,1,.89-1,.76.76,0,0,1,.78.8.91.91,0,0,1,0,.21s0,0,0,0a2.08,2.08,0,0,1-.41,0Zm.75-.25h.25a.06.06,0,0,0,0,0,.48.48,0,0,0-.48-.48.55.55,0,0,0-.53.53Z"/>
      <path d="M640.25,46.63s0,0,0,0a1,1,0,0,1,0,.27.86.86,0,0,1,.65-.34s0,0,0,0v.28a0,0,0,0,1,0,0,.73.73,0,0,0-.63.29v1.33s0,0,0,0H640a0,0,0,0,1,0,0V47.16c0-.16,0-.4,0-.51s0,0,0,0Z"/>
      <path d="M642.29,48.52a.05.05,0,0,1,0,0,.73.73,0,0,1-.3,0c-.29,0-.46-.14-.46-.52V46.92h-.28s0,0,0,0v-.22s0,0,0,0h.28a3.68,3.68,0,0,1,0-.51s0,0,0,0l.27-.05s0,0,0,0,0,.37,0,.57h.42a0,0,0,0,1,0,0v.23a0,0,0,0,1,0,0h-.42V48c0,.18.07.29.24.29l.19,0s0,0,0,0Z"/>
      <path d="M642.47,47.91s0,0,0,0v-.22s0,0,0,0l1.08-1.58s0,0,.05,0h.34s0,0,0,0v1.58h.32s0,0,0,0l0,.23s0,0,0,0H644v.64a0,0,0,0,1,0,0h-.28a0,0,0,0,1,0,0v-.64Zm1.16-.77c0-.4,0-.68,0-.81h0c-.09.18-.73,1.11-.86,1.3h.84Z"/>
      <path d="M644.55,47.91l0,0v-.22s0,0,0,0l1.09-1.58s0,0,0,0H646s0,0,0,0v1.58h.32s0,0,0,0l0,.23s0,0,0,0H646v.64s0,0,0,0h-.27a0,0,0,0,1,0,0v-.64Zm1.17-.77c0-.4,0-.68,0-.81h0c-.08.18-.72,1.11-.85,1.3h.84Z"/>
    </g>
    <g>
      <path d="M670.74,48.52s0,0,0,0a1.3,1.3,0,0,1-.44.06.94.94,0,0,1-1-1,1.1,1.1,0,0,1,1.43-1s0,0,0,0v.25s0,0,0,0a.87.87,0,0,0-.36-.06.68.68,0,0,0-.71.72.67.67,0,0,0,.71.71,1,1,0,0,0,.37-.05s0,0,0,0Z"/>
      <path d="M671.15,45.73s0,0,0,0h.28s0,0,0,0v2.41c0,.16.06.19.16.19h.08a0,0,0,0,1,0,0v.21s0,0,0,0a.44.44,0,0,1-.19,0c-.19,0-.38-.07-.38-.44Z"/>
      <path d="M673.8,47.6a.92.92,0,1,1-1.83,0,.93.93,0,0,1,.92-1A.91.91,0,0,1,673.8,47.6Zm-1.49,0c0,.41.21.73.59.73s.56-.22.56-.72-.17-.72-.58-.72S672.31,47.16,672.31,47.59Z"/>
      <path d="M675.77,48.15a3.18,3.18,0,0,0,0,.4s0,0,0,0h-.26s0,0,0,0a.79.79,0,0,1,0-.17.8.8,0,0,1-.58.23c-.34,0-.66-.17-.66-.75V46.65s0,0,0,0h.29l0,0v1.17c0,.31.14.5.42.5a.61.61,0,0,0,.46-.21V46.65s0,0,0,0h.28s0,0,0,0Z"/>
      <path d="M676.19,47.62a1,1,0,0,1,1.09-1l.25,0v-.88s0,0,0,0h.29s0,0,0,0v2.51a1.41,1.41,0,0,0,0,.2,0,0,0,0,1,0,0,1.55,1.55,0,0,1-.68.15A.92.92,0,0,1,676.19,47.62Zm1.34-.7a.65.65,0,0,0-.26,0,.69.69,0,0,0-.74.72.65.65,0,0,0,.68.72.83.83,0,0,0,.32,0Z"/>
      <path d="M678.32,47.71s0,0,0,0v-.25s0,0,0,0h.89s0,0,0,0v.25s0,0,0,0Z"/>
      <path d="M680.21,46.86c-.26,0-.35.13-.35.25s.07.21.37.33.57.32.57.6-.3.57-.72.57a1.2,1.2,0,0,1-.53-.11.05.05,0,0,1,0,0v-.27s0,0,0,0a1,1,0,0,0,.54.16c.26,0,.38-.11.38-.26s-.09-.23-.36-.34-.57-.32-.57-.6.24-.54.68-.54a1,1,0,0,1,.47.09s0,0,0,0V47s0,0,0,0A.92.92,0,0,0,680.21,46.86Z"/>
      <path d="M682.07,48.52a.05.05,0,0,1,0,0,.73.73,0,0,1-.3,0c-.29,0-.46-.14-.46-.52V46.92H681s0,0,0,0v-.22s0,0,0,0h.28a3.68,3.68,0,0,1,0-.51s0,0,0,0l.27-.05s0,0,0,0,0,.37,0,.57H682s0,0,0,0v.23s0,0,0,0h-.43V48c0,.18.07.29.24.29a.63.63,0,0,0,.19,0s0,0,0,0Z"/>
      <path d="M684.09,47.6a.92.92,0,1,1-1.83,0,.93.93,0,0,1,.92-1A.91.91,0,0,1,684.09,47.6Zm-1.49,0c0,.41.21.73.59.73s.56-.22.56-.72-.17-.72-.58-.72S682.6,47.16,682.6,47.59Z"/>
      <path d="M684.77,46.63s0,0,0,0a1.42,1.42,0,0,1,0,.27.82.82,0,0,1,.64-.34s0,0,0,0v.28a0,0,0,0,1,0,0,.73.73,0,0,0-.63.29v1.33s0,0,0,0h-.28a0,0,0,0,1,0,0V47.16c0-.16,0-.4,0-.51l0,0Z"/>
      <path d="M687.12,48.23a1.15,1.15,0,0,0,0,.19s0,0,0,0a1.61,1.61,0,0,1-.75.17c-.42,0-.74-.21-.74-.63s.39-.61.89-.61h.27v-.1c0-.12,0-.4-.45-.4a1.12,1.12,0,0,0-.5.12s0,0,0,0v-.24s0,0,0,0a1.23,1.23,0,0,1,.57-.12.67.67,0,0,1,.72.75Zm-.33-.59h-.26c-.39,0-.57.13-.57.35s.12.36.47.36a.86.86,0,0,0,.36-.07Z"/>
      <path d="M688.5,48.24c.49,0,.77.21.77.56s-.38.71-1,.71-.88-.31-.88-.6c0-.14.12-.32.39-.55a.53.53,0,0,1-.09-.3.51.51,0,0,1,.06-.25.63.63,0,0,1-.27-.54.69.69,0,0,1,.75-.68,1.21,1.21,0,0,1,.3,0h.65s0,0,0,0v.23s0,0,0,0h-.37a.54.54,0,0,1,.14.39.65.65,0,0,1-.73.66.76.76,0,0,1-.21,0,.26.26,0,0,0,0,.15.24.24,0,0,0,.07.16Zm-.5.27a.63.63,0,0,0-.26.37c0,.19.22.37.58.37s.64-.2.64-.4-.25-.3-.53-.32Zm-.16-1.25a.41.41,0,1,0,.82,0,.41.41,0,1,0-.82,0Z"/>
      <path d="M689.75,47.64a.62.62,0,0,0,.67.68,1.1,1.1,0,0,0,.5-.11s0,0,0,0v.23s0,0,0,0a1.4,1.4,0,0,1-.57.11.9.9,0,0,1-.94-1,.93.93,0,0,1,.88-1,.76.76,0,0,1,.79.8.91.91,0,0,1,0,.21s0,0,0,0a2.13,2.13,0,0,1-.41,0Zm.75-.25h.25v0a.47.47,0,0,0-.47-.48.55.55,0,0,0-.53.53Z"/>
      <path d="M691.32,47.91s0,0,0,0v-.22a.06.06,0,0,1,0,0l1.09-1.58s0,0,0,0h.34s0,0,0,0v1.58h.32s0,0,0,0l0,.23s0,0,0,0h-.27v.64s0,0,0,0h-.27a0,0,0,0,1,0,0v-.64Zm1.17-.77c0-.4,0-.68,0-.81h0c-.08.18-.72,1.11-.85,1.3h.84Z"/>
      <path d="M693.41,47.91s0,0,0,0v-.22a.06.06,0,0,1,0,0l1.09-1.58s0,0,0,0h.34s0,0,0,0v1.58h.33s0,0,0,0l0,.23s0,0,0,0h-.28v.64s0,0,0,0h-.27s0,0,0,0v-.64Zm1.16-.77c0-.4,0-.68,0-.81h0c-.09.18-.73,1.11-.85,1.3h.83Z"/>
    </g>
    <g>
      <path d="M719.33,46.63s0,0,0,0a1,1,0,0,1,0,.27.86.86,0,0,1,.65-.34s0,0,0,0v.28a0,0,0,0,1,0,0,.73.73,0,0,0-.63.29v1.33s0,0,0,0h-.28a0,0,0,0,1,0,0V47.16c0-.16,0-.4,0-.51s0,0,0,0Z"/>
      <path d="M720.57,47.64a.63.63,0,0,0,.67.68,1.1,1.1,0,0,0,.5-.11s0,0,0,0v.23a.05.05,0,0,1,0,0,1.37,1.37,0,0,1-.57.11.89.89,0,0,1-.93-1,.92.92,0,0,1,.88-1,.76.76,0,0,1,.78.8.91.91,0,0,1,0,.21s0,0,0,0a2.08,2.08,0,0,1-.41,0Zm.75-.25h.25a.06.06,0,0,0,0,0,.47.47,0,0,0-.47-.48.55.55,0,0,0-.54.53Z"/>
      <path d="M722.9,46.86c-.27,0-.35.13-.35.25s.07.21.37.33.57.32.57.6-.3.57-.72.57a1.2,1.2,0,0,1-.53-.11s0,0,0,0v-.27s0,0,0,0a1,1,0,0,0,.54.16c.25,0,.38-.11.38-.26s-.09-.23-.37-.34-.56-.32-.56-.6.24-.54.68-.54a.94.94,0,0,1,.46.09s0,0,0,0V47s0,0,0,0A.92.92,0,0,0,722.9,46.86Z"/>
      <path d="M723.86,46a.19.19,0,0,1,.2-.2.18.18,0,0,1,.2.2.2.2,0,0,1-.21.21A.19.19,0,0,1,723.86,46Zm0,.62s0,0,0,0h.28s0,0,0,0v1.89s0,0,0,0h-.28a0,0,0,0,1,0,0Z"/>
      <path d="M724.63,48.57s0,0,0,0v-.19c.27-.39.93-1.25,1.06-1.44h-1s0,0,0,0l.05-.23,0,0h1.35s0,0,0,0v.17a.09.09,0,0,1,0,0c-.41.59-.93,1.27-1,1.42h1.09s0,0,0,0l0,.24s0,0,0,0Z"/>
      <path d="M726.68,47.64a.62.62,0,0,0,.67.68,1.1,1.1,0,0,0,.5-.11s0,0,0,0v.23a.05.05,0,0,1,0,0,1.4,1.4,0,0,1-.57.11.9.9,0,0,1-.94-1,.93.93,0,0,1,.89-1,.76.76,0,0,1,.78.8.91.91,0,0,1,0,.21s0,0,0,0a2.08,2.08,0,0,1-.41,0Zm.75-.25h.25a.06.06,0,0,0,0,0,.48.48,0,0,0-.48-.48.55.55,0,0,0-.53.53Z"/>
      <path d="M728.25,47.91l0,0v-.22s0,0,0,0l1.09-1.58s0,0,0,0h.34s0,0,0,0v1.58h.32s0,0,0,0l0,.23s0,0,0,0h-.27v.64s0,0,0,0h-.27a0,0,0,0,1,0,0v-.64Zm1.17-.77c0-.4,0-.68,0-.81h0c-.08.18-.72,1.11-.85,1.3h.84Z"/>
      <path d="M730.34,47.91s0,0,0,0v-.22a.06.06,0,0,1,0,0l1.09-1.58s0,0,0,0h.34s0,0,0,0v1.58h.32s0,0,0,0l0,.23s0,0,0,0h-.27v.64s0,0,0,0h-.27s0,0,0,0v-.64Zm1.17-.77c0-.4,0-.68,0-.81h0c-.09.18-.73,1.11-.85,1.3h.84Z"/>
    </g>
    <g>
      <path d="M760.87,48.52a.05.05,0,0,1,0,0,.73.73,0,0,1-.3,0c-.29,0-.47-.14-.47-.52V46.92h-.27s0,0,0,0v-.22a0,0,0,0,1,0,0h.27c0-.15,0-.42,0-.51a0,0,0,0,1,0,0l.27-.05s0,0,0,0,0,.37,0,.57h.42a0,0,0,0,1,0,0v.23a0,0,0,0,1,0,0h-.42V48c0,.18.07.29.24.29l.19,0s0,0,0,0Z"/>
      <path d="M761.47,46.63s0,0,0,0a1,1,0,0,1,0,.27.84.84,0,0,1,.65-.34s0,0,0,0v.28s0,0,0,0a.73.73,0,0,0-.63.29v1.33s0,0,0,0h-.28a0,0,0,0,1,0,0V47.16c0-.16,0-.4,0-.51s0,0,0,0Z"/>
      <path d="M762.49,46a.19.19,0,0,1,.2-.2.18.18,0,0,1,.2.2.2.2,0,0,1-.2.21A.19.19,0,0,1,762.49,46Zm0,.62a0,0,0,0,1,0,0h.28s0,0,0,0v1.89s0,0,0,0h-.28a0,0,0,0,1,0,0Z"/>
      <path d="M763.44,48.57s0,0,0,0V47.05a3.45,3.45,0,0,0,0-.4s0,0,0,0h.25l0,0a1,1,0,0,1,0,.19.87.87,0,0,1,.6-.25.58.58,0,0,1,.54.29.91.91,0,0,1,.66-.29c.3,0,.65.15.65.76v1.2s0,0,0,0h-.27a0,0,0,0,1,0,0V47.38c0-.28-.13-.5-.41-.5a.63.63,0,0,0-.49.24,1.47,1.47,0,0,1,0,.25v1.17a0,0,0,0,1,0,0h-.28a0,0,0,0,1,0,0V47.36c0-.3-.14-.48-.4-.48a.66.66,0,0,0-.48.23v1.44s0,0,0,0Z"/>
      <path d="M766.67,47.71s0,0,0,0v-.25s0,0,0,0h.89s0,0,0,0v.25s0,0,0,0Z"/>
      <path d="M768.49,48.57l0,0c-.08-.24-.57-1.63-.67-1.89,0,0,0,0,0,0h.31s0,0,0,0c.33,1,.48,1.45.52,1.61h0c.05-.16.2-.59.55-1.61,0,0,0,0,0,0h.28s0,0,0,0l-.69,1.89a.05.05,0,0,1,0,0Z"/>
      <path d="M769.84,46a.19.19,0,0,1,.2-.2.18.18,0,0,1,.2.2.2.2,0,0,1-.2.21A.19.19,0,0,1,769.84,46Zm0,.62a0,0,0,0,1,0,0h.28s0,0,0,0v1.89a0,0,0,0,1,0,0h-.28a0,0,0,0,1,0,0Z"/>
      <path d="M770.63,47.62a1,1,0,0,1,1.09-1l.25,0v-.88s0,0,0,0h.29s0,0,0,0v2.71s0,0,0,0a1.48,1.48,0,0,1-.67.15A.92.92,0,0,1,770.63,47.62Zm1.34-.7a.65.65,0,0,0-.26,0,.69.69,0,0,0-.74.72.65.65,0,0,0,.68.72.86.86,0,0,0,.32,0Z"/>
      <path d="M773.06,47.64a.63.63,0,0,0,.67.68,1.08,1.08,0,0,0,.5-.11s0,0,0,0v.23a.05.05,0,0,1,0,0,1.35,1.35,0,0,1-.56.11.9.9,0,0,1-.94-1,.92.92,0,0,1,.88-1,.76.76,0,0,1,.78.8.91.91,0,0,1,0,.21l0,0a2.2,2.2,0,0,1-.42,0Zm.75-.25h.26v0a.47.47,0,0,0-.47-.48.54.54,0,0,0-.53.53Z"/>
      <path d="M776.52,47.6a.92.92,0,1,1-1.83,0,.93.93,0,0,1,.92-1A.92.92,0,0,1,776.52,47.6Zm-1.49,0c0,.41.21.73.59.73s.56-.22.56-.72-.17-.72-.59-.72S775,47.16,775,47.59Z"/>
      <path d="M776.78,47.91s0,0,0,0v-.22a.06.06,0,0,1,0,0l1.09-1.58s0,0,0,0h.34s0,0,0,0v1.58h.33s0,0,0,0l0,.23s0,0,0,0h-.28v.64s0,0,0,0H778s0,0,0,0v-.64Zm1.17-.77c0-.4,0-.68,0-.81h0c-.09.18-.73,1.11-.85,1.3H778Z"/>
      <path d="M778.87,47.91s0,0,0,0v-.22a.06.06,0,0,1,0,0L780,46.05s0,0,0,0h.34s0,0,0,0v1.58h.33s0,0,0,0l0,.23s0,0,0,0h-.28v.64s0,0,0,0h-.27s0,0,0,0v-.64Zm1.16-.77c0-.4,0-.68,0-.81h0c-.09.18-.73,1.11-.85,1.3H780Z"/>
    </g>
    <g>
      <path d="M805.07,48.52s0,0,0,0a1.3,1.3,0,0,1-.44.06.94.94,0,0,1-1-1,1.1,1.1,0,0,1,1.43-1s0,0,0,0v.25s0,0,0,0a.9.9,0,0,0-.36-.06.67.67,0,0,0-.71.72.67.67,0,0,0,.71.71,1,1,0,0,0,.37-.05s0,0,0,0Z"/>
      <path d="M805.71,46.63a0,0,0,0,1,0,0,1.42,1.42,0,0,1,0,.27.82.82,0,0,1,.64-.34s0,0,0,0v.28a0,0,0,0,1,0,0,.73.73,0,0,0-.63.29v1.33s0,0,0,0h-.28a0,0,0,0,1,0,0V47.16c0-.16,0-.4,0-.51l0,0Z"/>
      <path d="M808.45,47.6a.92.92,0,1,1-1.83,0,.93.93,0,0,1,.92-1A.92.92,0,0,1,808.45,47.6Zm-1.5,0c0,.41.21.73.59.73s.57-.22.57-.72-.17-.72-.59-.72S807,47.16,807,47.59Z"/>
      <path d="M810.54,47.53a1.06,1.06,0,0,1-1.14,1.08h-.2v.8s0,0,0,0l-.3,0s0,0,0,0V46.76h0a2.11,2.11,0,0,1,.75-.16A.88.88,0,0,1,810.54,47.53Zm-1.34-.59V48.3a.78.78,0,0,0,.22,0,.74.74,0,0,0,.78-.77.6.6,0,0,0-.63-.67A1.06,1.06,0,0,0,809.2,46.94Z"/>
      <path d="M810.92,47.71a0,0,0,0,1,0,0v-.25s0,0,0,0h.9s0,0,0,0v.25s0,0,0,0Z"/>
      <path d="M812.75,48.57s0,0,0,0c-.08-.24-.57-1.63-.67-1.89,0,0,0,0,0,0h.3l0,0c.33,1,.48,1.45.52,1.61h0c.05-.16.19-.59.55-1.61,0,0,0,0,0,0h.27s0,0,0,0c-.12.31-.6,1.65-.69,1.89l0,0Z"/>
      <path d="M814.1,46a.19.19,0,0,1,.2-.2.18.18,0,0,1,.2.2.2.2,0,0,1-.2.21A.19.19,0,0,1,814.1,46Zm0,.62a0,0,0,0,1,0,0h.28s0,0,0,0v1.89s0,0,0,0h-.28a0,0,0,0,1,0,0Z"/>
      <path d="M814.89,47.62a1,1,0,0,1,1.09-1l.25,0v-.88s0,0,0,0h.29s0,0,0,0v2.51a1.41,1.41,0,0,0,0,.2s0,0,0,0a1.51,1.51,0,0,1-.67.15A.92.92,0,0,1,814.89,47.62Zm1.34-.7a.68.68,0,0,0-.26,0,.69.69,0,0,0-.74.72.65.65,0,0,0,.68.72.86.86,0,0,0,.32,0Z"/>
      <path d="M817.32,47.64a.63.63,0,0,0,.67.68,1.1,1.1,0,0,0,.5-.11s0,0,0,0v.23a.05.05,0,0,1,0,0,1.4,1.4,0,0,1-.57.11.9.9,0,0,1-.94-1,.93.93,0,0,1,.89-1,.76.76,0,0,1,.78.8.91.91,0,0,1,0,.21s0,0,0,0a2.08,2.08,0,0,1-.41,0Zm.75-.25h.25a.06.06,0,0,0,0,0,.47.47,0,0,0-.47-.48.55.55,0,0,0-.54.53Z"/>
      <path d="M820.78,47.6a.92.92,0,1,1-1.83,0,.93.93,0,0,1,.92-1A.92.92,0,0,1,820.78,47.6Zm-1.5,0c0,.41.22.73.6.73s.56-.22.56-.72-.17-.72-.59-.72S819.28,47.16,819.28,47.59Z"/>
      <path d="M821,47.91s0,0,0,0v-.22a.06.06,0,0,1,0,0l1.09-1.58s0,0,0,0h.34s0,0,0,0v1.58h.33s0,0,0,0l0,.23s0,0,0,0h-.27v.64s0,0,0,0h-.27s0,0,0,0v-.64Zm1.16-.77c0-.4,0-.68,0-.81h0c-.09.18-.73,1.11-.85,1.3h.83Z"/>
      <path d="M823.13,47.91s0,0,0,0v-.22s0,0,0,0l1.08-1.58s0,0,0,0h.34s0,0,0,0v1.58h.33s0,0,0,0l0,.23,0,0h-.27v.64a0,0,0,0,1,0,0h-.27s0,0,0,0v-.64Zm1.16-.77c0-.4,0-.68,0-.81h0c-.09.18-.73,1.11-.85,1.3h.83Z"/>
    </g>
    <g>
      <path d="M840.37,46.63s0,0,0,0a1,1,0,0,1,0,.27.84.84,0,0,1,.65-.34s0,0,0,0v.28a0,0,0,0,1,0,0,.73.73,0,0,0-.63.29v1.33s0,0,0,0h-.28a0,0,0,0,1,0,0V47.16c0-.16,0-.4,0-.51s0,0,0,0Z"/>
      <path d="M841.61,47.64a.63.63,0,0,0,.67.68,1.1,1.1,0,0,0,.5-.11s0,0,0,0v.23a.05.05,0,0,1,0,0,1.37,1.37,0,0,1-.57.11.9.9,0,0,1-.94-1,.93.93,0,0,1,.89-1,.76.76,0,0,1,.78.8.91.91,0,0,1,0,.21s0,0,0,0a2.08,2.08,0,0,1-.41,0Zm.75-.25h.25a.06.06,0,0,0,0,0,.47.47,0,0,0-.47-.48.55.55,0,0,0-.54.53Z"/>
      <path d="M843.37,48.57a0,0,0,0,1,0,0V47.05c0-.18,0-.32,0-.4s0,0,0,0h.25s0,0,0,0a1,1,0,0,1,0,.19.85.85,0,0,1,.6-.25.56.56,0,0,1,.53.29,1,1,0,0,1,.67-.29c.29,0,.64.15.64.76v1.2s0,0,0,0h-.28a0,0,0,0,1,0,0V47.38c0-.28-.12-.5-.4-.5a.65.65,0,0,0-.5.24.86.86,0,0,1,0,.25v1.17s0,0,0,0h-.28a0,0,0,0,1,0,0V47.36c0-.3-.14-.48-.4-.48a.68.68,0,0,0-.49.23v1.44s0,0,0,0Z"/>
      <path d="M848.36,47.6a.92.92,0,1,1-1.83,0,.93.93,0,0,1,.92-1A.92.92,0,0,1,848.36,47.6Zm-1.49,0c0,.41.21.73.59.73s.56-.22.56-.72-.17-.72-.59-.72S846.87,47.16,846.87,47.59Z"/>
      <path d="M849.27,48.57s0,0,0,0c-.08-.24-.58-1.63-.67-1.89,0,0,0,0,0,0h.31s0,0,0,0c.34,1,.48,1.45.53,1.61h0c0-.16.19-.59.54-1.61,0,0,0,0,0,0h.27s0,0,0,0c-.12.31-.61,1.65-.69,1.89l0,0Z"/>
      <path d="M850.85,47.64a.63.63,0,0,0,.67.68,1,1,0,0,0,.5-.11s0,0,0,0v.23a.05.05,0,0,1,0,0,1.31,1.31,0,0,1-.56.11.9.9,0,0,1-.94-1,.93.93,0,0,1,.88-1,.76.76,0,0,1,.78.8c0,.1,0,.17,0,.21l0,0a2.13,2.13,0,0,1-.41,0Zm.75-.25h.26v0a.47.47,0,0,0-.47-.48.54.54,0,0,0-.53.53Z"/>
      <path d="M852.56,47.71s0,0,0,0v-.25s0,0,0,0h.89s0,0,0,0v.25s0,0,0,0Z"/>
      <path d="M854.21,45.71s0,0,0,0v.94a1.18,1.18,0,0,1,.43-.08.88.88,0,0,1,.92.93,1.06,1.06,0,0,1-1.11,1.09,1.63,1.63,0,0,1-.55-.08s0,0,0,0V45.73s0,0,0,0Zm.41,1.17a1,1,0,0,0-.38.07v1.34a.79.79,0,0,0,1-.74A.61.61,0,0,0,854.62,46.88Z"/>
      <path d="M857.38,48.23v.21a1.61,1.61,0,0,1-.75.17c-.42,0-.74-.21-.74-.63s.39-.61.89-.61h.27v-.1a.4.4,0,0,0-.45-.4,1.16,1.16,0,0,0-.51.12s0,0,0,0v-.24s0,0,0,0a1.22,1.22,0,0,1,.56-.12.67.67,0,0,1,.73.75Zm-.33-.59h-.26c-.39,0-.58.13-.58.35s.13.36.48.36a.86.86,0,0,0,.36-.07Z"/>
      <path d="M859.22,48.52s0,0,0,0a1.3,1.3,0,0,1-.44.06.94.94,0,0,1-1-1,1.1,1.1,0,0,1,1.43-1s0,0,0,0v.25s0,0,0,0a.9.9,0,0,0-.36-.06.67.67,0,0,0-.71.72.67.67,0,0,0,.71.71,1,1,0,0,0,.37-.05s0,0,0,0Z"/>
      <path d="M861.16,46.63s0,0,0,0-.71.71-.86.85v0c.26.27.69.72,1,1,0,0,0,0,0,0h-.38l0,0c-.21-.21-.71-.74-.9-.95v.94a0,0,0,0,1,0,0h-.28s0,0,0,0V45.73s0,0,0,0h.28s0,0,0,0v1.79l.84-.87,0,0Z"/>
      <path d="M862.41,48.24c.5,0,.78.21.78.56s-.38.71-1,.71-.88-.31-.88-.6c0-.14.11-.32.39-.55a.54.54,0,0,1-.1-.3.52.52,0,0,1,.07-.25.63.63,0,0,1-.27-.54.69.69,0,0,1,.75-.68,1.21,1.21,0,0,1,.3,0h.65l0,0v.23s0,0,0,0h-.37a.54.54,0,0,1,.14.39.65.65,0,0,1-.73.66l-.22,0a.3.3,0,0,0,0,.31Zm-.49.27a.65.65,0,0,0-.27.37c0,.19.22.37.59.37s.64-.2.64-.4-.25-.3-.54-.32Zm-.16-1.25a.41.41,0,1,0,.82,0,.41.41,0,1,0-.82,0Z"/>
      <path d="M863.74,46.63s0,0,0,0a1.57,1.57,0,0,1,0,.27.84.84,0,0,1,.64-.34s0,0,0,0v.28s0,0,0,0a.73.73,0,0,0-.62.29v1.33s0,0,0,0h-.29s0,0,0,0V47.16c0-.16,0-.4,0-.51s0,0,0,0Z"/>
      <path d="M866.48,47.6a.92.92,0,1,1-1.83,0,.93.93,0,0,1,.92-1A.92.92,0,0,1,866.48,47.6Zm-1.49,0c0,.41.21.73.59.73s.56-.22.56-.72-.17-.72-.59-.72S865,47.16,865,47.59Z"/>
      <path d="M868.45,48.15a3.18,3.18,0,0,0,0,.4,0,0,0,0,1,0,0h-.26s0,0,0,0,0-.11,0-.17a.8.8,0,0,1-.58.23c-.34,0-.66-.17-.66-.75V46.65s0,0,0,0h.29l0,0v1.17c0,.31.14.5.42.5a.61.61,0,0,0,.46-.21V46.65s0,0,0,0h.28s0,0,0,0Z"/>
      <path d="M869,47.08c0-.14,0-.36,0-.43s0,0,0,0h.25s0,0,0,0a1.78,1.78,0,0,1,0,.2.85.85,0,0,1,.61-.26c.28,0,.65.14.65.77v1.18a0,0,0,0,1,0,0h-.28a0,0,0,0,1,0,0V47.39c0-.3-.13-.51-.41-.51a.66.66,0,0,0-.5.25v1.41s0,0,0,0H869s0,0,0,0Z"/>
      <path d="M871,47.62a1,1,0,0,1,1.09-1l.25,0v-.88s0,0,0,0h.29s0,0,0,0v2.51a1.41,1.41,0,0,0,0,.2s0,0,0,0a1.48,1.48,0,0,1-.67.15A.92.92,0,0,1,871,47.62Zm1.34-.7a.65.65,0,0,0-.26,0,.69.69,0,0,0-.74.72.65.65,0,0,0,.68.72.86.86,0,0,0,.32,0Z"/>
      <path d="M873.09,47.91s0,0,0,0v-.22a.06.06,0,0,1,0,0l1.09-1.58s0,0,0,0h.34s0,0,0,0v1.58h.33s0,0,0,0l0,.23,0,0h-.27v.64a0,0,0,0,1,0,0h-.27s0,0,0,0v-.64Zm1.16-.77c0-.4,0-.68,0-.81h0c-.09.18-.73,1.11-.85,1.3h.83Z"/>
      <path d="M875.18,47.91s0,0,0,0v-.22s0,0,0,0l1.08-1.58s0,0,0,0h.34s0,0,0,0v1.58H877s0,0,0,0l0,.23s0,0,0,0h-.27v.64a0,0,0,0,1,0,0h-.27s0,0,0,0v-.64Zm1.16-.77c0-.4,0-.68,0-.81h0c-.09.18-.73,1.11-.86,1.3h.84Z"/>
    </g>
    <g>
      <path d="M891,46.63a0,0,0,0,1,0,0,1.42,1.42,0,0,1,0,.27.82.82,0,0,1,.64-.34s0,0,0,0v.28a0,0,0,0,1,0,0,.73.73,0,0,0-.63.29v1.33s0,0,0,0h-.28a0,0,0,0,1,0,0V47.16c0-.16,0-.4,0-.51a0,0,0,0,1,0,0Z"/>
      <path d="M892.19,47.64a.63.63,0,0,0,.67.68,1.08,1.08,0,0,0,.5-.11s0,0,0,0v.23a.05.05,0,0,1,0,0,1.35,1.35,0,0,1-.56.11.9.9,0,0,1-.94-1,.92.92,0,0,1,.88-1,.76.76,0,0,1,.78.8.91.91,0,0,1,0,.21l0,0a2.2,2.2,0,0,1-.42,0Zm.75-.25h.26v0a.47.47,0,0,0-.47-.48.54.54,0,0,0-.53.53Z"/>
      <path d="M894.52,46.86c-.26,0-.35.13-.35.25s.07.21.37.33.57.32.57.6-.3.57-.72.57a1.2,1.2,0,0,1-.53-.11s0,0,0,0v-.27s0,0,0,0a1,1,0,0,0,.54.16c.26,0,.38-.11.38-.26s-.09-.23-.36-.34-.57-.32-.57-.6.24-.54.68-.54a1,1,0,0,1,.47.09s0,0,0,0V47s0,0,0,0A.92.92,0,0,0,894.52,46.86Z"/>
      <path d="M895.48,46a.19.19,0,0,1,.2-.2.18.18,0,0,1,.2.2.2.2,0,0,1-.2.21A.19.19,0,0,1,895.48,46Zm0,.62a0,0,0,0,1,0,0h.28s0,0,0,0v1.89s0,0,0,0h-.28a0,0,0,0,1,0,0Z"/>
      <path d="M896.25,48.57s0,0,0,0v-.19c.28-.39.94-1.25,1.06-1.44h-1s0,0,0,0l0-.23s0,0,0,0h1.34s0,0,0,0v.17a.09.09,0,0,1,0,0c-.41.59-.93,1.27-1,1.42h1.09s0,0,0,0l0,.24s0,0,0,0Z"/>
      <path d="M898.3,47.64a.63.63,0,0,0,.67.68,1.1,1.1,0,0,0,.5-.11s0,0,0,0v.23a.05.05,0,0,1,0,0,1.37,1.37,0,0,1-.57.11.9.9,0,0,1-.94-1,.93.93,0,0,1,.89-1,.76.76,0,0,1,.78.8.91.91,0,0,1,0,.21s0,0,0,0a2.08,2.08,0,0,1-.41,0Zm.75-.25h.25a.06.06,0,0,0,0,0,.47.47,0,0,0-.47-.48.55.55,0,0,0-.54.53Z"/>
      <path d="M900,47.71a0,0,0,0,1,0,0v-.25s0,0,0,0h.9s0,0,0,0v.25s0,0,0,0Z"/>
      <path d="M901.83,48.57s0,0,0,0c-.08-.24-.57-1.63-.67-1.89,0,0,0,0,0,0h.3l0,0c.33,1,.48,1.45.52,1.61h0c0-.16.19-.59.55-1.61,0,0,0,0,0,0h.27s0,0,0,0c-.12.31-.6,1.65-.69,1.89l0,0Z"/>
      <path d="M903.18,46a.19.19,0,0,1,.2-.2.18.18,0,0,1,.2.2.2.2,0,0,1-.2.21A.19.19,0,0,1,903.18,46Zm0,.62a0,0,0,0,1,0,0h.28s0,0,0,0v1.89s0,0,0,0h-.28a0,0,0,0,1,0,0Z"/>
      <path d="M904,47.62a1,1,0,0,1,1.09-1l.25,0v-.88s0,0,0,0h.29s0,0,0,0v2.51a1.41,1.41,0,0,0,0,.2s0,0,0,0a1.51,1.51,0,0,1-.67.15A.92.92,0,0,1,904,47.62Zm1.34-.7a.68.68,0,0,0-.26,0,.69.69,0,0,0-.74.72.65.65,0,0,0,.68.72.86.86,0,0,0,.32,0Z"/>
      <path d="M906.4,47.64a.63.63,0,0,0,.67.68,1.1,1.1,0,0,0,.5-.11s0,0,0,0v.23a.05.05,0,0,1,0,0,1.37,1.37,0,0,1-.57.11.9.9,0,0,1-.94-1,.93.93,0,0,1,.89-1,.76.76,0,0,1,.78.8.91.91,0,0,1,0,.21s0,0,0,0a2.08,2.08,0,0,1-.41,0Zm.75-.25h.25a.06.06,0,0,0,0,0,.47.47,0,0,0-.47-.48.55.55,0,0,0-.54.53Z"/>
      <path d="M909.86,47.6a.92.92,0,1,1-1.83,0,.93.93,0,0,1,.92-1A.92.92,0,0,1,909.86,47.6Zm-1.5,0c0,.41.22.73.6.73s.56-.22.56-.72-.17-.72-.59-.72S908.36,47.16,908.36,47.59Z"/>
      <path d="M910.12,47.91s0,0,0,0v-.22a.06.06,0,0,1,0,0l1.09-1.58s0,0,0,0h.34s0,0,0,0v1.58h.33s0,0,0,0l0,.23s0,0,0,0h-.28v.64s0,0,0,0h-.27s0,0,0,0v-.64Zm1.16-.77c0-.4,0-.68,0-.81h0c-.09.18-.73,1.11-.85,1.3h.83Z"/>
      <path d="M912.21,47.91s0,0,0,0v-.22s0,0,0,0l1.08-1.58s0,0,.05,0h.34s0,0,0,0v1.58H914s0,0,0,0l0,.23,0,0h-.27v.64a0,0,0,0,1,0,0h-.27s0,0,0,0v-.64Zm1.16-.77c0-.4,0-.68,0-.81h0c-.09.18-.73,1.11-.85,1.3h.83Z"/>
    </g>
    <g>
      <path d="M935.25,48.15a3.18,3.18,0,0,0,0,.4s0,0,0,0H935s0,0,0,0a.79.79,0,0,1,0-.17.8.8,0,0,1-.58.23c-.34,0-.66-.17-.66-.75V46.65s0,0,0,0H934s0,0,0,0v1.17c0,.31.14.5.42.5a.61.61,0,0,0,.47-.21V46.65s0,0,0,0h.28s0,0,0,0Z"/>
      <path d="M937.49,47.53a1.06,1.06,0,0,1-1.14,1.08h-.2v.8s0,0,0,0l-.3,0s0,0,0,0V46.76h0a2.11,2.11,0,0,1,.75-.16A.88.88,0,0,1,937.49,47.53Zm-1.34-.59V48.3a.78.78,0,0,0,.22,0,.74.74,0,0,0,.78-.77.6.6,0,0,0-.63-.67A1.06,1.06,0,0,0,936.15,46.94Z"/>
      <path d="M937.91,45.73s0,0,0,0h.28s0,0,0,0v2.41c0,.16.06.19.16.19h.08s0,0,0,0v.21s0,0,0,0a.39.39,0,0,1-.18,0c-.2,0-.39-.07-.39-.44Z"/>
      <path d="M940.57,47.6a.92.92,0,1,1-1.83,0,.93.93,0,0,1,.92-1A.92.92,0,0,1,940.57,47.6Zm-1.5,0c0,.41.22.73.6.73s.56-.22.56-.72-.17-.72-.59-.72S939.07,47.16,939.07,47.59Z"/>
      <path d="M942.36,48.23a1.15,1.15,0,0,0,0,.19s0,0,0,0a1.61,1.61,0,0,1-.75.17c-.42,0-.74-.21-.74-.63s.39-.61.89-.61H942v-.1a.4.4,0,0,0-.45-.4,1.16,1.16,0,0,0-.51.12s0,0,0,0v-.24s0,0,0,0a1.22,1.22,0,0,1,.56-.12.67.67,0,0,1,.73.75Zm-.33-.59h-.26c-.39,0-.58.13-.58.35s.13.36.48.36a.86.86,0,0,0,.36-.07Z"/>
      <path d="M942.76,47.62a1,1,0,0,1,1.09-1l.25,0v-.88s0,0,0,0h.28s0,0,0,0v2.51a1.41,1.41,0,0,0,0,.2,0,0,0,0,1,0,0,1.55,1.55,0,0,1-.68.15A.92.92,0,0,1,942.76,47.62Zm1.34-.7a.65.65,0,0,0-.26,0,.69.69,0,0,0-.74.72.65.65,0,0,0,.68.72.83.83,0,0,0,.32,0Z"/>
      <path d="M944.84,47.91s0,0,0,0v-.22a.06.06,0,0,1,0,0l1.09-1.58s0,0,0,0h.34s0,0,0,0v1.58h.32s0,0,0,0l0,.23s0,0,0,0h-.27v.64s0,0,0,0H946s0,0,0,0v-.64Zm1.17-.77c0-.4,0-.68,0-.81h0c-.09.18-.73,1.11-.85,1.3H946Z"/>
      <path d="M946.93,47.91s0,0,0,0v-.22a.06.06,0,0,1,0,0L948,46.05s0,0,0,0h.34s0,0,0,0v1.58h.33s0,0,0,0l0,.23s0,0,0,0h-.28v.64s0,0,0,0h-.27s0,0,0,0v-.64Zm1.16-.77c0-.4,0-.68,0-.81h0c-.09.18-.73,1.11-.85,1.3h.83Z"/>
    </g>
    <g>
      <path d="M966.16,47.62a1,1,0,0,1,1.09-1l.25,0v-.88s0,0,0,0h.28s0,0,0,0v2.51a1.41,1.41,0,0,0,0,.2,0,0,0,0,1,0,0,1.55,1.55,0,0,1-.68.15A.92.92,0,0,1,966.16,47.62Zm1.34-.7a.65.65,0,0,0-.26,0,.69.69,0,0,0-.74.72.65.65,0,0,0,.68.72.83.83,0,0,0,.32,0Z"/>
      <path d="M970.09,47.6a.92.92,0,1,1-1.83,0,.93.93,0,0,1,.92-1A.92.92,0,0,1,970.09,47.6Zm-1.5,0c0,.41.22.73.6.73s.56-.22.56-.72-.17-.72-.59-.72S968.59,47.16,968.59,47.59Z"/>
      <path d="M972.15,48.57s0,0,0,0c-.29-1.06-.37-1.39-.41-1.58h0c-.07.32-.21.81-.44,1.58,0,0,0,0,0,0h-.31s0,0,0,0l-.52-1.88s0,0,0,0h.3s0,0,0,0c.29,1.1.36,1.47.39,1.61h0c0-.14.1-.47.44-1.6a0,0,0,0,1,0,0h.32s0,0,0,0c.32,1.16.38,1.45.41,1.61h0a16.44,16.44,0,0,1,.42-1.61l0,0h.28s0,0,0,0l-.57,1.9s0,0,0,0Z"/>
      <path d="M973.43,47.08c0-.14,0-.36,0-.43s0,0,0,0h.25s0,0,0,0a1.78,1.78,0,0,1,0,.2.85.85,0,0,1,.61-.26c.28,0,.65.14.65.77v1.18a0,0,0,0,1,0,0h-.28a0,0,0,0,1,0,0V47.39c0-.3-.13-.51-.41-.51a.66.66,0,0,0-.5.25v1.41s0,0,0,0h-.28a0,0,0,0,1,0,0Z"/>
      <path d="M975.57,45.73s0,0,0,0h.28s0,0,0,0v2.41c0,.16.07.19.16.19h.08a0,0,0,0,1,0,0v.21s0,0,0,0a.44.44,0,0,1-.19,0c-.19,0-.38-.07-.38-.44Z"/>
      <path d="M978.23,47.6a.92.92,0,1,1-.92-1A.92.92,0,0,1,978.23,47.6Zm-1.5,0c0,.41.21.73.59.73s.57-.22.57-.72-.18-.72-.59-.72S976.73,47.16,976.73,47.59Z"/>
      <path d="M980,48.23a1.15,1.15,0,0,0,0,.19s0,0,0,0a1.55,1.55,0,0,1-.74.17c-.43,0-.75-.21-.75-.63s.4-.61.9-.61h.27v-.1a.4.4,0,0,0-.45-.4,1.16,1.16,0,0,0-.51.12s0,0,0,0v-.24s0,0,0,0a1.29,1.29,0,0,1,.57-.12.67.67,0,0,1,.72.75Zm-.32-.59h-.26c-.39,0-.58.13-.58.35s.12.36.48.36a.89.89,0,0,0,.36-.07Z"/>
      <path d="M980.42,47.62a1,1,0,0,1,1.09-1l.25,0v-.88s0,0,0,0h.29s0,0,0,0v2.51a1.41,1.41,0,0,0,0,.2s0,0,0,0a1.51,1.51,0,0,1-.67.15A.92.92,0,0,1,980.42,47.62Zm1.34-.7a.68.68,0,0,0-.26,0,.69.69,0,0,0-.74.72.65.65,0,0,0,.68.72.86.86,0,0,0,.32,0Z"/>
      <path d="M982.5,47.91s0,0,0,0v-.22s0,0,0,0l1.08-1.58s0,0,0,0H984s0,0,0,0v1.58h.33s0,0,0,0l0,.23,0,0H984v.64a0,0,0,0,1,0,0h-.27s0,0,0,0v-.64Zm1.16-.77c0-.4,0-.68,0-.81h0c-.09.18-.73,1.11-.85,1.3h.83Z"/>
      <path d="M984.59,47.91s0,0,0,0v-.22s0,0,0,0l1.09-1.58s0,0,.05,0h.34s0,0,0,0v1.58h.32s0,0,0,0l0,.23s0,0,0,0h-.27v.64a0,0,0,0,1,0,0h-.28a0,0,0,0,1,0,0v-.64Zm1.16-.77c0-.4,0-.68,0-.81h0c-.09.18-.73,1.11-.86,1.3h.84Z"/>
    </g>
    <use width="42" height="42" transform="translate(397.23 1.26)" xlink:href="#premium-templates44"/>
    <use width="41" height="39" transform="translate(661.73 2.5)" xlink:href="#cloud-storage44"/>
    <use width="42" height="42" transform="translate(529.23 2)" xlink:href="#remove-watermark44"/>
    <use width="42" height="43" transform="translate(485.23 2)" xlink:href="#premium-remove-background44"/>
    <use width="40.01" height="38" transform="translate(618.22 2)" xlink:href="#convert44"/>
    <use width="41" height="42" transform="translate(573.73 2)" xlink:href="#brand-libraries44"/>
    <use width="40" height="40" transform="translate(442.23 2.09)" xlink:href="#adobe-stock44"/>
    <use width="41.09" height="40.09" transform="translate(749.71 2.5)" xlink:href="#trim-video44"/>
    <use width="37" height="39" transform="translate(795.75 2.5)" xlink:href="#crop-video44"/>
    <use width="41" height="41" transform="translate(881.75 3.04)" xlink:href="#resize-video44"/>
    <use width="40" height="34" transform="translate(837 3.04)" xlink:href="#remove-background44"/>
    <use width="30.52" height="30.52" transform="translate(710.73 2.43)" xlink:href="#resize44"/>
    <use width="44" height="42.43" transform="translate(48.73 63.9)" xlink:href="#sparkvideo44"/>
    <use width="44" height="42.43" transform="translate(0.58 63.9)" xlink:href="#sparkpage44"/>
    <use width="44" height="42.9" transform="translate(97.86 63.66)" xlink:href="#rush44"/>
    <use width="32.09" height="32.09" transform="translate(925.07 4.24)" xlink:href="#upload44"/>
    <use width="32.04" height="32.03" transform="translate(960.23 4.19)" xlink:href="#download44"/>
  </g>
</svg>
