<svg id="Sprite" xmlns="http://www.w3.org/2000/svg" xmlns:xlink="http://www.w3.org/1999/xlink" viewBox="0 0 380.98 22">
  <defs>
    <symbol id="resize22" data-name="resize22" viewBox="0 0 20 20">
      <g id="ICONS">
        <path id="Path_125937" data-name="Path 125937" d="M15,0H5A5,5,0,0,0,0,5V15a5,5,0,0,0,5,5H15a5,5,0,0,0,5-5V5A5,5,0,0,0,15,0Zm3,15a3,3,0,0,1-3,3H5a3,3,0,0,1-3-3V5A3,3,0,0,1,5,2H15a3,3,0,0,1,3,3Z"/>
        <path id="Path_125938" data-name="Path 125938" d="M15,4H11a1,1,0,0,0,0,2h1.59L10.21,8.38a1,1,0,1,0,1.41,1.41h0L14,7.41V9a1,1,0,1,0,2,0V5A1,1,0,0,0,15,4Z"/>
        <path id="Path_125939" data-name="Path 125939" d="M11.91,13h0Z"/>
        <circle id="Ellipse_24609" data-name="Ellipse 24609" cx="6.76" cy="10" r="1"/>
        <path id="Path_125940" data-name="Path 125940" d="M10.06,10.05a1,1,0,0,0-1.32,1.5l.1.08a1,1,0,0,0,.61.21,1,1,0,0,0,.79-.39,1,1,0,0,0-.17-1.39Z"/>
        <circle id="Ellipse_24610" data-name="Ellipse 24610" cx="3.88" cy="10" r="1"/>
        <path id="Path_125941" data-name="Path 125941" d="M10.93,14.23h.19a1,1,0,1,0-.19,0Z"/>
        <circle id="Ellipse_24611" data-name="Ellipse 24611" cx="11" cy="16.11" r="1"/>
      </g>
    </symbol>
    <symbol id="up-download22" data-name="up-download22" viewBox="0 0 20 20">
      <g id="ICONS-2" data-name="ICONS">
        <path id="Path_125841" data-name="Path 125841" d="M9.27,5.32a1,1,0,0,1,1.41-.05.12.12,0,0,1,.05.05l3.72,4A1,1,0,0,1,13,10.68L11,8.55V19a1,1,0,0,1-2,0V8.55L7,10.68A1,1,0,0,1,5.55,9.32h0Z"/>
        <path id="Path_125842" data-name="Path 125842" d="M19,12a1,1,0,0,1-1-1V5a3,3,0,0,0-3-3H5A3,3,0,0,0,2,5v6a1,1,0,0,1-2,0V5A5,5,0,0,1,5,0H15a5,5,0,0,1,5,5v6A1,1,0,0,1,19,12Z"/>
      </g>
    </symbol>
    <symbol id="remove-bg22" data-name="remove-bg22" viewBox="0 0 20 18">
      <g id="ICONS-3" data-name="ICONS">
        <circle id="Ellipse_24773" data-name="Ellipse 24773" cx="14.5" cy="5.5" r="1.5"/>
        <path id="Path_129134" data-name="Path 129134" d="M15,0H5A5,5,0,0,0,0,5v8a5,5,0,0,0,5,5H15a5,5,0,0,0,5-5V5A5,5,0,0,0,15,0ZM5,2H15a3,3,0,0,1,3,3v7.28l-1.83-1.82a2.25,2.25,0,0,0-3.18,0l-1.21,1.2-4-4a2.3,2.3,0,0,0-3.18,0L2,10.26V5A3,3,0,0,1,5,2ZM15,16H5a3,3,0,0,1-3-3,1.2,1.2,0,0,0,.21-.13L6,9.07a.26.26,0,0,1,.35,0l4.72,4.72a1,1,0,0,0,1.41,0l1.92-1.92a.24.24,0,0,1,.35,0l2.75,2.76A3,3,0,0,1,15,16Z"/>
        <rect id="Rectangle_163116" data-name="Rectangle 163116" x="6" y="2" width="4" height="4" style="isolation: isolate;opacity: 0.300000011920929"/>
        <path id="Path_129135" data-name="Path 129135" d="M15,2H14V4.09A1.43,1.43,0,0,1,14.5,4,1.5,1.5,0,0,1,16,5.5a1.43,1.43,0,0,1-.09.5H18V5A3,3,0,0,0,15,2Z" style="isolation: isolate;opacity: 0.300000011920929"/>
        <path id="Path_129136" data-name="Path 129136" d="M16.17,10.46,18,12.28V10H15.5A2.06,2.06,0,0,1,16.17,10.46Z" style="isolation: isolate;opacity: 0.300000011920929"/>
        <path id="Path_129137" data-name="Path 129137" d="M13.09,6H10V9.88l.12.12h3.55A1.28,1.28,0,0,1,14,9.89v-3A1.52,1.52,0,0,1,13.09,6Z" style="isolation: isolate;opacity: 0.300000011920929"/>
        <path id="Path_129138" data-name="Path 129138" d="M2,10.26l2.6-2.6A2.17,2.17,0,0,1,6,7V6H2Z" style="isolation: isolate;opacity: 0.300000011920929"/>
      </g>
    </symbol>
    <symbol id="convert-png-jpg22" data-name="convert-png-jpg22" viewBox="0 0 22 22">
      <g id="ICONS-4" data-name="ICONS">
        <path id="Path_600145" data-name="Path 600145" d="M11.49,3.33a1,1,0,0,0,1.69-1.08l0,0a6,6,0,0,0-.38-.5A1,1,0,0,0,11.27,3a2.86,2.86,0,0,1,.22.3Z"/>
        <path id="Path_600146" data-name="Path 600146" d="M9,2l.32,0h.11a1,1,0,0,0,1-1,1,1,0,0,0-.9-1L9,0H8.93A1,1,0,0,0,8,1V1A1,1,0,0,0,9,2Z"/>
        <path id="Path_600147" data-name="Path 600147" d="M12,5.64v.5a1,1,0,1,0,2,0v-.5a1,1,0,0,0-2,0Z"/>
        <path id="Path_600148" data-name="Path 600148" d="M1,6.29a1,1,0,0,0,1-1V4.84a1,1,0,0,0-.94-1A1,1,0,0,0,0,4.7v0A2.44,2.44,0,0,0,0,5v.29A1,1,0,0,0,1,6.29Z"/>
        <path id="Path_600149" data-name="Path 600149" d="M5.43,2h.5a1,1,0,0,0,0-2h-.5a1,1,0,0,0,0,2Z"/>
        <path id="Path_600150" data-name="Path 600150" d="M1,9.79a1,1,0,0,0,1-1v-.5a1,1,0,0,0-2,0v.5A1,1,0,0,0,1,9.79Z"/>
        <path id="Path_600151" data-name="Path 600151" d="M2.22,3.12a1,1,0,0,0,.7-.28L3.2,2.6A1,1,0,1,0,2,1H2a5.85,5.85,0,0,0-.47.4,1,1,0,0,0,.69,1.72Z"/>
        <path id="Path_600152" data-name="Path 600152" d="M9.29,9.69a2.17,2.17,0,0,0-3.75,1.5v.18l-.4,0H5a2.32,2.32,0,0,1-.74-.1,3.42,3.42,0,0,1-.9-.44,2.17,2.17,0,0,0-2.81.31,2.2,2.2,0,0,0-.25,2.67,8.63,8.63,0,0,0,1,1.33c.18.19.36.36.54.53A8.27,8.27,0,0,0,4,17.06a11.25,11.25,0,0,0,1.51.53v.23A2.17,2.17,0,0,0,7.71,20h0a2.09,2.09,0,0,0,1.09-.31A5,5,0,0,0,13,22h4a5,5,0,0,0,5-5V13a5,5,0,0,0-5-5H13a1,1,0,0,0-1,1v.49a1.07,1.07,0,0,0,.84,1.14H13a1,1,0,0,0,.92-.64H17a3,3,0,0,1,3,3v4a3,3,0,0,1-3,3H13a3,3,0,0,1-2.72-1.75L12.43,16l.05,0a2.14,2.14,0,0,0,0-2.79ZM7.83,18a.19.19,0,0,1-.1.05h0a.18.18,0,0,1-.17-.18h0V16a18.58,18.58,0,0,1-1.95-.5s-.58-.21-.74-.29h0a5.86,5.86,0,0,1-1.62-1,3.68,3.68,0,0,1-.4-.39,6.55,6.55,0,0,1-.79-1,.2.2,0,0,1,0-.24.18.18,0,0,1,.22,0h0a13,13,0,0,0,1.45.71,4.63,4.63,0,0,0,1.48.19A22.54,22.54,0,0,0,7.5,13h0V11.18a.17.17,0,0,1,0-.12h0A.16.16,0,0,1,7.7,11h0a.14.14,0,0,1,.1.05l2.86,3.07.29.3h0a.15.15,0,0,1,0,.16l-.19.2-.78.83Z"/>
      </g>
    </symbol>
    <symbol id="trim-video22" data-name="trim-video22" viewBox="0 0 21 20.49">
      <g id="Illu">
        <path id="Path_127606" data-name="Path 127606" d="M18.65,14.82a2.3,2.3,0,1,0-2.3-2.3h0a2.61,2.61,0,0,0,.08.56L14,14.67l-5.11-3.3a.77.77,0,0,0-1.06.22A.76.76,0,0,0,8,12.65H8l4.53,2.94L8,18.52a.77.77,0,0,0,.83,1.29L14,16.5l2.4,1.56v.08a2.32,2.32,0,1,0,4.64.05,2.34,2.34,0,0,0-2.3-2.35,2.39,2.39,0,0,0-1.75.77l-1.58-1,1.91-1.24A2.23,2.23,0,0,0,18.65,14.82Zm0-3.07a.77.77,0,1,1-.76.77h0A.77.77,0,0,1,18.65,11.75Zm0,5.63a.77.77,0,1,1-.76.76A.76.76,0,0,1,18.65,17.38Z"/>
        <path id="Path_127607" data-name="Path 127607" d="M6.87,4.72A.82.82,0,0,0,5.74,5a.89.89,0,0,0-.12.39V9.45a.82.82,0,0,0,.86.78.89.89,0,0,0,.39-.12l3.48-2a.74.74,0,0,0,.29-1,.81.81,0,0,0-.29-.29Z"/>
        <path id="Path_127608" data-name="Path 127608" d="M4.86,14.82h1a.77.77,0,0,0,0-1.53h-1A3.33,3.33,0,0,1,1.53,10V4.86A3.34,3.34,0,0,1,4.86,1.53H11a3.33,3.33,0,0,1,3.32,3.33V8.94a.77.77,0,1,0,1.53,0V4.86A4.86,4.86,0,0,0,11,0H4.86A4.87,4.87,0,0,0,0,4.86V10A4.86,4.86,0,0,0,4.86,14.82Z"/>
      </g>
    </symbol>
    <symbol id="resize-video22" data-name="resize-video22" viewBox="0 0 20.49 20.49">
      <g id="Illu-2" data-name="Illu">
        <path id="Path_127689" data-name="Path 127689" d="M10.12,6.61l-3.4-2a.8.8,0,0,0-1.1.26.64.64,0,0,0-.12.38v4a.8.8,0,0,0,.84.76.89.89,0,0,0,.38-.12l3.4-2a.72.72,0,0,0,.28-1,.69.69,0,0,0-.28-.28Z"/>
        <path id="Path_127690" data-name="Path 127690" d="M8.24,13H4.75A3.24,3.24,0,0,1,1.5,9.74v-5A3.24,3.24,0,0,1,4.75,1.5h6A3.24,3.24,0,0,1,14,4.75V8.24a.75.75,0,0,0,1.5,0V4.75A4.75,4.75,0,0,0,10.74,0h-6A4.75,4.75,0,0,0,0,4.75v5a4.75,4.75,0,0,0,4.75,4.75H8.24a.75.75,0,0,0,0-1.5Z"/>
        <path id="Path_127691" data-name="Path 127691" d="M19.74,16.49a.74.74,0,0,0-.75.75A1.76,1.76,0,0,1,17.24,19h-.8a.74.74,0,0,0-1-.46A.71.71,0,0,0,15,19h-1.3A1.75,1.75,0,0,1,12,17.24v-1.3a.74.74,0,0,0,0-1.4v-.8A1.75,1.75,0,0,1,13.74,12a.75.75,0,0,0,0-1.5,3.26,3.26,0,0,0-3.25,3.25v3.5a3.26,3.26,0,0,0,3.25,3.25h3.5a3.27,3.27,0,0,0,3.25-3.25A.75.75,0,0,0,19.74,16.49Z"/>
        <path id="Path_127692" data-name="Path 127692" d="M19.74,10.49h-3a.75.75,0,0,0,0,1.5h1.19l-2.22,2.22a.75.75,0,0,0,1,1.08l0,0L19,13.05v1.19a.75.75,0,0,0,1.5,0h0v-3A.76.76,0,0,0,19.74,10.49Z"/>
        <circle id="Ellipse_24762" data-name="Ellipse 24762" cx="13.74" cy="15.24" r="0.75"/>
        <circle id="Ellipse_24763" data-name="Ellipse 24763" cx="15.74" cy="17.24" r="0.75"/>
      </g>
    </symbol>
    <symbol id="crop-video22" data-name="crop-video22" viewBox="0 0 17.5 20">
      <g id="Group_300231" data-name="Group 300231">
        <g id="SXmock_IlluVideoCutout_44_N" data-name="SXmock IlluVideoCutout 44 N">
          <g id="Illu-2-2" data-name="Illu-2">
            <path id="Path_127607-2" data-name="Path 127607" d="M6.72,4.62a.8.8,0,0,0-1.1.25.85.85,0,0,0-.12.38v4a.8.8,0,0,0,1.22.64l3.4-2a.74.74,0,0,0,.29-1,.81.81,0,0,0-.29-.29Z"/>
            <path id="Path_127608-2" data-name="Path 127608" d="M4.75,14.5h1a.75.75,0,0,0,0-1.5h-1A3.26,3.26,0,0,1,1.5,9.75v-5A3.26,3.26,0,0,1,4.75,1.5h6A3.26,3.26,0,0,1,14,4.75v4a.75.75,0,0,0,1.5,0v-4A4.75,4.75,0,0,0,10.75,0h-6A4.75,4.75,0,0,0,0,4.75v5A4.75,4.75,0,0,0,4.75,14.5Z"/>
          </g>
        </g>
      </g>
      <g>
        <path id="Path_127591" data-name="Path 127591" d="M16.75,17H10.83a.33.33,0,0,1-.33-.33V10.75a.75.75,0,0,0-1.5,0v.75H8.25a.75.75,0,0,0,0,1.5H9v3.67a1.83,1.83,0,0,0,1.83,1.83H14.5v.75a.75.75,0,0,0,1.5,0V18.5h.75a.75.75,0,0,0,0-1.5Z"/>
        <path id="Path_127592" data-name="Path 127592" d="M11.5,12.25a.76.76,0,0,0,.75.75h1.92a.33.33,0,0,1,.33.33v1.92a.75.75,0,0,0,1.5,0V13.33a1.83,1.83,0,0,0-1.83-1.83H12.25A.75.75,0,0,0,11.5,12.25Z"/>
      </g>
    </symbol>
    <symbol id="cursor-browser22" data-name="cursor-browser22" viewBox="0 0 20.49 19.98">
      <g id="Group_295885" data-name="Group 295885">
        <path id="Path_600320" data-name="Path 600320" d="M3.84,7.68h12.8a.77.77,0,0,0,0-1.53H3.84a.76.76,0,0,0-.79.74.77.77,0,0,0,.75.79Z"/>
        <path id="Path_600321" data-name="Path 600321" d="M10,9.22H3.84a.77.77,0,1,0,0,1.53H10a.77.77,0,1,0,0-1.53Z"/>
        <path id="Path_600322" data-name="Path 600322" d="M10,12.29H3.84a.77.77,0,0,0,0,1.54H10a.77.77,0,0,0,0-1.54Z"/>
        <circle id="Ellipse_25355" data-name="Ellipse 25355" cx="3.84" cy="3.84" r="0.77"/>
        <circle id="Ellipse_25356" data-name="Ellipse 25356" cx="6.4" cy="3.84" r="0.77"/>
        <circle id="Ellipse_25357" data-name="Ellipse 25357" cx="8.96" cy="3.84" r="0.77"/>
        <path id="Path_600323" data-name="Path 600323" d="M15.88,0H4.61A4.6,4.6,0,0,0,0,4.61H0V12.8a4.6,4.6,0,0,0,4.61,4.61h6.14V15.88H4.61A3.08,3.08,0,0,1,1.54,12.8V4.61A3.06,3.06,0,0,1,4.61,1.54H15.88A3.07,3.07,0,0,1,19,4.61V11.7l1.54,1.76V4.61A4.61,4.61,0,0,0,15.88,0Z"/>
        <path id="Path_600324" data-name="Path 600324" d="M15.23,9.79a1.61,1.61,0,0,0-1.81-.46A1.79,1.79,0,0,0,12.29,11V18.7a1.27,1.27,0,0,0,.86,1.22,1.26,1.26,0,0,0,.38.06,1.22,1.22,0,0,0,1-.5l1.69-2.3a.13.13,0,0,1,.12-.06l2.74.43a1.21,1.21,0,0,0,1.26-.63h0a1.31,1.31,0,0,0-.16-1.5Zm1.33,5.81a1.68,1.68,0,0,0-1.6.67l-1.13,1.54V11a.26.26,0,0,1,.13-.26h0a.12.12,0,0,1,.08,0l4.47,5.11Z"/>
      </g>
    </symbol>
    <symbol id="incredibly-easy22" data-name="incredibly-easy22" viewBox="0 0 20.49 19.98">
      <g id="ICONS-5" data-name="ICONS">
        <path id="Path_129498" data-name="Path 129498" d="M20,2.62l-1.39-.7h0L17.87.53l0-.05A1,1,0,0,0,16.48.14a.92.92,0,0,0-.34.34l0,.05-.69,1.39L14,2.63a1,1,0,0,0-.51.82v.08a1,1,0,0,0,.54.83l1.39.7.69,1.38a1,1,0,0,0,1.3.46,1,1,0,0,0,.46-.45l.69-1.39L20,4.35a1,1,0,0,0,.51-.82V3.45A1,1,0,0,0,20,2.61Zm-2.06,1.1a1.47,1.47,0,0,0-.67.68L17,4.85l-.23-.45a1.47,1.47,0,0,0-.67-.68l-.45-.23.45-.23a1.45,1.45,0,0,0,.67-.67L17,2.13l.23.46a1.5,1.5,0,0,0,.67.67l.46.23Z"/>
        <path id="Path_129499" data-name="Path 129499" d="M2,6.83l1.09.55.54,1.08A.93.93,0,0,0,4.9,8.9a.9.9,0,0,0,.43-.43l.55-1.09L7,6.81A1,1,0,0,0,7.5,6V6A1,1,0,0,0,7,5.15L5.88,4.6,5.33,3.51s0,0,0,0A.94.94,0,0,0,4,3.13a1,1,0,0,0-.34.33l0,0-.55,1.1L2,5.17A1,1,0,0,0,1.5,6V6a1,1,0,0,0,.52.8Zm1.8-.9a1.36,1.36,0,0,0,.61-.62l.07-.13.06.13a1.34,1.34,0,0,0,.61.61h0L5.3,6l-.13.07a1.34,1.34,0,0,0-.61.61L4.5,6.8l-.07-.13a1.29,1.29,0,0,0-.61-.61L3.69,6Z"/>
        <path id="Path_129500" data-name="Path 129500" d="M17,15.15l-1.09-.55-.55-1.1,0-.05a.94.94,0,0,0-1.62,0l0,.05-.55,1.1L12,15.17a1,1,0,0,0-.48.78V16a1,1,0,0,0,.52.8l1.09.55.55,1.09a.94.94,0,0,0,1.24.44.92.92,0,0,0,.44-.43l.54-1.1L17,16.81a1,1,0,0,0,.49-.79V16A1,1,0,0,0,17,15.15Zm-1.8.9a1.41,1.41,0,0,0-.62.61l-.06.13-.06-.13a1.44,1.44,0,0,0-.61-.61L13.68,16l.13-.07a1.41,1.41,0,0,0,.62-.61l.06-.13.06.13a1.41,1.41,0,0,0,.62.61h0l.13.06Z"/>
        <path id="Path_129501" data-name="Path 129501" d="M14.46,8.67a1.74,1.74,0,0,0-.54-1.27l-1-.93a1.78,1.78,0,0,0-2.43,0L.73,15.9a2.34,2.34,0,0,0-.08,3.32l.09.09a2.51,2.51,0,0,0,3.43,0l9.75-9.37A1.73,1.73,0,0,0,14.46,8.67ZM3.13,18.22a1,1,0,0,1-1.36,0,.85.85,0,0,1,0-1.2l0,0,5.95-5.73,1.33,1.28Zm9.75-9.38-2.75,2.65L8.8,10.22l2.77-2.66a.26.26,0,0,1,.35,0l1,.93a.24.24,0,0,1,0,.34l0,0Z"/>
      </g>
    </symbol>
    <symbol id="privacy22" data-name="privacy22" viewBox="0 0 15.54 19.98">
      <g id="Group_295882" data-name="Group 295882">
        <path id="Path_600318" data-name="Path 600318" d="M7.77,10.87a.84.84,0,0,0-.83.84V15A.83.83,0,0,0,8.6,15V11.71A.84.84,0,0,0,7.77,10.87Z"/>
        <path id="Path_600319" data-name="Path 600319" d="M12.62,7V5A4.92,4.92,0,0,0,7.77,0,4.93,4.93,0,0,0,2.91,5V7A3,3,0,0,0,0,10v7a3,3,0,0,0,2.91,3h9.71a3,3,0,0,0,2.92-3V10A3,3,0,0,0,12.62,7ZM4.37,5a3.4,3.4,0,0,1,6.8-.17V7H4.37Zm9.71,12a1.48,1.48,0,0,1-1.46,1.5H2.91A1.47,1.47,0,0,1,1.46,17V10a1.47,1.47,0,0,1,1.45-1.5h9.71A1.48,1.48,0,0,1,14.08,10Z"/>
      </g>
    </symbol>
    <symbol id="certified22" data-name="certified22" viewBox="0 0 20 20">
      <g id="ICONS-6" data-name="ICONS">
        <path id="Path_129495" data-name="Path 129495" d="M18.35,7.19a1.3,1.3,0,0,1-.48-1.14,3.79,3.79,0,0,0-.19-2.21,2.77,2.77,0,0,0-1.52-1.52A3.81,3.81,0,0,0,14,2.12a1.32,1.32,0,0,1-1.16-.47A3.94,3.94,0,0,0,11.07.21a2.83,2.83,0,0,0-2.14,0A3.78,3.78,0,0,0,7.2,1.64a1.31,1.31,0,0,1-1.15.49,3.79,3.79,0,0,0-2.21.19A2.77,2.77,0,0,0,2.32,3.84,3.82,3.82,0,0,0,2.12,6,1.32,1.32,0,0,1,1.64,7.2,3.78,3.78,0,0,0,.21,8.93a2.83,2.83,0,0,0,0,2.14A3.78,3.78,0,0,0,1.64,12.8,1.31,1.31,0,0,1,2.13,14a3.83,3.83,0,0,0,.19,2.22,2.78,2.78,0,0,0,1.52,1.51,3.65,3.65,0,0,0,2.19.2,1.3,1.3,0,0,1,1.16.48,3.86,3.86,0,0,0,1.74,1.43,2.74,2.74,0,0,0,2.14,0,3.76,3.76,0,0,0,1.73-1.42A1.34,1.34,0,0,1,14,17.88a3.75,3.75,0,0,0,2.17-.2,2.78,2.78,0,0,0,1.52-1.51,3.85,3.85,0,0,0,.2-2.2,1.3,1.3,0,0,1,.48-1.16,3.87,3.87,0,0,0,1.43-1.74,2.83,2.83,0,0,0,0-2.14A3.86,3.86,0,0,0,18.35,7.2Zm0,3.31a2.32,2.32,0,0,1-.89,1.07s0,0-.05,0a2.78,2.78,0,0,0-1.07,2.54.5.5,0,0,0,0,.12,2.25,2.25,0,0,1-.12,1.33,1.29,1.29,0,0,1-.69.69,2.17,2.17,0,0,1-1.33.12h-.13a2.82,2.82,0,0,0-2.52,1.05h0l0,.07a2.43,2.43,0,0,1-1.08.9,1.31,1.31,0,0,1-1,0,2.41,2.41,0,0,1-1.07-.9l0-.05a2.76,2.76,0,0,0-2.21-1.09l-.33,0H5.73a2.33,2.33,0,0,1-1.33-.12,1.29,1.29,0,0,1-.69-.69,2.41,2.41,0,0,1-.11-1.38v-.07a2.78,2.78,0,0,0-1-2.53l-.07,0a2.35,2.35,0,0,1-.9-1.07,1.31,1.31,0,0,1,0-1,2.41,2.41,0,0,1,.89-1.08l.06,0A2.79,2.79,0,0,0,3.61,5.85s0-.09,0-.11A2.28,2.28,0,0,1,3.71,4.4a1.29,1.29,0,0,1,.69-.69A2.41,2.41,0,0,1,5.78,3.6h.07a2.79,2.79,0,0,0,2.53-1l0-.07a2.43,2.43,0,0,1,1.08-.9,1.31,1.31,0,0,1,1,0,2.41,2.41,0,0,1,1.07.9l0,0a2.76,2.76,0,0,0,2.53,1.07h.13a2.32,2.32,0,0,1,1.33.12,1.29,1.29,0,0,1,.69.69,2.25,2.25,0,0,1,.11,1.38v.07a2.78,2.78,0,0,0,1.07,2.54l.05,0a2.37,2.37,0,0,1,.9,1.08,1.31,1.31,0,0,1,0,1Z"/>
        <path id="Path_129496" data-name="Path 129496" d="M14.43,5.64a.74.74,0,0,0-1,.18h0L8.6,12.66,5.73,10.27a.75.75,0,1,0-1,1.16h0l3.5,2.9a.76.76,0,0,0,.48.17h.1a.74.74,0,0,0,.51-.31l5.26-7.51a.75.75,0,0,0-.19-1Z"/>
      </g>
    </symbol>
    <symbol id="blank22" data-name="blank22" viewBox="0 0 20 20.5">
      <path d="M19,15H16.5V12.5a1,1,0,0,0-2,0V15H12a1,1,0,0,0,0,2h2.5v2.5a1,1,0,0,0,2,0V17H19a1,1,0,0,0,0-2Z"/>
      <path d="M13.5,9h3v1a1,1,0,0,0,2,0V8.67A4,4,0,0,0,17.44,6L13.13,1.29A4,4,0,0,0,10.19,0H5A5,5,0,0,0,0,5v9.5a5,5,0,0,0,5,5H9.5a1,1,0,0,0,0-2H5a3,3,0,0,1-3-3V5A3,3,0,0,1,5,2H9.5V5A4,4,0,0,0,13.5,9ZM11.66,2.64l4,4.36H13.5a2,2,0,0,1-2-2V2.5Z"/>
    </symbol>
    <symbol id="premium22" data-name="premium22" viewBox="0 0 20.82 20.82">
      <circle id="Ellipse_24535" data-name="Ellipse 24535" cx="10.41" cy="10.41" r="10.41"/>
      <g id="SL_PremiumV3_18_N" data-name="SL PremiumV3 18 N">
        <g id="premium_testing" data-name="premium testing">
          <g id="Group_173774" data-name="Group 173774">
            <path id="Path_124080" data-name="Path 124080" d="M7.53,12.4h5.76a.48.48,0,0,0,.47-.42c.1-.72.85-3.16,1-4a.49.49,0,0,0-.41-.55.46.46,0,0,0-.32.08,11.7,11.7,0,0,0-1.19.91c-.22.19-.43.36-.64.52-.18-.31-.35-.63-.52-1-.27-.51-.54-1-.82-1.48a.51.51,0,0,0-.7-.12L10,6.52c-.28.47-.56,1-.84,1.51-.16.32-.33.63-.5.93-.21-.16-.42-.34-.64-.52a11.7,11.7,0,0,0-1.19-.91A.48.48,0,0,0,6.1,8c.11.83.86,3.26,1,4a.48.48,0,0,0,.47.42Z" style="fill: #ebcf2d"/>
            <path id="Path_124081" data-name="Path 124081" d="M13.18,13.49H7.63a.62.62,0,0,0,0,1.24h5.55a.62.62,0,0,0,0-1.24Z" style="fill: #ebcf2d"/>
          </g>
        </g>
      </g>
    </symbol>
  </defs>
  <use width="20" height="20" transform="translate(45 1)" xlink:href="#resize22"/>
  <use width="20" height="20" transform="translate(67 1)" xlink:href="#up-download22"/>
  <use width="20" height="18" transform="translate(89 2)" xlink:href="#remove-bg22"/>
  <use width="22" height="22" transform="translate(110.57 0.59) scale(0.95)" xlink:href="#convert-png-jpg22"/>
  <use width="21" height="20.49" transform="translate(132.5 0.76)" xlink:href="#trim-video22"/>
  <use width="20.49" height="20.49" transform="translate(154.75 0.76)" xlink:href="#resize-video22"/>
  <use width="17.5" height="20" transform="translate(178.25 0.76)" xlink:href="#crop-video22"/>
  <use width="20.49" height="19.98" transform="translate(198.75 1.01)" xlink:href="#cursor-browser22"/>
  <use width="20.49" height="19.98" transform="translate(220.75 1.01)" xlink:href="#incredibly-easy22"/>
  <use width="15.54" height="19.98" transform="translate(245.23 1.01)" xlink:href="#privacy22"/>
  <use width="20" height="20.01" transform="translate(264.99 1.01)" xlink:href="#certified22"/>
  <use width="20" height="20.5" transform="translate(23.19 1.25)" xlink:href="#blank22"/>
  <use width="20.82" height="20.82" transform="translate(0.62 0.59)" xlink:href="#premium22"/>
</svg>
