<svg xmlns="http://www.w3.org/2000/svg" xmlns:xlink="http://www.w3.org/1999/xlink" viewBox="0 0 264 44">
  <defs>
    <symbol id="blank44" data-name="blank44" viewBox="0 0 39 40">
      <g id="Illu">
        <path id="Path_127567" data-name="Path 127567" d="M37.5,30H32V24.5a1.5,1.5,0,0,0-3,0V30H23.5a1.5,1.5,0,0,0,0,3H29v5.5a1.5,1.5,0,0,0,3,0V33h5.5a1.5,1.5,0,0,0,0-3Z"/>
        <path id="Path_127568" data-name="Path 127568" d="M26.5,17H33v2.5a1.5,1.5,0,0,0,3,0V16.85a7.48,7.48,0,0,0-2-5.09L25.38,2.41A7.51,7.51,0,0,0,19.87,0H9.5A9.52,9.52,0,0,0,0,9.5v19A9.52,9.52,0,0,0,9.5,38h9a1.5,1.5,0,0,0,0-3h-9A6.5,6.5,0,0,1,3,28.5V9.5A6.5,6.5,0,0,1,9.5,3H19V9.5A7.5,7.5,0,0,0,26.5,17ZM22,3.56a4.47,4.47,0,0,1,1.18.89l8.63,9.34c.06.07.1.14.15.21H26.5A4.49,4.49,0,0,1,22,9.5Z"/>
      </g>
    </symbol>
    <symbol id="premium44" data-name="premium44" viewBox="0 0 41.81 41.81">
      <circle id="Ellipse_24535" data-name="Ellipse 24535" cx="20.91" cy="20.91" r="20.91"/>
      <g id="SL_PremiumV3_18_N" data-name="SL PremiumV3 18 N">
        <g id="premium_testing" data-name="premium testing">
          <g id="Group_173774" data-name="Group 173774">
            <path id="Path_124080" data-name="Path 124080" d="M15.13,24.9H26.69a1,1,0,0,0,1-.83c.2-1.46,1.7-6.36,1.93-8A1,1,0,0,0,28.75,15a.92.92,0,0,0-.65.14A24.79,24.79,0,0,0,25.71,17c-.44.38-.86.73-1.29,1.05-.35-.62-.69-1.28-1-1.93-.54-1-1.09-2.06-1.65-3a1,1,0,0,0-1.64,0c-.57.93-1.13,2-1.68,3-.34.64-.68,1.28-1,1.87-.42-.32-.85-.68-1.29-1a22.33,22.33,0,0,0-2.39-1.84,1,1,0,0,0-1.33.29.94.94,0,0,0-.14.65c.23,1.68,1.72,6.55,1.92,8a1,1,0,0,0,1,.83Z" style="fill: #ebcf2d"/>
            <path id="Path_124081" data-name="Path 124081" d="M26.48,27.1H15.33a1.24,1.24,0,0,0,0,2.48H26.48a1.24,1.24,0,0,0,0-2.48Z" style="fill: #ebcf2d"/>
          </g>
        </g>
      </g>
    </symbol>
    <symbol id="brand44" data-name="brand44" viewBox="0 0 36 38">
      <g id="Illu-2" data-name="Illu">
        <path id="Path_127453" data-name="Path 127453" d="M12.5,28h7.8a6.7,6.7,0,0,0,6.6-7.91,6,6,0,0,0-4.8-4.85l.15-.26a6.4,6.4,0,0,0-.07-6.52A5.58,5.58,0,0,0,17.46,6h-5A1.5,1.5,0,0,0,11,7.5v19A1.5,1.5,0,0,0,12.5,28ZM14,9h3.46a2.6,2.6,0,0,1,2.21,1.1,3.48,3.48,0,0,1-.06,3.45A2.41,2.41,0,0,1,17.7,15H14Zm0,9h6.06c.8,0,3.47.19,3.88,2.58A3.7,3.7,0,0,1,20.3,25H14Z"/>
        <path id="Path_127454" data-name="Path 127454" d="M18,38A18,18,0,0,0,36,20V9.5A9.52,9.52,0,0,0,26.5,0H9.5A9.52,9.52,0,0,0,0,9.5V20A18,18,0,0,0,18,38ZM3,9.5A6.5,6.5,0,0,1,9.5,3h17A6.5,6.5,0,0,1,33,9.5V20A15,15,0,0,1,3,20Z"/>
      </g>
    </symbol>
    <symbol id="templates44" data-name="templates44" viewBox="0 0 40 42">
      <g id="ICONS">
        <path id="Path_130846" data-name="Path 130846" d="M18.5,35h-9A6.5,6.5,0,0,1,3,28.5V17H9.5A7.5,7.5,0,0,0,17,9.5V3h9.5A6.51,6.51,0,0,1,33,8.66a1.5,1.5,0,1,0,3-.38A9.52,9.52,0,0,0,26.5,0H16.13a7.51,7.51,0,0,0-5.51,2.41L2,11.76a7.48,7.48,0,0,0-2,5.09V28.5A9.52,9.52,0,0,0,9.5,38h9a1.5,1.5,0,0,0,0-3ZM4.19,13.79l8.63-9.34A4.47,4.47,0,0,1,14,3.56V9.5A4.49,4.49,0,0,1,9.5,14H4C4.09,13.93,4.13,13.86,4.19,13.79Z"/>
        <path id="Path_130847" data-name="Path 130847" d="M37.28,23.32l-1.53-.69,1.8-4.07a.36.36,0,0,1,0-.09,4,4,0,0,0-.39-3.73A3.94,3.94,0,0,0,33.94,13h0A3.88,3.88,0,0,0,31,14.37l-8.85,10-.06.07a4.74,4.74,0,0,0-1,4.08,4.62,4.62,0,0,0,2.6,3.2l1.53.69-1.79,4.07a.36.36,0,0,0,0,.09,4,4,0,0,0,.38,3.73A3.94,3.94,0,0,0,27.06,42,3.88,3.88,0,0,0,30,40.63l8.85-10,.07-.07a4.79,4.79,0,0,0,1-4.09A4.61,4.61,0,0,0,37.28,23.32Zm-.67,5.36-8.87,10a.87.87,0,0,1-.68.34,1,1,0,0,1-.94-1,.9.9,0,0,1,.08-.36l3-6.78L25,29a1.72,1.72,0,0,1-.79-2.29,2.46,2.46,0,0,1,.22-.34l8.87-10a.89.89,0,0,1,.68-.34,1,1,0,0,1,.94,1,.9.9,0,0,1-.08.36l-3,6.78L36,26.05a1.72,1.72,0,0,1,.79,2.29,1.52,1.52,0,0,1-.22.34Z"/>
      </g>
    </symbol>
  </defs>
  <g id="Sprite">
    <use width="39" height="40" transform="translate(47.75 3)" xlink:href="#blank44"/>
    <use width="41.81" height="41.81" transform="translate(1.13 1.09)" xlink:href="#premium44"/>
    <use width="36" height="38" transform="translate(136 3.26)" xlink:href="#brand44"/>
  </g>
  <g id="Layer_2" data-name="Layer 2">
    <use width="40" height="42" transform="translate(90 1)" xlink:href="#templates44"/>
  </g>
</svg>
