<svg xmlns="http://www.w3.org/2000/svg" width="36" height="34" viewBox="0 0 36 34">
  <g id="Group_377161" data-name="Group 377161" transform="translate(-846 -2491)">
    <path id="Path_969510" data-name="Path 969510" d="M31.371,10.513l-5.923,6.769a.5.5,0,0,1-.624.1L20.481,14.9a3.5,3.5,0,0,0-4.041.405L9.512,21.371a1.5,1.5,0,1,0,1.976,2.258l6.928-6.062a.5.5,0,0,1,.577-.058l4.343,2.481a3.511,3.511,0,0,0,4.37-.734l5.923-6.77a1.5,1.5,0,1,0-2.258-1.975Z" transform="translate(842 2486)" fill="#fff"/>
    <path id="Path_969511" data-name="Path 969511" d="M30.5,5h-17A9.511,9.511,0,0,0,4,14.5v15A9.511,9.511,0,0,0,13.5,39h17A9.511,9.511,0,0,0,40,29.5v-15A9.511,9.511,0,0,0,30.5,5ZM37,29.5a6.5,6.5,0,0,1-3,5.468V20.5a1.5,1.5,0,0,0-3,0V35.975c-.166.013-.331.025-.5.025H27V26.5a1.5,1.5,0,0,0-3,0V36H20V24.5a1.5,1.5,0,0,0-3,0V36H13.5c-.169,0-.334-.013-.5-.025V29.5a1.5,1.5,0,0,0-3,0v5.468A6.5,6.5,0,0,1,7,29.5v-15A6.508,6.508,0,0,1,13.5,8h17A6.508,6.508,0,0,1,37,14.5Z" transform="translate(842 2486)" fill="#fff"/>
  </g>
</svg>
