<?xml version="1.0" encoding="utf-8"?>
<!-- Generator: Adobe Illustrator 26.4.0, SVG Export Plug-In . SVG Version: 6.00 Build 0)  -->
<svg version="1.1" id="SX_Clock_18_N" xmlns="http://www.w3.org/2000/svg" xmlns:xlink="http://www.w3.org/1999/xlink" x="0px"
	 y="0px" viewBox="0 0 18 18" style="enable-background:new 0 0 18 18;" xml:space="preserve">
<g id="ICONS">
	<path id="Path_126730" d="M9,0C4,0,0,4,0,9s4,9,9,9s9-4,9-9S14,0,9,0z M9,16c-3.9,0-7-3.1-7-7s3.1-7,7-7s7,3.1,7,7S12.9,16,9,16z"
		/>
	<path id="Path_126731" d="M10,8.5V4c0-0.6-0.5-1-1-1C8.4,3,8,3.4,8,4v5c0,0,0,0,0,0.1c0,0.1,0,0.1,0,0.2c0,0.1,0,0.1,0.1,0.2
		c0,0.1,0.1,0.1,0.1,0.2c0,0.1,0.1,0.1,0.1,0.2c0,0,0,0,0,0.1l4,3c0.5,0.3,1.1,0.2,1.4-0.2c0.3-0.4,0.2-1-0.2-1.4L10,8.5z"/>
</g>
</svg>
