<svg xmlns="http://www.w3.org/2000/svg" width="22.627" height="22.627" viewBox="0 0 22.627 22.627">
  <path id="Union_354" data-name="Union 354" d="M-1595.334-133.333v-5.333h-5.333A1.333,1.333,0,0,1-1602-140a1.333,1.333,0,0,1,1.334-1.333h5.333v-5.333A1.334,1.334,0,0,1-1594-148a1.333,1.333,0,0,1,1.333,1.333v5.333h5.333A1.333,1.333,0,0,1-1586-140a1.333,1.333,0,0,1-1.334,1.334h-5.333v5.333A1.333,1.333,0,0,1-1594-132,1.334,1.334,0,0,1-1595.334-133.333Z" transform="translate(-1016.82 -1214.809) rotate(-135)" fill="#eb1000"/>
</svg>
