<svg xmlns="http://www.w3.org/2000/svg" width="8.828" height="8.828" viewBox="0 0 8.828 8.828">
  <g id="Group_329375" data-name="Group 329375" transform="translate(-340.258 -401.757)" opacity="0.6">
    <path id="Line_84798" data-name="Line 84798" d="M0,9.485a1,1,0,0,1-1-1V0A1,1,0,0,1,0-1,1,1,0,0,1,1,0V8.485A1,1,0,0,1,0,9.485Z" transform="translate(347.672 403.172) rotate(45)" fill="#fff"/>
    <path id="Line_84799" data-name="Line 84799" d="M0,9.485a1,1,0,0,1-1-1V0A1,1,0,0,1,0-1,1,1,0,0,1,1,0V8.485A1,1,0,0,1,0,9.485Z" transform="translate(347.672 409.172) rotate(135)" fill="#fff"/>
  </g>
</svg>
