<svg id="SXmock_UpdateCloudStorage_44_N" xmlns="http://www.w3.org/2000/svg" width="44" height="44" viewBox="0 0 44 44">
  <g id="SLMOCK">
    <rect id="Canvas" width="44" height="44" fill="rgba(255,19,220,0)"/>
  </g>
  <g id="ICONS" transform="translate(-1 -1)">
    <path id="Path_130850" data-name="Path 130850" d="M41.5,33H36V27.5a1.5,1.5,0,0,0-3,0V33H27.5a1.5,1.5,0,0,0,0,3H33v5.5a1.5,1.5,0,0,0,3,0V36h5.5a1.5,1.5,0,0,0,0-3Z" fill="#444"/>
    <path id="Path_130851" data-name="Path 130851" d="M16.754,13.577A1.5,1.5,0,0,0,18.5,12.492c.114-.43,1.221-4.232,4.854-5.243q.27-.075.559-.129l.011,0a7.6,7.6,0,0,1,1.744-.1,7.12,7.12,0,0,1,3.822,1.31,6.343,6.343,0,0,1,2.657,5.248,4.96,4.96,0,0,1-.1.925A1.5,1.5,0,0,0,33.3,16.271c2.33.356,5.7,2.623,5.7,5.8a6.827,6.827,0,0,1-.155,1.487,1.5,1.5,0,1,0,2.932.637A9.83,9.83,0,0,0,42,22.065c0-4.092-3.338-7.316-6.851-8.431V13.6a9.341,9.341,0,0,0-3.927-7.726,10.1,10.1,0,0,0-5.408-1.856,10.517,10.517,0,0,0-2.441.152l-.022.006q-.412.077-.8.184a10.224,10.224,0,0,0-6.516,6.084A8.372,8.372,0,0,0,7.9,13.988,9.308,9.308,0,0,0,6.534,18.53a6.088,6.088,0,0,0-4.5,6.519A5.582,5.582,0,0,0,7.483,30H22.5a1.5,1.5,0,0,0,0-3H7.492a2.613,2.613,0,0,1-2.476-2.267A3.076,3.076,0,0,1,5,24.378a2.947,2.947,0,0,1,2.824-3l.164.017a1.461,1.461,0,0,0,1.2-.468A1.5,1.5,0,0,0,9.584,19.7a6.293,6.293,0,0,1,.849-4.1C11.64,13.742,13.945,13.009,16.754,13.577Z" fill="#444"/>
  </g>
</svg>
