<svg id="ICONS" xmlns="http://www.w3.org/2000/svg" width="32" height="32" viewBox="0 0 32 32">
  <path id="Path_126809" data-name="Path 126809" d="M10.6,33a4.8,4.8,0,0,0,4.8-4.8V5.8A4.8,4.8,0,0,0,10.6,1H5.8A4.8,4.8,0,0,0,1,5.8V28.2A4.8,4.8,0,0,0,5.8,33ZM4.2,28.2V5.8A1.6,1.6,0,0,1,5.8,4.2h4.8a1.6,1.6,0,0,1,1.6,1.6V28.2a1.6,1.6,0,0,1-1.6,1.6H5.8A1.6,1.6,0,0,1,4.2,28.2Z" transform="translate(-1 -1)" fill="#fff"/>
  <path id="Path_126810" data-name="Path 126810" d="M21.6,11H16.8A4.8,4.8,0,0,0,12,15.8v6.4A4.8,4.8,0,0,0,16.8,27h4.8a4.8,4.8,0,0,0,4.8-4.8V15.8A4.8,4.8,0,0,0,21.6,11Zm1.6,11.2a1.6,1.6,0,0,1-1.6,1.6H16.8a1.6,1.6,0,0,1-1.6-1.6V15.8a1.6,1.6,0,0,1,1.6-1.6h4.8a1.6,1.6,0,0,1,1.6,1.6Z" transform="translate(5.6 5)" fill="#fff"/>
  <path id="Path_126811" data-name="Path 126811" d="M21.6,1H16.8A4.8,4.8,0,0,0,12,5.8V9a4.8,4.8,0,0,0,4.8,4.8h4.8A4.8,4.8,0,0,0,26.4,9V5.8A4.8,4.8,0,0,0,21.6,1Zm1.6,8a1.6,1.6,0,0,1-1.6,1.6H16.8A1.6,1.6,0,0,1,15.2,9V5.8a1.6,1.6,0,0,1,1.6-1.6h4.8a1.6,1.6,0,0,1,1.6,1.6Z" transform="translate(5.6 -1)" fill="#fff"/>
</svg>
