<svg id="SXmock_ColorFill_22_N" xmlns="http://www.w3.org/2000/svg" width="22" height="22" viewBox="0 0 22 22">
  <g id="SMOCK">
    <rect id="Canvas" width="22" height="22" fill="rgba(255,19,220,0)"/>
  </g>
  <g id="ICONS">
    <path id="Path_129123" data-name="Path 129123" d="M17.293,11.707a1,1,0,1,0,1.414-1.414l-1-1-.006,0-8-8A1,1,0,0,0,9,1H8.994a1,1,0,0,0-.71.3L6.032,3.618,3.707,1.293A1,1,0,1,0,2.293,2.707L4.638,5.052.869,8.929a3.025,3.025,0,0,0,0,4.243l4.95,4.949a3,3,0,0,0,4.231.011L16.99,11.4Zm-8.646,5a1,1,0,0,1-1.414,0l-4.95-4.949a1.006,1.006,0,0,1,.01-1.425l3.76-3.867L8.293,8.707A1,1,0,1,0,9.708,7.293L7.446,5.032,9.01,3.424l6.565,6.565Z" fill="#242424"/>
    <path id="Path_129124" data-name="Path 129124" d="M19.66,14.18a1.287,1.287,0,0,0-1.313,0A6.43,6.43,0,0,0,16,18.2,2.876,2.876,0,0,0,19,21a2.876,2.876,0,0,0,3-2.8,6.434,6.434,0,0,0-2.34-4.016ZM19,19a.9.9,0,0,1-1-.8,4.594,4.594,0,0,1,1-1.915A4.556,4.556,0,0,1,20,18.2a.9.9,0,0,1-1,.8Z" fill="#242424"/>
  </g>
</svg>
