<svg xmlns="http://www.w3.org/2000/svg">
  <symbol xmlns="http://www.w3.org/2000/svg" id="color-marquee-desktop" viewBox="0 0 1424.92 335.25">
    <g id="CCX-JDI037-color-marquee-desktop" transform="translate(20458.475 24004)">
      <path id="Path_973374" d="M1087.431,167.62a167.612,167.612,0,0,1-167.62,167.62V167.62Z" transform="translate(-20456.236 -24004)" opacity="0.1"/>
      <path id="Path_973375" d="M1087.431,167.62h-83.71a83.915,83.915,0,1,0-83.91,83.92v83.7a167.62,167.62,0,1,1,167.62-167.62" transform="translate(-20456.236 -24004)" opacity="0.3"/>
      <path id="Path_973376" d="M919.811,83.71V251.54a83.915,83.915,0,1,1,0-167.83" transform="translate(-20456.236 -24004)" opacity="0.2"/>
      <rect id="Rectangle_361900" width="83.92" height="167.625" transform="translate(-19787.975 -24004)" opacity="0.3"/>
      <rect id="Rectangle_361901" width="83.92" height="167.625" transform="translate(-19787.975 -23836.377)" opacity="0.1"/>
      <path id="Path_973377" d="M503.055,0a167.625,167.625,0,1,0,167.63,167.62A167.625,167.625,0,0,0,503.055,0m0,251.54a83.915,83.915,0,1,1,83.92-83.92,83.915,83.915,0,0,1-83.92,83.92" transform="translate(-20458.66 -24004)" opacity="0.2"/>
      <path id="Path_973378" d="M586.975,167.62a83.917,83.917,0,0,1-83.92,83.92V83.71a83.915,83.915,0,0,1,83.92,83.91" transform="translate(-20458.66 -24004)" opacity="0.1"/>
      <path id="Path_973379" d="M335.25,167.62A167.629,167.629,0,0,1,167.62,335.25V251.54a83.917,83.917,0,0,0,83.92-83.92Z" transform="translate(-20458.475 -24004)" opacity="0.3"/>
      <path id="Path_973380" d="M167.62,167.62V335.25A167.627,167.627,0,0,1,0,167.62Z" transform="translate(-20458.475 -24004)" opacity="0.2"/>
      <path id="Path_973381" d="M167.62,83.71v83.91H83.71a83.913,83.913,0,0,1,83.91-83.91" transform="translate(-20458.475 -24004)" opacity="0.1"/>
      <path id="Path_973382" d="M167.62,0V83.71a83.913,83.913,0,0,0-83.91,83.91H0A167.625,167.625,0,0,1,167.62,0" transform="translate(-20458.475 -24004)" opacity="0.3"/>
      <g id="Group_381587" transform="translate(9.188 -1.693)">
        <path id="Path_973372" d="M1342.547,169.314h-167.83a83.915,83.915,0,0,1,167.83,0" transform="translate(-20469 -24004)" opacity="0.2"/>
        <path id="Path_973373" d="M1426.257,169.314h-83.71a83.915,83.915,0,0,0-167.83,0h-83.71a167.625,167.625,0,0,1,335.25,0" transform="translate(-20469 -24004)" opacity="0.3"/>
      </g>
      <rect id="Rectangle_361902" width="83.92" height="167.625" transform="translate(-19368.805 -23836.379)" opacity="0.2"/>
      <rect id="Rectangle_361903" width="83.915" height="167.625" transform="translate(-19284.885 -23836.379)" opacity="0.1"/>
    </g>
  </symbol>
  <symbol xmlns="http://www.w3.org/2000/svg" id="color-marquee-localisation-desktop"  viewBox="0 0 838.42 336.36">
    <g id="CCX-JDI037-color-marquee-localisation-desktop" transform="translate(17613.721 24005.098)">
      <rect id="Rectangle_361901" width="83.92" height="167.625" transform="translate(-17194.574 -23837.375)" opacity="0.1"/>
      <path id="Path_973391" d="M167.619,335.251V167.62A167.627,167.627,0,0,0,0,335.251Z" transform="translate(-17446 -24171.619)" opacity="0.2"/>
      <path id="Path_973392" d="M167.619,167.62V335.251A167.627,167.627,0,0,1,0,167.62Z" transform="translate(-17613.721 -24003.988)" opacity="0.3"/>
      <path id="Path_973386" d="M167.62,83.71v83.91H83.71a83.913,83.913,0,0,1,83.91-83.91" transform="translate(-17278.387 -24005.098)" opacity="0.2"/>
      <path id="Path_973388" d="M167.618,167.618V83.71H83.71a83.911,83.911,0,0,0,83.908,83.908" transform="translate(-17362.295 -23837.379)" opacity="0.2"/>
      <path id="Path_973387" d="M167.62,0V83.71a83.913,83.913,0,0,0-83.91,83.91H0A167.625,167.625,0,0,1,167.62,0" transform="translate(-17278.387 -24005.098)" opacity="0.3"/>
      <path id="Path_973383" d="M1087.431,167.62a167.612,167.612,0,0,1-167.62,167.62V167.62Z" transform="translate(-17862.734 -24005)" opacity="0.1"/>
      <path id="Path_973384" d="M1087.431,167.62h-83.71a83.915,83.915,0,1,0-83.91,83.92v83.7a167.62,167.62,0,1,1,167.62-167.62" transform="translate(-17862.734 -24005)" opacity="0.3"/>
      <path id="Path_973385" d="M919.811,83.71V251.54a83.915,83.915,0,1,1,0-167.83" transform="translate(-17862.734 -24005)" opacity="0.2"/>
      <circle id="Ellipse_26512" cx="83.915" cy="83.915" r="83.915" transform="translate(-17446 -23836.83)" opacity="0.2"/>
    </g>
  </symbol>
  <symbol xmlns="http://www.w3.org/2000/svg" id="color-marquee-localisation-mobile">
    <g id="CCX-JDI037-color-marquee-localisation-mobile" transform="translate(17613.721 24005.098)">
      <rect id="Rectangle_361901" width="49.899" height="99.67" transform="translate(-17364.496 -23905.369)" opacity="0.1"/>
      <path id="Path_973391" d="M99.667,267.294V167.62A99.671,99.671,0,0,0,0,267.294Z" transform="translate(-17513.994 -24172.064)" opacity="0.2"/>
      <path id="Path_973392" d="M99.667,167.62v99.674A99.671,99.671,0,0,1,0,167.62Z" transform="translate(-17613.721 -24072.391)" opacity="0.3"/>
      <path id="Path_973386" d="M133.6,83.71V133.6H83.71A49.9,49.9,0,0,1,133.6,83.71" transform="translate(-17448.266 -24039.033)" opacity="0.2"/>
      <path id="Path_973388" d="M133.6,133.6V83.71H83.71A49.894,49.894,0,0,0,133.6,133.6" transform="translate(-17498.158 -23939.307)" opacity="0.2"/>
      <path id="Path_973387" d="M99.667,0V49.774A49.9,49.9,0,0,0,49.774,99.667H0A99.67,99.67,0,0,1,99.667,0" transform="translate(-17414.33 -24005.098)" opacity="0.3"/>
      <path id="Path_973383" d="M1019.478,167.62a99.663,99.663,0,0,1-99.667,99.667V167.62Z" transform="translate(-18134.674 -24072.992)" opacity="0.1"/>
      <path id="Path_973384" d="M951.521,99.667H901.747a49.9,49.9,0,1,0-49.893,49.9v49.768a99.667,99.667,0,1,1,99.667-99.667" transform="translate(-18066.717 -24005.039)" opacity="0.3"/>
      <path id="Path_973385" d="M885.79,83.71V183.5a49.9,49.9,0,1,1,0-99.792" transform="translate(-18100.652 -24038.975)" opacity="0.2"/>
      <circle id="Ellipse_26512" cx="49.896" cy="49.896" r="49.896" transform="translate(-17513.994 -23905.045)" opacity="0.2"/>
    </g>
  </symbol>
  <symbol xmlns="http://www.w3.org/2000/svg" id="color-marquee-mobile">
    <g id="CCX-JDI037-color-marquee-mobile" transform="translate(20458.475 24004)">
      <path id="Path_973374" d="M1019.812,167.62a100,100,0,0,1-100,100v-100Z" transform="translate(-20828.221 -24071.627)" opacity="0.1"/>
      <path id="Path_973375" d="M952.189,100H902.248a50.063,50.063,0,1,0-50.06,50.064v49.933a100,100,0,1,1,100-100" transform="translate(-20760.598 -24004)" opacity="0.3"/>
      <path id="Path_973376" d="M885.957,83.71V183.828a50.059,50.059,0,1,1,0-100.118" transform="translate(-20794.365 -24037.77)" opacity="0.2"/>
      <rect id="Rectangle_361900" width="50.066" height="100.004" transform="translate(-20058.477 -24004)" opacity="0.3"/>
      <rect id="Rectangle_361901" width="50.066" height="100.004" transform="translate(-20058.477 -23904.006)" opacity="0.1"/>
      <path id="Path_973377" d="M435.436,0A100,100,0,1,0,535.443,100,100,100,0,0,0,435.436,0m0,150.061A50.061,50.061,0,1,1,485.5,100a50.062,50.062,0,0,1-50.066,50.064" transform="translate(-20593.912 -24004)" opacity="0.2"/>
      <path id="Path_973378" d="M553.121,133.766a50.062,50.062,0,0,1-50.066,50.062V83.71a50.061,50.061,0,0,1,50.066,50.056" transform="translate(-20661.533 -24037.77)" opacity="0.1"/>
      <path id="Path_973379" d="M267.627,167.62A100.007,100.007,0,0,1,167.62,267.627V217.686a50.064,50.064,0,0,0,50.066-50.066Z" transform="translate(-20526.094 -24071.627)" opacity="0.3"/>
      <path id="Path_973380" d="M100,167.62V267.627A100.005,100.005,0,0,1,0,167.62Z" transform="translate(-20458.475 -24071.627)" opacity="0.2"/>
      <path id="Path_973381" d="M133.77,83.71v50.06H83.71a50.062,50.062,0,0,1,50.06-50.06" transform="translate(-20492.244 -24037.771)" opacity="0.1"/>
      <path id="Path_973382" d="M100,0V49.941A50.062,50.062,0,0,0,49.941,100H0A100,100,0,0,1,100,0" transform="translate(-20458.475 -24004)" opacity="0.3"/>
      <g id="Group_381587" transform="translate(-19808.418 -24004)">
        <path id="Path_973372" d="M1274.843,135.464H1174.717a50.063,50.063,0,0,1,100.126,0" transform="translate(-1124.776 -35.463)" opacity="0.2"/>
        <path id="Path_973373" d="M1291.015,101.695h-49.941a50.063,50.063,0,0,0-100.126,0h-49.941a100,100,0,0,1,200.008,0" transform="translate(-1091.007 -1.694)" opacity="0.3"/>
      </g>
      <rect id="Rectangle_361902" width="50.066" height="100.004" transform="translate(-19808.412 -23904.006)" opacity="0.2"/>
      <rect id="Rectangle_361903" width="50.063" height="100.004" transform="translate(-19758.352 -23904.006)" opacity="0.1"/>
    </g>
  </symbol>
  <symbol viewBox="0 0 233.56958 321.18195" id="hands-and-heart">
    <g id="CCX-JDI037-color-meaning-desktop" transform="translate(-901 -635.998)">
      <g id="Group_381610">
        <g id="Group_381615">
          <g id="Group_381613" transform="translate(901.001 636.001)">
            <g id="Group_381617" opacity="0.4">
              <rect id="Rectangle_361734" width="107.5" height="16.839"
                    rx="8.419" transform="translate(63 304.338)"/>
              <rect id="Rectangle_361733" width="215" height="16.839"
                    rx="8.419" transform="translate(9 279.5)"/>
            </g>
            <g id="Group_381612">
              <path id="Path_973302"
                    d="M67.576,316.328c.342-2.051.775-4.789,1.215-7.857h30.1v7.869ZM55.141,265.851c-11.448-5.755-27.13-13.64-35.954-27.434-1.708-2.672-3.2-4.884-4.52-6.836-4.051-6-6.188-9.173-7.247-15.069.237.263.48.53.729.8,4.621,4.928,10.654,9.48,14.644,12.493,1.778,1.342,3.458,2.608,4.034,3.187l.046.046s0,0,0,0c.318.347.844.971,1.452,1.7,5.567,6.631,20.346,24.254,37.6,22.336a3.254,3.254,0,1,0-.717-6.469c-13.771,1.541-26.937-14.149-31.894-20.052-.668-.8-1.2-1.432-1.62-1.885-.029-.035-.061-.064-.089-.1a.677.677,0,0,0-.055-.058.117.117,0,0,0-.011-.017,49.991,49.991,0,0,0-4.821-3.886c-4.043-3.051-9.581-7.229-13.82-11.752,0-.006-.008-.008-.015-.015-2.863-3.062-4.644-5.772-5.3-8.071v-.006a6.541,6.541,0,0,1-.277-1.695,4.491,4.491,0,0,1,.648-2.435,3.3,3.3,0,0,1,2.166-1.747c1.209-.289,4.075-.223,9.67,3.354.023.017.049.032.073.046,0,0,.006.006.008.006,7.634,4.9,15.24,13.074,16.689,14.667,6.449,7.059,13.261,8.594,13.548,8.655a3.226,3.226,0,0,0,.686.07,78.023,78.023,0,0,1,12.073.893c35.176,5.544,36.006,35.262,36.023,36.486v38.9H69.653c2.628-21.662.347-25.439-.55-26.914-1.928-3.146-6.714-5.552-13.961-9.2M7.332,163.711c.02-.089.046-.177.069-.263s.043-.153.069-.228.061-.168.093-.252.055-.148.087-.217.078-.159.115-.24.067-.136.1-.205.089-.153.136-.229.075-.127.119-.188.107-.148.159-.217.087-.119.13-.176.119-.136.179-.2.1-.11.145-.162.13-.127.2-.188.1-.1.156-.144c.069-.061.144-.119.217-.173.055-.041.107-.087.164-.128.078-.055.157-.1.237-.156.058-.035.113-.076.171-.11.084-.049.171-.092.254-.136.061-.032.119-.064.177-.092.089-.044.182-.081.275-.119.061-.026.121-.055.182-.076.1-.037.193-.063.292-.1.061-.021.121-.044.182-.061.1-.029.214-.049.321-.072.058-.012.113-.026.173-.037.121-.021.243-.035.367-.049.049-.006.1-.015.141-.017.174-.017.347-.023.523-.023a5.6,5.6,0,0,1,5.61,5.613v28.975l-.18-.075c-.075-.032-.15-.061-.225-.1-.252-.11-.5-.214-.749-.312-.081-.032-.159-.061-.24-.089q-.36-.139-.711-.261c-.084-.029-.168-.055-.252-.081-.228-.075-.454-.147-.677-.214-.083-.026-.171-.046-.254-.069-.22-.061-.436-.122-.653-.174-.087-.02-.171-.037-.254-.055-.211-.046-.422-.092-.634-.13l-.248-.041c-.206-.035-.414-.067-.616-.089-.081-.012-.162-.017-.243-.026-.2-.02-.4-.04-.6-.052l-.237-.006c-.156-.006-.309-.015-.462-.015l-.089,0c-.359,0-.709.023-1.056.058-.1.011-.208.026-.309.037-.324.043-.642.1-.957.165-.035.008-.067.008-.1.017a9.646,9.646,0,0,0-2.068.746c.093-6.267.286-13.864.521-23.039l.156-6.073c.012-.075.026-.15.041-.225s.035-.159.055-.237m56.552,56.433a84.014,84.014,0,0,0-12.663-.971,22.884,22.884,0,0,1-9.847-6.605,106.839,106.839,0,0,0-16.483-14.76V165.067c0-.419-.021-.833-.061-1.238a12.12,12.12,0,0,0-23.568-2.556,11.9,11.9,0,0,0-.44,1.859v0c-.017.1-.04.2-.055.306a3.255,3.255,0,0,0-.026.333v.011L.58,170.133C.2,185.009-.074,195.758.019,203.481c.208,18.32,2.672,21.972,9.259,31.738,1.3,1.92,2.767,4.1,4.433,6.7,9.786,15.3,27.073,24,38.513,29.748,4.864,2.447,10.373,5.217,11.327,6.767.229.379,2.149,4.312-.815,26.344-1.035,7.758-2.209,14.149-2.221,14.21a3.254,3.254,0,0,0,3.2,3.846l38.438.015a3.258,3.258,0,0,0,3.256-3.256V263.03a45.274,45.274,0,0,0-5.341-19.083c-4.809-9.014-14.988-20.463-36.185-23.8"
                    transform="translate(0 -67.412)"/>
              <path id="Path_973303"
                    d="M324.622,192.32a16.9,16.9,0,0,0-8.415,1.776V165.067a5.618,5.618,0,0,1,5.61-5.613,5.526,5.526,0,0,1,5.524,4.71l.147,5.68c.244,9.519.44,17.18.533,23.438a9.844,9.844,0,0,0-3.4-.963m-55.971,64.744c17.236,1.911,32.032-15.7,37.6-22.333.61-.723,1.133-1.35,1.451-1.694.478-.517,2.326-1.911,4.113-3.259,4.419-3.337,10.6-8,15.28-13.213-1.1,6.006-3.283,9.23-7.181,15.011-1.316,1.955-2.814,4.167-4.52,6.839-8.823,13.794-24.5,21.677-35.951,27.435-7.243,3.643-12.033,6.049-13.97,9.21-2.556,4.216-1.894,16.073-.593,26.9H235.688V263.093a39.258,39.258,0,0,1,6.049-18.6c7.944-12.481,22.093-18.811,42.053-18.811a3.336,3.336,0,0,0,.682-.073c.289-.06,7.1-1.593,13.546-8.652a93.257,93.257,0,0,1,16.616-14.621c.077-.049.155-.1.228-.15,3.294-2.105,6.293-3.415,8.56-3.415.185,0,.368.012.544.029a3.269,3.269,0,0,1,2.66,1.83c4.032,6.77-11.919,18.811-18.733,23.953a43.606,43.606,0,0,0-4.973,4.039c-.422.457-.964,1.105-1.651,1.923-4.954,5.9-18.1,21.582-31.894,20.049a3.256,3.256,0,0,0-.724,6.472m-32.963,59.273v-7.865h30.06c.425,2.929.861,5.621,1.243,7.854ZM334,169.68l-.153-5.893c0-.052-.015-.1-.017-.15s0-.13-.01-.194a12.115,12.115,0,0,0-24.122,1.625v32.755a103.914,103.914,0,0,0-16.483,14.739,22.939,22.939,0,0,1-9.847,6.605c-27.527.121-40.814,11.922-47.119,21.827a45.573,45.573,0,0,0-7.064,22.067v56.532a3.252,3.252,0,0,0,3.253,3.256h0l38.438-.015a3.255,3.255,0,0,0,3.2-3.843c-.833-4.525-1.588-9.306-2.207-13.935a3.531,3.531,0,0,0-.077-.59c-1.625-12.351-2.259-23.542-.761-26.011.96-1.568,6.472-4.341,11.339-6.787,11.438-5.752,28.724-14.445,38.508-29.742,1.665-2.605,3.137-4.783,4.433-6.706,9.985-14.8,9.958-15.752,8.686-65.539"
                    transform="translate(-101.014 -67.412)"/>
              <path id="Path_973304"
                    d="M145.6,131.443C134.127,123.467,71.866,78.436,71.866,40.7c0-23.49,17.773-34.189,34.288-34.189a41.574,41.574,0,0,1,36.575,22.1,3.257,3.257,0,0,0,5.737,0,41.563,41.563,0,0,1,36.567-22.1c16.509,0,34.279,10.7,34.279,34.189,0,37.732-62.245,82.763-73.714,90.739M225.819,40.7c0-12.42-4.346-22.914-12.571-30.347A41.828,41.828,0,0,0,185.028,0,47.932,47.932,0,0,0,145.6,20.837,47.965,47.965,0,0,0,106.152,0,41.815,41.815,0,0,0,77.928,10.354C69.7,17.787,65.351,28.281,65.351,40.7c0,44.832,75.242,95.273,78.443,97.4a3.23,3.23,0,0,0,1.8.544,3.264,3.264,0,0,0,1.8-.544c3.2-2.122,78.422-52.561,78.422-97.4"
                    transform="translate(-28.803)"/>
            </g>
          </g>
        </g>
      </g>
    </g>
  </symbol>
  <symbol viewBox="0 0 411.0703 569.3242" id="color-how-to-graph">
    <defs>
      <clipPath id="clip-path">
        <rect id="Rectangle_361712" width="62.12" height="62.12" stroke="#fff"
              stroke-width="1"/>
      </clipPath>
      <clipPath id="clip-path-2">
        <rect id="Rectangle_361710" width="59.619" height="59.62" stroke="#fff"
              stroke-width="1"/>
      </clipPath>
    </defs>
    <g id="CCX-JDI037-how-to-color-desktop" transform="translate(21828.215 20413.115)">
      <g id="Group_381407" transform="translate(-43.873 72.002)">
        <path id="Rectangle_361813"
              d="M20,0H74.6a0,0,0,0,1,0,0V47a0,0,0,0,1,0,0H20A20,20,0,0,1,0,27V20A20,20,0,0,1,20,0Z"
              transform="translate(-21765.127 -20094.002)"/>
        <rect id="Rectangle_361814" width="74.6" height="47"
              transform="translate(-21691.127 -20094.002)" opacity="0.8"/>
        <rect id="Rectangle_361815" width="74.6" height="47"
              transform="translate(-21616.527 -20094.002)" opacity="0.6"/>
        <rect id="Rectangle_361816" width="74.6" height="47"
              transform="translate(-21541.928 -20094.002)" opacity="0.4"/>
        <path id="Rectangle_361817"
              d="M0,0H54.6a20,20,0,0,1,20,20v7a20,20,0,0,1-20,20H0a0,0,0,0,1,0,0V0A0,0,0,0,1,0,0Z"
              transform="translate(-21467.328 -20094.002)" opacity="0.2"/>
      </g>
      <path id="Path_973339"
            d="M161.535,76.836A76.848,76.848,0,0,1,12.87,104.174L84.7,76.836V0a76.834,76.834,0,0,1,76.836,76.836"
            transform="translate(-21597.863 -20199.67)" opacity="0.595"/>
      <path id="Path_973340"
            d="M76.836,0V76.836L5.007,104.174c-.2-.514-.389-1.031-.576-1.552A76.9,76.9,0,0,1,76.836,0"
            transform="translate(-21590 -20199.67)"/>
      <path id="Line_85552" d="M1.109,85.716H-1.651V0H1.109Z"
            transform="translate(-21575.348 -19931.133)"/>
      <g id="Group_381302" transform="translate(-318.519 1317.168)">
        <g id="Group_381249" transform="translate(-21245.611 -21236.947)">
          <g id="Group_381248">
            <g id="Group_381247" clip-path="url(#clip-path)">
              <g id="Group_381243" transform="translate(1.25 1.25)" opacity="0">
                <g id="Group_381242">
                  <g id="Group_381241" clip-path="url(#clip-path-2)">
                    <path id="Path_973308"
                          d="M443.682,681.457a29.81,29.81,0,1,1-29.81-29.81,29.81,29.81,0,0,1,29.81,29.81"
                          transform="translate(-384.063 -651.646)"/>
                    <path id="Path_973308_-_Outline"
                          d="M413.79,711.6a30.134,30.134,0,1,1,11.766-2.376A30.041,30.041,0,0,1,413.79,711.6Zm0-59.62a29.3,29.3,0,1,0,11.44,2.31A29.21,29.21,0,0,0,413.79,651.983Z"
                          transform="translate(-383.981 -651.564)"/>
                  </g>
                </g>
              </g>
              <g id="Group_381246">
                <g id="Group_381245">
                  <g id="Group_381244" clip-path="url(#clip-path)">
                    <path id="Path_973309"
                          d="M413.627,650.151a30.968,30.968,0,1,1-12.091,2.441A30.866,30.866,0,0,1,413.627,650.151Zm0,59.62a28.468,28.468,0,1,0-11.117-2.244A28.379,28.379,0,0,0,413.627,709.771Z"
                          transform="translate(-382.567 -650.151)"/>
                  </g>
                </g>
              </g>
            </g>
          </g>
        </g>
        <path id="Path_973316"
              d="M415.523,703.871,412.841,687.1a.715.715,0,0,0-.1-.266.684.684,0,0,0-.089-.113.782.782,0,0,0-.11-.093.806.806,0,0,0-.126-.069.768.768,0,0,0-.138-.042l-13.234-2.661a.716.716,0,0,1-.293-.134.708.708,0,0,1,.293-1.256l13.234-2.644a.657.657,0,0,0,.138-.043.694.694,0,0,0,.127-.069.72.72,0,0,0,.109-.093.73.73,0,0,0,.089-.114.775.775,0,0,0,.064-.129.722.722,0,0,0,.037-.139l2.683-16.785a.7.7,0,0,1,.1-.354.713.713,0,0,1,1.234,0,.7.7,0,0,1,.1.354l2.688,16.771a.659.659,0,0,0,.033.139.677.677,0,0,0,.059.13.757.757,0,0,0,.084.115.73.73,0,0,0,.106.1.707.707,0,0,0,.259.12l13.234,2.658a.708.708,0,0,1,.293,1.256.716.716,0,0,1-.293.134l-13.234,2.647a.685.685,0,0,0-.137.043.661.661,0,0,0-.126.069.672.672,0,0,0-.109.092.76.76,0,0,0-.089.113.673.673,0,0,0-.064.128.729.729,0,0,0-.037.138l-2.687,16.771a.713.713,0,0,1-1.277.3.7.7,0,0,1-.129-.3"
              transform="translate(-21630.789 -21889)"/>
      </g>
      <g id="Group_381296" transform="translate(-21996 -22283)" opacity="0.5">
        <rect id="Rectangle_361728" width="63" height="10" rx="5"
              transform="translate(187 2398)"/>
        <rect id="Rectangle_361727" width="87" height="10" rx="5"
              transform="translate(187 2380)"/>
      </g>
      <g id="Group_381297" transform="translate(-21995.047 -22283)" opacity="0.5">
        <rect id="Rectangle_361729" width="63" height="10" rx="5"
              transform="translate(305 2398)"/>
        <rect id="Rectangle_361730" width="87" height="10" rx="5"
              transform="translate(305 2380)"/>
      </g>
      <g id="Group_381425" transform="translate(-246.177 1317.168)">
        <g id="Group_381249-2" transform="translate(-21245.611 -21236.947)">
          <g id="Group_381248-2">
            <g id="Group_381247-2" clip-path="url(#clip-path)">
              <g id="Group_381243-2" transform="translate(1.25 1.25)"
                 opacity="0">
                <g id="Group_381242-2">
                  <g id="Group_381241-2" clip-path="url(#clip-path-2)">
                    <path id="Path_973308-2"
                          d="M443.682,681.457a29.81,29.81,0,1,1-29.81-29.81,29.81,29.81,0,0,1,29.81,29.81"
                          transform="translate(-384.063 -651.646)"/>
                    <path id="Path_973308_-_Outline-2"
                          d="M413.79,711.6a30.134,30.134,0,1,1,11.766-2.376A30.041,30.041,0,0,1,413.79,711.6Zm0-59.62a29.3,29.3,0,1,0,11.44,2.31A29.21,29.21,0,0,0,413.79,651.983Z"
                          transform="translate(-383.981 -651.564)"/>
                  </g>
                </g>
              </g>
              <g id="Group_381246-2">
                <g id="Group_381245-2">
                  <g id="Group_381244-2" clip-path="url(#clip-path)">
                    <path id="Path_973309-2"
                          d="M413.627,650.151a30.968,30.968,0,1,1-12.091,2.441A30.866,30.866,0,0,1,413.627,650.151Zm0,59.62a28.468,28.468,0,1,0-11.117-2.244A28.379,28.379,0,0,0,413.627,709.771Z"
                          transform="translate(-382.567 -650.151)"/>
                  </g>
                </g>
              </g>
            </g>
          </g>
        </g>
        <path id="Path_973316-2"
              d="M415.523,703.871,412.841,687.1a.715.715,0,0,0-.1-.266.684.684,0,0,0-.089-.113.782.782,0,0,0-.11-.093.806.806,0,0,0-.126-.069.768.768,0,0,0-.138-.042l-13.234-2.661a.716.716,0,0,1-.293-.134.708.708,0,0,1,.293-1.256l13.234-2.644a.657.657,0,0,0,.138-.043.694.694,0,0,0,.127-.069.72.72,0,0,0,.109-.093.73.73,0,0,0,.089-.114.775.775,0,0,0,.064-.129.722.722,0,0,0,.037-.139l2.683-16.785a.7.7,0,0,1,.1-.354.713.713,0,0,1,1.234,0,.7.7,0,0,1,.1.354l2.688,16.771a.659.659,0,0,0,.033.139.677.677,0,0,0,.059.13.757.757,0,0,0,.084.115.73.73,0,0,0,.106.1.707.707,0,0,0,.259.12l13.234,2.658a.708.708,0,0,1,.293,1.256.716.716,0,0,1-.293.134l-13.234,2.647a.685.685,0,0,0-.137.043.661.661,0,0,0-.126.069.672.672,0,0,0-.109.092.76.76,0,0,0-.089.113.673.673,0,0,0-.064.128.729.729,0,0,0-.037.138l-2.687,16.771a.713.713,0,0,1-1.277.3.7.7,0,0,1-.129-.3"
              transform="translate(-21630.789 -21889)"/>
      </g>
      <path id="Path_973341"
            d="M-21371.9-19945.793h-410.838l-.029-1.471c-.453-23.527,0-560.93,0-566.355l0-1.5h410.865Zm-407.889-3h404.889v-563.324h-404.869C-21779.791-20480.914-21780.191-19986.449-21779.785-19948.793Z"
            transform="translate(-45.248 102.002)"/>
      <path id="Line_85552-2" d="M406.287,1.5H0v-3H406.287Z"
            transform="translate(-21825.787 -19931.5)"/>
      <path id="Path_973342"
            d="M-21068.049-18571.471a5.125,5.125,0,0,1-1.523-.236c-4.287-1.324-6.113-7.43-7.877-13.336-1.4-4.666-2.977-9.955-5.363-10.312a.86.86,0,0,0-.143-.012c-.766,0-1.781.854-2.951,2.482a65.261,65.261,0,0,0-4.3,7.59,66.446,66.446,0,0,1-5.512,9.469,13.179,13.179,0,0,1-3.354,3.256,5.792,5.792,0,0,1-4.273.9,6.608,6.608,0,0,1-4.865-3.123,10.671,10.671,0,0,1-1.062-4.346,7.352,7.352,0,0,0-.637-2.943c-.273-.449-.85-1.07-2.7-1.271a21.055,21.055,0,0,1-11.75-5.375c-3.25-2.955-5.236-6.652-5.449-10.146a10.687,10.687,0,0,0-1.227-3.723,28.443,28.443,0,0,0-3.021-4.682c-2.627-3.338-5.57-5.756-7.869-6.467-1.875-.576-2.7.137-3.213.826-1.67,2.232-3.385,7.455-5.041,12.506-1.221,3.725-2.486,7.576-3.844,10.652-1.719,3.889-3.3,5.926-5.141,6.609a3.806,3.806,0,0,1-3.447-.414c-3-1.875-5.078-6.281-7.092-10.543a52.459,52.459,0,0,0-3.023-5.824c-.965-1.488-1.842-2.324-2.6-2.484a1.306,1.306,0,0,0-.275-.029,3.215,3.215,0,0,0-1.867.938,14.552,14.552,0,0,0-3.592,5.33,53.374,53.374,0,0,0-2.178,6.717,36.868,36.868,0,0,1-2.365,6.883c-1.246,2.408-2.879,3.77-4.992,4.164a1.36,1.36,0,0,1-.266.025,1.472,1.472,0,0,1-1.441-1.23,1.492,1.492,0,0,1,1.178-1.744c1.2-.225,2.1-1.031,2.92-2.615a34.8,34.8,0,0,0,2.139-6.3c1.3-4.709,2.775-10.047,6.672-13.5a5.759,5.759,0,0,1,3.781-1.674,4.225,4.225,0,0,1,.883.094c1.592.336,3.008,1.531,4.457,3.766a54.64,54.64,0,0,1,3.221,6.178c1.742,3.689,3.715,7.873,5.979,9.287a.937.937,0,0,0,.906.154c.557-.209,1.748-1.137,3.467-5.023,1.3-2.941,2.539-6.719,3.736-10.373,1.813-5.525,3.525-10.744,5.488-13.373a5.468,5.468,0,0,1,6.4-1.877c4.1,1.27,7.875,5.639,9.309,7.459,2.9,3.684,4.727,7.459,4.889,10.1.168,2.711,1.8,5.66,4.473,8.094a18.685,18.685,0,0,0,4.613,3.07,17.41,17.41,0,0,0,5.49,1.561c2.357.256,3.955,1.133,4.891,2.682a9.7,9.7,0,0,1,1.064,4.232,8.119,8.119,0,0,0,.68,3.135c.3.537.932,1.3,2.865,1.67a2.423,2.423,0,0,0,.453.045c1.945,0,3.7-2.3,4.309-3.1a64.64,64.64,0,0,0,5.229-9.018,66.39,66.39,0,0,1,4.527-7.971,11.822,11.822,0,0,1,2.553-2.725,4.68,4.68,0,0,1,2.756-.984,3.917,3.917,0,0,1,.584.043c2,.3,3.633,1.811,5,4.615a54.23,54.23,0,0,1,2.746,7.791c1.467,4.912,3.133,10.479,5.92,11.34.781.242,1.908.242,3.613-1.941a49.419,49.419,0,0,0,4.381-7.768c2.455-4.953,5.234-10.568,9.174-13.732a5.626,5.626,0,0,1,3.576-1.285,6.294,6.294,0,0,1,1.432.17c2.225.521,4.594,2.188,7.246,5.1a62.8,62.8,0,0,1,6.332,8.549,124.316,124.316,0,0,1,6.514,11.691,1.515,1.515,0,0,1-.68,2.006,1.454,1.454,0,0,1-1.961-.693h0a124.634,124.634,0,0,0-6.355-11.4,59.492,59.492,0,0,0-6.01-8.119c-2.174-2.381-4.162-3.836-5.744-4.207a2.747,2.747,0,0,0-2.531.551c-3.43,2.75-6.057,8.051-8.369,12.727a50.9,50.9,0,0,1-4.705,8.283,9.1,9.1,0,0,1-2.93,2.6A5.034,5.034,0,0,1-21068.049-18571.471Z"
            transform="translate(-598.332 -1549.984)"/>
      <path id="Rectangle_361819"
            d="M19.618,3A16.408,16.408,0,0,0,7.827,7.979,17.057,17.057,0,0,0,2.943,20V134a17.057,17.057,0,0,0,4.884,12.021A16.408,16.408,0,0,0,19.618,151H183.429a16.408,16.408,0,0,0,11.791-4.979A17.057,17.057,0,0,0,200.1,134V20A17.057,17.057,0,0,0,195.22,7.979,16.408,16.408,0,0,0,183.429,3H19.618m0-3H183.429a19.812,19.812,0,0,1,19.618,20V134a19.812,19.812,0,0,1-19.618,20H19.618A19.812,19.812,0,0,1,0,134V20A19.812,19.812,0,0,1,19.618,0Z"
            transform="translate(-21809.047 -20199.955)"/>
      <rect id="Rectangle_361729-2" width="63" height="10" rx="5"
            transform="translate(-21790.656 -20082.473)"/>
      <rect id="Rectangle_361730-2" width="166.02" height="10" rx="5"
            transform="translate(-21790.656 -20100.473)"/>
      <rect id="Rectangle_361734" width="108.516" height="16.839" rx="8.419"
            transform="translate(-21809.047 -20233.617)"/>
      <rect id="Rectangle_361733" width="373.26" height="16.839" rx="8.419"
            transform="translate(-21809.047 -20258.455)"/>
    </g>
  </symbol>
</svg>
