<svg id="ICONS" xmlns="http://www.w3.org/2000/svg" width="18" height="18" viewBox="0 0 18 18">
  <path id="Path_607228" data-name="Path 607228" d="M7.395,6.162A1.216,1.216,0,0,0,6.484,5.9a4.689,4.689,0,0,0-.736.066,3.711,3.711,0,0,1-.424-.508,4.665,4.665,0,0,1-.265-.424A4.41,4.41,0,0,0,5.3,3.808c0-.374-.144-.774-.549-.774a.405.405,0,0,0-.339.205A2.047,2.047,0,0,0,4.58,4.809c-.1.293-.2.578-.328.894A8.107,8.107,0,0,1,3.88,6.5c-.413.171-1.29.585-1.373,1.043a.394.394,0,0,0,.12.365.515.515,0,0,0,.357.131c.528,0,1.055-.752,1.41-1.4.2-.07.407-.134.612-.19.225-.061.442-.111.646-.149a1.976,1.976,0,0,0,1.306.578c.342,0,.47-.153.517-.281a.44.44,0,0,0-.08-.431ZM2.885,7.746A.12.12,0,0,1,2.8,7.714a.132.132,0,0,1-.044-.128c.037-.2.422-.49,1-.753C3.412,7.392,3.08,7.746,2.885,7.746Zm1.74-4.377a.139.139,0,0,1,.117-.078c.128,0,.156.159.156.291A3.732,3.732,0,0,1,4.73,4.5a1.609,1.609,0,0,1-.105-1.135Zm.751,2.663c-.145.031-.3.068-.447.109-.109.03-.22.062-.331.1.059-.124.113-.247.16-.364.062-.154.121-.308.174-.459q.071.114.146.221a4.368,4.368,0,0,0,.31.393Zm1.4.558a.474.474,0,0,1-.116-.015,1.866,1.866,0,0,1-.733-.382,3.541,3.541,0,0,1,.543-.043,1.9,1.9,0,0,1,.362.029c.109.023.231.085.2.247a.234.234,0,0,1-.256.164ZM17.357,2.8,15.2.641A2.185,2.185,0,0,0,13.647,0H11A3,3,0,0,0,8.292,1.732L7.2.641A2.185,2.185,0,0,0,5.647,0H3A3,3,0,0,0,0,3V9a3,3,0,0,0,3,3H7V10H3A1,1,0,0,1,2,9V3A1,1,0,0,1,3,2H5.647a.193.193,0,0,1,.139.058L7.943,4.211A.194.194,0,0,1,8,4.347V7.277a1.941,1.941,0,0,1,2,0V3a1,1,0,0,1,1-1h1V4a2.046,2.046,0,0,0,2.089,2H16V9a1,1,0,0,1-1,1H11v2h4a3,3,0,0,0,3-3V4.347A2.183,2.183,0,0,0,17.357,2.8ZM14.089,4C14.037,4,14,3.978,14,4V2.271L15.732,4ZM12.7,14.716l-3.026,3a.965.965,0,0,1-1.359,0L5.3,14.726a.965.965,0,0,1,1.359-1.37L8,14.687V9a1,1,0,0,1,2,0v5.678l1.342-1.332a.965.965,0,0,1,1.359,1.37Z"/>
</svg>
