<svg xmlns="http://www.w3.org/2000/svg" xmlns:xlink="http://www.w3.org/1999/xlink" width="36.97" height="38.81" viewBox="0 0 36.97 38.81">
  <defs>
    <clipPath id="clip-path">
      <rect id="Rectangle_353010" data-name="Rectangle 353010" width="36.97" height="38.81" transform="translate(0 0.178)" fill="none"/>
    </clipPath>
    <clipPath id="clip-path-2">
      <rect id="Rectangle_353009" data-name="Rectangle 353009" width="37" height="38.898" fill="none"/>
    </clipPath>
  </defs>
  <g id="Group_376906" data-name="Group 376906" transform="translate(0 -0.178)">
    <g id="Group_376908" data-name="Group 376908" clip-path="url(#clip-path)">
      <g id="Group_376907" data-name="Group 376907">
        <g id="Group_376906-2" data-name="Group 376906" clip-path="url(#clip-path-2)">
          <path id="Path_941536" data-name="Path 941536" d="M10.17,23.218H8.32a1.84,1.84,0,0,1-1.85-1.83v-1.86a1.85,1.85,0,0,1,1.85-1.85h1.85A1.84,1.84,0,0,1,12,19.528v1.85a1.841,1.841,0,0,1-1.83,1.84m1.83,7.4v-1.85a1.84,1.84,0,0,0-1.83-1.85H8.32a1.85,1.85,0,0,0-1.85,1.85v1.85a1.84,1.84,0,0,0,1.84,1.84h1.86A1.84,1.84,0,0,0,12,30.618m9.25-9.24v-1.85a1.85,1.85,0,0,0-1.85-1.85H17.56a1.85,1.85,0,0,0-1.85,1.85v1.85a1.84,1.84,0,0,0,1.84,1.84h1.86a1.84,1.84,0,0,0,1.85-1.83v-.01Zm0,9.24v-1.85a1.85,1.85,0,0,0-1.85-1.85H17.56a1.85,1.85,0,0,0-1.85,1.85v1.85a1.84,1.84,0,0,0,1.84,1.84h1.86a1.84,1.84,0,0,0,1.85-1.83v-.01Zm9.24-9.24v-1.85a1.85,1.85,0,0,0-1.85-1.85H26.8a1.85,1.85,0,0,0-1.8,1.85v1.85a1.84,1.84,0,0,0,1.8,1.84h1.85a1.84,1.84,0,0,0,1.85-1.83v-.01Zm0,9.24v-1.85a1.85,1.85,0,0,0-1.85-1.85H26.8a1.85,1.85,0,0,0-1.8,1.85v1.85a1.84,1.84,0,0,0,1.84,1.84H28.7a1.84,1.84,0,0,0,1.8-1.84ZM37,10.748v19.37a8.79,8.79,0,0,1-8.78,8.78H8.78A8.79,8.79,0,0,1,0,30.118V10.748a8.79,8.79,0,0,1,8.78-8.78h.46v-.46a1.39,1.39,0,0,1,2.77-.236,1.329,1.329,0,0,1,0,.236v.46H25v-.46a1.39,1.39,0,0,1,2.77-.236,1.329,1.329,0,0,1,0,.236v.46h.47A8.79,8.79,0,0,1,37,10.748m-34.2,0v.46H34.19v-.46a6,6,0,0,0-6-6h-.47v.46a1.39,1.39,0,1,1-2.77.236,1.329,1.329,0,0,1,0-.236v-.47H12V5.2a1.39,1.39,0,0,1-2.77.236,1.329,1.329,0,0,1,0-.236v-.46H8.78a6,6,0,0,0-6.01,5.99v.02Zm31.39,19.37V13.978H2.77v16.14a6,6,0,0,0,6,6H28.19a6,6,0,0,0,6-6"/>
        </g>
      </g>
    </g>
  </g>
</svg>
