<svg xmlns="http://www.w3.org/2000/svg" width="22" height="22" viewBox="0 0 22 22">
  <g id="Group_377122" data-name="Group 377122" transform="translate(11942.39 19078.295)">
    <rect id="Canvas" width="22" height="22" transform="translate(-11942.39 -19078.295)" fill="rgba(255,19,220,0)"/>
    <path id="Path_968332" data-name="Path 968332" d="M11.493,3.331a1,1,0,1,0,1.664-1.109,4.776,4.776,0,0,0-.38-.5,1,1,0,0,0-1.51,1.311,3.114,3.114,0,0,1,.226.3Z" transform="translate(-11942.39 -19078.295)" fill="#444"/>
    <path id="Path_968333" data-name="Path 968333" d="M9,2a2.889,2.889,0,0,1,.319.018,1.06,1.06,0,0,0,.11.006A1,1,0,0,0,9.538.029,4.912,4.912,0,0,0,9,0H8.929a.969.969,0,0,0-.964,1A1.03,1.03,0,0,0,9,2Z" transform="translate(-11942.39 -19078.295)" fill="#444"/>
    <path id="Path_968334" data-name="Path 968334" d="M12,5.643v.5a1,1,0,0,0,2,0v-.5a1,1,0,1,0-2,0Z" transform="translate(-11942.39 -19078.295)" fill="#444"/>
    <path id="Path_968335" data-name="Path 968335" d="M1,6.286a1,1,0,0,0,1-1L2,4.84a1,1,0,0,0-.943-1.053A.982.982,0,0,0,.008,4.73C0,4.82,0,4.909,0,5v.286a1,1,0,0,0,1,1Z" transform="translate(-11942.39 -19078.295)" fill="#444"/>
    <path id="Path_968336" data-name="Path 968336" d="M5.429,2h.5a1,1,0,1,0,0-2h-.5a1,1,0,0,0,0,2Z" transform="translate(-11942.39 -19078.295)" fill="#444"/>
    <path id="Path_968337" data-name="Path 968337" d="M1,9.786a1,1,0,0,0,1-1v-.5a1,1,0,1,0-2,0v.5a1,1,0,0,0,1,1Z" transform="translate(-11942.39 -19078.295)" fill="#444"/>
    <path id="Path_968338" data-name="Path 968338" d="M2.223,3.121a1,1,0,0,0,.692-.278A3.119,3.119,0,0,1,3.2,2.6,1,1,0,1,0,2,1a5.132,5.132,0,0,0-.473.4,1,1,0,0,0,.692,1.722Z" transform="translate(-11942.39 -19078.295)" fill="#444"/>
    <path id="Path_968339" data-name="Path 968339" d="M9.289,9.688a2.171,2.171,0,0,0-3.753,1.5v.184c-.137.017-.269.028-.395.031l-.105,0a2.522,2.522,0,0,1-.737-.1,3.308,3.308,0,0,1-.9-.446,2.169,2.169,0,0,0-2.811.313,2.2,2.2,0,0,0-.254,2.666,8.859,8.859,0,0,0,1.016,1.332c.175.187.357.365.542.529a8.163,8.163,0,0,0,2.133,1.361,10.865,10.865,0,0,0,1.509.535v.227A2.178,2.178,0,0,0,7.712,20,2.129,2.129,0,0,0,8.8,19.693,4.991,4.991,0,0,0,13,22h4a5.006,5.006,0,0,0,5-5V13a5.006,5.006,0,0,0-5-5H12.955a1,1,0,0,0-1,1c0,.064.007.334.007.485a1.066,1.066,0,0,0,.834,1.143,1.049,1.049,0,0,0,.155.012.99.99,0,0,0,.916-.64H17a3,3,0,0,1,3,3v4a3,3,0,0,1-3,3H13a3,3,0,0,1-2.719-1.75l2.15-2.3.046-.051a2.127,2.127,0,0,0,0-2.789Zm-1.463,8.26a.15.15,0,0,1-.1.047l-.01,0L7.7,18a.173.173,0,0,1-.168-.181V16.006a17.938,17.938,0,0,1-1.956-.5C5.558,15.5,5,15.3,4.836,15.224h0a6.214,6.214,0,0,1-1.618-1.03q-.212-.188-.4-.394A6.819,6.819,0,0,1,2.03,12.77a.2.2,0,0,1,.022-.24.169.169,0,0,1,.22-.026l0,0a14.626,14.626,0,0,0,1.443.706A4.562,4.562,0,0,0,5.2,13.4,22.176,22.176,0,0,0,7.5,13.007L7.535,13V11.184a.184.184,0,0,1,.047-.123l0-.006h0A.19.19,0,0,1,7.7,11l.008,0,.01,0a.151.151,0,0,1,.1.047l2.859,3.068.287.308h0a.121.121,0,0,1,0,.157l-.19.2-.78.834Z" transform="translate(-11942.39 -19078.295)" fill="#444"/>
  </g>
</svg>
