<svg id="SX_Duplicate_18_N" xmlns="http://www.w3.org/2000/svg" width="18" height="18.005" viewBox="0 0 18 18.005">
  <g id="SMOCK">
    <rect id="Canvas" width="18" height="18" fill="rgba(255,19,220,0)"/>
  </g>
  <g id="ICONS">
    <path id="Path_119791" data-name="Path 119791" d="M10,0H5A5.006,5.006,0,0,0,0,5v5a4,4,0,0,0,4,4,.93.93,0,0,0,.1-.02A5.007,5.007,0,0,0,9,18h4a5.006,5.006,0,0,0,5-5V9a5.007,5.007,0,0,0-4.02-4.9A.937.937,0,0,0,14,4a4,4,0,0,0-4-4ZM4,9v3a2,2,0,0,1-2-2V5A3,3,0,0,1,5,2h5a2,2,0,0,1,2,2H9A5.006,5.006,0,0,0,4,9ZM16,9v4a3,3,0,0,1-3,3H9a3,3,0,0,1-3-3V9A3,3,0,0,1,9,6h4a3,3,0,0,1,3,3Z" fill="#fff"/>
  </g>
</svg>
