<?xml version="1.0" encoding="utf-8"?>
<!-- Generator: Adobe Illustrator 26.4.0, SVG Export Plug-In . SVG Version: 6.00 Build 0)  -->
<svg version="1.1" id="SXmock_PDFCreate_18_N" xmlns="http://www.w3.org/2000/svg" xmlns:xlink="http://www.w3.org/1999/xlink"
	 x="0px" y="0px" viewBox="0 0 18 18" style="enable-background:new 0 0 18 18;" xml:space="preserve">
<style type="text/css">
	.st0{fill:#FF13DC;fill-opacity:0;}
</style>
<rect id="Canvas" class="st0" width="18" height="18"/>
<g id="ICONS">
	<path id="Path_600486" d="M12,17H6c-2.8,0-5-2.2-5-5V5c0-2.8,2.2-5,5-5h4.2c0.6,0,1,0.4,1,1s-0.4,1-1,1H6C4.3,2,3,3.3,3,5v7
		c0,1.7,1.3,3,3,3h6c1.7,0,3-1.3,3-3V8.8c0-0.6,0.4-1,1-1c0.6,0,1,0.4,1,1V12C17,14.8,14.8,17,12,17z"/>
	<path id="Path_600487" d="M14,7.9c-0.5,0-0.9-0.3-1-0.7l-0.6-1.6L10.9,5c-0.6-0.2-0.9-0.8-0.7-1.4c0.1-0.3,0.4-0.6,0.7-0.7l1.6-0.6
		L13,0.8C13.2,0.3,13.6,0,14,0l0,0c0.5,0,0.9,0.3,1,0.7l0,0l0.6,1.6l1.6,0.6c0.6,0.2,0.9,0.8,0.7,1.4c-0.1,0.3-0.4,0.6-0.7,0.7
		l-1.6,0.6l-0.6,1.6C14.9,7.6,14.5,7.9,14,7.9L14,7.9z M12.3,5.3L12.3,5.3z M15.8,5.3L15.8,5.3z M13.4,4L13.4,4
		c0.3,0.1,0.6,0.4,0.7,0.7v0l0,0c0.1-0.3,0.4-0.5,0.7-0.7l0,0l0,0c-0.3-0.1-0.6-0.4-0.7-0.7l0,0l0,0C13.9,3.6,13.7,3.8,13.4,4
		L13.4,4z M12.3,2.7L12.3,2.7z M15.8,2.7L15.8,2.7z"/>
	<path id="Path_600488" d="M13.2,9.6c-0.5-0.4-1.1-0.5-1.6-0.5c-0.4,0-0.9,0-1.3,0.1C10,9,9.7,8.7,9.5,8.4C9.3,8.1,9.2,7.9,9,7.6
		c0.2-0.7,0.4-1.5,0.4-2.2c0-0.7-0.3-1.4-1-1.4C8.2,4,8,4.1,7.9,4.4c-0.3,0.9-0.2,2,0.3,2.8C8,7.7,7.8,8.2,7.6,8.8
		c-0.2,0.5-0.4,1-0.7,1.4c-0.7,0.3-2.3,1.1-2.5,1.9c0,0.2,0,0.5,0.2,0.7C4.8,12.9,5.1,13,5.3,13c1,0,1.9-1.4,2.5-2.5
		c0.4-0.1,0.7-0.2,1.1-0.3c0.4-0.1,0.8-0.2,1.2-0.3c0.6,0.6,1.5,1,2.4,1c0.6,0,0.8-0.3,0.9-0.5C13.5,10.1,13.4,9.8,13.2,9.6
		L13.2,9.6z M5.1,12.5c-0.1,0-0.1,0-0.2-0.1c-0.1-0.1-0.1-0.1-0.1-0.2c0.1-0.4,0.8-0.9,1.8-1.4C6.1,11.8,5.5,12.5,5.1,12.5L5.1,12.5
		z M8.3,4.6c0-0.1,0.1-0.1,0.2-0.1c0.2,0,0.3,0.3,0.3,0.5c0,0.6-0.1,1.1-0.3,1.7C8.1,6,8.1,5.3,8.3,4.6z M9.6,9.4
		C9.3,9.5,9.1,9.5,8.8,9.6C8.6,9.7,8.4,9.7,8.2,9.8c0.1-0.2,0.2-0.4,0.3-0.7c0.1-0.3,0.2-0.6,0.3-0.8C8.9,8.4,9,8.6,9.1,8.7
		C9.2,8.9,9.4,9.2,9.6,9.4L9.6,9.4z M12.1,10.4c-0.1,0-0.1,0-0.2,0c-0.5-0.1-0.9-0.4-1.3-0.7c0.3-0.1,0.6-0.1,1-0.1
		c0.2,0,0.4,0,0.7,0.1c0.2,0,0.4,0.2,0.4,0.4C12.5,10.3,12.3,10.4,12.1,10.4L12.1,10.4z"/>
</g>
</svg>
