<?xml version="1.0" encoding="utf-8"?>
<!-- Generator: Adobe Illustrator 26.4.0, SVG Export Plug-In . SVG Version: 6.00 Build 0)  -->
<svg version="1.1" id="SX_Crop_18_N" xmlns="http://www.w3.org/2000/svg" xmlns:xlink="http://www.w3.org/1999/xlink" x="0px"
	 y="0px" viewBox="0 0 18 18" style="enable-background:new 0 0 18 18;" xml:space="preserve">
<g id="ICONS">
	<path id="Path_120022" d="M17,13H6c-0.6,0-1-0.4-1-1V1c0-0.6-0.4-1-1-1S3,0.4,3,1v2H1C0.4,3,0,3.4,0,4s0.4,1,1,1h2v7
		c0,1.7,1.3,3,3,3h7v2c0,0.6,0.4,1,1,1s1-0.4,1-1v-2h2c0.6,0,1-0.4,1-1S17.6,13,17,13z"/>
	<path id="Path_120023" d="M14,12c0.6,0,1-0.4,1-1V6c0-1.7-1.3-3-3-3H7C6.5,3,6,3.4,6,4s0.4,1,1,1h5c0.6,0,1,0.4,1,1v5
		C13,11.6,13.4,12,14,12z"/>
</g>
</svg>
