<svg id="Illu" xmlns="http://www.w3.org/2000/svg" width="30.141" height="30.914" viewBox="0 0 30.141 30.914">
  <path id="Path_603644" data-name="Path 603644" d="M39.178,31.951H34.5V27.275a1.275,1.275,0,0,0-2.551,0v4.676H27.275a1.275,1.275,0,0,0,0,2.551h4.676v4.676a1.275,1.275,0,1,0,2.551,0V34.5h4.676a1.275,1.275,0,1,0,0-2.551Z" transform="translate(-10.312 -9.539)" fill="#fff"/>
  <path id="Path_603645" data-name="Path 603645" d="M24.31,16.069h4.982v1.922a1.15,1.15,0,1,0,2.3,0V15.951a5.76,5.76,0,0,0-1.525-3.911L23.454,4.855A5.756,5.756,0,0,0,19.231,3h-7.95A7.3,7.3,0,0,0,4,10.3V24.91a7.3,7.3,0,0,0,7.281,7.3h6.9a1.153,1.153,0,0,0,0-2.306h-6.9a5,5,0,0,1-4.982-5V10.3a5,5,0,0,1,4.982-5h7.281v5a5.763,5.763,0,0,0,5.748,5.766ZM20.861,5.738a3.425,3.425,0,0,1,.9.682L28.377,13.6c.045.049.078.107.121.158H24.31a3.458,3.458,0,0,1-3.449-3.46Z" transform="translate(-4 -3)" fill="#fff"/>
</svg>
