<svg id="SX_Elements_22_N" xmlns="http://www.w3.org/2000/svg" width="22.002" height="22" viewBox="0 0 22.002 22">
  <g id="SMOCK" transform="translate(0.002)">
    <rect id="Canvas" width="22" height="22" fill="rgba(255,19,220,0)"/>
  </g>
  <g id="ICONS" transform="translate(0.002)">
    <path id="Path_125884" data-name="Path 125884" d="M12.766,5a.935.935,0,0,0-.2.046l-1.833-3.4a3.1,3.1,0,0,0-5.467,0L2.915,6.011.379,10.363a3.136,3.136,0,0,0,.07,3.118A3.078,3.078,0,0,0,3.113,15H5.3a.981.981,0,0,0,.019.228A8,8,0,0,0,13,21h.235a8,8,0,1,0-.469-16Zm-10.6,7.453a1.136,1.136,0,0,1-.042-1.116L4.66,6.987l2.368-4.4a1.1,1.1,0,0,1,1.943,0l2.385,4.429,2.5,4.294a1.15,1.15,0,0,1-.025,1.145,1.09,1.09,0,0,1-.947.544H3.113a1.086,1.086,0,0,1-.946-.543ZM13.174,19a5.957,5.957,0,0,1-5.813-4h5.525a3.078,3.078,0,0,0,2.664-1.519,3.147,3.147,0,0,0,.053-3.147L13.688,7.047A6,6,0,0,1,13.174,19Z" fill="#484848"/>
  </g>
</svg>
