<svg xmlns="http://www.w3.org/2000/svg" width="18" height="18" viewBox="0 0 18 18">
  <g id="SX_Document_18_N" transform="translate(0 0)">
    <g id="SMOCK">
      <rect id="Canvas" width="18" height="18" fill="rgba(255,19,220,0)"/>
    </g>
    <g id="ICONS">
      <path id="Path_119767" data-name="Path 119767" d="M10.171,0H6A5.006,5.006,0,0,0,1,5v7a5.006,5.006,0,0,0,5,5h6a5.006,5.006,0,0,0,5-5V6.828a2.979,2.979,0,0,0-.879-2.121L12.293.879A2.982,2.982,0,0,0,10.171,0ZM11,2.414,14.586,6H12a1,1,0,0,1-1-1ZM12,15H6a3,3,0,0,1-3-3V5A3,3,0,0,1,6,2H9V5a3,3,0,0,0,3,3h3v4A3,3,0,0,1,12,15Z" fill="#484848"/>
    </g>
  </g>
</svg>
