<svg id="SX_Document_18_S" xmlns="http://www.w3.org/2000/svg" width="18" height="18" viewBox="0 0 18 18">
  <g id="SMOCK">
    <rect id="Canvas" width="18" height="18" fill="rgba(255,19,220,0)"/>
  </g>
  <g id="ICONS">
    <path id="Path_119768" data-name="Path 119768" d="M16.87,6a2.97,2.97,0,0,0-.749-1.293L12.293.879A2.973,2.973,0,0,0,11,.13V5a1,1,0,0,0,1,1Z" fill="#5c5ce0"/>
    <path id="Path_119769" data-name="Path 119769" d="M6,0A5.006,5.006,0,0,0,1,5v7a5.006,5.006,0,0,0,5,5h6a5.006,5.006,0,0,0,5-5V8H12A3,3,0,0,1,9,5V0Z" fill="#5c5ce0"/>
  </g>
</svg>
