<svg xmlns="http://www.w3.org/2000/svg" width="16" height="16" viewBox="0 0 16 16">
  <g id="ICONS" transform="translate(-1 -1)">
    <path id="Path_607230" data-name="Path 607230" d="M16,17H12a1,1,0,0,1,0-2h4a1,1,0,0,1,0,2Zm1-4a1,1,0,0,0-1-1H12a1,1,0,0,0,0,2h4a1,1,0,0,0,1-1Zm0-3a1,1,0,0,0-1-1H12a1,1,0,0,0,0,2h4a1,1,0,0,0,1-1Zm-7,4V12A3,3,0,0,0,7,9H4a3,3,0,0,0-3,3v2a3,3,0,0,0,3,3H7a3,3,0,0,0,3-3ZM7,11a1,1,0,0,1,1,1v2a1,1,0,0,1-1,1H4a1,1,0,0,1-1-1V12a1,1,0,0,1,1-1ZM17,5V4a3,3,0,0,0-3-3H4A3,3,0,0,0,1,4V5A3,3,0,0,0,4,8H14A3,3,0,0,0,17,5ZM14,3a1,1,0,0,1,1,1V5a1,1,0,0,1-1,1H4A1,1,0,0,1,3,5V4A1,1,0,0,1,4,3Z"/>
  </g>
</svg>
