<svg xmlns="http://www.w3.org/2000/svg" viewBox="0 0 232 21">
  <g id="Layer_2" data-name="Layer 2">
    <g id="Sprite">
      <path id="Path_600314" data-name="Path 600314" d="M15,0h8.79V21ZM8.78,0H0V21Zm3.08,7.74L17.46,21H13.8l-1.67-4.21H8Z" style="fill: red"/>
      <g id="Group_295880" data-name="Group 295880">
        <path id="Path_600315" data-name="Path 600315" d="M34.87,14.05,34,16.73a.21.21,0,0,1-.2.15H31.7c-.13,0-.16-.08-.14-.18L35.17,6.22a3.13,3.13,0,0,0,.17-1.1A.13.13,0,0,1,35.45,5h2.9c.09,0,.13,0,.14.11l4.15,11.61c0,.09,0,.16-.09.16H40.18a.18.18,0,0,1-.2-.13l-.92-2.7Zm3.52-2.28C38,10.58,37.31,8.37,37,7.09h0c-.28,1.21-.94,3.22-1.42,4.68Zm4.2.68c0-2.6,1.94-4.77,5.26-4.77l.6,0V4.13a.12.12,0,0,1,.1-.13h2.32C51,4,51,4,51,4.11V14.83a11.73,11.73,0,0,0,.07,1.33c0,.09,0,.13-.12.16a8.82,8.82,0,0,1-3.58.73c-2.68,0-4.77-1.53-4.77-4.6Zm5.87-2.58a2,2,0,0,0-.68-.09A2.42,2.42,0,0,0,45.19,12c0,.1,0,.21,0,.31a2.28,2.28,0,0,0,1.94,2.57,2.57,2.57,0,0,0,.48,0,2.43,2.43,0,0,0,.85-.11Zm12.59,2.45A4.38,4.38,0,0,1,57,17a3.49,3.49,0,0,1-.46,0c-3.11,0-4.48-2.34-4.48-4.67a4.44,4.44,0,0,1,4.17-4.69h.35c2.93,0,4.42,2.19,4.42,4.64Zm-6.39,0c0,1.6.75,2.62,2,2.62,1.05,0,1.85-.91,1.85-2.58,0-1.43-.59-2.6-2-2.6-1,0-1.85.94-1.85,2.56ZM64.55,4c.14,0,.18,0,.18.14V7.86a6.06,6.06,0,0,1,1.53-.2,4.15,4.15,0,0,1,4.35,3.94,2.41,2.41,0,0,1,0,.38c0,3.4-2.68,5.07-5.44,5.07a9.43,9.43,0,0,1-2.84-.41.2.2,0,0,1-.11-.18V4.13c0-.09,0-.13.12-.13ZM65.8,9.82a3.54,3.54,0,0,0-1.07.14v4.92a2.55,2.55,0,0,0,.67.07A2.48,2.48,0,0,0,68,12.61a2.41,2.41,0,0,0,0-.38,2.15,2.15,0,0,0-1.83-2.4,1.89,1.89,0,0,0-.41,0Zm8,3.2c.09,1,.82,1.88,2.6,1.88a5.53,5.53,0,0,0,2.24-.41s.11,0,.11.09V16.3c0,.12,0,.18-.13.21a6.15,6.15,0,0,1-2.77.54,4.25,4.25,0,0,1-4.6-3.87,4.33,4.33,0,0,1,0-.72c0-2.51,1.54-4.78,4.39-4.78a3.68,3.68,0,0,1,3.82,3.54,2.28,2.28,0,0,1,0,.37,6.17,6.17,0,0,1-.09,1.21.15.15,0,0,1-.14.14,16.61,16.61,0,0,1-1.87.07Zm2.35-1.76a5.43,5.43,0,0,0,.9,0V11.1a1.47,1.47,0,0,0-1.52-1.44h0a1.72,1.72,0,0,0-1.75,1.6Zm16.59,5.46c0,.14-.06.16-.18.16H85.23c-.11,0-.14-.06-.14-.16V5.16c0-.11,0-.16.14-.16H92.4c.14,0,.17,0,.2.14l.2,2c0,.09,0,.16-.13.16H87.59V9.69h4.62c.09,0,.15,0,.15.14v2c0,.1-.07.12-.15.12H87.59V14.6h5.35c.15,0,.16.05.15.16l-.3,2Zm.85-4.27c0-2.6,1.94-4.77,5.26-4.77l.6,0V4.13A.12.12,0,0,1,99.6,4h2.32c.09,0,.11,0,.11.11V14.83a11.73,11.73,0,0,0,.07,1.33c0,.09,0,.13-.12.16a8.82,8.82,0,0,1-3.58.73c-2.68,0-4.76-1.53-4.76-4.6Zm5.87-2.58a2,2,0,0,0-.68-.09A2.42,2.42,0,0,0,96.24,12c0,.1,0,.21,0,.31a2.28,2.28,0,0,0,1.94,2.57,2.57,2.57,0,0,0,.48,0,2.51,2.51,0,0,0,.86-.11Zm12,5a16.75,16.75,0,0,0,.11,1.87c0,.1,0,.14-.16.14h-1.92c-.15,0-.18,0-.22-.13a4.82,4.82,0,0,1-.1-.57,3.72,3.72,0,0,1-2.49.88c-1.82,0-3.08-1-3.08-3.5V8c0-.12,0-.14.16-.14H106c.11,0,.13,0,.13.14v5.26c0,1,.41,1.62,1.42,1.62a2,2,0,0,0,1.43-.53V8c0-.11,0-.14.17-.14h2.2c.13,0,.15,0,.15.14v6.85Zm8,1.76c0,.09,0,.12-.09.14a5.84,5.84,0,0,1-2,.29,4.48,4.48,0,0,1-4.77-4.17,2.57,2.57,0,0,1,0-.48c0-2.72,2-4.73,5.14-4.73a5.24,5.24,0,0,1,1.67.2c.09,0,.1.09.1.2V9.93c0,.13-.07.14-.15.13a4.63,4.63,0,0,0-1.52-.22,2.36,2.36,0,0,0-2.62,2.07,2.55,2.55,0,0,0,0,.39,2.42,2.42,0,0,0,2.67,2.51,6.41,6.41,0,0,0,1.51-.16c.11,0,.14,0,.14.07V16.6Zm8.2-1.76c0,.48,0,.85,0,1.28,0,0,0,.07,0,.09a10,10,0,0,1-4,.82c-2,0-3.66-.93-3.66-3,0-1.92,1.69-2.93,4.11-2.93a7.52,7.52,0,0,1,1.06,0V11c0-.34-.21-1.14-1.74-1.14a5.65,5.65,0,0,0-2.4.5.09.09,0,0,1-.14,0,.14.14,0,0,1,0-.07V8.41a.16.16,0,0,1,.12-.18A7.15,7.15,0,0,1,124,7.66a3.42,3.42,0,0,1,3.76,3,2.84,2.84,0,0,1,0,.65v3.51ZM125.29,13a6.79,6.79,0,0,0-.9-.05c-1.28,0-1.82.41-1.82,1.07s.46,1.08,1.6,1.08a3.53,3.53,0,0,0,1.12-.16Zm8.5,3.58c0,.1,0,.2-.12.23a4.69,4.69,0,0,1-1.62.25,2.27,2.27,0,0,1-2.51-2.6V10h-1.08c-.11,0-.14-.05-.14-.16V8c0-.12,0-.16.16-.16h1.08a20.18,20.18,0,0,1,.18-2.2.19.19,0,0,1,.16-.16L132,5.23c.08,0,.14,0,.14.11-.06.57-.09,1.64-.09,2.52h1.67c.11,0,.14,0,.14.15V9.84c0,.09,0,.1-.12.12h-1.71v3.88c0,.8.23,1.15,1,1.15a3.18,3.18,0,0,0,.62-.07c.07,0,.12,0,.12.13v1.51Zm1-11.08a1.36,1.36,0,0,1,1.33-1.4h.09a1.32,1.32,0,0,1,1.4,1.24v.16a1.34,1.34,0,0,1-1.26,1.42h-.16a1.33,1.33,0,0,1-1.41-1.25V5.48ZM134.93,8a.12.12,0,0,1,.14-.14h2.24c.11,0,.14,0,.14.14v8.72c0,.1,0,.16-.16.16h-2.17c-.12,0-.18-.06-.18-.16V8Zm12.55,4.32a4.38,4.38,0,0,1-4,4.72,3.38,3.38,0,0,1-.45,0c-3.11,0-4.48-2.34-4.48-4.67a4.43,4.43,0,0,1,4.17-4.69h.34c2.92,0,4.43,2.19,4.43,4.64Zm-6.38,0c0,1.6.75,2.61,2,2.61,1,0,1.85-.9,1.85-2.57,0-1.43-.58-2.6-2-2.6-1.07,0-1.85.94-1.85,2.56ZM148.62,10c0-.62,0-1.57-.07-2,0-.09,0-.14.12-.14h1.9a.19.19,0,0,1,.23.14,2.11,2.11,0,0,1,.15.6,4,4,0,0,1,2.57-.92c1.4,0,3,.73,3,3.64v5.39c0,.11,0,.16-.16.16h-2.17c-.13,0-.18-.05-.18-.16V11.54c0-1.09-.48-1.67-1.42-1.67a2.2,2.2,0,0,0-1.52.57v6.29a.14.14,0,0,1-.16.15h-2.2c-.12,0-.16-.06-.16-.16V10Zm21.84,6.76c0,.14-.06.16-.18.16h-7.4c-.11,0-.14-.06-.14-.16V5.16c0-.11,0-.16.14-.16H170c.15,0,.18,0,.2.14l.2,2c0,.09,0,.16-.12.16h-5.07V9.69h4.63a.13.13,0,0,1,.14.14v2c0,.1-.07.12-.14.12h-4.63V14.6h5.35c.15,0,.16.05.15.16ZM171,8a.1.1,0,0,1,0-.14.09.09,0,0,1,.12,0h2.52a.2.2,0,0,1,.23.14l1.55,3h0l1.64-3c0-.11.07-.11.16-.11h2.22c.11,0,.16.07.11.16-.6,1-2,3.31-2.68,4.27.83,1.28,2.27,3.5,2.9,4.43.05.08,0,.16-.11.16h-2.6a.24.24,0,0,1-.23-.16l-1.62-3h0l-1.69,3.08c0,.07-.09.11-.21.11H171c-.11,0-.14-.09-.09-.18.73-1.1,2-3.17,2.72-4.29Z" style="fill: red"/>
        <path id="Path_600316" data-name="Path 600316" d="M186.44,16.61c0,.09,0,.12-.09.14a5.58,5.58,0,0,1-2,.28,4.47,4.47,0,0,1-4.77-4.16,3.85,3.85,0,0,1,0-.48c0-2.72,2.05-4.73,5.14-4.73a5.24,5.24,0,0,1,1.67.2c.09,0,.11.09.11.2l0,1.87c0,.13-.07.14-.14.13a4.69,4.69,0,0,0-1.53-.22,2.36,2.36,0,0,0-2.62,2.07,2.54,2.54,0,0,0,0,.39,2.42,2.42,0,0,0,2.67,2.51,6.41,6.41,0,0,0,1.51-.16c.1,0,.14,0,.14.07V16.6Zm3.75.12c0,.11,0,.14-.14.14h-2.24c-.11,0-.14-.05-.14-.14V4.13c0-.08,0-.13.14-.13h2.24c.11,0,.14,0,.14.13V8.41a4,4,0,0,1,2.38-.75c1.43,0,3.08.73,3.08,3.65v5.41c0,.1,0,.16-.16.16h-2.17c-.12,0-.18-.06-.18-.16V11.58c0-1.14-.5-1.71-1.44-1.71a2.48,2.48,0,0,0-1.49.46v6.4Zm14.14-1.88c0,.48,0,.85,0,1.28,0,0,0,.07,0,.09a9.83,9.83,0,0,1-4,.81c-2,0-3.66-.92-3.66-3,0-1.92,1.69-2.93,4.11-2.93a7.69,7.69,0,0,1,1.07,0V11c0-.34-.22-1.14-1.75-1.14a5.71,5.71,0,0,0-2.4.5.1.1,0,0,1-.14,0,.14.14,0,0,1,0-.07V8.41a.16.16,0,0,1,.13-.18,7.07,7.07,0,0,1,2.84-.57,3.42,3.42,0,0,1,3.76,3,2.84,2.84,0,0,1,0,.65v3.51ZM201.87,13a5.43,5.43,0,0,0-.9-.05c-1.28,0-1.82.41-1.82,1.06s.47,1.09,1.6,1.09a3.84,3.84,0,0,0,1.12-.16Zm4-3c0-.63,0-1.57-.07-2,0-.09,0-.14.12-.14h1.9a.2.2,0,0,1,.23.14,2.11,2.11,0,0,1,.15.6,4,4,0,0,1,2.57-.92c1.4,0,3,.73,3,3.64v5.39c0,.11,0,.16-.16.16h-2.16c-.13,0-.18-.05-.18-.16V11.54c0-1.09-.48-1.67-1.42-1.67a2.16,2.16,0,0,0-1.51.57v6.29a.14.14,0,0,1-.16.15h-2.2c-.13,0-.16-.06-.16-.16V10Zm14.33,4.8c2.6.12,3.56,1.17,3.56,2.61,0,1.89-1.85,3.42-4.77,3.42s-4.35-1.52-4.35-2.81c0-.59.48-1.32,1.67-2.32a2.28,2.28,0,0,1-.38-1.37,2.65,2.65,0,0,1,.32-1.19,2.58,2.58,0,0,1-1.24-2.34c0-1.75,1.37-3.12,3.71-3.12a11.12,11.12,0,0,1,1.73.15,1.53,1.53,0,0,0,.43,0h2.49c.08,0,.12,0,.12.13V9.64a.11.11,0,0,1-.12.12c-.27,0-.88,0-1.25-.09a2.4,2.4,0,0,1,.27,1.17c0,1.92-1.58,2.89-3.59,2.89-.2,0-.41,0-.63,0a.94.94,0,0,0,0,.5,1.07,1.07,0,0,0,.2.48Zm-2.56,2a1.85,1.85,0,0,0-.69,1c0,.57.8,1.18,2.22,1.18,1.62,0,2.31-.57,2.31-1.16s-.8-.85-1.81-.91Zm-.2-6.06A1.17,1.17,0,0,0,218.59,12h.17A1.1,1.1,0,0,0,220,11a1.69,1.69,0,0,0,0-.23,1.27,1.27,0,0,0-2.53-.1ZM226.34,13c.09,1,.81,1.89,2.6,1.89a6,6,0,0,0,2.24-.41s.1,0,.1.09V16.3c0,.12,0,.18-.12.21a6.17,6.17,0,0,1-2.78.54,4.25,4.25,0,0,1-4.6-3.87,4.33,4.33,0,0,1,0-.72c0-2.51,1.55-4.78,4.39-4.78A3.69,3.69,0,0,1,232,11.22c0,.13,0,.25,0,.37a5.47,5.47,0,0,1-.08,1.21.17.17,0,0,1-.15.14,16.52,16.52,0,0,1-1.86.07Zm2.36-1.76a5.54,5.54,0,0,0,.91,0v-.13a1.49,1.49,0,0,0-1.52-1.44h0a1.72,1.72,0,0,0-1.74,1.6Z" style="fill: red"/>
      </g>
    </g>
  </g>
</svg>
