<svg id="SXmock_ExportPDF_44_N" xmlns="http://www.w3.org/2000/svg" width="44" height="44" viewBox="0 0 44 44">
  <g id="SLMOCK">
    <rect id="Canvas" width="44" height="44" fill="rgba(255,19,220,0)"/>
  </g>
  <g id="ICONS">
    <path id="Path_600133" data-name="Path 600133" d="M17.5,37h-6A6.508,6.508,0,0,1,5,30.5v-19A6.508,6.508,0,0,1,11.5,5h9.373A4.511,4.511,0,0,1,24.18,6.448a1.56,1.56,0,0,0,.143.136l7.546,6.278A4.485,4.485,0,0,1,33,15.846a1.5,1.5,0,0,0,3,0,7.48,7.48,0,0,0-1.989-5.087,1.56,1.56,0,0,0-.143-.136L26.313,4.337A7.522,7.522,0,0,0,20.873,2H11.5A9.511,9.511,0,0,0,2,11.5v19A9.511,9.511,0,0,0,11.5,40h6a1.5,1.5,0,0,0,0-3Z" fill="#444"/>
    <path id="Path_600134" data-name="Path 600134" d="M16.519,32H10.5a1.5,1.5,0,0,0,0,3h6.019a1.5,1.5,0,0,0,0-3Z" fill="#444"/>
    <path id="Path_600135" data-name="Path 600135" d="M16.68,27H10.5a1.5,1.5,0,0,0,0,3h6.18a1.5,1.5,0,1,0,0-3Z" fill="#444"/>
    <path id="Path_600136" data-name="Path 600136" d="M20.847,17.862a7.115,7.115,0,0,0,4.7,2.08c1.233,0,1.693-.549,1.861-1.011a1.583,1.583,0,0,0-.287-1.551c-.577-.636-1.68-.96-3.279-.96a16.874,16.874,0,0,0-2.648.236,13.374,13.374,0,0,1-1.526-1.83,16.751,16.751,0,0,1-.955-1.525,15.876,15.876,0,0,0,.849-4.4c0-1.346-.519-2.786-1.975-2.786a1.459,1.459,0,0,0-1.219.74c-.621,1.1-.372,3.353.619,5.649-.345,1.055-.721,2.082-1.182,3.22a29.179,29.179,0,0,1-1.337,2.853c-1.485.615-4.643,2.106-4.944,3.753a1.42,1.42,0,0,0,.432,1.313,1.854,1.854,0,0,0,1.286.472c1.9,0,3.8-2.707,5.075-5.036.725-.254,1.466-.484,2.2-.684C19.329,18.177,20.11,18,20.847,17.862Zm2.938-.523a6.826,6.826,0,0,1,1.3.1c.392.083.833.305.723.888a.844.844,0,0,1-.922.591,1.7,1.7,0,0,1-.417-.053,6.714,6.714,0,0,1-2.641-1.374,12.759,12.759,0,0,1,1.954-.155Zm-12.9,5.742a.433.433,0,0,1-.312-.115.477.477,0,0,1-.16-.46c.133-.722,1.52-1.763,3.588-2.712C12.784,21.808,11.587,23.081,10.886,23.081ZM17.149,7.325a.5.5,0,0,1,.42-.28c.461,0,.561.571.561,1.049a13.434,13.434,0,0,1-.6,3.317C16.754,9.306,16.862,7.831,17.149,7.325Zm-.1,10.329c.212-.446.407-.888.577-1.309.224-.555.434-1.11.627-1.654.17.274.345.539.525.8A15.776,15.776,0,0,0,19.894,16.9l-.043.01c-.523.113-1.063.244-1.611.392C17.848,17.412,17.448,17.529,17.049,17.654Z" fill="#444"/>
    <path id="Path_600137" data-name="Path 600137" d="M32,20A12,12,0,1,0,44,32,12,12,0,0,0,32,20Zm0,21a9,9,0,1,1,9-9A9,9,0,0,1,32,41Z" fill="#444"/>
    <path id="Path_600138" data-name="Path 600138" d="M31.439,25.939a1.5,1.5,0,0,0,0,2.121L33.879,30.5H26.5a1.5,1.5,0,0,0,0,3h7.379l-2.439,2.439a1.5,1.5,0,1,0,2.121,2.121l5-5a1.5,1.5,0,0,0,0-2.121l-5-5a1.5,1.5,0,0,0-2.121,0Z" fill="#444"/>
  </g>
</svg>
