<svg id="SX_Visibility_18_N" xmlns="http://www.w3.org/2000/svg" width="18.002" height="18" viewBox="0 0 18.002 18">
  <g id="SMOCK">
    <rect id="Canvas" width="18" height="18" fill="rgba(255,19,220,0)"/>
  </g>
  <g id="ICONS">
    <path id="Path_119905" data-name="Path 119905" d="M8.978,2C5.9,2,2.909,3.858.562,7.234A3.222,3.222,0,0,0,.5,10.762C2.686,14.091,5.775,16,8.978,16s6.317-1.923,8.518-5.274a3.171,3.171,0,0,0-.009-3.454C15.26,3.922,12.158,2,8.978,2Zm6.846,7.628C14,12.406,11.5,14,8.978,14s-5-1.58-6.807-4.336A1.209,1.209,0,0,1,2.2,8.376C4.166,5.554,6.571,4,8.978,4c2.5,0,4.993,1.6,6.843,4.379a1.176,1.176,0,0,1,0,1.249Z"/>
    <path id="Path_119906" data-name="Path 119906" d="M8.99,6a3,3,0,1,0,3,3A3,3,0,0,0,8.99,6Zm0,4a1,1,0,1,1,1-1,1,1,0,0,1-1,1Z"/>
  </g>
</svg>
