<?xml version="1.0"?>
<svg xmlns="http://www.w3.org/2000/svg" width="32" height="32" viewBox="0 0 32 32">
  <g transform="translate(-162 -1046)">
    <g transform="translate(162.129 1046.139)" opacity="0.3">
      <path d="M27.149,6.148a.69.69,0,0,0,.976.976A9.842,9.842,0,1,1,42.044,21.043a.69.69,0,0,0,.976.976A11.223,11.223,0,1,0,27.149,6.148Z" transform="translate(-17.436 0)"/>
      <path d="M3.828,33.67a20.9,20.9,0,0,0,9.41,9.407l.494.245a6.9,6.9,0,0,0,7.929-1.3l.8-.775a2.132,2.132,0,0,0-.582-3.428l-3.839-1.862a2.355,2.355,0,0,0-2.686.455l-.86.86a9.763,9.763,0,0,1-4.854-4.851l.86-.86a2.358,2.358,0,0,0,.455-2.686L9.1,25.032a2.132,2.132,0,0,0-3.439-.582l-.775.8a6.9,6.9,0,0,0-1.3,7.929Zm2.035-7.446.786-.786a.742.742,0,0,1,.53-.221.77.77,0,0,1,.13,0,.745.745,0,0,1,.552.416l1.85,3.839a.976.976,0,0,1-.19,1.1L8.332,31.764a.689.689,0,0,0-.154.742,11.136,11.136,0,0,0,6.216,6.222.689.689,0,0,0,.742-.154l1.189-1.191a.979.979,0,0,1,1.1-.188l3.85,1.842a.753.753,0,0,1,.207,1.211l-.786.786a5.516,5.516,0,0,1-6.343,1.045l-.494-.245a19.512,19.512,0,0,1-8.795-8.775l-.245-.494A5.516,5.516,0,0,1,5.866,26.21Z" transform="translate(0 -15.178)"/>
      <path d="M43.964,31.381a2.027,2.027,0,0,0-2.024,2.024v1.561a.689.689,0,0,0,.689.689H45.3a.689.689,0,0,0,0-1.379h-1.98v-.885a.645.645,0,0,1,.645-.632,2.027,2.027,0,0,0,2.024-2.024V30.5a2.027,2.027,0,0,0-2.024-2.024H42.629a.689.689,0,0,0,0,1.379h1.335a.645.645,0,0,1,.645.645v.232a.645.645,0,0,1-.645.645Z" transform="translate(-28.294 -18.554)"/>
      <path d="M61.829,28.43a.689.689,0,0,0-.689.689v1.812a1.779,1.779,0,0,0,1.776,1.793h1.379v2a.689.689,0,0,0,1.379,0v-5.6a.689.689,0,1,0-1.379,0v2.206H62.916a.4.4,0,0,1-.4-.4V29.119a.689.689,0,0,0-.687-.689Z" transform="translate(-42.199 -18.518)"/>
    </g>
    <path d="M0,0H32V32H0Z" transform="translate(162 1046)" fill="none"/>
  </g>
</svg>
