<?xml version="1.0"?>
<svg xmlns="http://www.w3.org/2000/svg" width="32" height="32" viewBox="0 0 32 32">
  <g transform="translate(-162 -821)">
    <g transform="translate(3295.946 4130.373)" opacity="0.3">
      <path d="M5.227-3.346l-.51-3.029-1.9,3.029ZM4.289,0l.1-.428a4.612,4.612,0,0,0,.94-.149q.337-.1.337-.226a1.214,1.214,0,0,0-.012-.182q-.012-.076-.029-.176L5.332-2.795H2.467q-.141.217-.354.571t-.36.606a2.964,2.964,0,0,0-.261.545,1.029,1.029,0,0,0-.038.188q0,.176.275.29a3.09,3.09,0,0,0,.844.167L2.473,0H-1.02l.1-.428A4.026,4.026,0,0,0-.492-.486,1.488,1.488,0,0,0-.059-.627,2.074,2.074,0,0,0,.4-.961a2.639,2.639,0,0,0,.4-.5Q2-3.287,2.994-4.837L5.3-8.432h1.16q.451,2.625.747,4.342t.519,2.871A.917.917,0,0,0,7.843-.9a.9.9,0,0,0,.272.272,1.034,1.034,0,0,0,.343.141,2.382,2.382,0,0,0,.378.059L8.736,0Zm8.905-.615h-.047Q13-.5,12.807-.363a2.538,2.538,0,0,1-.416.234,3.278,3.278,0,0,1-.5.2A2.183,2.183,0,0,1,11.3.135a2.019,2.019,0,0,1-1.567-.6A2.336,2.336,0,0,1,9.18-2.1a3.918,3.918,0,0,1,.281-1.485,4.136,4.136,0,0,1,.762-1.228,3.538,3.538,0,0,1,1.122-.826,3.174,3.174,0,0,1,1.368-.3,3.521,3.521,0,0,1,.932.111,1.915,1.915,0,0,1,.7.346l1.787-.369.082.094L15.216-1a5.889,5.889,0,0,1-.65,1.761,3.763,3.763,0,0,1-.967,1.1,3.446,3.446,0,0,1-1.175.577,5.034,5.034,0,0,1-1.286.161,5.21,5.21,0,0,1-1.175-.108,2.036,2.036,0,0,1-.694-.278.871.871,0,0,1-.319-.366,1.017,1.017,0,0,1-.085-.4A.88.88,0,0,1,9.1.853.837.837,0,0,1,9.761.586a.98.98,0,0,1,.565.17,1.933,1.933,0,0,1,.437.41,3.149,3.149,0,0,1,.316.5q.146.284.223.46a2.724,2.724,0,0,0,.536-.152,1.325,1.325,0,0,0,.513-.4A3.2,3.2,0,0,0,12.8.8,7.391,7.391,0,0,0,13.194-.615Zm.785-3.838a1.265,1.265,0,0,0-.038-.3.772.772,0,0,0-.149-.3.809.809,0,0,0-.275-.231.977.977,0,0,0-.445-.085,1.067,1.067,0,0,0-.7.272,2.479,2.479,0,0,0-.568.729,4.337,4.337,0,0,0-.381,1.052,5.418,5.418,0,0,0-.141,1.239,2.526,2.526,0,0,0,.05.519,1.225,1.225,0,0,0,.173.425.777.777,0,0,0,.319.281,1.014,1.014,0,0,0,.442.094,1.167,1.167,0,0,0,.589-.176,2.034,2.034,0,0,0,.483-.375Z" transform="translate(-3121.946 -3282.373)"/>
      <path d="M7.453,0H5.572l-.5-1.235H2.43L1.925,0H.044L2.738-6.091h2.03Zm-2.8-2.294L3.762-4.518l-.9,2.224ZM12.277-3.52H11.5a1.128,1.128,0,0,1,.413.883,1.265,1.265,0,0,1-.116.532,1.335,1.335,0,0,1-.343.453,1.81,1.81,0,0,1-.558.323,2.6,2.6,0,0,1-.758.152q-.549.022-.549.294a.173.173,0,0,0,.07.154.559.559,0,0,0,.222.073q.152.024.512.055a4.85,4.85,0,0,1,.76.123A1.492,1.492,0,0,1,11.8-.11a1.043,1.043,0,0,1,.3.8,1.249,1.249,0,0,1-.226.738,1.461,1.461,0,0,1-.732.5,4.071,4.071,0,0,1-1.336.18,3.669,3.669,0,0,1-1.756-.321A.964.964,0,0,1,7.5.936.95.95,0,0,1,7.569.6.866.866,0,0,1,7.876.237,1.475,1.475,0,0,1,8.56,0a.568.568,0,0,1-.272-.222.6.6,0,0,1-.114-.345.8.8,0,0,1,.16-.461.771.771,0,0,1,.521-.294,1.88,1.88,0,0,1-.866-.5,1.278,1.278,0,0,1-.365-.945,1.662,1.662,0,0,1,.169-.769,1.44,1.44,0,0,1,.468-.536,2.108,2.108,0,0,1,.694-.305,3.566,3.566,0,0,1,.866-.1h2.457Zm-1.749.756a.689.689,0,0,0-.231-.543.759.759,0,0,0-.516-.2.712.712,0,0,0-.573.246A.792.792,0,0,0,9-2.747a.714.714,0,0,0,.09.352.693.693,0,0,0,.255.261.75.75,0,0,0,.393.1A.785.785,0,0,0,10.3-2.25.688.688,0,0,0,10.528-2.764Zm.316,3.6a.371.371,0,0,0-.314-.38A2.452,2.452,0,0,0,9.882.369a1.971,1.971,0,0,0-.793.116.388.388,0,0,0-.244.371q0,.5,1.011.5a1.674,1.674,0,0,0,.721-.13A.418.418,0,0,0,10.845.835Z" transform="translate(-3115.946 -3293.373)"/>
      <path d="M5.283.018c.189-.063.153-.3.09-.441L5.346-.5a.212.212,0,0,1-.018-.072L5.283-.7c-.036-.135-.081-.243-.117-.351l-.027-.1a1.278,1.278,0,0,1-.126-.369L4.995-1.6a3.56,3.56,0,0,0-.135-.4l-.027-.081c-.045-.135-.081-.252-.117-.387L4.7-2.556c-.027-.117-.063-.234-.1-.351L4.572-3a3.25,3.25,0,0,1-.153-.414l-.054-.162a.934.934,0,0,0-.036-.09l-.054-.162c-.027-.108-.063-.207-.1-.315l-.027-.081c-.027-.1-.063-.18-.09-.261a.934.934,0,0,1-.036-.09c-.108-.288-.2-.576-.306-.864L3.69-5.517l-.135-.351L3.5-6.021a.691.691,0,0,0-.09-.162.909.909,0,0,0-.117-.144.4.4,0,0,0-.09-.018.2.2,0,0,0-.081-.009H3.042a4.55,4.55,0,0,0-.5.018,1.089,1.089,0,0,1-.171.009.428.428,0,0,0-.279.333l-.027.072a.6.6,0,0,1-.045.171L2-5.67a5.889,5.889,0,0,1-.216.675.353.353,0,0,0-.036.081c-.045.144-.09.3-.126.441l-.027.081a3.576,3.576,0,0,1-.135.441l-.027.09-.108.27L1.3-3.51a2.616,2.616,0,0,1-.108.351l-.027.09-.081.252a.19.19,0,0,0-.036.09L.882-2.25a.457.457,0,0,0-.018.081,3.179,3.179,0,0,1-.135.414L.7-1.665l-.135.459L.54-1.134C.5-1.026.477-.918.45-.81a1.172,1.172,0,0,0-.1.315L.3-.369a.457.457,0,0,1-.018.081.348.348,0,0,0,.027.234.208.208,0,0,0,.063.045L.486.018c.027,0,.036.009.063.009a2.969,2.969,0,0,0,.8-.018.353.353,0,0,0,.081-.036.246.246,0,0,0,.126-.126.934.934,0,0,0,.036-.09l.027-.09a.457.457,0,0,1,.018-.081A.457.457,0,0,1,1.656-.5c.1-.216.117-.45.2-.666l.027-.09h.054a.033.033,0,0,0,.027-.009c.009.009.018.009.036.009h.09c.027,0,.054.009.081.009.261.009.522.027.783.018h.837c.063.207.135.378.207.567l.027.081.063.234.027.081a.514.514,0,0,0,.207.243A.212.212,0,0,0,4.392,0a2.372,2.372,0,0,0,.252.018h.081a2.238,2.238,0,0,0,.486.018Zm-2.745-2.5c-.027,0-.054-.009-.09-.009h-.2c.063-.207.126-.369.189-.576a.457.457,0,0,0,.018-.081.831.831,0,0,1,.081-.225l.027-.081c.036-.108.081-.216.108-.333a.229.229,0,0,0,.018-.063.4.4,0,0,0,.018-.09c.009-.036.018-.063.018-.072A1.674,1.674,0,0,0,2.8-4.3a.615.615,0,0,0,.036.117l.027.081c.1.243.153.486.261.729l.018.072a4.812,4.812,0,0,1,.243.693l.027.1.009.036H3.33A7.751,7.751,0,0,0,2.538-2.484Zm7.7-.279a.924.924,0,0,0,.009-.27.2.2,0,0,0-.009-.081.6.6,0,0,0-.045-.171.234.234,0,0,0-.1-.108.229.229,0,0,0-.063-.018h-.18a.2.2,0,0,0-.081-.009H9.621a1.807,1.807,0,0,1-.441,0,.277.277,0,0,1-.09-.009c-.18-.009-.369-.009-.549-.009a.308.308,0,0,0-.1-.009c-.243-.045-.513.108-.459.378v.09a.2.2,0,0,1,.009.081c.009.171-.009.342,0,.513,0,.063.063.09.126.117l.072.027c.027,0,.045.009.072.009a.2.2,0,0,0,.081.009h.621a1.434,1.434,0,0,1-.225.8l-.045.054-.036.054L8.6-1.269l-.054.036a1.5,1.5,0,0,1-.792.108l-.09-.027a.51.51,0,0,1-.252-.162l-.063-.063a.4.4,0,0,1-.045-.081.9.9,0,0,1-.072-.126,1.442,1.442,0,0,1-.063-.3c0-.027-.009-.054-.009-.081a1.56,1.56,0,0,1-.027-.288c-.009-.135-.018-.243-.018-.36,0-.036-.009-.063-.009-.09S7.1-2.763,7.1-2.8a7.751,7.751,0,0,0,.009-.792c0-.027.009-.054.009-.09,0-.117.009-.225.018-.36a1.635,1.635,0,0,1,.027-.288c0-.027.009-.054.009-.081a1.442,1.442,0,0,1,.063-.3.9.9,0,0,1,.072-.126.4.4,0,0,1,.045-.081l.063-.063a.51.51,0,0,1,.252-.162l.09-.027a1.5,1.5,0,0,1,.792.108l.054.036.054.045a1.124,1.124,0,0,1,.081.108.747.747,0,0,1,.126.234l.018.081a.986.986,0,0,0,.054.234.178.178,0,0,0,.054.1.215.215,0,0,0,.126.045c.036,0,.063,0,.072-.009h.126c.027,0,.063-.009.09-.009h.081c.252-.027.72.117.747-.27v-.063a1.718,1.718,0,0,0-.054-.3L10.161-4.9a1.056,1.056,0,0,0-.126-.369,1.481,1.481,0,0,0-.09-.171,1.3,1.3,0,0,0-.207-.324l-.063-.063a2.107,2.107,0,0,0-.315-.261l-.072-.054A2.639,2.639,0,0,0,8.469-6.4H8.334a4.163,4.163,0,0,0-1.206.117l-.117.045a1.5,1.5,0,0,0-.54.36L6.4-5.8a1.307,1.307,0,0,0-.171.261,2.108,2.108,0,0,0-.171.4,3.115,3.115,0,0,0-.144.711l-.018.171c0,.027-.009.054-.009.081l-.018.243c0,.027-.009.054-.009.081a4.118,4.118,0,0,0-.018.666V-3.1c.027.243.018.468.027.711V-2.3a3.516,3.516,0,0,0,.045.432,3.115,3.115,0,0,0,.144.711,2.108,2.108,0,0,0,.171.4A1.307,1.307,0,0,0,6.4-.5l.072.081a1.5,1.5,0,0,0,.54.36l.117.045A4.163,4.163,0,0,0,8.334.108h.135a2.639,2.639,0,0,0,.819-.261L9.36-.207a2.107,2.107,0,0,0,.315-.261l.063-.063a1.068,1.068,0,0,0,.144-.207l.045-.081a1.614,1.614,0,0,0,.234-.54c0-.027.009-.063.009-.09l.045-.279v-.054a1.1,1.1,0,0,0,.018-.171v-.09c0-.027-.009-.045-.009-.072s0-.063.009-.072a2.921,2.921,0,0,1,0-.486C10.233-2.7,10.242-2.736,10.242-2.763Z" transform="translate(-3131.946 -3287.373)"/>
      <path d="M6.54-8.86a.114.114,0,0,1-.03.15.136.136,0,0,0-.05.15q-.02,0,.04-.06.04.02.01.04t-.01.06q-.04,0-.04-.02t-.04.02a.035.035,0,0,0,.04.04q.04,0,.02.04-.08,0-.1.1a.239.239,0,0,0,0,.14q.04,0,.02-.04a.04.04,0,0,1,.02-.06q.04.04.01.13a.334.334,0,0,1-.07.13.066.066,0,0,1,0-.07.123.123,0,0,0,.02-.07q-.12.06-.07.14t-.05.14q-.02.04.01.04a.068.068,0,0,1,.05.02q-.02.04-.1.04a.391.391,0,0,1,.03.08.047.047,0,0,0,.05.04.149.149,0,0,0-.04.11q0,.07-.08.07a.067.067,0,0,1,.03-.06q.03-.02.01-.08a.259.259,0,0,0-.09.2.91.91,0,0,0,.01.24.233.233,0,0,0-.06.04q-.02.02-.06,0a2.085,2.085,0,0,1-.09.35l-.13.39a.421.421,0,0,1,.07.01.562.562,0,0,0,.11.01.553.553,0,0,1,.2-.09.226.226,0,0,1,.18.01q.08-.04.19-.09a.176.176,0,0,1,.19.01q.14-.04.38-.1a1,1,0,0,1,.44-.02.018.018,0,0,0,.02.02q-.02.06.06.05t.06-.05H7.58q0-.04-.01-.04t-.01-.04q.1-.04.13,0t.13,0q.02.06-.03.04t-.03.04q.04,0,.16-.01a1.283,1.283,0,0,0,.2-.03q0-.04-.01-.04T8.1-6.78a.1.1,0,0,1,.07.08.108.108,0,0,1-.03.1.634.634,0,0,0-.28-.02.389.389,0,0,0-.26.14q.04.04.06-.02t.06-.04v.06q.04.02.03-.04t.05-.04q0,.02-.01.02t-.01.04a.745.745,0,0,0,.35-.05.332.332,0,0,1,.31.01.348.348,0,0,1-.19.03.34.34,0,0,0-.21.05q.02.04.03.01t.05-.01a.23.23,0,0,1-.08.16q.06.04.09.02a.387.387,0,0,1,.11-.04q-.04-.04-.02-.06T8.18-6.4q.02-.06.06-.02t.06-.04a.137.137,0,0,1-.02.16q-.06.06.06.12.04,0,.01-.04t.05-.02a.035.035,0,0,0,.04.04.035.035,0,0,0-.04-.04q0-.02.06-.02.02-.04-.01-.05t.01-.05l.06.06q.04.04.04-.04.04,0,.04.08a.208.208,0,0,0,.16-.02.1.1,0,0,1,.12,0,.308.308,0,0,1-.19.06.2.2,0,0,0-.17.08.032.032,0,0,1,.02-.03.032.032,0,0,0,.02-.03q-.1.02-.24.06a.9.9,0,0,1-.24.04v.08a2.891,2.891,0,0,0,.29-.05.454.454,0,0,1,.25.01.354.354,0,0,0,.11-.06.086.086,0,0,1,.11,0,.336.336,0,0,1-.31.1.272.272,0,0,0-.29.12.535.535,0,0,0-.2.04.155.155,0,0,1-.18-.04q-.04.02-.04.05t-.04.05a1.272,1.272,0,0,0-.34.05q-.18.05-.34.09.04.08.07.03a.069.069,0,0,1,.09-.03q-.02.08-.13.06T7-5.54a.1.1,0,0,0,.12,0,.208.208,0,0,1,.16-.02,1.9,1.9,0,0,1-.74.16.438.438,0,0,1-.29.1.614.614,0,0,0-.31.08q-.04.02-.01.07t-.07.01a.018.018,0,0,1,.02-.02.018.018,0,0,0,.02-.02q0-.04-.03-.02a.1.1,0,0,1-.05.02.035.035,0,0,0,.04.04v.06q-.06,0-.06-.02-.02,0-.02.06a.686.686,0,0,1-.13-.01.214.214,0,0,0-.11.01q0-.02.01-.02t.01-.04a.09.09,0,0,0-.08.03.067.067,0,0,1-.06.03.245.245,0,0,1-.04.19.37.37,0,0,0-.06.21q-.02,0-.02-.01t-.02-.01q-.04.02-.02.08a.378.378,0,0,1,.02.12.032.032,0,0,0-.03.02q-.01.02-.05,0-.04.06-.01.07t.03.07q-.02,0-.02.01t-.04.01q-.02.04,0,.05t.02.05a.041.041,0,0,0-.03.01.041.041,0,0,1-.03.01,2.88,2.88,0,0,1-.16.6,2.813,2.813,0,0,0-.16.64.041.041,0,0,0-.03.01.041.041,0,0,1-.03.01.416.416,0,0,1,.02.16.244.244,0,0,1-.11.09q-.07.03-.03.13-.02,0-.02-.01t-.04-.01q.04.04-.02.12t0,.12a.114.114,0,0,0-.08.14.114.114,0,0,1-.08.14q-.02-.04.01-.06t.01-.06q-.04,0-.06.05T4.3-2.14q-.04.04-.01.07A.055.055,0,0,1,4.3-2q-.1-.04-.08.02a.056.056,0,0,1-.04.08q.02.04.05.01A.055.055,0,0,1,4.3-1.9q-.04.1-.09.08t-.09.08q.08.1,0,.16A.4.4,0,0,0,4-1.44q-.02.06.03.07t.03.05q-.08-.02-.08.05t.04.09a.1.1,0,0,0-.08.1.135.135,0,0,1-.06.12q-.02-.1.02-.12t0-.12q.04-.02.03-.08a.108.108,0,0,1,.03-.1q-.1.02-.06.18a.035.035,0,0,0-.04.04q0,.04-.04.02a.385.385,0,0,1-.02.32q-.08.16-.14.3-.04,0-.02-.06T3.62-.64a.776.776,0,0,0-.04.1.091.091,0,0,0,.02.1q0,.04-.04.02a.04.04,0,0,1-.02-.06.135.135,0,0,0-.06.12A.124.124,0,0,1,3.44-.5q-.02-.04-.04.01a.215.215,0,0,1-.04.07Q3.3-.46,3.33-.49T3.34-.6q-.04.06-.07.05T3.22-.5A.2.2,0,0,1,3.2-.65a.364.364,0,0,0,0-.17,17.376,17.376,0,0,1,.32-1.93q.2-.87.46-1.85a.147.147,0,0,0-.14-.01.335.335,0,0,0-.12.07h.12q0,.04-.05.04a.072.072,0,0,0-.07.04.047.047,0,0,1-.05-.04q-.01-.04-.07-.02-.04.02-.01.05t-.01.05a.242.242,0,0,0-.14.03.751.751,0,0,0-.08.07.389.389,0,0,0-.15-.01q-.07.01-.09.11a.228.228,0,0,0-.2.01.371.371,0,0,1-.2.05q0-.02.01-.02t.01-.04q-.04,0-.05.02t-.05,0a.046.046,0,0,0,.03.05q.03.01-.01.05-.08,0-.05-.04t-.07-.02a.046.046,0,0,0,.03.05q.03.01.01.07A.364.364,0,0,0,2.29-4,.716.716,0,0,1,2-3.9q-.02.04-.04.04t-.04.04a.838.838,0,0,0-.43.1.469.469,0,0,1-.35.06q-.04,0-.02.01t.02.05a.244.244,0,0,0-.18.06.577.577,0,0,0-.31.07.845.845,0,0,0-.2.18q-.09.11-.18.21a.7.7,0,0,1-.21.16q.02.16-.16.2a2.442,2.442,0,0,0-.38-.17.4.4,0,0,1-.26-.29q-.06,0-.06.04a.207.207,0,0,1-.09-.14A.152.152,0,0,0-1-3.4a.341.341,0,0,0,.06-.21.284.284,0,0,1,.08-.21q0-.04-.04-.02t-.06,0q-.02-.04.01-.04t.03-.04A.313.313,0,0,0-1-3.98a.313.313,0,0,1-.08-.06.092.092,0,0,1,.1-.06q0-.04-.06-.04A.21.21,0,0,1-.9-4.27.277.277,0,0,0-.74-4.4a.174.174,0,0,0,.18-.02.293.293,0,0,1,.18-.06q.76-1,1.53-1.98A19.124,19.124,0,0,1,2.82-8.32q.62-.62,1.25-1.23a5.482,5.482,0,0,1,1.47-1.01.27.27,0,0,1,.25.08.479.479,0,0,0,.23.14.747.747,0,0,0,.25.25.577.577,0,0,1,.23.27.177.177,0,0,1,.15.15.193.193,0,0,1-.07.21q.04.04.05,0t.05-.02a.15.15,0,0,0-.02.13.66.66,0,0,0,.04.11.158.158,0,0,0-.1-.02q-.04.04,0,.07t0,.07q-.04.02-.04-.02a.081.081,0,0,1,.02-.06q-.06-.02-.06.04v.1q.06-.06.08,0a.091.091,0,0,1-.02.1q-.06,0-.04-.02t-.02-.06q-.04.02-.02.09a.154.154,0,0,1,0,.11.018.018,0,0,0,.02-.02ZM6.52-9.7h.04v-.04H6.52Zm.08.16a.106.106,0,0,1,0-.09q.02-.05-.04-.03a.178.178,0,0,0-.02.08Q6.54-9.54,6.6-9.54Zm-.02.26q.04.04.05-.03T6.6-9.38A.158.158,0,0,0,6.58-9.28Zm-1.54.46Q5-8.82,5-8.8,5.04-8.8,5.04-8.82Zm1.46.08a.081.081,0,0,0,.02-.06q0-.04-.04-.02Q6.48-8.74,6.5-8.74ZM3.6-5.76q-.02.06.01.03T3.6-5.76a1.2,1.2,0,0,1,.36-.11A1.336,1.336,0,0,0,4.36-6q.22-.7.42-1.34t.42-1.4a6.94,6.94,0,0,0-.89.79q-.43.45-.85.87-.42.44-.82.9t-.76.96q.44-.14.85-.28T3.6-5.76ZM4.88-8.7q-.04,0-.04.02Q4.88-8.68,4.88-8.7Zm-.26.32a.053.053,0,0,0,.06-.06q-.04-.02-.04.01A.068.068,0,0,1,4.62-8.38Zm1.66.08q.04,0,.07-.07t-.03-.07a.067.067,0,0,1-.03.06Q6.26-8.36,6.28-8.3Zm-2.02.26q.04.02.08-.08A.071.071,0,0,0,4.26-8.04Zm-1.04.1q.02.04.03-.01T3.22-7.94Zm.88.06q.02.04.03-.01T4.1-7.88ZM4-7.8q.06,0,.06-.04Q4-7.84,4-7.8Zm2.1.04h.04V-7.8H6.1ZM3.8-7.7a.04.04,0,0,0,.06-.02q.02-.04-.02-.04,0,.04-.02.04A.018.018,0,0,0,3.8-7.7Zm-.08.08q.04.06.03.01T3.72-7.62ZM3.7-7.5q.06,0,.06-.04H3.72q0,.02-.01.02T3.7-7.5Zm-.2.18Zm2.44.08q.02.06.02,0T5.94-7.24Zm-2.62.06q0-.04.05-.02t.01-.04a.055.055,0,0,0-.07.01Q3.28-7.2,3.32-7.18Zm2.74-.04q.02.06.02,0T6.06-7.22Zm-2.82.14q.02-.06.05-.04a.123.123,0,0,0,.07.02q0-.08-.08-.05T3.24-7.08Zm2.66.02q.02.06.02,0T5.9-7.06Zm0,.08h.04v-.04H5.9Zm-2.7.02q.06,0,.06-.04Q3.2-7,3.2-6.96Zm2.38,0q.02.06.02,0T5.58-6.96Zm.26.08q0-.02.03-.02t.01-.04a.04.04,0,0,0-.06.02Q5.8-6.88,5.84-6.88Zm-2.82.12a.12.12,0,0,0-.08.08.071.071,0,0,0,.08-.08h.04V-6.8A.035.035,0,0,0,3.02-6.76ZM5.8-6.78q.02.06.02,0T5.8-6.78Zm.04.1h.04v-.04H5.84Zm-3.66.06q.02.06.02,0T2.18-6.62Zm5.2.04a.073.073,0,0,0,.09-.02q.03-.04.07,0,0-.06-.08-.04T7.38-6.58Zm-.22-.04q-.04,0-.04.02Q7.16-6.6,7.16-6.62Zm.06.04q-.02.06.06.04t.08-.06a.222.222,0,0,0-.07.01A.222.222,0,0,1,7.22-6.58Zm-.14.04q.04,0,.04.01t.04.01q.02-.04-.03-.05T7.08-6.54Zm.52.02q0-.02-.04-.06Q7.52-6.5,7.6-6.52Zm-1-.02q-.02,0-.02-.01t-.02-.01q-.04.04-.01.05T6.6-6.54Zm.28.04a.018.018,0,0,1,.02.02.018.018,0,0,0,.02.02.267.267,0,0,0,.07-.05q.03-.03.07.01,0-.1-.08-.05A.312.312,0,0,1,6.88-6.5Zm.46.06h.1q0-.1-.04-.1Q7.38-6.54,7.34-6.44Zm.16-.08q.02.06.02,0T7.5-6.52Zm-4.82.06a.032.032,0,0,1,.02-.03q.02-.01-.02-.03a.032.032,0,0,1-.02.03Q2.64-6.48,2.68-6.46Zm4.54.06q.04-.04.1,0a.154.154,0,0,1-.02-.06.058.058,0,0,0-.02-.04q.02.08-.04.06T7.22-6.4Zm-.48-.04h.04v-.04H6.74Zm.78,0h.04v-.04H7.52Zm.26.08a.193.193,0,0,1,.28,0,.228.228,0,0,0-.08-.12.388.388,0,0,1-.12.03l-.14.02a.114.114,0,0,0-.08.04q-.02.03.02.09l.06-.06q0,.04.03.04T7.78-6.36ZM5.7-6.44q.02.04.03-.01T5.7-6.44Zm.44,0q.02.06.02,0T6.14-6.44Zm.9.04q.04-.04.05,0t.05.02q0-.06-.07-.07T7.04-6.4ZM5.6-6.42q.02.06.02,0T5.6-6.42Zm.94,0q.02.06.02,0T6.54-6.42Zm.38,0q0,.1.08.1a.091.091,0,0,1-.01-.07q.01-.03-.03-.05Q6.96-6.42,6.92-6.42ZM2.68-6.4Zm3.72,0q.02.06.02,0T6.4-6.4Zm.06.02H6.5v-.04H6.46Zm-.76.02q.06,0,.06-.04Q5.7-6.4,5.7-6.36Zm1.84.1a.2.2,0,0,1-.02-.09q0-.05-.06-.05a.124.124,0,0,1,.04.09Q7.5-6.26,7.54-6.26Zm-1.22-.1q.04.06.03.01T6.32-6.36Zm1.02,0q.02.06.02,0T7.34-6.36Zm.68.08a.091.091,0,0,1-.05-.05.091.091,0,0,0-.05-.05.179.179,0,0,0,.03.09Q7.98-6.24,8.02-6.28ZM6.84-6.34q0,.04.03.01T6.84-6.34Zm1.04,0q.02.06.02,0T7.88-6.34Zm-1.12.02q.02.06.02,0T6.76-6.32Zm.48.02H7.3q0-.04-.06-.04Zm.32-.02q.02.06.02,0T7.56-6.32Zm-1.5.02q.02.04.03-.01T6.06-6.3Zm1.34.06q.06,0,.06-.08-.04-.02-.03.02A.049.049,0,0,1,7.4-6.24Zm.36.02a.133.133,0,0,0,.08-.03q.04-.03,0-.07,0,.04-.05.04T7.76-6.22ZM6.4-6.24a.018.018,0,0,1,.02-.02.035.035,0,0,0-.04-.04Q6.38-6.24,6.4-6.24Zm1.5-.04q.02.06.02,0T7.9-6.28Zm-1.96.02q.02.06.02,0T5.94-6.26Zm1.24,0Zm-4.74.04h.04v-.04H2.44Zm.1-.02q.04.06.03.01T2.54-6.24Zm3.62,0q.02.06.02,0T6.16-6.24Zm1.08.02H7.3q0-.04-.06-.04Zm.12-.02a.018.018,0,0,0-.02-.02.018.018,0,0,0-.02.02.032.032,0,0,1,.03.02Q7.36-6.2,7.36-6.24Zm.34,0q-.06,0-.06.04Q7.7-6.2,7.7-6.24Zm.18.02q.02.06.02,0T7.88-6.22Zm.2.02h.04v-.04H8.08ZM2.4-6.2Zm4.76,0q0-.02-.03-.02T7.1-6.2q-.02.04.03.04T7.16-6.2Zm-.14.02q.02.06.02,0T7.02-6.18Zm.38,0q0,.04.02.04a.018.018,0,0,1,.02-.02.018.018,0,0,0,.02-.02Zm.78,0q.02.06.02,0T8.18-6.18ZM6.1-6.16q.02.06.02,0T6.1-6.16Zm1.92,0q.02.04.03-.01T8.02-6.16Zm.1,0q.02.06.02,0T8.12-6.16Zm-.9.04h.04v-.04H7.22Zm.6.02q0-.04.05-.02t.01-.04a.055.055,0,0,0-.07.01Q7.78-6.12,7.82-6.1ZM6.08-6.12q-.06-.04-.05,0T6.08-6.12Zm1,.02Zm.44.02q-.02.1,0,.02T7.52-6.08Zm.38.06A.078.078,0,0,0,7.99-6q.05-.02.05-.06a.078.078,0,0,0-.09-.02Q7.9-6.06,7.9-6.02ZM6.68-6.04V-6q.04.04.05-.01T6.7-6.06A.018.018,0,0,1,6.68-6.04Zm1.02.02a.157.157,0,0,1-.04.03.157.157,0,0,0-.04.03q.04.04.07.02T7.7-6.02ZM7.54-6q.02.06.02,0T7.54-6Zm-1.12.04v.04h.04a.018.018,0,0,1,.02-.02v-.04H6.44A.018.018,0,0,1,6.42-5.96Zm.92.04a.083.083,0,0,0,.09-.01q.03-.03-.03-.05,0,.04-.05.03T7.34-5.92ZM6.5-5.94q.02.06.02,0T6.5-5.94Zm.58.02h.04v-.04H7.08Zm.48-.02Zm.58-.02H8.06q-.04.08.02.06T8.14-5.96ZM6.3-5.92q.02.06.02,0T6.3-5.92Zm.86.04q.1,0,.1-.06A.092.092,0,0,0,7.16-5.88Zm-1.2,0v.04H6q.04-.04-.02-.06A.018.018,0,0,1,5.96-5.88Zm.16.02h.04V-5.9H6.12Zm-3.92.1-.06-.12v.09Q2.14-5.74,2.2-5.76Zm4.56-.12q-.02.1.02.06T6.76-5.88Zm.22.08A.068.068,0,0,0,7-5.85q0-.03-.04-.03Q6.96-5.8,6.98-5.8Zm-1.1-.04q.02.06.02,0T5.88-5.84Zm.32.02v.04h.04q.04-.04-.02-.06A.018.018,0,0,1,6.2-5.82Zm.58.08a.357.357,0,0,1,.09-.03.062.062,0,0,0,.05-.07.66.66,0,0,1-.11.04Q6.74-5.78,6.78-5.74Zm-4.7,0A.081.081,0,0,0,2.1-5.8q0-.04-.04-.02Q2.06-5.74,2.08-5.74Zm3.56-.02q.04.06.03.01T5.64-5.76Zm.98.04h.04v-.04H6.62ZM2.08-5.7q.02,0,.02.01t.02.01q0-.02.01-.02t.01-.02q-.02,0-.02-.01T2.1-5.74q0,.02-.01.02T2.08-5.7Zm4.62.1q0,.1.03.08t.05.04a.079.079,0,0,1,.1-.01.079.079,0,0,0,.1-.01q-.06-.1.01-.09t.07-.07a.3.3,0,0,0-.15.03.25.25,0,0,1-.13.03q0-.08-.02-.08a.055.055,0,0,0-.01.08Q6.78-5.56,6.7-5.6Zm-4.74,0a.178.178,0,0,1,.08-.02.064.064,0,0,0,.06-.04Q1.96-5.66,1.96-5.6Zm4.68.06h.04v-.04H6.64Zm.02.06H6.7v-.04H6.66Zm-.42.02q.02.06.02,0T6.24-5.46Zm.18.08v-.04q0-.04-.02-.04,0,.02-.06.02a.035.035,0,0,0-.04-.04q0,.06.04.07A.391.391,0,0,1,6.42-5.38Zm-.28.08q.04.04.06-.05t-.04-.07q.02.04-.01.06T6.14-5.3Zm.12-.04a.032.032,0,0,1,.02-.03A.032.032,0,0,0,6.3-5.4a.04.04,0,0,0-.06.02Q6.22-5.34,6.26-5.34Zm-.52,0q.02.06.02,0T5.74-5.34Zm.12.1q0-.02-.04-.06Q5.82-5.24,5.86-5.24ZM5.7-5.2q.06.06.1-.04a.032.032,0,0,1-.03-.02.032.032,0,0,0-.03-.02q0,.04-.03.04T5.7-5.2ZM1.8-5.26q-.04,0-.04.02Q1.8-5.24,1.8-5.26Zm3.74.06q.02.06.02,0T5.54-5.2Zm.08.1q.1,0,.1-.04-.02-.04-.05-.02A.151.151,0,0,0,5.62-5.1Zm.16-.06q-.04,0-.04.02Q5.78-5.14,5.78-5.16ZM3.56-5a.018.018,0,0,0-.02-.02A.018.018,0,0,0,3.52-5a.032.032,0,0,1,.03.02Q3.56-4.96,3.56-5Zm-.72.06q.02.06.02,0T2.84-4.94Zm.64.08q-.04,0-.04.02Q3.48-4.84,3.48-4.86Zm0,.4q.1,0,.08-.04Q3.48-4.5,3.48-4.46Zm-.1.04q.06,0,.06-.04Q3.38-4.46,3.38-4.42Zm-.44,0q.02.06.02,0T2.94-4.42Zm.34.02q.02.06.02,0T3.28-4.4Zm-.12.04H3.12a.018.018,0,0,0-.02.02q-.04.04.03.03T3.16-4.36Zm-.42.04q.02.06.02,0T2.74-4.32Zm.22.04h.08q.04,0,.02-.04h-.1Zm-.12.02q.02.06.02,0T2.84-4.26Zm-.08.02q-.02.1,0,.02T2.76-4.24Zm-.28.14a.032.032,0,0,1,.02-.03q.02-.01-.02-.03a.032.032,0,0,1-.02.03Q2.44-4.12,2.48-4.1Zm-.22.06a.055.055,0,0,0,.07-.01q.03-.03-.01-.05,0,.04-.03.03T2.26-4.04Zm-.34.1H1.88a.018.018,0,0,0-.02.02q-.02.06.04.04T1.92-3.94Zm-.08.02H1.8a.018.018,0,0,0-.02.02q-.02.06.04.04T1.84-3.92Zm-.3.14q.06,0,.06-.04Q1.54-3.82,1.54-3.78Zm3.26.7a.018.018,0,0,0-.02-.02.018.018,0,0,0-.02.02.032.032,0,0,1,.03.02Q4.8-3.04,4.8-3.08Zm-.12.2q.02.04.03-.01T4.68-2.88Zm-.02.08a.032.032,0,0,1,.03.02q.01.02.05,0,.02-.04-.03-.05T4.66-2.8Zm-.32.38q0,.04.02.04a.018.018,0,0,1,.02-.02q0,.06.02.06,0-.04.03-.03t.03-.03q-.04.02-.05,0a.108.108,0,0,0-.05-.04A.018.018,0,0,1,4.34-2.42ZM3.94-1.4l.04-.08q-.04-.02-.06.03T3.94-1.4Zm-.46.7a.538.538,0,0,1,.03-.17A.183.183,0,0,0,3.52-1a.348.348,0,0,0-.07.15Q3.42-.74,3.48-.7Zm.28-.2q.02.06.02,0T3.76-.9Zm-.38.32q.04-.02.04.02t.04.02a.066.066,0,0,1,0-.07q.02-.03-.02-.07a.231.231,0,0,1-.03.05A.231.231,0,0,0,3.38-.58ZM6.54-8.86q0-.06.04-.06v.04a.018.018,0,0,0-.02.02Zm-.1.46q.06.04.01.04T6.44-8.4ZM6.16-7.38q.02-.06.02,0T6.16-7.38ZM6.06-7q.04.02.01.08T6-6.88a.126.126,0,0,0,.03-.05A.549.549,0,0,1,6.06-7Zm2.02.18q-.02.04-.1.04Q7.98-6.82,8.08-6.82Zm-.22.06q.02-.06.02,0T7.86-6.76Zm.82-.02q.02.04-.01.04t-.03.02q-.04,0-.02-.04A.04.04,0,0,1,8.68-6.78Zm-.14.04a.265.265,0,0,1-.15.04H8.2a.15.15,0,0,1,.15-.05Q8.46-6.74,8.54-6.74Zm-.62.02q.02-.06.02,0T7.92-6.72Zm1.32.02h.04v.04H9.24Zm-.16.02h.04q0,.04-.06.04,0-.02.01-.02T9.08-6.68Zm-.14.02q.06,0,.06.04H8.94Zm-.7.04q.02-.06.02,0T8.24-6.62Zm.56-.02q0,.04-.05.04a.2.2,0,0,0-.09.02q0-.04.05-.04A.2.2,0,0,0,8.8-6.64Zm.12,0q0,.04-.06.04Q8.86-6.64,8.92-6.64Zm-.3.04q-.02.04-.05.04a.161.161,0,0,0-.07.02q0,.08.04.08a.064.064,0,0,1-.06.04.115.115,0,0,0-.08.04.055.055,0,0,1-.01-.08.073.073,0,0,1,.09-.02q-.04-.08.02-.12A.1.1,0,0,1,8.62-6.6Zm.02.08q.04-.06.03-.01T8.64-6.52Zm.62.06q.02-.06.02,0T9.26-6.46Zm-.64,0q.06,0,.06.04H8.62Zm-.84.1a.035.035,0,0,1-.04-.04A.035.035,0,0,1,7.78-6.36Zm.36-.04q.04,0,.03.05t-.05.01v-.04A.018.018,0,0,0,8.14-6.4Zm1.06.06q0,.06-.08.06Q9.12-6.42,9.2-6.34Zm-.78,0q.02.04-.03.04t-.05.04q-.04-.04,0-.06A.178.178,0,0,1,8.42-6.34Zm.84.02q0-.02.04-.02Q9.3-6.32,9.26-6.32Zm-.18.06A.116.116,0,0,0,9-6.28q.02-.04.05-.04T9.08-6.26Zm-.16,0q.04-.06.03-.01T8.92-6.26Zm.08.1Zm.1-.02h.04q0,.04-.06.04,0-.02.01-.02T9.1-6.18Zm-.52.24a.2.2,0,0,0-.14.01.249.249,0,0,1-.16.01.928.928,0,0,1,.16-.05Q8.56-6,8.58-5.94ZM8-5.78q.02-.06.02,0T8-5.78Zm-.28.08q-.04,0-.04-.06Q7.72-5.76,7.72-5.7Zm.5-.06a.16.16,0,0,1-.12.07,1.289,1.289,0,0,1-.16.01A1.24,1.24,0,0,1,8.22-5.76Zm-.5.06a.115.115,0,0,0,.08.04,1.061,1.061,0,0,1-.22.06q-.12.02-.26.04-.02-.04,0-.05t.02-.05q.04-.02.03.02a.049.049,0,0,0,.03.06.091.091,0,0,0,.05-.05A.2.2,0,0,1,7.5-5.7q.04.08.06.04a.313.313,0,0,1,.06-.08q.04.02.01.05a.082.082,0,0,0-.03.05A.1.1,0,0,0,7.72-5.7Zm-.8.12q0,.04-.03.03t-.03.03q-.04-.02-.01-.04A.123.123,0,0,1,6.92-5.58Zm.28.12q-.06.06-.09.02T7.2-5.46Zm-.24.04a.115.115,0,0,1-.08.04Q6.88-5.42,6.96-5.42Zm-.22.04q.04.04-.02.04T6.74-5.38Zm-.32.08h.04q0,.04-.06.04,0-.02.01-.02T6.42-5.3Zm-2.48.72q.02.04-.08.04Q3.86-4.58,3.94-4.58ZM4.2-1.76q.04,0,.03.07t-.05.03A.158.158,0,0,1,4.2-1.76ZM3.26-.5H3.3v.04H3.26Zm.16.16q.06,0,.05.08a.193.193,0,0,1-.03.1.391.391,0,0,1-.03-.08A.182.182,0,0,1,3.42-.34Zm.1,0h.04V-.3H3.52Zm7.3-6.02h0a.64.64,0,0,0-.32,0l-.4.08a.148.148,0,0,0-.15-.1H9.74a.126.126,0,0,0,.03-.05q.01-.03.05-.01-.02-.06-.07-.03T9.66-6.5q0-.08.06-.08a.053.053,0,0,0,.06-.06q-.02-.06-.07-.02a.11.11,0,0,1-.11.02.3.3,0,0,0,.12-.1l.08-.12q.02-.04-.01-.04a.068.068,0,0,1-.05-.02.3.3,0,0,1,.19-.05q.09.01.11-.11.08.08.12,0t.08,0q0-.08.12-.08.02.02-.02.08.12,0,.06-.1.04.04.07.01a.267.267,0,0,1,.07-.05q0-.04-.06.01t-.06-.03q.4-.1.82-.17a1.515,1.515,0,0,0,.7-.29q.04-.02.05.01t.05.01q.04.02.03-.03t.03-.05a.12.12,0,0,1,.11.02q.07.04.09-.06.08,0,.02.06a.5.5,0,0,1,.3-.11l.35-.02a1.279,1.279,0,0,0,.3-.05.308.308,0,0,0,.19-.22q.22-.02.26.13a.217.217,0,0,0,.2.17q.12.16.24.3a.746.746,0,0,1,.16.36.8.8,0,0,0,.12.1.156.156,0,0,1,.06.14q-.02,0-.02.06-.02,0-.1.08a.4.4,0,0,0-.29.2.471.471,0,0,1-.29.22,2.22,2.22,0,0,1-.56.5.182.182,0,0,1-.1.1.188.188,0,0,0-.1.12.576.576,0,0,0-.26.19.738.738,0,0,1-.26.21.6.6,0,0,0-.13.13.327.327,0,0,1-.15.11,1.213,1.213,0,0,1-.28.24.807.807,0,0,0-.26.26.369.369,0,0,0-.21.14.369.369,0,0,1-.21.14q-.3.22-.6.46a4.733,4.733,0,0,1-.66.44,1.007,1.007,0,0,1-.33.25,1.252,1.252,0,0,0-.35.25q-.02,0-.02-.01t-.04-.01a3.658,3.658,0,0,1-.8.47,5.967,5.967,0,0,1-.92.31q0-.02.01-.02t.01-.02a.231.231,0,0,1-.22.04.155.155,0,0,0-.18.04,1.456,1.456,0,0,1-.87-.4,3.952,3.952,0,0,1-.55-.72q.04-.06.06.01t.06.03q.02-.06-.04-.07t-.02-.07q-.04-.04-.04,0t-.06.02q-.04-.06-.03-.08a.279.279,0,0,0-.01-.12.2.2,0,0,1-.05-.12.32.32,0,0,0-.05-.14.2.2,0,0,0,.03-.14A1.289,1.289,0,0,1,5.6-4l.04-.08a.18.18,0,0,0,0-.12q.2-.5.39-.93a2.372,2.372,0,0,1,.55-.77.878.878,0,0,0,.06-.15.179.179,0,0,1,.1-.11.123.123,0,0,1,.02-.07.066.066,0,0,0,0-.07.953.953,0,0,0,.22-.21A.689.689,0,0,1,7.2-6.7a3.376,3.376,0,0,1,.62-.8,5.194,5.194,0,0,0,.66-.76q-.02-.06-.06.02t-.04-.02a.686.686,0,0,1,.14-.07q.08-.03.12-.05,0,.08-.05.09a.093.093,0,0,0-.07.07.1.1,0,0,0,.1-.02.1.1,0,0,0,.04-.12.869.869,0,0,0,.27-.27.579.579,0,0,1,.25-.23,4.032,4.032,0,0,1,.41-.47,1.932,1.932,0,0,1,.49-.37,1.165,1.165,0,0,1,.52-.41,1.675,1.675,0,0,0,.56-.37.018.018,0,0,0-.02-.02q-.02,0-.02-.04a.863.863,0,0,1,.46-.08,2.639,2.639,0,0,0,.46,0,.465.465,0,0,1,.07.09q.03.05.09.01.02.14.12.11a.1.1,0,0,1,.14.07q.02.04,0,.04t-.02.04a.5.5,0,0,1,.18.21.657.657,0,0,0,.18.23.26.26,0,0,1-.26.22.7.7,0,0,1-.38-.06.686.686,0,0,1-.14.07l-.18.07q-.42.28-.83.55a3.382,3.382,0,0,0-.73.65q-.6.58-1.15,1.2A13.438,13.438,0,0,0,8.1-5.8a7.122,7.122,0,0,0-.69,1.03A11.3,11.3,0,0,0,6.86-3.6a.1.1,0,0,1,0,.09.164.164,0,0,0-.02.09.146.146,0,0,0-.04.18,5.258,5.258,0,0,0,1.07-.42,9.524,9.524,0,0,0,.94-.57q.45-.31.88-.63t.89-.62q0-.04-.02-.04.16-.1.31-.21A.967.967,0,0,0,11.12-6a.079.079,0,0,0,.12-.04q.04-.08.08-.04.08-.1.16-.19a.452.452,0,0,1,.22-.13q-.06-.1-.23-.03a.594.594,0,0,1-.31.05q-.02-.04,0-.04t-.02-.04a.223.223,0,0,0-.1.02.18.18,0,0,1-.12,0,.465.465,0,0,1-.08.12A.058.058,0,0,1,10.82-6.36Zm.86-4.2q.06,0,.06-.04Q11.72-10.6,11.68-10.56Zm-.5.06h.19a.279.279,0,0,0,.17-.06q-.06,0-.18-.01A.189.189,0,0,0,11.18-10.5Zm.42-.08h-.02l-.02.02Q11.6-10.56,11.6-10.58Zm-.4.12q.04.06.04,0T11.2-10.46Zm-.76.58h-.02l-.02.02Q10.44-9.86,10.44-9.88Zm-.18.1q.04.04.04-.01T10.26-9.78Zm-.02.12h.04V-9.7h-.04Zm-.12.02H10.1l-.02.02Q10.12-9.62,10.12-9.64ZM10-9.48H9.98l-.02.02Q10-9.46,10-9.48Zm-.14.04q.04,0,.02-.01T9.86-9.44Zm-.1.12q.04-.04.04-.06a.04.04,0,0,0-.06.02Q9.72-9.32,9.76-9.32Zm-.08.1a.05.05,0,0,0,.08,0,.05.05,0,0,0,0-.08q0,.04-.03.04T9.68-9.22Zm-.12.14q-.04-.02-.06.03T9.52-9a.115.115,0,0,0,.04-.08.088.088,0,0,0,.1-.1.091.091,0,0,0-.05.05A.091.091,0,0,1,9.56-9.08Zm-.04-.04q.06,0,.06-.04Q9.56-9.16,9.52-9.12Zm-.14.24q.02-.04.04-.04a.058.058,0,0,0,.04-.02.329.329,0,0,1,.01-.08q.01-.04-.03-.04a.081.081,0,0,1-.04.1Q9.34-8.92,9.38-8.88Zm-.2.16v-.04q0-.02-.07.03t-.03.09q.08-.08.1-.08,0,.02-.01.02t-.01.02q.12-.02.12-.12a.018.018,0,0,1-.02-.02q0-.02-.04-.02-.04.04,0,.07T9.18-8.72ZM9-8.52q.08,0,.06-.06-.04-.02-.03.01T9-8.52Zm-.3.26q.04.06.04,0T8.7-8.26Zm-.3.22a.732.732,0,0,0,.12-.14.138.138,0,0,0-.09.05Q8.38-8.08,8.4-8.04Zm.18-.06q.04.06.04,0T8.58-8.1Zm-.04.02q.04.06.04,0T8.54-8.08ZM8.1-7.7q.04.06.04,0T8.1-7.7Zm-.08.08q.04.04.04-.01T8.02-7.62Zm-.04.04q.04.06.04,0T7.98-7.58Zm.16-.02H8.12l-.02.02Q8.14-7.58,8.14-7.6Zm-.2.26q.04.06.04,0T7.94-7.34Zm3.04.06q.04.06.04,0T10.98-7.28Zm-.22.04q.08,0,.08-.04A.115.115,0,0,0,10.76-7.24Zm-.18.06q.04-.04,0-.06Zm.16-.06h-.02l-.02.02Q10.74-7.22,10.74-7.24Zm-3.22.22h.04v-.04H7.52Zm2.34.16q0-.02.04-.04t-.02-.04q.02.02-.02.04T9.86-6.86Zm-.02.18v.04h.04l.02-.02V-6.7H9.86A.018.018,0,0,1,9.84-6.68Zm.2-.02h-.02L10-6.68Q10.04-6.68,10.04-6.7Zm1.28.22a.129.129,0,0,1,.1,0q.06.02.04-.04a.161.161,0,0,1-.07.02A.161.161,0,0,0,11.32-6.48Zm1.94.44q.06,0,.06-.04Q13.3-6.08,13.26-6.04Zm-.62.24h-.02l-.02.02Q12.64-5.78,12.64-5.8ZM11.46-4.78q.02.04.03.02T11.46-4.78Zm-.1.06q.04.06.04,0T11.36-4.72Zm.26.08q.04.06.04,0T11.62-4.64Zm-.48.08q.06,0,.06-.04Q11.18-4.6,11.14-4.56Zm-.34.24q.04.06.04.01T10.8-4.32Zm-.08.08H10.7l-.02.02Q10.72-4.22,10.72-4.24Zm-.28.2q.04.06.04,0T10.44-4.04Zm-.18.14h-.02l-.02.02Q10.26-3.88,10.26-3.9Zm-.1.2h-.02l-.02.02Q10.16-3.68,10.16-3.7Zm-.18.08q.04.04.02.04a.018.018,0,0,1,.02-.02.018.018,0,0,0,.02-.02q-.02,0-.02-.01T9.98-3.62Zm-.06.06q.04.06.04,0T9.92-3.56Zm-.1.1q0-.04.03-.03t.03-.03q-.02-.04-.06,0T9.82-3.46Zm-.1.08a.126.126,0,0,1,.05-.03q.03-.01-.01-.05-.04-.02-.06.03T9.72-3.38Zm-3.82.3q-.06-.04-.05,0T5.9-3.08Zm2.92.22H8.8l-.02.02Q8.82-2.84,8.82-2.86Zm-.34.2q.06,0,.06-.04Q8.48-2.7,8.48-2.66Zm1.86-7.38q.04-.06.04,0T10.34-10.04Zm-.08.02h.04v.04h-.04Zm-.1.12q.06-.04.01.01T10.16-9.9Zm-.1.08q0-.02.02-.01T10.06-9.82Zm0,0q0,.06-.03.03T10.06-9.82Zm-.84.78q.04-.06.04,0T9.22-9.04Zm-.08.1q0-.06.03-.03T9.14-8.94ZM9-8.82q.04-.06.04-.01T9-8.82Zm-.18.22q.04-.06.04,0T8.82-8.6Zm-.04.04a.06.06,0,0,0-.01.06q.01.04-.05.02Q8.72-8.56,8.78-8.56Zm-.14.18q.04,0,.02.02A.018.018,0,0,1,8.64-8.38Zm-.38.28q.04-.14.1-.08Q8.36-8.14,8.26-8.1Zm0,0q-.04.14-.14.14l.07-.07ZM8-7.84q.08.02.03.06T8-7.84Zm-.1.1q.04,0,.03.05t-.03.05q-.04-.02-.02-.04A.081.081,0,0,0,7.9-7.74Zm-.12.12h.06a.081.081,0,0,0-.02.06q0,.04-.06.02A.065.065,0,0,0,7.78-7.62Zm-.04.12q.02.06-.06.1a.055.055,0,0,1-.01-.08A.051.051,0,0,1,7.74-7.5Zm-.14.1q.06.02.04.05t-.08.01Q7.6-7.38,7.6-7.4Zm-.1.1q.08,0,.05.02a.067.067,0,0,0-.03.06Q7.54-7.22,7.5-7.3Zm-.04.08q.06.02.03.06t-.07,0Q7.46-7.2,7.46-7.22ZM7.4-7.1q.04-.06.04,0T7.4-7.1Zm-.08.06a.018.018,0,0,1,.02-.02h.02Q7.36-7.04,7.32-7.04Zm2.36.14a.018.018,0,0,1,.02-.02h.02Q9.72-6.9,9.68-6.9ZM11-6.38q.04-.04.04.01T11-6.38Zm-4.42.34q.04-.06.04,0T6.58-6.04Z" transform="translate(-3128.946 -3295.373)"/>
    </g>
    <path d="M0,0H32V32H0Z" transform="translate(162 821)" fill="none"/>
  </g>
</svg>
