<?xml version="1.0"?>
<svg xmlns="http://www.w3.org/2000/svg" width="32" height="32" viewBox="0 0 32 32">
  <g transform="translate(-162 -761)">
    <g transform="translate(3031.799 3861)" opacity="0.3">
      <g transform="translate(-2873.044 -3092.053)">
        <path d="M24.474,18.694a2.167,2.167,0,0,1-1.79,2.127,18.866,18.866,0,0,0-6.1,2.386,2.228,2.228,0,0,1-2.2,0,19.477,19.477,0,0,0-6.1-2.386A2.167,2.167,0,0,1,6.5,18.694v-7.47A2.167,2.167,0,0,1,8.29,9.1a18.866,18.866,0,0,0,6.1-2.386,2.154,2.154,0,0,1,2.231,0A19.477,19.477,0,0,0,22.71,9.1a2.167,2.167,0,0,1,1.79,2.127v7.47Z" transform="translate(-1.255 -1.236)"/>
        <g transform="translate(7.242 12.141)">
          <path d="M14.278,36.635a.069.069,0,0,1-.078-.078v-.441a.069.069,0,0,1,.078-.078h.363V34.2h-.363a.069.069,0,0,1-.078-.078v-.441a.069.069,0,0,1,.078-.078h1.349a.069.069,0,0,1,.078.078v.441a.069.069,0,0,1-.078.078h-.389v1.841h1.037l.156-.726a.069.069,0,0,1,.078-.078h.259a.069.069,0,0,1,.078.078v1.245c0,.026,0,.078-.078.078Z" transform="translate(-14.2 -33.522)" fill="#fff"/>
          <path d="M28.282,36.464a1.582,1.582,0,1,1,1.582-1.582A1.5,1.5,0,0,1,28.282,36.464Zm0-2.464a.872.872,0,0,0-.96.908.9.9,0,0,0,.96.908.872.872,0,0,0,.96-.908A.884.884,0,0,0,28.282,34Z" transform="translate(-23.458 -33.3)" fill="#fff"/>
          <path d="M43.7,36.412c-.026,0-.026,0-.052-.026l-.13-.337a1.438,1.438,0,0,1-1.063.415A1.457,1.457,0,0,1,41,34.908,1.541,1.541,0,0,1,42.556,33.3a1.245,1.245,0,0,1,.934.389l.026-.285c0-.052.026-.052.052-.052h.363a.056.056,0,0,1,.052.052v.96c0,.052-.026.052-.052.052l-.415.078c-.026,0-.052,0-.078-.052a.986.986,0,0,0-.908-.493.889.889,0,0,0-.934.96.9.9,0,0,0,.96.934.979.979,0,0,0,.882-.493v-.026h-.856a.069.069,0,0,1-.078-.078V34.8a.069.069,0,0,1,.078-.078h1.5c.052,0,.052.026.052.052v.285a.2.2,0,0,1-.052.13c-.052.078-.13.182-.182.259l.337.856c0,.026.026.026.026.052v.026c0,.026,0,.026-.026.026Z" transform="translate(-34.049 -33.3)" fill="#fff"/>
          <path d="M57.282,36.464a1.582,1.582,0,1,1,1.582-1.582A1.471,1.471,0,0,1,57.282,36.464Zm0-2.464a.872.872,0,0,0-.96.908.9.9,0,0,0,.96.908.872.872,0,0,0,.96-.908A.859.859,0,0,0,57.282,34Z" transform="translate(-44.936 -33.3)" fill="#fff"/>
        </g>
      </g>
      <path d="M-2851.891-3095.588v-4.492h-14v16" transform="translate(0.891 2)" fill="none" stroke="#000" stroke-width="1"/>
      <path d="M-2858.8-3084.711v-10.015h19v10.67h-3" transform="translate(-0.201 0.726)" fill="none" stroke="#000" stroke-width="1"/>
      <path d="M-2852.8-3087.711v-7.015h13v12.67h-8" transform="translate(-3.201 5.726)" fill="none" stroke="#000" stroke-width="1"/>
    </g>
    <path d="M0,0H32V32H0Z" transform="translate(162 761)" fill="none"/>
  </g>
</svg>
