<svg xmlns="http://www.w3.org/2000/svg" width="18" height="18" viewBox="0 0 18 18">
  <g id="Group_318120" data-name="Group 318120" transform="translate(-288 -560)">
    <g id="SX_Properties_18_N" transform="translate(288 560)">
      <g id="SMOCK" transform="translate(0 0)">
        <rect id="Canvas" width="18" height="18" fill="rgba(255,19,220,0)"/>
      </g>
      <g id="ICONS" transform="translate(0 0)">
        <path id="Path_119868" data-name="Path 119868" d="M11,9a1,1,0,0,0-1-1H2a1,1,0,0,0,0,2h8a1,1,0,0,0,1-1Z"/>
        <path id="Path_119869" data-name="Path 119869" d="M16,8H14V7a1,1,0,0,0-2,0v4a1,1,0,0,0,2,0V10h2a1,1,0,0,0,0-2Z"/>
        <path id="Path_119870" data-name="Path 119870" d="M2,14a1,1,0,0,0,0,2H6a1,1,0,0,0,0-2Z"/>
        <path id="Path_119871" data-name="Path 119871" d="M6,0A1,1,0,0,0,5,1V5A1,1,0,0,0,7,5V4h9a1,1,0,0,0,0-2H7V1A1,1,0,0,0,6,0Z"/>
        <path id="Path_119872" data-name="Path 119872" d="M9,18a1,1,0,0,0,1-1V16h6a1,1,0,0,0,0-2H10V13a1,1,0,0,0-2,0v4a1,1,0,0,0,1,1Z"/>
        <path id="Path_119873" data-name="Path 119873" d="M2,4H3A1,1,0,0,0,3,2H2A1,1,0,0,0,2,4Z"/>
      </g>
    </g>
  </g>
</svg>
