<svg xmlns="http://www.w3.org/2000/svg" width="25" height="25" viewBox="0 0 25 25">
  <g id="Group_310491" data-name="Group 310491" transform="translate(-2750 -873)">
    <rect id="Canvas" width="25" height="25" transform="translate(2750 873)" fill="rgba(255,19,220,0)"/>
    <path id="Path_127475" data-name="Path 127475" d="M10.852,29.7h5.114a.852.852,0,0,0,0-1.7H10.852a.852.852,0,1,0,0,1.7Z" transform="translate(2745.682 860.909)" fill="#fff"/>
    <path id="Path_127476" data-name="Path 127476" d="M10.852,34.7H22.784a.852.852,0,1,0,0-1.7H10.852a.852.852,0,1,0,0,1.7Z" transform="translate(2745.682 858.75)" fill="#fff"/>
    <path id="Path_127477" data-name="Path 127477" d="M8.4,24.727h10.8a5.4,5.4,0,0,0,5.4-5.4V7.4a5.4,5.4,0,0,0-5.4-5.4H8.4A5.4,5.4,0,0,0,3,7.4V19.33a5.4,5.4,0,0,0,5.4,5.4ZM4.7,7.4A3.7,3.7,0,0,1,8.4,3.7h10.8A3.7,3.7,0,0,1,22.886,7.4V19.33a3.7,3.7,0,0,1-3.693,3.693H8.4A3.7,3.7,0,0,1,4.7,19.33Z" transform="translate(2748.705 872.136)" fill="#fff"/>
    <path id="Path_127478" data-name="Path 127478" d="M13.688,13.934,13.4,15.017a.853.853,0,0,0,.78,1.072l1.119.058.4,1.048a.852.852,0,0,0,1.261.409l.94-.612.94.612a.852.852,0,0,0,1.261-.409l.4-1.048,1.119-.058a.853.853,0,0,0,.78-1.072l-.291-1.083.872-.706a.852.852,0,0,0,0-1.325l-.872-.706.291-1.083a.853.853,0,0,0-.78-1.072L20.5,8.985l-.4-1.048a.852.852,0,0,0-1.261-.409l-.94.612-.94-.612a.852.852,0,0,0-1.261.409l-.4,1.048-1.119.058a.853.853,0,0,0-.78,1.072l.291,1.083-.872.706a.852.852,0,0,0,0,1.325Zm1.5-1.76a.853.853,0,0,0,.287-.883l-.161-.6.621-.032a.853.853,0,0,0,.752-.547l.221-.58.521.339a.852.852,0,0,0,.93,0l.521-.339.221.58a.853.853,0,0,0,.752.547l.621.032-.161.6a.853.853,0,0,0,.287.883l.484.392-.484.392a.853.853,0,0,0-.287.883l.161.6-.621.032a.853.853,0,0,0-.752.547l-.221.58-.521-.339a.852.852,0,0,0-.93,0l-.521.339-.221-.58a.853.853,0,0,0-.752-.547l-.621-.032.161-.6a.853.853,0,0,0-.287-.883l-.484-.392Z" transform="translate(2744.602 869.809)" fill="#fff"/>
  </g>
</svg>
