<svg xmlns="http://www.w3.org/2000/svg" width="22" height="22" viewBox="0 0 22 22">
  <g id="Group_377126" data-name="Group 377126" transform="translate(12042.28 18803.67)">
    <g id="SXmock_Flyer_22_N" transform="translate(-12031.28 -18792.67)">
      <g id="SXmock_Flyer_22_N-2" data-name="SXmock_Flyer_22_N" transform="translate(-11 -11)">
        <rect id="Canvas" width="22" height="22" fill="#ff13dc" opacity="0"/>
        <path id="Path_968349" data-name="Path 968349" d="M15,0H7A5.006,5.006,0,0,0,2,5V17a5.006,5.006,0,0,0,5,5h8a5.006,5.006,0,0,0,5-5V5a5.006,5.006,0,0,0-5-5Zm3,17a3,3,0,0,1-3,3H7a3,3,0,0,1-3-3V5A3,3,0,0,1,7,2h8a3,3,0,0,1,3,3Z" fill="#444"/>
        <path id="Path_968350" data-name="Path 968350" d="M7,15h4a1,1,0,0,0,0-2H7a1,1,0,0,0,0,2Z" fill="#444"/>
        <path id="Path_968351" data-name="Path 968351" d="M14,16H7a1,1,0,0,0,0,2h7a1,1,0,0,0,0-2Z" fill="#444"/>
        <path id="Path_968352" data-name="Path 968352" d="M14.12,5.942l.216-.836a.682.682,0,0,0-.1-.558.625.625,0,0,0-.478-.271l-.829-.044-.3-.81a.645.645,0,0,0-.395-.391A.607.607,0,0,0,12.042,3a.615.615,0,0,0-.345.106L11,3.58l-.7-.474a.615.615,0,0,0-.54-.074.645.645,0,0,0-.395.391l-.3.81-.829.044a.625.625,0,0,0-.478.271.682.682,0,0,0-.1.558l.216.836-.646.546a.676.676,0,0,0,0,1.024l.646.545-.216.837a.681.681,0,0,0,.1.558.624.624,0,0,0,.478.271l.829.044.3.81a.643.643,0,0,0,.395.391.606.606,0,0,0,.54-.074l.7-.473.7.473a.616.616,0,0,0,.345.107.609.609,0,0,0,.195-.033.643.643,0,0,0,.395-.391l.3-.81.829-.044a.624.624,0,0,0,.478-.271.681.681,0,0,0,.1-.558l-.216-.837.646-.545a.676.676,0,0,0,0-1.024ZM11,8.5A1.5,1.5,0,1,1,12.5,7,1.5,1.5,0,0,1,11,8.5Z" fill="#444"/>
      </g>
    </g>
  </g>
</svg>
