<svg id="SX_Template_22_N" xmlns="http://www.w3.org/2000/svg" width="30.138" height="30.127" viewBox="0 0 30.138 30.127">
  <g id="SMOCK">
    <rect id="Canvas" width="30" height="30" fill="rgba(255,19,220,0)"/>
  </g>
  <g id="ICONS" transform="translate(1.364 1.364)">
    <path id="Path_125901" data-name="Path 125901" d="M27.365,16.385l-.136-.057.8-1.87a3.27,3.27,0,0,0-2.485-4.525V7.818A6.826,6.826,0,0,0,18.727,1H11.441A4.058,4.058,0,0,0,8.549,2.2L2.2,8.549A4.072,4.072,0,0,0,1,11.441V21.455a6.826,6.826,0,0,0,6.818,6.818h9.545a1.364,1.364,0,0,0,.532-.108,3.3,3.3,0,0,0,5.22.36L28.7,22.252a3.7,3.7,0,0,0-1.335-5.872ZM10.477,4.127c.019-.02.048-.027.068-.046v5.1a1.364,1.364,0,0,1-1.364,1.364H4.08c.019-.022.026-.049.046-.07ZM3.727,21.455V13.273H9.182a4.091,4.091,0,0,0,4.091-4.091V3.727h5.455a4.091,4.091,0,0,1,4.091,4.091v2.727a1.126,1.126,0,0,0,.027.136,3.341,3.341,0,0,0-.326.3L16.938,17.25a3.7,3.7,0,0,0,1.332,5.864l.136.059-.8,1.87a3.245,3.245,0,0,0-.153.521c-.031,0-.057-.018-.09-.018H7.818A4.091,4.091,0,0,1,3.727,21.455Zm22.936-1.012-5.591,6.273a.575.575,0,0,1-.967-.595L22,21.727,19.335,20.6a.971.971,0,0,1-.357-1.545l5.591-6.273a.565.565,0,0,1,.425-.2.571.571,0,0,1,.545.792l-1.9,4.391L26.3,18.895a.972.972,0,0,1,.363,1.548Z" transform="translate(-1 -1)" stroke="#000" stroke-width="0.25"/>
  </g>
</svg>
