<?xml version="1.0" encoding="utf-8"?>
<!-- Generator: Adobe Illustrator 27.3.1, SVG Export Plug-In . SVG Version: 6.00 Build 0)  -->
<svg version="1.1" id="Layer_1" xmlns="http://www.w3.org/2000/svg" xmlns:xlink="http://www.w3.org/1999/xlink" x="0px" y="0px"
	 viewBox="0 0 1200 400" style="enable-background:new 0 0 1200 400;" xml:space="preserve">
<style type="text/css">
	.st0{fill:#070705;}
	.st1{fill:#FFFFFF;}
	.st2{clip-path:url(#SVGID_00000027574451902412781820000014219995835768168626_);}
	.st3{clip-path:url(#SVGID_00000003793896931283811880000013192309148460652676_);}
</style>
<path class="st0" d="M1148,2.2h-89.5h-2.1H52.2c-28.7,0-52,23.3-52,52v79.6H0v212.3c0,28.7,23.3,52,52,52h1004.4l0,0h91.5
	c28.7,0,52-23.3,52-52l0,0V144.6h0.1V54.2C1200,25.4,1176.7,2.2,1148,2.2z"/>
<polygon class="st1" points="855,145.1 856.1,203.1 855.7,203.1 838.7,145.1 811.2,145.1 811.2,218.3 829.4,218.3 828.4,158.2 
	828.8,158.2 847,218.3 873.4,218.3 873.4,145.1 "/>
<polygon class="st1" points="506.9,145.1 493.2,219 513.2,219 523.3,151.9 523.7,151.9 533.5,219 553.4,219 539.8,145.1 "/>
<polygon class="st1" points="618.6,145.1 609.5,201.6 609.1,201.6 600,145.1 569.8,145.1 568.2,219 586.7,219 587.2,152.6 
	587.6,152.6 599.9,219 618.7,219 631,152.6 631.5,152.6 631.9,219 650.4,219 648.8,145.1 "/>
<path class="st1" d="M462,198.2c0.6,1.8,0.6,3.7,0.1,5.5c-0.6,2.5-2.3,5-7.2,5c-4.6,0-7.4-2.7-7.4-6.7v-7.2h-19.8v5.7
	c0,16.5,13,21.5,26.9,21.5c13.4,0,24.4-4.6,26.1-16.9c0.7-4,0.6-8.1-0.1-12.1c-3.1-15.5-31.2-20.1-33.3-28.8
	c-0.3-1.3-0.3-2.6-0.1-3.9c0.5-2.4,2.1-5,6.8-5c4.3,0,6.9,2.7,6.9,6.7v4.6h18.5v-5.2c0-16.1-14.5-18.6-25-18.6
	c-13.1,0-23.9,4.4-25.9,16.4c-0.6,3.3-0.5,6.7,0.2,10C431.9,184.2,458.2,188.6,462,198.2"/>
<path class="st1" d="M702.5,198c0.6,1.8,0.6,3.6,0.1,5.4c-0.6,2.4-2.2,4.9-7.1,4.9c-4.6,0-7.4-2.6-7.4-6.6v-7.1h-19.7v5.6
	c0,16.3,12.9,21.3,26.6,21.3c13.2,0,24.1-4.5,25.9-16.7c0.6-4,0.6-8-0.1-12c-3.1-15.3-30.9-19.9-33-28.5c-0.3-1.3-0.3-2.6-0.1-3.8
	c0.5-2.4,2.1-4.9,6.7-4.9c4.3,0,6.8,2.6,6.8,6.6v4.5h18.3v-5.1c0-15.9-14.3-18.4-24.7-18.4c-13,0-23.7,4.3-25.6,16.2
	c-0.6,3.3-0.5,6.6,0.2,9.9C672.7,184.2,698.7,188.5,702.5,198"/>
<path class="st1" d="M764.6,208c5.1,0,6.7-3.5,7.1-5.4c0.1-0.9,0.2-1.9,0.2-2.8V145h18.7v53c0,1.4-0.1,4.1-0.2,4.9
	c-1.3,13.8-12.2,18.3-25.8,18.3s-24.5-4.5-25.8-18.3c-0.1-0.7-0.2-3.5-0.2-4.9v-53h18.7v54.7c0,0.9,0,1.9,0.2,2.8
	C757.9,204.4,759.5,208,764.6,208"/>
<path class="st1" d="M918.9,207.2c5.4,0,7.2-3.4,7.6-5.4c0.1-0.9,0.2-1.9,0.2-2.8v-10.7H919v-10.8h26.2v19.8c0,1.6-0.1,3.3-0.3,4.9
	c-1.2,13.5-12.9,18.3-26,18.3s-24.8-4.8-26-18.3c-0.2-1.6-0.3-3.2-0.3-4.9v-31.1c0-1.3,0.2-3.6,0.3-4.9c1.7-13.8,12.8-18.3,26-18.3
	s24.6,4.4,26,18.3c0.1,1.6,0.2,3.2,0.2,4.9v2.5h-18.7v-4.1c0-0.9-0.1-1.9-0.2-2.8c-0.3-1.6-1.7-5.4-7.4-5.4c-5.4,0-7,3.5-7.4,5.4
	c-0.2,1.2-0.3,2.3-0.3,3.5V199c0,0.9,0,1.9,0.2,2.8C911.6,203.8,913.5,207.2,918.9,207.2"/>
<path class="st1" d="M423,295.1c0-22.6,17.1-40.8,40.6-40.8c16.4,0,29.4,8.4,36.1,20.3l-13,7.8c-4.9-9-12.5-13.8-23-13.8
	c-14.8,0-26,12-26,26.4c0,14.7,11.1,26.4,26.5,26.4c11.9,0,20.1-6.7,23-17.2h-25.3v-14.1h41.2v5.9c0,21.4-15.1,39.8-38.8,39.8
	C439.5,335.9,423,317.1,423,295.1z"/>
<path class="st1" d="M509.8,303.1c0-21.1,15.4-33.2,31.5-33.2c8.4,0,15.9,3.5,20.5,8.9v-7.6h14.7v63.6h-14.7v-8.3
	c-5.1,6.2-12.7,9.7-20.7,9.6C525.8,336.2,509.8,323.9,509.8,303.1z M562.6,302.9c0-10.8-8.2-19.6-19-19.6s-19.2,8.6-19.2,19.6
	s8.4,19.8,19.2,19.8S562.6,313.9,562.6,302.9z"/>
<path class="st1" d="M585.9,254.4h14.8v80.5h-14.8V254.4z"/>
<path class="st1" d="M608.2,303.1c0-21.1,15.5-33.2,31.5-33.2c8.4,0,15.9,3.5,20.5,8.9v-7.6h14.7v63.6h-14.7v-8.3
	c-5.1,6.2-12.7,9.7-20.7,9.6C624.2,336.2,608.2,323.9,608.2,303.1z M661,302.9c0-10.8-8.2-19.6-19-19.6s-19.3,8.6-19.3,19.6
	s8.4,19.8,19.3,19.8S661,313.9,661,302.9L661,302.9z"/>
<path class="st1" d="M703.5,302.4l-23.1-31.2h18l14.5,20.2l14.4-20.2h17.4l-22.8,31.4l24.4,32.2h-17.9l-15.5-21.2l-15.1,21.2h-18
	L703.5,302.4z"/>
<path class="st1" d="M773.7,331.7l-26.1-60.5h15.7l17.7,42.9l16.8-42.9h15.4l-38,93h-14.9L773.7,331.7z"/>
<path class="st1" d="M843.2,321.7l13.5-10.7c4,6.9,10.2,10.8,17.4,10.8c7.8,0,12.1-5.1,12.1-10.7c0-6.7-8-8.8-16.5-11.4
	c-10.7-3.4-22.5-7.5-22.5-22.6c0-12.7,11.1-22.7,26.3-22.7c12.8,0,20.2,4.9,26.7,11.5l-12.1,9.3c-3.1-4.9-8.6-7.8-14.4-7.6
	c-7.2,0-11.1,3.9-11.1,9c0,6.3,7.6,8.4,16.2,11.2c10.8,3.5,23,8.3,23,23.5c0,12.5-10,24.7-27.4,24.7
	C859.9,335.9,850.4,329.9,843.2,321.7z"/>
<path class="st1" d="M902.9,271.2h10.9v-9.7l14.8-10.1v19.8h12.9v13.2h-12.9v23.8c0,11.1,1.5,12.8,12.9,12.8v13.8h-2.1
	c-19.7,0-25.7-6.3-25.7-26.5v-23.9h-10.9L902.9,271.2L902.9,271.2z"/>
<path class="st1" d="M945.4,303.1c0-18.2,14.8-33,33.1-32.9s33,14.8,32.9,33.1c0,18.2-14.8,32.9-33,32.9
	c-18.1,0.1-32.9-14.6-33-32.7C945.4,303.3,945.4,303.2,945.4,303.1z M996.8,303.1c0-10.7-8.2-19.4-18.5-19.4
	c-10.5,0-18.5,8.7-18.5,19.4s8,19.2,18.5,19.2C988.7,322.3,996.8,313.6,996.8,303.1z"/>
<path class="st1" d="M1018.8,271.2h14.6v9.5c2.9-6.3,8.3-9.5,16.3-9.5c3.9-0.1,7.8,0.9,11.2,2.7l-5.5,13.9c-2.6-1.7-5.7-2.6-8.8-2.5
	c-8.5,0-13,4.6-13,15.6v33.9h-14.7L1018.8,271.2z"/>
<path class="st1" d="M1062.5,303.2c-0.3-18.1,14.2-33,32.4-33.3c0.2,0,0.5,0,0.7,0c18.9,0,32.7,13.9,32.7,32.7v5.5h-51.8
	c2,8.9,9.1,15,19.6,15c7.6,0.2,14.6-4.2,17.6-11.2l12.1,7c-5.6,10.2-15.6,17.2-29.7,17.2C1076.1,336.2,1062.5,321.6,1062.5,303.2z
	 M1077.3,295.9h36.1c-2.2-8.5-8.7-13.1-17.8-13.1C1087.3,282.7,1079.9,288,1077.3,295.9z"/>
<path class="st1" d="M445.9,54.5h6.6L470,102h-6.6l-4-10.9h-20.6l-4,10.9h-6.6L445.9,54.5z M441.1,85.1h16.2l-8.1-22L441.1,85.1z"/>
<path class="st1" d="M469,63.9h6.7l11.4,30l11.3-30h6.6L490.1,102h-6.2L469,63.9z"/>
<path class="st1" d="M508.5,83c0-11.4,8.6-19.9,19.4-19.9c5.5,0,10.8,2.6,14,7.1v-6.3h6.1V102h-6.1v-6.4c-1.5,2.3-3.7,4.2-6.2,5.3
	c-2.4,1.2-5.1,1.9-7.8,1.9c-10.7,0-19.4-8.7-19.4-19.4C508.5,83.3,508.5,83.1,508.5,83z M542.4,82.9c-0.2-7.6-6.5-13.7-14.1-13.5
	s-13.7,6.5-13.5,14.1c0.2,7.5,6.3,13.4,13.7,13.5c7.7,0,13.9-6.2,13.9-13.9C542.4,83.1,542.4,83,542.4,82.9L542.4,82.9z"/>
<path class="st1" d="M560.1,50.2c2.9,0,4.5,1.8,4.5,4.4c0,2.5-2,4.5-4.5,4.5s-4.4-2-4.5-4.5c-0.1-2.3,1.6-4.2,3.9-4.4
	C559.8,50.2,560,50.2,560.1,50.2z M557,63.9h6.2V102H557V63.9z"/>
<path class="st1" d="M572.6,53.8h6.2V102h-6.2V53.8z"/>
<path class="st1" d="M586.5,83c0-11.4,8.6-19.9,19.4-19.9c5.5,0,10.8,2.6,14,7.1v-6.3h6.1V102h-6.1v-6.4c-1.5,2.3-3.7,4.2-6.2,5.3
	c-2.4,1.2-5.1,1.9-7.8,1.9c-10.7,0-19.4-8.6-19.4-19.4C586.4,83.3,586.4,83.1,586.5,83z M620.3,82.9c-0.2-7.6-6.5-13.7-14.1-13.5
	s-13.7,6.5-13.5,14.1c0.2,7.5,6.3,13.4,13.7,13.5c7.7,0,13.9-6.2,13.9-13.9C620.3,83.1,620.3,83,620.3,82.9z"/>
<path class="st1" d="M641,95.6v6.4h-6V53.8h6.1v16.4c3.2-4.5,8.4-7.1,13.9-7.1c10.9,0,19.4,8.5,19.4,19.9
	c0.2,10.7-8.2,19.6-18.9,19.8c-0.1,0-0.3,0-0.4,0C649.5,102.9,644.2,100.2,641,95.6z M668.2,82.9c0.2-7.6-5.8-13.9-13.4-14.1
	c-7.6-0.2-13.9,5.8-14.1,13.4c0,0.2,0,0.5,0,0.7c0,7.9,5.9,14.1,13.9,14.1C662.2,97.1,668.2,90.8,668.2,82.9L668.2,82.9z"/>
<path class="st1" d="M681.9,53.8h6.2V102h-6.2V53.8z"/>
<path class="st1" d="M695.8,83.2c0-11.3,8.5-20.1,19.8-20.1c11.1,0,19.5,7.9,19.5,19.3V85h-33.3c0.8,7.2,6.4,12.2,14.1,12.2
	c5.5,0.2,10.5-3,12.7-8.1l5.3,2.8c-3.5,6.8-9.2,10.8-18,10.8C703.7,102.8,695.8,94.3,695.8,83.2z M702.1,79.6h26.6
	c-1.1-6.8-5.9-10.9-13.2-10.9C709,68.6,703.4,73.2,702.1,79.6z"/>
<path class="st1" d="M758.1,83c0-10.9,8.9-19.8,19.8-19.7c10.9,0,19.8,8.9,19.7,19.8c0,10.9-8.9,19.8-19.8,19.7l0,0
	c-10.8,0.1-19.7-8.7-19.7-19.5C758.1,83.2,758.1,83.1,758.1,83z M791.4,83c0.2-7.6-5.8-13.9-13.5-14.1c-0.1,0-0.1,0-0.2,0
	c-7.5,0-13.5,6.3-13.5,14.1s5.9,14.1,13.5,14.1c7.6-0.1,13.7-6.3,13.6-14C791.4,83.1,791.4,83,791.4,83z"/>
<path class="st1" d="M805.2,63.9h6.1v5.9c2.9-4.3,7.7-6.8,12.9-6.7c10,0,16.2,6.5,16.2,17.3V102h-6.3V80.7c0-7.4-3.6-12-11.1-12
	c-6.7,0-11.7,5.2-11.7,12.2V102h-6.2L805.2,63.9L805.2,63.9z"/>
<g>
	<g>
		<defs>
			<path id="SVGID_1_" d="M358.8,156.9c-3.6-26.9-13.1-51.3-29.9-69.1l0,0C311,71,286.7,61.5,259.8,57.9
				c-25.7-3.4-43.2-2.6-43.2-2.6s-17.5-0.8-43.2,2.6c-26.9,3.6-51.3,13.1-69.1,29.9l0,0C87.5,105.6,78,130,74.4,156.9
				c-3.4,25.7-2.6,43.2-2.6,43.2s-0.8,17.5,2.6,43.2c3.6,26.9,13.1,51.3,29.9,69.1l0,0c17.8,16.8,42.2,26.3,69.1,29.9
				c25.7,3.4,43.2,2.6,43.2,2.6s17.5,0.8,43.2-2.6c26.9-3.6,51.3-13.1,69.1-29.9l0,0c16.8-17.9,26.3-42.2,29.9-69.1
				c3.4-25.7,2.6-43.2,2.6-43.2S362.2,182.6,358.8,156.9z"/>
		</defs>
		<clipPath id="SVGID_00000175292883302874750990000015165192093303317423_">
			<use xlink:href="#SVGID_1_"  style="overflow:visible;"/>
		</clipPath>
		<g style="clip-path:url(#SVGID_00000175292883302874750990000015165192093303317423_);">
			<g>
				<g>
					<defs>
						<rect id="SVGID_00000043416877257077799760000016025746083462808730_" x="69.2" y="52.7" width="294.8" height="294.8"/>
					</defs>
					<clipPath id="SVGID_00000178916048064532982670000007322743624343920003_">
						<use xlink:href="#SVGID_00000043416877257077799760000016025746083462808730_"  style="overflow:visible;"/>
					</clipPath>
					<g style="clip-path:url(#SVGID_00000178916048064532982670000007322743624343920003_);">
						
							<image style="overflow:visible;enable-background:new    ;" width="362" height="362" xlink:href="510D75A8C925FFA6.png"  transform="matrix(0.8154 0 0 0.8154 69.2 52.73)">
						</image>
					</g>
				</g>
			</g>
		</g>
	</g>
</g>
</svg>
