<svg id="SX_IlluGraphic_44_N" xmlns="http://www.w3.org/2000/svg" width="44" height="44" viewBox="0 0 44 44">
  <g id="SLMOCK">
    <rect id="Canvas" width="44" height="44" fill="rgba(255,19,220,0)"/>
  </g>
  <g id="Illu">
    <path id="Path_127464" data-name="Path 127464" d="M38.5,15H25V3.5a1.5,1.5,0,0,0-2.656-.955l-19,23A1.5,1.5,0,0,0,4.5,28h7.113a10.485,10.485,0,0,0,18.815,9H38.5A1.5,1.5,0,0,0,40,35.5v-19A1.5,1.5,0,0,0,38.5,15ZM7.685,25,22,7.671V15H19.5A1.5,1.5,0,0,0,18,16.5v4.555a1.488,1.488,0,0,0,.1.522A10.526,10.526,0,0,0,13.27,25ZM21.5,39A7.5,7.5,0,1,1,29,31.5,7.5,7.5,0,0,1,21.5,39ZM37,34H31.687A10.459,10.459,0,0,0,21.5,21c-.169,0-.333.017-.5.025V18H37Z" fill="#484848"/>
  </g>
</svg>
