<svg xmlns="http://www.w3.org/2000/svg" width="16.75" height="16.5" viewBox="0 0 16.75 16.5">
  <path id="SX_ListView_18_N" d="M16,4H7A1,1,0,0,1,7,2h9a1,1,0,0,1,0,2Zm1,5a1,1,0,0,0-1-1H7a1,1,0,0,0,0,2h9A1,1,0,0,0,17,9Zm0,6a1,1,0,0,0-1-1H7a1,1,0,0,0,0,2h9A1,1,0,0,0,17,15ZM2.75.5h-.5a2,2,0,0,0-2,2V3a2,2,0,0,0,2,2h.5a2,2,0,0,0,2-2V2.5A2,2,0,0,0,2.75.5Zm0,6h-.5a2,2,0,0,0-2,2V9a2,2,0,0,0,2,2h.5a2,2,0,0,0,2-2V8.5A2,2,0,0,0,2.75,6.5Zm0,6h-.5a2,2,0,0,0-2,2V15a2,2,0,0,0,2,2h.5a2,2,0,0,0,2-2v-.5A2,2,0,0,0,2.75,12.5Z" transform="translate(-0.25 -0.5)" fill="#7777fa"/>
</svg>
