<svg xmlns="http://www.w3.org/2000/svg" width="18" height="16.923" viewBox="0 0 18 16.923">
  <path id="SX_Upload_18_N" d="M1.567,13.325a1,1,0,0,1-.756-.345A3.558,3.558,0,0,1,0,10.639,3.135,3.135,0,0,1,1.758,7.685a3.976,3.976,0,0,1,.823-2.713A3.889,3.889,0,0,1,5.609,3.482a.7.7,0,0,1,.294.011A4.7,4.7,0,0,1,10.145.732,4.739,4.739,0,0,1,13.7,2.081a4.568,4.568,0,0,1,1.367,3.213C16.8,5.7,18,7.454,18,9.712a4.3,4.3,0,0,1-1.388,3.329,1,1,0,0,1-1.311-1.51A2.32,2.32,0,0,0,16,9.712c0-1.434-.676-2.464-1.644-2.5a2.741,2.741,0,0,0-.277,0l-1.245.106L13,6.073a5.835,5.835,0,0,0,.067-.7,2.584,2.584,0,0,0-.815-1.918,2.79,2.79,0,0,0-2.012-.729,2.7,2.7,0,0,0-2.7,2.131L7.295,5.888l-1.013-.3a2.5,2.5,0,0,0-.734-.1A1.793,1.793,0,0,0,4.161,6.2a2.128,2.128,0,0,0-.3,1.976l.36,1.272H2.9c-.521,0-.9.5-.9,1.192a1.568,1.568,0,0,0,.323,1.031,1,1,0,0,1-.756,1.655Zm11.64-1.532-3.5-3.5a1,1,0,0,0-1.414,0l-3.5,3.5a1,1,0,0,0,1.414,1.414L8,11.414v5.232a1,1,0,0,0,2,0V11.414l1.793,1.793a1,1,0,1,0,1.414-1.414Z" transform="translate(0 -0.724)" fill="#fff"/>
</svg>
