<svg xmlns="http://www.w3.org/2000/svg" width="17.47" height="18.218" viewBox="0 0 17.47 18.218">
  <g id="Group_329516" data-name="Group 329516" transform="translate(-6104.632 -1162.698)">
    <path id="Path_129480" data-name="Path 129480" d="M19.416,16.33a.38.38,0,0,0-.1-.25.671.671,0,0,0-.436-.17c-.081,0-.113,0-.4.17a19.684,19.684,0,0,0-2.8,1.964c-.048,0-.065,0-.065-.065,0-.186.347-1.131,2.085-4.242a1.18,1.18,0,0,0,.129-.646.889.889,0,0,0-.178-.582,2.117,2.117,0,0,0-1.721-.719c-.065,0-1.438.154-3.232,2.125a13.341,13.341,0,0,0-1.616,2.166,3.3,3.3,0,0,0-.485,1.551c0,.356,0,.4.121.485a3.523,3.523,0,0,0,.994.768,1.2,1.2,0,0,0,.5.1c.808,0,1.551-.808,2.3-1.511a.048.048,0,0,1,.057,0h0c-1.826,4.2-2.036,3.757-3.3,5.7-.808,1.285-1.131,1.842-1.131,2.254a1.422,1.422,0,0,0,.048.372c.081.315.549.485.873.485a1.042,1.042,0,0,0,1.2-.7c.2-.372.808-1.8,1.39-3.168.808-2.02,2.489-3.523,5.576-5.842a.339.339,0,0,0,.129-.291Zm-7.022,1.228a.533.533,0,0,1-.331.081c-.073,0-.2-.065-.2-.129a2.5,2.5,0,0,1,.2-.63,13.494,13.494,0,0,1,2.553-3.232c.234-.218.372-.234.7-.5a1.252,1.252,0,0,1,.768-.347.808.808,0,0,1,.283.048c.17.065.17.121.17.17v.1a.275.275,0,0,1-.057.121,15.781,15.781,0,0,1-4.121,4.323Z" transform="translate(6102.686 1154.611)" fill="#fff"/>
    <path id="Path_129481" data-name="Path 129481" d="M7.176,17.238l.1-1.665c0-.218,0-.234.186-.339a1.446,1.446,0,0,1,.735-.17c.638,0,1-.1,1.2-.436a.4.4,0,0,0,.065-.21c0-.057,0-.081-.1-.186a1.414,1.414,0,0,0-1.018-.315,6.344,6.344,0,0,0-.873.065c-.1,0-.1-.048-.1-.1s.17-2.82.364-4.089a3.159,3.159,0,0,0,.048-.549c0-.1.25-1.43.25-1.616s-.081-.1-.129-.267-.356-.154-.566-.154c-.364.048-.719.121-1.075.2-.065,0-.1,0-.364.42-1.834,2.747-3.232,5.1-4.541,7.523-.113.218-.145.234-.2.234-.21,0-.444-.283-.711-.283a.291.291,0,0,0-.186.065A2.149,2.149,0,0,0,0,16.325c0,.218.129.3.533.517a.107.107,0,0,1,.1.113,7.353,7.353,0,0,0-.218,1.454c0,.7.105.905.469,1.131a.953.953,0,0,0,.315.154c.234,0,.42-.218.638-.372.048,0,.081-.065.081-.1a6.02,6.02,0,0,1-.048-.937,2.885,2.885,0,0,1,.267-1.164c.081-.186.129-.218.25-.234a27.635,27.635,0,0,0,3.386-1.018c.065,0,.1,0,.1.065,0,.768-.065,1.487-.065,2.238a4.969,4.969,0,0,0,.315,2.117,1.277,1.277,0,0,0,.857.3.234.234,0,0,0,.186-.065c.129-.1.331-.218.331-.412a3.83,3.83,0,0,1-.331-1.826C7.159,18.038,7.159,17.456,7.176,17.238Zm-1.269-2.8c0,.129,0,.145-.113.186s-.5.162-1.123.4a9.971,9.971,0,0,1-1.665.461c-.073,0-.105,0-.105-.065a1.778,1.778,0,0,1,.2-.436c.808-1.616,1.737-3.119,3.006-5.155.081-.129.113-.129.154-.129s.048,0,.048.267a41.349,41.349,0,0,1-.4,4.468Z" transform="translate(6104.632 1155.489)" fill="#fff"/>
  </g>
</svg>
