<svg xmlns="http://www.w3.org/2000/svg" width="16.957" height="17" viewBox="0 0 16.957 17">
  <g id="ICONS" transform="translate(-1)">
    <path id="Path_600665" data-name="Path 600665" d="M12,17H6a5.006,5.006,0,0,1-5-5V5A5.006,5.006,0,0,1,6,0h4.171a1,1,0,0,1,0,2H6A3,3,0,0,0,3,5v7a3,3,0,0,0,3,3h6a3,3,0,0,0,3-3V8.828a1,1,0,0,1,2,0V12a5.006,5.006,0,0,1-5,5Z" fill="#fff"/>
    <path id="Path_600666" data-name="Path 600666" d="M14.042,7.875A1.11,1.11,0,0,1,13,7.147L12.428,5.57,10.854,5a1.106,1.106,0,0,1,0-2.08l1.574-.573L13,.77A1.112,1.112,0,0,1,14.04.042h0a1.11,1.11,0,0,1,1.039.727h0l.573,1.575,1.575.573a1.106,1.106,0,0,1,0,2.08l-1.574.572L15.08,7.145a1.111,1.111,0,0,1-1.039.729ZM12.313,5.253Zm3.458,0ZM13.358,3.958l.016.006a1.107,1.107,0,0,1,.663.664v.015l.006-.017a1.1,1.1,0,0,1,.656-.66l.021-.008L14.7,3.952a1.107,1.107,0,0,1-.663-.663l0-.015-.006.017a1.1,1.1,0,0,1-.657.659ZM12.313,2.664Zm3.457,0Z" fill="#fff"/>
    <path id="Path_600667" data-name="Path 600667" d="M13.241,9.631a2.189,2.189,0,0,0-1.639-.48,8.439,8.439,0,0,0-1.324.118,6.681,6.681,0,0,1-.763-.915,8.4,8.4,0,0,1-.477-.762,7.939,7.939,0,0,0,.424-2.2C9.461,4.72,9.2,4,8.474,4a.729.729,0,0,0-.61.37,3.684,3.684,0,0,0,.31,2.824C8,7.722,7.813,8.235,7.583,8.8a14.592,14.592,0,0,1-.668,1.427c-.743.307-2.321,1.053-2.472,1.877a.71.71,0,0,0,.216.656A.926.926,0,0,0,5.3,13c.951,0,1.9-1.353,2.537-2.518.363-.127.733-.242,1.1-.342.4-.11.8-.2,1.163-.268a3.558,3.558,0,0,0,2.35,1.04c.616,0,.847-.275.931-.506a.791.791,0,0,0-.144-.775Zm-8.117,2.85a.217.217,0,0,1-.156-.057.238.238,0,0,1-.08-.23c.067-.361.76-.881,1.794-1.356-.61,1.007-1.208,1.644-1.559,1.644ZM8.255,4.6a.25.25,0,0,1,.21-.14c.231,0,.281.286.281.524a6.717,6.717,0,0,1-.3,1.659A2.9,2.9,0,0,1,8.255,4.6ZM9.606,9.4c-.261.056-.531.122-.805.2q-.3.081-.6.175c.106-.223.2-.444.288-.654.112-.278.217-.555.313-.827q.127.2.262.4a7.865,7.865,0,0,0,.559.708Zm2.518,1a.854.854,0,0,1-.208-.027,3.358,3.358,0,0,1-1.32-.687,6.375,6.375,0,0,1,.977-.077,3.41,3.41,0,0,1,.651.052c.2.042.417.153.362.444a.422.422,0,0,1-.461.3Z" fill="#fff"/>
  </g>
</svg>
