<svg id="ICONS" xmlns="http://www.w3.org/2000/svg" width="17" height="17" viewBox="0 0 17 17">
  <path id="Path_600592" data-name="Path 600592" d="M10,9a1.2,1.2,0,0,0-.755-1.114L7.009,6.991,6.115,4.755h0a1.2,1.2,0,0,0-2.229,0L2.991,6.991.754,7.886a1.2,1.2,0,0,0,0,2.229l2.236.895.9,2.237a1.2,1.2,0,0,0,2.229,0l.894-2.236,2.237-.9A1.2,1.2,0,0,0,10,9Zm-4.055.282a1.21,1.21,0,0,0-.666.667l-.279.7-.281-.7a1.21,1.21,0,0,0-.667-.666L3.354,9l.7-.281a1.21,1.21,0,0,0,.666-.667L5,7.354l.281.7a1.21,1.21,0,0,0,.667.666l.7.279Z" fill="#fff"/>
  <path id="Path_600593" data-name="Path 600593" d="M16.217,2.882l-1.539-.56L14.118.783a1.19,1.19,0,0,0-2.236,0l-.56,1.539-1.538.559a1.19,1.19,0,0,0,0,2.237l1.539.56.559,1.538a1.19,1.19,0,0,0,2.237,0l.56-1.539,1.543-.561a1.19,1.19,0,0,0,0-2.235ZM13,4.479A1.176,1.176,0,0,0,12.521,4,1.176,1.176,0,0,0,13,3.521,1.176,1.176,0,0,0,13.479,4,1.176,1.176,0,0,0,13,4.479Z" fill="#fff"/>
  <path id="Path_600594" data-name="Path 600594" d="M16.217,11.882l-1.539-.56-.56-1.539a1.19,1.19,0,0,0-2.236,0l-.56,1.539-1.538.559a1.19,1.19,0,0,0,0,2.237l1.539.56.559,1.538a1.19,1.19,0,0,0,2.237,0l.56-1.539,1.543-.561a1.19,1.19,0,0,0,0-2.235ZM13,13.479A1.176,1.176,0,0,0,12.521,13,1.176,1.176,0,0,0,13,12.521a1.176,1.176,0,0,0,.479.479,1.176,1.176,0,0,0-.479.479Z" fill="#fff"/>
</svg>
