<svg xmlns="http://www.w3.org/2000/svg" width="17" height="18" viewBox="0 0 17 18">
  <g id="ICONS" transform="translate(-1)">
    <path id="Path_127151" data-name="Path 127151" d="M16.5,9.164A5.1,5.1,0,0,0,17,6.973V5a5.006,5.006,0,0,0-5-5H7.829A2.982,2.982,0,0,0,5.707.879L1.879,4.707A2.979,2.979,0,0,0,1,6.828V12a5.006,5.006,0,0,0,5,5h4.435a2.338,2.338,0,0,0,3.692.184l.034-.04C17.563,13,18,12.773,18,11.5a2.6,2.6,0,0,0-1.5-2.336ZM7,2.414V5A1,1,0,0,1,6,6H3.414Zm2.065,9.637a2.624,2.624,0,0,0,1.427,1.783l-.343.972c-.024.063-.03.13-.048.194H6a3,3,0,0,1-3-3V8H6A3,3,0,0,0,9,5V2h3a3,3,0,0,1,3,3v.045A2.34,2.34,0,0,0,14.634,5h0a2.345,2.345,0,0,0-1.773.817l-.035.041L9.614,9.784a2.628,2.628,0,0,0-.549,2.267Zm6.784-.116-3.235,3.94a.34.34,0,0,1-.26.125.357.357,0,0,1-.33-.5L13,12.741l-1.628-.706a.619.619,0,0,1-.218-.971l3.223-3.94A.34.34,0,0,1,14.634,7a.357.357,0,0,1,.33.5L14,10.259l1.628.706a.619.619,0,0,1,.219.971Z" fill="#fff"/>
  </g>
</svg>
