<svg id="ICONS" xmlns="http://www.w3.org/2000/svg" width="18" height="17" viewBox="0 0 18 17">
  <path id="Path_129031" data-name="Path 129031" d="M14.874,0H3.126A3.137,3.137,0,0,0,0,3.149v10.7A3.137,3.137,0,0,0,3.126,17H14.874A3.137,3.137,0,0,0,18,13.851V3.149A3.137,3.137,0,0,0,14.874,0ZM9.343,11.47a2.428,2.428,0,0,1-1.056.827,4.026,4.026,0,0,1-1.594.29,6.013,6.013,0,0,1-1.226-.115,4.015,4.015,0,0,1-.924-.3.206.206,0,0,1-.1-.205V10.534a.071.071,0,0,1,.03-.066.08.08,0,0,1,.079.006,4.107,4.107,0,0,0,1.075.471,4.151,4.151,0,0,0,1.111.157,1.741,1.741,0,0,0,.984-.211.627.627,0,0,0,.3-.525.71.71,0,0,0-.1-.368,1.044,1.044,0,0,0-.338-.32,3.957,3.957,0,0,0-.664-.326l-.6-.254a4.492,4.492,0,0,1-1.153-.67,1.93,1.93,0,0,1-.573-.767,2.446,2.446,0,0,1-.157-.881A2.166,2.166,0,0,1,5.727,4.756,3.663,3.663,0,0,1,7.32,4.449,7.564,7.564,0,0,1,8.4,4.521a2.555,2.555,0,0,1,.8.229.167.167,0,0,1,.085.157V6.272a.083.083,0,0,1-.03.054c-.02.02-.046.018-.079-.006a3.364,3.364,0,0,0-.845-.3,4.553,4.553,0,0,0-1-.109,2.485,2.485,0,0,0-.592.06,1.453,1.453,0,0,0-.392.151.581.581,0,0,0-.224.229.606.606,0,0,0-.073.284.574.574,0,0,0,.109.344,1.192,1.192,0,0,0,.362.3,7.662,7.662,0,0,0,.7.356l.447.169A4.873,4.873,0,0,1,8.914,8.5a2.12,2.12,0,0,1,.628.8,2.348,2.348,0,0,1,.181.924,2.106,2.106,0,0,1-.381,1.25Zm3.441-.435a.625.625,0,0,0,.513.175q.109,0,.205-.006c.064,0,.129-.01.193-.018a.076.076,0,0,1,.066.006.085.085,0,0,1,.03.078v.99c0,.089-.032.141-.1.157a4.3,4.3,0,0,1-.483.121,3.137,3.137,0,0,1-.58.048,1.751,1.751,0,0,1-1.232-.41,1.711,1.711,0,0,1-.447-1.316V7.85h-.729q-.1,0-.1-.108l.009-1.189c0-.064.036-.1.109-.1h.729c.008-.137.009-.287.021-.468s.028-.362.048-.543.038-.328.054-.441a.212.212,0,0,1,.036-.066A.131.131,0,0,1,11.2,4.9l1.437-.181a.079.079,0,0,1,.06,0c.016.008.024.032.024.073q-.024.278-.036.755c-.008.318-.007.617-.015.914h1.057c.048,0,.073.032.073.1l-.009,1.213a.074.074,0,0,1-.06.084H12.663v2.6a.969.969,0,0,0,.122.586Z" fill="#fff"/>
</svg>
