<svg id="SX_Calendar_18_N" xmlns="http://www.w3.org/2000/svg" width="18" height="18" viewBox="0 0 18 18">
  <g id="SMOCK">
    <rect id="Canvas" width="18" height="18" fill="rgba(255,19,220,0)"/>
  </g>
  <g id="ICONS">
    <path id="Path_127076" data-name="Path 127076" d="M13,1a1,1,0,1,0-2,0H7A1,1,0,1,0,5,1,5.006,5.006,0,0,0,0,6v6a5.006,5.006,0,0,0,5,5h8a5.006,5.006,0,0,0,5-5V6a5.006,5.006,0,0,0-5-5Zm3,11a3,3,0,0,1-3,3H5a3,3,0,0,1-3-3V8H16ZM2,6A3,3,0,0,1,5,3,1,1,0,1,0,7,3h4a1,1,0,0,0,2,0,3,3,0,0,1,3,3Z" fill="#fff"/>
    <path id="Path_127077" data-name="Path 127077" d="M4.667,9h.667A.667.667,0,0,1,6,9.667v.667A.667.667,0,0,1,5.333,11H4.667A.667.667,0,0,1,4,10.333V9.667A.667.667,0,0,1,4.667,9Z" fill="#fff"/>
    <path id="Path_127078" data-name="Path 127078" d="M8.667,9h.667A.667.667,0,0,1,10,9.667v.667A.667.667,0,0,1,9.333,11H8.667A.667.667,0,0,1,8,10.333V9.667A.667.667,0,0,1,8.667,9Z" fill="#fff"/>
    <path id="Path_127079" data-name="Path 127079" d="M12.667,9h.667A.667.667,0,0,1,14,9.667v.667a.667.667,0,0,1-.667.667h-.667A.667.667,0,0,1,12,10.333V9.667A.667.667,0,0,1,12.667,9Z" fill="#fff"/>
    <path id="Path_127080" data-name="Path 127080" d="M4.667,12h.667A.667.667,0,0,1,6,12.667v.667A.667.667,0,0,1,5.333,14H4.667A.667.667,0,0,1,4,13.333v-.667A.667.667,0,0,1,4.667,12Z" fill="#fff"/>
    <path id="Path_127081" data-name="Path 127081" d="M8.667,12h.667a.667.667,0,0,1,.667.667v.667A.667.667,0,0,1,9.333,14H8.667A.667.667,0,0,1,8,13.333v-.667A.667.667,0,0,1,8.667,12Z" fill="#fff"/>
    <path id="Path_127082" data-name="Path 127082" d="M12.667,12h.667a.667.667,0,0,1,.667.667v.667a.667.667,0,0,1-.667.667h-.667A.667.667,0,0,1,12,13.333v-.667A.667.667,0,0,1,12.667,12Z" fill="#fff"/>
  </g>
</svg>
