<svg id="SX_Brand_18_N" xmlns="http://www.w3.org/2000/svg" width="18" height="18" viewBox="0 0 18 18">
  <g id="SMOCK">
    <rect id="Canvas" width="18" height="18" fill="rgba(255,19,220,0)"/>
  </g>
  <g id="ICONS">
    <path id="Path_127034" data-name="Path 127034" d="M7,13h3a3,3,0,0,0,1.36-5.674A2.5,2.5,0,0,0,9,4H7A1,1,0,0,0,6,5v7a1,1,0,0,0,1,1ZM8,6H9A.5.5,0,0,1,9,7H8ZM8,9h2a1,1,0,0,1,0,2H8Z" fill="#fff"/>
    <path id="Path_127035" data-name="Path 127035" d="M8.984,18h.032A8,8,0,0,0,17,10.012V3a3,3,0,0,0-3-3H4A3,3,0,0,0,1,3v7.01A8,8,0,0,0,8.984,18ZM3,3A1,1,0,0,1,4,2H14a1,1,0,0,1,1,1v7.011A5.993,5.993,0,0,1,9.016,16H8.984A5.993,5.993,0,0,1,3,10.012Z" fill="#fff"/>
  </g>
</svg>
