<svg id="Illu" xmlns="http://www.w3.org/2000/svg" width="19" height="19" viewBox="0 0 19 19">
  <path id="Path_127290" data-name="Path 127290" d="M3.5,18.723A4.858,4.858,0,0,0,6.277,21.5a6.974,6.974,0,0,0,2.306.442C9.6,21.989,9.92,22,12.5,22s2.9-.011,3.917-.057a6.974,6.974,0,0,0,2.306-.442A4.857,4.857,0,0,0,21.5,18.723a6.972,6.972,0,0,0,.442-2.306C21.989,15.4,22,15.08,22,12.5s-.011-2.9-.057-3.917A6.972,6.972,0,0,0,21.5,6.277,4.858,4.858,0,0,0,18.723,3.5a6.973,6.973,0,0,0-2.306-.442C15.4,3.011,15.08,3,12.5,3s-2.9.011-3.917.057A6.973,6.973,0,0,0,6.277,3.5,4.858,4.858,0,0,0,3.5,6.277a6.972,6.972,0,0,0-.442,2.306C3.011,9.6,3,9.92,3,12.5s.011,2.9.057,3.917A6.972,6.972,0,0,0,3.5,18.723ZM4.767,8.661A5.255,5.255,0,0,1,5.094,6.9a3.146,3.146,0,0,1,1.8-1.8,5.257,5.257,0,0,1,1.764-.327c1-.046,1.3-.055,3.839-.055l3.839.055a5.257,5.257,0,0,1,1.764.327,3.146,3.146,0,0,1,1.8,1.8,5.255,5.255,0,0,1,.327,1.764c.046,1,.055,1.3.055,3.839s-.01,2.837-.055,3.839a5.255,5.255,0,0,1-.327,1.764,3.146,3.146,0,0,1-1.8,1.8,5.257,5.257,0,0,1-1.764.327c-1,.046-1.3.055-3.839.055s-2.837-.01-3.839-.055A5.257,5.257,0,0,1,6.9,19.906a3.146,3.146,0,0,1-1.8-1.8,5.255,5.255,0,0,1-.327-1.764c-.046-1-.055-1.3-.055-3.839S4.721,9.663,4.767,8.661Z" transform="translate(-3 -3)"/>
  <path id="Path_127291" data-name="Path 127291" d="M17.122,22a4.878,4.878,0,1,0-4.878-4.878A4.878,4.878,0,0,0,17.122,22Zm0-8.045a3.167,3.167,0,1,1-3.167,3.167,3.167,3.167,0,0,1,3.167-3.167Z" transform="translate(-7.622 -7.622)"/>
  <path id="Path_127292" data-name="Path 127292" d="M31,11.858a1.14,1.14,0,1,0-1.14-1.14A1.14,1.14,0,0,0,31,11.858Z" transform="translate(-16.431 -6.289)"/>
</svg>
