<svg id="SX_Image_18_S" xmlns="http://www.w3.org/2000/svg" width="18" height="18" viewBox="0 0 18 18">
  <g id="SMOCK">
    <rect id="Canvas" width="18" height="18" fill="rgba(255,19,220,0)"/>
  </g>
  <g id="ICONS">
    <path id="Path_119835" data-name="Path 119835" d="M18,12V6a5.006,5.006,0,0,0-5-5H5A5.006,5.006,0,0,0,0,6v5.7L3.535,7.433a2.253,2.253,0,0,1,3.242-.069c.028.028.054.058.078.088l3.017,3.83,1.12-1.12a2.3,2.3,0,0,1,3.179,0l3.518,3.518A4.943,4.943,0,0,0,18,12ZM12.5,8A1.5,1.5,0,1,1,14,6.5,1.5,1.5,0,0,1,12.5,8Z" fill="#5c5ce0"/>
    <path id="Path_119836" data-name="Path 119836" d="M12.406,11.575l-1.916,1.916a.967.967,0,0,1-.766.291A1,1,0,0,1,9,13.4L5.334,8.753a.214.214,0,0,0-.322.024L.531,14.2A4.99,4.99,0,0,0,5,17h8a4.975,4.975,0,0,0,3.616-1.566l-3.859-3.859a.217.217,0,0,0-.351,0Z" fill="#5c5ce0"/>
  </g>
</svg>
