<svg xmlns="http://www.w3.org/2000/svg" width="22" height="22" viewBox="0 0 22 22">
  <g id="AX_EDU_Educator_fvp_infographic_icon" transform="translate(11 11)">
    <g id="Group_763" data-name="Group 763" transform="translate(-11 -11)">
      <rect id="SX_Infographic_22_N" width="22" height="22" fill="none"/>
      <path id="Path_602483" data-name="Path 602483" d="M18.72,11.342A1.139,1.139,0,0,0,17.91,11H14.158a1.116,1.116,0,0,0-1.121,1.081A3,3,0,1,1,9.923,8.964,1.123,1.123,0,0,0,11,7.842V4.09a1.139,1.139,0,0,0-.342-.81,1.273,1.273,0,0,0-.8-.319H9.848a9.012,9.012,0,0,0-8.64,10.808A8.747,8.747,0,0,0,2.256,16.5a.871.871,0,0,0,.032.085,1,1,0,0,0,.1.122,8.953,8.953,0,0,0,5.843,4.09,9.336,9.336,0,0,0,1.787.174,9,9,0,0,0,9.021-8.814A1.265,1.265,0,0,0,18.72,11.342ZM4.58,7.571A6.988,6.988,0,0,1,9,5.036V7.069A4.989,4.989,0,0,0,6.062,8.926a5.043,5.043,0,0,0-.893,4.212c.03.132.078.258.119.387L3.55,14.612a6.675,6.675,0,0,1-.379-1.226A6.981,6.981,0,0,1,4.58,7.571ZM8.614,18.829a6.913,6.913,0,0,1-4.054-2.49l1.715-1.073a4.915,4.915,0,0,0,2.586,1.565,5.133,5.133,0,0,0,2.6-.08l.98,1.8A7.125,7.125,0,0,1,8.614,18.829Zm5.817-1.41c-.076.061-.157.111-.234.168L13.223,15.8A4.983,4.983,0,0,0,14.931,13h2.034A6.992,6.992,0,0,1,14.431,17.419ZM21,9H14a1,1,0,0,1-1-1V1a1,1,0,0,1,.31-.723A.988.988,0,0,1,14.046,0,8.407,8.407,0,0,1,22,7.954,1,1,0,0,1,21,9ZM15,7h4.863A6.423,6.423,0,0,0,15,2.137Z" fill="#fff"/>
    </g>
  </g>
</svg>
