<svg id="Illu" xmlns="http://www.w3.org/2000/svg" width="58" height="58" viewBox="0 0 58 58">
  <path id="Path_127290" data-name="Path 127290" d="M4.523,51A14.828,14.828,0,0,0,13,59.478a21.288,21.288,0,0,0,7.039,1.348C23.136,60.967,24.124,61,32,61s8.864-.033,11.957-.174A21.288,21.288,0,0,0,51,59.478,14.828,14.828,0,0,0,59.477,51a21.284,21.284,0,0,0,1.348-7.04C60.967,40.864,61,39.876,61,32s-.033-8.864-.174-11.957A21.284,21.284,0,0,0,59.477,13,14.829,14.829,0,0,0,51,4.522a21.286,21.286,0,0,0-7.039-1.348C40.864,3.033,39.876,3,32,3s-8.864.033-11.957.174A21.286,21.286,0,0,0,13,4.522,14.829,14.829,0,0,0,4.523,13a21.284,21.284,0,0,0-1.348,7.04C3.033,23.137,3,24.124,3,32s.033,8.864.174,11.957A21.284,21.284,0,0,0,4.523,51ZM8.394,20.282a16.041,16.041,0,0,1,1-5.385,9.6,9.6,0,0,1,5.5-5.5,16.048,16.048,0,0,1,5.385-1C23.34,8.255,24.257,8.225,32,8.225l11.718.169a16.049,16.049,0,0,1,5.385,1,9.6,9.6,0,0,1,5.5,5.5,16.041,16.041,0,0,1,1,5.385c.14,3.058.169,3.975.169,11.719s-.03,8.661-.169,11.718a16.04,16.04,0,0,1-1,5.385,9.6,9.6,0,0,1-5.5,5.5,16.048,16.048,0,0,1-5.385,1c-3.057.139-3.975.169-11.718.169s-8.661-.03-11.718-.169a16.048,16.048,0,0,1-5.385-1,9.6,9.6,0,0,1-5.5-5.5,16.04,16.04,0,0,1-1-5.385c-.14-3.058-.169-3.975-.169-11.719S8.255,23.34,8.394,20.282Z" transform="translate(-3 -3)" fill="#fff"/>
  <path id="Path_127291" data-name="Path 127291" d="M27.135,42.027A14.892,14.892,0,1,0,12.243,27.135,14.892,14.892,0,0,0,27.135,42.027Zm0-24.559a9.667,9.667,0,1,1-9.667,9.667,9.667,9.667,0,0,1,9.667-9.667Z" transform="translate(1.865 1.865)" fill="#fff"/>
  <path id="Path_127292" data-name="Path 127292" d="M33.342,16.538a3.48,3.48,0,1,0-3.48-3.48,3.48,3.48,0,0,0,3.48,3.48Z" transform="translate(11.138 0.462)" fill="#fff"/>
</svg>
