<svg xmlns="http://www.w3.org/2000/svg" width="38" height="38" viewBox="0 0 38 38">
  <g id="Group_377151" data-name="Group 377151" transform="translate(-761 -2259)">
    <path id="Path_969461" data-name="Path 969461" d="M15.5,29h13a1.5,1.5,0,0,0,0-3h-13a1.5,1.5,0,0,0,0,3Z" transform="translate(758 2256)" fill="#fff"/>
    <path id="Path_969462" data-name="Path 969462" d="M31,32H13a1.5,1.5,0,0,0,0,3H31a1.5,1.5,0,0,0,0-3Z" transform="translate(758 2256)" fill="#fff"/>
    <path id="Path_969463" data-name="Path 969463" d="M31.5,3h-19A9.511,9.511,0,0,0,3,12.5v19A9.511,9.511,0,0,0,12.5,41h19A9.511,9.511,0,0,0,41,31.5v-19A9.511,9.511,0,0,0,31.5,3ZM38,31.5A6.508,6.508,0,0,1,31.5,38h-19A6.508,6.508,0,0,1,6,31.5v-19A6.508,6.508,0,0,1,12.5,6h19A6.508,6.508,0,0,1,38,12.5Z" transform="translate(758 2256)" fill="#fff"/>
    <path id="Path_969464" data-name="Path 969464" d="M16.965,17.721l-.543,3.146A1.807,1.807,0,0,0,18.2,23a1.828,1.828,0,0,0,.838-.205l2.994-1.538,3.02,1.518a1.817,1.817,0,0,0,2.3-.589,1.777,1.777,0,0,0,.292-1.347l-.575-3.157,2.383-2.265a1.81,1.81,0,0,0,.536-1.04,1.782,1.782,0,0,0-.345-1.34,1.822,1.822,0,0,0-1.2-.7l-3.345-.456-1.494-2.9a1.816,1.816,0,0,0-3.236,0l-1.472,2.915-3.335.479a1.8,1.8,0,0,0-.981,3.095Zm3.122-2.955a1.5,1.5,0,0,0,1.125-.809l.777-1.538.792,1.534a1.5,1.5,0,0,0,1.13.8l1.649.225L24.409,16.07a1.5,1.5,0,0,0-.442,1.355l.291,1.6L22.7,18.238a1.5,1.5,0,0,0-1.359.006l-1.555.8.278-1.609a1.5,1.5,0,0,0-.453-1.351L18.449,15Z" transform="translate(758 2256)" fill="#fff"/>
  </g>
</svg>
