<svg id="SX_Invite_22_N" xmlns="http://www.w3.org/2000/svg" width="22" height="22" viewBox="0 0 22 22">
  <g id="SMOCK">
    <rect id="Canvas" width="22" height="22" fill="rgba(255,19,220,0)"/>
  </g>
  <g id="ICONS">
    <path id="Path_130904" data-name="Path 130904" d="M21,16H18V13a1,1,0,0,0-2,0v3H13a1,1,0,0,0,0,2h3v3a1,1,0,0,0,2,0V18h3a1,1,0,0,0,0-2Z" fill="#fff"/>
    <path id="Path_130905" data-name="Path 130905" d="M15.5,7.5A4.5,4.5,0,1,0,11,12a4.5,4.5,0,0,0,4.5-4.5ZM11,10a2.5,2.5,0,1,1,2.5-2.5A2.5,2.5,0,0,1,11,10Z" fill="#fff"/>
    <path id="Path_130906" data-name="Path 130906" d="M11,0a11,11,0,1,0,0,22,1,1,0,0,0,0-2,8.947,8.947,0,0,1-5.078-1.576A5.505,5.505,0,0,1,11,15a1,1,0,0,0,0-2,7.51,7.51,0,0,0-6.641,4.054A8.994,8.994,0,1,1,20,11a1,1,0,0,0,2,0A11.012,11.012,0,0,0,11,0Z" fill="#fff"/>
  </g>
</svg>
