<svg xmlns="http://www.w3.org/2000/svg" width="36" height="38" viewBox="0 0 36 38">
  <g id="ICONS" transform="translate(-4 -3)">
    <path id="Path_969377" data-name="Path 969377" d="M19.5,22.021h-8a1.521,1.521,0,0,1,0-3.043h8a1.521,1.521,0,0,1,0,3.043Z" fill="#fff"/>
    <path id="Path_969378" data-name="Path 969378" d="M19.5,17.021h-8a1.521,1.521,0,1,1,0-3.043h8a1.522,1.522,0,1,1,0,3.043Z" fill="#fff"/>
    <path id="Path_969379" data-name="Path 969379" d="M19.5,12.021h-8a1.522,1.522,0,1,1,0-3.043h8a1.522,1.522,0,0,1,0,3.043Z" fill="#fff"/>
    <path id="Path_969380" data-name="Path 969380" d="M19.5,35.021h-8A1.522,1.522,0,0,1,9.978,33.5v-8A1.522,1.522,0,0,1,11.5,23.979h8A1.522,1.522,0,0,1,21.022,25.5v8A1.522,1.522,0,0,1,19.5,35.021Zm-6.478-3.043h4.956V27.021H13.022Z" fill="#fff"/>
    <path id="Path_969381" data-name="Path 969381" d="M33.5,35.021h-10a1.522,1.522,0,0,1-1.331-2.261l5-9a1.523,1.523,0,0,1,2.661,0l5,9A1.522,1.522,0,0,1,33.5,35.021Zm-7.414-3.043h4.827L28.5,27.634Z" fill="#fff"/>
    <path id="Path_969382" data-name="Path 969382" d="M38.011,14.759,29.384,5.413A7.521,7.521,0,0,0,23.873,3H13.5A9.511,9.511,0,0,0,4,12.5v19A9.511,9.511,0,0,0,13.5,41h17A9.511,9.511,0,0,0,40,31.5V19.846a7.48,7.48,0,0,0-1.989-5.087Zm-2.2,2.035c.059.064.1.139.157.206H30.5A4.5,4.5,0,0,1,26,12.5V6.562a4.466,4.466,0,0,1,1.18.887ZM30.5,38h-17A6.508,6.508,0,0,1,7,31.5v-19A6.508,6.508,0,0,1,13.5,6H23v6.5A7.508,7.508,0,0,0,30.5,20H37V31.5A6.508,6.508,0,0,1,30.5,38Z" fill="#fff"/>
  </g>
</svg>
