<svg xmlns="http://www.w3.org/2000/svg" width="39.444" height="39.444" viewBox="0 0 39.444 39.444">
  <path id="Path_969454" data-name="Path 969454" d="M24.821,42.444a5.48,5.48,0,0,1-3.888-1.607L4.611,24.515A5.464,5.464,0,0,1,3,20.626V8.5A5.507,5.507,0,0,1,8.5,3H20.626a5.464,5.464,0,0,1,3.889,1.611L40.837,20.933a5.509,5.509,0,0,1,0,7.778L28.711,40.837A5.483,5.483,0,0,1,24.821,42.444ZM8.5,6A2.5,2.5,0,0,0,6,8.5V20.626a2.522,2.522,0,0,0,.732,1.768L23.054,38.716a2.506,2.506,0,0,0,3.536,0L38.716,26.59a2.507,2.507,0,0,0,0-3.536L22.394,6.732A2.522,2.522,0,0,0,20.626,6ZM16,12.5A3.5,3.5,0,1,0,12.5,16,3.5,3.5,0,0,0,16,12.5Z" transform="translate(-3 -3)" fill="#fff"/>
</svg>
