<svg xmlns="http://www.w3.org/2000/svg" width="14" height="18" viewBox="0 0 14 18">
  <g id="ICONS" transform="translate(-2)">
    <path id="Path_127039" data-name="Path 127039" d="M4.806,12.441C5.42,13.041,6,13.607,6,14v1a3,3,0,0,0,6,0V14c0-.383.569-.931,1.172-1.51C14.365,11.342,16,9.77,16,7A7,7,0,1,0,2,7C2,9.7,3.622,11.285,4.806,12.441ZM10,15a1,1,0,0,1-2,0v0h2ZM9,2a5.006,5.006,0,0,1,5,5c0,1.918-1.126,3-2.215,4.049A6.481,6.481,0,0,0,10.219,13H9.966A.949.949,0,0,0,10,12.826V9.414l1.707-1.707a1,1,0,1,0-1.414-1.414L9,7.586,7.707,6.293A1,1,0,1,0,6.293,7.707L8,9.414v3.412A.949.949,0,0,0,8.034,13H7.782A6.664,6.664,0,0,0,6.2,11.011C5.12,9.952,4,8.858,4,7A5.006,5.006,0,0,1,9,2Z" fill="#d464fe"/>
  </g>
</svg>
