<svg xmlns="http://www.w3.org/2000/svg" width="22" height="22" viewBox="0 0 22 22">
  <g id="Group_316741" data-name="Group 316741" transform="translate(-335 -1186)">
    <g id="link22" transform="translate(-395.22 1185)">
      <g id="ICONS-10" transform="translate(730.22 1)">
        <path id="Path_607228" data-name="Path 607228" d="M752.22,12a11,11,0,1,1-11-11A11,11,0,0,1,752.22,12Zm-10.142,4.565a.925.925,0,0,0-1.309,0l-.715.715a2.629,2.629,0,0,1-3.718-3.707l2.2-2.2,0,0a2.618,2.618,0,0,1,3.7,0h0a.926.926,0,1,0,1.309-1.309,4.488,4.488,0,0,0-6.325,0l-2.2,2.2a4.477,4.477,0,0,0,6.325,6.325l.726-.715A.925.925,0,0,0,742.078,16.565Zm5.742-4.433a4.488,4.488,0,0,0-6.347-6.347l-.715.715h0a.937.937,0,1,0,1.331,1.32l.715-.715a2.629,2.629,0,0,1,3.707,3.718l-2.2,2.2a2.64,2.64,0,0,1-3.718,0h0a.926.926,0,1,0-1.309,1.309l0,0a4.477,4.477,0,0,0,6.332,0l2.2-2.2Z" transform="translate(-730.22 -1)"/>
      </g>
    </g>
  </g>
</svg>
