<svg id="Illu" xmlns="http://www.w3.org/2000/svg" width="58.909" height="62.182" viewBox="0 0 58.909 62.182">
  <path id="Path_127453" data-name="Path 127453" d="M17.455,45H30.218A10.941,10.941,0,0,0,38.6,41.116a11.113,11.113,0,0,0,2.415-9.064,9.81,9.81,0,0,0-7.85-7.934c.081-.137.161-.278.239-.42a10.435,10.435,0,0,0-.113-10.667A9.123,9.123,0,0,0,25.565,9H17.455A2.455,2.455,0,0,0,15,11.455V42.546A2.455,2.455,0,0,0,17.454,45ZM19.909,13.91h5.656a4.24,4.24,0,0,1,3.612,1.8,5.7,5.7,0,0,1-.092,5.647,3.959,3.959,0,0,1-3.122,2.383H19.909Zm0,14.742h9.908c1.322,0,5.69.305,6.358,4.225a6.134,6.134,0,0,1-1.329,5.074,6.044,6.044,0,0,1-4.629,2.141H19.909Z" transform="translate(3 0.818)" fill="#fff"/>
  <path id="Path_127454" data-name="Path 127454" d="M33.455,65.182A29.488,29.488,0,0,0,62.909,35.727V18.545A15.563,15.563,0,0,0,47.364,3H19.545A15.563,15.563,0,0,0,4,18.545V35.727A29.488,29.488,0,0,0,33.455,65.182ZM8.909,18.545A10.649,10.649,0,0,1,19.545,7.909H47.364A10.649,10.649,0,0,1,58,18.545V35.727a24.545,24.545,0,0,1-49.091,0Z" transform="translate(-4 -3)" fill="#fff"/>
</svg>
