<svg xmlns="http://www.w3.org/2000/svg" width="18" height="21" viewBox="0 0 18 21">
  <g id="ICONS" transform="translate(-2 -1)">
    <path id="Path_127025" data-name="Path 127025" d="M11,22a9.01,9.01,0,0,0,9-9V3.777A2.781,2.781,0,0,0,17.222,1H4.778A2.781,2.781,0,0,0,2,3.777V13a9.01,9.01,0,0,0,9,9ZM4,3.777A.779.779,0,0,1,4.778,3H17.222A.779.779,0,0,1,18,3.777V13A7,7,0,1,1,4,13Z"/>
    <path id="Path_127026" data-name="Path 127026" d="M8,17h3.5c3.719,0,4.5-1.9,4.5-3.5a3.124,3.124,0,0,0-2.45-3.248A3.674,3.674,0,0,0,14,8.5,3.319,3.319,0,0,0,10.723,5H8A1,1,0,0,0,7,6V16a1,1,0,0,0,1,1ZM9,7h1.723A1.326,1.326,0,0,1,12,8.5,1.5,1.5,0,0,1,10.937,10H9Zm0,5,1.857,0c.053,0,.106,0,.158,0H11.5c2.082,0,2.5.574,2.5,1.5S13.582,15,11.5,15H9Z"/>
  </g>
</svg>
