<svg xmlns="http://www.w3.org/2000/svg" width="44" height="44" viewBox="0 0 44 44"><rect width="44" height="44" fill="rgba(255,19,220,0)"/><path d="M41.918,6.237,39.146,4.849l-.008-.008L37.752,2.063c-.016-.032-.034-.064-.052-.1a1.977,1.977,0,0,0-3.4,0c-.018.031-.036.062-.052.095L32.855,4.849,30.022,6.27A1.993,1.993,0,0,0,29,7.907a1.5,1.5,0,0,0,0,.162,2.018,2.018,0,0,0,1.081,1.67l2.78,1.4,1.376,2.756a1.956,1.956,0,0,0,3.515.021l1.393-2.783L41.988,9.7A2,2,0,0,0,43,8.069a1.5,1.5,0,0,0,0-.162,2.028,2.028,0,0,0-1.079-1.67ZM37.8,8.446A3.042,3.042,0,0,0,36.454,9.8L36,10.705l-.454-.91A3.041,3.041,0,0,0,34.2,8.446l-.915-.458.912-.457a3.027,3.027,0,0,0,1.351-1.351L36,5.272l.454.91A3.034,3.034,0,0,0,37.8,7.53l.916.458Z" fill="#444"/><path d="M6.037,14.667l2.191,1.1,1.086,2.174a1.872,1.872,0,0,0,3.365.02l1.095-2.193,2.26-1.134A1.9,1.9,0,0,0,17,13.068c0-.053,0-.1,0-.156a1.934,1.934,0,0,0-1.034-1.6l-2.19-1.1-1.1-2.194c-.016-.031-.032-.062-.05-.092a1.89,1.89,0,0,0-3.252,0c-.019.031-.037.063-.053.1L8.228,10.216,5.973,11.348A1.9,1.9,0,0,0,5,12.912c0,.052,0,.1,0,.156a1.931,1.931,0,0,0,1.035,1.6ZM9.647,12.86a2.753,2.753,0,0,0,1.226-1.228L11,11.378l.127.255a2.757,2.757,0,0,0,1.225,1.227h0l.262.131-.261.131a2.756,2.756,0,0,0-1.226,1.227L11,14.6l-.127-.254a2.754,2.754,0,0,0-1.225-1.227l-.262-.131Z" fill="#444"/><path d="M35.964,31.313l-2.191-1.1-1.095-2.194c-.016-.031-.032-.062-.05-.092a1.89,1.89,0,0,0-3.252,0c-.019.031-.037.063-.053.1l-1.095,2.194-2.255,1.132A1.9,1.9,0,0,0,25,32.912c0,.052,0,.1,0,.156a1.931,1.931,0,0,0,1.035,1.6l2.191,1.1,1.086,2.174a1.872,1.872,0,0,0,3.365.02l1.094-2.193,2.261-1.134A1.9,1.9,0,0,0,37,33.068c0-.053,0-.1,0-.156A1.935,1.935,0,0,0,35.964,31.313Zm-3.61,1.808a2.762,2.762,0,0,0-1.227,1.227L31,34.6l-.126-.254a2.754,2.754,0,0,0-1.225-1.227l-.262-.131.261-.131a2.753,2.753,0,0,0,1.226-1.228L31,31.379l.127.256a2.758,2.758,0,0,0,1.225,1.225h0l.262.131Z" fill="#444"/><path d="M30.943,18.345a3.474,3.474,0,0,0-1.078-2.524l-1.933-1.86a3.532,3.532,0,0,0-4.853,0L3.461,32.817a4.7,4.7,0,0,0,.014,6.82,5.022,5.022,0,0,0,6.875-.015L29.863,20.866a3.47,3.47,0,0,0,1.08-2.521ZM8.271,37.461a2.016,2.016,0,0,1-2.726.006,1.7,1.7,0,0,1-.005-2.487L17.458,23.524l2.654,2.555ZM27.785,18.7,22.276,24l-2.654-2.555,5.536-5.321a.526.526,0,0,1,.693,0l1.933,1.86a.49.49,0,0,1,0,.721Z" fill="#444"/></svg>