<svg xmlns="http://www.w3.org/2000/svg" xmlns:xlink="http://www.w3.org/1999/xlink" width="21.963" height="21.283" viewBox="0 0 21.963 21.283">
  <defs>
    <clipPath id="clip-path">
      <rect id="Rectangle_352455" data-name="Rectangle 352455" width="21.963" height="21.283" fill="#484848" stroke="#484848" stroke-width="0.5"/>
    </clipPath>
  </defs>
  <g id="Group_377130" data-name="Group 377130" transform="translate(12043.621 18698.438)">
    <g id="Group_377020" data-name="Group 377020" transform="translate(-12043.621 -18698.438)">
      <g id="Group_377019" data-name="Group 377019" clip-path="url(#clip-path)">
        <path id="Path_968359" data-name="Path 968359" d="M12.041,21.254a8.488,8.488,0,0,1-1.451-.216,18.9,18.9,0,0,1-3.306-.95,11.273,11.273,0,0,1-3.921-2.519,8.114,8.114,0,0,1-2.309-4.614,15.635,15.635,0,0,1-.066-3.6Q1,9.241,1,9.13a.316.316,0,0,0-.009-.056L.71,9.061v-.71H0V6.908c.052,0,.1-.007.151-.007.329,0,.658,0,.987,0,.094,0,.129-.03.14-.122a5.732,5.732,0,0,1,1.865-3.4A11.477,11.477,0,0,1,8.453.5,13.831,13.831,0,0,1,12.478.008a7.89,7.89,0,0,1,.972.146c.237.039.472.1.711.125a4.723,4.723,0,0,1,1.68.5,11.956,11.956,0,0,1,2.5,1.616,9.3,9.3,0,0,1,2.313,3.16,13.719,13.719,0,0,1,1.1,3.944,30.534,30.534,0,0,1,.2,4.409,7.314,7.314,0,0,1-.884,3.126,4.43,4.43,0,0,1-1.16,1.454A8.5,8.5,0,0,1,18.1,19.873c-.612.285-1.239.542-1.872.776a9.946,9.946,0,0,1-3.521.634c-.111,0-.222-.006-.333-.01s-.211-.012-.334-.019M12.2,9.048V8.361h-.715v.683h.72v.729h.7v-.7c-.078,0-.146,0-.214,0L12.2,9.048m-9.338,0V8.361H2.151v.682h.72V9.77h.708c0-.18,0-.35,0-.52s0-.18-.177-.183-.356-.013-.535-.019M20.1,7.657a.548.548,0,0,0-.007-.171c-.194-.515-.367-1.04-.6-1.539a7.723,7.723,0,0,0-1.991-2.676,10.3,10.3,0,0,0-2.421-1.507,3.945,3.945,0,0,0-.82-.244c-.361-.079-.728-.133-1.094-.189a6.479,6.479,0,0,0-.918-.118,13.394,13.394,0,0,0-4.719.839A9.4,9.4,0,0,0,3.791,4.446,4.934,4.934,0,0,0,2.7,6.071c-.1.26-.152.536-.233.832H19.4V7.62c.206,0,.4,0,.584,0a.476.476,0,0,1,.119.035v.679h-.721v-.7H17.24c0,.194-.006.378,0,.562.005.114-.029.155-.147.15-.187-.009-.376,0-.579,0v.722h-.709v.713h-.723v.71H11.477V9.776H10.76V9.061h-.712V8.345H9.325v-.7H7.9c0,.2,0,.391,0,.58,0,.1-.027.131-.126.128-.193-.006-.386,0-.6,0v.72H6.46v.72H5.742V10.5H2.132c0,.044-.009.075-.01.107a11.39,11.39,0,0,0,.1,2.036,7.055,7.055,0,0,0,.836,2.544,8.332,8.332,0,0,0,3.21,3.077A14.363,14.363,0,0,0,10.139,19.7a11.732,11.732,0,0,0,2.606.373,9.4,9.4,0,0,0,3.4-.676,6.8,6.8,0,0,0,2.562-1.456,4.412,4.412,0,0,1,.4-.36,3.3,3.3,0,0,0,1-1.328c.061-.145.13-.287.189-.432a4.748,4.748,0,0,0,.443-1.754c.006-.907,0-1.815-.035-2.722a15.347,15.347,0,0,0-.528-3.564.577.577,0,0,0-.079-.128M1.433,8.336h.7V7.631h-.7Zm10.037-.7h-.695v.7h.695Z" transform="translate(0 0)" fill="#484848" stroke="#484848" stroke-width="0.5"/>
        <path id="Path_968360" data-name="Path 968360" d="M66.746,191.521a6.569,6.569,0,0,1-3.064-.84,5.465,5.465,0,0,1-1.4-1.168.6.6,0,1,1,.911-.792,4.569,4.569,0,0,0,2.9,1.519,4.832,4.832,0,0,0,1.822-.016,3.509,3.509,0,0,0,2.149-1.47.615.615,0,0,1,.681-.286.6.6,0,0,1,.34.933,4.713,4.713,0,0,1-2.121,1.752,5.242,5.242,0,0,1-2.215.368" transform="translate(-57.738 -175.179)" fill="#484848" stroke="#484848" stroke-width="0.5"/>
      </g>
    </g>
  </g>
</svg>
