<svg id="Group_377020" data-name="Group 377020" xmlns="http://www.w3.org/2000/svg" xmlns:xlink="http://www.w3.org/1999/xlink" width="37.426" height="36.268" viewBox="0 0 37.426 36.268">
  <defs>
    <clipPath id="clip-path">
      <rect id="Rectangle_352455" data-name="Rectangle 352455" width="37.426" height="36.268" fill="#fff" stroke="#fff" stroke-width="0.5"/>
    </clipPath>
  </defs>
  <g id="Group_377019" data-name="Group 377019" clip-path="url(#clip-path)">
    <path id="Path_968359" data-name="Path 968359" d="M20.518,36.218a14.464,14.464,0,0,1-2.473-.369,32.2,32.2,0,0,1-5.633-1.619,19.209,19.209,0,0,1-6.682-4.293,13.826,13.826,0,0,1-3.935-7.862,26.643,26.643,0,0,1-.112-6.138q.015-.189.027-.378a.538.538,0,0,0-.016-.1l-.484-.023V14.231H0V11.772c.089,0,.173-.012.258-.012.56,0,1.121-.006,1.681,0,.159,0,.22-.051.239-.209a9.768,9.768,0,0,1,3.178-5.8A19.557,19.557,0,0,1,14.4.848a23.569,23.569,0,0,1,6.86-.834,13.445,13.445,0,0,1,1.656.248c.4.067.8.173,1.211.213a8.048,8.048,0,0,1,2.863.849,20.374,20.374,0,0,1,4.263,2.754A15.851,15.851,0,0,1,35.2,9.463a23.377,23.377,0,0,1,1.875,6.721,52.031,52.031,0,0,1,.347,7.513,12.464,12.464,0,0,1-1.506,5.327A7.548,7.548,0,0,1,33.938,31.5a14.485,14.485,0,0,1-3.092,2.363c-1.042.486-2.111.924-3.19,1.322a16.948,16.948,0,0,1-6,1.08c-.189,0-.379-.01-.568-.018s-.359-.02-.569-.032m.279-20.8V14.247H19.578v1.164H20.8v1.242H22v-1.2c-.132,0-.249,0-.365,0-.28-.009-.56-.022-.841-.033m-15.912,0V14.247H3.665V15.41H4.893v1.239H6.1c0-.307,0-.6,0-.885,0-.311,0-.306-.3-.312s-.607-.022-.912-.033m29.367-2.37a.934.934,0,0,0-.011-.291c-.33-.878-.625-1.772-1.015-2.623a13.16,13.16,0,0,0-3.393-4.561,17.545,17.545,0,0,0-4.126-2.568,6.723,6.723,0,0,0-1.4-.416c-.616-.134-1.241-.226-1.864-.322a11.041,11.041,0,0,0-1.564-.2A22.824,22.824,0,0,0,12.84,3.5a16.024,16.024,0,0,0-6.381,4.08A8.407,8.407,0,0,0,4.6,10.346c-.165.444-.259.914-.4,1.418H33.055v1.221c.351,0,.673,0,1,0a.811.811,0,0,1,.2.059v1.158H33.026v-1.19H29.377c0,.33-.011.645,0,.958.009.194-.049.265-.25.255-.319-.015-.64,0-.987,0v1.229H26.937v1.215H25.705v1.21H19.557V16.659H18.335V15.441H17.123v-1.22H15.89v-1.2H13.464c0,.344-.007.667,0,.989.005.164-.046.223-.214.218-.329-.011-.658,0-1.015,0v1.227H11.009v1.226H9.785V17.9H3.633c-.007.074-.015.128-.017.182a19.409,19.409,0,0,0,.176,3.47,12.022,12.022,0,0,0,1.424,4.335,14.2,14.2,0,0,0,5.47,5.243,24.475,24.475,0,0,0,6.589,2.445,19.993,19.993,0,0,0,4.44.636,16.016,16.016,0,0,0,5.792-1.152,11.582,11.582,0,0,0,4.366-2.481,7.517,7.517,0,0,1,.689-.613,5.614,5.614,0,0,0,1.7-2.264c.1-.247.221-.489.323-.737a8.091,8.091,0,0,0,.756-2.989c.01-1.546,0-3.093-.06-4.638a26.152,26.152,0,0,0-.9-6.073.983.983,0,0,0-.135-.217M2.442,14.205h1.2V13h-1.2Zm17.1-1.19H18.361v1.192h1.184Z" transform="translate(0 0)" fill="#fff" stroke="#fff" stroke-width="0.5"/>
    <path id="Path_968360" data-name="Path 968360" d="M70.008,193.685a11.194,11.194,0,0,1-5.221-1.431,9.312,9.312,0,0,1-2.389-1.991,1.03,1.03,0,1,1,1.553-1.35,7.786,7.786,0,0,0,4.941,2.588,8.234,8.234,0,0,0,3.1-.027,5.979,5.979,0,0,0,3.662-2.505,1.048,1.048,0,0,1,1.161-.488,1.028,1.028,0,0,1,.579,1.591,8.032,8.032,0,0,1-3.615,2.986,8.933,8.933,0,0,1-3.775.626" transform="translate(-54.659 -165.837)" fill="#fff" stroke="#fff" stroke-width="0.5"/>
  </g>
</svg>
