<svg xmlns="http://www.w3.org/2000/svg" width="40" height="38.982" viewBox="0 0 40 38.982">
  <g id="Group_377153" data-name="Group 377153" transform="translate(-763 -2302.018)">
    <path id="Path_969467" data-name="Path 969467" d="M36,9.677V8.1a6.077,6.077,0,0,0-7.9-5.8L8.793,9.4,8.781,9.4A9.514,9.514,0,0,0,2,18.5v13A9.511,9.511,0,0,0,11.5,41h21A9.511,9.511,0,0,0,42,31.5v-13a9.509,9.509,0,0,0-6-8.823ZM29.047,5.144A3.08,3.08,0,0,1,33,8.1v.928C32.833,9.017,32.669,9,32.5,9H18.561ZM39,31.5A6.508,6.508,0,0,1,32.5,38h-21A6.508,6.508,0,0,1,5,31.5v-13A6.508,6.508,0,0,1,11.5,12h21A6.508,6.508,0,0,1,39,18.5Z" transform="translate(761 2300)" fill="#fff"/>
    <path id="Path_969468" data-name="Path 969468" d="M30,19H28.649A3.5,3.5,0,0,0,25.5,17h-9A3.5,3.5,0,0,0,13,20.5V24a8,8,0,0,0,4.136,7H14.5a1.5,1.5,0,0,0,0,3h13a1.5,1.5,0,0,0,0-3H24.864a8.042,8.042,0,0,0,3.569-4.061,1.481,1.481,0,0,0,.4.061H30a4,4,0,0,0,0-8Zm-4,5a5,5,0,1,1-10,0V20.5a.5.5,0,0,1,.5-.5h9a.5.5,0,0,1,.5.5Zm4,0H29V22h1a1,1,0,0,1,0,2Z" transform="translate(761 2300)" fill="#fff"/>
  </g>
</svg>
