<?xml version="1.0" encoding="utf-8"?>
<!-- Generator: Adobe Illustrator 26.4.0, SVG Export Plug-In . SVG Version: 6.00 Build 0)  -->
<svg version="1.1" id="SXmock_VideoMerge_18_N" xmlns="http://www.w3.org/2000/svg" xmlns:xlink="http://www.w3.org/1999/xlink"
	 x="0px" y="0px" viewBox="0 0 18 18" style="enable-background:new 0 0 18 18;" xml:space="preserve">
<g id="ICONS">
	<path id="Path_600478" d="M14.9,18H9.1C7.4,18,6,16.6,6,14.9V12H3.1C1.4,12,0,10.6,0,8.9V3.1C0,1.4,1.4,0,3.1,0h5.8
		C10.6,0,12,1.4,12,3.1V6h2.9C16.6,6,18,7.4,18,9.1v5.8C18,16.6,16.6,18,14.9,18z M3.1,2C2.5,2,2,2.5,2,3.1v5.8C2,9.5,2.5,10,3.1,10
		H6c1.1,0,2,0.9,2,2v2.9C8,15.5,8.5,16,9.1,16h5.8c0.6,0,1.1-0.5,1.1-1.1V9.1C16,8.5,15.5,8,14.9,8H12c-1.1,0-2-0.9-2-2V3.1
		C10,2.5,9.5,2,8.9,2H3.1z"/>
	<path id="Path_600479" d="M11,13.4v-2.8c0-0.3,0.2-0.5,0.4-0.5c0.1,0,0.2,0,0.3,0.1l2,1.4c0.2,0.2,0.3,0.5,0.1,0.8
		c0,0-0.1,0.1-0.1,0.1l-2,1.4c-0.2,0.1-0.5,0.1-0.7-0.2C11,13.6,11,13.5,11,13.4z"/>
	<path id="Path_600480" d="M5,7.4V4.6c0-0.3,0.2-0.5,0.4-0.5c0.1,0,0.2,0,0.3,0.1l2,1.4C8,5.7,8.1,6.1,7.9,6.3c0,0-0.1,0.1-0.1,0.1
		l-2,1.4C5.5,8,5.2,7.9,5.1,7.7C5,7.6,5,7.5,5,7.4z"/>
	<circle id="Ellipse_24869" cx="8.2" cy="9.8" r="0.8"/>
	<circle id="Ellipse_24870" cx="9.8" cy="8.2" r="0.8"/>
</g>
</svg>
