<svg xmlns="http://www.w3.org/2000/svg" width="18" height="18" viewBox="0 0 18 18">
  <g id="Group_377124" data-name="Group 377124" transform="translate(12028 18971.42)">
    <path id="Path_600662" data-name="Path 600662" d="M14.892,18H9.108A3.112,3.112,0,0,1,6,14.892V12H3.108A3.112,3.112,0,0,1,0,8.892V3.108A3.112,3.112,0,0,1,3.108,0H8.892A3.112,3.112,0,0,1,12,3.108V6h2.892A3.112,3.112,0,0,1,18,9.108v5.783A3.112,3.112,0,0,1,14.892,18ZM3.108,2A1.109,1.109,0,0,0,2,3.108V8.892A1.109,1.109,0,0,0,3.108,10H6a2,2,0,0,1,2,2v2.892A1.109,1.109,0,0,0,9.108,16h5.783A1.109,1.109,0,0,0,16,14.892V9.108A1.109,1.109,0,0,0,14.892,8H12a2,2,0,0,1-2-2V3.108A1.109,1.109,0,0,0,8.892,2Z" transform="translate(-12028 -18971.42)" fill="#444"/>
    <path id="Path_600663" data-name="Path 600663" d="M11,13.4V10.6a.48.48,0,0,1,.733-.446l2.042,1.4a.555.555,0,0,1,0,.893l-2.042,1.4A.48.48,0,0,1,11,13.4Z" transform="translate(-12028 -18971.42)" fill="#444"/>
    <path id="Path_600664" data-name="Path 600664" d="M5,7.4V4.6a.48.48,0,0,1,.733-.446l2.042,1.4a.555.555,0,0,1,0,.893l-2.042,1.4A.48.48,0,0,1,5,7.4Z" transform="translate(-12028 -18971.42)" fill="#444"/>
    <circle id="Ellipse_25522" data-name="Ellipse 25522" cx="0.75" cy="0.75" r="0.75" transform="translate(-12020.5 -18962.42)" fill="#444"/>
    <circle id="Ellipse_25523" data-name="Ellipse 25523" cx="0.75" cy="0.75" r="0.75" transform="translate(-12019 -18963.92)" fill="#444"/>
  </g>
</svg>
