<svg xmlns="http://www.w3.org/2000/svg" width="22" height="22" viewBox="0 0 22 22">
  <g id="SXmock_Newsletter_22_N" transform="translate(11 11)">
    <g id="Group_772" data-name="Group 772" transform="translate(-11 -11)">
      <rect id="SX_Newsletter_22_N" width="22" height="22" fill="none" opacity="0.05"/>
      <path id="Path_602500" data-name="Path 602500" d="M11,6H7A1,1,0,0,1,7,4h4a1,1,0,0,1,0,2Zm3,2a1,1,0,0,0-1-1H7A1,1,0,0,0,7,9h6A1,1,0,0,0,14,8Zm8,3v4a7.009,7.009,0,0,1-7,7H7a6.979,6.979,0,0,1-4.934-2.041l-.015-.01-.01-.015A6.979,6.979,0,0,1,0,15V11.091A7.053,7.053,0,0,1,1.785,6.33.978.978,0,0,1,2,6.17V3.934A4.14,4.14,0,0,1,6.311,0h9.378A4.14,4.14,0,0,1,20,3.934V6.11A6.94,6.94,0,0,1,22,11ZM4,9.438,7.932,12.55a4.881,4.881,0,0,0,5.932,0L18,9.276V3.934A2.149,2.149,0,0,0,15.689,2H6.311A2.149,2.149,0,0,0,4,3.934ZM2.833,17.753,6.566,14.02,2.379,10.7a.967.967,0,0,1-.308-.475A4.943,4.943,0,0,0,2,11v4A4.969,4.969,0,0,0,2.833,17.753Zm14.92,1.414L13.582,15a6.62,6.62,0,0,1-5.226.062L4.247,19.167A4.969,4.969,0,0,0,7,20h8A4.969,4.969,0,0,0,17.753,19.167ZM20,11.078a5.464,5.464,0,0,0-.088-.932,1,1,0,0,1-.291.4L15.344,13.93l3.823,3.823A4.969,4.969,0,0,0,20,15Z" fill="#fff"/>
    </g>
  </g>
</svg>
