<svg xmlns="http://www.w3.org/2000/svg" width="33" height="33" viewBox="0 0 33 33">
  <g id="Group_377122" data-name="Group 377122" transform="translate(-747.5)">
    <g id="Ellipse_25638" data-name="Ellipse 25638" transform="translate(747.5)" fill="none" stroke="#000" stroke-width="2.5" opacity="0.348">
      <circle cx="16.5" cy="16.5" r="16.5" stroke="none"/>
      <circle cx="16.5" cy="16.5" r="15.25" fill="none"/>
    </g>
    <g id="SX_Close_22_S" transform="translate(753 5.4)" opacity="0.35">
      <g id="SMOCK">
        <rect id="Canvas" width="22" height="22" fill="rgba(255,19,220,0)"/>
      </g>
      <g id="ICONS" transform="translate(3.5 3.499)">
        <path id="Path_126085" data-name="Path 126085" d="M18.061,3.939a1.5,1.5,0,0,0-2.122,0L11,8.879,6.061,3.939A1.5,1.5,0,1,0,3.939,6.061L8.879,11l-4.94,4.939a1.5,1.5,0,1,0,2.122,2.122L11,13.121l4.939,4.94a1.5,1.5,0,0,0,2.122-2.122L13.121,11l4.94-4.939a1.5,1.5,0,0,0,0-2.122Z" transform="translate(-3.5 -3.499)" fill="currentColor"/>
      </g>
    </g>
  </g>
</svg>
