<svg xmlns="http://www.w3.org/2000/svg" width="18.311" height="18.311" viewBox="0 0 18.311 18.311">
  <g id="SXmock_OrderUp_18_N" transform="matrix(1, 0.017, -0.017, 1, 0.314, 0)">
    <g id="SMOCK">
      <rect id="Canvas" width="18" height="18" fill="rgba(255,19,220,0)"/>
    </g>
    <g id="ICONS">
      <path id="Path_129006" data-name="Path 129006" d="M18,6a2.99,2.99,0,0,0-1.359-2.511l-3-1.961a3,3,0,0,0-3.282,0l-3,1.961a3,3,0,0,0,0,5.021L8.106,9l-.749.489a3,3,0,0,0,0,5.021l3,1.961a3,3,0,0,0,3.282,0l3-1.961a3,3,0,0,0,0-5.021L15.892,9l.749-.489A2.99,2.99,0,0,0,18,6Zm-2.453,5.163a1,1,0,0,1,0,1.674l-3,1.961a1,1,0,0,1-1.093,0l-3-1.961a1,1,0,0,1,0-1.674l1.482-.969.424.277a3,3,0,0,0,3.282,0l.425-.278Zm0-4.326L13.524,8.158l-.036.023-.943.616a1,1,0,0,1-1.092,0h0l-.937-.612-.047-.031L8.451,6.837a1,1,0,0,1,0-1.674l3-1.961a1,1,0,0,1,1.093,0l3,1.961a1,1,0,0,1,0,1.674Z"/>
      <path id="Path_129007" data-name="Path 129007" d="M8.452,12.837l3,1.961a1,1,0,0,0,1.093,0l3-1.961a1,1,0,0,0,0-1.674l-1.482-.969-.425.278a3,3,0,0,1-3.282,0l-.424-.277-1.482.969a1,1,0,0,0,0,1.674Z" opacity="0.3"/>
      <path id="Path_129008" data-name="Path 129008" d="M5.707,8.293l-2-2a1,1,0,0,0-1.414,0l-2,2A1,1,0,1,0,1.707,9.707L2,9.414V15a1,1,0,0,0,2,0V9.414l.293.293A1,1,0,1,0,5.707,8.293Z"/>
    </g>
  </g>
</svg>
