<svg xmlns="http://www.w3.org/2000/svg" width="18.311" height="18.311" viewBox="0 0 18.311 18.311">
  <g id="SXmock_OrderDown_18_N" transform="matrix(1, 0.017, -0.017, 1, 0.314, 0)">
    <g id="SMOCK">
      <rect id="Canvas" width="18" height="18" fill="rgba(255,19,220,0)"/>
    </g>
    <g id="ICONS">
      <path id="Path_129000" data-name="Path 129000" d="M16.641,9.489,15.892,9l.749-.489a3,3,0,0,0,0-5.021l-3-1.961a3,3,0,0,0-3.282,0l-3,1.961a3,3,0,0,0,0,5.021L8.106,9l-.749.489a3,3,0,0,0,0,5.021l3,1.961a3,3,0,0,0,3.282,0l3-1.961a3,3,0,0,0,0-5.021ZM8.451,5.163l3-1.961a1,1,0,0,1,1.093,0l3,1.961a1,1,0,0,1,0,1.674L13.524,8.158l-.035.023-.943.616a1,1,0,0,1-1.092,0h0l-.937-.612-.047-.031L8.451,6.837a1,1,0,0,1,0-1.674Zm7.1,7.674-3,1.961a1,1,0,0,1-1.093,0l-3-1.961a1,1,0,0,1,0-1.674l1.482-.969.424.277a3,3,0,0,0,3.282,0l.425-.278,1.482.969a1,1,0,0,1,0,1.674Z"/>
      <path id="Path_129001" data-name="Path 129001" d="M13.524,8.158l2.023-1.322a1,1,0,0,0,0-1.674l-3-1.961a1,1,0,0,0-1.093,0l-3,1.961a1,1,0,0,0,0,1.674l2.017,1.318.047.031.937.612h0a1,1,0,0,0,1.092,0l.943-.616Z" opacity="0.3"/>
      <path id="Path_129002" data-name="Path 129002" d="M5.707,8.293a1,1,0,0,0-1.414,0L4,8.586V3A1,1,0,1,0,2,3V8.586l-.293-.293A1,1,0,1,0,.293,9.707l2,2a1,1,0,0,0,1.414,0l2-2a1,1,0,0,0,0-1.414Z"/>
    </g>
  </g>
</svg>
