<svg xmlns="http://www.w3.org/2000/svg" width="16" height="16.001" viewBox="0 0 16 16.001">
  <g id="ICONS" transform="translate(-1 -0.999)">
    <path id="Path_607233" data-name="Path 607233" d="M8,2A1,1,0,0,1,7,3,2,2,0,0,0,5,5v.086l.293-.293A1,1,0,1,1,6.707,6.206l-2,2a1,1,0,0,1-1.414,0l-2-2A1,1,0,0,1,2.707,4.792L3,5.085V5A4,4,0,0,1,7,1,1,1,0,0,1,8,2ZM6.97,17a1,1,0,1,0-1-1A1,1,0,0,0,6.97,17ZM3.89,17a.992.992,0,1,0-.7-.319,1,1,0,0,0,.7.319ZM2,15.019a1,1,0,0,0,1-1.01A1.015,1.015,0,0,0,2,13a1,1,0,0,0-1,1v.03a1,1,0,0,0,1,.989ZM2.27,12a1,1,0,1,0-.87-1.5,1.01,1.01,0,0,0,.37,1.37A.994.994,0,0,0,2.27,12ZM8,11a.995.995,0,1,0-.709-.291A1,1,0,0,0,8,11ZM4.95,11a1,1,0,1,0-1-1,1,1,0,0,0,1,1ZM17,4V14a3,3,0,0,1-3,3H12a2.965,2.965,0,0,1-1.274-.294A1,1,0,1,1,9.307,15.3,2.964,2.964,0,0,1,9,14V4a3,3,0,0,1,3-3h2a3,3,0,0,1,3,3ZM15,4a1,1,0,0,0-1-1H12a1,1,0,0,0-1,1V14a1,1,0,0,0,1,1h2a1,1,0,0,0,1-1Z"/>
  </g>
</svg>
