<svg xmlns="http://www.w3.org/2000/svg" width="48" height="48" viewBox="0 0 48 48">
  <g id="AX_EDU_Educator_fvp_graphic_organizer_icon" transform="translate(-912.625 -676)">
    <circle id="Ellipse_25570" data-name="Ellipse 25570" cx="24" cy="24" r="24" transform="translate(912.625 676)" fill="#242424"/>
    <g id="SXmock_Notebook_22_N" transform="translate(936.625 700)">
      <g id="SXmock_Notebook_22_N-2" data-name="SXmock_Notebook_22_N" transform="translate(-11 -11)">
        <rect id="Canvas" width="22" height="22" fill="#fff" opacity="0"/>
        <g id="ICONS">
          <path id="Path_602497" data-name="Path 602497" d="M15,0H7A5.006,5.006,0,0,0,2,5V6H1A1,1,0,0,0,1,8H2v6H1a1,1,0,0,0,0,2H2v1a5.006,5.006,0,0,0,5,5h8a5.006,5.006,0,0,0,5-5V5a5.006,5.006,0,0,0-5-5Zm3,17a3,3,0,0,1-3,3H7a3,3,0,0,1-3-3V5A3,3,0,0,1,7,2h8a3,3,0,0,1,3,3ZM13,4H9A3,3,0,0,0,6,7V8a3,3,0,0,0,3,3h4a3,3,0,0,0,3-3V7a3,3,0,0,0-3-3Zm1,4a1,1,0,0,1-1,1H9A1,1,0,0,1,8,8V7A1,1,0,0,1,9,6h4a1,1,0,0,1,1,1Z" fill="#fff"/>
        </g>
      </g>
    </g>
  </g>
</svg>
