<svg xmlns="http://www.w3.org/2000/svg" width="26.815" height="25.325" viewBox="0 0 26.815 25.325">
  <g id="Group_474670" data-name="Group 474670" transform="translate(-2.983 -3.725)">
    <path id="Path_1067764" data-name="Path 1067764" d="M30.82,12.076A7.084,7.084,0,0,0,23.744,5H11.082a7.084,7.084,0,0,0-7.076,7.076V23.249a7.084,7.084,0,0,0,7.076,7.076H23.744a7.084,7.084,0,0,0,7.076-7.076ZM28.586,23.249a4.847,4.847,0,0,1-4.842,4.842H11.082A4.847,4.847,0,0,1,6.24,23.249V12.076a4.847,4.847,0,0,1,4.842-4.842H23.744a4.847,4.847,0,0,1,4.842,4.842Z" transform="translate(-1.022 -1.275)" fill="#FFFFFF"/>
    <rect id="Rectangle_550842" data-name="Rectangle 550842" width="3" height="10" rx="1.5" transform="translate(12.387 11.387)" fill="#FFFFFF"/>
    <rect id="Rectangle_550843" data-name="Rectangle 550843" width="3" height="10" rx="1.5" transform="translate(17.387 11.387)" fill="#FFFFFF"/>
  </g>
</svg>
