<svg xmlns="http://www.w3.org/2000/svg" width="26.814" height="25.324" viewBox="0 0 26.814 25.324">
  <g id="Group_474673" data-name="Group 474673" transform="translate(5394.403 22451.662)">
    <g id="Group_474670" data-name="Group 474670" transform="translate(0 41)">
      <g id="Group_474671" data-name="Group 474671">
        <g id="Group_474670-2" data-name="Group 474670">
          <path id="Path_1067764" data-name="Path 1067764" d="M30.82,12.076A7.084,7.084,0,0,0,23.744,5H11.082a7.084,7.084,0,0,0-7.076,7.076V23.249a7.084,7.084,0,0,0,7.076,7.076H23.744a7.084,7.084,0,0,0,7.076-7.076ZM28.586,23.249a4.847,4.847,0,0,1-4.842,4.842H11.082A4.847,4.847,0,0,1,6.24,23.249V12.076a4.847,4.847,0,0,1,4.842-4.842H23.744a4.847,4.847,0,0,1,4.842,4.842Z" transform="translate(-5398.409 -22497.662)" fill="#FFF"/>
          <rect id="Rectangle_550842" data-name="Rectangle 550842" width="3" height="10" rx="1.5" transform="translate(-5385 -22485)" fill="#FFF"/>
          <rect id="Rectangle_550843" data-name="Rectangle 550843" width="3" height="10" rx="1.5" transform="translate(-5380 -22485)" fill="#FFF"/>
        </g>
      </g>
    </g>
  </g>
</svg>
