<svg id="SX_Image_22_N" xmlns="http://www.w3.org/2000/svg" width="22" height="22" viewBox="0 0 22 22">
  <g id="SMOCK">
    <rect id="Canvas" width="22" height="22" fill="rgba(255,19,220,0)"/>
  </g>
  <g id="ICONS">
    <circle id="Ellipse_24600" data-name="Ellipse 24600" cx="1.5" cy="1.5" r="1.5" transform="translate(14 6)" fill="#484848"/>
    <path id="Path_125891" data-name="Path 125891" d="M16,2H6A5.006,5.006,0,0,0,1,7v8a5.006,5.006,0,0,0,5,5H16a5.006,5.006,0,0,0,5-5V7A5.006,5.006,0,0,0,16,2ZM6,4H16a3,3,0,0,1,3,3v7.285l-1.829-1.829a2.249,2.249,0,0,0-3.179,0l-1.209,1.209L8.777,9.658a2.3,2.3,0,0,0-3.178,0L3,12.257V7A3,3,0,0,1,6,4ZM16,18H6a3,3,0,0,1-3-2.986.919.919,0,0,0,.206-.136l3.806-3.806a.251.251,0,0,1,.35,0l4.713,4.714a1,1,0,0,0,1.414,0l1.916-1.916a.25.25,0,0,1,.351,0l2.757,2.757A3,3,0,0,1,16,18Z" fill="#484848"/>
  </g>
</svg>
