<svg xmlns="http://www.w3.org/2000/svg" width="58" height="58" viewBox="0 0 58 58">
  <path id="Path_607201" data-name="Path 607201" d="M30,1A29,29,0,0,0,19.433,57.006a27.644,27.644,0,0,1,.1-8.316c.533-2.266,3.4-14.409,3.4-14.409a10.414,10.414,0,0,1-.87-4.3c0-4.035,2.331-7.047,5.245-7.047,2.469,0,3.668,1.86,3.668,4.089,0,2.494-1.584,6.21-2.4,9.653a4.216,4.216,0,0,0,4.292,5.245c5.155,0,9.12-5.441,9.12-13.278,0-6.945-4.984-11.8-12.111-11.8-8.247,0-13.1,6.184-13.1,12.586a11.261,11.261,0,0,0,2.164,6.616.871.871,0,0,1,.207.826c-.218.917-.714,2.889-.8,3.284-.127.533-.42.645-.975.384C13.745,38.849,11.48,33.556,11.48,29.3c0-9.153,6.648-17.545,19.154-17.545,10.059,0,17.879,7.17,17.879,16.755,0,9.991-6.3,18.034-15.044,18.034-2.936,0-5.7-1.53-6.652-3.331,0,0-1.45,5.539-1.8,6.9a32.651,32.651,0,0,1-3.6,7.6A29,29,0,1,0,30,1Z" transform="translate(-1 -1)" fill="#fff"/>
</svg>
