<svg id="SX_Video_18_N" xmlns="http://www.w3.org/2000/svg" width="18" height="18" viewBox="0 0 18 18">
  <g id="SMOCK">
    <rect id="Canvas" width="18" height="18" fill="rgba(255,19,220,0)"/>
  </g>
  <g id="ICONS">
    <path id="Path_119850" data-name="Path 119850" d="M13,0H5A5.006,5.006,0,0,0,0,5v7a5.006,5.006,0,0,0,5,5h8a5.006,5.006,0,0,0,5-5V5a5.006,5.006,0,0,0-5-5Zm3,12a3,3,0,0,1-3,3H5a3,3,0,0,1-3-3V5A3,3,0,0,1,5,2h8a3,3,0,0,1,3,3Z" fill="#484848"/>
    <path id="Path_119851" data-name="Path 119851" d="M12.474,7.574,7.711,4.668A1.119,1.119,0,0,0,6,5.593v5.813a1.119,1.119,0,0,0,1.711.926l4.764-2.907a1.078,1.078,0,0,0,0-1.851Z" fill="#484848"/>
  </g>
</svg>
