<svg xmlns="http://www.w3.org/2000/svg" width="26.814" height="25.324" viewBox="0 0 26.814 25.324">
  <g id="Group_474672" data-name="Group 474672" transform="translate(5394.403 22402.662)">
    <path id="Path_1068131" data-name="Path 1068131" d="M30.82,12.076A7.084,7.084,0,0,0,23.744,5H11.082a7.084,7.084,0,0,0-7.076,7.076V23.249a7.084,7.084,0,0,0,7.076,7.076H23.744a7.084,7.084,0,0,0,7.076-7.076ZM28.586,23.249a4.847,4.847,0,0,1-4.842,4.842H11.082A4.847,4.847,0,0,1,6.24,23.249V12.076a4.847,4.847,0,0,1,4.842-4.842H23.744a4.847,4.847,0,0,1,4.842,4.842Z" transform="translate(-5398.409 -22407.662)" fill="#FFF"/>
    <path id="Path_1068132" data-name="Path 1068132" d="M25.122,18.938l-5.976-3.722A1.4,1.4,0,0,0,17,16.4v7.445a1.4,1.4,0,0,0,2.146,1.185l5.976-3.722a1.4,1.4,0,0,0,0-2.371Z" transform="translate(-5401.391 -22410.123)" fill="#FFF"/>
  </g>
</svg>
