<svg id="Group_444658" data-name="Group 444658" xmlns="http://www.w3.org/2000/svg" width="18" height="17" viewBox="0 0 18 17">
  <path id="Path_601899" data-name="Path 601899" d="M13,0H5A5.006,5.006,0,0,0,0,5v7a5.006,5.006,0,0,0,5,5h8a5.006,5.006,0,0,0,5-5V5a5.006,5.006,0,0,0-5-5Zm3,12a3,3,0,0,1-3,3H5a3,3,0,0,1-3-3V5A3,3,0,0,1,5,2h8a3,3,0,0,1,3,3Z"/>
  <path id="Path_601900" data-name="Path 601900" d="M12.474,7.574,7.711,4.668A1.119,1.119,0,0,0,6,5.593v5.813a1.119,1.119,0,0,0,1.711.926l4.764-2.907a1.078,1.078,0,0,0,0-1.851Z"/>
</svg>
