<svg id="SX_IlluVideo_44_S" xmlns="http://www.w3.org/2000/svg" width="44" height="44" viewBox="0 0 44 44">
  <g id="SLMOCK">
    <rect id="Canvas" width="44" height="44" fill="rgba(255,19,220,0)"/>
  </g>
  <g id="Illu">
    <path id="Path_127429" data-name="Path 127429" d="M40.006,14.5a9.511,9.511,0,0,0-9.5-9.5h-17a9.511,9.511,0,0,0-9.5,9.5v15a9.511,9.511,0,0,0,9.5,9.5h17a9.511,9.511,0,0,0,9.5-9.5ZM28.1,23.62l-8.167,5.087A1.917,1.917,0,0,1,17,27.087V16.913a1.917,1.917,0,0,1,2.933-1.62L28.1,20.38a1.907,1.907,0,0,1,0,3.24Z" fill="#fff"/>
  </g>
</svg>
