<svg xmlns="http://www.w3.org/2000/svg" width="22" height="22" viewBox="0 0 22 22">
  <g id="Group_377129" data-name="Group 377129" transform="translate(12126.999 18698.67)">
    <g id="SXmock_Poster_22_N" transform="translate(-12115.999 -18687.67)">
      <g id="SXmock_Poster_22_N-2" data-name="SXmock_Poster_22_N" transform="translate(-11 -11)">
        <rect id="Canvas" width="22" height="22" fill="#ff13dc" opacity="0"/>
        <path id="Path_968353" data-name="Path 968353" d="M15.98,3.1A.9.9,0,0,0,16,3V1a1,1,0,1,0-2,0V3H8V1A1,1,0,1,0,6,1V3a.9.9,0,0,0,.02.1A5.007,5.007,0,0,0,2,8v9a5.006,5.006,0,0,0,5,5h8a5.006,5.006,0,0,0,5-5V8a5.007,5.007,0,0,0-4.02-4.9ZM18,17a3,3,0,0,1-3,3H7a3,3,0,0,1-3-3V8A3,3,0,0,1,7,5h8a3,3,0,0,1,3,3Z" fill="#444"/>
        <path id="Path_968354" data-name="Path 968354" d="M15,13H7a1,1,0,0,0,0,2h8a1,1,0,0,0,0-2Z" fill="#444"/>
        <path id="Path_968355" data-name="Path 968355" d="M13,16H9a1,1,0,0,0,0,2h4a1,1,0,0,0,0-2Z" fill="#444"/>
        <path id="Path_968356" data-name="Path 968356" d="M6.655,11h8.689c.583,0,.874-.579.462-.917L13.462,8.157a.759.759,0,0,0-.925,0L11.166,9.284l-1.7-2.126a.759.759,0,0,0-.925,0L6.193,10.083C5.781,10.421,6.073,11,6.655,11Z" fill="#444"/>
      </g>
    </g>
  </g>
</svg>
