<svg id="SX_IlluPoster_44_N" xmlns="http://www.w3.org/2000/svg" width="20.455" height="23.839" viewBox="0 0 20.455 23.839">
  <g id="Illu">
    <path id="Path_127324" data-name="Path 127324" d="M10.852,29.7H22.784a.852.852,0,0,0,0-1.7H10.852a.852.852,0,1,0,0,1.7Z" transform="translate(-6.591 -12.115)"/>
    <path id="Path_127325" data-name="Path 127325" d="M21.966,33H16.852a.852.852,0,1,0,0,1.7h5.114a.852.852,0,1,0,0-1.7Z" transform="translate(-9.182 -14.274)"/>
    <path id="Path_127326" data-name="Path 127326" d="M9.4,23.882h9.659a5.4,5.4,0,0,0,5.4-5.4V8.825A5.385,5.385,0,0,0,20.726,3.69a.843.843,0,0,0-.249-.037v-.51a.852.852,0,0,0-.852-.852h-.876V.871a.828.828,0,1,0-1.656,0v1.42h-.876a.852.852,0,0,0-.852.852v.284H13.091V3.143a.852.852,0,0,0-.852-.852h-.876V.871a.828.828,0,1,0-1.656,0v1.42H8.83a.852.852,0,0,0-.852.852v.5a.847.847,0,0,0-.211.036A5.378,5.378,0,0,0,4,8.825v9.659a5.4,5.4,0,0,0,5.4,5.4ZM17.068,4h1.7V5.132h-1.7ZM9.682,4h1.7V5.132h-1.7ZM5.7,8.825a3.671,3.671,0,0,1,2.273-3.4v.557a.852.852,0,0,0,.852.852h3.409a.852.852,0,0,0,.852-.852V5.132h2.273v.852a.852.852,0,0,0,.852.852h3.409a.852.852,0,0,0,.852-.852V5.427a3.675,3.675,0,0,1,2.273,3.4v9.659a3.7,3.7,0,0,1-3.693,3.693H9.4A3.7,3.7,0,0,1,5.7,18.484Z" transform="translate(-4 -0.042)"/>
    <path id="Path_127327" data-name="Path 127327" d="M11.379,20.838H22.743a.852.852,0,0,0,.684-1.361l-2.494-3.357a.806.806,0,0,0-.689-.344.853.853,0,0,0-.685.352l-1.619,2.235-1.857-3.6a.843.843,0,0,0-.13-.186,1.744,1.744,0,0,0-2.5,0,.872.872,0,0,0-.117.162l-2.7,4.832a.852.852,0,0,0,.744,1.267Zm8.878-2.769.791,1.064H19.486Zm-5.562-2.278,1.723,3.342H12.83Z" transform="translate(-6.818 -6.09)"/>
  </g>
</svg>
