<svg xmlns="http://www.w3.org/2000/svg" width="44" height="44" viewBox="0 0 44 44"><rect width="44" height="44" fill="rgba(255,19,220,0)"/><path d="M11.5,19A7.508,7.508,0,0,0,19,11.5V5h9.5A6.508,6.508,0,0,1,35,11.5v4a1.5,1.5,0,0,0,3,0v-4A9.511,9.511,0,0,0,28.5,2H18.127a7.521,7.521,0,0,0-5.511,2.413L3.989,13.759A7.48,7.48,0,0,0,2,18.846V30.5A9.511,9.511,0,0,0,11.5,40h5a1.5,1.5,0,0,0,0-3h-5A6.508,6.508,0,0,1,5,30.5V19ZM14.82,6.448A4.466,4.466,0,0,1,16,5.562V11.5A4.5,4.5,0,0,1,11.5,16H6.036c.055-.067.1-.142.157-.206Z" fill="#444"/><path d="M32,20A12,12,0,1,0,44,32,12,12,0,0,0,32,20Zm0,21a9,9,0,1,1,9-9A9,9,0,0,1,32,41Z" fill="#444"/><g transform="translate(27.012 27.14)"><path d="M3.663,9.39h6.652a.554.554,0,0,0,.549-.479c.116-.837.977-3.654,1.109-4.6a.554.554,0,0,0-.85-.542A13.638,13.638,0,0,0,9.751,4.819c-.254.214-.5.417-.742.6-.2-.356-.4-.735-.6-1.114-.312-.59-.625-1.182-.948-1.7a.576.576,0,0,0-.943,0c-.331.537-.652,1.14-.968,1.739-.195.368-.388.734-.582,1.077-.242-.185-.487-.39-.74-.6A13.934,13.934,0,0,0,2.856,3.763a.554.554,0,0,0-.849.544c.133.959.993,3.771,1.109,4.6a.554.554,0,0,0,.547.479Z" transform="translate(-2.001 -2.36)" fill="#444"/><path d="M10.627,14H4.213a.713.713,0,1,0,0,1.425h6.414a.713.713,0,0,0,0-1.425Z" transform="translate(-2.432 -5.705)" fill="#444"/></g></svg>