<svg id="Group_377076" data-name="Group 377076" xmlns="http://www.w3.org/2000/svg" xmlns:xlink="http://www.w3.org/1999/xlink" width="44" height="44" viewBox="0 0 44 44">
  <defs>
    <clipPath id="clip-path">
      <rect id="Rectangle_303322" data-name="Rectangle 303322" width="44" height="44" rx="9.808" fill="#000b1d"/>
    </clipPath>
  </defs>
  <g id="Layer_2" data-name="Layer 2">
    <g id="Surfaces">
      <g id="Utility_Surface" data-name="Utility Surface">
        <g id="Outline_no_shadow_copy_7" data-name="Outline no shadow copy 7">
          <g id="Mask_Group_181141" data-name="Mask Group 181141" clip-path="url(#clip-path)">
            <g id="Layer_2-2" data-name="Layer 2" transform="translate(0 0.55)">
              <g id="Surfaces-2" data-name="Surfaces">
                <g id="Video_Audio_Surface" data-name="Video/Audio Surface">
                  <g id="Outline_no_shadow" data-name="Outline no shadow">
                    <rect id="Rectangle_353024" data-name="Rectangle 353024" width="44" height="42.9" rx="7.792" fill="#00005b"/>
                  </g>
                </g>
              </g>
              <g id="Outlined_Mnemonics_Logos" data-name="Outlined Mnemonics &amp; Logos">
                <g id="Ru">
                  <path id="Path_941550" data-name="Path 941550" d="M11.124,30.25H7.611c-.158,0-.236-.089-.236-.266v-18.7q0-.266.177-.266,1.033-.029,1.771-.044l1.417-.03q.679-.015,1.4-.015h1.609a10.952,10.952,0,0,1,4.162.694A5.637,5.637,0,0,1,20.5,13.629a5.584,5.584,0,0,1,.9,3.232,5.136,5.136,0,0,1-.472,2.214,5.555,5.555,0,0,1-1.3,1.756,6.386,6.386,0,0,1-1.919,1.2q.295.384.826,1.166T19.7,24.933q.634.96,1.269,1.933t1.151,1.8c.344.551.605.914.782,1.229a.322.322,0,0,1,.074.236.12.12,0,0,1-.133.118h-4.28a.617.617,0,0,1-.266-.044.38.38,0,0,1-.148-.133c-.217-.315-.487-.657-.812-1.169s-.669-1.082-1.033-1.712-.728-1.249-1.092-1.86-.684-1.161-.959-1.653a1.972,1.972,0,0,0-.339-.4.589.589,0,0,0-.369-.1H11.36v6.807Q11.36,30.25,11.124,30.25Zm.236-10.556h2.3a5.933,5.933,0,0,0,1.933-.28,2.559,2.559,0,0,0,1.255-.871,2.39,2.39,0,0,0,.443-1.476,2.117,2.117,0,0,0-1-1.963,5.113,5.113,0,0,0-2.656-.605q-.708,0-1.314.015t-.959.044Z" fill="#99f"/>
                  <path id="Path_941551" data-name="Path 941551" d="M37.019,15.984v11.06q0,.738.015,1.314c.01.384-.039.719-.009,1s.054.456.074.653c.019.158-.049.236-.207.236H33.733a.346.346,0,0,1-.354-.207,3.054,3.054,0,0,1-.1-.387,2.644,2.644,0,0,1-.044-.457,5.268,5.268,0,0,1-2.066,1.136,7.986,7.986,0,0,1-2.037.28,6.088,6.088,0,0,1-1.992-.31,3.887,3.887,0,0,1-1.564-1,4.728,4.728,0,0,1-1.033-1.771,7.806,7.806,0,0,1-.3-2.545v-8.9c0-.157.078-.3.236-.3h3.493a.209.209,0,0,1,.236.236v8.433a3.071,3.071,0,0,0,.6,1.9,2.092,2.092,0,0,0,1.771.694,3.349,3.349,0,0,0,1.24-.221,3.9,3.9,0,0,0,1.033-.605V15.984c0-.137.089-.207.266-.207h3.7a.183.183,0,0,1,.207.207Z" fill="#99f"/>
                </g>
              </g>
            </g>
          </g>
        </g>
      </g>
    </g>
  </g>
</svg>
