<svg xmlns="http://www.w3.org/2000/svg" xmlns:xlink="http://www.w3.org/1999/xlink" width="44" height="44" viewBox="0 0 44 44">
  <defs>
    <clipPath id="clip-path">
      <rect id="Rectangle_42" data-name="Rectangle 42" width="44" height="44" fill="none"/>
    </clipPath>
    <clipPath id="clip-Import">
      <rect width="44" height="44"/>
    </clipPath>
  </defs>
  <g id="Import" clip-path="url(#clip-Import)">
    <g id="Group_379135" data-name="Group 379135" transform="translate(-259 -839)">
      <g id="Group_39" data-name="Group 39" transform="translate(259 839)" opacity="0">
        <g id="Group_38" data-name="Group 38">
          <g id="Group_37" data-name="Group 37" clip-path="url(#clip-path)">
            <rect id="Rectangle_41" data-name="Rectangle 41" width="44" height="44"/>
          </g>
        </g>
      </g>
      <path id="Path_301" data-name="Path 301" d="M17.917,33.444l-10.66,0a6.329,6.329,0,0,1-4.59-2.256A7.672,7.672,0,0,1,1,26.195,7.209,7.209,0,0,1,2.774,21.3a5.91,5.91,0,0,1,2.573-1.667,8.844,8.844,0,0,1,1.745-6.656,8.639,8.639,0,0,1,2.984-2.439,7.828,7.828,0,0,1,3.616-.826,9.753,9.753,0,0,1,1.355.1,10.439,10.439,0,0,1,3.095-4.363A10.872,10.872,0,0,1,24.8,3.017a10.953,10.953,0,0,1,4.235.643,9.628,9.628,0,0,1,3.748,2.346,10.16,10.16,0,0,1,3.071,7.412c0,.161-.008.343-.021.546a7.472,7.472,0,0,1,5.1,3.074A11.628,11.628,0,0,1,43,23.941a9.858,9.858,0,0,1-2.207,6.542,1.5,1.5,0,0,1-2.276-1.955A6.92,6.92,0,0,0,40,23.941a8.632,8.632,0,0,0-1.483-5.117A4.459,4.459,0,0,0,35.1,16.91a6.926,6.926,0,0,0-.8,0l-1.873.165.256-1.863a14.65,14.65,0,0,0,.173-1.821v-.06a7.142,7.142,0,0,0-2.246-5.253,7.724,7.724,0,0,0-5.644-2.061l-.047,0a7.908,7.908,0,0,0-4.859,1.74,7.645,7.645,0,0,0-2.525,4.16l-.37,1.543L15.642,13a6.8,6.8,0,0,0-1.965-.289h-.04a5.283,5.283,0,0,0-4.175,2.106,6.205,6.205,0,0,0-.893,5.633l.54,1.909H7.126C5.573,22.359,4,23.677,4,26.195a4.726,4.726,0,0,0,.972,3.071A3.311,3.311,0,0,0,7.38,30.444H17.917a1.5,1.5,0,1,1,0,3Z" transform="translate(259 839)" fill="#444"/>
      <path id="Line_2" data-name="Line 2" d="M4.843,8.217l-6-7.262L1.156-.955l6,7.262Z" transform="translate(289.068 867.957)" fill="#444"/>
      <path id="Line_3" data-name="Line 3" d="M1.435,6.29-1.435,5.42.341-.435,3.211.435Z" transform="translate(282.48 868.979)" fill="#444"/>
      <path id="Ellipse_34" data-name="Ellipse 34" d="M4.5-1.5a6,6,0,1,1-6,6A6.007,6.007,0,0,1,4.5-1.5Zm0,9a3,3,0,1,0-3-3A3,3,0,0,0,4.5,7.5Z" transform="translate(281.379 860.281)" fill="#444"/>
      <path id="Ellipse_35" data-name="Ellipse 35" d="M3-1.5A4.5,4.5,0,1,1-1.5,3,4.505,4.505,0,0,1,3-1.5Zm0,6A1.5,1.5,0,1,0,1.5,3,1.5,1.5,0,0,0,3,4.5Z" transform="translate(293.334 873.774)" fill="#444"/>
      <path id="Ellipse_36" data-name="Ellipse 36" d="M3-1.5A4.5,4.5,0,1,1-1.5,3,4.505,4.505,0,0,1,3-1.5Zm0,6A1.5,1.5,0,1,0,1.5,3,1.5,1.5,0,0,0,3,4.5Z" transform="translate(278.629 875)" fill="#444"/>
      <path id="Line_4" data-name="Line 4" d="M.1,2.059-.1-.933,8.039-1.5,8.245,1.5Z" transform="translate(284.911 878)" fill="#444"/>
    </g>
  </g>
</svg>
