<svg xmlns="http://www.w3.org/2000/svg" xmlns:xlink="http://www.w3.org/1999/xlink" width="44" height="44" viewBox="0 0 44 44">
  <defs>
    <clipPath id="clip-path">
      <rect id="Rectangle_303334" data-name="Rectangle 303334" width="40.005" height="38" fill="none"/>
    </clipPath>
    <clipPath id="clip-One_Click_Tasks">
      <rect width="44" height="44"/>
    </clipPath>
  </defs>
  <g id="One_Click_Tasks" data-name="One Click Tasks" clip-path="url(#clip-One_Click_Tasks)">
    <g id="Group_379136" data-name="Group 379136" transform="translate(21382 8790)">
      <rect id="Rectangle_303335" data-name="Rectangle 303335" width="44" height="44" transform="translate(-21382 -8790)" fill="none"/>
      <g id="Group_376744" data-name="Group 376744" transform="translate(-21380 -8787)">
        <g id="Group_376742" data-name="Group 376742" clip-path="url(#clip-path)">
          <path id="Path_1050456" data-name="Path 1050456" d="M3.228,25.757A14.023,14.023,0,0,0,6.878,28a19.86,19.86,0,0,0,2.982.989v.693A3.312,3.312,0,0,0,13.175,33a3.25,3.25,0,0,0,2.047-.74A7.506,7.506,0,0,0,22.5,38h10a7.509,7.509,0,0,0,7.5-7.5v-10a7.509,7.509,0,0,0-7.5-7.5H25V11.559a1.5,1.5,0,1,0-3,0V14.5A1.5,1.5,0,0,0,23.5,16h9a4.505,4.505,0,0,1,4.5,4.5v10a4.505,4.505,0,0,1-4.5,4.5h-10A4.5,4.5,0,0,1,18,30.5v-1c0-.042,3.124-3.263,3.124-3.263.022-.022.043-.045.064-.068a3.176,3.176,0,0,0,.453-3.654,1.456,1.456,0,0,0,1.737-.478A7.459,7.459,0,0,0,24.517,19.9a1.5,1.5,0,0,0-2.841-.963,4.5,4.5,0,0,1-.68,1.28,1.492,1.492,0,0,0-.288,1.131L15.532,16l-.049-.049A3.27,3.27,0,0,0,13.173,15a3.335,3.335,0,0,0-2.379,1,3.3,3.3,0,0,0-.935,2.315v.669a9.692,9.692,0,0,1-1.245.126l-.206,0a5.308,5.308,0,0,1-1.5-.2,6.609,6.609,0,0,1-1.765-.841,3.321,3.321,0,0,0-4.6,4.6A14.727,14.727,0,0,0,2.3,24.886C2.6,25.193,2.91,25.486,3.228,25.757ZM3.1,20.621a.308.308,0,0,1,.392-.044,9.588,9.588,0,0,0,2.578,1.216,8.326,8.326,0,0,0,2.341.324c.1,0,.191,0,.287,0a21.585,21.585,0,0,0,4.165-.686V18.315a.313.313,0,0,1,.088-.221A.337.337,0,0,1,13.173,18a.283.283,0,0,1,.2.088l5.6,5.789a.2.2,0,0,1,0,.27l-5.6,5.765a.282.282,0,0,1-.2.088.338.338,0,0,1-.227-.095.317.317,0,0,1-.088-.222v-3.1a24.319,24.319,0,0,1-4.806-1.34,11.152,11.152,0,0,1-2.88-1.766q-.378-.324-.718-.675a11.8,11.8,0,0,1-1.4-1.767.334.334,0,0,1,.039-.412" fill="#444"/>
          <path id="Path_1050457" data-name="Path 1050457" d="M15.505,3h1.906a1.516,1.516,0,0,0,1.518-1.5A1.485,1.485,0,0,0,17.446,0H15.505a1.5,1.5,0,1,0,0,3" fill="#444"/>
          <path id="Path_1050458" data-name="Path 1050458" d="M7.505,3H9.411a1.5,1.5,0,0,0,0-3H7.47A1.486,1.486,0,0,0,5.987,1.5,1.516,1.516,0,0,0,7.505,3" fill="#444"/>
          <path id="Path_1050459" data-name="Path 1050459" d="M21.748,6.292a1.5,1.5,0,0,0,1.444,1.1,1.516,1.516,0,0,0,.4-.055,1.5,1.5,0,0,0,1.044-1.847,7.443,7.443,0,0,0-1.018-2.195,1.5,1.5,0,1,0-2.48,1.686,4.466,4.466,0,0,1,.607,1.312" fill="#444"/>
          <path id="Path_1050460" data-name="Path 1050460" d="M1.321,7.336A1.5,1.5,0,0,0,3.168,6.292,4.466,4.466,0,0,1,3.775,4.98a1.5,1.5,0,0,0-2.48-1.686A7.443,7.443,0,0,0,.277,5.489,1.5,1.5,0,0,0,1.321,7.336" fill="#444"/>
          <path id="Path_1050461" data-name="Path 1050461" d="M1.5,15a1.5,1.5,0,0,0,1.5-1.5V11.559a1.5,1.5,0,0,0-3,0V13.5A1.5,1.5,0,0,0,1.5,15" fill="#444"/>
        </g>
      </g>
    </g>
  </g>
</svg>
