<svg xmlns="http://www.w3.org/2000/svg" xmlns:xlink="http://www.w3.org/1999/xlink" width="44" height="44" viewBox="0 0 44 44">
  <defs>
    <clipPath id="clip-Collaborate">
      <rect width="44" height="44"/>
    </clipPath>
  </defs>
  <g id="Collaborate" clip-path="url(#clip-Collaborate)">
    <g id="SX_Users_44_N" transform="translate(2)">
      <path id="Path_1050517" data-name="Path 1050517" d="M16.5,41a1.5,1.5,0,0,1-1.366-2.118A13.833,13.833,0,0,1,27.6,30.6a13.833,13.833,0,0,1,12.467,8.281,1.5,1.5,0,1,1-2.734,1.236A10.828,10.828,0,0,0,27.6,33.6a10.827,10.827,0,0,0-9.733,6.519A1.5,1.5,0,0,1,16.5,41Z" fill="#222"/>
      <path id="Path_1050518" data-name="Path 1050518" d="M27.7,28a9,9,0,1,1,9-9A9.01,9.01,0,0,1,27.7,28Zm0-15a6,6,0,1,0,6,6A6.007,6.007,0,0,0,27.7,13Z" fill="#222"/>
      <path id="Path_1050519" data-name="Path 1050519" d="M1.5,33.75A1.5,1.5,0,0,1,.152,31.591,14.933,14.933,0,0,1,13.525,23.35a1.5,1.5,0,1,1,0,3,11.916,11.916,0,0,0-10.678,6.56A1.5,1.5,0,0,1,1.5,33.75Z" fill="#222"/>
      <path id="Path_1050520" data-name="Path 1050520" d="M12.6,20.8A8.9,8.9,0,1,1,20.346,7.515,1.5,1.5,0,1,1,17.736,9,5.9,5.9,0,1,0,12.6,17.8a1.5,1.5,0,0,1,0,3Z" fill="#222"/>
    </g>
  </g>
</svg>
