<svg xmlns="http://www.w3.org/2000/svg" xmlns:xlink="http://www.w3.org/1999/xlink" width="44" height="44" viewBox="0 0 44 44">
  <defs>
    <clipPath id="clip-Calendar">
      <rect width="44" height="44"/>
    </clipPath>
  </defs>
  <g id="Calendar" clip-path="url(#clip-Calendar)">
    <g id="Group_379071" data-name="Group 379071" transform="translate(20869 8987)">
      <rect id="Rectangle_353028" data-name="Rectangle 353028" width="44" height="44" transform="translate(-20869 -8987)" fill="none"/>
      <g id="Group_379070" data-name="Group 379070" transform="translate(-21637 -10378.251)">
        <g id="Group_310900" data-name="Group 310900" transform="translate(657 -17.249)">
          <path id="Rectangle_303177" data-name="Rectangle 303177" d="M7,3A4,4,0,0,0,3,7V29a4,4,0,0,0,4,4H32a4,4,0,0,0,4-4V7a4,4,0,0,0-4-4H7M7,0H32a7,7,0,0,1,7,7V29a7,7,0,0,1-7,7H7a7,7,0,0,1-7-7V7A7,7,0,0,1,7,0Z" transform="translate(114 1413)" fill="#444"/>
          <path id="Line_84997" data-name="Line 84997" d="M37,1.5H0v-3H37Z" transform="translate(114.5 1427.5)" fill="#444"/>
        </g>
        <g id="Group_310901" data-name="Group 310901" transform="translate(657 -17.249)">
          <rect id="Rectangle_303179" data-name="Rectangle 303179" width="3" height="3" rx="1" transform="translate(122 1432)" fill="#444"/>
          <rect id="Rectangle_303180" data-name="Rectangle 303180" width="3" height="3" rx="1" transform="translate(132 1432)" fill="#444"/>
          <rect id="Rectangle_303181" data-name="Rectangle 303181" width="3" height="3" rx="1" transform="translate(142 1432)" fill="#444"/>
        </g>
        <g id="Group_310902" data-name="Group 310902" transform="translate(657 -11.249)">
          <rect id="Rectangle_303179-2" data-name="Rectangle 303179" width="3" height="3" rx="1" transform="translate(122 1432)" fill="#444"/>
          <rect id="Rectangle_303180-2" data-name="Rectangle 303180" width="3" height="3" rx="1" transform="translate(132 1432)" fill="#444"/>
          <rect id="Rectangle_303181-2" data-name="Rectangle 303181" width="3" height="3" rx="1" transform="translate(142 1432)" fill="#444"/>
        </g>
        <path id="Line_84998" data-name="Line 84998" d="M0,8.5A1.5,1.5,0,0,1-1.5,7V0A1.5,1.5,0,0,1,0-1.5,1.5,1.5,0,0,1,1.5,0V7A1.5,1.5,0,0,1,0,8.5Z" transform="translate(785.5 1394.251)" fill="#444"/>
        <path id="Line_84999" data-name="Line 84999" d="M0,8.5A1.5,1.5,0,0,1-1.5,7V0A1.5,1.5,0,0,1,0-1.5,1.5,1.5,0,0,1,1.5,0V7A1.5,1.5,0,0,1,0,8.5Z" transform="translate(795.5 1394.251)" fill="#444"/>
      </g>
    </g>
  </g>
</svg>
