<svg xmlns="http://www.w3.org/2000/svg" xmlns:xlink="http://www.w3.org/1999/xlink" width="44" height="44" viewBox="0 0 44 44">
  <defs>
    <clipPath id="clip-Features">
      <rect width="44" height="44"/>
    </clipPath>
  </defs>
  <g id="Features" clip-path="url(#clip-Features)">
    <g id="SXmock_QuickActions_44_N">
      <g id="SLMOCK">
        <rect id="Canvas" width="44" height="44" fill="rgba(255,19,220,0)"/>
      </g>
      <g id="ICONS">
        <path id="Path_129377" data-name="Path 129377" d="M26,21a1.5,1.5,0,0,0-.943-1.393l-6.9-2.761-2.761-6.9a1.5,1.5,0,0,0-2.785,0l-2.763,6.9-6.9,2.761a1.5,1.5,0,0,0,0,2.785l6.9,2.763,2.763,6.9a1.5,1.5,0,0,0,2.785,0l2.761-6.9,6.9-2.763A1.5,1.5,0,0,0,26,21Zm-9.558,1.608a1.5,1.5,0,0,0-.835.836L14,27.461l-1.608-4.019a1.5,1.5,0,0,0-.835-.835L7.539,21l4.018-1.606a1.5,1.5,0,0,0,.836-.835L14,14.539l1.606,4.018a1.5,1.5,0,0,0,.836.836L20.461,21Z" fill="#484848"/>
        <path id="Path_129378" data-name="Path 129378" d="M39.013,10.589l-4.842-1.76L32.41,3.987a1.5,1.5,0,0,0-2.82,0L27.829,8.829l-4.842,1.76a1.5,1.5,0,0,0,0,2.819l4.842,1.762,1.761,4.843a1.5,1.5,0,0,0,2.82,0l1.761-4.843,4.842-1.762a1.5,1.5,0,0,0,0-2.819Zm-6.525,2a1.5,1.5,0,0,0-.9.9L31,15.11l-.59-1.623a1.5,1.5,0,0,0-.9-.9L27.89,12l1.623-.59a1.5,1.5,0,0,0,.9-.9L31,8.89l.59,1.623a1.5,1.5,0,0,0,.9.9L34.11,12Z" fill="#484848"/>
        <path id="Path_129379" data-name="Path 129379" d="M39.013,30.589l-4.842-1.76L32.41,23.987a1.5,1.5,0,0,0-2.82,0l-1.761,4.842-4.842,1.76a1.5,1.5,0,0,0,0,2.819l4.842,1.762,1.761,4.843a1.5,1.5,0,0,0,2.82,0l1.761-4.843,4.842-1.762a1.5,1.5,0,0,0,0-2.819Zm-6.525,2a1.5,1.5,0,0,0-.9.9L31,35.11l-.59-1.623a1.5,1.5,0,0,0-.9-.9L27.89,32l1.623-.59a1.5,1.5,0,0,0,.9-.9L31,28.89l.59,1.623a1.5,1.5,0,0,0,.9.9L34.11,32Z" fill="#484848"/>
      </g>
    </g>
  </g>
</svg>
