<svg xmlns="http://www.w3.org/2000/svg" xmlns:xlink="http://www.w3.org/1999/xlink" width="44" height="44" viewBox="0 0 44 44">
  <defs>
    <clipPath id="clip-Motion">
      <rect width="44" height="44"/>
    </clipPath>
  </defs>
  <g id="Motion" clip-path="url(#clip-Motion)">
    <g id="SXmock_Animation_44_N">
      <rect id="Canvas" width="44" height="44" fill="#ff13dc" opacity="0"/>
      <path id="Path_187" data-name="Path 187" d="M5.071,12.811A1.547,1.547,0,0,1,3.7,11.981,6.146,6.146,0,0,1,6.276,3.7a6.118,6.118,0,0,1,8.267,2.58A1.546,1.546,0,0,1,11.8,7.72,3.025,3.025,0,0,0,7.716,6.44,3.048,3.048,0,0,0,6.44,10.548a1.546,1.546,0,0,1-1.369,2.263Z" fill="#444"/>
      <path id="Path_188" data-name="Path 188" d="M13.811,29.591a8.77,8.77,0,1,1,7.138-13.846,1.546,1.546,0,1,1-2.521,1.789A5.667,5.667,0,1,0,13.811,26.5a1.546,1.546,0,1,1,0,3.092Z" fill="#444"/>
      <path id="Path_189" data-name="Path 189" d="M29.454,41A11.57,11.57,0,1,1,41,29.43,11.571,11.571,0,0,1,29.454,41Zm0-20.049a8.479,8.479,0,1,0,8.454,8.479,8.476,8.476,0,0,0-8.454-8.479Z" fill="#444"/>
    </g>
  </g>
</svg>
