<svg xmlns="http://www.w3.org/2000/svg" xmlns:xlink="http://www.w3.org/1999/xlink" width="44" height="44" viewBox="0 0 44 44">
  <defs>
    <clipPath id="clip-path">
      <rect id="Rectangle_353021" data-name="Rectangle 353021" width="40" height="44" fill="none"/>
    </clipPath>
    <clipPath id="clip-Libraries">
      <rect width="44" height="44"/>
    </clipPath>
  </defs>
  <g id="Libraries" clip-path="url(#clip-Libraries)">
    <g id="Group_379061" data-name="Group 379061" transform="translate(19399 7962)">
      <rect id="Rectangle_353020" data-name="Rectangle 353020" width="44" height="44" transform="translate(-19399 -7962)" fill="none"/>
      <g id="Group_379059" data-name="Group 379059" transform="translate(-19397 -7962)">
        <g id="Group_379058" data-name="Group 379058" clip-path="url(#clip-path)">
          <path id="Path_1050499" data-name="Path 1050499" d="M30.5,0H9.5A9.511,9.511,0,0,0,0,9.5v25A9.511,9.511,0,0,0,9.5,44h21A9.511,9.511,0,0,0,40,34.5V9.5A9.511,9.511,0,0,0,30.5,0M37,34.5A6.508,6.508,0,0,1,30.5,41H9.5A6.508,6.508,0,0,1,3,34.5V9.5A6.508,6.508,0,0,1,9.5,3H20V19.828a1.467,1.467,0,0,0,2.493,1.007l2.34-2.267a1.491,1.491,0,0,1,2.067,0l2.3,2.24a1.467,1.467,0,0,0,2.5-1V3.115A6.507,6.507,0,0,1,37,9.5Z" fill="#444"/>
        </g>
      </g>
    </g>
  </g>
</svg>
