<svg xmlns="http://www.w3.org/2000/svg" xmlns:xlink="http://www.w3.org/1999/xlink" width="44" height="44" viewBox="0 0 44 44">
  <defs>
    <clipPath id="clip-Import_PDF">
      <rect width="44" height="44"/>
    </clipPath>
  </defs>
  <g id="Import_PDF" data-name="Import PDF" clip-path="url(#clip-Import_PDF)">
    <g id="SX_PDFExport_44_N" transform="translate(0 2.002)">
      <path id="Path_1050515" data-name="Path 1050515" d="M12.5,41A9.511,9.511,0,0,1,3,31.5V9.5A9.511,9.511,0,0,1,12.5,0H24.465a8.544,8.544,0,0,1,6.116,2.6l8.035,8.328A8.458,8.458,0,0,1,41,16.826V31.51a9.51,9.51,0,0,1-9.514,9.484L12.5,41Zm0-38A6.508,6.508,0,0,0,6,9.5v22A6.508,6.508,0,0,0,12.5,38l18.986-.006A6.507,6.507,0,0,0,38,31.51V16.826a5.47,5.47,0,0,0-1.542-3.818h0L28.423,4.68A5.53,5.53,0,0,0,24.465,3H12.5Z" fill="#222"/>
      <path id="Path_1050516" data-name="Path 1050516" d="M32.978,23.932c-.7-.778-2.053-1.173-4.008-1.173a20.629,20.629,0,0,0-3.237.288,16.33,16.33,0,0,1-1.865-2.237A20.53,20.53,0,0,1,22.7,18.947a19.406,19.406,0,0,0,1.037-5.375c0-1.645-.634-3.4-2.414-3.4a1.783,1.783,0,0,0-1.49.9c-.759,1.34-.455,4.1.757,6.9-.422,1.289-.882,2.545-1.445,3.936A35.666,35.666,0,0,1,17.513,25.4c-1.815.751-5.674,2.574-6.042,4.587A1.736,1.736,0,0,0,12,31.59a2.265,2.265,0,0,0,1.572.577c2.324,0,4.642-3.308,6.2-6.156.886-.31,1.792-.591,2.692-.836.988-.269,1.943-.49,2.843-.654a8.7,8.7,0,0,0,5.745,2.542c1.506,0,2.07-.671,2.275-1.236a1.934,1.934,0,0,0-.351-1.9ZM13.135,30.9a.529.529,0,0,1-.382-.14.583.583,0,0,1-.2-.562c.163-.882,1.858-2.155,4.385-3.315-1.488,2.462-2.952,4.018-3.807,4.018ZM20.79,11.643A.612.612,0,0,1,21.3,11.3c.563,0,.686.7.686,1.282a16.421,16.421,0,0,1-.738,4.054c-.945-2.574-.813-4.377-.462-4.995Zm3.3,11.717c-.639.138-1.3.3-1.968.48-.481.131-.969.274-1.457.427.259-.545.5-1.086.7-1.6.274-.679.531-1.357.766-2.021q.311.5.641.972a19.226,19.226,0,0,0,1.365,1.73l-.052.013Zm6.155,2.455a2.087,2.087,0,0,1-.509-.066,8.208,8.208,0,0,1-3.227-1.68,15.584,15.584,0,0,1,2.388-.189,8.335,8.335,0,0,1,1.591.126c.479.1,1.018.373.884,1.086A1.031,1.031,0,0,1,30.248,25.815Z" fill="#222"/>
    </g>
  </g>
</svg>
