<svg xmlns="http://www.w3.org/2000/svg" width="18.001" height="18" viewBox="0 0 18.001 18">
  <g id="SXmock_Announcement_18_S" transform="translate(0.001)">
    <g id="SMOCK">
      <rect id="Canvas" width="18" height="18" fill="rgba(255,19,220,0)"/>
    </g>
    <g id="ICONS">
      <path id="Path_600183" data-name="Path 600183" d="M16.139.8A2.024,2.024,0,0,0,14.245.592L11,2.024v9.951l3.3,1.454A2,2,0,0,0,17,11.557V2.443A2,2,0,0,0,16.139.8Z" fill="#5c5ce0"/>
      <path id="Path_600184" data-name="Path 600184" d="M9.98,14.1,9,11V3H3.824A3.919,3.919,0,0,0,0,7c0,1.713,1.1,3.592,2.593,4l2.015,5.137A2.873,2.873,0,1,0,9.98,14.1Z" fill="#5c5ce0"/>
    </g>
  </g>
</svg>
