<svg xmlns="http://www.w3.org/2000/svg" width="17.001" height="17.545" viewBox="0 0 17.001 17.545">
  <path id="SX_Promote_18_N" d="M16.139.8A2.024,2.024,0,0,0,14.245.592L8.789,3H3.824A3.919,3.919,0,0,0,0,7a3.991,3.991,0,0,0,2.489,3.735l2.119,5.4A2.873,2.873,0,1,0,9.98,14.1L8.748,11h.041L14.3,13.43A2,2,0,0,0,17,11.557V2.443A2,2,0,0,0,16.139.8ZM3.824,9A1.92,1.92,0,0,1,2,7,1.92,1.92,0,0,1,3.824,5H8V9Zm4.191,6.625a.9.9,0,0,1-1.54-.205L4.742,11H6.6l1.518,3.82a.863.863,0,0,1-.1.8ZM10,9.348v-4.7l5-2.208.053,9.135Z" transform="translate(0.001 -0.447)" fill="#444"/>
</svg>
