<svg xmlns="http://www.w3.org/2000/svg" width="36" height="36" viewBox="0 0 36 36">
  <g id="Group_315296" data-name="Group 315296" transform="translate(23713 23012)">
    <rect id="Rectangle_302299" data-name="Rectangle 302299" width="36" height="36" transform="translate(-23713 -23012)"/>
    <g id="Group_315295" data-name="Group 315295" transform="translate(42 -46)">
      <rect id="Rectangle_302312" data-name="Rectangle 302312" width="3" height="3" transform="translate(-23728 -22945)" fill="#fff"/>
      <rect id="Rectangle_302313" data-name="Rectangle 302313" width="3" height="3" transform="translate(-23731 -22945)" fill="#fff"/>
      <rect id="Rectangle_302314" data-name="Rectangle 302314" width="3" height="3" transform="translate(-23728 -22942)" fill="#fff"/>
      <rect id="Rectangle_302315" data-name="Rectangle 302315" width="3" height="3" transform="translate(-23734 -22942)" fill="#fff"/>
      <rect id="Rectangle_302316" data-name="Rectangle 302316" width="3" height="3" transform="translate(-23737 -22945)" fill="#fff"/>
      <rect id="Rectangle_302322" data-name="Rectangle 302322" width="3" height="3" transform="translate(-23752 -22942)" fill="#fff"/>
      <rect id="Rectangle_302323" data-name="Rectangle 302323" width="3" height="3" transform="translate(-23752 -22939)" fill="#fff"/>
      <rect id="Rectangle_302324" data-name="Rectangle 302324" width="3" height="3" transform="translate(-23746 -22939)" fill="#fff"/>
      <rect id="Rectangle_302325" data-name="Rectangle 302325" width="3" height="3" transform="translate(-23740 -22939)" fill="#fff"/>
      <rect id="Rectangle_302326" data-name="Rectangle 302326" width="3" height="3" transform="translate(-23737 -22939)" fill="#fff"/>
      <rect id="Rectangle_302327" data-name="Rectangle 302327" width="3" height="3" transform="translate(-23737 -22936)" fill="#fff"/>
      <rect id="Rectangle_302328" data-name="Rectangle 302328" width="3" height="3" transform="translate(-23740 -22936)" fill="#fff"/>
      <rect id="Rectangle_302329" data-name="Rectangle 302329" width="3" height="3" transform="translate(-23728 -22936)" fill="#fff"/>
      <rect id="Rectangle_302330" data-name="Rectangle 302330" width="3" height="3" transform="translate(-23725 -22936)" fill="#fff"/>
      <rect id="Rectangle_302331" data-name="Rectangle 302331" width="3" height="3" transform="translate(-23725 -22939)" fill="#fff"/>
      <rect id="Rectangle_302332" data-name="Rectangle 302332" width="3" height="3" transform="translate(-23728 -22939)" fill="#fff"/>
      <rect id="Rectangle_302333" data-name="Rectangle 302333" width="3" height="3" transform="translate(-23731 -22939)" fill="#fff"/>
      <rect id="Rectangle_302334" data-name="Rectangle 302334" width="3" height="3" transform="translate(-23752 -22936)" fill="#fff"/>
      <rect id="Rectangle_302335" data-name="Rectangle 302335" width="3" height="3" transform="translate(-23749 -22942)" fill="#fff"/>
      <rect id="Rectangle_302336" data-name="Rectangle 302336" width="3" height="3" transform="translate(-23749 -22936)" fill="#fff"/>
      <rect id="Rectangle_302337" data-name="Rectangle 302337" width="3" height="3" transform="translate(-23746 -22942)" fill="#fff"/>
      <rect id="Rectangle_302338" data-name="Rectangle 302338" width="3" height="3" transform="translate(-23746 -22936)" fill="#fff"/>
      <g id="Group_315291" data-name="Group 315291">
        <rect id="Rectangle_302303" data-name="Rectangle 302303" width="9" height="9" transform="translate(-23731 -22963)" fill="#fff"/>
        <rect id="Rectangle_302309" data-name="Rectangle 302309" width="3" height="3" transform="translate(-23728 -22951)" fill="#fff"/>
        <rect id="Rectangle_302310" data-name="Rectangle 302310" width="3" height="3" transform="translate(-23725 -22951)" fill="#fff"/>
        <rect id="Rectangle_302311" data-name="Rectangle 302311" width="3" height="3" transform="translate(-23725 -22948)" fill="#fff"/>
      </g>
      <g id="Group_315294" data-name="Group 315294">
        <rect id="Rectangle_302307" data-name="Rectangle 302307" width="3" height="3" transform="translate(-23737 -22954)" fill="#fff"/>
        <rect id="Rectangle_302308" data-name="Rectangle 302308" width="3" height="3" transform="translate(-23734 -22951)" fill="#fff"/>
        <g id="Group_315293" data-name="Group 315293">
          <rect id="Rectangle_302302" data-name="Rectangle 302302" width="9" height="9" transform="translate(-23752 -22963)" fill="#fff"/>
          <g id="Group_315292" data-name="Group 315292">
            <rect id="Rectangle_302317" data-name="Rectangle 302317" width="3" height="3" transform="translate(-23737 -22948)" fill="#fff"/>
            <rect id="Rectangle_302318" data-name="Rectangle 302318" width="3" height="3" transform="translate(-23740 -22948)" fill="#fff"/>
            <rect id="Rectangle_302319" data-name="Rectangle 302319" width="3" height="3" transform="translate(-23746 -22948)" fill="#fff"/>
            <rect id="Rectangle_302320" data-name="Rectangle 302320" width="3" height="3" transform="translate(-23749 -22948)" fill="#fff"/>
            <rect id="Rectangle_302321" data-name="Rectangle 302321" width="3" height="3" transform="translate(-23752 -22948)" fill="#fff"/>
            <rect id="Rectangle_302339" data-name="Rectangle 302339" width="3" height="3" transform="translate(-23746 -22951)" fill="#fff"/>
            <rect id="Rectangle_302340" data-name="Rectangle 302340" width="3" height="3" transform="translate(-23749 -22951)" fill="#fff"/>
          </g>
          <rect id="Rectangle_302304" data-name="Rectangle 302304" width="3" height="3" transform="translate(-23740 -22963)" fill="#fff"/>
          <rect id="Rectangle_302305" data-name="Rectangle 302305" width="3" height="3" transform="translate(-23740 -22960)" fill="#fff"/>
          <rect id="Rectangle_302306" data-name="Rectangle 302306" width="3" height="3" transform="translate(-23740 -22957)" fill="#fff"/>
          <rect id="Rectangle_302341" data-name="Rectangle 302341" width="3" height="3" transform="translate(-23737 -22963)" fill="#fff"/>
        </g>
        <rect id="Rectangle_302342" data-name="Rectangle 302342" width="3" height="3" transform="translate(-23749 -22960)"/>
        <rect id="Rectangle_302343" data-name="Rectangle 302343" width="3" height="3" transform="translate(-23728 -22960)"/>
      </g>
    </g>
  </g>
</svg>
