<svg id="SXmock_QuickActions_18_S" xmlns="http://www.w3.org/2000/svg" width="18" height="18" viewBox="0 0 18 18">
  <g id="SMOCK">
    <rect id="Canvas" width="18" height="18" fill="rgba(255,19,220,0)"/>
  </g>
  <g id="ICONS">
    <path id="Path_600595" data-name="Path 600595" d="M10,9a1.2,1.2,0,0,0-.755-1.114L7.009,6.991,6.115,4.755h0a1.2,1.2,0,0,0-2.229,0L2.991,6.991.754,7.886a1.2,1.2,0,0,0,0,2.229l2.236.895.9,2.237a1.2,1.2,0,0,0,2.229,0l.894-2.236,2.237-.9A1.2,1.2,0,0,0,10,9Z" fill="#5c5ce0"/>
    <path id="Path_600596" data-name="Path 600596" d="M16.217,2.882l-1.539-.56L14.118.783a1.19,1.19,0,0,0-2.236,0l-.56,1.539-1.538.559a1.19,1.19,0,0,0,0,2.237l1.539.56.559,1.538a1.19,1.19,0,0,0,2.237,0l.56-1.539,1.543-.561a1.19,1.19,0,0,0,0-2.235Z" fill="#5c5ce0"/>
    <path id="Path_600597" data-name="Path 600597" d="M16.217,11.882l-1.539-.56-.56-1.539a1.19,1.19,0,0,0-2.236,0l-.56,1.539-1.538.559a1.19,1.19,0,0,0,0,2.237l1.539.56.559,1.538a1.19,1.19,0,0,0,2.237,0l.56-1.539,1.543-.561a1.19,1.19,0,0,0,0-2.235Z" fill="#5c5ce0"/>
  </g>
</svg>
