<svg xmlns="http://www.w3.org/2000/svg" xmlns:xlink="http://www.w3.org/1999/xlink" width="59.141" height="11" viewBox="0 0 59.141 11">
  <defs>
    <clipPath id="clip-path">
      <path id="Path_961908" data-name="Path 961908" d="M0,0H7.141V11H0Z" transform="translate(201 648.542)" fill="#fff"/>
    </clipPath>
  </defs>
  <g id="Group_329354" data-name="Group 329354" transform="translate(-149 -648.542)">
    <path id="Path_961900" data-name="Path 961900" d="M7.512,2.95a.6.6,0,0,1,1.074,0l1.2,2.493a.6.6,0,0,0,.465.333l2.774.341a.6.6,0,0,1,.33,1.031L11.335,9a.6.6,0,0,0-.182.554l.523,2.67a.6.6,0,0,1-.867.64L8.332,11.531a.6.6,0,0,0-.565,0L5.29,12.863a.6.6,0,0,1-.867-.64l.523-2.67A.6.6,0,0,0,4.764,9l-2.02-1.85a.6.6,0,0,1,.33-1.031l2.774-.341a.6.6,0,0,0,.465-.333Z" transform="translate(146.45 645.93)" fill="#ebcf2d"/>
    <path id="Path_961901" data-name="Path 961901" d="M7.512,2.95a.6.6,0,0,1,1.074,0l1.2,2.493a.6.6,0,0,0,.465.333l2.774.341a.6.6,0,0,1,.33,1.031L11.335,9a.6.6,0,0,0-.182.554l.523,2.67a.6.6,0,0,1-.867.64L8.332,11.531a.6.6,0,0,0-.565,0L5.29,12.863a.6.6,0,0,1-.867-.64l.523-2.67A.6.6,0,0,0,4.764,9l-2.02-1.85a.6.6,0,0,1,.33-1.031l2.774-.341a.6.6,0,0,0,.465-.333Z" transform="translate(159.45 645.93)" fill="#ebcf2d"/>
    <path id="Path_961902" data-name="Path 961902" d="M7.512,2.95a.6.6,0,0,1,1.074,0l1.2,2.493a.6.6,0,0,0,.465.333l2.774.341a.6.6,0,0,1,.33,1.031L11.335,9a.6.6,0,0,0-.182.554l.523,2.67a.6.6,0,0,1-.867.64L8.332,11.531a.6.6,0,0,0-.565,0L5.29,12.863a.6.6,0,0,1-.867-.64l.523-2.67A.6.6,0,0,0,4.764,9l-2.02-1.85a.6.6,0,0,1,.33-1.031l2.774-.341a.6.6,0,0,0,.465-.333Z" transform="translate(172.45 645.93)" fill="#ebcf2d"/>
    <path id="Path_961903" data-name="Path 961903" d="M7.512,2.95a.6.6,0,0,1,1.074,0l1.2,2.493a.6.6,0,0,0,.465.333l2.774.341a.6.6,0,0,1,.33,1.031L11.335,9a.6.6,0,0,0-.182.554l.523,2.67a.6.6,0,0,1-.867.64L8.332,11.531a.6.6,0,0,0-.565,0L5.29,12.863a.6.6,0,0,1-.867-.64l.523-2.67A.6.6,0,0,0,4.764,9l-2.02-1.85a.6.6,0,0,1,.33-1.031l2.774-.341a.6.6,0,0,0,.465-.333Z" transform="translate(185.45 645.93)" fill="#ebcf2d"/>
    <g id="Mask_Group_181016" data-name="Mask Group 181016" clip-path="url(#clip-path)">
      <path id="Path_961904" data-name="Path 961904" d="M7.512,2.95a.6.6,0,0,1,1.074,0l1.2,2.493a.6.6,0,0,0,.465.333l2.774.341a.6.6,0,0,1,.33,1.031L11.335,9a.6.6,0,0,0-.182.554l.523,2.67a.6.6,0,0,1-.867.64L8.332,11.531a.6.6,0,0,0-.565,0L5.29,12.863a.6.6,0,0,1-.867-.64l.523-2.67A.6.6,0,0,0,4.764,9l-2.02-1.85a.6.6,0,0,1,.33-1.031l2.774-.341a.6.6,0,0,0,.465-.333Z" transform="translate(198.45 645.93)" fill="#ebcf2d"/>
    </g>
  </g>
</svg>
