<svg id="SXmock_PremiumRemoveBackground_44_N" xmlns="http://www.w3.org/2000/svg" width="44" height="44" viewBox="0 0 44 44">
  <g id="SLMOCK">
    <rect id="Canvas" width="44" height="44" fill="rgba(255,19,220,0)"/>
  </g>
  <g id="ICONS" transform="translate(2 1)">
    <path id="Path_130834" data-name="Path 130834" d="M32,20A12,12,0,1,0,44,32,12,12,0,0,0,32,20Zm0,21a9,9,0,1,1,9-9A9,9,0,0,1,32,41Z" transform="translate(-2 -1)" fill="#444"/>
    <path id="Path_130835" data-name="Path 130835" d="M36.513,28.465a.554.554,0,0,0-.379.084,13.616,13.616,0,0,0-1.372,1.05c-.254.214-.5.417-.742.6-.2-.356-.4-.735-.6-1.114-.312-.59-.625-1.182-.948-1.7a.576.576,0,0,0-.943,0c-.331.537-.652,1.14-.968,1.739-.195.368-.388.734-.582,1.077-.242-.185-.487-.39-.74-.6a13.922,13.922,0,0,0-1.372-1.058.554.554,0,0,0-.849.544c.133.959.993,3.771,1.109,4.6a.554.554,0,0,0,.547.479v0h6.652a.554.554,0,0,0,.549-.479c.116-.837.977-3.654,1.109-4.6A.554.554,0,0,0,36.513,28.465Z" transform="translate(-2 -1)" fill="#444"/>
    <path id="Path_130836" data-name="Path 130836" d="M35.207,35.435H28.793a.713.713,0,1,0-.053,1.425h6.467a.713.713,0,0,0,0-1.425Z" transform="translate(-2 -1)" fill="#444"/>
    <circle id="Ellipse_25335" data-name="Ellipse 25335" cx="2.5" cy="2.5" r="2.5" transform="translate(20 6)" fill="#444"/>
    <path id="Path_130837" data-name="Path 130837" d="M32,9.434A5.5,5.5,0,0,0,26.441,4H26V7.511A2.469,2.469,0,0,1,26.489,11H32Z" transform="translate(-2 -1)" fill="#444" opacity="0.3"/>
    <rect id="Rectangle_178199" data-name="Rectangle 178199" width="7" height="7" transform="translate(10 3)" fill="#444" opacity="0.3"/>
    <path id="Path_130838" data-name="Path 130838" d="M24.5,12a2.488,2.488,0,0,1-1.989-1H19v5.133l3.461,2.432,3.194-3.3A4.247,4.247,0,0,1,26,14.958v-3.47A2.478,2.478,0,0,1,24.5,12Z" transform="translate(-2 -1)" fill="#444" opacity="0.3"/>
    <path id="Path_130839" data-name="Path 130839" d="M5,17.542l4.428-4.428A3.686,3.686,0,0,1,12,12.034V11H5Z" transform="translate(-2 -1)" fill="#444" opacity="0.3"/>
    <path id="Path_130840" data-name="Path 130840" d="M26.441,1H10.559A8.506,8.506,0,0,0,2,9.434V20.566A8.506,8.506,0,0,0,10.559,29H14.5a1.5,1.5,0,1,0,0-3H10.559a5.538,5.538,0,0,1-5.443-4.332l6.434-6.434a.7.7,0,0,1,.993,0c.061.062,9.243,6.522,9.243,6.522a1.5,1.5,0,0,0,1.94-.185l4.085-4.22a1.306,1.306,0,0,1,1.39-.319l3.788,1.377A1.5,1.5,0,0,0,35,17V9.434A8.506,8.506,0,0,0,26.441,1ZM32,14.858l-1.775-.646a4.323,4.323,0,0,0-4.57,1.053l-3.194,3.3-7.9-5.554a3.709,3.709,0,0,0-5.129.1L5,17.542V9.434A5.5,5.5,0,0,1,10.559,4H26.441A5.5,5.5,0,0,1,32,9.434Z" transform="translate(-2 -1)" fill="#444"/>
  </g>
</svg>
