<svg id="ICONS" xmlns="http://www.w3.org/2000/svg" width="22" height="22" viewBox="0 0 22 22">
  <defs>
    <style>
      .fill, .fillMedium {
        fill: #444;
      }

      .fillMedium {
        opacity: 0.3;
      }
    </style>
  </defs>
  <circle class="fill" cx="15.5" cy="7.5" r="1.5"/>
  <path class="fill" d="M16,2H6A5.00588,5.00588,0,0,0,1,7v8a5.00589,5.00589,0,0,0,5,5H16a5.00589,5.00589,0,0,0,5-5V7A5.00588,5.00588,0,0,0,16,2ZM6,4H16a3.00328,3.00328,0,0,1,3,3v7.28515l-1.8291-1.8291a2.24919,2.24919,0,0,0-3.17871,0l-1.209,1.209L8.77734,9.6582a2.30074,2.30074,0,0,0-3.17871,0L3,12.25683V7A3.00328,3.00328,0,0,1,6,4ZM16,18H6a3.00239,3.00239,0,0,1-2.99854-2.9856.95678.95678,0,0,0,.20557-.13647L7.0127,11.07226a.24993.24993,0,0,1,.35058,0l4.71289,4.71387a.99963.99963,0,0,0,1.41406,0l1.916-1.916a.24994.24994,0,0,1,.35059,0L18.51367,16.627A2.99488,2.99488,0,0,1,16,18Z"/>
  <rect class="fillMedium" x="7" y="4" width="4" height="4"/>
  <path class="fillMedium" d="M16,4H15V6.0918A1.485,1.485,0,0,1,15.5,6,1.50007,1.50007,0,0,1,17,7.5a1.48448,1.48448,0,0,1-.0918.5H19V7A3.00328,3.00328,0,0,0,16,4Z"/>
  <path class="fillMedium" d="M17.1709,12.45605,19,14.28515V12H16.49854A2.2282,2.2282,0,0,1,17.1709,12.45605Z"/>
  <path class="fillMedium" d="M14.0918,8H11v3.88135L11.11865,12h3.5459A2.22317,2.22317,0,0,1,15,11.88452V8.9082A1.49573,1.49573,0,0,1,14.0918,8Z"/>
  <path class="fillMedium" d="M3,12.25683,5.59863,9.6582A2.21312,2.21312,0,0,1,7,9.03821V8H3Z"/>
</svg>
