<?xml version="1.0" encoding="utf-8"?>
<!-- Generator: Adobe Illustrator 26.4.0, SVG Export Plug-In . SVG Version: 6.00 Build 0)  -->
<svg version="1.1" id="SXmock_RemoveBackground_18_N"
	 xmlns="http://www.w3.org/2000/svg" xmlns:xlink="http://www.w3.org/1999/xlink" x="0px" y="0px" viewBox="0 0 18 18"
	 style="enable-background:new 0 0 18 18;" xml:space="preserve">
<style type="text/css">
	.st0{opacity:0.3;enable-background:new    ;}
</style>
<g id="ICONS">
	<circle id="Ellipse_24866" cx="12.5" cy="5.5" r="1.5"/>
	<path id="Path_129410" class="st0" d="M13,9c0.4,0.1,0.9,0.3,1.2,0.6l1.8,1.7V7h-3V9z"/>
	<path id="Path_129411" class="st0" d="M6.8,7.7L9,9.9V7H5.2C5.8,7,6.4,7.2,6.8,7.7L6.8,7.7z"/>
	<path id="Path_129412" class="st0" d="M5,7c0.1,0,0.1,0,0.2,0L5,7L5,7z"/>
	<path id="Path_129413" class="st0" d="M5,7V3C3.3,3,2,4.3,2,6v1H5z"/>
	<path id="Path_129414" d="M13,1H5C2.2,1,0,3.2,0,6v6c0,2.8,2.2,5,5,5h8c2.8,0,5-2.2,5-5V6C18,3.2,15.8,1,13,1z M5,3h8
		c1.7,0,3,1.3,3,3v5.3l-1.8-1.7c-0.9-0.9-2.3-0.9-3.1,0l-1.2,1.1l-3-3c-0.9-0.9-2.3-0.9-3.2,0L2,9.2V6C2,4.3,3.3,3,5,3z M13,15H5
		c-1.7,0-3-1.3-3-3v0l3-2.9C5.1,9,5.3,9,5.4,9.1l3.7,3.7c0.4,0.4,1,0.4,1.4,0l2-1.8c0.1-0.1,0.2-0.1,0.4,0l2.7,2.5
		C15,14.5,14,15,13,15z"/>
	<path id="Path_129415" class="st0" d="M11,5.5C11,4.7,11.7,4,12.5,4c0.2,0,0.3,0,0.5,0.1V3H9v4h3.5C11.7,7,11,6.3,11,5.5z"/>
	<path id="Path_129416" class="st0" d="M12.5,7H13V6.9C12.8,7,12.7,7,12.5,7z"/>
</g>
</svg>
