<svg xmlns="http://www.w3.org/2000/svg" width="22" height="22" viewBox="0 0 22 22">
  <g id="AX_EDU_Educator_fvp_book_cover_icon" transform="translate(11 11)">
    <g id="Group_761" data-name="Group 761" transform="translate(-11 -11)">
      <rect id="SX_StatisticGraphic_22_N" width="22" height="22" fill="none" opacity="0.05"/>
      <path id="Path_602481" data-name="Path 602481" d="M4.475,12.514a1,1,0,0,1-.659-1.753l3.7-3.232a2.215,2.215,0,0,1,2.552-.257L12.7,8.777a.211.211,0,0,0,.266-.045l3.588-4.1a1,1,0,1,1,1.506,1.316l-3.589,4.1a2.224,2.224,0,0,1-2.763.464L9.072,9.01a.215.215,0,0,0-.244.024l-3.7,3.233A1,1,0,0,1,4.475,12.514ZM22,6.746v8.508A5.753,5.753,0,0,1,16.254,21H5.746A5.753,5.753,0,0,1,0,15.254V6.746A5.753,5.753,0,0,1,5.746,1H16.254A5.753,5.753,0,0,1,22,6.746Zm-2,0A3.751,3.751,0,0,0,16.254,3H5.746A3.751,3.751,0,0,0,2,6.746v8.508a3.736,3.736,0,0,0,2,3.294v-3a1,1,0,1,1,2,0V19H8V13a1,1,0,0,1,2,0v6h2V14a1,1,0,0,1,2,0v5h2V11a1,1,0,0,1,2,0v7.548a3.736,3.736,0,0,0,2-3.294Z" fill="#fff"/>
    </g>
  </g>
</svg>
