<?xml version="1.0" encoding="utf-8"?>
<!-- Generator: Adobe Illustrator 26.4.0, SVG Export Plug-In . SVG Version: 6.00 Build 0)  -->
<svg version="1.1" id="SXmock_Resize_18_N" xmlns="http://www.w3.org/2000/svg" xmlns:xlink="http://www.w3.org/1999/xlink" x="0px"
	 y="0px" viewBox="0 0 18 18" style="enable-background:new 0 0 18 18;" xml:space="preserve">
<path id="Path_600471" d="M13,0H5C2.2,0,0,2.2,0,5v7c0,2.8,2.2,5,5,5h8c2.8,0,5-2.2,5-5V5C18,2.2,15.8,0,13,0z M16,12
	c0,1.7-1.3,3-3,3H5c-1.7,0-3-1.3-3-3V5c0-1.7,1.3-3,3-3h8c1.7,0,3,1.3,3,3V12z"/>
<path id="Path_600472" d="M13,4H9C8.4,4,8,4.4,8,5s0.4,1,1,1h1.6L9.3,7.3c-0.4,0.4-0.4,1,0,1.4s1,0.4,1.4,0L12,7.4V9
	c0,0.6,0.4,1,1,1s1-0.4,1-1V5C14,4.4,13.6,4,13,4z"/>
<path id="Path_600473" d="M3,10c0.6,0,1-0.4,1-1S3.6,8,3,8S2,8.4,2,9S2.5,10,3,10z"/>
<path id="Path_600474" d="M6.3,8.1C5.8,7.9,5.2,8.2,5.1,8.7C4.9,9.2,5.2,9.8,5.7,9.9c0,0,0,0,0,0c0.1,0,0.2,0,0.3,0c0.6,0,1-0.4,1-1
	C7,8.6,6.7,8.2,6.3,8.1L6.3,8.1z"/>
<circle id="Ellipse_24867" cx="8" cy="14" r="1"/>
<circle id="Ellipse_24868" cx="8" cy="11" r="1"/>
</svg>
