<svg id="SXmock_Resize_44_N" xmlns="http://www.w3.org/2000/svg" width="44" height="44" viewBox="0 0 44 44">
  <rect id="Canvas" width="44" height="44" fill="#ff13dc" opacity="0"/>
  <path id="Path_600646" data-name="Path 600646" d="M31.5,40h-19A9.511,9.511,0,0,1,3,30.5v-17A9.511,9.511,0,0,1,12.5,4h19A9.511,9.511,0,0,1,41,13.5v17A9.511,9.511,0,0,1,31.5,40ZM12.5,7A6.508,6.508,0,0,0,6,13.5v17A6.508,6.508,0,0,0,12.5,37h19A6.508,6.508,0,0,0,38,30.5v-17A6.508,6.508,0,0,0,31.5,7Z" fill="#484848"/>
  <circle id="Ellipse_25519" data-name="Ellipse 25519" cx="1.5" cy="1.5" r="1.5" transform="translate(7 20)" fill="#484848"/>
  <circle id="Ellipse_25520" data-name="Ellipse 25520" cx="1.5" cy="1.5" r="1.5" transform="translate(12 20)" fill="#484848"/>
  <circle id="Ellipse_25521" data-name="Ellipse 25521" cx="1.5" cy="1.5" r="1.5" transform="translate(17 20)" fill="#484848"/>
  <circle id="Ellipse_25522" data-name="Ellipse 25522" cx="1.5" cy="1.5" r="1.5" transform="translate(21 23)" fill="#484848"/>
  <circle id="Ellipse_25523" data-name="Ellipse 25523" cx="1.5" cy="1.5" r="1.5" transform="translate(21 28)" fill="#484848"/>
  <circle id="Ellipse_25524" data-name="Ellipse 25524" cx="1.5" cy="1.5" r="1.5" transform="translate(21 33)" fill="#484848"/>
  <path id="Path_600647" data-name="Path 600647" d="M33.5,10H26a1.5,1.5,0,0,0,0,3h3.879l-4.939,4.939a1.5,1.5,0,0,0,2.121,2.121L32,15.121V19a1.5,1.5,0,0,0,3,0V11.5A1.5,1.5,0,0,0,33.5,10Z" fill="#484848"/>
</svg>
