<?xml version="1.0" encoding="utf-8"?>
<!-- Generator: Adobe Illustrator 26.4.0, SVG Export Plug-In . SVG Version: 6.00 Build 0)  -->
<svg version="1.1" id="SXmock_VideoReverse_18_N" xmlns="http://www.w3.org/2000/svg" xmlns:xlink="http://www.w3.org/1999/xlink"
	 x="0px" y="0px" viewBox="0 0 18 18" style="enable-background:new 0 0 18 18;" xml:space="preserve">
<g id="ICONS">
	<path id="Path_600475" d="M5,14c-2.8,0-5-2.2-5-5V5c0-2.8,2.2-5,5-5h4c2.8,0,5,2.2,5,5v2c0,0.6-0.4,1-1,1s-1-0.4-1-1V5
		c0-1.7-1.3-3-3-3H5C3.3,2,2,3.3,2,5v4c0,1.7,1.3,3,3,3c0.6,0,1,0.4,1,1S5.6,14,5,14z"/>
	<path id="Path_600476" d="M16.6,7.3c-0.4-0.4-1-0.4-1.4,0s-0.4,1,0,1.4c1,1,1,2.5,0,3.5c-0.5,0.5-1.1,0.7-1.8,0.7h-2.2l1.4-1.3
		c0.4-0.4,0.4-1,0.1-1.4c-0.4-0.4-1-0.4-1.4-0.1l-3.2,2.9c-0.4,0.4-0.4,1-0.1,1.4c0,0,0,0,0,0l3.1,3c0.4,0.4,1,0.4,1.4,0
		c0.4-0.4,0.4-1,0-1.4L11.3,15h2.2c2.5,0,4.5-2,4.5-4.5C18,9.3,17.5,8.1,16.6,7.3z"/>
	<path id="Path_600477" d="M9.6,6.3L6.2,4.3C5.9,4,5.4,4.1,5.1,4.5C5,4.6,5,4.8,5,4.9v4.2c0,0.4,0.4,0.8,0.8,0.8
		c0.1,0,0.3,0,0.4-0.1l3.4-2.1C10,7.4,10.1,7,9.9,6.6C9.8,6.5,9.7,6.4,9.6,6.3L9.6,6.3z"/>
</g>
</svg>
