<svg xmlns="http://www.w3.org/2000/svg" width="12" height="10.891" viewBox="0 0 12 10.891">
  <path id="Path_607740" data-name="Path 607740" d="M5.625,1.43a.948.948,0,0,1,.622.233L11.43,6.174a.927.927,0,0,1,0,1.4L6.247,12.087a.946.946,0,0,1-1.568-.7V9.58a5.278,5.278,0,0,0-3.264,1.8.938.938,0,0,1-.715.33A.938.938,0,0,1-.248,10.8q0-.085,0-.17A6.663,6.663,0,0,1,4.679,4.193V2.364A.941.941,0,0,1,5.625,1.43Zm4.592,5.445-4.2-3.659v2.06l-.7.122A5.319,5.319,0,0,0,1.151,9.78,6.6,6.6,0,0,1,5.157,8.215l.09,0a1.224,1.224,0,0,1,.138,0l.628.036v2.286Z" transform="translate(0.25 -1.43)" fill="#222"/>
</svg>
