<svg xmlns="http://www.w3.org/2000/svg" width="22" height="22" viewBox="0 0 22 22">
  <g id="SXmock_Twitter_44_N" transform="translate(11 11)">
    <g id="SXmock_Twitter_44_N-2" data-name="SXmock_Twitter_44_N" transform="translate(-11 -11)">
      <rect id="Canvas" width="22" height="22" fill="#ff13dc" opacity="0"/>
      <path id="Path_695142" data-name="Path 695142" d="M22,9.106a7.382,7.382,0,0,1-2.121.581A3.7,3.7,0,0,0,21.5,7.645a7.4,7.4,0,0,1-2.345.9,3.7,3.7,0,0,0-6.293,3.368A10.484,10.484,0,0,1,5.253,8.051,3.7,3.7,0,0,0,6.4,12.981a3.677,3.677,0,0,1-1.673-.462c0,.015,0,.031,0,.046a3.7,3.7,0,0,0,2.962,3.621,3.7,3.7,0,0,1-1.667.063,3.7,3.7,0,0,0,3.45,2.565A7.409,7.409,0,0,1,4.881,20.4,7.51,7.51,0,0,1,4,20.344,10.5,10.5,0,0,0,20.168,11.5q0-.24-.011-.478A7.5,7.5,0,0,0,22,9.106Z" transform="translate(-2 -3.689)"/>
    </g>
  </g>
</svg>
