<svg xmlns="http://www.w3.org/2000/svg" width="22" height="22" viewBox="0 0 22 22">
  <g id="SXmock_Linkedin_44_N" transform="translate(11 11)">
    <g id="SXmock_Linkedin_44_N-2" data-name="SXmock_Linkedin_44_N" transform="translate(-11 -11)">
      <rect id="Canvas" width="22" height="22" fill="#ff13dc" opacity="0"/>
      <path id="Path_695141" data-name="Path 695141" d="M4,5.3V20.7A1.315,1.315,0,0,0,5.329,22H20.668A1.317,1.317,0,0,0,22,20.7V5.3A1.316,1.316,0,0,0,20.668,4H5.328A1.314,1.314,0,0,0,4,5.3ZM9.339,19.338H6.669v-8.59h2.67Zm1.675-8.59h2.561v1.174h.036a2.806,2.806,0,0,1,2.526-1.387c2.7,0,3.2,1.779,3.2,4.092v4.712H16.67V15.161c0-1-.018-2.277-1.387-2.277-1.389,0-1.6,1.085-1.6,2.2v4.249h-2.67ZM8,6.478A1.548,1.548,0,1,1,6.456,8.026,1.548,1.548,0,0,1,8,6.478Z" transform="translate(-2 -2)"/>
    </g>
  </g>
</svg>
