<svg xmlns="http://www.w3.org/2000/svg" width="22" height="22" viewBox="0 0 22 22">
  <g id="Group_377125" data-name="Group 377125" transform="translate(12127.5 18803.545)">
    <g id="SXmock_Instagram_22_N" transform="translate(-12116.5 -18792.545)">
      <g id="Group_377023" data-name="Group 377023" transform="translate(-11 -11)">
        <rect id="SX_Instagram_22_N" width="22" height="22" fill="none" opacity="0.05"/>
        <path id="Path_968361" data-name="Path 968361" d="M11.005,3.621c2.4,0,2.69.011,3.636.053a4.916,4.916,0,0,1,1.67.309,2.971,2.971,0,0,1,1.706,1.706,4.933,4.933,0,0,1,.309,1.67c.042.949.053,1.234.053,3.636s-.011,2.69-.053,3.636a4.922,4.922,0,0,1-.309,1.67,2.792,2.792,0,0,1-.672,1.034,2.757,2.757,0,0,1-1.034.671,4.952,4.952,0,0,1-1.67.31c-.949.042-1.234.052-3.636.052s-2.69-.01-3.636-.052a4.94,4.94,0,0,1-1.67-.31,2.96,2.96,0,0,1-1.7-1.7,4.964,4.964,0,0,1-.31-1.67c-.042-.95-.052-1.235-.052-3.636s.01-2.69.052-3.636a4.934,4.934,0,0,1,.31-1.67A2.965,2.965,0,0,1,5.7,3.983a4.945,4.945,0,0,1,1.67-.309C8.315,3.632,8.6,3.621,11.005,3.621Zm0-1.621c-2.444,0-2.749.011-3.709.053a6.588,6.588,0,0,0-2.184.418,4.389,4.389,0,0,0-1.6,1.041A4.4,4.4,0,0,0,2.475,5.105a6.576,6.576,0,0,0-.419,2.184C2.014,8.252,2,8.558,2,11s.01,2.75.052,3.709A6.56,6.56,0,0,0,2.475,16.9a4.4,4.4,0,0,0,1.041,1.6,4.41,4.41,0,0,0,1.592,1.037,6.616,6.616,0,0,0,2.184.418c.96.042,1.266.053,3.71.053s2.75-.011,3.709-.053a6.588,6.588,0,0,0,2.184-.418,4.595,4.595,0,0,0,2.63-2.63,6.587,6.587,0,0,0,.419-2.184c.042-.96.052-1.266.052-3.71s-.01-2.749-.052-3.709a6.56,6.56,0,0,0-.419-2.184,4.2,4.2,0,0,0-1.03-1.6A4.392,4.392,0,0,0,16.9,2.475a6.575,6.575,0,0,0-2.183-.419C13.755,2.011,13.449,2,11.005,2Zm0,4.378A4.624,4.624,0,1,0,15.629,11,4.625,4.625,0,0,0,11.005,6.378Zm0,7.623a3,3,0,1,1,3-3A3,3,0,0,1,11.005,14ZM16.892,6.2a1.08,1.08,0,1,1-1.08-1.08A1.08,1.08,0,0,1,16.892,6.2Z" fill="#444"/>
      </g>
    </g>
  </g>
</svg>
