<svg xmlns="http://www.w3.org/2000/svg" viewBox="0 0 240 234"><defs><style>.a{fill:#370000;}.b{fill:#fa0f00;fill-rule:evenodd;}.c{fill:#fabfbc;}</style></defs><rect class="a" width="240" height="234" rx="42.5"/><path class="b" d="M166.967,142.969c-.031,1.212.219,3.854.219,4.448,0,9.8-2.963,15.231-11.964,16.583v11.67c7-.224,11.933-1.83,15.894-4.495a19.064,19.064,0,0,0,8.047-11.06C180.4,155.628,181,150.059,181,141.9l-.237-24.361-25.54-.023v25.465Zm-31.323-.008c.023,1.2-.042,3.645-.034,4.248.038,10.025-2.392,15.548-11.393,16.891v11.679c8-.224,12.093-1.723,16.261-4.6a19.481,19.481,0,0,0,8.112-11.06c1.246-4.487.845-9.994.845-18.15l-.089-24.446-25.286.093.024,25.357ZM73.264,92.07c-.069-1.2.174-3.553.174-4.148,0-9.8,2.771-15.609,11.772-16.953V59.3c-8,.224-11.856,1.838-15.617,4.549-4.115,2.966-7.086,6.565-8.316,11.052a73.168,73.168,0,0,0-2.071,18.977v23.611l25.483.008.048-25.442Zm43.1.246.008,25.649H91.03L90.991,94.3c0-8.156.054-14.786,1.3-19.282a18.816,18.816,0,0,1,7.637-11.112c4.168-2.881,8.591-4.5,16.181-4.725l.054,11.655c-8.975,1.344-11.482,7.315-11.482,17.116,0,.595-.008,3,.008,4.2Z"/><path class="c" d="M111.264,144.552a28.875,28.875,0,0,1-17.412-14.775c-.154-.309-.3-.618-.43-.935l-4.192.687c.131.309.246.626.385.935a32.9,32.9,0,0,0,20.88,18.174c.315.092.638.162.961.247l.762-4.07C111.9,144.73,111.572,144.652,111.264,144.552Zm-2.507,13.4a42.757,42.757,0,0,1-29.125-25.866c-.115-.309-.208-.633-.315-.942l-4.146.672c.108.316.193.641.3.95a46.768,46.768,0,0,0,32.517,29.272c.323.085.646.147.969.216l.761-4.078C109.4,158.1,109.072,158.037,108.757,157.952Zm-2.476,13.223C87.023,166.5,71.634,152.43,65.743,134.349c-.108-.317-.185-.641-.277-.95l-4.153.672.284.95c6.2,19.827,22.919,35.243,43.922,40.248l.962.224.769-4.109C106.927,171.307,106.6,171.253,106.281,171.175ZM150.81,105.2a32.935,32.935,0,0,0-20.965-17.911c-.315-.093-.638-.162-.961-.247l-.754,4.078c.323.085.646.162.961.255a28.933,28.933,0,0,1,17.489,14.536c.154.309.3.618.446.926l4.184-.7C151.079,105.826,150.956,105.509,150.81,105.2Zm14.159-2.371a46.806,46.806,0,0,0-32.64-28.941c-.315-.077-.638-.139-.961-.208l-.754,4.078c.315.077.638.139.961.224A42.763,42.763,0,0,1,160.8,103.524c.123.309.216.633.331.942l4.138-.695C165.161,103.455,165.076,103.138,164.969,102.829Zm13.866-2.333c-6.345-19.679-23.087-34.941-44.045-39.83l-.961-.224-.762,4.109c.316.077.639.131.962.208,19.227,4.573,34.639,18.483,40.669,36.432.107.309.184.634.284.95l4.138-.7C179.027,101.13,178.935,100.813,178.835,100.5Z"/></svg>