<svg xmlns="http://www.w3.org/2000/svg" width="18" height="18" viewBox="0 0 18 18">
  <g id="SXmock_Star_18_N" transform="translate(9 9)">
    <g id="Group_431054" data-name="Group 431054" transform="translate(-9 -9)">
      <rect id="Canvas" width="17.543" height="17.551" transform="translate(0.229)" fill="rgba(255,19,220,0)"/>
      <path id="Path_1045849" data-name="Path 1045849" d="M13.241,18a2.1,2.1,0,0,1-1.011-.261L9,15.965,5.771,17.738a2.086,2.086,0,0,1-2.226-.128,2.192,2.192,0,0,1-.892-2.164l.626-3.814L.632,8.938A2.21,2.21,0,0,1,.117,6.677,2.143,2.143,0,0,1,1.826,5.221l3.622-.549L7.076,1.227a2.128,2.128,0,0,1,3.848,0l1.629,3.446,3.621.549a2.141,2.141,0,0,1,1.709,1.456,2.21,2.21,0,0,1-.514,2.26l-2.648,2.7.626,3.814a2.192,2.192,0,0,1-.892,2.164A2.1,2.1,0,0,1,13.241,18ZM9,13.962a2,2,0,0,1,.964.249l3.228,1.772a.085.085,0,0,0,.108-.007.2.2,0,0,0,.075-.206l-.626-3.814a2,2,0,0,1,.547-1.728l2.646-2.693a.216.216,0,0,0,.044-.224c-.033-.1-.093-.109-.112-.112l-3.622-.55a1.988,1.988,0,0,1-1.508-1.124L9.115,2.083c-.019-.045-.211-.045-.23,0L7.256,5.528A1.99,1.99,0,0,1,5.747,6.649L2.126,7.2c-.019,0-.079.013-.112.112a.216.216,0,0,0,.045.225L4.7,10.229a2,2,0,0,1,.547,1.728L4.625,15.77a.2.2,0,0,0,.075.206.085.085,0,0,0,.109.007l3.228-1.773A2,2,0,0,1,9,13.962Z" transform="translate(0 0)" fill="#444"/>
    </g>
  </g>
</svg>
