<svg xmlns="http://www.w3.org/2000/svg" width="18" height="18" viewBox="0 0 18 18">
  <g id="SXmock_Star_18_S" transform="translate(9 9)">
    <g id="Group_431057" data-name="Group 431057" transform="translate(-9 -9)">
      <rect id="Canvas" width="18" height="18" transform="translate(0)" fill="rgba(255,19,220,0)"/>
      <path id="Path_1045852" data-name="Path 1045852" d="M13.241,17.991a2.1,2.1,0,0,1-1.011-.261L9,15.958,5.771,17.73A2.087,2.087,0,0,1,3.545,17.6a2.19,2.19,0,0,1-.892-2.163l.626-3.812L.632,8.934a2.209,2.209,0,0,1-.515-2.26A2.143,2.143,0,0,1,1.826,5.219L5.447,4.67,7.076,1.226a2.129,2.129,0,0,1,3.848,0L12.552,4.67l3.622.549a2.141,2.141,0,0,1,1.709,1.455,2.208,2.208,0,0,1-.514,2.259l-2.648,2.694.626,3.812a2.19,2.19,0,0,1-.892,2.163A2.1,2.1,0,0,1,13.241,17.991Z" transform="translate(0)" fill="#5c5ce0"/>
    </g>
  </g>
</svg>
