<svg xmlns="http://www.w3.org/2000/svg" width="40.002" height="40.002" viewBox="0 0 40.002 40.002">
  <path id="Union_359" data-name="Union 359" d="M21356.58,23069.7a6.951,6.951,0,0,0-1.7-1.91,7.105,7.105,0,0,0-2.693.127c-1.854.283-3.949.607-5.326-.77s-1.055-3.48-.771-5.328a7.146,7.146,0,0,0,.129-2.693,6.98,6.98,0,0,0-1.912-1.7c-1.551-1.123-3.307-2.4-3.307-4.418s1.756-3.295,3.307-4.418a6.9,6.9,0,0,0,1.906-1.709,7,7,0,0,0-.123-2.687c-.283-1.852-.607-3.949.771-5.332s3.479-1.049,5.326-.766a7.026,7.026,0,0,0,2.693.123,6.935,6.935,0,0,0,1.7-1.906c1.125-1.551,2.4-3.307,4.42-3.307s6.3,4.65,10.672,9.271c3.357,3.33,9.328,8.7,9.328,10.73s-1.754,3.295-3.307,4.418a6.838,6.838,0,0,0-1.9,1.7,6.987,6.987,0,0,0,.121,2.693c.289,1.848.613,3.949-.77,5.328s-3.475,1.053-5.328.77a7,7,0,0,0-2.687-.127,6.879,6.879,0,0,0-1.707,1.91c-1.123,1.547-2.393,3.307-4.418,3.307S21357.705,23071.242,21356.58,23069.7Zm-.555-4.678a7.879,7.879,0,0,1,2.982,2.918c.561.77,1.5,2.066,1.992,2.066s1.43-1.3,1.99-2.066a7.91,7.91,0,0,1,2.988-2.924,8.221,8.221,0,0,1,4.291-.064c.857.127,2.449.377,2.75.076s.059-1.895-.074-2.752a8.2,8.2,0,0,1,.068-4.3,7.936,7.936,0,0,1,2.92-2.986l.248-.18h-5.68a7.506,7.506,0,0,1-7.5-7.5v-9.543a15.869,15.869,0,0,0-2-1.766c-.492,0-1.432,1.291-1.992,2.068a7.907,7.907,0,0,1-2.982,2.918,8.2,8.2,0,0,1-4.3.068c-.857-.133-2.449-.381-2.75-.074s-.059,1.893.074,2.75a8.121,8.121,0,0,1-.068,4.291,7.872,7.872,0,0,1-2.92,2.988c-.77.561-2.066,1.5-2.066,1.992s1.3,1.43,2.066,1.986a7.936,7.936,0,0,1,2.92,2.986,8.084,8.084,0,0,1,.068,4.3c-.127.857-.375,2.449-.074,2.746s1.893.063,2.75-.07a15.493,15.493,0,0,1,2.443-.254c.043,0,.086,0,.129,0A4.711,4.711,0,0,1,21356.025,23065.018Zm9.977-17.709a4.5,4.5,0,0,0,4.5,4.5h5.461c-.053-.07-.1-.145-.158-.209l-8.627-9.346a4.522,4.522,0,0,0-1.176-.881Z" transform="translate(-21340.998 -23033)" fill="#fff"/>
</svg>
