<svg xmlns="http://www.w3.org/2000/svg" width="22.25" height="22.25" viewBox="0 0 22.25 22.25">
  <g id="Group_311832" data-name="Group 311832" transform="translate(-11543.812 1092.191)">
    <g id="SX_Animation_22_N" transform="translate(11552.684 -1084.341)">
      <g id="SMOCK" transform="translate(1.282 2.203)">
        <rect id="Canvas" width="12.096" height="12.197" fill="rgba(255,19,220,0)"/>
      </g>
      <g id="ICONS">
        <path id="Path_125910" data-name="Path 125910" d="M1.969,3.9A.557.557,0,0,0,2.2,3.148a.68.68,0,0,1,.3-.883.669.669,0,0,1,.89.253.548.548,0,0,0,.743.234A.557.557,0,0,0,4.362,2,1.764,1.764,0,0,0,2,1.31a1.794,1.794,0,0,0-.774,2.354.548.548,0,0,0,.742.233Z" transform="translate(-1.052 -1.104)" stroke="#000" stroke-width="0.5"/>
        <path id="Path_125911" data-name="Path 125911" d="M6.362,7.823a.557.557,0,0,0,.129-.773,2.462,2.462,0,0,0-3.007-.842,2.5,2.5,0,0,0,.99,4.781.554.554,0,0,0,0-1.109A1.384,1.384,0,1,1,5.6,7.693.547.547,0,0,0,6.362,7.823Z" transform="translate(-1.479 -2.347)" stroke="#000" stroke-width="0.5"/>
        <path id="Path_125912" data-name="Path 125912" d="M12.3,9a3.327,3.327,0,1,0,3.3,3.327A3.313,3.313,0,0,0,12.3,9Zm0,5.544a2.218,2.218,0,1,1,2.2-2.218A2.209,2.209,0,0,1,12.3,14.544Z" transform="translate(-4.63 -2.746)" stroke="#000" stroke-width="0.5"/>
      </g>
    </g>
    <path id="Path_129506" data-name="Path 129506" d="M6.683,10.908a3.823,3.823,0,0,0,3.7-3.93V3.572h4.683a3.314,3.314,0,0,1,3.2,3.406v2.1a.741.741,0,1,0,1.479,0v-2.1A4.843,4.843,0,0,0,15.063,2H9.95A3.61,3.61,0,0,0,7.233,3.265l-4.253,4.9A4.059,4.059,0,0,0,2,10.827v6.107a4.843,4.843,0,0,0,4.683,4.978H9.148a.787.787,0,0,0,0-1.572H6.683a3.314,3.314,0,0,1-3.2-3.406V10.908ZM8.32,4.331A2.219,2.219,0,0,1,8.9,3.866V6.978A2.294,2.294,0,0,1,6.683,9.336H3.989c.027-.035.048-.074.078-.108Z" transform="translate(11542.062 -1093.941)" stroke="#000" stroke-width="0.5"/>
  </g>
</svg>
