<svg xmlns="http://www.w3.org/2000/svg" width="18.25" height="18.25" viewBox="0 0 18.25 18.25">
  <g id="Group_317943" data-name="Group 317943" transform="translate(-11543.812 1092.191)">
    <g id="SX_Animation_22_N" transform="translate(11551.084 -1085.758)">
      <g id="SMOCK" transform="translate(1.052 1.807)">
        <rect id="Canvas" width="9.926" height="10.009" fill="rgba(255,19,220,0)"/>
      </g>
      <g id="ICONS">
        <path id="Path_125910" data-name="Path 125910" d="M1.8,3.4a.457.457,0,0,0,.19-.615.558.558,0,0,1,.244-.724.549.549,0,0,1,.73.207.449.449,0,0,0,.609.192.457.457,0,0,0,.19-.614,1.448,1.448,0,0,0-1.938-.569A1.472,1.472,0,0,0,1.2,3.2.449.449,0,0,0,1.8,3.4Z" transform="translate(-1.052 -1.104)" stroke="#000" stroke-width="0.5"/>
        <path id="Path_125911" data-name="Path 125911" d="M5.58,7.5a.457.457,0,0,0,.106-.634,2.02,2.02,0,0,0-2.468-.691,2.05,2.05,0,0,0,.812,3.924.455.455,0,0,0,0-.91,1.136,1.136,0,1,1,.92-1.8A.449.449,0,0,0,5.58,7.5Z" transform="translate(-1.572 -3.003)" stroke="#000" stroke-width="0.5"/>
        <path id="Path_125912" data-name="Path 125912" d="M11.707,9a2.73,2.73,0,1,0,2.707,2.73A2.718,2.718,0,0,0,11.707,9Zm0,4.55a1.82,1.82,0,1,1,1.8-1.82A1.812,1.812,0,0,1,11.707,13.55Z" transform="translate(-5.414 -3.868)" stroke="#000" stroke-width="0.5"/>
      </g>
    </g>
    <path id="Path_129506" data-name="Path 129506" d="M5.831,9.289A3.128,3.128,0,0,0,8.856,6.073V3.286h3.831a2.711,2.711,0,0,1,2.622,2.787V7.788a.606.606,0,1,0,1.21,0V6.073A3.962,3.962,0,0,0,12.688,2H8.5A2.954,2.954,0,0,0,6.282,3.035L2.8,7.041A3.321,3.321,0,0,0,2,9.222v5a3.962,3.962,0,0,0,3.831,4.073H7.848a.644.644,0,0,0,0-1.286H5.831A2.711,2.711,0,0,1,3.21,14.219V9.289ZM7.171,3.907a1.815,1.815,0,0,1,.476-.38V6.073A1.877,1.877,0,0,1,5.831,8h-2.2c.022-.029.04-.061.064-.088Z" transform="translate(11542.062 -1093.941)" stroke="#000" stroke-width="0.5"/>
  </g>
</svg>
