<svg xmlns="http://www.w3.org/2000/svg" width="44" height="44" viewBox="0 0 44 44"><rect width="44" height="44" fill="rgba(255,19,220,0)"/><path d="M20.5,37h-9A6.508,6.508,0,0,1,5,30.5V19h6.5A7.508,7.508,0,0,0,19,11.5V5h9.5a6.509,6.509,0,0,1,6.446,5.661,1.5,1.5,0,1,0,2.976-.383A9.515,9.515,0,0,0,28.5,2H18.127a7.522,7.522,0,0,0-5.511,2.413L3.989,13.759A7.48,7.48,0,0,0,2,18.846V30.5A9.511,9.511,0,0,0,11.5,40h9a1.5,1.5,0,0,0,0-3ZM6.193,15.794,14.82,6.448A4.466,4.466,0,0,1,16,5.562V11.5A4.5,4.5,0,0,1,11.5,16H6.036C6.091,15.933,6.134,15.858,6.193,15.794Z" fill="#444"/><path d="M39.276,25.315l-1.524-.689,1.794-4.066q.021-.047.04-.095a3.985,3.985,0,0,0-.384-3.721A3.938,3.938,0,0,0,35.941,15h0A3.875,3.875,0,0,0,33,16.371L24.15,26.327l-.064.075a4.751,4.751,0,0,0-.964,4.081,4.612,4.612,0,0,0,2.6,3.2l1.526.69L25.456,38.44c-.014.031-.027.063-.04.094a3.985,3.985,0,0,0,.384,3.722A3.937,3.937,0,0,0,29.059,44,3.876,3.876,0,0,0,32,42.63l8.849-9.957.067-.078a4.754,4.754,0,0,0,.959-4.082A4.611,4.611,0,0,0,39.276,25.315Zm-.667,5.364-8.872,9.983a.87.87,0,0,1-.677.338.964.964,0,0,1-.859-1.35l2.993-6.785L26.96,30.952a1.712,1.712,0,0,1-.568-2.631l8.872-9.982A.868.868,0,0,1,35.941,18a.965.965,0,0,1,.859,1.349l-2.994,6.786,4.234,1.914a1.712,1.712,0,0,1,.569,2.631Z" fill="#444"/></svg>