<svg xmlns="http://www.w3.org/2000/svg" width="18" height="18" viewBox="0 0 18 18">
  <g id="Group_317938" data-name="Group 317938" transform="translate(-878)">
    <g id="premium_testing" data-name="premium testing" transform="translate(883.445 5.357)">
      <g id="Group_173774" data-name="Group 173774">
        <path id="Path_124080" data-name="Path 124080" d="M3.257,7.674H8.286A.419.419,0,0,0,8.7,7.312c.088-.633.739-2.762.838-3.48a.419.419,0,0,0-.643-.41,10.31,10.31,0,0,0-1.037.8c-.192.162-.377.315-.561.456-.152-.269-.3-.556-.455-.842-.236-.446-.472-.893-.716-1.288a.435.435,0,0,0-.713,0c-.251.406-.493.862-.732,1.314-.147.278-.294.555-.44.814-.183-.14-.368-.295-.559-.455a10.533,10.533,0,0,0-1.037-.8.419.419,0,0,0-.642.411c.1.725.75,2.851.838,3.481a.419.419,0,0,0,.414.362Z" transform="translate(-2.001 -2.36)"/>
        <path id="Path_124081" data-name="Path 124081" d="M8.887,14H4.039a.539.539,0,1,0,0,1.077H8.887a.539.539,0,0,0,0-1.077Z" transform="translate(-2.693 -7.729)"/>
      </g>
    </g>
    <path id="Ellipse_25698" data-name="Ellipse 25698" d="M9,2a7,7,0,1,0,7,7A7.008,7.008,0,0,0,9,2M9,0A9,9,0,1,1,0,9,9,9,0,0,1,9,0Z" transform="translate(878)"/>
  </g>
</svg>
