<svg xmlns="http://www.w3.org/2000/svg" width="21.5" height="21.5" viewBox="0 0 21.5 21.5">
  <g id="Group_317387" data-name="Group 317387" transform="translate(-833.75 -629.75)">
    <g id="ICONS" transform="translate(834 630)">
      <path id="Path_607870" data-name="Path 607870" d="M6.75,10.5A3.754,3.754,0,0,0,10.5,6.75V3.5h4.75A3.254,3.254,0,0,1,18.5,6.75v2a.75.75,0,0,0,1.5,0v-2A4.755,4.755,0,0,0,15.25,2H10.063A3.761,3.761,0,0,0,7.308,3.207L2.995,7.879A3.74,3.74,0,0,0,2,10.423V16.25A4.755,4.755,0,0,0,6.75,21h2.5a.75.75,0,0,0,0-1.5H6.75A3.254,3.254,0,0,1,3.5,16.25V10.5ZM8.41,4.224A2.233,2.233,0,0,1,9,3.781V6.75A2.252,2.252,0,0,1,6.75,9H4.018c.028-.034.049-.071.079-.1Z" transform="translate(-2 -2)" stroke="#000" stroke-width="0.5"/>
      <path id="Path_607871" data-name="Path 607871" d="M26,20a6,6,0,1,0,6,6A6,6,0,0,0,26,20Zm0,10.5A4.5,4.5,0,1,1,30.5,26,4.5,4.5,0,0,1,26,30.5Z" transform="translate(-11 -11)" stroke="#000" stroke-width="0.5"/>
      <g id="premium_testing" data-name="premium testing" transform="translate(12.506 12.57)">
        <g id="Group_317386" data-name="Group 317386">
          <path id="Path_607872" data-name="Path 607872" d="M2.832,5.875H6.158a.277.277,0,0,0,.274-.239c.058-.419.489-1.827.554-2.3a.277.277,0,0,0-.425-.271,6.819,6.819,0,0,0-.686.527c-.127.107-.249.208-.371.3-.1-.178-.2-.368-.3-.557-.156-.3-.313-.591-.474-.852a.288.288,0,0,0-.471,0c-.166.269-.326.57-.484.869-.1.184-.194.367-.291.538-.121-.092-.243-.195-.37-.3a6.967,6.967,0,0,0-.686-.528A.277.277,0,0,0,2,3.333c.067.48.5,1.886.554,2.3a.277.277,0,0,0,.274.239Z" transform="translate(-2.001 -2.36)"/>
          <path id="Path_607873" data-name="Path 607873" d="M7.063,14H3.856a.356.356,0,1,0,0,.713H7.063a.356.356,0,0,0,0-.713Z" transform="translate(-2.966 -9.852)"/>
        </g>
      </g>
    </g>
  </g>
</svg>
