<?xml version="1.0" encoding="UTF-8"?>
<svg id="path" xmlns="http://www.w3.org/2000/svg" width="18" height="18" viewBox="0 0 18 18">
  <defs>
    <style>
      .fill {
        fill: #222;
      }
    </style>
  </defs>
  <path class="fill" d="m7,4.99993c0,.55176-.44873,1-1,1H1.12988c.13855-.48218.38434-.92859.74902-1.29297L5.70703.87884c.36432-.36426.81079-.61035,1.29297-.7489v4.87Z"/>
  <path class="fill" d="m7,13c0-3.30859,2.69141-6,6-6,1.53754,0,2.93719.58618,4,1.54047v-3.54053C17,2.2431,14.75684-.00006,12-.00006h-3v5c0,1.6543-1.3457,3-3,3H1v4c0,2.75684,2.24316,5,5,5h2.54041c-.95422-1.06281-1.54041-2.46246-1.54041-3.99994Z"/>
  <path class="fill" d="m17.71045,16.29688l-1.27289-1.28564c.34845-.59314.56244-1.27484.56244-2.01123,0-2.20605-1.79443-4-4-4s-4,1.79395-4,4,1.79443,4,4,4c.74304,0,1.43091-.21704,2.02771-.57141l1.26184,1.27454c.19531.19824.45264.29688.71045.29688.25439,0,.50879-.09668.70361-.28906.39258-.38867.39551-1.02246.00684-1.41406Zm-6.71045-3.29688c0-1.10254.89697-2,2-2s2,.89746,2,2-.89697,2-2,2-2-.89746-2-2Z"/>
</svg>
