<svg xmlns="http://www.w3.org/2000/svg" width="18" height="18.001" viewBox="0 0 18 18.001">
  <g id="Group_318055" data-name="Group 318055" transform="translate(-941.078 -364.999)">
    <g id="SX_Template_22_N" transform="translate(940.079 364)">
      <g id="ICONS" transform="translate(1 1)">
        <path id="Path_607931" data-name="Path 607931" d="M17.573,10.671l-.086-.036.5-1.175a2.055,2.055,0,0,0-1.562-2.844V5.286A4.291,4.291,0,0,0,12.143,1H7.563a2.551,2.551,0,0,0-1.818.753L1.753,5.745A2.56,2.56,0,0,0,1,7.563v6.294a4.291,4.291,0,0,0,4.286,4.286h6a.857.857,0,0,0,.334-.068A2.076,2.076,0,0,0,14.9,18.3l3.51-3.943a2.326,2.326,0,0,0-.839-3.691ZM6.957,2.965c.012-.013.03-.017.043-.029V6.143A.857.857,0,0,1,6.143,7H2.936c.012-.014.016-.031.029-.044ZM2.714,13.858V8.715H6.143A2.572,2.572,0,0,0,8.715,6.143V2.714h3.429a2.572,2.572,0,0,1,2.572,2.572V7a.708.708,0,0,0,.017.086,2.1,2.1,0,0,0-.2.186l-3.508,3.943a2.324,2.324,0,0,0,.837,3.686l.086.037-.5,1.175a2.04,2.04,0,0,0-.1.327c-.02,0-.036-.011-.057-.011h-6A2.572,2.572,0,0,1,2.714,13.858Zm14.418-.636-3.514,3.943a.362.362,0,0,1-.608-.374L14.2,14.029l-1.675-.705a.61.61,0,0,1-.225-.971l3.514-3.943a.355.355,0,0,1,.267-.124.359.359,0,0,1,.343.5l-1.2,2.76,1.675.705a.611.611,0,0,1,.228.973Z" transform="translate(-1 -1)" fill="#5C5CE0"/>
      </g>
    </g>
  </g>
</svg>
