<svg xmlns="http://www.w3.org/2000/svg" width="18" height="18.612" viewBox="0 0 18 18.612">
  <g id="Group_317944" data-name="Group 317944" transform="translate(-11552.524 1085.355)">
    <g id="SX_Animation_22_N" transform="translate(11552.524 -1084.993)">
      <g id="SMOCK" transform="translate(0 0.99)">
        <rect id="Canvas" width="18" height="17.01" fill="rgba(255,19,220,0)"/>
      </g>
      <g id="ICONS" transform="translate(1.107)">
        <path id="Path_125910" data-name="Path 125910" d="M2.416,5a.786.786,0,0,0,.4-.455.735.735,0,0,0-.057-.59A.921.921,0,0,1,3.2,2.723a1.032,1.032,0,0,1,1.324.352.843.843,0,0,0,1.1.326.753.753,0,0,0,.345-1.044,2.72,2.72,0,0,0-3.514-.967A2.428,2.428,0,0,0,1.311,4.673.842.842,0,0,0,2.416,5Z" transform="translate(-1.052 -1.104)" stroke="#000" stroke-width="0.5"/>
        <path id="Path_125911" data-name="Path 125911" d="M8.491,8.542a.746.746,0,0,0,.192-1.078A3.811,3.811,0,0,0,4.209,6.291a3.437,3.437,0,0,0-2.131,3.9,3.639,3.639,0,0,0,3.6,2.768.774.774,0,1,0,0-1.546,2.021,2.021,0,0,1-2-1.539A1.91,1.91,0,0,1,4.865,7.707a2.117,2.117,0,0,1,2.486.654A.849.849,0,0,0,8.491,8.542Z" transform="translate(-1.225 -0.906)" stroke="#000" stroke-width="0.5"/>
        <path id="Path_125912" data-name="Path 125912" d="M13.909,9A4.78,4.78,0,0,0,9,13.639a4.78,4.78,0,0,0,4.909,4.639,4.78,4.78,0,0,0,4.909-4.639A4.785,4.785,0,0,0,13.909,9Zm0,7.732a3.187,3.187,0,0,1-3.273-3.093,3.187,3.187,0,0,1,3.273-3.093,3.187,3.187,0,0,1,3.273,3.093A3.187,3.187,0,0,1,13.909,16.732Z" transform="translate(-2.497 -0.278)" stroke="#000" stroke-width="0.5"/>
      </g>
    </g>
  </g>
</svg>
