<svg id="SX_Template_22_N" xmlns="http://www.w3.org/2000/svg" width="22" height="22" viewBox="0 0 22 22">
  <g id="SMOCK">
    <rect id="Canvas" width="22" height="22" fill="rgba(255,19,220,0)"/>
  </g>
  <g id="ICONS">
    <path id="Path_125901" data-name="Path 125901" d="M20.334,12.282l-.1-.042.588-1.371A2.4,2.4,0,0,0,19,7.551V6a5.006,5.006,0,0,0-5-5H8.657a2.976,2.976,0,0,0-2.121.879L1.878,6.536A2.986,2.986,0,0,0,1,8.657V16a5.006,5.006,0,0,0,5,5h7a1,1,0,0,0,.39-.079,2.422,2.422,0,0,0,3.828.264l4.095-4.6a2.713,2.713,0,0,0-.979-4.306ZM7.95,3.293c.014-.015.035-.02.05-.034V7A1,1,0,0,1,7,8H3.259c.014-.016.019-.036.034-.051ZM3,16V10H7a3,3,0,0,0,3-3V3h4a3,3,0,0,1,3,3V8a.826.826,0,0,0,.02.1,2.45,2.45,0,0,0-.239.217l-4.093,4.6a2.711,2.711,0,0,0,.977,4.3l.1.043-.588,1.371a2.38,2.38,0,0,0-.112.382c-.023,0-.042-.013-.066-.013H6A3,3,0,0,1,3,16Zm16.82-.742-4.1,4.6a.422.422,0,0,1-.709-.436L16.4,16.2l-1.954-.823a.712.712,0,0,1-.262-1.133l4.1-4.6A.414.414,0,0,1,18.6,9.5a.419.419,0,0,1,.4.581L17.6,13.3l1.954.823a.713.713,0,0,1,.266,1.135Z" fill="#484848"/>
  </g>
</svg>
