<svg id="ICONS" xmlns="http://www.w3.org/2000/svg" width="22" height="22" viewBox="0 0 22 22">
  <defs>
    <style>
      .fill {
        fill: #444;
      }
    </style>
  </defs>
  <path class="fill" d="M20.33429,12.28223l-.09918-.04175.58827-1.3711a2.39252,2.39252,0,0,0-1.82287-3.31811V6A5.00627,5.00627,0,0,0,14,1H8.657a2.98082,2.98082,0,0,0-2.12116.87891L1.878,6.53613A2.986,2.986,0,0,0,1,8.65723V16a5.006,5.006,0,0,0,5.00014,5h7.45774a2.4094,2.4094,0,0,0,3.76085.18469l4.09478-4.5968a2.72105,2.72105,0,0,0,.6863-1.83789,2.69307,2.69307,0,0,0-.06629-.5625A2.72738,2.72738,0,0,0,20.33429,12.28223ZM8.0002,3.25952V7a1.001,1.001,0,0,1-1,1H3.2591C3.27277,7.98438,7.98494,3.27295,8.0002,3.25952ZM12.06666,15.3092a2.72771,2.72771,0,0,0,1.59911,1.90821S13.102,18.876,13.07072,19H6a3.00325,3.00325,0,0,1-3-3V10H7.00017a3.00332,3.00332,0,0,0,3.00009-3L10,3h4a3.00364,3.00364,0,0,1,3.00046,3V8c0,.03516-4.3125,4.91187-4.3125,4.91187A2.71405,2.71405,0,0,0,12.06666,15.3092Zm7.7534-.05163-4.095,4.597A.41277.41277,0,0,1,15.41246,20a.41816.41816,0,0,1-.39625-.58093l1.3812-3.22058-1.95409-.82373a.712.712,0,0,1-.26191-1.13257l4.0949-4.5968A.41223.41223,0,0,1,18.58876,9.5a.41833.41833,0,0,1,.39656.58081L17.6035,13.30164l1.954.8236A.71222.71222,0,0,1,19.82006,15.25757Z"/>
</svg>
