<svg xmlns="http://www.w3.org/2000/svg" width="18.5" height="18.5" viewBox="0 0 18.5 18.5">
  <g id="Group_311842" data-name="Group 311842" transform="translate(-833.75 0.25)">
    <g id="ICONS" transform="translate(834)">
      <path id="Path_129506" data-name="Path 129506" d="M6.071,9.286A3.218,3.218,0,0,0,9.286,6.071V3.286h4.071a2.789,2.789,0,0,1,2.786,2.786V7.786a.643.643,0,1,0,1.286,0V6.071A4.076,4.076,0,0,0,13.357,2H8.912A3.223,3.223,0,0,0,6.55,3.034l-3.7,4.005A3.206,3.206,0,0,0,2,9.22v4.995a4.076,4.076,0,0,0,4.071,4.071H8.214a.643.643,0,1,0,0-1.286H6.071a2.789,2.789,0,0,1-2.786-2.786V9.286ZM7.494,3.906A1.914,1.914,0,0,1,8,3.526V6.071A1.931,1.931,0,0,1,6.071,8H3.73c.024-.029.042-.061.067-.088Z" transform="translate(-2 -2)" stroke="#000" stroke-width="0.5"/>
      <path id="Path_129507" data-name="Path 129507" d="M25.143,20a5.143,5.143,0,1,0,5.143,5.143A5.143,5.143,0,0,0,25.143,20Zm0,9A3.857,3.857,0,1,1,29,25.143,3.857,3.857,0,0,1,25.143,29Z" transform="translate(-12.286 -12.286)" stroke="#000" stroke-width="0.5"/>
      <g id="premium_testing" data-name="premium testing" transform="translate(10.719 10.774)">
        <g id="Group_173774" data-name="Group 173774">
          <path id="Path_124080" data-name="Path 124080" d="M2.714,5.373H5.564A.237.237,0,0,0,5.8,5.167c.05-.359.419-1.566.475-1.973a.238.238,0,0,0-.364-.232,5.845,5.845,0,0,0-.588.452c-.109.092-.214.179-.318.258-.086-.153-.172-.315-.258-.477-.134-.253-.268-.506-.406-.73a.247.247,0,0,0-.4,0c-.142.23-.279.489-.415.745-.083.158-.166.315-.249.461-.1-.079-.209-.167-.317-.258a5.972,5.972,0,0,0-.588-.453A.238.238,0,0,0,2,3.194c.057.411.425,1.616.475,1.973a.237.237,0,0,0,.235.205Z" transform="translate(-2.001 -2.36)"/>
          <path id="Path_124081" data-name="Path 124081" d="M6.554,14H3.805a.305.305,0,1,0,0,.611H6.554a.305.305,0,0,0,0-.611Z" transform="translate(-3.042 -10.445)"/>
        </g>
      </g>
    </g>
  </g>
</svg>
