<svg id="SX_Template_22_N" xmlns="http://www.w3.org/2000/svg" width="18" height="18" viewBox="0 0 18 18">
  <g id="SMOCK">
    <rect id="Canvas" width="18" height="18" fill="rgba(255,19,220,0)"/>
  </g>
  <g id="ICONS" transform="translate(0.409 0.409)">
    <path id="Path_125901" data-name="Path 125901" d="M16.819,10.231l-.082-.034.481-1.122A1.962,1.962,0,0,0,15.727,6.36V5.091A4.1,4.1,0,0,0,11.636,1H7.265a2.435,2.435,0,0,0-1.735.719L1.718,5.529A2.443,2.443,0,0,0,1,7.265v6.008a4.1,4.1,0,0,0,4.091,4.091h5.727a.818.818,0,0,0,.319-.065,1.982,1.982,0,0,0,3.132.216l3.35-3.764a2.22,2.22,0,0,0-.8-3.523ZM6.686,2.876c.011-.012.029-.016.041-.028V5.909a.818.818,0,0,1-.818.818H2.848c.011-.013.016-.029.028-.042Zm-4.05,10.4V8.364H5.909A2.455,2.455,0,0,0,8.364,5.909V2.636h3.273a2.455,2.455,0,0,1,2.455,2.455V6.727a.675.675,0,0,0,.016.082,2,2,0,0,0-.2.178L10.563,10.75a2.218,2.218,0,0,0,.8,3.518l.082.035-.481,1.122a1.947,1.947,0,0,0-.092.313c-.019,0-.034-.011-.054-.011H5.091A2.455,2.455,0,0,1,2.636,13.273ZM16.4,12.666l-3.355,3.764a.345.345,0,0,1-.58-.357L13.6,13.436,12,12.763a.583.583,0,0,1-.214-.927l3.355-3.764a.339.339,0,0,1,.255-.119.343.343,0,0,1,.327.475l-1.142,2.635,1.6.673a.583.583,0,0,1,.218.929Z" transform="translate(-1 -1)"/>
  </g>
</svg>
