<svg xmlns="http://www.w3.org/2000/svg" width="18" height="18.125" viewBox="0 0 18 18.125">
  <g id="Group_318049" data-name="Group 318049" transform="translate(-8.5 -7.726)">
    <g id="Group_318048" data-name="Group 318048" transform="translate(-1015.5 -477.274)">
      <rect id="Rectangle_320672" data-name="Rectangle 320672" width="18" height="18" transform="translate(1024 485)" fill="none"/>
      <g id="Group_318047" data-name="Group 318047" transform="translate(-10550.561 1577.941)">
        <path id="Union_2" data-name="Union 2" d="M4.792,16.875H3.959A4.1,4.1,0,0,1,0,12.656V7.481A3.446,3.446,0,0,1,.829,5.222l3.595-4.15A3.048,3.048,0,0,1,6.719,0h4.322A4.1,4.1,0,0,1,15,4.219V13.1a.7.7,0,0,1-.059.284,4.045,4.045,0,0,1-3.9,3.491Zm6.25-1.333a2.8,2.8,0,0,0,2.708-2.886V4.219a2.8,2.8,0,0,0-2.708-2.886H7.083V4.219a3.235,3.235,0,0,1-3.125,3.33H1.25v5.107a2.8,2.8,0,0,0,2.708,2.886h7.083ZM5.341,1.975,1.748,6.125c-.025.029-.043.062-.066.092H3.959a1.942,1.942,0,0,0,1.875-2V1.582A1.879,1.879,0,0,0,5.341,1.975Z" transform="translate(11576.062 -1091.941)" stroke="#000" stroke-width="0.5"/>
      </g>
    </g>
  </g>
</svg>
