<svg xmlns="http://www.w3.org/2000/svg" width="17.834" height="16.946" viewBox="0 0 17.834 16.946">
  <path id="SX_ThumbUp_18_N" d="M14.762,5H11.5a.5.5,0,0,1-.5-.5V2.616A2.447,2.447,0,0,0,8.564.054C6.924.054,6.35,1.9,5.795,3.69,5.214,5.562,4.7,7,3.815,7H2.99A2.99,2.99,0,0,0,0,9.99V14a3,3,0,0,0,3,3h8.53c2.052,0,3.674-1.524,4.816-4.516l1.249-3.1a3.322,3.322,0,0,0,.238-1.239A3.039,3.039,0,0,0,14.762,5ZM2,14V10.008A1.011,1.011,0,0,1,3.008,9H3.82c.063,0,.119-.012.18-.015V15H3A1,1,0,0,1,2,14ZM15.739,8.637l-1.255,3.118C13.65,13.938,12.684,15,11.53,15H6V8l0-.011a10.23,10.23,0,0,0,1.707-3.7A9.255,9.255,0,0,1,8.564,2.06c.131,0,.436.055.436.607V4.5A2.5,2.5,0,0,0,11.5,7h3.262a1.065,1.065,0,0,1,1.072,1.143,1.347,1.347,0,0,1-.095.494Z" transform="translate(0 -0.054)" fill="#444"/>
</svg>
