<svg xmlns="http://www.w3.org/2000/svg" width="16.518" height="12.701" viewBox="0 0 16.518 12.701">
  <g id="Group_377123" data-name="Group 377123" transform="translate(11856 19074.42)">
    <path id="Path_600670" data-name="Path 600670" d="M30.6,28.692a2.846,2.846,0,1,0-2.846-2.846,2.816,2.816,0,0,0,.094.688L24.79,28.51l-6.326-4.093a.949.949,0,1,0-1.031,1.593l5.61,3.63-5.61,3.63a.949.949,0,1,0,1.031,1.593L24.79,30.77l2.972,1.923c0,.037-.011.072-.011.109a2.874,2.874,0,1,0,.74-1.9L26.537,29.64,28.9,28.114a2.819,2.819,0,0,0,1.7.578Zm0-3.8a.949.949,0,1,1-.949.949A.949.949,0,0,1,30.6,24.9Zm0,6.957a.949.949,0,1,1-.949.949.949.949,0,0,1,.949-.949Z" transform="translate(-11872.981 -19097.42)" fill="#444"/>
  </g>
</svg>
