<svg xmlns="http://www.w3.org/2000/svg" width="58" height="47.126" viewBox="0 0 58 47.126">
  <path id="Path_607202" data-name="Path 607202" d="M18.746,49.219c21.883,0,33.852-18.13,33.852-33.852,0-.508-.01-1.03-.034-1.539A24.211,24.211,0,0,0,58.5,7.668a23.431,23.431,0,0,1-6.83,1.87A11.964,11.964,0,0,0,56.9,2.956,23.863,23.863,0,0,1,49.35,5.842,11.917,11.917,0,0,0,29.063,16.7a33.831,33.831,0,0,1-13.579-3.606A33.825,33.825,0,0,1,4.543,4.269,11.912,11.912,0,0,0,8.224,20.148a11.857,11.857,0,0,1-5.391-1.484v.147A11.894,11.894,0,0,0,12.38,30.479a11.792,11.792,0,0,1-5.367.2,11.926,11.926,0,0,0,11.109,8.27,23.857,23.857,0,0,1-14.78,5.1A23.32,23.32,0,0,1,.5,43.877,33.75,33.75,0,0,0,18.746,49.219Z" transform="translate(-0.5 -2.093)" fill="#fff"/>
</svg>
