<svg xmlns="http://www.w3.org/2000/svg" width="22" height="22" viewBox="0 0 22 22">
  <g id="SXmock_Video_22_N" transform="translate(11 11)">
    <g id="SXmock_Video_22_N-2" data-name="SXmock_Video_22_N" transform="translate(-11 -11)">
      <rect id="Canvas" width="22" height="22" fill="#fff" opacity="0"/>
      <path id="Path_602528" data-name="Path 602528" d="M16,1H6A5.006,5.006,0,0,0,1,6V16a5.006,5.006,0,0,0,5,5H16a5.006,5.006,0,0,0,5-5V6a5.006,5.006,0,0,0-5-5Zm3,15a3,3,0,0,1-3,3H6a3,3,0,0,1-3-3V6A3,3,0,0,1,6,3H16a3,3,0,0,1,3,3Z" fill="#fff"/>
      <path id="Path_602529" data-name="Path 602529" d="M14.474,10.074,9.711,7.168A1.119,1.119,0,0,0,8,8.093v5.813a1.119,1.119,0,0,0,1.711.926l4.764-2.907a1.078,1.078,0,0,0,0-1.851Z" fill="#fff"/>
    </g>
  </g>
</svg>
