<svg id="SX_Video_18_S" xmlns="http://www.w3.org/2000/svg" width="18" height="18" viewBox="0 0 18 18">
  <g id="SMOCK">
    <rect id="Canvas" width="18" height="18" fill="rgba(255,19,220,0)"/>
  </g>
  <g id="ICONS">
    <path id="Path_119852" data-name="Path 119852" d="M13,0H5A5.006,5.006,0,0,0,0,5v7a5.006,5.006,0,0,0,5,5h8a5.006,5.006,0,0,0,5-5V5a5.006,5.006,0,0,0-5-5Zm-.526,9.426L7.711,12.332A1.119,1.119,0,0,1,6,11.407V5.593a1.119,1.119,0,0,1,1.711-.926l4.764,2.907a1.078,1.078,0,0,1,0,1.851Z" fill="#5c5ce0"/>
  </g>
</svg>
