<svg id="SX_Video_22_N" xmlns="http://www.w3.org/2000/svg" width="22" height="22" viewBox="0 0 22 22">
  <g id="SMOCK">
    <rect id="Canvas" width="22" height="22" fill="rgba(255,19,220,0)"/>
  </g>
  <g id="ICONS">
    <path id="Path_125907" data-name="Path 125907" d="M16,1H6A5.006,5.006,0,0,0,1,6V16a5.006,5.006,0,0,0,5,5H16a5.006,5.006,0,0,0,5-5V6a5.006,5.006,0,0,0-5-5Zm3,15a3,3,0,0,1-3,3H6a3,3,0,0,1-3-3V6A3,3,0,0,1,6,3H16a3,3,0,0,1,3,3Z" fill="#484848"/>
    <path id="Path_125908" data-name="Path 125908" d="M14.474,10.074,9.711,7.168A1.119,1.119,0,0,0,8,8.093v5.814a1.119,1.119,0,0,0,1.711.925l4.763-2.906a1.078,1.078,0,0,0,0-1.852Z" fill="#484848"/>
  </g>
</svg>
