<svg id="SX_VisibilityOff_18_N" xmlns="http://www.w3.org/2000/svg" width="18" height="18" viewBox="0 0 18 18">
  <g id="SMOCK">
    <rect id="Canvas" width="18" height="18" fill="rgba(255,19,220,0)"/>
  </g>
  <g id="ICONS">
    <path id="Path_127145" data-name="Path 127145" d="M7.547,4.158a10.189,10.189,0,0,1,1.418-.152C12.956,4.006,16,8.259,16,9.055c0,.937-1.248,1.607-1.248,2.394a1,1,0,0,0,1.77.639C17.661,10.715,18,10.028,18,9.054c0-2.036-4.063-7.048-9.03-7.048-1.235,0-2.412.131-2.412,1.149a1,1,0,0,0,.993,1Z"/>
    <path id="Path_127146" data-name="Path 127146" d="M18,17a1,1,0,0,0-.293-.707l-6-6A2.967,2.967,0,0,0,12.009,9a3,3,0,0,0-3-3,2.965,2.965,0,0,0-1.291.3L1.707.293A1,1,0,1,0,.293,1.707L3.016,4.43C2.33,5.021,0,7.174,0,9.006,0,11.414,4.3,16,9.024,16a8.358,8.358,0,0,0,4.339-1.223l2.93,2.93A1,1,0,0,0,18,17ZM9.091,13.989C4.964,13.989,2,9.834,2,9.005,2,8.143,3.776,6.4,4.435,5.849L6.307,7.721A2.967,2.967,0,0,0,6.009,9a3,3,0,0,0,3,3,2.965,2.965,0,0,0,1.279-.3L11.9,13.309a6.163,6.163,0,0,1-2.8.68Z"/>
  </g>
</svg>
