<svg xmlns="http://www.w3.org/2000/svg" width="43" height="40" viewBox="0 0 43 40">
  <g id="Group_376905" data-name="Group 376905" transform="translate(-190 -1225)">
    <g id="SLmock_Desktop_22_N" transform="translate(190 1225)">
      <g id="SMOCK">
        <rect id="Canvas" width="40" height="40" fill="rgba(255,19,220,0)"/>
      </g>
      <g id="ICONS">
        <path id="Path_127671" data-name="Path 127671" d="M30.909,0H9.091A9.242,9.242,0,0,0,0,9.365V20.6a9.242,9.242,0,0,0,9.091,9.365h9.091v5.619H14.545a1.874,1.874,0,0,0,0,3.746H25.455a1.874,1.874,0,0,0,0-3.746H21.818V29.968h9.091A9.242,9.242,0,0,0,40,20.6V9.365A9.242,9.242,0,0,0,30.909,0Zm5.455,20.6a5.545,5.545,0,0,1-5.455,5.619H9.091A5.545,5.545,0,0,1,3.636,20.6V9.365A5.545,5.545,0,0,1,9.091,3.746H30.909a5.545,5.545,0,0,1,5.455,5.619Z" fill="#484848"/>
      </g>
    </g>
    <g id="Group_308283" data-name="Group 308283" transform="translate(-43 24)">
      <rect id="Rectangle_299149" data-name="Rectangle 299149" width="10" height="17" transform="translate(260 1216)" fill="#fff"/>
      <g id="SXmock_Mobile_22_N" transform="translate(254 1214)">
        <g id="SMOCK-2" data-name="SMOCK">
          <rect id="Canvas-2" data-name="Canvas" width="22" height="22" fill="rgba(255,19,220,0)"/>
        </g>
        <g id="ICONS-2" data-name="ICONS">
          <path id="Path_127677" data-name="Path 127677" d="M15,0H7A3,3,0,0,0,4,3V18a3,3,0,0,0,3,3h8a3,3,0,0,0,3-3V3a3,3,0,0,0-3-3Zm1,18a1,1,0,0,1-1,1H7a1,1,0,0,1-1-1V3A1,1,0,0,1,7,2h8a1,1,0,0,1,1,1Z" fill="#484848"/>
          <circle id="Ellipse_24755" data-name="Ellipse 24755" cx="1" cy="1" r="1" transform="translate(10 16)" fill="#484848"/>
          <path id="Path_127678" data-name="Path 127678" d="M12,3H10a1,1,0,0,0,0,2h2a1,1,0,0,0,0-2Z" fill="#484848"/>
        </g>
      </g>
    </g>
  </g>
</svg>
