<svg id="_03_AX_EDU_worksheet_icon_22" data-name="03_AX_EDU_worksheet_icon_22" xmlns="http://www.w3.org/2000/svg" width="22" height="22" viewBox="0 0 22 22">
  <rect id="SX_Worksheet_22_N" width="22" height="22" fill="none" opacity="0.05"/>
  <path id="Path_602509" data-name="Path 602509" d="M9.75,17h-4A.75.75,0,0,1,5,16.25v-4a.75.75,0,0,1,.75-.75h4a.75.75,0,0,1,.75.75v4A.75.75,0,0,1,9.75,17ZM6.5,15.5H9V13H6.5ZM16.757,17H11.75a.751.751,0,0,1-.642-1.139l2.5-4.134a.779.779,0,0,1,1.284,0l2.5,4.134A.75.75,0,0,1,16.757,17Zm-3.676-1.5h2.345l-1.173-1.937ZM10,9A1,1,0,0,0,9,8H6a1,1,0,0,0,0,2H9A1,1,0,0,0,10,9Zm0-3A1,1,0,0,0,9,5H6A1,1,0,0,0,6,7H9A1,1,0,0,0,10,6Zm9.121.535L14.464,1.878A2.986,2.986,0,0,0,12.343,1H7A5.006,5.006,0,0,0,2,6V16a5.006,5.006,0,0,0,5,5h8a5.006,5.006,0,0,0,5-5V8.657A2.987,2.987,0,0,0,19.121,6.535ZM17.706,7.948c.015.015.021.036.035.052H14a1,1,0,0,1-1-1V3.259c.016.014.036.019.051.034ZM15,19H7a3,3,0,0,1-3-3V6A3,3,0,0,1,7,3h4V7a3,3,0,0,0,3,3h4v6A3,3,0,0,1,15,19Z" fill="#fff"/>
</svg>
