<svg xmlns="http://www.w3.org/2000/svg" width="44" height="44" viewBox="0 0 44 44"><rect width="44" height="44" fill="rgba(255,19,220,0)"/><path d="M26.674,21.323a1.5,1.5,0,0,0,.617-2.029,6.261,6.261,0,0,0-4.205-3.053c.052-.088.11-.168.16-.259a6.377,6.377,0,0,0-.069-6.519A5.575,5.575,0,0,0,18.457,7H13.5A1.5,1.5,0,0,0,12,8.5v19A1.5,1.5,0,0,0,13.5,29h7a1.5,1.5,0,0,0,0-3H15V19.009h6.055a3.894,3.894,0,0,1,3.59,1.7,1.5,1.5,0,0,0,2.029.617ZM15,10h3.457a2.591,2.591,0,0,1,2.208,1.1,3.484,3.484,0,0,1-.056,3.451A2.421,2.421,0,0,1,18.7,16.009H15Z" fill="#444"/><path d="M19,36A15.017,15.017,0,0,1,4,21V10.5A6.508,6.508,0,0,1,10.5,4h17A6.508,6.508,0,0,1,34,10.5v8a1.5,1.5,0,0,0,3,0v-8A9.511,9.511,0,0,0,27.5,1h-17A9.511,9.511,0,0,0,1,10.5V21A18.021,18.021,0,0,0,19,39a1.5,1.5,0,0,0,0-3Z" fill="#444"/><path d="M38.561,31.439a1.5,1.5,0,1,0-2.121,2.121L38.879,36H26.5a1.5,1.5,0,0,0,0,3H38.879l-2.439,2.439a1.5,1.5,0,1,0,2.121,2.121l5-5a1.5,1.5,0,0,0,0-2.121Z" fill="#444"/><path d="M42.5,26H30.121l2.439-2.439a1.5,1.5,0,1,0-2.121-2.121l-5,5a1.5,1.5,0,0,0,0,2.121l5,5a1.5,1.5,0,1,0,2.121-2.121L30.121,29H42.5a1.5,1.5,0,0,0,0-3Z" fill="#444"/></svg>