<svg id="SX_IlluBrand_44_N" xmlns="http://www.w3.org/2000/svg" width="44" height="44" viewBox="0 0 44 44">
  <g id="SLMOCK">
    <rect id="Canvas" width="44" height="44" fill="rgba(255,19,220,0)"/>
  </g>
  <g id="Illu">
    <path id="Path_127453" data-name="Path 127453" d="M16.5,31h7.8a6.686,6.686,0,0,0,5.122-2.374A6.791,6.791,0,0,0,30.9,23.087a6,6,0,0,0-4.8-4.849c.05-.084.1-.17.146-.257a6.377,6.377,0,0,0-.069-6.519A5.575,5.575,0,0,0,21.457,9H16.5A1.5,1.5,0,0,0,15,10.5v19A1.5,1.5,0,0,0,16.5,31ZM18,12h3.457a2.591,2.591,0,0,1,2.208,1.1,3.483,3.483,0,0,1-.056,3.451A2.42,2.42,0,0,1,21.7,18.009H18Zm0,9.009h6.055c.808,0,3.477.187,3.886,2.582a3.749,3.749,0,0,1-.812,3.1A3.694,3.694,0,0,1,24.3,28H18Z" fill="#484848"/>
    <path id="Path_127454" data-name="Path 127454" d="M22,41A18.021,18.021,0,0,0,40,23V12.5A9.511,9.511,0,0,0,30.5,3h-17A9.511,9.511,0,0,0,4,12.5V23A18.021,18.021,0,0,0,22,41ZM7,12.5A6.508,6.508,0,0,1,13.5,6h17A6.508,6.508,0,0,1,37,12.5V23A15,15,0,0,1,7,23Z" fill="#484848"/>
  </g>
</svg>
