<svg xmlns="http://www.w3.org/2000/svg" width="44" height="44" viewBox="0 0 44 44"><rect width="44" height="44" fill="rgba(255,19,220,0)"/><path d="M28.5,17H35v.5a1.5,1.5,0,0,0,3,0v-.654a7.48,7.48,0,0,0-1.989-5.087,1.407,1.407,0,0,0-.129-.124L27.319,4.344A7.519,7.519,0,0,0,21.873,2H11.5A9.511,9.511,0,0,0,2,11.5v19A9.511,9.511,0,0,0,11.5,40h7a1.5,1.5,0,0,0,0-3h-7A6.508,6.508,0,0,1,5,30.5v-19A6.508,6.508,0,0,1,11.5,5H21V9.5A7.508,7.508,0,0,0,28.5,17ZM25.309,6.572l8.554,7.283c.04.045.069.1.107.145H28.5A4.5,4.5,0,0,1,24,9.5V5.562a4.466,4.466,0,0,1,1.18.887A1.408,1.408,0,0,0,25.309,6.572Z" fill="#444"/><path d="M39.722,22H26.278A3.281,3.281,0,0,0,23,25.277V34.5A9.511,9.511,0,0,0,32.5,44h1A9.511,9.511,0,0,0,43,34.5V25.277A3.281,3.281,0,0,0,39.722,22ZM40,34.5A6.508,6.508,0,0,1,33.5,41h-1A6.508,6.508,0,0,1,26,34.5V25.277A.278.278,0,0,1,26.278,25H39.722a.278.278,0,0,1,.278.277Z" fill="#444"/><path d="M35.844,30.621A3.982,3.982,0,0,0,36,29.5c0-2.159-1.447-3.5-3.777-3.5H29.5A1.5,1.5,0,0,0,28,27.5v9A1.5,1.5,0,0,0,29.5,38h3c4.786,0,5.5-2.506,5.5-4A3.6,3.6,0,0,0,35.844,30.621ZM31,29h1.223c.777,0,.777.136.777.5s-.076.5-.5.5H31Zm1.5,6H31V33h1.5c2.5,0,2.5.727,2.5,1C35,34.3,35,35,32.5,35Z" fill="#444"/></svg>