<svg xmlns="http://www.w3.org/2000/svg" width="44" height="44" viewBox="0 0 44 44">
  <g id="SX_IlluConvert_44_N" transform="translate(-1115 -540)">
    <g id="Group_187340" data-name="Group 187340" transform="translate(1115 540)">
      <g id="SLMOCK" transform="translate(0)">
        <rect id="Canvas" width="44" height="44" fill="rgba(255,19,220,0)"/>
      </g>
      <g id="Illu" transform="translate(1.996 3)">
        <path id="Path_127224" data-name="Path 127224" d="M5.223,28.757A14.019,14.019,0,0,0,8.874,31a19.78,19.78,0,0,0,2.982.989v.693a3.3,3.3,0,0,0,.931,2.307A3.335,3.335,0,0,0,15.17,36a3.253,3.253,0,0,0,2.047-.739A7.507,7.507,0,0,0,24.5,41h10A7.508,7.508,0,0,0,42,33.5v-10A7.508,7.508,0,0,0,34.5,16H27V14.559a1.5,1.5,0,0,0-3,0V17.5A1.5,1.5,0,0,0,25.5,19h9A4.5,4.5,0,0,1,39,23.5v10A4.5,4.5,0,0,1,34.5,38h-10A4.5,4.5,0,0,1,20,33.5v-1c0-.014,0-.028,0-.042l3.128-3.221.065-.069a3.176,3.176,0,0,0,.453-3.653,1.457,1.457,0,0,0,1.736-.478A7.486,7.486,0,0,0,26.513,22.9a1.5,1.5,0,1,0-2.842-.963,4.479,4.479,0,0,1-.68,1.279,1.493,1.493,0,0,0-.288,1.131L17.527,19l-.049-.05A3.272,3.272,0,0,0,15.168,18a3.332,3.332,0,0,0-2.379,1,3.3,3.3,0,0,0-.935,2.315v.669a9.569,9.569,0,0,1-1.245.126c-.075,0-.141,0-.207,0a5.308,5.308,0,0,1-1.5-.2,6.6,6.6,0,0,1-1.766-.841,3.32,3.32,0,0,0-4.6,4.6A14.792,14.792,0,0,0,4.3,27.886C4.593,28.193,4.905,28.486,5.223,28.757Zm-.131-5.136a.308.308,0,0,1,.392-.044l.008,0a9.581,9.581,0,0,0,2.57,1.211,8.332,8.332,0,0,0,2.341.324q.144,0,.287,0a21.529,21.529,0,0,0,4.165-.685V21.315a.312.312,0,0,1,.088-.222A.337.337,0,0,1,15.168,21a.283.283,0,0,1,.2.089l5.6,5.789a.2.2,0,0,1,0,.27l-5.6,5.765a.282.282,0,0,1-.2.088.337.337,0,0,1-.227-.1.315.315,0,0,1-.088-.222v-3.1a24.308,24.308,0,0,1-4.806-1.341,11.13,11.13,0,0,1-2.88-1.766q-.378-.323-.718-.675a11.748,11.748,0,0,1-1.4-1.766A.334.334,0,0,1,5.092,23.621Z" transform="translate(-1.996 -3)" fill="#484848"/>
        <path id="Path_127225" data-name="Path 127225" d="M3.316,10.336A1.5,1.5,0,0,0,5.163,9.292a4.462,4.462,0,0,1,.607-1.312A1.5,1.5,0,0,0,3.29,6.294a7.434,7.434,0,0,0-1.018,2.2,1.5,1.5,0,0,0,1.044,1.847Z" transform="translate(-1.996 -3)" fill="#484848"/>
        <path id="Path_127226" data-name="Path 127226" d="M23.743,9.292a1.5,1.5,0,1,0,2.891-.8,7.434,7.434,0,0,0-1.018-2.2,1.5,1.5,0,1,0-2.48,1.686A4.462,4.462,0,0,1,23.743,9.292Z" transform="translate(-1.996 -3)" fill="#484848"/>
        <path id="Path_127227" data-name="Path 127227" d="M17.5,6h1.906a1.515,1.515,0,0,0,1.518-1.5A1.485,1.485,0,0,0,19.441,3H17.5a1.5,1.5,0,1,0,0,3Z" transform="translate(-1.996 -3)" fill="#484848"/>
        <path id="Path_127228" data-name="Path 127228" d="M9.5,6h1.906a1.5,1.5,0,0,0,0-3H9.465A1.485,1.485,0,0,0,7.982,4.5,1.516,1.516,0,0,0,9.5,6Z" transform="translate(-1.996 -3)" fill="#484848"/>
        <path id="Path_127229" data-name="Path 127229" d="M3.5,18A1.5,1.5,0,0,0,5,16.5V14.559a1.5,1.5,0,0,0-3,0V16.5A1.5,1.5,0,0,0,3.5,18Z" transform="translate(-1.996 -3)" fill="#484848"/>
      </g>
    </g>
  </g>
</svg>
