<svg xmlns="http://www.w3.org/2000/svg" width="44" height="44" viewBox="0 0 44 44"><rect width="44" height="44" fill="rgba(255,19,220,0)"/><path d="M26.734,11.458c-.149,0-.3,0-.451.007a1.482,1.482,0,0,0-.755.236L21.839,4.882a5.5,5.5,0,0,0-9.679,0l-4.6,8.5-4.882,8.34A5.581,5.581,0,0,0,2.8,27.278,5.518,5.518,0,0,0,7.576,30h4.542a1.487,1.487,0,0,0-.059.982A15.261,15.261,0,0,0,26.723,42c.15,0,.3,0,.452-.007a15.27,15.27,0,1,0-.44-30.537ZM5.376,25.742A2.588,2.588,0,0,1,5.3,23.189l4.882-8.34L14.8,6.31a2.5,2.5,0,0,1,4.4,0l4.645,8.584,4.832,8.252a2.605,2.605,0,0,1-.054,2.6A2.509,2.509,0,0,1,26.424,27H7.576a2.509,2.509,0,0,1-2.2-1.258ZM27.087,39a12.291,12.291,0,0,1-12.146-8.847,1.464,1.464,0,0,0-.06-.148H26.424A5.518,5.518,0,0,0,31.2,27.278a5.6,5.6,0,0,0,.09-5.6l-4.215-7.2A12.265,12.265,0,0,1,27.087,39Z" fill="#444"/></svg>