<?xml version="1.0"?>
<svg xmlns="http://www.w3.org/2000/svg" width="32" height="32" viewBox="0 0 32 32">
  <g transform="translate(-162 -923)">
    <g transform="translate(154.5 909.125)" opacity="0.3">
      <path d="M35.842,34.274H33.415V29.79a.658.658,0,0,0-.658-.658h-8.6V25.305h2.427a.658.658,0,0,0,.658-.658V20.533a.658.658,0,0,0-.658-.658H20.415a.658.658,0,0,0-.658.658v4.114a.658.658,0,0,0,.658.658h2.427v3.826h-8.6a.658.658,0,0,0-.658.658v4.484H11.158a.658.658,0,0,0-.658.658v4.114a.658.658,0,0,0,.658.658h6.171a.658.658,0,0,0,.658-.658V34.932a.658.658,0,0,0-.658-.658H14.9V30.448h7.94v3.826H20.415a.658.658,0,0,0-.658.658v4.114a.658.658,0,0,0,.658.658h6.171a.658.658,0,0,0,.658-.658V34.932a.658.658,0,0,0-.658-.658H24.158V30.448H32.1v3.826H29.671a.658.658,0,0,0-.658.658v4.114a.658.658,0,0,0,.658.658h6.171a.658.658,0,0,0,.658-.658V34.932a.658.658,0,0,0-.658-.658ZM21.073,21.191h4.854v2.8H21.073Zm-4.4,17.2H11.816v-2.8h4.854Zm9.256,0H21.073v-2.8h4.854Zm9.256,0H30.329v-2.8h4.854Z" transform="translate(0)"/>
    </g>
    <path d="M0,0H32V32H0Z" transform="translate(162 923)" fill="none"/>
  </g>
</svg>
