<?xml version="1.0"?>
<svg xmlns="http://www.w3.org/2000/svg" width="32" height="32" viewBox="0 0 32 32">
  <g transform="translate(-61 -747)">
    <g transform="translate(63 749)" opacity="0.3">
      <rect width="28" height="28" fill="#ff13dc" opacity="0"/>
      <path d="M14.965,14.647a1.136,1.136,0,0,1-.966-1.1V11.976a1.149,1.149,0,0,1,.254-.7,9.8,9.8,0,0,0,1.74-5.521C15.992,1.832,14.077.1,11.183.1S6.322,1.919,6.322,5.753A9.864,9.864,0,0,0,8.15,11.276a1.141,1.141,0,0,1,.253.7V13.54a1.134,1.134,0,0,1-.974,1.1C1.192,15.305.1,19.508.1,21.2v2.115H12.817l.322-1.347a3.044,3.044,0,0,1,.757-1.217l4.943-4.943a10.15,10.15,0,0,0-3.875-1.162Z" transform="translate(0.017 0.017)" fill="none" stroke="#000" stroke-width="1"/>
      <path d="M19.144,13.2c-.048-.006-.089-.015-.137-.021a1.023,1.023,0,0,1-.873-.991V10.776a1.027,1.027,0,0,1,.233-.631,8.821,8.821,0,0,0,1.564-4.97C19.925,1.647,18.2.1,15.6.1a4.851,4.851,0,0,0-1.335.2,8.338,8.338,0,0,1,1.664,5.455,12.1,12.1,0,0,1-1.994,6.6v.216a11.932,11.932,0,0,1,4.243,1.595Z" transform="translate(2.322 0.017)"/>
      <path d="M25.693,14.937l-2.613-2.73a.574.574,0,0,0-.411-.167h-.018a.646.646,0,0,0-.439.193l-8.427,8.427a.46.46,0,0,0-.117.2l-1.525,4.615c-.052.178.218.4.371.4a.117.117,0,0,0,.029,0c.132-.029,3.934-1.318,4.619-1.524a.483.483,0,0,0,.2-.117l8.31-8.428a.612.612,0,0,0,.026-.867ZM13.26,24.757l1.283-3.513,2.235,2.229C15.752,23.777,14.148,24.493,13.26,24.757Z" transform="translate(2.023 2.007)"/>
    </g>
    <path d="M0,0H32V32H0Z" transform="translate(61 747)" fill="none"/>
  </g>
</svg>
