<?xml version="1.0"?>
<svg xmlns="http://www.w3.org/2000/svg" width="32" height="32" viewBox="0 0 32 32">
  <g transform="translate(9624 3398)">
    <path d="M0,0H32V32H0Z" transform="translate(-9624 -3398)" fill="rgba(255,255,255,0)"/>
    <g opacity="0.3">
      <path d="M22.76,22H12.779V20.625h9.294V4.125H20.7V13.75l-2.75-2.062L15.2,13.75V4.125H5.573V15.669l-1.375.9V3.438a.689.689,0,0,1,.688-.688H19.323V1.375H2.823V17.163H1.448V.687A.688.688,0,0,1,2.135,0H20.01A.688.688,0,0,1,20.7.687V2.75H22.76a.689.689,0,0,1,.688.688V21.312A.689.689,0,0,1,22.76,22Z" transform="translate(-9617.448 -3396)"/>
      <path d="M18,6.729v.593c-.006.032-.013.064-.016.1-.031.258-.051.517-.093.773a6.325,6.325,0,0,1-.882,2.319,6.6,6.6,0,0,1-2.734,2.477,6.4,6.4,0,0,1-2.109.622l-.489.054H5.353a.791.791,0,0,0-.1-.017A5.392,5.392,0,0,1,3.422,13.2,5.6,5.6,0,0,1,.578,10.5,5.316,5.316,0,0,1,.053,8.753Q.026,8.531,0,8.31V7.735a.768.768,0,0,0,.017-.1,5.3,5.3,0,0,1,.346-1.6,5.6,5.6,0,0,1,2.8-3.082,5.493,5.493,0,0,1,2.2-.568,6.1,6.1,0,0,1,1.128.052A.142.142,0,0,0,6.6,2.4,6.668,6.668,0,0,1,8.439,1.066,6.45,6.45,0,0,1,10.559.442c.175-.02.35-.036.525-.055h.539c.035.005.071.012.106.016.267.031.536.051.8.095a6.342,6.342,0,0,1,2.305.875,6.6,6.6,0,0,1,2.489,2.739,6.38,6.38,0,0,1,.623,2.111c.019.169.036.338.054.507M7.936,2.894c.011.014.013.021.018.023a7.2,7.2,0,0,1,1.058.64.111.111,0,0,0,.1-.007,4.154,4.154,0,0,1,5.526.951,3.929,3.929,0,0,1,.814,3.2,4.1,4.1,0,0,1-1,2.11,4.021,4.021,0,0,1-3.688,1.352,3.893,3.893,0,0,1-2.315-1.153C7.626,9.179,6.8,8.352,5.971,7.523A.668.668,0,0,0,5.58,7.3a.621.621,0,0,0-.648.353.573.573,0,0,0,.139.7c.921.9,1.833,1.816,2.753,2.721a4.445,4.445,0,0,0,.505.43,4.833,4.833,0,0,0,2.25.866,5.427,5.427,0,0,0,1.917-.076,5.405,5.405,0,0,0,4.182-4.548,5.305,5.305,0,0,0-.049-1.741,5.167,5.167,0,0,0-1.215-2.491,5.281,5.281,0,0,0-4.555-1.834,5.06,5.06,0,0,0-1.981.583,5.227,5.227,0,0,0-.941.627M7.491,12.4l-.075-.07c-.376-.355-.755-.709-1.127-1.069a.3.3,0,0,0-.24-.1,4.564,4.564,0,0,1-1.125-.073A3.148,3.148,0,0,1,6.174,4.92,3.052,3.052,0,0,1,7.88,5.8c.577.6,1.171,1.174,1.754,1.764a.524.524,0,0,0,.469.169.59.59,0,0,0,.513-.38.561.561,0,0,0-.13-.622c-.612-.62-1.209-1.256-1.846-1.849a4.179,4.179,0,0,0-4.3-1,4.366,4.366,0,0,0,1.329,8.527H7.391c.028,0,.057,0,.1,0" transform="translate(-9622 -3381.39)"/>
    </g>
  </g>
</svg>
