<svg id="SXmock_FontsCollection_44_N" xmlns="http://www.w3.org/2000/svg" width="44" height="44" viewBox="0 0 44 44">
  <g id="SLMOCK">
    <rect id="Canvas" width="44" height="44" fill="rgba(255,19,220,0)"/>
  </g>
  <g id="ICONS">
    <path id="Path_129477" data-name="Path 129477" d="M34.226,6.528V5.557H30.711V3.821c.238-.034.358-.116.379-.261l-1.7-.092V5.555H25.878v.878h8.3Z" fill="#444"/>
    <path id="Path_129478" data-name="Path 129478" d="M29.393,13.03H25.878v.879h3.278a12.413,12.413,0,0,1-3.627,4.254,4.79,4.79,0,0,1,.825.894,14.13,14.13,0,0,0,3.039-3.6v5.038h.879V15.657a14.788,14.788,0,0,1,2.7,2.254l.742-.95c-.479-.421-3-2.478-3-2.478V13.9h3.515V12.587H30.711v-1.68c-.045,0,.078-.077.078-.077h3.876V9.512H31.85A10.9,10.9,0,0,0,32.931,7.2c.215-.02.337-.081.373-.186l-1.416-.447a20.7,20.7,0,0,1-1.016,2.946H28.913a11.1,11.1,0,0,0-.864-2.89l-1.007.28a13.28,13.28,0,0,1,.8,2.61h-2.4V10.83h3.954Z" fill="#444"/>
    <path id="Path_129479" data-name="Path 129479" d="M33.448,20.709a8.777,8.777,0,0,0,1.607-2.117,10.608,10.608,0,0,0,.918-2.343,15.584,15.584,0,0,0,.447-4.613v-.8H39.5V20.5h1.318V9.512h-4.39V6.4c1.594-.376,4.393-1.414,4.393-1.414V3.643a28.88,28.88,0,0,1-4.8,1.791l-.911-.3v6.486s-.133,5.906-2.533,8.213a2.781,2.781,0,0,1,.876.875Z" fill="#444"/>
    <path id="Path_129480" data-name="Path 129480" d="M24.1,20.88a.456.456,0,0,0-.122-.31.831.831,0,0,0-.537-.211c-.1,0-.145,0-.5.207A24.229,24.229,0,0,0,19.489,23c-.061,0-.081-.02-.081-.081,0-.228.434-1.4,2.581-5.247a1.527,1.527,0,0,0,.163-.8,1.1,1.1,0,0,0-.227-.723,2.62,2.62,0,0,0-2.127-.888c-.082,0-1.776.185-3.945,2.623a17.132,17.132,0,0,0-2.024,2.685,4.126,4.126,0,0,0-.6,1.921c0,.435.041.5.145.6a4.367,4.367,0,0,0,1.239.95,1.57,1.57,0,0,0,.62.123c1.032,0,1.92-.989,2.85-1.877a.073.073,0,0,1,.062-.021.045.045,0,0,1,.041.041v.041c-2.253,5.2-2.52,4.647-4.09,7.063C13.064,31,12.7,31.684,12.7,32.2a1.752,1.752,0,0,0,.062.455c.1.393.681.6,1.074.6a1.294,1.294,0,0,0,1.487-.867c.248-.457,1.012-2.231,1.714-3.925,1.054-2.5,3.077-4.358,6.9-7.229a.428.428,0,0,0,.165-.355ZM15.41,22.4a.706.706,0,0,1-.413.1c-.085,0-.248-.081-.248-.163A3.239,3.239,0,0,1,15,21.557a16.6,16.6,0,0,1,3.16-3.987c.289-.268.454-.289.867-.619a1.558,1.558,0,0,1,.951-.434.974.974,0,0,1,.351.062c.206.084.206.145.206.207,0,.041.041.081.041.122a.28.28,0,0,1-.062.145,19.687,19.687,0,0,1-5.1,5.352Z" fill="#444"/>
    <path id="Path_129481" data-name="Path 129481" d="M11.36,23.09l.1-2.065c.02-.269.041-.291.227-.413A1.784,1.784,0,0,1,12.6,20.4c.784,0,1.239-.124,1.487-.537a.554.554,0,0,0,.081-.269c0-.063-.019-.1-.122-.227a1.731,1.731,0,0,0-1.26-.392,9.883,9.883,0,0,0-1.074.082c-.123,0-.123-.061-.123-.123,0-.081.207-3.49.454-5.06A4.316,4.316,0,0,0,12.1,13.2c0-.125.31-1.776.31-1.962,0-.165-.1-.124-.166-.33-.041-.1-.433-.186-.7-.186a12.919,12.919,0,0,0-1.322.248c-.083,0-.124.02-.454.516C7.5,14.891,5.763,17.8,4.152,20.8c-.145.269-.186.289-.248.289-.269,0-.558-.351-.888-.351a.384.384,0,0,0-.228.082,2.609,2.609,0,0,0-.309,1.136c0,.268.165.371.66.64.082.041.123.082.123.144a9.141,9.141,0,0,0-.269,1.8c0,.867.124,1.115.579,1.4a1.273,1.273,0,0,0,.392.186c.289,0,.516-.268.785-.455.062-.04.1-.081.1-.122a8.751,8.751,0,0,1-.062-1.156,3.58,3.58,0,0,1,.331-1.447c.1-.227.165-.268.309-.288a33.65,33.65,0,0,0,4.194-1.261c.081,0,.122.02.122.082,0,.95-.082,1.838-.082,2.768a6.072,6.072,0,0,0,.393,2.623,1.573,1.573,0,0,0,1.054.371.285.285,0,0,0,.227-.081c.165-.124.413-.269.413-.515a4.678,4.678,0,0,1-.408-2.253C11.34,24.079,11.34,23.355,11.36,23.09ZM9.789,19.615c-.022.166-.041.187-.144.228-.083.041-.62.206-1.384.5a12.2,12.2,0,0,1-2.066.579c-.081,0-.122-.02-.122-.082a2.1,2.1,0,0,1,.248-.537c1.032-1.962,2.148-3.862,3.718-6.382.1-.165.145-.165.186-.165s.061.021.061.33a49.082,49.082,0,0,1-.5,5.534Z" fill="#444"/>
    <path id="Path_129482" data-name="Path 129482" d="M26.052,37.5H32.2v-.44h-.725L26.472,25.633h-.821L20.624,37.056H19.9v.44h3.515v-.44H21.59l.988-2.636H26.3l1.279,2.636H26.052Zm-3.393-3.515,1.522-4.69,1.991,4.69Z" fill="#444"/>
    <path id="Path_129483" data-name="Path 129483" d="M38.677,29.809a4.016,4.016,0,0,0-2.153-.55c-2.346,0-3.708,1.423-3.708,3.2A2.953,2.953,0,0,0,33.982,34.9a3.657,3.657,0,0,0-1.328,2.636,1.932,1.932,0,0,0,.518,1.423c-.68.257-1.069.7-1.069,1.18,0,1.021,1.166,1.5,3.546,1.5,2.98,0,4.988-1.195,4.988-3.04,0-1.407-1.022-1.989-2.9-1.989H35.872c-1.409,0-1.91-.678-1.749-1.6a4.225,4.225,0,0,0,2.348.663c2.235,0,3.579-1.374,3.579-3.2a3.025,3.025,0,0,0-1.166-2.522,10.079,10.079,0,0,1,2.526,1.116l.016-.017V28.4l-.012-.017C40.442,28.886,39.551,29.34,38.677,29.809Zm-3.389,9.884h1.748c1.279,0,1.749.193,1.749.565,0,.6-.987,1.051-2.234,1.051-1.652,0-2.947-.692-3.336-2.2A3.143,3.143,0,0,0,35.288,39.693ZM37.6,35.3c-.486,0-1.1-.518-2.04-2.248a6.268,6.268,0,0,1-.971-2.555v-.057a.645.645,0,0,1,.635-.654c.5,0,1.068.55,2.024,2.247a6.11,6.11,0,0,1,.971,2.556C38.218,35.06,37.972,35.3,37.6,35.3Z" fill="#444"/>
  </g>
</svg>
