<?xml version="1.0"?>
<svg xmlns="http://www.w3.org/2000/svg" height="96" viewBox="0 0 96 96" width="96">
  <g fill="none" fill-rule="evenodd">
    <path d="m0 0h96v96h-96z"/>
    <g stroke-linecap="round" stroke-width="2" transform="translate(13 22)">
      <path d="m46.5 43.5h-4.5l-3 3h-12l-3-3h-24v-37.5h2" stroke="#000" stroke-linejoin="round"/>
      <path d="m64 4.5h2v15" stroke="#000" stroke-linejoin="round"/>
      <path d="m36 40.5h-3v-31.5c0-4.8 3-9 9-9h18v13" stroke="#000" stroke-linejoin="round"/>
      <path d="m6 37.5h18c2.85 0 4.8.75 6 3h3v-31.5c0-4.8-3-9-9-9h-18z" stroke="#000" stroke-linejoin="round"/>
      <g stroke="#6914f9">
        <path d="m57 48v-1.5c0-1.35-1.2-2.55-2.1-3.6-1.35-1.5-2.4-3.3-2.4-5.4 0-4.2 3.3-7.5 7.5-7.5s7.5 3.3 7.5 7.5c0 2.25-.9 4.05-2.4 5.4-.9.9-2.1 2.25-2.1 3.6v1.5z"/>
        <path d="m50.4 27.9-4.2-4.2"/>
        <path d="m50.4 47.1-4.2 4.2"/>
        <path d="m69.6 47.1 4.2 4.2"/>
        <path d="m69.6 27.9 4.2-4.2"/>
        <path d="m57 48v3l1.5 1.5h3l1.5-1.5v-3" stroke-linejoin="round"/>
        <path d="m72 37.5h7.5"/>
        <path d="m40.5 37.5h7.5"/>
        <path d="m60 25.5v-7.5"/>
      </g>
    </g>
  </g>
</svg>
