<svg id="SXmock_Library_44_N" xmlns="http://www.w3.org/2000/svg" width="44" height="44" viewBox="0 0 44 44">
  <g id="SLMOCK">
    <rect id="Canvas" width="44" height="44" fill="rgba(255,19,220,0)"/>
  </g>
  <g id="ICONS">
    <path id="Path_129493" data-name="Path 129493" d="M30.5,2h-17A9.511,9.511,0,0,0,4,11.5v21A9.511,9.511,0,0,0,13.5,42h17A9.511,9.511,0,0,0,40,32.5v-21A9.511,9.511,0,0,0,30.5,2ZM37,32.5A6.508,6.508,0,0,1,30.5,39h-17A6.508,6.508,0,0,1,7,32.5v-21A6.508,6.508,0,0,1,13.5,5h8V20.248a1.25,1.25,0,0,0,2.132.886l2-1.994a1.25,1.25,0,0,1,1.768,0l1.963,1.97a1.25,1.25,0,0,0,2.136-.882V5.085A6.5,6.5,0,0,1,37,11.5Z" fill="#444"/>
  </g>
</svg>
