<?xml version="1.0" encoding="utf-8"?>
<!-- Generator: Adobe Illustrator 25.0.1, SVG Export Plug-In . SVG Version: 6.00 Build 0)  -->
<svg version="1.1" id="Layer_1" xmlns="http://www.w3.org/2000/svg" xmlns:xlink="http://www.w3.org/1999/xlink" x="0px" y="0px"
	 viewBox="0 0 240 234" style="enable-background:new 0 0 240 234;" xml:space="preserve">
<style type="text/css">
	.st0{fill:#00005B;}
	.st1{opacity:0.6;fill:#9999FF;enable-background:new    ;}
	.st2{fill:#9999FF;}
</style>
<g id="Layer_2_1_">
	<g id="Surfaces">
		<g id="Video_Audio_Surface">
			<g id="Outline_no_shadow">
				<path class="st0" d="M42.5,0h155C220.972,0,240,19.028,240,42.5v149c0,23.472-19.028,42.5-42.5,42.5h-155
					C19.028,234,0,214.972,0,191.5v-149C0,19.028,19.028,0,42.5,0z"/>
			</g>
		</g>
	</g>
	<g id="Outlined_Mnemonics_Logos">
		<g id="PRX_NEW">
			<path class="st1" d="M120.158,217.051c-8.674,0.015-16.997-3.427-23.127-9.564l-67.408-67.408
				c-12.752-12.781-12.752-33.473,0-46.254l67.408-67.409c12.781-12.752,33.473-12.752,46.254,0l67.408,67.408
				c12.752,12.781,12.752,33.473,0,46.254l-67.408,67.408C137.155,213.625,128.832,217.066,120.158,217.051z M120.158,26.852
				c-6.021-0.011-11.798,2.378-16.053,6.639l-67.408,67.408c-8.852,8.872-8.852,23.234,0,32.106l67.408,67.408
				c8.865,8.866,23.239,8.866,32.105,0.001c0,0,0,0,0.001-0.001l67.408-67.408c8.852-8.872,8.852-23.234,0-32.106L136.21,33.491
				C131.956,29.23,126.179,26.841,120.158,26.852z"/>
			<g>
				<path class="st2" d="M77.362,153.537V80.704c0-0.531,0.228-0.798,0.684-0.798c1.214,0,2.323-0.018,3.996-0.057
					c1.671-0.037,3.475-0.075,5.414-0.114c1.938-0.038,3.99-0.076,6.155-0.114c2.165-0.037,4.312-0.056,6.44-0.057
					c4.952-0.127,9.888,0.606,14.589,2.166c3.565,1.206,6.817,3.192,9.518,5.813c2.289,2.272,4.059,5.014,5.186,8.036
					c1.066,2.941,1.607,6.047,1.596,9.175c0,6.08-1.406,11.095-4.217,15.045c-2.83,3.966-6.808,6.97-11.398,8.605
					c-5.134,1.744-10.538,2.554-15.957,2.392c-1.672,0-2.85-0.019-3.534-0.057c-0.684-0.038-1.709-0.057-3.077-0.057v22.74
					c0.071,0.496-0.274,0.955-0.77,1.026c-0.085,0.012-0.171,0.012-0.256,0H78.16C77.628,154.449,77.362,154.146,77.362,153.537z
					 M92.756,93.584v23.755c0.987,0.077,1.898,0.115,2.735,0.114h3.761c2.768-0.009,5.517-0.448,8.15-1.301
					c2.258-0.671,4.276-1.976,5.813-3.761c1.482-1.747,2.222-4.179,2.223-7.295c0.06-2.205-0.514-4.381-1.653-6.269
					c-1.198-1.826-2.929-3.239-4.958-4.046c-2.649-1.03-5.479-1.514-8.32-1.425c-1.824,0-3.438,0.019-4.844,0.057
					C94.256,93.452,93.287,93.509,92.756,93.584L92.756,93.584z"/>
				<path class="st2" d="M140.773,97.655h12.424c0.693,0.006,1.298,0.471,1.482,1.14c0.212,0.561,0.355,1.146,0.424,1.741
					c0.159,0.733,0.273,1.476,0.342,2.223c0.075,0.798,0.113,1.653,0.114,2.564c2.131-2.481,4.7-4.548,7.58-6.098
					c3.291-1.816,6.988-2.769,10.747-2.769c0.496-0.071,0.955,0.274,1.026,0.769c0.012,0.085,0.012,0.171,0,0.256v13.791
					c0,0.533-0.38,0.798-1.14,0.798c-2.577-0.098-5.156,0.143-7.67,0.717c-2.039,0.405-4.027,1.036-5.927,1.881
					c-1.379,0.617-2.618,1.509-3.641,2.621v36.131c0,0.684-0.304,1.026-0.912,1.026h-13.969c-0.55,0.079-1.061-0.303-1.14-0.854
					c-0.014-0.095-0.014-0.191,0-0.286V114.1c0-1.671-0.019-3.437-0.057-5.3c-0.039-1.861-0.096-3.704-0.171-5.528
					c-0.01-1.611-0.114-3.22-0.31-4.819c-0.091-0.35,0.12-0.707,0.47-0.798C140.553,97.628,140.665,97.628,140.773,97.655
					L140.773,97.655z"/>
			</g>
		</g>
	</g>
</g>
</svg>
