<svg id="Layer_2_1_" xmlns="http://www.w3.org/2000/svg" width="71.795" height="70" viewBox="0 0 71.795 70">
  <g id="Surfaces">
    <g id="Video_Audio_Surface">
      <g id="Outline_no_shadow">
        <path id="Path_600106" data-name="Path 600106" d="M12.714,0H59.081A12.714,12.714,0,0,1,71.795,12.714V57.286A12.714,12.714,0,0,1,59.081,70H12.714A12.714,12.714,0,0,1,0,57.286V12.714A12.714,12.714,0,0,1,12.714,0Z" fill="#00005b"/>
      </g>
    </g>
  </g>
  <g id="Outlined_Mnemonics_Logos" transform="translate(6.001 5.041)">
    <g id="PRX_NEW">
      <path id="Path_600107" data-name="Path 600107" d="M50,76.741a9.755,9.755,0,0,1-6.918-2.861L22.92,53.715a9.8,9.8,0,0,1,0-13.837L43.085,19.713a9.8,9.8,0,0,1,13.837,0L77.086,39.878a9.8,9.8,0,0,1,0,13.837L56.921,73.879A9.753,9.753,0,0,1,50,76.741Zm0-56.9a6.769,6.769,0,0,0-4.8,1.986L25.036,41.994a6.8,6.8,0,0,0,0,9.6L45.2,71.763a6.791,6.791,0,0,0,9.6,0h0L74.97,51.6a6.8,6.8,0,0,0,0-9.6L54.805,21.829A6.768,6.768,0,0,0,50,19.843Z" transform="translate(-20.059 -16.852)" fill="#99f" opacity="0.6"/>
      <g id="Group_294519" data-name="Group 294519" transform="translate(17.142 18.756)">
        <path id="Path_600108" data-name="Path 600108" d="M77.362,101.683V79.9c0-.159.068-.239.2-.239.363,0,.695-.005,1.2-.017l1.62-.034,1.841-.034q.971-.017,1.926-.017a12.814,12.814,0,0,1,4.364.648,7.574,7.574,0,0,1,2.847,1.739,6.673,6.673,0,0,1,1.551,2.4,7.973,7.973,0,0,1,.477,2.745,7.575,7.575,0,0,1-1.261,4.5,7.127,7.127,0,0,1-3.41,2.574,13.579,13.579,0,0,1-4.773.716q-.75,0-1.057-.017t-.92-.017v6.8a.271.271,0,0,1-.307.307H77.6Q77.362,101.956,77.362,101.683Zm4.605-17.935v7.106q.443.035.818.034H83.91a7.994,7.994,0,0,0,2.438-.389,3.677,3.677,0,0,0,1.739-1.125,3.273,3.273,0,0,0,.665-2.182,3.449,3.449,0,0,0-.494-1.875,3.179,3.179,0,0,0-1.483-1.21,6.322,6.322,0,0,0-2.489-.426q-.818,0-1.449.017t-.87.051Z" transform="translate(-77.362 -79.55)" fill="#99f"/>
        <path id="Path_600109" data-name="Path 600109" d="M140.2,96.808h3.717a.464.464,0,0,1,.443.341,2.186,2.186,0,0,1,.127.521,5.541,5.541,0,0,1,.1.665q.034.358.034.767a7.965,7.965,0,0,1,2.268-1.824,6.654,6.654,0,0,1,3.215-.828.271.271,0,0,1,.307.23.275.275,0,0,1,0,.077v4.126q0,.239-.341.239a8.805,8.805,0,0,0-2.294.214A8.382,8.382,0,0,0,146,101.9a3.326,3.326,0,0,0-1.089.784V113.49q0,.307-.273.307h-4.179a.3.3,0,0,1-.341-.255.293.293,0,0,1,0-.086V101.728q0-.75-.017-1.585t-.051-1.654a12.487,12.487,0,0,0-.093-1.442.2.2,0,0,1,.141-.239.2.2,0,0,1,.1,0Z" transform="translate(-121.23 -91.392)" fill="#99f"/>
      </g>
    </g>
  </g>
</svg>
