<?xml version="1.0" encoding="utf-8"?>
<!-- Generator: Adobe Illustrator 25.0.1, SVG Export Plug-In . SVG Version: 6.00 Build 0)  -->
<svg version="1.1" id="Layer_1" xmlns="http://www.w3.org/2000/svg" xmlns:xlink="http://www.w3.org/1999/xlink" x="0px" y="0px"
	 viewBox="0 0 240 234" style="enable-background:new 0 0 240 234;" xml:space="preserve">
<style type="text/css">
	.st0{fill:#001E36;}
	.st1{opacity:0.6;fill:#31A8FF;enable-background:new    ;}
	.st2{fill:#31A8FF;}
</style>
<g id="Surfaces">
	<g id="Photo_Surface">
		<g id="Outline_no_shadow">
			<path class="st0" d="M42.5,0h155C220.972,0,240,19.028,240,42.5v149c0,23.472-19.028,42.5-42.5,42.5h-155
				C19.028,234,0,214.972,0,191.5v-149C0,19.028,19.028,0,42.5,0z"/>
		</g>
	</g>
</g>
<g id="Outlined_Mnemonics_Logos">
	<g id="PsX">
		<path class="st1" d="M120.158,217.051c-8.674,0.015-16.997-3.427-23.127-9.564l-67.408-67.408
			c-12.752-12.781-12.752-33.473,0-46.254l67.408-67.409c12.781-12.752,33.473-12.752,46.254,0l67.408,67.408
			c12.752,12.781,12.752,33.473,0,46.254l-67.408,67.408C137.155,213.625,128.832,217.066,120.158,217.051z M120.158,26.852
			c-6.021-0.011-11.798,2.378-16.053,6.639l-67.408,67.408c-8.852,8.872-8.852,23.234,0,32.106l67.408,67.408
			c8.865,8.866,23.239,8.866,32.105,0.001c0,0,0,0,0.001-0.001l67.408-67.408c8.852-8.872,8.852-23.234,0-32.106L136.21,33.491
			C131.956,29.23,126.179,26.841,120.158,26.852z"/>
		<g>
			<path class="st2" d="M75.165,153.524V80.572c0-0.532,0.229-0.799,0.685-0.799c1.216,0,2.327-0.018,4.002-0.057
				c1.673-0.037,3.481-0.075,5.423-0.114c1.941-0.038,3.996-0.076,6.165-0.114c2.169-0.037,4.319-0.056,6.45-0.057
				c4.96-0.127,9.904,0.607,14.613,2.169c3.571,1.208,6.828,3.197,9.533,5.822c2.293,2.276,4.065,5.022,5.194,8.049
				c1.068,2.946,1.609,6.057,1.599,9.19c0,6.09-1.408,11.113-4.224,15.07c-2.835,3.973-6.819,6.981-11.417,8.62
				c-5.142,1.747-10.555,2.558-15.983,2.396c-1.675,0-2.855-0.019-3.539-0.057c-0.685-0.038-1.712-0.057-3.082-0.057v22.778
				c0.071,0.497-0.274,0.957-0.771,1.027c-0.085,0.012-0.172,0.012-0.257,0H75.964C75.431,154.437,75.165,154.134,75.165,153.524z
				 M90.584,93.473v23.794c0.988,0.077,1.901,0.115,2.74,0.114h3.767c2.772-0.009,5.526-0.449,8.163-1.303
				c2.262-0.672,4.283-1.98,5.822-3.767c1.484-1.75,2.226-4.185,2.226-7.307c0.06-2.208-0.514-4.388-1.656-6.279
				c-1.2-1.829-2.934-3.244-4.966-4.053c-2.654-1.032-5.488-1.517-8.334-1.427c-1.827,0-3.444,0.019-4.852,0.057
				C92.086,93.341,91.116,93.398,90.584,93.473z"/>
			<g id="Outlined_Mnemonics_Logos-2">
				<g id="Ps">
					<path class="st2" d="M172.943,112.917c-2.146-1.103-4.432-1.909-6.794-2.398c-2.603-0.597-5.265-0.904-7.936-0.914
						c-1.445-0.039-2.888,0.134-4.282,0.514c-0.888,0.198-1.677,0.703-2.227,1.427c-0.372,0.579-0.57,1.253-0.571,1.941
						c0.021,0.668,0.262,1.31,0.685,1.827c0.667,0.78,1.482,1.421,2.398,1.884c1.628,0.877,3.306,1.658,5.024,2.341
						c3.832,1.283,7.494,3.028,10.905,5.196c2.323,1.466,4.246,3.487,5.595,5.881c1.134,2.266,1.703,4.774,1.656,7.308
						c0.068,3.346-0.888,6.633-2.74,9.421c-1.983,2.829-4.738,5.029-7.936,6.337c-4.079,1.637-8.452,2.414-12.846,2.284
						c-3.239,0.033-6.473-0.273-9.649-0.914c-2.502-0.459-4.938-1.226-7.251-2.284c-0.51-0.263-0.821-0.797-0.799-1.37v-12.332
						c-0.028-0.246,0.082-0.487,0.286-0.628c0.201-0.114,0.451-0.091,0.628,0.057c2.732,1.611,5.698,2.786,8.792,3.483
						c2.727,0.684,5.524,1.048,8.336,1.085c2.014,0.126,4.029-0.227,5.881-1.028c1.159-0.531,1.898-1.694,1.884-2.969
						c-0.098-1.165-0.731-2.22-1.713-2.855c-2.16-1.417-4.503-2.531-6.966-3.312c-3.585-1.248-6.985-2.976-10.106-5.138
						c-2.232-1.552-4.07-3.605-5.367-5.995c-1.123-2.25-1.691-4.736-1.656-7.251c-0.006-3.021,0.824-5.985,2.398-8.564
						c1.795-2.84,4.373-5.1,7.422-6.509c3.936-1.797,8.236-2.657,12.561-2.512c2.943-0.024,5.883,0.186,8.792,0.628
						c2.107,0.267,4.167,0.824,6.121,1.656c0.314,0.09,0.568,0.323,0.685,0.628c0.077,0.279,0.116,0.567,0.114,0.856v11.533
						c0.016,0.273-0.114,0.534-0.342,0.685C173.617,113.071,173.253,113.071,172.943,112.917z"/>
				</g>
			</g>
		</g>
	</g>
</g>
</svg>
