<svg xmlns="http://www.w3.org/2000/svg" width="44" height="44" viewBox="0 0 44 44"><rect width="44" height="44" fill="rgba(255,19,220,0)"/><path d="M17.982,17.173l2.87,2.943a1.247,1.247,0,1,0,1.792-1.734l-2.9-2.972-.029-.029a6.974,6.974,0,1,0-4.6,12.208h.626V25.054h-.568a4.593,4.593,0,0,1-4.545-4.516,4.451,4.451,0,0,1,7.357-3.365Z" fill="#444"/><path d="M15.5,34H9.344A4.341,4.341,0,0,1,5,29.671V9.329A4.341,4.341,0,0,1,9.344,5H30.656A4.341,4.341,0,0,1,35,9.329V15.5a1.5,1.5,0,0,0,3,0V9.329A7.345,7.345,0,0,0,30.656,2H9.344A7.344,7.344,0,0,0,2,9.328V29.671A7.345,7.345,0,0,0,9.344,37H15.5a1.5,1.5,0,0,0,0-3Z" fill="#444"/><path d="M29.115,17.285a15.019,15.019,0,0,1,2.5-.265A8.457,8.457,0,0,0,23.4,10.559a8.1,8.1,0,0,0-5.682,2.185h-.015c.044.015.146.058.219.088.306.131.83.379,1.005.481s.379.2.568.321c.306.189.583.364.6.379A5.409,5.409,0,0,1,23.4,13.05a6,6,0,0,1,5.713,4.235Z" fill="#444"/><path d="M15.389,19.445a1.241,1.241,0,1,0-1.777,1.734l3.817,3.832a9.62,9.62,0,0,0,.926.8A15.005,15.005,0,0,1,19.578,23.6c-.132-.113-.262-.229-.387-.354Z" fill="#444"/><path d="M26.5,30.5a1.5,1.5,0,0,0,0,3h11a1.5,1.5,0,0,0,0-3Z" fill="#444"/><path d="M32,20A12,12,0,1,0,44,32,12,12,0,0,0,32,20Zm0,21a9,9,0,1,1,9-9A9,9,0,0,1,32,41Z" fill="#444"/></svg>