<?xml version="1.0"?>
<svg xmlns="http://www.w3.org/2000/svg" width="60" height="60" viewBox="0 0 60 60">
  <g transform="translate(-1323 -268)">
    <g transform="translate(1321 302.27) rotate(-45)">
      <path d="M0,13.623l1.649,4.6L6.661,22.1,20.6,8.2,13.066,0Z" transform="translate(24.233 3.296)" fill="#ff614c"/>
      <path d="M0,0H7.61L9.319,10.139l-7-4.773Z" transform="translate(37.927 1.083)" fill="#f2f4f5"/>
      <g transform="translate(0 0)">
        <path d="M21.107.365a1.245,1.245,0,0,0-1.761,0L3.193,16.518a1.245,1.245,0,1,0,1.761,1.76L21.107,2.126A1.244,1.244,0,0,0,21.107.365Z" transform="translate(0 20.572)" fill="#284660"/>
        <path d="M26.843,6.857c-.5-4.343-1.154-5-1.4-5.242C24.17.341,17.795,0,16.982,0A2.783,2.783,0,0,0,14.9.526a1.808,1.808,0,0,0-.29,1.981l-2.5,2.5a1.26,1.26,0,0,0-.357.357L8.814,8.308a1.243,1.243,0,0,0-.357.357L5.516,11.606a1.262,1.262,0,0,0-.358.357L2.216,14.905a1.23,1.23,0,0,0-.355.355l-.687.687a1.219,1.219,0,0,0-.111.127C0,17.4,1.569,19.734,3.425,21.757.1,25.339-.972,29.351.951,31.274a.934.934,0,0,0,1.321-1.32c-.983-.984-.116-4.035,2.459-6.858,1.143,1.1,3.6,3.252,5.2,3.252a1.678,1.678,0,0,0,.985-.3,1.275,1.275,0,0,0,.2-.161l13.45-13.451a2.54,2.54,0,0,0,.832.172,1.59,1.59,0,0,0,1.136-.452C26.862,11.825,27.358,11.328,26.843,6.857ZM18.719,2.571a24.032,24.032,0,0,1,4.943.832,23.747,23.747,0,0,1,.821,4.934c.04.483.07.936.085,1.322a25.114,25.114,0,0,1-3.893-3.276A25.19,25.19,0,0,1,17.4,2.5C17.814,2.508,18.261,2.534,18.719,2.571Zm-2.8,2.155a31.738,31.738,0,0,0,3,3.419c.431.431,1.289,1.262,2.277,2.091a12.718,12.718,0,0,1-2.874-.986c-.221-.107-.441-.222-.662-.349s-.424-.26-.626-.4a13,13,0,0,1-2.565-2.323ZM9.71,23.766a14.706,14.706,0,0,1-3.6-2.813c-.244-.244-.466-.478-.677-.707.339.244.7.481,1.085.7a14.939,14.939,0,0,0,4.374,1.638Zm3.345-3.345a1.224,1.224,0,0,0-.327-.07,12.926,12.926,0,0,1-4.314-1.212c-.217-.106-.435-.218-.652-.344s-.423-.259-.626-.4a13,13,0,0,1-2.568-2.325l1.53-1.53a14.964,14.964,0,0,0,3.712,3.109,14.891,14.891,0,0,0,4.375,1.636Zm3.3-3.3a1.231,1.231,0,0,0-.331-.07,12.714,12.714,0,0,1-4.3-1.2c-.222-.108-.444-.223-.665-.351s-.426-.261-.628-.4a13,13,0,0,1-2.564-2.323L9.4,11.246a14.908,14.908,0,0,0,3.712,3.109,14.883,14.883,0,0,0,4.374,1.637Zm3.3-3.3a1.229,1.229,0,0,0-.327-.07,12.912,12.912,0,0,1-4.308-1.209c-.22-.107-.439-.22-.656-.346s-.426-.261-.628-.4a12.97,12.97,0,0,1-2.564-2.322L12.7,7.949a14.921,14.921,0,0,0,3.712,3.109A14.9,14.9,0,0,0,20.784,12.7Z" transform="translate(21.4 0)" fill="#284660"/>
        <path d="M2.571,0H.933a.934.934,0,0,0,0,1.868H2.572A.934.934,0,1,0,2.571,0Z" transform="translate(26.468 32.144)" fill="#fcce00"/>
        <path d="M3.5.933A.932.932,0,0,0,2.571,0H.934a.934.934,0,0,0,0,1.868H2.571A.933.933,0,0,0,3.5.933Z" transform="translate(19.188 32.144)" fill="#fcce00"/>
        <path d="M1.744.468A.935.935,0,0,0,.125,1.4L.944,2.821a.934.934,0,0,0,1.618-.934Z" transform="translate(25.057 34.587)" fill="#fcce00"/>
        <path d="M2.22.126A.933.933,0,0,0,.944.468L.125,1.886A.934.934,0,0,0,.467,3.162a.921.921,0,0,0,.466.125.937.937,0,0,0,.81-.467L2.562,1.4A.934.934,0,0,0,2.22.126Z" transform="translate(21.416 34.587)" fill="#fcce00"/>
        <path d="M.468,3.161a.937.937,0,0,0,1.277-.342L2.562,1.4A.934.934,0,0,0,.944.466L.126,1.885A.933.933,0,0,0,.468,3.161Z" transform="translate(25.056 28.283)" fill="#fcce00"/>
      </g>
    </g>
    <rect width="60" height="60" transform="translate(1323 268)" fill="none"/>
  </g>
</svg>
