<?xml version="1.0" encoding="utf-8"?>
<!-- Generator: Adobe Illustrator 23.0.1, SVG Export Plug-In . SVG Version: 6.00 Build 0)  -->
<!DOCTYPE svg PUBLIC "-//W3C//DTD SVG 1.1//EN" "http://www.w3.org/Graphics/SVG/1.1/DTD/svg11.dtd" [
	<!ENTITY ns_extend "http://ns.adobe.com/Extensibility/1.0/">
	<!ENTITY ns_ai "http://ns.adobe.com/AdobeIllustrator/10.0/">
	<!ENTITY ns_graphs "http://ns.adobe.com/Graphs/1.0/">
	<!ENTITY ns_vars "http://ns.adobe.com/Variables/1.0/">
	<!ENTITY ns_imrep "http://ns.adobe.com/ImageReplacement/1.0/">
	<!ENTITY ns_sfw "http://ns.adobe.com/SaveForWeb/1.0/">
	<!ENTITY ns_custom "http://ns.adobe.com/GenericCustomNamespace/1.0/">
	<!ENTITY ns_adobe_xpath "http://ns.adobe.com/XPath/1.0/">
]>
<svg version="1.1" id="Livello_1" xmlns:x="&ns_extend;" xmlns:i="&ns_ai;" xmlns:graph="&ns_graphs;"
	 xmlns="http://www.w3.org/2000/svg" xmlns:xlink="http://www.w3.org/1999/xlink" x="0px" y="0px" viewBox="0 0 240 234"
	 style="enable-background:new 0 0 240 234;" xml:space="preserve">
<style type="text/css">
	.st0{fill:#370000;}
	.st1{fill:#FA0F00;}
</style>
<metadata>
	<sfw  xmlns="&ns_sfw;">
		<slices></slices>
		<sliceSourceBounds  bottomLeftOrigin="true" height="234" width="240" x="0" y="0"></sliceSourceBounds>
	</sfw>
</metadata>
<g id="Layer_2">
	<path class="st0" d="M42.5,0h155C221,0,240,19,240,42.5v149c0,23.5-19,42.5-42.5,42.5h-155C19,234,0,215,0,191.5v-149
		C0,19,19,0,42.5,0z"/>
	<g id="Sp">
		<path class="st1" d="M76.5,167c-5.5,0.1-11-0.5-16.3-1.5c-4.3-0.8-8.4-2.1-12.3-3.9c-0.9-0.4-1.3-1.3-1.3-2.7v-19.2
			c0-0.3,0.1-0.7,0.4-0.9c0.3-0.2,0.7-0.1,1,0.1c8.8,5.4,18.8,8.3,29.1,8.4c6.1,0,10.5-0.9,13.1-2.8c2.4-1.5,4-4.1,4-7
			c0-1.7-0.4-3.4-1.3-4.9c-1.2-1.7-2.7-3.2-4.5-4.3c-2.8-1.7-5.8-3.2-8.8-4.3l-8-3.4c-6.5-2.8-11.7-5.8-15.4-8.9
			c-3.4-2.7-6-6.2-7.7-10.2c-1.4-3.8-2.1-7.7-2.1-11.8c-0.2-11.6,6.6-22.3,17.2-27c5.7-2.7,12.8-4.1,21.2-4.1c4.8,0,9.6,0.3,14.4,1
			c3.7,0.4,7.3,1.4,10.7,3c0.7,0.4,1.2,1.2,1.1,2.1v18.2c0,0.3-0.2,0.5-0.4,0.7c-0.3,0.3-0.6,0.2-1-0.1c-3.6-1.8-7.4-3.2-11.3-4
			c-4.4-1-9-1.5-13.5-1.4c-2.7,0-5.3,0.2-7.9,0.8c-1.8,0.4-3.6,1.1-5.2,2c-1.3,0.7-2.3,1.8-3,3.1c-0.6,1.2-1,2.5-1,3.8
			c0,1.6,0.5,3.3,1.4,4.6c1.3,1.6,3,3,4.8,4c3,1.7,6.2,3.3,9.4,4.8l6,2.3c7.1,2.9,12.6,6,16.6,9.2c3.6,2.8,6.5,6.5,8.4,10.6
			c1.6,3.9,2.5,8.1,2.4,12.3c0.1,6-1.7,11.8-5.1,16.7c-3.6,4.9-8.5,8.7-14.1,11C91.7,165.7,84.6,167,76.5,167z"/>
		<path class="st1" d="M161,83.8c7.1,0,13.1,1.1,18.2,3.2c4.8,2,9.1,5,12.6,8.8c3.3,3.6,5.8,7.9,7.5,12.5c1.7,4.7,2.5,9.7,2.5,14.7
			c0.2,6.7-1.2,13.3-4.1,19.3c-2.6,5.4-6.4,10.1-11.2,13.8c-4.7,3.7-10.1,6.5-15.9,8.3c-5.9,1.8-12,2.7-18.1,2.7
			c-0.4,0-0.9,0-1.3-0.1c-0.5,0-1.6-0.1-2.3-0.1v27.4c0.1,0.7-0.4,1.4-1.2,1.4c0,0-0.1,0-0.1,0c-1.6,0.1-3,0.3-5.2,0.5
			s-4.3,0.4-6.4,0.6s-3.8,0.4-5.3,0.5c-0.9,0-1.8,0.1-2.7,0.3c-0.6,0-1-0.4-1-1.3v-94.5c0-0.8,0-1.8-0.1-3.2s-0.1-2.8-0.2-4.1
			c0-1.1-0.1-2.1-0.2-3.1c-0.1-0.5,0.2-0.9,0.7-1c2.7-1,5.8-1.9,9.2-2.9c3.5-1,7.3-1.8,11.4-2.6C152.2,84.1,156.6,83.7,161,83.8z
			 M159.1,102.8c-1.7,0-3.3,0.1-5,0.3c-1.5,0.2-3.6,0-5.2,0.4v44c1,0.3,2,0.6,3,0.8c1,0,1.9,0.1,2.5,0.1c3.9,0,7.8-0.8,11.4-2.4
			c3.8-1.6,7-4.3,9.2-7.6c2.5-3.6,3.7-8.2,3.7-14c0-6.9-1.7-12.2-5.2-15.9C170.1,104.7,165.3,102.8,159.1,102.8L159.1,102.8z"/>
	</g>
</g>
</svg>
